<?xml version="1.0" encoding="UTF-8"?>
<svg version="1.1" viewBox="0 0 1600 1600" width="1280" height="1280" xmlns="http://www.w3.org/2000/svg">
<path transform="translate(1157 503)" d="m0 0c13.1 9.14 25.4 19.4 35.4 31.9v2h2c4.39 4.71 7.32 10.2 10 16 0.82 1.64 0.82 1.64 1.66 3.31 9.14 18.4 12.5 38.2 8.34 58.7-0.64 1.35-1.3 2.68-2 4-0.79 2.99-1.45 6-2.12 9.03-0.91 3.07-2.14 5.29-3.88 7.97-0.84 1.5-1.68 2.99-2.5 4.5-0.65 1.17-0.65 1.17-1.31 2.36-0.91 1.62-1.8 3.26-2.69 4.89-1.86 2.79-4.1 4.91-6.5 7.25-0.72 0.95-1.45 1.9-2.19 2.87-3.52 4.31-8.2 7.11-12.8 10.1-0.69 0.47-1.37 0.93-2.08 1.41-11.8 7.8-24.6 10.3-38.6 8.03-5.58-1.42-9.92-4.91-14.4-8.44-0.99-0.78-1.98-1.55-3-2.35-3.09-2.6-5.45-5.54-7.88-8.78-0.42-0.56-0.85-1.13-1.29-1.71-1.29-1.72-2.56-3.44-3.83-5.16-1.1-1.47-1.1-1.47-2.21-2.98-3.5-4.75-6.85-9.56-10.1-14.5-1.38-2.04-2.79-4.04-4.24-6.03-0.44-0.62-0.89-1.24-1.36-1.87-0.89-1.23-1.78-2.45-2.69-3.67-2.33-3.21-4.15-6.2-5.42-9.96h-2c-1.12-1.33-1.12-1.33-2.44-3.25-7.22-9.95-16.8-21.6-27.6-27.8-0.8-0.5-1.61-0.99-2.43-1.5-13.4-8.23-25.7-10.7-41.3-10.8-1.11-0.02-2.22-0.04-3.36-0.06-12.6-0.24-12.6-0.24-23.6 4.85-0.67 0.72-0.67 0.72-1.35 1.46-1.49 0.49-1.49 0.49-3 1-3.98 3.86-7.32 8.15-10 13-0.94 1.35-0.94 1.35-1.9 2.73-2.81 4.36-4.68 9-6.66 13.8-0.82 1.99-1.67 3.97-2.57 5.92-11.6 25.7-11.2 60.5-11.1 88.3v2.19c0.02 6.77 0.18 13.4 1.25 20.1 2.78 0.93 4.52 1.14 7.4 1.17 1.34 0.02 1.34 0.02 2.69 0.04 0.96 0.01 1.92 0.02 2.91 0.04 2.04 0.03 4.08 0.06 6.12 0.09 3.21 0.05 6.42 0.1 9.64 0.14 3.1 0.04 6.2 0.09 9.3 0.14 0.95 0.01 1.89 0.02 2.87 0.03 5.5 0.1 10.6 0.69 16 1.9 2.54 0.54 5.01 0.68 7.6 0.76 5.92 0.44 10.4 2.71 15.5 5.69v2c0.96 0.46 0.96 0.46 1.94 0.94 2.06 1.06 2.06 1.06 3.06 2.06 0.11 2.91 0.09 4.37-1 7-4.94 5.28-11.2 8.64-18 11-1.1 0.39-2.21 0.77-3.34 1.17-19.2 6.21-40.6 8.28-60.7 9.83 0.31 8.52 0.8 16.6 3.13 24.8 0.82 2.99 1.47 5.99 2.1 9.03 3.24 15.2 9.17 29.3 17.2 42.5 1.57 2.65 1.57 2.65 2.57 5.65 3.52 1.05 3.52 1.05 6.9 0.05 4.2-2.1 8.69-1.52 13.2-0.64 7.55 2.73 10.5 10.9 13.9 17.6 0.56 1.03 1.12 2.06 1.7 3.13 1.95 4.33 1.89 8.21 1.3 12.9-1.38 2.81-1.38 2.81-3 5-1.68 3.63-2.45 7.04-3 11l5 2c0.15 8.05 0.3 16.1 0.44 24.2 0.07 3.73 0.13 7.47 0.21 11.2 0.07 3.6 0.13 7.21 0.19 10.8 0.02 1.38 0.05 2.76 0.08 4.14 0.04 1.92 0.07 3.85 0.1 5.77 0.02 1.1 0.04 2.19 0.06 3.32-0.08 2.6-0.08 2.6-1.08 4.6-0.1 1.65-0.13 3.31-0.13 4.97 0 1.03-0.01 2.07-0.01 3.13 0 1.12 0 2.24 0.01 3.4-0.01 1.15-0.01 2.29-0.01 3.47 0 2.43 0 4.86 0.01 7.29 0 3.72 0 7.45-0.01 11.2 0 2.35 0 4.7 0.01 7.06-0.01 1.12-0.01 2.24-0.01 3.4 0 1.03 0.01 2.06 0.01 3.13v2.77c-0.01 2.24-0.01 2.24 1.13 4.2 0.18 2.69 0.08 5.3 0 8-2.62 2.62-9.8 1.38-13.3 1.44-1.16 0.04-2.31 0.09-3.5 0.14-3.18 0.04-6.07 0.02-9.19-0.58-2.54-3.01-2.54-3.01-4-6-2.05-0.68-2.05-0.68-4.13-0.31-3.87 0.31-3.87 0.31-5.87-0.69v-3.49c0.03-10.9 0.04-21.8 0.05-32.7 0-5.61 0.01-11.2 0.02-16.8 0.01-5.43 0.02-10.9 0.02-16.3 0-2.05 0.01-4.11 0.01-6.16 0.04-12.5-0.25-25-1.1-37.5h-5c-0.39 1.24-0.79 2.47-1.19 3.75-1.95 5.88-4.37 11.6-6.81 17.2-1.24-0.68-1.24-0.68-2.5-1.38-9.34-4.33-21-5.65-31-2.62-7.56 3.54-11.3 11-14.6 18.3-1.87 5.37-2.1 10.7-2.15 16.4-0.01 0.74-0.02 1.48-0.03 2.25-0.03 2.43-0.05 4.87-0.08 7.3-0.02 1.7-0.04 3.39-0.06 5.09-0.06 4.44-0.11 8.89-0.15 13.3-0.05 4.55-0.11 9.09-0.17 13.6-0.1 8.9-0.2 17.8-0.3 26.7-3.02 0.05-6.04 0.09-9.06 0.12-0.85 0.02-1.7 0.04-2.57 0.05-5.2 0.04-9.48-0.37-14.4-2.17-0.48-0.52-0.95-1.03-1.44-1.56-1.95-1.8-3.02-1.74-5.62-2-3.94-0.44-3.94-0.44-5.94-2.44-0.24-1.92-0.24-1.92-0.22-4.31v-2.75c0.01-1 0.03-1.99 0.04-3.02 0-1.05 0.01-2.09 0.01-3.17 0.01-2.28 0.03-4.56 0.05-6.84 0.03-3.61 0.05-7.21 0.06-10.8 0.04-10.2 0.1-20.5 0.17-30.8 0.05-6.26 0.08-12.5 0.09-18.8 0.02-2.4 0.03-4.79 0.05-7.18 0.04-3.34 0.05-6.68 0.06-10 0.01-1 0.02-1.99 0.04-3.01v-2.76c0-0.79 0.01-1.58 0.01-2.4-0.47-2.79-1.4-4.15-3.36-6.17-2.33-0.38-4.66-0.71-7-1-1.94-1.56-1.94-1.56-3-3 0.49-1.87 0.49-1.87 2-4 2.76-0.88 5.3-1.53 8.12-2.06 5.9-1.19 11.3-2.73 16.9-4.94 1.45-0.47 2.91-0.93 4.37-1.38 4.46-1.44 8.46-3.5 12.6-5.73 0.68-0.29 1.37-0.59 2.07-0.89l2 1c0.38 2.87 0.38 2.87 0.56 6.44 0.1 4.44 0.1 4.44 1.44 8.56 4.54-1.73 7.6-3.42 11.3-6.67 6.97-5.39 15.6-8.84 24.5-8.08 1.75 0.24 3.5 0.49 5.25 0.75 1.03 0.11 2.06 0.23 3.13 0.34 9 1.15 9 1.15 12.1 4.03 1.75 2.63 1.75 2.63 1.75 6.63 8.61-0.31 16-1.93 24-5v-4c-2.27-1.83-2.27-1.83-5.19-3.38-5.92-3.34-9.78-6.78-12.2-13.3-0.35-1.31-0.7-2.63-1.04-3.96-1.82-6.44-4.28-11.8-7.85-17.5-3.87-6.31-7.06-13-9.77-19.9-0.55-1.25-0.55-1.25-1.12-2.52-8.42-19.2-11-38.9-13.9-59.5-0.92-0.06-1.83-0.12-2.78-0.18-1.78-0.13-1.78-0.13-3.6-0.26-1.18-0.08-2.36-0.16-3.58-0.24-3.04-0.32-3.04-0.32-5.04-1.32-1.35-0.06-2.7-0.06-4.05-0.03-1.25 0.02-1.25 0.02-2.52 0.04-1.36 0.03-1.36 0.03-2.74 0.05-7.28 0.08-14.3-0.22-21.6-1.06-20.2-2.22-40.8-1.1-61.2-0.56-0.76 0.02-1.52 0.04-2.3 0.06-2.17 0.05-4.33 0.12-6.49 0.18-1.24 0.04-2.47 0.08-3.75 0.11-3.32 0.14-3.32 0.14-6.21 0.7-3.25 0.52-6.39 0.74-9.67 0.88-1.27 0.06-2.54 0.12-3.85 0.17-1.38 0.06-2.76 0.12-4.14 0.18-1.44 0.06-2.88 0.12-4.32 0.19-3.8 0.17-7.6 0.33-11.4 0.49-3.79 0.16-7.57 0.33-11.4 0.49-5.12 0.23-10.2 0.45-15.4 0.67-12.6 0.54-25.1 1.11-37.7 1.7-9.73 0.45-19.5 0.78-29.2 0.99-0.95 0.02-1.9 0.04-2.88 0.06-4.81 0.11-9.63 0.21-14.4 0.3-1.78 0.03-3.57 0.07-5.35 0.11-1.25 0.02-1.25 0.02-2.52 0.04-4.15-0.01-4.15-0.01-8.02 1.24-2.98 0.18-5.94 0.31-8.93 0.39-0.93 0.03-1.86 0.06-2.82 0.09-3.12 0.09-6.23 0.18-9.35 0.27-2.2 0.07-4.4 0.13-6.6 0.2-5.9 0.18-11.8 0.34-17.7 0.51-3.65 0.1-7.29 0.2-10.9 0.31-38.2 1.08-76.4 1.67-115 1.23l3-2 2-2c2.47-0.37 4.86-0.63 7.34-0.82 0.73-0.06 1.45-0.12 2.2-0.18 2.32-0.2 4.64-0.38 6.96-0.56l6.96-0.57c1.44-0.12 2.89-0.24 4.33-0.35 3.73-0.27 3.73-0.27 7.21-1.52 2.93-0.36 5.86-0.66 8.8-0.94 0.88-0.08 1.75-0.17 2.66-0.26 2.8-0.27 5.61-0.54 8.41-0.8 2.8-0.27 5.6-0.53 8.4-0.81 1.74-0.16 3.48-0.33 5.23-0.49 1.19-0.12 1.19-0.12 2.4-0.24 0.7-0.06 1.4-0.13 2.11-0.2 2.01-0.23 2.01-0.23 4.02-0.78 3.27-0.8 6.62-0.73 9.97-0.86 7.89-0.35 15.7-1.06 23.6-1.93 12.3-1.36 24.5-2.63 36.8-3.82 0.92-0.08 1.83-0.17 2.77-0.26 10.9-1.05 21.7-2.05 32.7-2.28 5-0.13 9.92-0.64 14.9-1.26 8.98-1.08 18-1.85 27-2.54 1.63-0.13 3.27-0.26 4.91-0.39 3.41-0.27 6.81-0.54 10.2-0.8 4.31-0.34 8.62-0.67 12.9-1.02 3.37-0.26 6.75-0.53 10.1-0.79 1.59-0.13 3.18-0.25 4.77-0.38 2.23-0.17 4.47-0.35 6.71-0.52 0.71-0.05 1.42-0.11 2.16-0.16 3.75-0.29 7.5-0.54 11.2-0.74 0.78-0.04 1.56-0.09 2.36-0.13 1.49-0.08 2.97-0.16 4.46-0.23 3.02-0.15 5.52-0.41 8.41-1.37 1.83-0.19 3.67-0.32 5.51-0.43 1.13-0.07 2.27-0.14 3.44-0.22 1.23-0.07 2.46-0.14 3.74-0.22 1.96-0.12 3.93-0.24 5.9-0.37 4.82-0.3 9.65-0.59 14.5-0.88 14.3-0.86 28.6-1.82 42.8-3.35 1.61-0.17 1.61-0.17 3.26-0.35 8.13-0.92 15.9-2.65 23.7-5 8.3-2.44 16.8-3.63 25.4-4.74 1.88-0.25 3.77-0.51 5.66-0.76 0.82-0.11 1.65-0.21 2.49-0.32 3.22-0.44 6.44-0.9 9.66-1.36-0.01-1.41-0.01-1.41-0.02-2.86-0.02-3.54-0.03-7.09-0.04-10.6 0-1.52-0.01-3.05-0.02-4.57-0.04-7.96 0.02-15.8 0.86-23.7 0.26-2.64 0.25-5.22 0.16-7.88-0.07-6.68 0.44-13.3 1-19.9 0.08-1.06 0.17-2.13 0.26-3.23 0.67-7.75 0.67-7.75 1.8-11.1 0.24-1.37 0.45-2.75 0.65-4.13 0.17-1.21 0.17-1.21 0.36-2.45 0.24-1.67 0.47-3.35 0.71-5.02 0.85-5.73 2.32-11 4.28-16.4 0.46-1.42 0.92-2.83 1.37-4.25 7.01-20.8 16.6-39.2 36.9-49.6 1.57-0.76 3.15-1.49 4.75-2.19 0.78-0.36 1.56-0.71 2.36-1.08 12.8-4.48 27.8-2.22 40.8 0.33 1.06 0.2 2.11 0.41 3.2 0.62 6.11 1.29 11.2 3.08 16.7 6.13 0.85 0.4 1.7 0.79 2.58 1.2 13.9 6.53 25.7 17 35.4 28.8 0.88 1.05 0.88 1.05 1.78 2.12 5.95 7.24 11.3 14.9 16.6 22.6 1.62 2.32 3.26 4.64 4.89 6.95 0.54 0.76 1.08 1.52 1.63 2.3 1.02 1.44 2.05 2.89 3.07 4.33 2.07 2.93 4.1 5.86 6.07 8.85 1.99 2.94 4.12 5.68 6.38 8.42 1.11 1.36 1.11 1.36 2.24 2.76 7.91 9.17 7.91 9.17 18.9 13.2 11.4 0.61 22.3-2.25 31.4-9.49 3.68-3.41 6.81-7.14 10-11 0.77-0.71 0.77-0.71 1.55-1.43 2.11-2.29 2.69-4.8 3.6-7.73 0.85-1.84 0.85-1.84 3.85-3.84 1.14-2.67 2.11-5.24 3-8 0.27-0.83 0.54-1.65 0.82-2.5 2.59-8.26 3.37-16.1 3.37-24.7-0.01-0.92-0.01-1.85-0.01-2.8 0.45-11.9 0.45-11.9-4.18-22-0.59-1.8-1.12-3.62-1.63-5.44-2.22-6.92-5.89-11.9-10.4-17.6-1.07-1.46-2.13-2.92-3.19-4.38-2.38-3.15-4.95-5.89-7.81-8.62-0.56-0.58-1.13-1.17-1.71-1.77-10.2-10.6-23.2-23.5-38.6-24.4-1.19-0.02-2.38-0.04-3.6-0.05-1.18-0.03-2.37-0.05-3.59-0.08-4.88 0.46-8.18 2-11.6 5.52-10.4 15.6-11.4 36.7-7.87 54.8 0.25 2.78 0.19 5.18 0 8-3.5 2.33-4.88 2.67-9 2-8.7-9.18-6.48-25.6-6.31-37.2 0.45-13.9 4.77-28.8 14.4-39.3 15.8-12.7 34.5-10.4 50.5 0.56zm-63.6 31.9 1 2zm-164 188 1 2zm15 11c-2.47 3.7-2.17 6.32-1.88 10.6 0.03 0.69 0.05 1.37 0.07 2.08 0.1 2.23 0.1 2.23 0.81 5.36 3.2 2.33 5.69 2.1 9.51 1.61 1.08-0.13 2.16-0.26 3.27-0.4 1.15-0.15 2.29-0.3 3.47-0.46 1.76-0.22 1.76-0.22 3.55-0.45 2.34-0.29 4.68-0.59 7.02-0.9 2.63-0.33 5.26-0.64 7.89-0.91 11.9-1.29 23.4-3.56 34.3-8.49-1-2.73-1.56-3.79-4.24-5.06-8.58-2.91-17.6-3.25-26.6-3.24-1.07-0.01-2.13-0.01-3.23-0.01-2.23-0.01-4.46-0.01-6.68-0.01-3.42 0.01-6.84-0.02-10.3-0.04-2.18 0-4.35-0.01-6.52 0-1.02-0.01-2.05-0.02-3.1-0.03-0.94 0-1.89 0.01-2.86 0.02-0.83 0-1.66 0-2.51-0.01-0.67 0.13-1.34 0.25-2.02 0.38zm-25.5 1.91c-5.78 1.48-11.7 2.13-17.6 2.86-8.8 1.16-16.9 3.54-25 7.23v3c5.51 5.51 15.5 4.52 22.8 5.06 1.8 0.14 1.8 0.14 3.63 0.27 9.2 0.65 18.3 0.9 27.6 0.67 0.75-4.47 1.06-8.43 0.56-12.9-0.15-1.44-0.15-1.44-0.31-2.9-0.08-0.71-0.17-1.43-0.25-2.16-4.58-1.59-6.75-2.33-11.5-1.09zm58.5 118c0.33 2.98 0.61 5.36 2.19 7.94 2.81 1.65 4.72 0.86 7.81 0.06 1.68-0.62 3.36-1.28 5-2-1.09-3.25-1.09-3.25-3-6-1.45-0.26-2.91-0.46-4.38-0.63-0.79-0.09-1.58-0.19-2.4-0.29-2.4-0.22-2.4-0.22-5.22 0.92zm-66.6 47.9c-2 2.95-3.76 5.91-5.4 9.07 3.56 1.26 4.88 1.05 8.42-0.48 1.26-0.7 2.52-1.42 3.77-2.15 1.34-0.74 2.69-1.49 4.03-2.23 2.18-1.23 4.33-2.47 6.49-3.72 6.82-3.76 13.6-4.68 21.3-5.42-1.22-2.69-1.22-2.69-3-5-3.32-0.52-6.66-0.74-10-1-1.92-0.19-1.92-0.19-3.88-0.38-8.68 0.18-16.5 4.58-21.7 11.3zm81.6-8.93c-1.53 0.9-3.06 1.81-4.58 2.74-5.19 2.7-10.9 4.39-16.4 6.26 0.34 2.47 0.34 2.47 1 5 5.32 2.66 12.5 0.9 18-0.27 2.36-0.89 3.48-1.68 4.95-3.73 0.22-2.26 0.22-2.26-0.19-4.63-0.1-0.79-0.19-1.59-0.29-2.41-0.17-0.65-0.35-1.29-0.52-1.96l-2-1zm-114 5.06c-2.37 0.94-4.26 1.26-6.79 1.44-1.76 0.25-1.76 0.25-3.56 0.5-1.59 1.92-1.59 1.92-2 4 1.91 2.75 1.91 2.75 5 5 6.64 0.84 13.1-2.35 19-5v-9c-4.6-0.59-7.62 1.13-11.6 3.06zm-7.35 15.9c-0.8 4.19-1.13 8.15-1.13 12.4 0 1.25-0.01 2.51-0.01 3.81 0 1.36 0 2.73 0.01 4.1-0.01 1.43-0.01 2.86-0.01 4.29 0 3.01 0 6.02 0.01 9.03 0 3.77 0 7.55-0.01 11.3-0.02 18 0.26 36 1.14 54l5 2c0.14-6.56 0.28-13.1 0.43-19.7 0.04-2.23 0.09-4.46 0.14-6.68 0.37-16.8 0.64-33.6 0.05-50.4-0.03-1.13-0.06-2.26-0.09-3.42-0.25-7.11-1.04-13.9-2.53-20.8h-3zm104 1c-0.97 7.22-1.08 14.2-1 21.5 0.09 16.3-0.2 32.6-0.5 48.9-0.03 1.31-0.05 2.61-0.07 3.96-0.14 7.54-0.29 15.1-0.43 22.6 2.81 2.05 2.81 2.05 6 3 0.02-12.6 0.04-25.2 0.05-37.8 0-5.85 0.01-11.7 0.02-17.5 0.01-5.64 0.02-11.3 0.02-16.9 0-2.16 0.01-4.31 0.01-6.47 0.01-3.01 0.01-6.02 0.01-9.04 0.01-0.89 0.01-1.79 0.01-2.71v-2.49-2.16c-0.06-2.11-0.06-2.11-1.12-4.88h-3zm-70 6-1 4h2l1 3c1.46-2.65 2-3.9 2-7h-4zm-3 8 1 3h2l1-4c-1.37-0.05-1.37-0.05-4 1z" fill="#02B66E"/>
<path transform="translate(1009,1133)" d="m0 0c10.6 6.81 18.7 20.3 21.6 32.4 0.76 4.59 0.62 9.19 0.63 13.8 0.01 0.99 0.02 1.98 0.03 3 0.02 6.52-0.74 12.5-2.22 18.8-0.57 2.81-1.12 5.63-1.65 8.45-1.34 7.03-2.8 13.8-5.35 20.6-0.35 0.96-0.35 0.96-0.71 1.93-0.49 1.31-0.99 2.62-1.49 3.93-0.57 1.53-1.13 3.08-1.67 4.63-4.62 13.2-10.4 26.5-19.1 37.5h-2c-0.34 0.9-0.34 0.9-0.69 1.81-2.89 4.83-9.1 6.69-14.3 8.19-8.95 1.4-18.2-3.54-25.4-8.5-1.53-1.15-3.05-2.32-4.56-3.5-0.6-0.43-1.19-0.87-1.81-1.31-4-3.04-5.95-6.3-8.19-10.7-0.96 1.25-1.92 2.5-2.88 3.75-0.53 0.7-1.06 1.39-1.61 2.11-1.54 2.05-1.54 2.05-2.47 4.19-3.12 5.87-10.2 10.2-16 13-10.8 2.44-18.8-1.4-28-7-0.89-0.54-1.79-1.08-2.71-1.63-11-7.07-14.4-16.3-18.3-28.4-0.35-1.02-0.69-2.03-1.05-3.08-1.2-3.68-2.18-7.4-3.17-11.1-0.53-1.88-1.11-3.74-1.74-5.58-0.98-3.03-1.77-6.02-2.48-9.12-0.25-1.11-0.51-2.22-0.77-3.36-0.26-1.15-0.52-2.29-0.79-3.47-0.26-1.13-0.52-2.26-0.79-3.42-1.35-5.91-2.64-11.8-3.78-17.8-0.39-1.86-0.9-3.68-1.43-5.5-1.11-3.95-1.8-7.9-2.5-11.9-0.48-2.77-0.48-2.77-1.5-6-1.25-4.53-1.83-9.07-2.44-13.7-0.4-3.07-0.4-3.07-2.56-5.89 0.52-3.52 0.52-3.52 2-5 2.29-0.09 4.59-0.11 6.88-0.1 1.03 0 1.03 0 2.08 0.01 2.2 0 4.4 0.01 6.6 0.03 1.49 0 2.98 0.01 4.47 0.01 3.66 0.01 7.31 0.03 11 0.05 0.25 0.58 0.5 1.15 0.77 1.74 2.02 4.6 4.14 9.13 6.35 13.6 2.34 5.02 3.67 9.55 4.46 15 0.42 2.6 1.07 4.98 1.86 7.49 1.52 4.82 2.65 9.69 3.76 14.6 1.29 5.65 2.72 11.3 4.14 16.9 1.41 5.6 2.82 11.2 4.22 16.8 0.3 1.16 0.59 2.32 0.89 3.52 1.71 6.81 3.33 13.6 4.86 20.5 0.93 3.79 2.11 7.25 3.69 10.8l2 1c8.56-7.34 12.7-19.4 14.4-30.4 0.35-9.04-0.97-20.7-4.36-29.1-1.78-4.49-2.16-9.33-2.85-14.1-0.12-0.78-0.24-1.56-0.36-2.37-0.1-0.7-0.2-1.41-0.31-2.14-0.43-2.22-0.43-2.22-2.47-4.91-0.58-2.44-0.58-2.44-1.04-5.29-0.16-1.02-0.33-2.05-0.51-3.1-0.17-1.07-0.34-2.14-0.51-3.23-0.34-2.12-0.69-4.24-1.04-6.36-0.15-0.94-0.3-1.88-0.45-2.84-0.24-2.15-0.24-2.15-1.45-3.18-0.45-2.14-0.84-4.28-1.19-6.44-0.2-1.17-0.4-2.35-0.6-3.56-0.07-0.99-0.14-1.98-0.21-3 3.39-3.39 8.12-2.3 12.7-2.32h2.11c2.13 0.01 4.25-0.02 6.37-0.04h4.04c1.85-0.01 1.85-0.01 3.73-0.01 3.06 0.37 3.06 0.37 4.93 1.76 1.39 1.99 2.02 3.84 2.69 6.17 1.04 3.59 1.04 3.59 3.44 6.44 0.71 2.13 0.71 2.13 1.37 4.78 0.24 0.98 0.48 1.96 0.74 2.97 0.25 1.05 0.5 2.1 0.77 3.19 0.39 1.61 0.39 1.61 0.8 3.26 1.81 7.45 3.46 14.9 4.99 22.4 1.04 5.05 2.2 10 3.48 15 1.16 4.59 2.26 9.19 3.35 13.8 0.22 0.91 0.44 1.83 0.66 2.78 1.16 4.87 2.27 9.76 3.34 14.7 1.4 6.16 3.41 12 5.51 18 0.99 3.12 0.99 3.12 0.99 6.12h2v2c5.79-2.26 7.56-7.62 10-13 2.92-7.47 5.23-15.2 7-23 0.23-0.9 0.46-1.79 0.7-2.72 2.05-8.22 2.99-16.2 3.49-24.7 0.08-1.21 0.16-2.43 0.25-3.69 0.74-11.4 0.49-19.4-4.44-29.9-0.31-0.69-0.63-1.38-0.95-2.09-3.86-7.71-9.88-14.1-17-18.9v-3c1.59-0.89 1.59-0.89 3.22-1.79 1.43-0.8 2.85-1.6 4.28-2.4 0.74-0.41 1.47-0.82 2.23-1.24 3.73-2.09 7.36-4.23 10.9-6.63 3.73-2.14 5.2-2.98 9.38-1.94zm-16.1 14.1-1.88 1.88v3c2.03 2.03 3.51 2.89 6.31 3.5 3.42-0.63 5.34-2.16 8.05-4.27 1.64-1.23 1.64-1.23 4.02-2.35 1.99-0.84 1.99-0.84 2.62-3.88-1.74-2.73-1.74-2.73-4-5-5.2 0-11 4.28-15.1 7.12zm-131 4.32c-1.89 0.15-1.89 0.15-3.83 0.31-1.44 0.12-1.44 0.12-2.92 0.25-0.29 6.44-0.45 11.9 2.21 17.8 1.41 3.95 1.75 8.11 2.26 12.3 0.36 2.86 0.36 2.86 1.53 4.88 1.47 3.04 1.58 6.04 1.94 9.38 0.62 5.38 1.85 9.71 4.06 14.7 0.6 3.36 1.06 6.72 1.47 10.1 0.37 3.07 0.37 3.07 2.53 5.89 0.48 2.4 0.88 4.77 1.25 7.19 1.46 8.73 4.4 16.6 7.75 24.8h2c0.5 0.99 0.5 0.99 1 2-0.26-1.52-0.53-3.04-0.81-4.56-0.15-0.85-0.3-1.7-0.46-2.57-0.71-2.8-1.78-5.26-2.95-7.89-1.51-3.83-2.31-7.85-3.22-11.9l-1.29-5.61c-0.22-0.93-0.43-1.86-0.65-2.81-0.57-2.47-1.16-4.93-1.76-7.4-1.83-7.51-3.41-15-4.47-22.7-0.5-3.36-1.33-6.46-2.33-9.7-1.42-4.9-2.21-9.92-3.06-14.9h-1c-1.03-4.27-1-7.37-1-12l15-1c-1.17-5.8-1.17-5.8-3.67-6.9-3.23-0.14-6.36 0.07-9.58 0.34zm64.9 0.06c-1.05 0.09-2.11 0.19-3.21 0.28-0.79 0.07-1.59 0.15-2.41 0.22-0.7 1.8-0.7 1.8-1 4 0.65 1.34 1.32 2.67 2 4 0.6 3.55 1.01 7.11 1.44 10.7 0.37 3.16 0.37 3.16 1.53 5.24 1.6 3.23 1.92 6.72 2.47 10.3 0.88 5.41 1.95 10.4 3.87 15.6 1.22 3.97 1.65 8.07 2.22 12.2 0.38 2.48 0.86 4.79 1.53 7.19 1.01 4.17 1.31 8.1 1.5 12.4 0.51 2.93 1.4 4.38 3.44 6.52h2c1.23-4.59 0.71-6.82-1.22-11.1-1.29-3.22-1.79-6.53-2.34-9.94-0.86-5.12-2-10-3.44-15-0.12-2.94-0.12-2.94 0-5h-2c-0.06-0.72-0.12-1.45-0.18-2.2-0.43-4.97-0.89-9.89-1.82-14.8h-1l-4-22c2.83-1.42 5.47-1.35 8.62-1.56 1.79-0.13 1.79-0.13 3.61-0.26 0.91-0.06 1.83-0.12 2.77-0.18 1.36-2.91 1.36-2.91-0.06-5.19-1.83-2.1-1.83-2.1-4.66-1.95-3.23 0.14-6.44 0.35-9.66 0.64zm81.4 24.5v3h2l-1-3h-1zm2 3c-0.87 3.68-1.05 6.9-0.84 10.7 0.05 1.06 0.1 2.11 0.16 3.2 0.06 1.1 0.12 2.19 0.18 3.32 0.12 2.18 0.23 4.36 0.34 6.54 0.06 0.96 0.11 1.93 0.17 2.92-0.01 2.35-0.01 2.35-1.01 4.35h2l1 2c3.97-12.4 3.7-20.8-1-33h-1zm-90 3 1 2zm82 24v5h1v-5h-1zm8 6-2 9c3.33-2.67 3.33-2.67 3.19-6.19-0.06-0.93-0.13-1.85-0.19-2.81h-1zm-80 15 1 2zm79 16-1 5 2-3-1-2zm-4 5c-0.4 0.92-0.8 1.83-1.21 2.77-0.79 1.79-0.79 1.79-1.6 3.61-0.52 1.18-1.05 2.36-1.58 3.58-1.61 3.04-1.61 3.04-4.61 5.04l-0.94 1.88c-1.3 2.59-2.98 4.1-5.06 6.12-1.7 1.97-3.35 3.98-5 6 1.25 1.58 1.25 1.58 3 3 3.86 0.45 3.86 0.45 5.56-1.44 0.71-0.77 0.71-0.77 1.44-1.56 0.99-0.33 1.98-0.66 3-1v-2c0.46-0.45 0.93-0.9 1.4-1.37 4.58-4.67 5.35-13.4 6.6-19.6h2v-5h-3zm-59 5-1 4c2.48 1.48 2.48 1.48 5 3-0.6-2.02-1.27-4.02-2-6l-2-1zm-10 1c-0.67 1.09-0.67 1.09-1.36 2.2-4.85 7.76-9.43 14.1-16.6 19.8l1 3c3.28 1.06 4.82 1.06 8.12-0.06 3.47-2.34 4.26-4.12 5.88-7.94 0.67-1.22 1.36-2.43 2.06-3.62 0.64-1.12 1.28-2.23 1.94-3.38 0.41-0.7 0.83-1.4 1.25-2.12 0.95-2.37 0.89-4.35 0.75-6.88-0.99-0.33-1.98-0.66-3-1z" fill="#02B66E"/>
<path transform="translate(768,823)" d="m0 0 2 1c0.32 3.33 0.38 6.65 0.46 10 0.18 0.99 0.36 1.98 0.54 3 1.98 1.22 1.98 1.22 4 2-0.01 1.02-0.01 1.02-0.01 2.07-0.05 7.09-0.08 14.2-0.1 21.3-0.01 2.65-0.02 5.3-0.04 7.95-0.03 3.8-0.04 7.6-0.05 11.4-0.01 1.18-0.02 2.37-0.03 3.59v3.34c0 1.46 0 1.46-0.01 2.94 0.07 2.71 0.07 2.71 2.24 5.45v-2c2.41-1.62 2.41-1.62 5.62-3.44 1.05-0.59 2.09-1.19 3.17-1.81 6.38-3.48 11-5.33 18.2-5.75 1.15-0.08 2.31-0.16 3.5-0.25 4.54 0.32 8.29 1.58 12.5 3.25 0.68 0.26 1.37 0.51 2.07 0.77 9.27 3.97 14.6 12.5 18.9 21.2 0.54 1.03 1.07 2.06 1.62 3.12 1.56 3.26 3.05 6.52 4.38 9.88 0.5 1.25 0.5 1.25 1.01 2.52 7.95 21.6 6.52 48.6-3.01 69.5-3.32 5.76-7.01 11.1-11.1 16.4-0.67 0.87-1.35 1.74-2.04 2.64-0.63 0.66-1.25 1.31-1.9 1.98h-3c-0.2 0.59-0.41 1.19-0.62 1.8-1.94 3.09-4.14 3.89-7.44 5.39-1.63 0.76-1.63 0.76-3.29 1.54-7.74 2.69-15.9 2.43-24 2.44-1.06 0-2.12 0-3.21 0.01-2.23 0-4.46 0.01-6.68 0.01-3.41 0-6.81 0.02-10.2 0.03-2.18 0.01-4.35 0.01-6.52 0.01-1.52 0.01-1.52 0.01-3.07 0.02-9.42-0.03-9.42-0.03-13.9-2.25l-1-3-10-1c-0.15-5.24-0.29-10.5-0.43-15.7-0.04-1.77-0.09-3.53-0.14-5.3-0.28-9.97-0.46-19.9-0.43-29.9 0.03-12.1-0.08-24.2-0.22-36.2-0.01-1-0.02-1.99-0.03-3.01l-0.21-18.5c-0.1-8.33-0.19-16.6-0.29-25-0.03-2.88-0.06-5.75-0.1-8.62l-0.06-5.34c-0.01-0.83-0.02-1.67-0.03-2.53-0.06-5.53-0.06-11 0.03-16.6-0.09-2.24-0.46-4.15-1.09-6.3-0.63-0.04-1.25-0.07-1.9-0.11-0.82-0.07-1.63-0.13-2.48-0.2-0.81-0.06-1.62-0.12-2.46-0.18-2.16-0.51-2.16-0.51-4.16-3.51v-4c0.56-0.14 1.11-0.28 1.69-0.42 10.9-2.77 21.6-5.82 32.1-9.83 0.9-0.34 1.8-0.68 2.72-1.03 4.66-1.73 4.66-1.73 8.53-4.72zm-13.6 14.1c-4.36 1.6-8.87 2.7-13.4 3.87-1 3.58-1 3.58 0 7 4.91 1.39 8.42 0.64 13.2-0.81 1.22-0.36 2.44-0.72 3.7-1.08 3.11-0.89 3.11-0.89 5.05-3.11 0.04-2 0.04-4 0-6l1-2c-3.84 0-6.12 0.74-9.63 2.13zm-11.4 17.9v158l4 2c2-2 1.41-5.85 1.55-8.59 0.05-0.76 0.09-1.53 0.13-2.32 0.39-7.56 0.47-15.1 0.45-22.7 0-1.46 0.01-2.92 0.01-4.38 0-3.89 0-7.78-0.01-11.7-0.01-2.43-0.01-4.86-0.01-7.28-0.02-11.7-0.06-23.4-0.12-35.1 0-0.81-0.01-1.61-0.01-2.45-0.06-9.9-0.14-19.8-0.25-29.7-0.04-2.8-0.06-5.61-0.09-8.41-0.03-3.88-0.08-7.76-0.14-11.6 0-1.15-0.01-2.29-0.02-3.47-0.02-1.04-0.04-2.09-0.06-3.17-0.01-0.9-0.02-1.8-0.03-2.74-0.48-2.88-1.39-4.3-3.4-6.41h-2zm-7 16v8h1v-8h-1zm62 21c-1.96 0.72-3.92 1.44-5.89 2.14-3.03 1.24-5.46 2.94-8.11 4.86 0.99 1.49 0.99 1.49 2 3 0.7-0.32 1.4-0.63 2.12-0.96 3.07-1.11 5.64-1.44 8.88-1.67 1.13-0.09 2.27-0.17 3.44-0.26 1.76-0.11 1.76-0.11 3.56-0.23 1.76-0.13 1.76-0.13 3.56-0.27 4.83-0.34 9.6-0.66 14.4-0.61v-3c-0.71-0.28-1.42-0.55-2.15-0.84-0.92-0.36-1.84-0.72-2.79-1.1-0.91-0.36-1.83-0.72-2.77-1.09-2.29-0.97-2.29-0.97-3.29-1.97-1.81-0.12-3.62-0.18-5.44-0.19-0.99-0.01-1.97-0.03-2.99-0.04-2.74-0.03-2.74-0.03-4.57 2.23zm-13 17 2 2v-2h-2zm-3 1c-3.26 4.29-5.57 7.74-7 13l-1 3 2 2c1.32-2.08 2.63-4.16 3.94-6.25 0.56-0.88 0.56-0.88 1.13-1.78 1.83-2.93 3.39-5.52 3.93-8.97-0.99-0.33-1.98-0.66-3-1zm8 6c-1.21 0.77-1.21 0.77-2.44 1.56-8.78 8.35-11.8 17.1-12.7 28.9-0.09 1.07-0.17 2.14-0.26 3.25-1.33 19.7-0.78 39.6-0.62 59.3 3.46 1.73 7.21 1.36 11 1 3.22-1.15 3.22-1.15 6-3 0.95-0.54 1.9-1.07 2.88-1.62 14.5-11 17.7-26.2 20.1-43.4 1.73-14.6 3.74-35.1-5.83-47.3-3.26-2.5-5.73-2.15-9.71-1.98-3.34 0.44-5.64 1.48-8.46 3.32zm29 10c0.13 1.38 0.13 1.38 0.25 2.8 1.11 14.1 0.6 28.2-1.25 42.2l-1 1c0.04 1.13 0.08 2.27 0.12 3.44 0.09 7.06-2.18 13.7-6.12 19.6-0.56 1.11-1.11 2.23-1.69 3.38-2.16 3.88-5.23 6.33-8.7 9.04-0.8 0.78-0.8 0.78-1.61 1.58v3c9.77-2.68 15.5-5.24 21-14 1.83-4.27 2.37-8.42 3-13l1-1c1.96-11.7 2.25-23.7 1.75-35.5-0.04-0.95-0.08-1.9-0.12-2.87-0.39-7.11-1.84-13-4.63-19.6h-2zm-45 93 2 4c2.83 0.47 5.29 0.7 8.12 0.75 0.76 0.03 1.51 0.06 2.29 0.09 1.86 0.07 3.73 0.12 5.59 0.16l1-2-1-2c-5.94-0.33-11.9-0.66-18-1zm20 2 1 2z" fill="#02B66E"/>
<path transform="translate(636,1083)" d="m0 0c-0.02 0.58-0.05 1.16-0.07 1.76-0.11 4.85 0.19 8.67 2.07 13.2h2c0.01 1.01 0.01 1.01 0.02 2.05 0.09 7.04 0.19 14.1 0.3 21.1 0.04 2.63 0.07 5.25 0.1 7.88 0.05 3.78 0.11 7.55 0.17 11.3 0.01 1.17 0.02 2.35 0.03 3.55 0.14 7.72 0.14 7.72 2.38 15.1 0.5-0.46 0.99-0.92 1.5-1.39 10-9.04 21.5-15 35.3-14.5 8.58 0.63 16.6 2.1 23.2 7.9 4.93 6.15 8.11 13.1 11 20.4 0.95 2.56 0.95 2.56 2.11 4.6 2.56 5.6 2.07 12 2.04 18v2.99c0 3.25 0 6.49-0.01 9.74 0 2.26-0.01 4.51-0.01 6.77 0 5.93-0.01 11.8-0.02 17.8-0.01 6.05-0.02 12.1-0.02 18.2-0.01 11.9-0.03 23.7-0.05 35.6-4.1 0.12-8.21 0.19-12.3 0.25-1.17 0.03-2.34 0.07-3.54 0.1-1.12 0.01-2.24 0.03-3.39 0.04-1.03 0.02-2.06 0.04-3.12 0.06-2.64-0.45-2.64-0.45-4.35-2.43-0.42-0.66-0.85-1.33-1.29-2.02-2.45-0.83-2.45-0.83-5.12-1.12-2.7-0.39-2.7-0.39-4.88-0.88-1.17-2.35-1.13-3.75-1.15-6.37-0.01-0.91-0.02-1.83-0.03-2.77 0-1.01-0.01-2.02-0.01-3.06-0.01-1.59-0.01-1.59-0.02-3.21-0.02-2.31-0.04-4.62-0.05-6.93-0.02-3.64-0.05-7.29-0.08-10.9-0.07-9.06-0.13-18.1-0.19-27.2-0.05-7.65-0.1-15.3-0.16-23-0.03-3.6-0.05-7.2-0.07-10.8-0.02-2.19-0.03-4.39-0.05-6.59 0-1.01-0.01-2.02-0.01-3.06-0.01-0.91-0.02-1.83-0.03-2.77-0.01-1.2-0.01-1.2-0.01-2.43-0.02-2.02-0.02-2.02-1.14-3.94-8.13 0.26-14.8 2.77-20.7 8.7-1.34 1.3-1.34 1.3-3.34 1.3-0.27 0.71-0.53 1.42-0.81 2.15-1.64 3.93-3.75 7.53-5.85 11.2-6.06 11.9-5.8 27.8-5.85 40.8-0.02 1.57-0.04 3.14-0.06 4.7-0.04 4.07-0.07 8.13-0.1 12.2-0.03 4.17-0.08 8.34-0.12 12.5-0.09 8.14-0.15 16.3-0.21 24.4-4.1 0.09-8.21 0.14-12.3 0.19-1.17 0.02-2.34 0.05-3.54 0.07-1.12 0.01-2.24 0.02-3.39 0.03-1.55 0.03-1.55 0.03-3.12 0.05-2.64-0.34-2.64-0.34-4.5-1.73-1.14-1.61-1.14-1.61-1.14-3.61-0.54 0.19-1.07 0.37-1.62 0.56-3 0.55-5.42 0.05-8.38-0.56-1.12-3.36-1.12-5.88-1.11-9.43v-1.98c0-2.2 0-4.4 0.01-6.6 0-1.57 0.01-3.15 0.01-4.72 0-3.4 0.01-6.79 0.01-10.2 0.02-5.37 0.02-10.7 0.03-16.1 0.01-12.4 0.03-24.8 0.06-37.1 0.02-11.3 0.03-22.7 0.04-34 0.01-5.34 0.02-10.7 0.03-16 0.01-3.32 0.01-6.65 0.01-9.97 0.01-1.54 0.01-3.08 0.02-4.62v-6.32c0.01-1.17 0.01-2.35 0.01-3.56-0.17-4.64-0.65-8.97-2.12-13.4-0.99 0.33-1.98 0.66-3 1-2.33 0.04-4.67 0.04-7 0-0.62-2.81-0.62-2.81-1-6 2-3 2-3 3.9-3.48 0.82-0.09 1.63-0.18 2.48-0.27 5.88-0.91 11.3-2.7 16.9-4.69 0.85-0.3 1.7-0.6 2.58-0.91 5.56-2 11.2-4.01 16.4-6.84 1.81-0.81 1.81-0.81 5.81-0.81zm-17.3 12.9c-3.92 1.84-7.39 2.47-11.7 3.06-2.38 1.43-2.38 1.43-4 3 2.58 4.59 2.58 4.59 7 7 2.73-0.66 5.33-1.39 8-2.25 0.72-0.22 1.45-0.44 2.2-0.66 5.03-1.57 5.03-1.57 8.8-5.09l-2-7c-3.86 0-5.03 0.3-8.31 1.94zm-9.69 16.1c-4.03 4.03-2.12 18-2.14 23.5 0.01 1.12 0.01 2.24 0.01 3.4v3.7c-0.01 3.31-0.01 6.62 0 9.93 0 3.5 0 6.99-0.01 10.5 0 5.87 0 11.8 0.01 17.6 0.01 6.74 0 13.5 0 20.2-0.01 5.83-0.01 11.7 0 17.5 0 3.46 0 6.93-0.01 10.4-0.01 14.4 0.08 28.8 1.14 43.2l5 1c0.74-15.3 1.11-30.6 0.96-46-0.05-7.63 0.23-15.2 0.81-22.7 0.29-4.13 0.37-8.16 0.23-12.3l-1-1c-0.11-2.27-0.15-4.55-0.16-6.83-0.01-1.07-0.01-1.07-0.01-2.16-0.01-1.56-0.02-3.11-0.03-4.67-0.01-2.46-0.03-4.92-0.05-7.39-0.06-7-0.12-14-0.15-21-0.02-4.28-0.06-8.56-0.1-12.8-0.02-1.63-0.03-3.27-0.03-4.9 0-2.28-0.03-4.57-0.05-6.86-0.02-1.95-0.02-1.95-0.03-3.94-0.41-3.59-1.23-5.53-3.39-8.4h-1zm66 38-1 3 8 3v1c0.68-0.01 1.35-0.02 2.05-0.04 1.33-0.01 1.33-0.01 2.7-0.02 1.32-0.02 1.32-0.02 2.67-0.04 2.36 0.09 4.32 0.43 6.58 1.1v-2h-2v-2c-9.26-3.49-9.26-3.49-19-4zm-61 5v36h1v-36h-1zm34.4 12.2c-5.22 6.04-7.01 11.8-7.38 19.8 3.03 0.31 3.03 0.31 4.94-1.56 3.04-3.6 5.12-7.52 7.18-11.8 1.75-3.36 4.97-5.38 7.88-7.69 2.01-1.66 4-3.33 6-5l-1-2c-7.11 0-12.4 3.81-17.6 8.25zm37.6 2.75c-0.05 13-0.08 26-0.1 39-0.01 6.03-0.03 12.1-0.05 18.1-0.02 5.82-0.03 11.6-0.04 17.4 0 2.22-0.01 4.44-0.02 6.66-0.02 3.11-0.02 6.21-0.02 9.32 0 0.92-0.01 1.85-0.02 2.8 0 0.85 0.01 1.69 0.01 2.56 0 0.74 0 1.47-0.01 2.23 0.15 2.26 0.15 2.26 2.25 4.93h3c1.6-3.2 1.14-6.68 1.13-10.2v-2.57c0.01-2.81 0.01-5.63 0-8.44 0-1.95 0-3.91 0.01-5.86 0-4.1 0-8.2-0.01-12.3-0.01-5.25 0-10.5 0-15.8 0.01-4.04 0.01-8.07 0-12.1 0-1.94 0-3.87 0.01-5.8 0-2.72-0.01-5.43-0.01-8.14 0-0.79 0-1.59 0.01-2.41-0.03-7.13-0.58-13.1-4.14-19.4h-2zm-46 18c0.99 1.48 0.99 1.48 2 3v-3h-2zm-26 28v5h1v-5h-1z" fill="#02B66E"/>
<path transform="translate(1073,1083)" d="m0 0h4c0.06 1.36 0.06 1.36 0.11 2.74 0.1 1.77 0.1 1.77 0.2 3.57 0.06 1.17 0.12 2.35 0.18 3.55 0.18 3.12 0.18 3.12 2.02 4.59 2.27 2.36 1.82 4.83 1.8 7.95-0.02 0.88-0.04 1.76-0.06 2.66-0.01 0.93-0.02 1.86-0.03 2.81-0.03 3.07-0.09 6.14-0.15 9.2-0.02 2.13-0.05 4.26-0.08 6.38-0.07 5.6-0.16 11.2-0.25 16.8-0.09 5.72-0.16 11.4-0.24 17.1-0.15 11.2-0.32 22.4-0.5 33.6 3.97 0.41 3.97 0.41 6.37-1.84 4.95-5.01 9.03-9.81 12.4-16 1.23-2.09 2.51-3.45 4.25-5.13 3.64-5.01 6.02-10.2 8-16-1.09-0.1-2.19-0.21-3.31-0.31-3.69-0.69-3.69-0.69-5.69-2-1-1.69-1-1.69-0.75-3.81 0.75-1.88 0.75-1.88 1.75-2.88 2.17-0.17 4.35-0.28 6.54-0.35 0.99-0.04 0.99-0.04 2.01-0.07 2.17-0.08 4.34-0.14 6.51-0.2 0.73-0.03 1.46-0.05 2.21-0.07 27.7-0.83 27.7-0.83 32.7 1.69v6c-4.45 0.99-4.45 0.99-9 2 1.65 3.21 1.65 3.21 4.44 3.56 0.84 0.15 1.69 0.29 2.56 0.44 1.48 0.99 1.48 0.99 3 2-5.62 3-5.62 3-9 3-0.37 0.96-0.37 0.96-0.75 1.94-1.58 2.6-2.42 2.35-5.25 3.06-0.27 0.59-0.54 1.19-0.81 1.8-1.56 2.89-3.48 4.11-6.19 5.95-0.89 0.61-1.77 1.23-2.69 1.86-2.31 1.39-2.31 1.39-4.31 1.39-0.49 1.48-0.49 1.48-1 3-2.24 1.66-4.59 3.05-6.97 4.5-2.32 1.41-2.32 1.41-3.03 4.5 0.76 0.29 1.53 0.58 2.31 0.88 2.69 1.12 2.69 1.12 5.69 3.12v2h2v2h2c4.74 6.63 8.01 14 10.8 21.6 0.98 2.67 2.01 5.29 3.09 7.92 2.19 5.47 4.04 11 5.82 16.6 0.33 1.02 0.66 2.05 0.99 3.1 0.69 2.14 1.37 4.28 2.05 6.42 1.05 3.28 2.1 6.57 3.15 9.85 0.67 2.08 1.33 4.17 2 6.26 0.31 0.98 0.63 1.96 0.96 2.97 0.28 0.91 0.57 1.82 0.87 2.75 0.38 1.2 0.38 1.2 0.77 2.42 0.54 2.08 0.54 2.08 0.54 5.08-4.08 0.15-8.17 0.23-12.2 0.31-1.74 0.07-1.74 0.07-3.51 0.13-8.65 0.12-8.65 0.12-11.8-2.91-0.48-0.83-0.95-1.67-1.44-2.53-3.64-0.89-3.64-0.89-7-1v-2h-2c-5.04-15.7-5.04-15.7-6.55-23.1-0.8-3.44-2.16-6.65-3.45-9.93-1.95-5.24-3.85-10.5-5.56-15.8-1.17-3.58-2.72-6.83-4.44-10.2v-2c-7.7 0.87-7.7 0.87-13.8 5.12-0.41 0.62-0.83 1.24-1.25 1.88h-2c-1.15 13-1.12 25.9-1.06 38.9 0 2.15 0.01 4.29 0.01 6.44 0.01 5.21 0.03 10.4 0.05 15.6-4.12 0.03-8.25 0.05-12.4 0.06-1.17 0.01-2.35 0.02-3.56 0.03-1.12 0-2.24 0-3.4 0.01-1.03 0-2.07 0.01-3.14 0.01-2.52-0.11-2.52-0.11-4.52-1.11v-3c-1.05-0.07-1.05-0.07-2.12-0.15-0.91-0.07-1.82-0.15-2.76-0.23-0.9-0.06-1.8-0.13-2.74-0.21-2.38-0.41-2.38-0.41-4.38-2.41-0.18-2.76-0.24-5.42-0.21-8.19v-2.58c0.01-2.86 0.03-5.72 0.05-8.59 0.01-2.02 0.01-4.05 0.02-6.07 0.01-4.33 0.02-8.66 0.05-13 0.05-11.3 0.07-22.6 0.09-33.9v-3.43c0.04-21.6-0.15-43.3-0.5-65-0.02-1.14-0.02-1.14-0.04-2.31-0.14-9-0.29-18-0.46-27-0.63-0.12-1.25-0.24-1.9-0.37-0.82-0.16-1.63-0.33-2.48-0.51-0.81-0.16-1.62-0.32-2.46-0.49-2.16-0.63-2.16-0.63-4.16-2.63 0.38-2.62 0.38-2.62 1-5 4.09-1.43 8.14-2.53 12.4-3.44 3.85-0.86 7.51-1.79 11.2-3.25 3.44-1.31 3.44-1.31 7.44-1.31v-2c0.71-0.28 1.42-0.55 2.15-0.84 0.92-0.36 1.84-0.72 2.79-1.1 0.91-0.36 1.83-0.72 2.77-1.09 2.21-0.77 2.21-0.77 3.29-1.97zm-9 11.3c-3.7 2.09-7.38 3-11.5 4.04-1.86 0.48-3.7 1.04-5.52 1.65-1.21 3.62-0.54 4.64 1 8 7.6-0.33 14-2.13 21-5 0.94-5.05 0.94-5.05 0-10-2.98-0.27-2.98-0.27-5 1.31zm-14 18.7c-0.66 9.99-1.08 19.9-1.04 30v3.11c0.03 12.6 0.14 25.1 0.26 37.6 0.02 2.57 0.04 5.13 0.07 7.7 0.05 5.99 0.1 12 0.16 18l0.18 20.5c0.12 14 0.24 28.1 0.37 42.1l4 1c0.88-12.4 1.15-24.7 1.13-37.1 0-1.92 0.01-3.83 0.01-5.74 0-5.05 0-10.1-0.01-15.2-0.01-3.12-0.01-6.23-0.01-9.35-0.02-23.6-0.05-47.1-0.5-70.6-0.01-0.95-0.03-1.89-0.04-2.87-0.05-2.56-0.1-5.13-0.17-7.69-0.01-1.08-0.01-1.08-0.03-2.17-0.11-3.57-0.45-6.23-2.38-9.27h-2zm67 40v5c5.83 1.5 11.6 0.69 17-2l-1-4c-5.45-0.1-10.6-0.13-16 1zm-1 6c-2.15 3.23-2.2 4.28-2 8h4l1-7c-0.99-0.33-1.98-0.66-3-1zm4 3 1 3zm-1 3 1 2zm-5 3v2l2-1-2-1zm-3 12c-1.27 1.47-2.54 2.95-3.76 4.46-1.31 1.63-2.72 3.1-4.24 4.54l1 2h4v-2c0.99-0.33 1.98-0.66 3-1 1.83-1.75 1.83-1.75 3-4-0.22-2.21-0.22-2.21-1-4h-2zm-19 19c-0.99 1.48-0.99 1.48-2 3 4.43 1.45 4.43 1.45 9 2l1-3c-3.09-1.76-4.23-2-8-2zm8 4 1 2c8.41-0.99 8.41-0.99 17-2-3.53-4.34-3.53-4.34-7.88-4.5-4.37 0.2-6.75 1.81-10.1 4.5zm1 2 4 1zm-19 7c-0.97 3.09-0.97 3.09-1 6 0.99 0.33 1.98 0.66 3 1 2.28-2.17 4.33-4.33 6-7l-1-3c-2.7 0-4.81 1.63-7 3z" fill="#02B66E"/>
<path transform="translate(580 1097)" d="m0 0c0.74 0.87 1.49 1.73 2.25 2.62 0.43 0.49 0.86 0.98 1.3 1.49 3.85 4.78 7.15 10.2 6.7 16.5-2.37 4.72-6.03 8.61-9.59 12.5-1.91 2.1-3.66 4.31-5.41 6.54-6.09-2.32-11.1-4.76-15.8-9.31-9.55-8.8-19.4-13.9-31.9-17.1-2.29-0.62-2.29-0.62-4.29-1.62-8.06-0.76-13.9 0.17-21 4-0.71 0.33-1.42 0.65-2.16 0.99-5.77 2.64-10.4 5.93-12.8 12h-2c-0.12 0.56-0.25 1.12-0.37 1.69-0.69 2.54-1.62 4.88-2.63 7.31-7.35 17.9-10.5 46.8-3.63 65.3 0.27 0.61 0.54 1.23 0.82 1.86 0.88 2.06 1.53 4.12 2.18 6.26 2.57 7.73 6.01 14.7 11.6 20.6 0.66 0.33 1.32 0.67 2 1v2c0.57 0.27 1.13 0.53 1.71 0.79 2.5 1.32 4.6 2.89 6.85 4.59 11.9 8.43 26.2 10.2 40.5 8.36 10.1-1.78 19.3-5.75 25.8-14 1.55-2.37 1.55-2.37 3.21-5.71 3.38 3.11 5.64 6.39 8 10.3 0.35 0.58 0.7 1.16 1.06 1.76 2.38 3.94 4.7 7.91 6.94 11.9 0.42 0.74 0.84 1.48 1.28 2.25 5.92 10.5 5.92 10.5 5.42 13.7-2.39 6.92-12.2 11-18.4 14.1-19.3 8.98-42.5 10.8-62.6 3.76-6.19-2.49-12-5.45-17.8-8.87-0.77-0.44-1.54-0.89-2.33-1.35-4.22-2.52-4.22-2.52-5.67-3.65v-2c-0.58-0.28-1.15-0.57-1.75-0.87-1.11-0.56-1.11-0.56-2.25-1.13-0.64-0.28-1.28-0.56-1.94-0.85-3.85-2.14-6.28-5.8-9.06-9.15-0.73-0.81-1.46-1.63-2.21-2.48-8.54-9.84-13.9-21.1-17.8-33.5-0.54-1.7-0.54-1.7-1.09-3.45-2.69-9.16-3.73-18-3.91-27.6-0.02-0.82-0.04-1.65-0.06-2.51-0.66-29.4-0.66-29.4 4.06-36.5 0.25-1.25 0.5-2.51 0.75-3.81 3.84-18.2 16.6-35.3 31.3-46.5 2.6-1.67 5.24-3.21 7.96-4.7 1.64-1.05 1.64-1.05 3.31-2.12 24.4-13.3 61.4-14.6 83.4 4.5zm-69.8-2.38v2c5.43 0.93 10.6 1.11 16.1 1.03 1.76-0.01 3.52-0.02 5.27-0.03 2.74-0.03 5.49-0.06 8.23-0.09 2.66-0.03 5.33-0.05 8-0.07 0.8-0.01 1.61-0.02 2.44-0.04 6.71-0.03 13.3 0.42 18.9 4.2 0.99-0.32 1.98-0.66 3-1-13.4-11.1-46.4-16.4-62-6zm-21.8 13.4c-6.64 6.71-12 14.2-12.2 23.8 0.02 0.58 0.04 1.16 0.06 1.76 2.13-1.84 2.13-1.84 2.81-4.31 1.49-3.36 3.54-5.15 6.19-7.69 0.89-1.09 1.76-2.2 2.63-3.31 0.78-0.88 1.56-1.77 2.37-2.69h3l2-3c1.66-0.36 3.33-0.69 5-1 0.33-0.66 0.66-1.31 1-2l-1-3c3.47-0.49 3.47-0.49 7-1v-3c-6.24 0-13.8 1.53-18.8 5.44zm19.8-4.44 1 2zm-7 4c0.33 0.67 0.66 1.32 1 2 0.33-0.66 0.66-1.31 1-2h-2zm-37 28c-11.6 28.3-11.2 61.3-1 90h2c-0.48-4.35-1.09-8.59-2-12.9-2.84-13.9-3.36-29.7-0.49-43.6 0.66-3.39 0.77-6.78 0.93-10.2 0.28-5.56 0.85-10.8 2.26-16.2 0.37-2.58-0.08-4.61-0.7-7.12h-1zm-12 17 1 2zm116 89.3c-7.9 6.31-14.8 8.59-24.8 9.44-1.97 0.15-1.97 0.15-3.88 1.24-5.41 0.38-10.7-0.09-16-1-1.54-0.25-1.54-0.25-3.1-0.51-2.97-0.49-5.93-0.98-8.9-1.49 0.33 1 0.66 1.99 1 3 2.57 1.2 5.03 2.19 7.69 3.13 0.71 0.26 1.41 0.53 2.14 0.8 15.3 5.57 32.8 4.09 47.6-2.57 3.5-1.82 5.96-3.41 8.61-6.36 0.71-3.22 0.31-4.46-1.31-7.31-0.56-0.55-1.12-1.11-1.69-1.69-3.74 0-4.54 0.98-7.37 3.32z" fill="#02B66E"/>
<path transform="translate(587 825)" d="m0 0c1.51-0.03 1.51-0.03 3.04-0.06 0.9-0.01 1.81-0.01 2.74-0.02 0.78-0.01 1.57-0.02 2.38-0.03 0.63 0.12 1.25 0.24 1.9 0.36 2.4 3.59 2.75 6.53 3.44 10.7 0.4 2.46 0.4 2.46 2.56 4.28 0.32 2.98 0.32 2.98 0.42 6.76 0.03 0.99 0.03 0.99 0.06 2.01 0.06 2.12 0.1 4.24 0.15 6.36 0.04 1.43 0.07 2.87 0.11 4.3 0.1 3.53 0.18 7.05 0.26 10.6l-1-2c-0.67-0.25-1.34-0.5-2.03-0.75-4.25-1.79-7.7-4.48-11.4-7.19-7.19-5.24-14.1-9.11-22.6-12.1-0.83-0.32-1.67-0.65-2.53-0.98-10.4-3.71-20.8-3.9-31.8-4.27-1.92-0.08-3.83-0.15-5.75-0.23-4.64-0.19-9.29-0.36-13.9-0.52-1.47 2.94-1.12 5.55-1.11 8.84v2.13c0 2.32 0.01 4.65 0.01 6.98 0.01 1.61 0.01 3.22 0.01 4.83 0 4.24 0.01 8.49 0.02 12.7 0.01 4.33 0.02 8.66 0.02 13 0.01 8.5 0.03 17 0.05 25.5 4.23 0.06 8.46 0.09 12.7 0.13 1.77 0.02 1.77 0.02 3.57 0.05 13.1 0.07 26.6-0.39 36.6-9.93 0.7-0.74 1.4-1.49 2.12-2.25 2.19-0.87 2.19-0.87 4-1l2 1c0.42 2.94 0.42 2.94 0.63 6.56 0.11 1.8 0.11 1.8 0.22 3.63 0.05 0.93 0.1 1.86 0.15 2.81h3c1.14 6.33 1.12 12.5 1.06 18.9 0 1.06 0 2.13-0.01 3.23-0.01 2.61-0.03 5.22-0.05 7.83-0.93-0.54-1.86-1.09-2.81-1.64-1.25-0.73-2.5-1.45-3.75-2.17-0.61-0.36-1.22-0.72-1.85-1.08-10.2-5.87-19.2-8.43-31-8.08-2.6-0.03-2.6-0.03-5.6-1.03-2.65-0.1-5.28-0.14-7.94-0.13-0.71 0-1.43 0-2.16-0.01-5.05-0.06-5.05-0.06-9.9 1.14-1.63 3.27-1.18 6.89-1.2 10.5-0.01 0.88-0.02 1.75-0.03 2.66-0.03 2.91-0.06 5.82-0.08 8.73-0.02 2.02-0.05 4.03-0.07 6.05l-0.15 15.9c-0.05 5.41-0.11 10.8-0.16 16.2-0.11 10.6-0.21 21.3-0.31 31.9-4.06 0.15-8.12 0.23-12.2 0.31-1.73 0.07-1.73 0.07-3.49 0.13-8.39 0.12-8.39 0.12-11.2-1.54-1.33-1.36-1.33-1.36-3.16-3.9-1.93-0.98-1.93-0.98-3.81-1.31-1.58-0.34-1.58-0.34-3.19-0.69-1.23-3.81-1.14-7.6-1.13-11.6 0-0.76-0.01-1.53-0.01-2.32v-7.7c-0.01-1.84-0.01-3.68-0.01-5.52-0.01-5-0.01-9.99-0.01-15-0.01-4.17-0.01-8.34-0.01-12.5-0.01-9.83-0.01-19.7-0.01-29.5 0-10.2-0.01-20.3-0.03-30.4-0.01-8.71-0.02-17.4-0.02-26.1 0-5.2 0-10.4-0.01-15.6-0.01-4.89-0.01-9.78 0-14.7 0-1.8 0-3.6-0.01-5.4-0.01-2.44 0-4.89 0.01-7.34-0.01-0.72-0.02-1.44-0.02-2.18 0.03-4.9 0.03-4.9 2.26-7.13 2.49-0.23 2.49-0.23 5.67-0.21 1.8 0 1.8 0 3.63 0.01 1.3 0.01 2.61 0.03 3.96 0.04 1.36 0.01 2.73 0.01 4.09 0.02 2.9 0.01 5.8 0.02 8.7 0.05 7.48 0.05 15 0.07 22.4 0.09h2.22c11.1 0.03 22.2-0.09 33.3-0.5 1.24-0.04 2.48-0.09 3.75-0.14 2.29-0.08 4.58-0.16 6.87-0.25 5.76-0.19 11.5-0.3 17.3-0.36zm-107 8.25v180l4 2c0.19-9.67 0.35-19.3 0.5-29 0.01-0.75 0.03-1.51 0.04-2.29 0.5-32 0.55-64.1 0.52-96.2v-3.58c-0.01-14.7-0.03-29.3-0.06-44 0.68 0.01 1.35 0.02 2.05 0.04 0.89 0 1.78 0.01 2.7 0.02 0.88 0.01 1.77 0.03 2.67 0.04 2.36-0.09 4.33-0.43 6.58-1.1 0.05-1.67 0.04-3.33 0-5l-1-1h-18zm80 0c2.3 3.44 3.16 3.8 7 5 5.15 0.89 10.1 1.15 15.3 1.13 1.07 0 1.07 0 2.16 0.01 3.89 0.06 3.89 0.06 7.52-1.14v-5h-32zm-52 3v2c4.53 1.07 9 1.32 13.6 1.56 1.14 0.07 1.14 0.07 2.31 0.13 3.02 0.17 6.03 0.31 9.06 0.31 2.07 0.31 4.13 0.65 6.19 1 1.09 0.19 2.17 0.37 3.29 0.56 1.25 0.22 1.25 0.22 2.52 0.44v-2c-2.75-0.92-4.36-1.11-7.18-1.06-1.26 0.02-2.52 0.04-3.82 0.06v-2c-8.7-1.01-17.2-1.11-26-1zm53.3 80.8c-3.4 2.25-6.55 3.68-10.3 5.19v2c5.74 1.57 10.2 2.24 16 1 1.16-4.05 0.84-6.22-1-10-2.26-0.19-2.26-0.19-4.68 1.81zm-26.3 9.19v1h6v-1h-6zm-22 1c-0.99 1.49-0.99 1.49-2 3 2.57 2.57 9.8 1.19 13.2 1.19 1.72 0.02 1.72 0.02 3.48 0.03 1.66 0.01 1.66 0.01 3.35 0.01 1.02 0 2.03 0.01 3.08 0.01 2.97-0.25 5.15-0.99 7.84-2.24v-1c-6.11-1.06-12.1-1.22-18.3-1.25-1-0.02-2-0.04-3.03-0.06-1.44-0.01-1.44-0.01-2.9-0.02-0.86-0.01-1.73-0.02-2.62-0.03-1.06 0.18-1.06 0.18-2.14 0.36zm26 5v1h9v-1h-9z" fill="#02B66E"/>
<path transform="translate(680,888)" d="m0 0c1.16 0.55 1.16 0.55 2.35 1.11 12.8 6.57 19.1 21.5 23.6 34.6 3.77 11.8 6.78 23.7 9.17 35.9 1.13 5.66 2.6 11.2 4.08 16.8 0.61 2.66 1.05 5.11 1.35 7.81 0.38 3 0.82 5.22 1.92 7.99 1.35 3.77 2.01 7.4 2.56 11.4 0.53 3.82 1.13 7.24 2.56 10.8 1.49 3.73 2.12 6.64 2.44 10.6-2.56 2.56-9.37 1.38-12.8 1.44-1.11 0.04-2.22 0.09-3.36 0.14-3.06 0.04-5.83 0.02-8.83-0.58-2.55-2.99-2.55-2.99-4-6-3.45-0.67-3.45-0.67-7-1-2.94-2.06-2.94-2.06-5-4-0.5 0.58-0.99 1.15-1.5 1.75-3.23 2.91-6.54 4.51-10.5 6.25-1.15 0.53-1.15 0.53-2.33 1.07-11.6 4.8-26.6 6.93-38.7 2.93-12.9-5.62-28.6-14.4-34-28-1.58-11.6 1.13-20.9 7.19-30.8 0.6-0.74 1.19-1.49 1.81-2.25h2l2-5h2c0.23-0.56 0.45-1.11 0.69-1.69 2.92-5.15 7.69-8.46 12.4-11.9 1.56-1.16 3.06-2.4 4.53-3.67 2.69-1.98 5.18-2.86 8.38-3.75-0.99-0.33-1.98-0.66-3-1v-2c-1.72 0.05-1.72 0.05-3.48 0.11-4.46 0-8.47-0.76-12.8-1.86-1.04-0.24-1.04-0.24-2.1-0.48-4.39-1.09-6.63-2.48-9.65-5.77-2.1-0.88-2.1-0.88-4.25-1.25-1.24-0.25-2.48-0.5-3.75-0.75-1.28-3.56-0.72-5.45 0.75-8.88 0.56-1.31 0.56-1.31 1.14-2.65 2-4.45 3.65-8.03 7.11-11.5 0.72-1.05 1.44-2.1 2.19-3.19 4.99-5.93 12.9-8.69 19.8-11.8 1.17-0.55 2.33-1.09 3.54-1.66 11.8-4.57 30.3-5.68 41.5 0.66zm-29 3.38c-1.26 0.06-2.52 0.13-3.81 0.21-3.28 0.09-3.28 0.09-5.19 2.41-1.49 0.44-2.99 0.83-4.5 1.19-6.08 1.72-10.6 4.99-15.5 8.81-0.69 0.44-1.38 0.88-2.09 1.34-2.58 2.24-3.68 4.66-5.16 7.72-0.52 1.07-1.04 2.13-1.58 3.23-1.3 2.52-1.3 2.52-1.17 4.71 2.7 0.84 4.24 1.3 7 1 3.06-1.95 5.48-4.41 8-7 0.78-0.73 0.78-0.73 1.58-1.48 2.3-2.16 3.4-3.47 4.42-6.52 0.8-0.25 1.61-0.5 2.44-0.75 3.41-1.2 5.23-2.4 8.06-4.56 6.03-4.41 12.4-6.48 19.5-8.69-4.13-2.76-7.08-1.92-12-1.62zm7.56 18.7c-0.68 0.36-1.36 0.71-2.06 1.08-0.49 0.26-0.99 0.53-1.5 0.8v2c-0.72 0.23-1.44 0.45-2.19 0.69-3.34 1.56-5.33 3.61-7.81 6.31 0.99 2.51 1.64 3.77 3.95 5.23 6.32 2.72 6.32 2.72 13 3.77 1.35-0.98 2.68-1.98 4-3 6.59-3.46 13.5-5.96 20.6-8.2 2.4-0.73 2.4-0.73 4.43-1.8-0.5-6.19-0.5-6.19-4-11-2.9-0.35-5.37-0.47-8.25-0.38-1.11 0.01-1.11 0.01-2.24 0.01-6.47 0.1-12.2 1.46-18 4.49zm30.4 16.9-2 2c-2.8 0.79-5.62 1.4-8.47 2.02-2.67 0.75-2.67 0.75-3.87 3.08-0.22 0.63-0.44 1.25-0.66 1.9l1 1c5.24-0.14 10.1-1.12 15-3v-2c0.99-0.33 1.98-0.66 3-1v-3c-1.89-0.68-1.89-0.68-4-1zm-9 13c1.53 3.63 3.72 5.99 6.5 8.75 0.79 0.8 1.59 1.6 2.41 2.42 1.88 2.05 1.88 2.05 4.09 1.83-0.28-1.08-0.28-1.08-0.56-2.19-0.47-2.99-0.1-4.89 0.56-7.81 0.04-1.67 0.05-3.33 0-5-4.65-0.29-8.54 0.79-13 2zm20 2c-1.93 1.93-1.17 5.4-1.19 8v2.88 2.89c0.03 9.77 0.03 9.77 2.19 19.2l2 1c0.98-5.72 1.15-11.3 1.12-17.1 0.01-0.87 0.01-1.75 0.02-2.65-0.01-4.54-0.21-8.82-1.14-13.3-0.99-0.33-1.98-0.66-3-1zm-56.8 4.31c-2.61 1.87-5.2 3.66-7.96 5.3-2.52 1.53-4.24 3.27-6.29 5.39-1.06 0.86-2.12 1.72-3.19 2.56-3.01 2.2-3.01 2.2-3.81 5.44-0.72 0.7-1.44 1.4-2.19 2.12-7.07 6.94-10.2 14-10.8 23.9 0.13 3.09 0.49 5.94 1 9l4 1c0.2-1.34 0.2-1.34 0.41-2.71 1.93-10.8 5.97-17.1 13-25.3 2.78-2.6 2.78-2.6 2.56-5 0.6-0.26 1.19-0.51 1.8-0.78 2.41-1.34 3.62-2.63 5.33-4.77 0.56-0.7 1.12-1.4 1.7-2.12 0.57-0.73 1.14-1.45 1.73-2.21 0.58-0.72 1.16-1.44 1.75-2.18 1.57-1.97 3.14-3.95 4.69-5.94 0.58-0.68 1.15-1.35 1.75-2.05 0.41-0.64 0.82-1.29 1.25-1.95-0.5-1.49-0.5-1.49-1-3-2.08 0-4.15 2.17-5.75 3.31zm19.8 8.69c-2.51 2.51-5.02 5.02-7.56 7.5-9.18 9.41-15.4 21.2-15.4 34.5 1.04 3.06 1.04 3.06 3 5 0.99 0.33 1.98 0.66 3 1l1 3c6.76 2.38 14.5 3.56 21.4 1.16 8.69-4.45 16.1-12 19.6-21.2 1.81-7.99 1.72-17.4-2.56-24.6-0.81-0.79-1.61-1.57-2.44-2.38-0.68-0.76-1.35-1.51-2.05-2.29-4.2-5-4.2-5-10.1-7.11-4.02 0.56-5.25 2.38-7.87 5.4zm38 39c-1.95 6.46-2.22 12.3-2 19l4 1c0.05-2.96 0.09-5.92 0.12-8.88 0.02-0.84 0.04-1.68 0.06-2.55 0-0.8 0.01-1.61 0.02-2.44 0.01-0.74 0.02-1.48 0.03-2.25-0.06-2.12-0.06-2.12-2.23-3.88zm-11 6c-2.94 2.39-5.71 4.69-8.31 7.44-4.9 4.67-10.3 8.2-16.7 10.6l2 3c1.96-0.11 3.92-0.24 5.88-0.38 1.09-0.06 2.18-0.13 3.3-0.21 2.95-0.14 2.95-0.14 4.82-2.41l1-2h3v-3c0.99 0.33 1.98 0.66 3 1 2.92-4.82 4.12-7.3 4-13l-2-1z" fill="#02B66E"/>
<path transform="translate(813 1150)" d="m0 0c2.91 1.92 5.09 3.92 7.36 6.56 0.94 0.99 0.94 0.99 1.9 2 3.99 4.28 7.23 8.46 9.9 13.7 0.97 1.88 2.04 3.71 3.14 5.51 2.43 4.23 3.84 8.67 5.25 13.3 0.26 0.82 0.52 1.63 0.79 2.48 2.92 9.41 3.21 18.4 3.21 28.2 0.01 1.25 0.03 2.5 0.04 3.79 0.02 16.4-2.98 34-14.5 46.5-0.89 0.83-1.77 1.65-2.69 2.5-1.23 1.21-1.23 1.21-2.5 2.44-11.2 9.13-25.9 11.7-39.9 10.3-7.23-1.13-13.2-4.24-19.6-7.76-0.87-0.47-1.73-0.95-2.63-1.44-15.4-8.83-26.3-20.2-31.4-37.6-6.15-23.5-5.51-49.3 6-71.2 2.34-3.96 4.79-7.52 8-10.8h2l1-3c18-14.1 44.6-17.3 64.6-5.56zm-26.6 2.56c2.54 2.54 4.04 2.5 7.57 3 5.21 0.79 10.3 1.8 15.4 3-0.69-3.19-0.69-3.19-3.47-4.38-9.84-4.47-9.84-4.47-19.5-1.62zm-20 4v2h-3c-0.68 2.4-0.68 2.4-1 5l2 2c0.68-0.62 1.36-1.23 2.07-1.87 2.93-2.13 2.93-2.13 6.62-3.07 3.51-0.7 3.51-0.7 4.75-3.68 0.19-0.79 0.37-1.57 0.56-2.38-1.02-1.23-1.02-1.23-3.18-1.25-3.47 0.31-5.8 1.57-8.82 3.25zm4.32 7.24c-11.1 14.9-10.8 36.1-9.32 53.8 3.41 20 11.4 37.3 26.9 50.5 4.15 2.04 7.55 2.82 12.1 1.5 8.15-6.54 10.5-15.4 11.8-25.4 1.63-17.9-0.08-39.6-8.77-55.6-0.43-1.23-0.86-2.47-1.31-3.75-1.87-5.15-4.76-9.64-7.69-14.2-0.4-0.65-0.79-1.3-1.2-1.97-0.87-1.38-1.83-2.71-2.8-4.03h-2v-2c-5.46-3.64-12.8-3.58-17.7 1.24zm-18.3-2.24v2c-0.57 0.04-1.15 0.08-1.75 0.13-3.37 1.31-4.55 3.85-6.25 6.87-0.4 0.67-0.8 1.34-1.22 2.03-7.41 13.3-8.16 27.1-8.21 41.9-0.01 0.72-0.02 1.43-0.02 2.17-0.05 9.1 0.31 17.6 4.45 25.9h2c-0.07-0.81-0.14-1.62-0.22-2.46-1.68-20.8-1.74-40.6 8.22-59.5l2-2c0.46-2.36 0.82-4.74 1.13-7.12 0.17-1.28 0.33-2.57 0.51-3.89 0.12-0.98 0.24-1.97 0.36-2.99h2l-1-3h-2zm61 39v3h2c0.06 0.63 0.11 1.25 0.17 1.9 0.25 2.83 0.51 5.65 0.77 8.48 0.09 0.98 0.17 1.97 0.26 2.98 0.09 0.94 0.18 1.88 0.27 2.85 0.08 0.87 0.16 1.74 0.24 2.64 0.18 2.2 0.18 2.2 1.29 4.15 0.87 11.9-1.01 23.3-3 35 3.03-0.55 3.03-0.55 5.27-2.5 5.67-11.9 3.1-28 0.73-40.5h-2c-0.03-0.79-0.07-1.59-0.11-2.41-0.37-5.91-0.67-10.6-3.89-15.6h-2zm-72 42 1 2zm71.4 29.8c-3.02 2.07-6.02 3.21-9.51 4.28-2.51 1.18-4.06 2.88-5.93 4.9 1.9 0.08 3.79 0.14 5.69 0.19 1.58 0.05 1.58 0.05 3.2 0.11 4.39-0.42 6.96-2.1 9.99-5.24 1.36-2 1.36-2 0.81-4.31-0.23-0.57-0.45-1.15-0.69-1.75-1.38-0.09-1.38-0.09-3.56 1.82z" fill="#02B66E"/>
<path transform="translate(1088 887)" d="m0 0c0.78 0.08 1.56 0.16 2.37 0.24 5.01 0.61 8.95 1.89 13.5 4.07 0.85 0.38 1.7 0.76 2.58 1.14 15.8 7.45 25.3 22 31.4 37.9 0.36 1.33 0.71 2.66 1 4-15.6 11-15.6 11-22 11v-2c-1.49-0.49-1.49-0.49-3-1v-2c-0.91 0.08-1.82 0.17-2.76 0.25-3.24-0.25-3.24-0.25-5.21-1.78-2.61-3.17-4.19-6.51-5.91-10.2-2.56-5.34-5.16-10.2-9-14.8-1.12-1.48-1.12-1.48-2.12-4.48-2.25-1.15-2.25-1.15-5-2-0.87-0.39-1.74-0.78-2.63-1.19-8.68-2.09-15.5 0.26-23.1 4.62-6.9 4.68-9.31 11.7-11.3 19.6-0.38 1.07-0.75 2.15-1.13 3.25-1.63 6.98-1.63 13.1 1.13 19.8 0.48 2.14 0.94 4.29 1.37 6.44 2.5 11.1 10.2 18.4 19.4 24.8 7.86 4.82 15.8 5.14 24.7 5.11 1.48 0.03 1.48 0.03 2.99 0.05 6.46 0.01 11.6-1.03 17.6-3.36 1.7-0.46 1.7-0.46 3.43-0.93 2.68-0.79 2.68-0.79 3.5-2.94 1.77-3.54 4.52-4.48 8.07-6.13 2.22 0.4 2.22 0.4 4 1-0.32 1.61-0.63 3.21-0.94 4.81-0.26 1.34-0.26 1.34-0.53 2.71-0.53 2.48-0.53 2.48-1.53 5.48 0.32 0.99 0.66 1.98 1 3 0.64-0.74 0.64-0.74 1.31-1.5 1.69-1.5 1.69-1.5 4.69-1.5-0.6 2.55-1.21 5.09-1.82 7.63-0.16 0.71-0.33 1.42-0.5 2.16-1.08 4.43-2.59 8.13-4.68 12.2-0.44 1.72-0.83 3.45-1.19 5.19-1.29 4.41-1.29 4.41-3.4 6.02-2.12 0.81-4.2 1.31-6.41 1.79-0.81 0.26-1.62 0.53-2.45 0.8-19.3 6.12-38.7 3.31-56.4-5.73-3.5-1.86-6.97-3.74-10.2-6.07v-2c-1.07-0.36-1.07-0.36-2.17-0.74-7.99-3.54-15.5-10.6-19.8-18.3v-2h-2c-9.47-18.2-11.2-40.3-5-60 2.66-7 6.22-13.6 10-20 0.53-0.99 1.07-1.98 1.62-3 9.83-12.4 23.8-19.6 39.3-21.5 5.82-0.59 11.4-0.4 17.2 0.2zm-5.12 7.31c-0.33 0.66-0.67 1.32-1 2 4.8 2.24 9.63 2.69 14.8 3.21 1.73 0.2 3.46 0.49 5.18 0.79 0.32 0.66 0.66 1.32 1 2 1.31-0.33 2.64-0.66 4-1h-2c-0.33-0.66-0.67-1.32-1-2-6.71-3.66-13.5-4.71-21-5zm-26 6c-6.1 2.54-9.18 6.08-12.3 11.8-0.82 2.51-0.6 3.73 0.29 6.18h2c0.2-0.78 0.41-1.56 0.62-2.37 1.86-3.56 3.63-3.45 7.38-4.63 0.76-0.82 1.52-1.65 2.31-2.5 3.23-3 5.43-3.32 9.7-3.85 2.18-0.48 2.18-0.48 3.25-2.71 0.25-0.64 0.49-1.28 0.74-1.94-4.86-2.95-8.82-1.62-14 0zm-24 18c-8.14 16.4-12.8 34.7-9 53 1.12 2.58 2.41 4.66 4 7h1v-7h-1c-0.68-10.4 1.67-20.5 4.06-30.6 1.24-5.32 1.81-10.8 2.47-16.2 0.47-3.26 0.47-3.26 1.47-6.26h-3zm11 0 1 2zm-9 3 1 2zm-2 15 1 2zm84 55v2c-0.96 0.12-1.91 0.24-2.89 0.37-1.26 0.17-2.51 0.33-3.8 0.51-1.86 0.24-1.86 0.24-3.76 0.49-3.45 0.47-3.45 0.47-6.06 1.72-3.4 1.24-6.16 0.91-9.75 0.6-1.24-0.1-2.48-0.2-3.76-0.3-2.98-0.39-2.98-0.39-3.98-1.39-1.85-0.23-3.71-0.41-5.57-0.56-1.01-0.08-2.02-0.17-3.06-0.25-1.18-0.09-1.18-0.09-2.37-0.19 0.71 3.28 0.71 3.28 3.91 4.57 1.23 0.53 2.47 1.05 3.71 1.56 1.21 0.52 2.42 1.03 3.66 1.57 6.96 2.44 13.5 2.43 20.8 2.11 1.31-0.02 1.31-0.02 2.64-0.05 5.63-0.24 9-1.01 13.3-4.76 0.75-2.54 0.75-2.54 0-5-1.4-1.81-1.4-1.81-3-3zm12 2 1 2z" fill="#02B66E"/>
<path transform="translate(1006,963)" d="m0 0h1c1.07 17.4 0.86 34.6 0 52h-1v-52z" fill="#030406"/>
<path transform="translate(541,931)" d="m0 0v1c2.31 0.33 4.62 0.66 7 1v1c-1.94 0.03-3.87 0.05-5.81 0.06-1.08 0.01-2.16 0.03-3.27 0.04-2.92-0.1-2.92-0.1-5.92-1.1v-2c3.05-0.98 4.95-0.98 8 0z" fill="#026C43"/>
<path transform="translate(735,990)" d="m0 0h1v28h-1v-28z" fill="#02B76F"/>
<path transform="translate(1067,1285)" d="m0 0h14v1h-14v-1z" fill="#030406"/>
<path transform="translate(904,765)" d="m0 0h12v1h-12v-1z" fill="#030406"/>
<path transform="translate(629,1285)" d="m0 0h11v1h-11v-1z" fill="#030406"/>
<path transform="translate(1045,937)" d="m0 0h1v11h-1v-11z" fill="#030406"/>
<path transform="translate(800,891)" d="m0 0h11v1h-11v-1z" fill="#030406"/>
<path transform="translate(613,1192)" d="m0 0h1v9h-1v-9z" fill="#02B76F"/>
<path transform="translate(486,838)" d="m0 0h9v1h-9v-1z" fill="#02B76F"/>
<path transform="translate(709,1026)" d="m0 0h8v1h-8v-1z" fill="#030406"/>
<path transform="translate(1e3 1184)" d="m0 0h1v7h-1v-7z" fill="#02B76F"/>
<path transform="translate(612,1247)" d="m0 0h1v5h-1v-5z" fill="#02B76F"/>
<path transform="translate(1078,996)" d="m0 0h5v1h-5v-1z" fill="#030406"/>
<path transform="translate(818,972)" d="m0 0h1v5h-1v-5z" fill="#030406"/>
<path transform="translate(821,945)" d="m0 0h1v5h-1v-5z" fill="#030406"/>
<path transform="translate(928,681)" d="m0 0h1v5h-1v-5z" fill="#02B76F"/>
<path transform="translate(519,1109)" d="m0 0 4 1z" fill="#030406"/>
<path transform="translate(511,1109)" d="m0 0 4 1z" fill="#030406"/>
<path transform="translate(1154,1159)" d="m0 0c3 1 3 1 3 1z" fill="#02B76F"/>
<path transform="translate(749,1026)" d="m0 0c3 1 3 1 3 1z" fill="#030406"/>
<path transform="translate(1103,996)" d="m0 0c3 1 3 1 3 1z" fill="#030406"/>
<path transform="translate(802,1278)" d="m0 0 2 1z" fill="#030406"/>
<path transform="translate(975,1020)" d="m0 0 2 1z" fill="#030406"/>
<path transform="translate(676,933)" d="m0 0 2 1z" fill="#010204"/>
<path transform="translate(868,901)" d="m0 0 2 1z" fill="#030406"/>
<path transform="translate(552,844)" d="m0 0 2 1z" fill="#030406"/>
<path transform="translate(647,771)" d="m0 0 2 1z" fill="#030406"/>
<path transform="translate(922,736)" d="m0 0 2 1z" fill="#030406"/>
<path transform="translate(1014,554)" d="m0 0 2 1z" fill="#02B76F"/>
</svg>
