<?xml version="1.0" encoding="UTF-8"?>
<svg version="1.1" viewBox="0 0 1600 1600" width="150" height="500" xmlns="http://www.w3.org/2000/svg">
<path transform="translate(1135 413)" d="m0 0c0.88 0.66 1.76 1.31 2.66 1.99 1.72 1.28 3.49 2.51 5.28 3.7v2l4 2v2l4 2v2l4 2v2c0.84 0.31 0.84 0.31 1.7 0.63 3.08 1.83 4.94 4.35 7.05 7.18 0.43 0.58 0.87 1.16 1.32 1.75 16 21.6 23.5 44.8 20.1 71.7-3.04 20.2-13.9 41.2-30 54.2-12 8.56-25 16-40.2 14.6-18.3-3.24-28.6-15.6-39-30-0.66-0.89-1.32-1.77-1.99-2.69-4.24-5.71-8.18-11.6-12.1-17.5-3.56-5.36-7.46-10.4-11.5-15.4-3.4-4.19-3.4-4.19-3.4-6.39h-2c-1.54-1.91-2.97-3.82-4.38-5.81-2.56-3.64-4.99-6.57-8.62-9.19v-2c-0.79-0.27-1.57-0.54-2.38-0.81-2.62-1.19-2.62-1.19-4.62-4.19-1.64-1.05-3.32-2.03-5-3-0.65-0.47-1.31-0.94-1.98-1.42-4.81-3.44-9.11-5.52-14.9-6.94-2.16-0.64-2.16-0.64-5.16-2.64-16.5-3.74-37-4.47-51.7 4.44-11.6 7.85-19.2 24.1-22.6 37.3-0.64 2.26-0.64 2.26-1.62 4.65-1.14 2.92-1.87 5.81-2.58 8.86-1.33 5.64-1.33 5.64-2.44 6.75-0.29 1.87-0.52 3.74-0.72 5.62-0.13 1.19-0.26 2.37-0.39 3.59-0.19 1.87-0.19 1.87-0.39 3.79-0.2 1.78-0.2 1.78-0.4 3.6-1.84 17.4-2.24 34.5-2.16 52 0 2.09 0 4.18 0.01 6.27 0.01 5.06 0.03 10.1 0.05 15.2 4 1.11 7.8 1.09 11.9 1.02 1.6-0.01 3.21-0.02 4.82-0.04 0.84 0 1.67-0.01 2.54-0.02 12-0.11 23.9-0.19 35.9 0.91 0.88 0.08 1.76 0.16 2.66 0.24 3.74 0.4 5.97 0.77 9.16 2.89 2.11 0.64 4.24 1.24 6.37 1.81 8.56 2.58 8.56 2.58 11.6 7.19 1.31 2.87 1.31 2.87 1 6-7.06 8.99-18.4 12.4-29 15-1.84 0.54-3.67 1.08-5.5 1.62-4.61 1.27-9.03 1.83-13.8 2.07-2.84 0.25-2.84 0.25-6.01 1.26-4.03 1.14-7.91 1.71-12.1 2.17-0.7 0.09-1.41 0.18-2.13 0.26-5.19 0.6-10.3 0.69-15.5 0.62 0.45 3.31 0.91 6.62 1.37 9.93 0.19 1.39 0.19 1.39 0.39 2.81 0.71 5.09 1.57 10.1 2.73 15.1 0.52 2.22 0.98 4.45 1.44 6.68 2.13 10.5 2.13 10.5 6.08 20.5 1.11 2.24 1.94 4.52 2.8 6.86 4.44 11.1 10.3 17.9 20.3 24.1 5.71 4.1 11.2 10.5 13.9 17.1-0.34 3.12-1.62 5.22-3.44 7.75-0.43 0.61-0.86 1.22-1.31 1.86-0.62 0.69-0.62 0.69-1.25 1.39h-2c-0.27 0.8-0.54 1.61-0.82 2.43-0.39 0.85-0.78 1.7-1.18 2.57-0.99 0.33-1.98 0.66-3 1-1.22 2.5-1.22 2.5-2 5-4.27 0-4.94-0.38-8-3v2c-4.91-0.55-7.33-4.16-10.5-7.64-5.31-5.63-11.6-9.9-18.5-13.4v-2c-0.68-0.12-1.35-0.24-2.05-0.37-0.89-0.17-1.78-0.33-2.7-0.51-1.33-0.24-1.33-0.24-2.67-0.49-2.58-0.63-2.58-0.63-4.62-1.69-5.66-2.71-14.9-1.22-21 0.06-2.77 1.41-2.77 1.41-5 3-0.75 0.16-1.49 0.33-2.25 0.5-0.58 0.16-1.16 0.33-1.75 0.5l-1 3c-0.99 0.33-1.98 0.66-3 1-4.03 4.13-6.41 8.5-8.87 13.7-1.13 2.31-1.13 2.31-2.82 4.74-3.86 7.54-3.85 17.4-4.85 25.8-0.46 3.8-0.46 3.8-1.15 7.22-0.33 3.79 0.19 6.4 1.11 10 1.36 5.98 1.78 12.2 2.43 18.3 0.12 1.04 0.24 2.07 0.37 3.14 0.1 0.94 0.2 1.87 0.31 2.84 0.29 2.47 0.29 2.47 2.47 4.29 0.51 1.73 0.96 3.49 1.37 5.25 1.21 4.73 2.74 7.86 5.63 11.8v2h2c0.43 0.73 0.86 1.46 1.31 2.22 5.8 9.55 17 14.8 27.4 17.9 12.2 2.92 28 2.58 39.3-3.1 6.85-4.23 11-8.5 14-16 3.31 3.13 5.73 6.06 8 10 0.62 0.74 1.23 1.48 1.87 2.25 2.85 3.68 4.92 7.66 7.13 11.8 1.9 3.4 3.83 6.75 6 10-0.09 3.49-0.83 4.81-3.19 7.41-16.6 15.3-39 18.4-60.7 17.7-14.8-0.66-30.1-6.59-42.1-15.1-1.11-0.78-1.11-0.78-2.25-1.58-20.3-15-32.3-36.9-36.4-61.7-0.2-1.78-0.2-1.78-1.36-2.76-3.88-27.3-0.62-58.5 15-82 0.98-1.02 1.98-2.02 3-3 0.91-1.24 1.8-2.49 2.68-3.75 2.78-3.77 5.89-6.72 9.49-9.71 1.84-1.5 1.84-1.5 3.44-3.18 1.64-1.61 3.34-2.34 5.39-3.36 0.41-0.46 0.82-0.91 1.25-1.38 4.03-3.73 9.77-5.46 14.8-7.62 0.83-0.4 1.67-0.8 2.52-1.21 12.2-5.3 27.3-4.98 40.5-4.79-0.32-0.69-0.63-1.38-0.96-2.09-0.89-1.97-1.79-3.94-2.68-5.91-0.81-1.78-1.63-3.55-2.48-5.31-2.87-6.05-4.4-12.2-5.88-18.7-0.25-0.97-0.49-1.93-0.75-2.92-1.99-7.99-3.18-16-4.25-24.2-0.12-0.88-0.23-1.75-0.35-2.66-0.11-0.79-0.21-1.58-0.31-2.4-0.17-1.84-0.17-1.84-1.34-2.83-0.04-2.34-0.04-4.67 0-7-1.05 0.16-2.11 0.33-3.19 0.5-6.54 0.81-13.7 1.34-20.2 0.01-2.52-0.49-4.86-0.7-7.41-0.79-0.9-0.04-1.79-0.08-2.72-0.12-1.38-0.05-1.38-0.05-2.8-0.1-7.49-0.29-14.8-0.87-22.2-2.07-10.9-1.33-22.2-0.41-33.1 0.21-6.55 0.36-13.1 0.41-19.6 0.29-2.73-0.13-2.73-0.13-4.77 1.07-1.38 0.15-2.77 0.24-4.16 0.31-0.87 0.04-1.74 0.08-2.64 0.13-1.44 0.06-1.44 0.06-2.9 0.13-1.01 0.05-2.02 0.1-3.06 0.15-3.36 0.16-6.71 0.31-10.1 0.47-2.34 0.11-4.69 0.22-7.03 0.33-4.93 0.23-9.87 0.46-14.8 0.69-6.26 0.29-12.5 0.58-18.8 0.88-4.85 0.23-9.7 0.46-14.6 0.69-2.3 0.1-4.61 0.21-6.91 0.32-12.5 0.6-24.9 1.03-37.4 0.86-0.86-0.01-1.71-0.01-2.59-0.02-0.75-0.01-1.5-0.03-2.27-0.04-1.94-0.02-1.94-0.02-3.84 1.1-1.65 0.07-3.29 0.08-4.94 0.06-0.98-0.01-1.95-0.02-2.96-0.02-2.07-0.03-4.14-0.06-6.2-0.08-0.98-0.01-1.96-0.02-2.96-0.03-1.35-0.01-1.35-0.01-2.73-0.03-2.25-0.05-2.25-0.05-4.21 1.1-1.58 0.14-3.17 0.22-4.75 0.28-1 0.04-1.99 0.07-3.02 0.11-1.09 0.04-2.18 0.07-3.31 0.11s-2.27 0.08-3.43 0.12c-3.73 0.13-7.45 0.25-11.2 0.38-2.57 0.09-5.14 0.17-7.71 0.26-7.53 0.26-15.1 0.5-22.6 0.74-1.53 0.05-1.53 0.05-3.09 0.1-18.5 0.58-37 0.97-55.5 0.89-9.53-0.05-19 0.17-28.5 0.65-14.4 0.71-28.6 0.57-42.9-0.64l4-1v-2c9.67-1.84 19.4-2.57 29.2-3.22 6.79-0.47 13.4-1.27 20.2-2.27 6.38-0.9 12.8-1.47 19.2-2.08 2.63-0.24 5.25-0.5 7.88-0.75 1.14-0.11 2.28-0.21 3.46-0.33 2.98-0.29 2.98-0.29 5.43-0.84 2.83-0.54 5.6-0.82 8.47-1.05 1.15-0.1 2.3-0.19 3.48-0.29 1.23-0.09 2.46-0.19 3.73-0.29 1.97-0.16 3.93-0.32 5.89-0.48 4.14-0.34 8.27-0.67 12.4-1.01 3.38-0.27 6.77-0.54 10.2-0.82 2.53-0.2 5.06-0.41 7.59-0.61 6.47-0.53 12.9-1.17 19.3-1.96 8.29-1 16.6-1.72 24.9-2.37l4.56-0.36c4.03-0.32 8.05-0.64 12.1-0.95 4.19-0.33 8.38-0.66 12.6-1 5.05-0.39 10.1-0.79 15.2-1.19 9.91-0.78 19.8-1.57 29.7-2.38 2.28-0.18 4.55-0.37 6.83-0.55 3.1-0.25 6.21-0.51 9.31-0.76 10.3-0.84 20.6-1.63 30.9-2.09 3.08-0.14 5.62-0.37 8.57-1.35 1.42-0.16 2.84-0.26 4.27-0.34 0.86-0.05 1.73-0.1 2.62-0.16 0.94-0.05 1.88-0.1 2.85-0.15 2.02-0.12 4.04-0.24 6.07-0.35 1.06-0.07 2.12-0.13 3.22-0.19 15.5-0.89 30.9-1.83 46.3-3.38 1.16-0.11 2.32-0.22 3.52-0.34 9.69-1.03 19-2.79 28.2-5.78 6.36-1.91 12.8-3.03 19.3-4 0.85-0.13 1.71-0.26 2.59-0.4 4.8-0.67 9.46-0.98 14.3-0.95 1.07 0.01 2.13 0.01 3.23 0.02 0.81 0 1.61 0.01 2.44 0.02 0-0.66-0.01-1.31-0.01-1.99-0.02-6.9-0.04-13.8-0.05-20.7 0-2.56-0.01-5.13-0.02-7.69-0.12-37.2-0.12-37.2 2.08-41.6 0.26-1.61 0.48-3.23 0.68-4.84 0.12-0.98 0.25-1.97 0.37-2.98 0.19-1.54 0.19-1.54 0.39-3.12 1.34-11 2.79-21.6 6.56-32.1l1.35-3.99c8.13-23.9 8.13-23.9 16.6-32l2-3h2c0.06-0.59 0.12-1.18 0.18-1.78 1.18-3.2 3.06-3.99 5.94-5.72 1.01-0.61 2.01-1.21 3.05-1.83 0.93-0.55 1.86-1.1 2.83-1.67 0.61-0.41 1.23-0.82 1.86-1.24 8.95-5.77 19.8-6.23 30.1-6.07 1.09-0.01 2.19-0.01 3.32-0.01 5.16 0.03 8.97 0.25 13.7 2.32 1.76 0.27 3.53 0.49 5.31 0.69 12.4 1.94 23.5 8.27 33.7 15.3l3 2v2c0.81 0.32 0.81 0.32 1.64 0.66 3.15 1.79 5.52 4.21 8.04 6.77 0.53 0.54 1.06 1.07 1.61 1.63 4.92 5.04 9.4 10.4 13.7 15.9 0.75 0.97 1.5 1.93 2.27 2.93 4.43 5.81 8.55 11.8 12.6 17.9 3.79 5.6 7.83 11 11.9 16.4 2.54 3.45 5.05 6.93 7.55 10.4 3.28 4.86 3.28 4.86 7.76 8.37v2c0.96 0.37 0.96 0.37 1.94 0.75 1.73 0.71 3.46 1.45 5.15 2.27 0.75 0.36 1.51 0.73 2.28 1.1 0.71 0.36 1.42 0.71 2.15 1.07 8.17 2.66 17-0.73 24.5-4.19 2.62-1.7 4.93-3.47 7.26-5.55 1.74-1.45 1.74-1.45 4.74-2.45 0.29-0.58 0.57-1.16 0.87-1.75 1.51-3.02 3.74-4.87 6.13-7.25 13.2-15 17.1-34.3 16.1-53.7-0.5-7.93-1.51-15.2-5.14-22.3-0.44-0.92-0.87-1.83-1.32-2.77-4.21-8.74-8.61-16.5-15.7-23.2-1.09-1.27-2.18-2.54-3.25-3.81-3.3-3.83-6.91-7.14-10.7-10.4-1.75-1.53-3.38-3.11-5.01-4.76-4.4-3.88-8.91-7.1-14-10-0.66-0.4-1.31-0.8-1.99-1.21-6.93-3.7-14.3-3.9-22-2.79-6.27 2.61-10.2 7.98-13 14-3.85 9.82-4.09 19.6-4.19 30.1-0.02 1.26-0.02 1.26-0.04 2.54-0.01 5.04 0.53 9.6 1.75 14.5 0.62 2.47 1 4.38 0.48 6.9-2.35 1.95-3.91 3-7 3-3.03-1.51-4.81-3.44-7-6-0.93-3.28-0.93-3.28-1.32-6.94-0.1-0.99-0.1-0.99-0.21-1.99-1.47-15.2-1-31.7 4.53-46.1 0.25-0.67 0.5-1.34 0.76-2.03 3.97-9.09 10.9-16 19.9-20.1 17.8-6.32 33.3 2.23 47.4 12.5zm-234 148 1 4zm12 79c-0.03 2.46-0.05 4.91-0.06 7.37-0.01 0.7-0.02 1.4-0.03 2.12-0.1 3.88-0.1 3.88 1.09 7.51 3.46 0.03 6.91 0.04 10.4 0.06 1.48 0.01 1.48 0.01 2.99 0.03 0.94 0 1.88 0 2.85 0.01 0.87 0 1.74 0.01 2.63 0.01 2.21 0.03 2.21 0.03 4.16-1.11 1.84-0.24 3.69-0.42 5.54-0.58 21.2-0.72 21.2-0.72 39.4-9.58 0.36-0.61 0.73-1.22 1.1-1.84h-3c-0.5-1.49-0.5-1.49-1-3-33.7-5.89-33.7-5.89-66-1zm-22.5 0.77c-1.92 0.28-1.92 0.28-3.87 0.56-1.35 0.2-2.7 0.4-4.05 0.6-2.63 0.39-5.26 0.78-7.9 1.16-1.17 0.17-2.34 0.35-3.54 0.52-3.18 0.39-3.18 0.39-5.92 0.32-2.55-0.12-2.55-0.12-5.26 2.07-2.76 0.57-5.52 0.95-8.31 1.34-2.89 0.71-4.46 1.72-6.69 3.66 0.5 2.01 0.5 2.01 2 4 7.62 2.84 15.4 3.14 23.4 3.1 0.88-0.01 1.76-0.01 2.66-0.01 2.78 0 5.56-0.02 8.35-0.03 1.89-0.01 3.79-0.01 5.68-0.01 4.63-0.01 9.25-0.03 13.9-0.05l-1-17c-3.61-1.21-5.71-0.78-9.46-0.23zm10.5 10.2v6h1v-6h-1zm2 24 1 2zm12 70 4 1zm-19 8c-2.29 0.42-4.58 0.79-6.88 1.12-1.15 0.17-2.3 0.34-3.49 0.51-0.87 0.12-1.74 0.24-2.63 0.37l1 2c5.45 1.81 11.5 1.43 17 0v-2c1.72 0.01 1.72 0.01 3.47 0.03l4.59 0.03c0.75 0.01 1.5 0.02 2.28 0.03 4.66 0.02 9.06-0.32 13.7-1.09-0.5-1.49-0.5-1.49-1-3h-2.38c-2.63 0-5.25-0.02-7.89-0.07-1.97-0.03-1.97-0.03-3.98-0.06-1.96-0.03-1.96-0.03-3.96-0.07-3.71 0.19-6.32 0.94-9.79 2.2zm-25 12c0.99 1.48 0.99 1.48 2 3h2v-2l-4-1zm-6 2v3h-2.25c-3.23 1.17-3.42 1.72-4.88 4.69-0.63 1.43-1.25 2.87-1.87 4.31-0.9 1.67-0.9 1.67-1.82 3.37-0.39 0.87-0.78 1.74-1.18 2.63l1 2c0.54-0.78 1.08-1.57 1.64-2.37 0.72-1.02 1.43-2.03 2.17-3.07 0.71-1.01 1.42-2.02 2.14-3.06 2.05-2.5 2.05-2.5 5.05-3.5 0.31-0.66 0.62-1.32 0.94-2 0.35-0.66 0.7-1.32 1.06-2 1.32-0.36 2.66-0.7 4-1l1-3c-3.59-1-3.59-1-7 0zm-28 30c-0.27 0.94-0.53 1.88-0.81 2.85-0.53 1.87-0.53 1.87-1.07 3.77-0.35 1.23-0.69 2.46-1.05 3.73-0.65 2.21-1.34 4.4-2.13 6.56-5.28 17.3-5.66 46.8 2.09 63.3 0.32 0.59 0.64 1.18 0.97 1.8 0.31 1.57 0.58 3.16 0.81 4.75 0.96 5.23 3.07 8.99 6.19 13.2 1.17-3.51 0.75-4.67-0.32-8.13-0.26-0.89-0.52-1.78-0.8-2.69-0.67-2.35-0.67-2.35-2.88-3.18l1-4h-2c-2.1-19.4-2.66-38.1-0.35-57.5 0.29-2.42 0.57-4.85 0.84-7.27 0.18-1.56 0.35-3.11 0.53-4.66 0.09-0.72 0.17-1.44 0.25-2.18 0.36-2.94 0.79-5.57 1.73-8.39l-3-2zm0 22 1 3zm-14 11 1 3zm0 22 1 3zm1 10 1 2zm120 40.2c-6.81 6.08-13.5 9.02-22.5 9.81l-3 2c-2.76 0.3-5.43 0.51-8.19 0.62-0.75 0.04-1.5 0.08-2.27 0.12-1.85 0.09-3.7 0.18-5.54 0.26v2c13.9 2.56 31.2 0.66 43.3-7 2.85-2 4.48-3.7 5.69-7-0.79-2.24-0.79-2.24-2-4-2.82 0-3.49 1.25-5.5 3.19z" fill="#09B56F"/>
<path transform="translate(1384,794)" d="m0 0c11.1 8.14 18.9 21.4 21.6 34.8 0.85 7.15 1.24 15.8-1.53 22.6-1.3 3.33-1.62 6.49-2.02 10-1.35 11.9-1.35 11.9-4 14.6-0.28 1.35-0.52 2.7-0.75 4.06-1.85 9.58-4.59 19.6-9.29 28.2-1.09 2.03-1.99 4.1-2.9 6.22-0.68 1.52-1.37 3.04-2.06 4.56-0.32 0.71-0.64 1.42-0.98 2.15-2.56 5.11-5.88 9.21-9.71 13.4-0.49 0.54-0.97 1.08-1.48 1.63-1.23 1.31-2.53 2.57-3.83 3.81h-2l-1 3c-9.55 3.86-19.5 2.19-29-1-3.43-1.51-6.73-3.17-10-5v-2c-0.6-0.23-1.19-0.47-1.8-0.71-2.71-1.59-3.71-3.24-5.32-5.91-1.43-2.42-1.43-2.42-2.88-4.38h-2c-0.49 0.99-0.99 1.98-1.5 3-2.74 4.78-6.45 8.33-10.5 12-0.53 0.52-1.07 1.04-1.62 1.58-5.31 4.59-11.6 4.68-18.4 4.42-10.2-1.44-20.8-5.46-28-13-1.42-2.45-2.65-4.92-3.82-7.5-1.14-2.55-1.14-2.55-2.73-4.95-1.58-2.78-2.26-5.19-2.95-8.3-0.86-3.65-1.76-7.21-3-10.8-1.55-4.47-2.66-9.01-3.75-13.6-0.72-2.92-0.72-2.92-1.75-5.81-1.1-3.38-1.78-6.71-2.44-10.2-1.11-5.78-2.41-11.5-3.87-17.2-1.41-5.53-2.58-11.1-3.69-16.7-0.67-3.36-1.35-6.71-2.06-10.1-0.24-1.1-0.24-1.1-0.48-2.23-0.31-1.73-0.31-1.73-1.46-2.71-0.45-2.3-0.84-4.62-1.19-6.94-0.3-1.9-0.3-1.9-0.6-3.84-0.07-1.06-0.14-2.12-0.21-3.22 2-2 2-2 5.07-2.23 1.29 0.01 2.58 0.02 3.91 0.03 0.68 0.01 1.37 0.01 2.07 0.01 2.19 0.01 4.38 0.04 6.57 0.07 1.49 0.01 2.97 0.01 4.46 0.02 3.64 0.02 7.28 0.06 10.9 0.1 0.17 0.63 0.34 1.25 0.52 1.9 0.24 0.82 0.48 1.63 0.73 2.48 0.35 1.21 0.35 1.21 0.7 2.46 1.29 2.65 2.42 2.99 5.05 4.16 0.94 2.47 0.94 2.47 1.56 5.5 0.84 3.79 1.69 7.49 2.88 11.2 2.79 9.09 4.87 18.5 6.62 27.8 0.57 2.95 1.3 5.68 2.32 8.5 1.89 5.36 3 10.9 4.17 16.4 0.75 3.5 1.55 6.92 2.55 10.4 0.72 2.57 1.14 4.68 1.28 7.32 0.47 5.23 2.12 10 3.78 15 0.84 2.92 0.84 2.92 0.84 6.92 2.24 0.59 2.24 0.59 5 0 6.87-5.07 9.57-14.5 11.6-22.4 2.22-15.1-0.82-29.1-4.61-43.6-0.4-1.6-0.79-3.2-1.19-4.81-1.09-4.46-2.22-8.91-3.37-13.4-0.48-2.02-0.87-4.05-1.25-6.09-0.64-3.28-1.37-6.52-2.21-9.75-0.18-0.7-0.36-1.4-0.55-2.12-0.36-1.39-0.73-2.78-1.11-4.17-1.04-3.99-1.7-7.59-1.32-11.7 2.62-2.62 3.77-2.26 7.42-2.27h3.3c1.14 0 2.29 0.01 3.47 0.02 1.12-0.01 2.25-0.02 3.41-0.02 11 0.02 11 0.02 16.4 2.27 1.19 2.88 1.19 2.88 2 6 0.64 0.58 1.28 1.15 1.94 1.75 4.63 5.06 5.19 12.4 5.75 19 0.44 3.14 1.54 5.96 2.62 8.94 0.94 3.08 1.17 6.09 1.44 9.29 0.18 2.12 0.18 2.12 1.25 4.48 0.98 2.45 1.22 4.21 1.44 6.81 0.36 3.94 1.36 7.07 2.87 10.7 0.74 2.12 1.03 4.05 1.25 6.29 0.17 3.77 0.17 3.77 2.44 6.69 0.67 2.69 1.26 5.35 1.81 8.06 1.42 6.66 3 13.2 4.81 19.8 0.21 0.75 0.42 1.5 0.63 2.28 0.97 3.46 1.96 6.71 3.75 9.84h3l0.82-1.64c0.85-1.71 1.72-3.42 2.58-5.13 0.51-1 1.02-2.01 1.54-3.04 0.5-1 1.01-2 1.52-3.02 0.51-1.05 1.02-2.09 1.54-3.17 0.49-1 0.99-1.99 1.5-3.02 2.39-5.68 3.38-11.8 4.62-17.9 0.4-1.84 0.4-1.84 0.81-3.72 4.02-19.1 6.54-41.5-2.93-59.4-1.77-2.5-3.63-4.85-5.61-7.19-1.39-1.81-1.39-1.81-1.39-3.81-0.52-0.23-1.03-0.45-1.56-0.69-3.36-1.81-6.37-4.05-9.44-6.31 3.93-3.31 8.03-5.96 12.4-8.56 0.64-0.39 1.28-0.77 1.94-1.17 12.1-7.2 12.1-7.2 18.6-6.27zm-11 10c-1.07 0.45-2.14 0.91-3.25 1.38-3.1 1.83-4.19 3.42-5.75 6.62 2.65 2.22 2.65 2.22 4.77 1.85 3.14-1.2 6.04-2.78 8.98-4.41 0.6-0.33 1.2-0.66 1.82-1 1.48-0.81 2.96-1.62 4.43-2.44l-1-5c-3.82 0-6.6 1.44-10 3zm-69 7v1h9v-1h-9zm-76 1c0.31 2.08 0.62 4.17 0.94 6.31 0.79 5.49 1.38 10.9 1.72 16.5 0.23 2.49 0.23 2.49 2.34 5.21 0.4 2.13 0.73 4.28 1 6.44 0.49 4.39 0.49 4.39 1.97 8.49 1.54 3.09 1.91 6.38 2.47 9.76 0.91 5.23 2.03 10.1 3.88 15.1 0.85 2.77 1.25 5.53 1.68 8.4 0.69 4.52 1.81 7.78 4 11.8 0.49 1.49 0.94 2.99 1.38 4.5 1.25 4.33 2.61 8.61 4.06 12.9 0.58 1.74 0.58 1.74 1.18 3.52 1.4 3.14 2.8 4.87 5.38 7.1-3.41-13.4-3.41-13.4-8.02-26.4-1.22-3.18-1.87-6.35-2.54-9.68-0.69-3.38-1.35-6.61-2.44-9.88-0.8-2.41-1.39-4.66-1.9-7.13-0.17-0.81-0.34-1.62-0.51-2.45-0.18-0.84-0.35-1.68-0.53-2.54-2.41-12-2.41-12-5.5-23.9-1.56-5.57-2.55-11.2-3.47-16.9-0.11-0.69-0.23-1.38-0.34-2.08-0.1-0.61-0.2-1.22-0.3-1.84-0.64-3.1-1.58-6.13-2.45-9.18l15-1-1-3h-18zm59 0 1 2zm8 2c0.45 6.8 1.64 13.2 3.25 19.8 0.64 2.72 1.22 5.42 1.75 8.16 0.75 3.88 1.64 7.72 2.56 11.6 0.88 3.72 1.61 7.32 1.94 11.1 0.28 3.05 0.86 5.71 1.81 8.62 2.69 8.35 4.05 17.1 5.69 25.7l4 1c-0.45-3.94-0.91-7.88-1.38-11.8-0.12-1.12-0.25-2.24-0.38-3.4-0.13-1.07-0.26-2.14-0.39-3.25-0.11-0.99-0.23-1.98-0.35-3-0.38-2.77-0.38-2.77-2.5-5.54-0.53-2.11-0.53-2.11-0.93-4.54-0.15-0.91-0.31-1.81-0.47-2.74-0.23-1.44-0.23-1.44-0.48-2.91-1.53-15.4-1.53-15.4-7.12-28.8-0.4-1.89-0.75-3.78-1.06-5.69-0.18-1.03-0.36-2.07-0.54-3.13-0.4-3.18-0.4-3.18-0.4-9.18h14v-3c-2.6-0.22-5.21-0.43-7.81-0.62-0.74-0.07-1.48-0.13-2.24-0.2-4.76-0.36-4.76-0.36-8.95 1.82zm-73 5 1 3zm157 11c0.29 1.63 0.58 3.25 0.88 4.88 0.18 1.01 0.36 2.02 0.54 3.07 0.35 1.82 0.72 3.64 1.16 5.44 2.59 10.9 1.9 22.6 0.42 33.6l2 1c2.01-3.22 2.34-6.26 2.71-10 0.29-2 0.29-2 1.35-4.88 2.33-7.77 0.95-14.8-2.06-22.1-0.39-0.98-0.39-0.98-0.8-1.98-1.28-3.07-2.67-6.07-4.2-9.02h-2zm-77 1 1 3zm-10 5 1 2zm-66 2 1 2zm11 0 1 2zm145 41 1 2 1-2h-2zm-67 11 1 3zm65 18 1 2zm-61 3c0.36 6.63 2.13 10.6 6 16l2-1c-0.76-1.94-1.53-3.88-2.31-5.81-0.43-1.08-0.86-2.16-1.3-3.27-1.24-2.61-2.21-4.09-4.39-5.92zm60 0v3c-0.99 0.33-1.98 0.66-3 1-1.21 1.79-1.21 1.79-2.25 4-3.21 6.08-6.96 12.1-12.8 16v2c2.47 0.99 2.47 0.99 5 2l1-3c2.06-1.19 2.06-1.19 4-2v-2c0.8-0.56 1.61-1.11 2.44-1.69 3.34-3.01 3.11-4.92 3.56-9.31 0.54-1.05 1.07-2.1 1.62-3.19 1.62-2.65 1.62-2.65 1.07-5.19-0.23-0.53-0.46-1.07-0.69-1.62zm-71 3c-0.22 0.63-0.44 1.26-0.66 1.91-2.67 7.2-5.8 13.7-12.3 18.1v2c1.75 0.79 1.75 0.79 4 1 3.7-1.67 5.55-3.19 7-7h2c0.31-0.78 0.62-1.57 0.94-2.38 1.06-2.62 1.06-2.62 2.06-4.62 0.07-1.37 0.08-2.75 0.06-4.12-0.02-1.28-0.04-2.56-0.06-3.88-0.99-0.33-1.98-0.66-3-1z" fill="#09B56F"/>
<path transform="translate(379,744)" d="m0 0v11h3c0.01 0.65 0.02 1.3 0.03 1.96 0.11 6.77 0.22 13.5 0.34 20.3 0.05 2.52 0.09 5.05 0.13 7.57l0.18 10.9c0.02 1.13 0.04 2.25 0.05 3.41 0.11 5.38 0.34 10.6 1.27 15.9 1.07-0.54 2.14-1.07 3.25-1.62 0.72-0.36 1.44-0.72 2.19-1.09 1.88-0.95 3.75-1.9 5.62-2.86 1.05-0.53 2.11-1.07 3.19-1.62 1-0.51 1.99-1.02 3.02-1.54 6.77-3.15 14.1-3.02 21.4-1.52 4.22 1.56 8.31 3.35 12.4 5.25v2c0.56 0.2 1.12 0.41 1.69 0.62 3.16 1.89 5.08 4.53 7.25 7.44 0.44 0.59 0.88 1.18 1.34 1.79 14.4 19.5 17.2 42.2 14.4 65.9-2.9 18.2-11.5 36.2-26.7 47.3-0.84 0.64-0.84 0.64-1.69 1.3-9.47 6.7-21.3 7.16-32.5 7.1-1.19 0-2.39 0-3.62 0.01-2.5 0-5-0.01-7.49-0.02-3.84-0.02-7.67 0-11.5 0.02-2.44 0-4.88-0.01-7.31-0.01-1.15 0-2.3 0.01-3.48 0.02-1.59-0.02-1.59-0.02-3.21-0.03-0.93 0-1.86-0.01-2.82-0.01-2.8-0.45-3.54-1.29-5.36-3.38-1.99-0.29-1.99-0.29-4.06-0.06-1.3 0.02-2.6 0.04-3.94 0.06-2.84-2.84-2.26-4.74-2.28-8.73-0.01-1.05-0.01-1.05-0.02-2.12-0.01-2.36-0.02-4.72-0.02-7.07-0.01-1.69-0.02-3.37-0.03-5.06-0.03-4.58-0.04-9.17-0.05-13.8-0.02-4.79-0.05-9.58-0.07-14.4-0.05-9.07-0.09-18.1-0.12-27.2-0.04-10.3-0.09-20.6-0.14-31-0.1-21.2-0.19-42.5-0.27-63.7-0.62-0.05-1.24-0.11-1.88-0.16-1.22-0.12-1.22-0.12-2.46-0.24-1.21-0.11-1.21-0.11-2.44-0.23-2.72-0.45-4.28-1.43-6.22-3.37 0.5-1.85 0.5-1.85 2-4 2.73-0.98 5.26-1.72 8.06-2.38 1.64-0.41 3.27-0.84 4.9-1.26 0.84-0.22 1.68-0.44 2.54-0.67 3.93-1.09 7.78-2.39 11.6-3.75 1.01-0.35 1.01-0.35 2.04-0.71 4.2-1.5 8.07-3.31 12-5.46 1.86-0.77 1.86-0.77 5.86-0.77zm-17 10 3 2h-4c-0.99 0.5-0.99 0.5-2 1v1c-4.95 1.49-4.95 1.49-10 3v4c7.55 0.5 17.1-0.92 23-6v-4c-2.29-1.14-3.59-1.1-6.12-1.06-1.92 0.03-1.92 0.03-3.88 0.06zm-10 17c-1.76 7.26-2.26 14.1-2.16 21.5 0.01 1.12 0.02 2.23 0.03 3.38 0.03 3.71 0.08 7.41 0.13 11.1 0.02 1.29 0.03 2.58 0.05 3.91 0.11 8.46 0.24 16.9 0.38 25.4 0.62 38.8 0.62 38.8 0.57 58-0.01 1.25-0.01 2.49-0.01 3.77-0.02 5.79-0.06 11.6-0.11 17.4-0.02 2.03-0.03 4.07-0.04 6.1-0.01 0.91-0.03 1.83-0.04 2.77 0 0.83-0.01 1.67-0.01 2.53-0.01 1.08-0.01 1.08-0.02 2.17 0.27 2.36 1.07 3.97 2.23 6.02h2c1.05-43 1.19-85.9 0.59-129-0.03-2.31-0.06-4.61-0.09-6.91-0.04-3.62-0.1-7.25-0.15-10.9-0.03-2-0.06-4-0.08-6-0.03-1.79-0.03-1.79-0.06-3.62-0.02-1.05-0.04-2.1-0.05-3.18 0-2.47 0-2.47-1.16-4.47h-2zm41 47 2 4c0.88-0.33 1.77-0.65 2.68-0.99 7.37-2.68 14.7-5.1 22.3-7.01v-2c-11.6-1.34-17.5-0.71-27 6zm28-5-1 2c0.99-0.33 1.98-0.66 3-1l-2-1zm3 1 1 2zm-31.1 23.2c-3.03 3.78-5.13 7.24-6.87 11.8l-1 1c-1.8 6.47-2.23 13.2-2.56 19.8-0.04 0.86-0.08 1.72-0.13 2.61-0.49 11.3-0.42 22.5-0.37 33.8 0 2.22 0.01 4.44 0.01 6.66 0.01 5.37 0.03 10.7 0.05 16.1 4.56 2.28 9.96 1.34 14.6-0.19 3.78-2.03 7.02-4.14 10.4-6.81v-2c1.49-0.5 1.49-0.5 3-1 11.6-12.9 12.2-33.6 12.3-50.1 0.01-1.35 0.03-2.71 0.06-4.06 0.23-10.5-0.03-23-6.92-31.6-3.43-3.23-3.43-3.23-7.82-4.53-5.81 0.62-10.8 4.37-14.8 8.51zm-5.87-1.23 1 2 1-2h-2zm-2 1c-0.75 3.47-0.75 3.47-1 7h3v-6l-2-1zm-29 1 1 2zm68 0c0.2 0.57 0.41 1.14 0.62 1.72 0.27 0.77 0.54 1.55 0.82 2.34 0.26 0.76 0.53 1.51 0.81 2.29 6.23 21.9 2.7 52.8-7.95 72.9-3.43 5.13-7.44 9.02-12.3 12.8l1 2c5.88-0.76 11.9-2.47 15.8-7.1 1.61-2.57 2.95-5.15 4.23-7.9 0.38-0.77 0.76-1.53 1.15-2.32 7.81-18.2 9.3-46.7 3.85-65.7-0.63-1.35-1.29-2.69-2-4-0.47-1.05-0.95-2.1-1.44-3.19-1.31-3.1-1.31-3.1-4.56-3.81z" fill="#09B56F"/>
<path transform="translate(601 769)" d="m0 0c4.23 2.99 7.07 6.64 9.81 11 0.42 0.65 0.83 1.3 1.26 1.98 2.81 4.93 3.74 9.39 2.74 15-0.92 2.33-1.99 4.54-3.09 6.79-1.51 3.67-1.45 6.29-0.91 10.2 0.66 0.47 1.32 0.93 2 1.42 2 1.58 2 1.58 2.5 3.84-0.01 1.34-0.01 1.34-0.01 2.71 0.01 1.02 0.01 2.05 0.02 3.1-0.01 1.12-0.02 2.25-0.04 3.41 0 1.18 0.01 2.36 0.01 3.58 0 3.25-0.01 6.5-0.04 9.75-0.02 3.4-0.02 6.8-0.02 10.2-0.01 5.71-0.03 11.4-0.06 17.1-0.04 7.33-0.06 14.6-0.07 22-0.01 6.3-0.02 12.6-0.04 18.9-0.01 1.35-0.01 2.71-0.01 4.06-0.02 4.44-0.04 8.89-0.06 13.3 0 1.13-0.01 2.25-0.01 3.4-0.01 1.03-0.01 2.06-0.02 3.12 0 0.89-0.01 1.78-0.01 2.7-0.13 2.26-0.5 4.22-1.14 6.39-4.23-0.11-8.46-0.24-12.7-0.38-1.19-0.03-2.39-0.06-3.63-0.09-1.73-0.06-1.73-0.06-3.5-0.12-1.06-0.03-2.13-0.06-3.22-0.09-3.05-0.33-5.16-1.11-7.96-2.32-2.33-0.68-4.66-1.35-7-2 0-0.84 0-0.84-0.01-1.7-0.08-13.6-0.17-27.2-0.28-40.8-0.05-6.58-0.09-13.2-0.13-19.8-0.04-6.35-0.08-12.7-0.14-19-0.01-2.43-0.03-4.86-0.04-7.28-0.02-3.39-0.05-6.78-0.08-10.2 0-1.01 0-2.02-0.01-3.06-0.01-0.92-0.02-1.84-0.03-2.79 0-0.8-0.01-1.61-0.02-2.43-0.09-2.19-0.09-2.19-2.26-3.95-1.99-0.4-3.99-0.74-6-1-0.18 1.67-0.18 1.67-0.37 3.38-0.63 3.62-0.63 3.62-2.63 5.62-0.67 1.97-0.67 1.97-1.12 4.12-0.29 1.28-0.58 2.56-0.88 3.88-2.56-0.62-5.12-1.25-7.69-1.88-1.08-0.26-1.08-0.26-2.18-0.52-3.1-0.77-6.01-1.55-8.98-2.74-4.76-1.9-10.4 0.6-15 2.18-3.02 1.37-4.93 3.51-7.12 5.96h-2l-2 5h-3c-1.01 5.67-1.63 11.4-2.25 17.1-0.64 5.71-0.64 5.71-1.75 7.93-0.09 2.12-0.12 4.25-0.11 6.38v1.98c0 2.16 0.01 4.33 0.01 6.49 0.01 1.5 0.01 3 0.01 4.5 0 3.95 0.01 7.9 0.02 11.8 0.01 4.02 0.02 8.05 0.02 12.1 0.01 7.91 0.03 15.8 0.05 23.7-3.49 0.04-6.99 0.06-10.5 0.09-0.98 0.01-1.96 0.02-2.97 0.03-7.78 0.04-15.1-0.58-22.6-3.12-2.43-2.43-2.25-3.03-2.26-6.36 0-0.91-0.01-1.83-0.02-2.77 0.01-1.01 0.01-2.02 0.01-3.06 0-1.05-0.01-2.11-0.01-3.2-0.01-2.31-0.02-4.61-0.02-6.92-0.01-3.64-0.02-7.28-0.04-10.9-0.06-10.4-0.09-20.7-0.11-31.1-0.02-6.33-0.05-12.7-0.09-19-0.01-2.41-0.02-4.83-0.02-7.25 0-3.37-0.01-6.75-0.04-10.1 0.01-1 0.01-2.01 0.02-3.04-0.01-0.92-0.02-1.84-0.03-2.78 0-0.8-0.01-1.6-0.01-2.42-0.47-2.6-1.33-3.47-3.38-5.07-2.26-0.78-2.26-0.78-4.69-1.19-1.21-0.24-1.21-0.24-2.44-0.48-0.62-0.11-1.23-0.22-1.87-0.33l1-5c4.3-1.47 8.63-2.78 13-4.06 15-4.34 15-4.34 29.2-10.6 0.91-0.42 1.83-0.85 2.77-1.29 0.99 0.5 0.99 0.5 2 1 0.38 2.21 0.38 2.21 0.57 4.94 0.2 3.67 0.2 3.67 1.43 7.06 1.65 0.72 3.31 1.39 5 2 0.4-0.45 0.8-0.89 1.22-1.36 7.31-7.77 15.3-11.9 25.9-12.8 7.43-0.23 16.4 0.3 22.8 4.18 2.34 2.59 3.25 4.64 4 8 8.33-0.51 15.6-2.48 23.4-5.19 2.56-0.81 2.56-0.81 5.56-0.81v-4c-1.79-0.15-1.79-0.15-3.62-0.31-3.97-0.5-6.89-1.67-10.4-3.69-0.86-0.41-1.73-0.83-2.62-1.25-4.02-2.96-5.81-7.04-7.38-11.8-0.37-5.62-0.24-9.19 3-14 6.92-7.14 15.8-11.4 25.2-6zm-18.2 7c-3.14 5.01-3.48 9.26-3 15l2 2h3c0.25-1.22 0.5-2.43 0.75-3.69 1-3.94 2.29-6.43 5.25-9.31 3.25-1.81 3.25-1.81 6-3v-4c-5.11-0.38-9.62 0.27-14 3zm15-2 1 3zm-82.4 51.7c-2.29 3.12-3 5.49-2.55 9.33 2.94-1.32 4.75-2.74 7-5 2.93-2.43 5.97-4.71 9-7 0.71-0.57 1.41-1.13 2.14-1.72 6.1-4.59 12.3-5.96 19.9-6.28 2.89 0.46 2.89 0.46 5 1-0.67-3.01-0.67-3.01-2.61-4.16-15-5.27-28.3 2.8-37.8 13.8zm-18.6-11.7c-1.8 0.68-1.8 0.68-3.81 1.75-5.83 2.74-11.9 3.97-18.2 5.25l1 5c6.3 0.28 6.3 0.28 12-2 2.34-0.67 4.67-1.33 7-2 1.36-0.62 2.7-1.27 4-2v-5l-2-1zm101 1.88c-5.77 2.35-11.5 3.32-17.7 4.12v5c1.54 1.36 1.54 1.36 4 2 2.81-0.87 5.32-1.83 8-3 1.79-0.71 3.58-1.42 5.38-2.12 2.25-0.91 4.45-1.79 6.62-2.88l-1-5c-1.86 0-3.63 1.14-5.31 1.88zm-118 15.1c-0.79 2.81-1.12 5.29-1.12 8.2v2.52c0 0.9 0.01 1.8 0.01 2.73v2.9c0 3.16 0.01 6.32 0.01 9.48 0.01 2.19 0.01 4.38 0.01 6.57 0 5.77 0.01 11.5 0.02 17.3 0.01 5.89 0.02 11.8 0.02 17.7 0.01 11.6 0.03 23.1 0.05 34.6h2v2h2c0.07-13.3 0.13-26.5 0.16-39.8 0.01-6.16 0.03-12.3 0.07-18.5 0.03-5.94 0.05-11.9 0.06-17.8 0-2.27 0.01-4.54 0.03-6.81 0.02-3.17 0.02-6.34 0.02-9.51 0.01-0.95 0.02-1.89 0.04-2.87-0.01-0.86-0.01-1.72-0.02-2.61 0.01-0.75 0.01-1.5 0.01-2.27-0.23-2.26-0.23-2.26-3.37-3.84zm103 0v102l4 2c1.71-1.7 1.13-3.84 1.14-6.12-0.01-1.1-0.01-1.1-0.01-2.22 0-1.15 0-1.15 0.01-2.33v-7.7-5.37c0-3.78 0-7.55-0.01-11.3 0-4.78 0-9.56 0.01-14.4v-11.1-5.28c0.01-9.27-0.12-18.5-0.58-27.8-0.04-0.81-0.08-1.63-0.12-2.46-0.15-4.1-0.15-4.1-1.44-7.93h-3zm-71 14 1 3c0.99 0.33 1.98 0.66 3 1v-2h-2v-2h-2z" fill="#09B56F"/>
<path transform="translate(1450,744)" d="m0 0c0.12 0.71 0.24 1.42 0.37 2.15 0.25 1.38 0.25 1.38 0.51 2.79 0.24 1.37 0.24 1.37 0.49 2.77 0.21 0.76 0.41 1.51 0.63 2.29l2 1 2 98c0.99 0.5 0.99 0.5 2 1 3.74-3.65 7.2-7.44 10.6-11.4 0.47-0.54 0.94-1.09 1.42-1.66 4.21-4.97 7.8-10.2 10.8-16 0.44-0.82 0.88-1.63 1.33-2.48 1.02-2.91 0.71-4.54-0.14-7.46-1.98-0.33-3.96-0.66-6-1-0.62-2.88-0.62-2.88-1-6 2-2 2-2 4.06-2.24 0.85 0 1.7 0.01 2.57 0.01h2.91c1.04 0.01 2.08 0.02 3.16 0.03 1.06 0.01 2.12 0.01 3.22 0.01 3.4 0.01 6.8 0.04 10.2 0.07 2.31 0.01 4.61 0.01 6.92 0.02 5.65 0.02 11.3 0.06 17 0.1 2.13 3.74 1.96 5.79 1 10 1.48 0.5 1.48 0.5 3 1-2.68 2.27-5.22 4.12-8.31 5.81-3.69 2.03-6.63 4.65-9.7 7.51-1.99 1.68-1.99 1.68-4.36 3.06-3.22 1.99-5.84 4.45-8.57 7.06-3.81 3.64-7.59 6.74-12.1 9.56 2.31 3.46 3.28 3.53 7 5 4.26 2.94 6.88 6.4 9.56 10.8 0.59 0.94 0.59 0.94 1.19 1.9 8.2 13.2 17.2 31.6 17.2 47.4l2 1c0.75 2.48 1.4 4.92 2 7.44 1.06 5.24 1.06 5.24 4 9.56 0.67 2.13 0.67 2.13 1.19 4.56 0.18 0.81 0.36 1.61 0.54 2.44 0.09 0.66 0.18 1.32 0.27 2-2.52 2.52-9.36 1.23-12.8 1.25-1.65 0.03-1.65 0.03-3.33 0.06-1.59 0.01-1.59 0.01-3.22 0.02-0.97 0.01-1.94 0.02-2.95 0.03-3.23-0.42-5.04-1.61-7.75-3.36-1.76-0.37-1.76-0.37-3.56-0.75-3.89-1.41-4.65-2.69-6.54-6.24-1.44-3.21-2.22-6.47-2.96-9.89-1.14-5.05-2.48-9.94-4.16-14.8-0.76-2.22-1.49-4.46-2.21-6.7-2.51-7.75-5.09-15.3-8.69-22.6-0.88-1.97-0.88-1.97-0.88-3.97-6.21-0.43-8.9 0.11-14 4h-2c-0.14 6.88-0.29 13.8-0.43 20.6-0.05 2.33-0.09 4.67-0.14 7.01-0.39 17.7-0.39 17.7-0.43 35.3-3.67 1.84-8.02 1.23-12.1 1.25-1.38 0.03-1.38 0.03-2.78 0.06-5.54 0.03-10.1-0.6-15.2-2.6-2.59-0.95-5.21-1.3-7.93-1.71-1-1-1-1-1.12-3.76v-3.78-2.09c0-2.33 0-4.66 0.01-7v-4.99c0-4.54 0-9.07 0.01-13.6 0-4.73 0.01-9.47 0.01-14.2 0-8.97 0.01-17.9 0.02-26.9 0.01-10.2 0.01-20.4 0.02-30.6 0.01-21 0.03-42 0.05-63-2.29-1.14-4.62-2.06-7-3-4.78-1.89-4.78-1.89-7-3 0.5-1.85 0.5-1.85 2-4 2.73-0.98 5.26-1.72 8.06-2.38 1.64-0.41 3.27-0.84 4.9-1.26 0.84-0.22 1.68-0.44 2.54-0.67 3.93-1.09 7.78-2.39 11.6-3.75 1.01-0.35 1.01-0.35 2.04-0.71 4.22-1.51 8.14-3.33 12.1-5.46 1.77-0.77 1.77-0.77 4.77-0.77zm-14.1 11.7c-4.88 2.33-9.85 4.34-14.9 6.31v3c8.12 0.54 15.6-1.91 23-5v-5c-3.38-1.17-4.95-0.89-8.12 0.69zm-11.9 15.3c-0.06 1.28-0.12 2.55-0.18 3.87-0.09 1.67-0.17 3.34-0.26 5.01-0.04 0.84-0.08 1.68-0.12 2.55-0.06 1.2-0.06 1.2-0.12 2.44-0.04 0.74-0.08 1.48-0.11 2.25-0.21 1.88-0.21 1.88-1.21 3.88-0.09 1.52-0.13 3.04-0.13 4.56 0 0.96 0 1.92-0.01 2.91 0.01 1.06 0.01 2.12 0.01 3.21v3.36c-0.01 3.69-0.01 7.37 0 11.1 0 2.55 0 5.1-0.01 7.65 0 5.35 0 10.7 0.01 16 0.01 6.2 0 12.4 0 18.6-0.01 5.95-0.01 11.9 0 17.8 0 2.54 0 5.08-0.01 7.61 0 3.54 0.01 7.08 0.01 10.6 0 1.06 0 2.12-0.01 3.21 0.01 0.96 0.01 1.92 0.01 2.91v2.53c-0.08 1.91-0.08 1.91 1.13 2.9 0.04 2.33 0.04 4.67 0 7 0 3.86 0.22 7.71 0.44 11.6 0.04 0.78 0.08 1.56 0.12 2.37 0.14 4.17 0.14 4.17 1.44 8.07h2c0.02-20.5 0.04-41 0.05-61.5 0.01-9.52 0.01-19 0.03-28.6 0.01-8.3 0.01-16.6 0.01-24.9 0.01-4.39 0.01-8.78 0.02-13.2v-12.4c0-1.52 0.01-3.03 0.01-4.55v-6.22-3.51c-0.12-3.15-0.53-6.12-1.12-9.21h-2zm3 3 1 3zm66 38c-0.99 1.49-0.99 1.49-2 3 2.25 0.05 4.5 0.09 6.75 0.12 1.88 0.04 1.88 0.04 3.8 0.08 3.18-0.18 4.82-0.51 7.45-2.2-2.97-1.48-5.7-1.21-9-1.25-1.26-0.03-2.52-0.05-3.81-0.08-1.05 0.11-2.11 0.22-3.19 0.33zm-1 6c-4.27 4.99-4.27 4.99-6 11 4.31-0.48 6.17-1.75 9-5l-2-6h-1zm-13 26-1 7c1.95-0.19 1.95-0.19 4-1 1.28-1.98 1.28-1.98 2-4l-2-2h-3zm-23 11 1 3zm9 4-1 4c0.59-0.01 1.18-0.02 1.79-0.04 6.78-0.07 6.78-0.07 9.83 0.73 3.69 0.48 6.08-1.07 9.38-2.69-3.43-2.11-6.01-2.32-10-2-1.55 0.56-1.55 0.56-3.12 1.12-2.88 0.88-2.88 0.88-5.26 0-0.53-0.37-1.07-0.74-1.62-1.12zm21 2-2 2h3l-1-2zm-27 10 2 2v-2h-2zm-3 1 1 3 2-2c-0.99-0.33-1.98-0.66-3-1zm28 10c-1.23 3.68-0.62 4.72 0.69 8.31 1.63 4.64 3.07 9.27 4.37 14 1.34 4.79 2.91 9.17 4.94 13.7 0.67 2.33 1.33 4.67 2 7 1.27 3.41 2.39 6.39 5 9-0.6-4.95-1.62-9.45-3.11-14.2-0.21-0.67-0.42-1.34-0.63-2.03-0.44-1.41-0.89-2.82-1.33-4.23-0.67-2.11-1.33-4.22-1.98-6.33-2.67-8.53-5.62-16.9-8.95-25.2h-1z" fill="#09B56F"/>
<path transform="translate(1009,744)" d="m0 0c0.5 5.45 0.5 5.45 1 11 0.99 0.33 1.98 0.66 3 1 0.78 7.95 1.12 15.8 1.03 23.8-0.02 2.18-0.03 4.35-0.04 6.53-0.02 3.38-0.05 6.76-0.09 10.1-0.03 3.3-0.04 6.6-0.06 9.89-0.01 1.02-0.03 2.03-0.04 3.07 0 0.95-0.01 1.89-0.01 2.86-0.01 0.82-0.02 1.65-0.02 2.5 0.25 2.49 0.98 4.11 2.23 6.26h2c0.5-1.49 0.5-1.49 1-3 1.49-1.5 1.49-1.5 3.31-3 0.6-0.5 1.19-0.99 1.8-1.5 0.63-0.5 1.25-0.99 1.89-1.5 0.63-0.51 1.25-1.03 1.9-1.55 5.72-3.94 13.2-5.97 20.1-6.45 0.87-0.07 1.74-0.15 2.64-0.23 9.4-0.46 17.7 1.47 25.1 7.45 11.1 11.3 16.4 24.4 16.3 40.1-0.01 0.89-0.02 1.79-0.04 2.72-0.01 0.96-0.02 1.93-0.03 2.93-0.03 3.17-0.07 6.34-0.11 9.51-0.03 2.21-0.05 4.41-0.07 6.62-0.07 5.8-0.13 11.6-0.2 17.4-0.08 5.92-0.14 11.8-0.21 17.8-0.12 11.6-0.26 23.2-0.4 34.8-3.87 0.09-7.75 0.14-11.6 0.19-1.1 0.02-2.19 0.05-3.32 0.07-5.88 0.06-9.93-0.08-15.1-3.26-2.33-0.38-4.66-0.72-7-1-1.59-1.59-1.14-3.21-1.16-5.41-0.01-0.95-0.02-1.9-0.03-2.89 0-1.05-0.01-2.1-0.02-3.19-0.01-1.1-0.02-2.2-0.03-3.34-0.03-3.66-0.05-7.32-0.08-11l-0.06-7.59c-0.05-6-0.09-12-0.14-18-0.05-6.82-0.1-13.6-0.16-20.5-0.11-14-0.22-28.1-0.32-42.1h-2v-2c-10.5 1.5-18 5.76-24.6 14-16.3 23.3-14.3 62-11.5 89.2 0.3 5.27-0.11 10.6-0.84 15.8-2.47 2.47-8.94 1.23-12.2 1.25-1.05 0.02-2.1 0.04-3.18 0.06-1.53 0.01-1.53 0.01-3.09 0.02-0.93 0.01-1.86 0.02-2.82 0.03-2.66-0.36-2.66-0.36-4.88-1.76-3.73-2.34-3.73-2.34-12.8-3.6l-1-172h-8c-2.5-1.88-2.5-1.88-4-4v-2c7.78-2.72 15.6-5 23.6-6.97 3.42-1.02 6.31-2.36 9.45-4.03 2.33-1 4.66-2.01 7-3 0.72-0.39 1.44-0.78 2.19-1.19 1.81-0.81 1.81-0.81 5.81-0.81zm-14.7 11.8c-0.88 0.37-1.76 0.75-2.67 1.13-0.87 0.37-1.74 0.74-2.64 1.12-1.5 0.57-3 1.13-4.5 1.69-3.29 1.16-3.29 1.16-5.5 2.31l1 3c8.32 0.4 14.6-1.19 22-5v-5c-3.6-1.2-4.3-0.72-7.69 0.75zm-11.3 14.2c-3.44 3.44-3.13 7.73-3.15 12.4 0 1.07-0.01 2.15-0.01 3.26-0.01 1.18-0.01 2.36-0.01 3.57 0 1.27-0.01 2.53-0.01 3.83-0.01 3.49-0.01 6.99-0.01 10.5v6.61c-0.01 41.3 1.12 82.6 2.19 124h5c0.75-4.02 1.13-7.82 1.13-11.9 0-1.16 0-2.32 0.01-3.51-0.01-1.26-0.01-2.52-0.01-3.81v-4.05c0.01-3.66 0.01-7.31 0-11 0-3.84 0-7.68 0.01-11.5 0-6.45 0-12.9-0.01-19.4-0.01-7.43 0-14.9 0-22.3 0.01-6.4 0.01-12.8 0-19.2 0-3.81 0-7.62 0.01-11.4 0-3.59 0-7.19-0.01-10.8 0-1.93 0-3.85 0.01-5.78 0.5-14.6 0.5-14.6-3.14-28.4l-2-1zm64 42v2h12v-2h-12zm13 2 2 2v-2h-2zm-31 6 2 2v-2h-2zm4 0c-0.39 0.47-0.78 0.95-1.19 1.44-1.81 1.56-1.81 1.56-4.2 1.9-4.8 1.21-7.02 5.68-9.61 9.66-1.18 2.31-2.09 4.57-3 7l-1 1c-0.07 1.52-0.08 3.04-0.06 4.56 0.01 0.83 0.02 1.66 0.02 2.51 0.02 0.63 0.03 1.27 0.04 1.93l4-3-1-2 2-1c0.4-1.11 0.4-1.11 0.81-2.25 1.46-3.38 3.54-5.24 6.19-7.75l1-2c2.73-4.86 2.73-4.86 5-6v-2h2v-2l2-1c-0.99-0.33-1.98-0.66-3-1zm24 5c0.11 13.3 0.22 26.7 0.34 40 0.05 6.2 0.11 12.4 0.16 18.6 0.05 5.97 0.1 12 0.15 17.9 0.02 2.28 0.04 4.56 0.06 6.85 0.02 3.19 0.05 6.38 0.08 9.58 0.01 0.94 0.02 1.89 0.02 2.86 0.05 4.17 0.13 8.09 1.19 12.2 1.98 0.33 3.96 0.66 6 1 0.02-12.4 0.04-24.8 0.05-37.2 0.01-5.75 0.01-11.5 0.03-17.3 0.01-5.55 0.01-11.1 0.01-16.7 0.01-2.11 0.01-4.23 0.02-6.35v-8.91c0.01-0.88 0.01-1.75 0.01-2.65-0.01-8.21-0.14-14-6.12-20h-2zm-77 70v38h1v-38h-1z" fill="#09B56F"/>
<path transform="translate(182 745)" d="m0 0c2.01-0.01 4.02-0.03 6.03-0.05 2.8-0.03 5.6-0.04 8.4-0.05 0.85-0.01 1.69-0.02 2.57-0.03 2.35 0.01 2.35 0.01 6.09 0.36 2 3 2 3 2.44 6 0.26 2.99 0.26 2.99 2.06 4.5 3.2 3.2 2.56 8.4 2.6 12.7-0.01 1.9-0.02 3.8-0.04 5.7 0 0.97-0.01 1.95-0.01 2.95-0.01 2.39-0.03 4.78-0.05 7.17-0.99-0.33-1.98-0.66-3-1l-1 4c-3.88-1.31-6.11-2.81-8.88-5.81-6.29-6.51-13-10.3-21.1-14.2-0.89-0.48-1.78-0.97-2.7-1.47-11.1-5.12-24.6-5.1-36.6-5.65-2.22-0.11-4.43-0.22-6.65-0.34-1.97-0.1-3.95-0.2-5.92-0.29-3.12-0.25-3.12-0.25-6.12-1.25v79c23.2 0.78 23.2 0.78 47.8-7.37 0.73-0.62 1.46-1.24 2.21-1.87 0.65-0.58 1.3-1.16 1.98-1.76 1.01-0.8 2.02-1.61 3.06-2.44 0.96-0.77 0.96-0.77 1.94-1.56 1.92 0.65 1.92 0.65 4 2 0.83 2.6 0.83 2.6 1.25 5.63 0.15 1 0.3 2 0.45 3.04 0.1 0.77 0.2 1.54 0.3 2.33l4-1v31l-5-4c-1.73 0.03-1.73 0.03-3.5 0.06-3.5-0.06-3.5-0.06-6.31-2.43-0.72-0.87-1.45-1.74-2.19-2.63-2.47-2.47-4.69-2.96-8-4l-2-1h-40l-1 92c-23 0-23 0-29-3-2.24-0.51-2.24-0.51-4.31-0.62-3.69-0.38-3.69-0.38-4.69-1.38-0.11-1.8-0.15-3.6-0.16-5.41-0.01-1.18-0.02-2.35-0.03-3.56 0-1.31-0.01-2.61-0.02-3.95l-0.03-4.14-0.06-11.3c-0.03-3.98-0.05-7.96-0.08-11.9-0.04-6.74-0.09-13.5-0.12-20.2-0.04-6.83-0.08-13.6-0.13-20.5 0-0.83-0.01-1.66-0.01-2.52-0.02-1.66-0.03-3.33-0.04-5-0.1-15.2-0.18-30.5-0.26-45.7-0.03-7.91-0.08-15.8-0.14-23.7-0.02-4.13-0.04-8.27-0.06-12.4-0.01-1.82-0.02-3.65-0.04-5.47-0.02-2.42-0.03-4.83-0.03-7.24-0.01-1.31-0.02-2.62-0.02-3.96 0.23-2.97 0.23-2.97 2.23-4.97 3.06-0.16 6.04-0.2 9.1-0.16 1.39 0.01 1.39 0.01 2.81 0.02 2 0.01 4.01 0.03 6.01 0.05 5.3 0.05 10.6 0.07 15.9 0.09 1.06 0 2.11 0.01 3.2 0.01 8.55 0.02 17.1-0.18 25.6-0.51 12.4-0.44 24.8-0.67 37.3-0.73zm-101 5.23v14h1v-14h-1zm8 3c-1.85 1.85-1.24 4.84-1.31 7.32-0.02 0.68-0.04 1.35-0.06 2.04-0.07 2.29-0.13 4.59-0.19 6.88-0.02 0.8-0.04 1.6-0.06 2.43-0.56 21.9-0.53 43.8-0.51 65.6v17.6c-0.01 4.56-0.01 9.12 0 13.7 0 2.17 0 4.34-0.01 6.51 0 2.99 0 5.98 0.01 8.97 0 0.89 0 1.79-0.01 2.71-0.37 3.9-0.37 3.9 1.14 7.18 0.05 2.86 0.04 5.7-0.01 8.56-0.02 1.77-0.03 3.53-0.05 5.3-0.03 2.79-0.07 5.59-0.11 8.38-0.04 2.69-0.07 5.38-0.09 8.07-0.03 1.26-0.03 1.26-0.05 2.55-0.05 2.59-0.05 2.59 0.31 6.14l3 2c1.77-4.57 2.25-8.36 2.24-13.2 0-0.71 0-1.41 0.01-2.14 0-2.36-0.01-4.72-0.02-7.08v-5.08c0-4.6-0.01-9.19-0.03-13.8-0.01-4.8-0.01-9.61-0.01-14.4-0.01-9.1-0.03-18.2-0.05-27.3-0.02-10.4-0.03-20.7-0.04-31.1-0.02-21.3-0.06-42.6-0.1-63.9h15v-2c-4.37-2.25-7.24-1.79-12-1-0.99-0.33-1.98-0.66-3-1h-4zm83 0v2c-0.99 0.5-0.99 0.5-2 1l31 1-1-4c-1.36 0.11-1.36 0.11-2.75 0.22-11.2 0.85-11.2 0.85-16.5 0.78-3.56-0.28-3.56-0.28-5.75 1v-2h-3zm1 81c-1.08 0.65-1.08 0.65-2.19 1.31-0.93 0.56-1.85 1.12-2.81 1.69-0.83 0.54-1.65 1.07-2.5 1.63-2.55 1.4-4.64 1.96-7.5 2.37l1 3c1.92 0.06 3.83 0.1 5.75 0.13 1.07 0.02 2.13 0.04 3.23 0.07 2.98-0.2 4.61-0.47 7.02-2.2 0.82-3.06 0.82-3.06 1-6l-3-2z" fill="#09B56F"/>
<path transform="translate(298 814)" d="m0 0c11.3 13.4 18.5 27.6 20.9 45.2 0.42 2.42 1.02 4.36 1.97 6.6 1.88 4.51 2.3 9.16 2.96 14 0.56 3.25 1.53 5.91 2.81 8.92 1.32 3.95 1.68 8.1 2.2 12.2 0.36 2.86 0.36 2.86 1.5 4.84 1.12 2.3 1.56 4.3 1.99 6.82 0.24 1.34 0.24 1.34 0.49 2.72 0.32 1.87 0.64 3.73 0.96 5.6 0.76 4.27 1.58 8.24 3.21 12.3 1.35 3.62 1.49 5.91 1.38 9.7-4.03 0.09-8.05 0.14-12.1 0.19-1.13 0.03-2.26 0.05-3.43 0.08-6.35 0.05-10.9-0.25-16.5-3.27-0.77-0.18-1.53-0.37-2.32-0.56-1.68-0.44-1.68-0.44-3.68-2.44-0.13-3.12-0.13-3.12 0-6-3.5 1.29-6.39 2.8-9.44 4.94-5.81 4.06-11.3 6.52-18.2 7.75-0.71 0.13-1.41 0.25-2.14 0.38-11.8 1.99-24.6 1.94-35.3-4.07-1.92-1.03-3.79-1.7-5.85-2.37-6.45-2.34-12.4-6.81-16-12.6-4.82-10.8-3.18-20.1 1-31 2.02-3.62 4.36-6.8 7-10 0.54-0.67 1.08-1.34 1.64-2.02 7.48-8.97 16.2-16.1 26.4-21.8 2.08-1.09 2.08-1.09 2.94-3.23h-2v-2c-1.56-0.29-1.56-0.29-3.15-0.58-14.9-2.78-14.9-2.78-20.6-3.96-1.57-0.32-3.14-0.62-4.71-0.92-4.19-0.83-7.34-1.49-10.5-4.54 0.62-4.41 2.3-8.07 4.31-12 0.29-0.6 0.59-1.2 0.89-1.83 5.95-11.8 15.2-16.7 26.8-22.2 0.95-0.53 1.9-1.05 2.87-1.6 3.62-1.62 7.04-2.18 10.9-2.59 0.71-0.07 1.42-0.15 2.15-0.23 14.8-1.58 26.8-0.25 38.7 9.61zm-56.6 2.81c-1.55 0.73-3.09 1.46-4.63 2.19-2.85 1.53-4.25 2.55-6.37 4.81-0.64 0.62-1.28 1.24-1.94 1.88-3.57 3.67-6.69 7.11-8.06 12.1 0.29 2.74 0.29 2.74 1 5 5.75-2.01 8.4-5.69 12-10.5 7.85-9.58 21.2-15.6 33-18.5-0.5-1.48-0.5-1.48-1-3-9.42-1.02-15.8 1.67-24 6zm26-5 1 2zm-12 24v3c-1 0.33-1.98 0.66-3 1-0.04 1.89-0.04 1.89 1 4 5.22 3.89 10.4 5.81 17 5 4.89-1.56 9.49-3.83 14.1-6.08 4.85-2.33 9.78-4.29 14.9-5.92-0.66-4.46-1.5-8.15-3.82-12.1-13.3-8.07-30.8 0.96-40.2 11.1zm43 17c-5.45 2.48-5.45 2.48-11 5v4h2v2c0.72 0.58 1.44 1.16 2.18 1.75 3.14 2.51 5.32 5.12 7.82 8.25 2.4-3.61 2.33-6.32 2.31-10.5 0.01-0.67 0.03-1.35 0.05-2.05 0.03-2.23 0.03-2.23-0.36-5.45-1-0.99-1.99-1.98-3-3zm8 5c0.08 4.57 0.19 9.13 0.31 13.7 0.02 1.29 0.04 2.59 0.07 3.92 0.03 1.25 0.07 2.49 0.1 3.78 0.03 1.15 0.06 2.29 0.08 3.47 0.47 3.42 1.55 5.3 3.44 8.14v2h2c0.1-6.42-0.04-12.6-1-19-0.16-1.16-0.32-2.33-0.48-3.53-0.6-6.42-0.6-6.42-2.52-12.5h-2zm-49 5c-2.23 1.15-4.23 2.33-6.32 3.69-1.11 0.71-2.22 1.41-3.36 2.14-1.1 0.71-2.19 1.43-3.32 2.17-1.07 0.7-2.14 1.39-3.25 2.11-3.99 2.74-7.2 5.24-8.75 9.89-0.6 0.29-1.2 0.58-1.82 0.88-3 1.54-4.24 3.35-6.18 6.12-0.65 0.88-0.65 0.88-1.3 1.77-3.22 4.94-4.38 9.66-5.14 15.4-0.14 1.02-0.14 1.02-0.28 2.05-0.48 4.43 0.02 7.66 1.72 11.8h3c0.06-0.86 0.12-1.72 0.19-2.6 1.22-11.8 5.02-21.2 13.8-29.4 3.51-3.22 3.51-3.22 6-7.19 1-1.81 1-1.81 3.26-2.61 3.38-1.48 5.06-3.37 7.48-6.13 0.78-0.88 1.56-1.76 2.36-2.66 2.06-2.34 2.06-2.34 2.9-5.41 0.65-0.33 1.31-0.66 2-1-1-0.33-1.99-0.66-3-1zm16.9 4.81c-3.01 2.25-5.17 4.53-7.51 7.45-1.42 1.74-1.42 1.74-3.86 4.05-8.92 9.35-14.7 21.2-14.7 34.3 0 0.75-0.01 1.51-0.01 2.29 0.19 2.91 0.66 4.64 2.81 6.65 6.07 4.3 10.9 5.52 18.3 5.43 1.06 0.02 1.06 0.02 2.16 0.03 6.02-0.28 10.5-3.13 14.8-7.03 2.67-3.15 4.87-6.46 7-10 0.43-0.67 0.87-1.34 1.32-2.03 3.54-6.04 3.6-12.4 2.21-19.2-0.44-1.6-0.98-3.17-1.53-4.74h-2c-0.19-0.82-0.38-1.65-0.57-2.5-2.43-5.93-6.68-10.6-12-14.2-3.34-1.65-3.34-1.65-6.5-0.5zm38.1 25.2-1 3h2l-1-3zm-5 2v38c1.31 0.66 2.63 1.32 4 2 0.07-3.93 0.12-7.85 0.16-11.8 0.02-1.98 0.06-3.96 0.1-5.94 0.06-7.93-0.66-14.8-3.26-22.3h-1zm-14 29c-1.21 1.39-2.4 2.78-3.57 4.19-2.55 3.01-4.47 4.85-8.43 5.81 0.32 0.66 0.65 1.32 1 2 2.52 0.66 2.52 0.66 5 1 0.65-0.99 1.31-1.98 2-3 0.99-0.33 1.98-0.66 3-1 0.32-0.66 0.65-1.32 1-2 0.61-0.29 1.23-0.57 1.87-0.87 2.62-1.39 3.68-2.53 5.13-5.13 0.25-3.16 0.25-3.16 0-6-2.5 0-5.22 3.33-7 5zm-13 11v3c0.65-0.33 1.31-0.66 2-1l-2-2z" fill="#09B56F"/>
<path transform="translate(1158 805)" d="m0 0c0.92 0.01 1.84 0.02 2.79 0.03 14.2 0.25 21.7 3.07 32.5 12.6 18.1 20.5 26.7 43.6 25 71.1-1.44 17.8-7.73 34-20.7 46.6h-3l-1 3c-10.3 7.3-23.8 7.92-36 7-5.92-1.06-11.4-2.69-17-5-0.69-0.28-1.39-0.57-2.1-0.86-8.02-3.43-16.2-7.33-21.9-14.1v-2h-2c-1.44-2.01-1.44-2.01-3-4.69-0.51-0.87-1.03-1.74-1.56-2.63-2.13-3.96-3.6-8.05-5-12.3-0.25-0.75-0.5-1.51-0.75-2.28-0.23-0.69-0.46-1.38-0.69-2.09l-1-3c-0.3-3.12-0.51-6.25-0.72-9.38 0.01-2.54 0.01-2.54-1.28-3.62-1.58-17.6-0.19-39.6 11-54 0.34-1.14 0.34-1.14 0.69-2.31 1.73-3.55 4.22-5.46 7.24-7.94 2.12-1.72 2.12-1.72 3.98-3.77 2.41-2.28 4.76-3.61 7.72-5.11 1.44-0.74 1.44-0.74 2.91-1.5 7.8-3.08 15.6-3.71 23.9-3.62zm2.56 6.25v1h5v-1h-5zm-1 3v1c5.58 0.12 5.58 0.12 11-1v-2c-4.08-0.24-7.17 0.58-11 2zm-15 2c-1.83 1.33-1.83 1.33-3 3 2.35 0.77 2.35 0.77 5 1 1.84-1.33 1.84-1.33 3-3-2.34-0.77-2.34-0.77-5-1zm3 4c-9.08 5.84-11.3 16.9-13.6 26.8-4.17 20.7 3.27 51.7 14.6 69 0.99 1.39 1.98 2.77 3 4.13 0.43 0.58 0.85 1.15 1.28 1.75 2.84 3.64 5.54 6.27 9.72 8.25 7.3 1.03 7.3 1.03 13.9-1.4 1.33-1.54 1.33-1.54 1.13-3.6h2c0.46-1.35 0.92-2.71 1.38-4.06 0.38-1.13 0.38-1.13 0.77-2.29 0.28-0.87 0.56-1.75 0.85-2.65 0.36-1.06 0.72-2.12 1.08-3.21 1.11-4.56 1.26-8.74 1.24-13.4-0.01-0.9-0.01-1.81-0.02-2.75-0.26-16.7-3.14-33.1-9.3-48.6-0.56-1.5-1.13-3-1.68-4.5-0.44-1.15-0.87-2.31-1.32-3.5h-2c-0.21-1-0.41-2.01-0.63-3.04-1.34-4.67-4.11-7.77-7.31-11.3-0.53-0.63-1.07-1.26-1.63-1.91-4.46-5.09-6.73-6.53-13.4-3.72zm-27.5 7.22c-10.1 11.8-11.8 28.9-11.8 43.6v2.12c0 12.1 0.42 23.8 5.25 35.1h2l-1 3h2c-0.49-3.47-0.99-6.94-1.53-10.4-1.16-8.01-1.68-15.9-1.72-24-0.01-0.91-0.02-1.81-0.03-2.74 0.07-14.7 4.88-27.7 11.7-40.6 1.64-3.45 2.64-6.63 3.58-10.3-3.38 0-5.92 2.11-8.47 4.22zm62.5 20.8c0.33 1.11 0.65 2.23 0.99 3.37 6.45 22.4 9.06 43.4 5.39 66.6-0.65 2.97-0.65 2.97 0.62 5.06h2v-3c1.49-0.5 1.49-0.5 3-1 4.56-17.4 1.71-34-3-51-0.25-0.93-0.51-1.85-0.77-2.81-0.76-2.67-1.55-5.34-2.35-8-0.24-0.82-0.48-1.63-0.73-2.47-0.62-1.94-1.37-3.84-2.15-5.72-0.99-0.33-1.98-0.66-3-1zm-81 14 1 2zm82 17 1 2zm0 31 1 2zm-67 1 1 2zm62 26c0.99 1.49 0.99 1.49 2 3 2.59 0.25 2.59 0.25 5 0l-1-2c-3.03-0.66-3.03-0.66-6-1z" fill="#09B56F"/>
<path transform="translate(687 806)" d="m0 0c0.76-0.01 1.51-0.02 2.29-0.03 13.3 0.08 27.7 5.37 37.6 14.3v2c1.48 0.5 1.48 0.5 3 1 5.42 5.84 17 19.2 17 27.1-1.85 3.46-5.4 4.58-8.82 6.24-3.3 1.69-6.35 3.61-9.45 5.64-1.73 0.99-1.73 0.99-3.73 0.99l-2-3c-1.07 0.27-2.15 0.54-3.25 0.81-3.75 0.19-3.75 0.19-5.88-1.56-2.11-3.66-3.76-7.42-5.47-11.3-4.47-9.44-10.7-18.9-19.3-25-4.41-1.33-8.55-1.15-13.1-0.94h-3l1-1c-4-1.06-7.01-1.16-11 0-3.5 2.93-5.83 6.01-8 10l2 1 1-4h4c0.66-0.68 1.32-1.36 2-2.06 0.66-0.64 1.32-1.28 2-1.94 2.25 0.25 2.25 0.25 4 1-0.87 0.5-1.73 0.99-2.63 1.5-9.72 6.72-12.2 17.4-14.4 28.5-0.52 4.42-0.76 8.16 0.95 12.3 1.27 3.27 1.74 6.42 2.3 9.88 2.22 11.8 6.99 18.1 16.8 24.9 0.97 0.63 1.94 1.26 2.94 1.91 0.68 0.46 1.36 0.91 2.06 1.38 11.2 6.53 26.7 5.39 38.9 2.62 7.58-2.8 13.8-7.86 20-13 1.48 0.99 1.48 0.99 3 2-0.75 4.08-1.83 8.02-3 12 2.89 0 4.59-1.48 7-3-1.07 4.6-2.54 9.09-4.01 13.6-1.11 3.41-2.03 6.66-2.68 10.2-0.72 3.57-1.36 6.14-3.31 9.23-14.7 8.26-38 8.4-54 4-9.28-2.88-18-6.45-26-12-0.79-0.54-1.58-1.08-2.39-1.64-4.05-2.91-4.05-2.91-5.61-4.36v-2c-0.59-0.25-1.18-0.51-1.78-0.77-6.14-3.41-10.1-10.2-13.2-16.2-0.34-0.55-0.68-1.09-1.03-1.65-8.12-14-7.17-33.2-3.97-48.4 1.12-3.45 2.49-6.71 4-10 0.31-0.8 0.62-1.6 0.94-2.43 6.2-15.1 17.5-26.6 32.2-33.6 1.93-0.78 3.85-1.4 5.85-1.98 0.92-0.31 0.92-0.31 1.86-0.62 5.34-1.51 10.7-1.59 16.2-1.63zm-33.1 27.2 1 2 1-2h-2zm-12 5c-4.09 4.97-5.88 9.19-7.33 15.4-0.67 2.55-0.67 2.55-1.69 4.45-1.04 2.22-1.3 3.76-1.43 6.19-0.05 0.78-0.09 1.56-0.14 2.36-0.03 0.82-0.06 1.64-0.1 2.49-0.04 0.84-0.08 1.69-0.12 2.56-0.36 9.59-0.71 18.8 3.81 27.5 0.67 1.66 1.34 3.33 2 5 1.48-0.5 1.48-0.5 3-1l-1-5h-1c-1.28-4.91-1.15-9.77-1.13-14.8 0-0.87-0.01-1.73-0.01-2.62 0.01-7.6 0.63-14.3 3.14-21.6 0.58-2.62 1.12-5.24 1.62-7.87 0.14-0.69 0.27-1.38 0.41-2.09 0.33-1.68 0.65-3.36 0.97-5.04h1v-5l-2-1zm82 75c-2.2 0.58-4.41 1.09-6.63 1.56-4 0.56-4 0.56-7.37 2.44-1.52 0.23-3.04 0.41-4.56 0.56-1.24 0.13-1.24 0.13-2.51 0.26-0.96 0.09-0.96 0.09-1.93 0.18v2c-0.99 0.5-0.99 0.5-2 1 2.31-0.14 4.62-0.29 6.94-0.44 1.28-0.08 2.57-0.16 3.9-0.24 3.02 0.03 3.02 0.03 4.16-1.32 1.19 0.06 2.39 0.12 3.62 0.19 4.8 0.09 7.44-1.57 11.4-4.19l-1-4c-1.46-0.09-1.46-0.09-4 2zm-28 6 2 2 1-2h-3z" fill="#09B56F"/>
<path transform="translate(1059,828)" d="m0 0h1v100h-1v-100z" fill="#000202"/>
<path transform="translate(1092,862)" d="m0 0h1v81h-1v-81z" fill="#000202"/>
<path transform="translate(981,777)" d="m0 0h1v68h-1v-68z" fill="#000202"/>
<path transform="translate(1423,791)" d="m0 0h1v62h-1v-62z" fill="#000202"/>
<path transform="translate(88,864)" d="m0 0h1v29h-1v-29z" fill="#000202"/>
<path transform="translate(351,781)" d="m0 0h1v26h-1v-26z" fill="#000202"/>
<path transform="translate(1423,883)" d="m0 0h1v22h-1v-22z" fill="#000202"/>
<path transform="translate(1013,896)" d="m0 0h1v21h-1v-21z" fill="#000202"/>
<path transform="translate(460,862)" d="m0 0h1v17h-1v-17z" fill="#000202"/>
<path transform="translate(510,876)" d="m0 0h1v13h-1v-13z" fill="#000202"/>
<path transform="translate(1423,865)" d="m0 0h1v8h-1v-8z" fill="#000202"/>
<path transform="translate(653,858)" d="m0 0h1v7h-1v-7z" fill="#000202"/>
<path transform="translate(254,812)" d="m0 0h7v1h-7v-1z" fill="#000202"/>
<path transform="translate(572,782)" d="m0 0h1v6h-1v-6z" fill="#0AB670"/>
<path transform="translate(429,863)" d="m0 0h1v5h-1v-5z" fill="#000202"/>
<path transform="translate(1135,849)" d="m0 0h1v5h-1v-5z" fill="#000202"/>
<path transform="translate(848,826)" d="m0 0h1v5h-1v-5z" fill="#000202"/>
<path transform="translate(88,857)" d="m0 0 1 4z" fill="#000202"/>
<path transform="translate(537,837)" d="m0 0 4 1z" fill="#000202"/>
<path transform="translate(547,812)" d="m0 0 4 1z" fill="#000202"/>
<path transform="translate(87,940)" d="m0 0c3 1 3 1 3 1z" fill="#000202"/>
<path transform="translate(1475,862)" d="m0 0c3 1 3 1 3 1z" fill="#0AB670"/>
<path transform="translate(1480,845)" d="m0 0c0.99 0.5 0.99 0.5 2 1-0.99 0.5-0.99 0.5-2 1v-2z" fill="#067A4B"/>
<path transform="translate(583,824)" d="m0 0c3 1 3 1 3 1z" fill="#0AB670"/>
<path transform="translate(670,823)" d="m0 0c3 1 3 1 3 1z" fill="#0AB670"/>
<path transform="translate(536,812)" d="m0 0c3 1 3 1 3 1z" fill="#000202"/>
<path transform="translate(895,767)" d="m0 0c3 1 3 1 3 1z" fill="#000202"/>
<path transform="translate(921,913)" d="m0 0 2 1z" fill="#000202"/>
<path transform="translate(158,851)" d="m0 0 2 1z" fill="#000202"/>
<path transform="translate(170,836)" d="m0 0 2 1z" fill="#000102"/>
<path transform="translate(581,821)" d="m0 0 2 1z" fill="#000002"/>
<path transform="translate(477,821)" d="m0 0 2 1z" fill="#000002"/>
<path transform="translate(867,767)" d="m0 0 2 1z" fill="#000202"/>
<path transform="translate(354,760)" d="m0 0 2 1z" fill="#000202"/>
<path transform="translate(902,752)" d="m0 0 2 1z" fill="#000202"/>
<path transform="translate(633,675)" d="m0 0 2 1z" fill="#000202"/>
<path transform="translate(788,668)" d="m0 0 2 1z" fill="#000202"/>
<path transform="translate(863,645)" d="m0 0 2 1z" fill="#000202"/>
</svg>
