<svg version="1.1" id="Layer_1" xmlns="http://www.w3.org/2000/svg" xmlns:xlink="http://www.w3.org/1999/xlink" x="0px" y="0px"
	 width="50%" viewBox="0 0 208 179" enable-background="new 0 0 208 179" xml:space="preserve">
<path fill="#4FF401" opacity="1.000000" stroke="none" 
	d="
M208.737762,140.764832 
	C209.000000,152.655899 208.843796,164.315201 209.098221,175.965530 
	C209.171509,179.321213 208.534592,180.108612 205.039505,180.101089 
	C140.765869,179.962921 76.491882,180.000000 12.217963,180.000000 
	C8.554683,180.000000 3.216889,181.441223 1.658003,179.630005 
	C-0.230310,177.436050 1.010794,172.492508 1.009808,168.738739 
	C0.995504,114.289078 1.054550,59.839245 0.887543,5.390093 
	C0.875317,1.404209 2.045696,0.856746 5.603298,0.911055 
	C19.753580,1.127071 33.909103,1.000000 48.531342,1.000000 
	C50.814003,3.021780 49.993786,4.673154 48.177559,6.048437 
	C45.511509,8.067221 43.272358,10.545865 40.766449,12.727276 
	C38.652992,14.567060 37.443001,16.776695 36.788109,19.754826 
	C36.328266,20.216494 36.063614,20.386456 35.791553,20.544580 
	C35.215172,20.879585 35.940197,20.414450 35.377831,20.772486 
	C35.421398,20.817280 35.440838,20.750053 35.756355,20.602358 
	C41.777508,16.002575 48.273300,12.506884 52.657837,6.363304 
	C54.263130,4.113976 56.994606,2.804366 59.751427,1.241755 
	C104.020897,1.000000 148.041794,1.000000 192.531342,1.000000 
	C194.813995,3.021788 193.993729,4.673159 192.177536,6.048434 
	C189.511490,8.067229 187.272354,10.545863 184.766449,12.727283 
	C182.653000,14.567059 181.442963,16.776670 180.788116,19.754826 
	C180.328278,20.216497 180.063614,20.386457 179.791565,20.544580 
	C179.215195,20.879581 179.940201,20.414455 179.377838,20.772490 
	C179.421402,20.817261 179.440842,20.750061 179.756363,20.602356 
	C185.777512,16.002575 192.273300,12.506886 196.657822,6.363297 
	C198.263107,4.113963 200.994614,2.804376 203.751434,1.241755 
	C208.174774,0.131899 209.140762,1.704630 209.120712,5.968762 
	C208.921509,48.332653 209.000000,90.697853 209.000000,133.531342 
	C206.251587,136.277176 205.382401,140.380127 201.560211,141.638504 
	C201.130386,141.779999 200.725616,142.382980 200.781143,142.831924 
	C201.465729,148.367905 197.485779,148.472168 193.676392,150.037537 
	C187.762726,152.467651 182.833832,156.734161 180.799500,163.744080 
	C180.202560,164.306931 179.793472,164.561188 179.363220,164.777420 
	C178.875076,165.022736 179.035690,164.899460 179.094467,164.981262 
	C179.479660,165.517303 178.956451,165.011688 179.854889,164.590057 
	C183.272797,160.958176 187.952530,159.530380 191.147003,156.140594 
	C195.474350,151.548676 201.127960,148.199905 204.008987,142.241348 
	C204.887039,140.425323 206.359161,139.459579 208.737762,140.764832 
z"/>
<path fill="#4BED01" opacity="1.000000" stroke="none" 
	d="
M209.000000,140.562500 
	C205.973877,140.908554 206.279327,143.893570 204.937729,145.359253 
	C198.261703,152.652756 191.550278,159.926620 183.056839,165.204956 
	C182.491409,165.556351 181.461456,165.160278 180.323181,165.053497 
	C179.871414,164.830032 179.744034,164.664932 179.808334,164.252655 
	C178.064514,161.104141 178.002731,158.870163 181.334549,156.582993 
	C184.722946,154.257004 187.611496,151.184052 190.628830,148.342514 
	C192.916885,146.187759 195.238571,144.927826 197.946167,147.418732 
	C199.170624,145.939774 198.374329,144.875580 197.929581,143.869461 
	C196.872757,141.478699 198.019806,139.642136 199.956757,138.995056 
	C202.258499,138.226166 204.061310,137.780746 204.532364,134.864532 
	C204.847809,132.911636 206.863129,133.568039 208.660645,133.937286 
	C209.000000,136.041672 209.000000,138.083328 209.000000,140.562500 
z"/>
<path fill="#4BED01" opacity="1.000000" stroke="none" 
	d="
M35.808430,20.252680 
	C34.146309,17.169931 34.028488,15.058807 37.229092,12.630797 
	C41.456993,9.423465 45.050877,5.380366 48.958645,1.348261 
	C52.361286,1.000000 55.722576,1.000000 59.541931,1.000000 
	C55.808983,7.759318 50.361389,13.355643 43.756550,17.709309 
	C41.608887,19.124968 40.153542,22.410538 36.324097,21.053732 
	C35.871517,20.830084 35.744114,20.664976 35.808430,20.252680 
z"/>
<path fill="#4BED01" opacity="1.000000" stroke="none" 
	d="
M179.808334,20.252682 
	C178.146362,17.169907 178.028458,15.058774 181.229095,12.630783 
	C185.457016,9.423491 189.050873,5.380363 192.958649,1.348260 
	C196.361282,1.000000 199.722580,1.000000 203.541931,1.000000 
	C199.808975,7.759364 194.361328,13.355660 187.756470,17.709372 
	C185.608795,19.125044 184.153427,22.410608 180.323959,21.053728 
	C179.871414,20.830086 179.744034,20.664978 179.808334,20.252682 
z"/>
<path fill="#EFF4F4" opacity="1.000000" stroke="none" 
	d="
M74.321106,89.517700 
	C73.217232,89.262474 72.480858,89.180618 71.378716,89.032150 
	C70.840836,88.846428 70.668732,88.727303 70.243256,88.793594 
	C69.989883,88.979019 70.016571,89.183502 70.067413,89.273193 
	C69.594406,89.586319 69.052956,89.643715 68.135757,89.323410 
	C66.427483,84.852776 70.713142,86.153534 72.478561,84.410759 
	C74.155579,83.174637 75.735764,83.614212 77.569778,83.494698 
	C78.862183,83.499199 79.816612,83.501511 80.660233,83.500076 
	C79.199150,83.434654 77.829880,83.672325 76.195953,83.068306 
	C74.457222,81.476936 74.534340,79.911278 75.623444,77.998611 
	C75.964767,77.572327 76.105118,77.411148 76.419434,76.993248 
	C76.662926,76.547363 76.732445,76.358185 76.801407,75.871246 
	C76.653404,75.003136 76.422791,74.462975 76.297180,73.645813 
	C76.393532,73.371956 76.391251,73.089485 76.265244,73.025681 
	C75.758430,72.716354 75.466621,72.389305 75.178558,71.665970 
	C75.242134,69.992775 75.190331,68.668747 74.488678,67.100403 
	C74.191399,66.369743 74.099220,65.931091 74.076744,65.140427 
	C74.420738,62.998348 74.413673,61.176796 74.422890,59.015747 
	C74.605751,57.340126 74.296455,55.959801 74.911415,54.330719 
	C75.164978,53.393764 75.419022,52.808571 75.309715,51.416512 
	C74.620613,50.276558 74.066269,49.998856 73.241539,49.516579 
	C72.521713,49.261623 72.089127,49.183510 71.334198,49.030910 
	C70.309357,48.278770 69.848862,48.805729 69.092888,49.461121 
	C68.360466,49.735332 67.922699,49.699905 67.203201,49.379051 
	C66.913887,49.207806 67.041466,49.049244 67.062698,48.949730 
	C65.870667,47.464256 66.681923,46.340668 67.842575,44.943382 
	C71.016327,44.313595 73.912857,44.587173 77.177017,44.500427 
	C78.276306,44.487473 78.998634,44.577278 80.033440,44.402031 
	C81.124329,43.706738 81.424271,42.802666 82.237259,41.870934 
	C82.884453,41.393871 83.229530,41.088600 83.774200,40.476135 
	C84.323921,39.833164 84.641373,39.460609 85.188286,38.779716 
	C86.627739,36.422115 88.649902,36.525242 90.624886,36.507774 
	C94.553818,36.473026 98.483925,36.558273 102.793007,36.323990 
	C103.913597,36.070324 104.659050,36.036236 105.755737,36.259777 
	C106.783249,36.496334 107.431244,36.761494 108.438232,36.963684 
	C108.982712,37.040508 109.198151,37.073704 109.710754,37.234203 
	C110.318947,37.648842 110.617699,37.948395 111.191498,38.370132 
	C111.677956,38.523815 111.876274,38.568348 112.353088,38.730873 
	C113.363968,39.161644 114.108307,39.437347 115.176361,39.663475 
	C115.995972,39.967285 116.524429,40.207592 117.242821,40.700642 
	C117.776093,41.099964 118.068779,41.341347 118.569336,41.772766 
	C119.074638,42.188808 119.341499,42.447514 119.722580,42.971424 
	C119.927856,43.381371 119.992035,43.553543 120.171417,43.975418 
	C120.388779,44.377132 120.490921,44.529137 120.744858,44.910080 
	C120.896667,45.139023 120.952255,45.061710 120.908417,45.080276 
	C121.721413,45.828941 122.967583,46.114841 123.498947,47.656555 
	C124.050003,49.057186 124.878784,49.889099 125.621407,51.181541 
	C126.422470,52.861031 125.850800,54.604549 127.257767,56.112289 
	C127.483665,56.639030 127.545265,56.862312 127.726288,57.414444 
	C128.237427,58.613571 128.506012,59.512756 128.492188,60.835117 
	C128.499252,62.135185 128.504944,63.079338 128.490234,64.371902 
	C128.433487,67.222542 125.642220,68.981461 126.610535,72.101898 
	C126.651520,74.282486 125.027100,75.296165 124.314972,77.159622 
	C122.181732,80.333069 119.937065,82.967300 117.153137,85.590744 
	C116.549423,86.114189 116.153595,86.335312 115.418091,86.635483 
	C114.706940,86.960670 114.295311,87.129158 113.559311,87.367012 
	C112.603828,87.597282 111.984207,87.801193 111.070648,88.159966 
	C110.555527,88.344383 110.344444,88.406410 109.811325,88.548515 
	C109.078331,88.807503 108.668846,88.989784 107.928879,89.267967 
	C107.365318,89.379929 107.133476,89.398727 106.549713,89.401794 
	C104.543159,89.060577 102.888031,88.707298 100.909714,89.613365 
	C99.334312,90.087227 98.075233,89.975639 96.439545,89.951614 
	C93.495338,89.360519 90.906456,89.390785 87.930923,89.678146 
	C83.260361,90.130516 78.975876,89.742165 74.321106,89.517700 
z"/>
<path fill="#4BEC02" opacity="1.000000" stroke="none" 
	d="
M35.808552,164.253021 
	C34.232220,161.154037 33.862366,159.107254 37.384567,156.712479 
	C40.699310,154.458740 43.013126,150.701096 46.527210,148.495026 
	C48.437317,147.295898 49.907455,144.290344 53.156628,147.025009 
	C54.508961,148.163223 54.853168,146.088699 54.376114,145.012558 
	C52.642708,141.102371 53.978363,138.984009 58.058113,138.459824 
	C59.591980,138.262726 59.855644,137.260132 60.063137,136.075821 
	C60.396973,134.170395 61.397167,133.111389 63.470806,133.340805 
	C64.282600,133.430634 65.372932,133.545807 65.342934,132.366455 
	C65.192322,126.443726 71.398430,125.315155 73.895493,120.971169 
	C76.411400,120.197853 77.792976,121.417259 78.978195,123.483612 
	C78.922409,126.478958 77.868210,128.495941 75.742943,130.215866 
	C66.886574,137.383133 59.832417,146.352875 52.076950,154.598694 
	C48.136780,158.787994 43.263237,161.526810 39.040287,165.198547 
	C38.600376,165.581039 37.461845,165.160034 36.323032,165.053467 
	C35.871334,164.830048 35.744064,164.664993 35.808552,164.253021 
z"/>
<path fill="#EFF8EA" opacity="1.000000" stroke="none" 
	d="
M134.677917,56.117641 
	C134.671478,56.434029 134.842072,56.758236 134.991364,56.864365 
	C135.583511,57.504238 136.009949,58.050217 136.520569,58.954407 
	C136.659149,59.272072 137.001587,59.020382 136.829285,59.143272 
	C137.664474,59.430130 137.438873,60.342834 137.789368,61.324211 
	C138.021271,62.676537 138.354980,63.607769 138.864441,64.875107 
	C139.262985,66.958641 139.745621,68.663559 139.102112,70.671143 
	C138.804916,70.902473 138.622711,70.918945 138.536545,70.888199 
	C138.025803,71.846283 137.987320,72.891312 137.999969,74.250046 
	C137.997787,74.758194 137.996841,74.960243 137.992126,75.463013 
	C137.976166,76.166107 137.971603,76.568558 137.969803,77.275681 
	C137.929642,78.207100 137.754135,78.804680 137.550354,79.726669 
	C137.499527,80.781189 137.862030,81.311607 138.597900,82.039040 
	C138.835144,82.564354 138.884033,82.795341 138.950745,83.383591 
	C139.056961,84.972870 138.438248,86.106659 138.363434,87.682129 
	C137.714890,88.565018 137.068542,88.863243 135.947586,88.876541 
	C135.135284,88.691940 134.733093,88.453033 134.109177,87.912949 
	C132.517365,87.263397 131.099533,87.744286 129.476044,87.152359 
	C128.720947,86.978493 128.283646,86.919670 127.513641,86.922668 
	C126.964188,86.971535 126.743507,86.988060 126.190727,87.033188 
	C125.174194,87.167885 124.601913,87.549988 123.641205,87.890038 
	C122.579620,88.012383 121.866371,88.125450 120.781136,88.013786 
	C119.710297,87.531242 119.240822,86.948105 118.888084,85.823257 
	C119.130531,82.443611 122.173798,81.121437 123.337646,78.208313 
	C123.727272,77.718597 123.869858,77.512039 124.201805,76.977859 
	C124.521301,76.432297 124.651443,76.214340 125.027527,75.703064 
	C128.670914,70.141899 129.141693,64.404221 127.987816,58.411488 
	C127.926735,58.094292 127.659386,57.789974 127.678856,57.483376 
	C127.796692,55.627640 125.904968,53.215050 128.101700,52.037354 
	C130.366226,50.823299 131.967468,52.874500 133.440155,54.973679 
	C133.599808,55.328205 133.662949,55.307365 133.655151,55.339684 
	C134.096390,55.265331 134.442062,55.408409 134.677917,56.117641 
z"/>
<path fill="#DDFACF" opacity="1.000000" stroke="none" 
	d="
M135.098541,120.623474 
	C134.309326,121.156067 133.849670,121.396965 133.191254,121.806229 
	C132.260895,122.619949 131.450806,122.711731 130.399323,121.917633 
	C130.226776,121.517418 130.104004,121.202919 129.956085,121.121605 
	C128.791992,119.765038 129.072845,118.243156 128.986816,116.786446 
	C128.900558,115.325409 129.013901,113.463821 126.940773,113.554588 
	C125.044724,113.637596 125.596443,115.437637 125.506577,116.662598 
	C125.411064,117.964554 125.669647,119.286812 124.950409,120.714386 
	C124.614723,120.855270 124.733635,120.828667 124.716560,120.770187 
	C124.278870,122.968636 122.571411,123.077446 120.864410,122.814079 
	C119.025215,122.530312 117.950134,121.216255 117.662354,119.431305 
	C116.707123,113.506302 116.123299,107.579086 118.567734,101.357254 
	C119.139000,100.466850 119.406998,99.972488 119.825760,99.240356 
	C120.645233,98.384422 121.463211,98.515038 122.631439,98.709793 
	C123.001358,98.872520 123.365814,99.073479 123.573334,99.088821 
	C126.411179,100.660782 124.864578,103.880302 126.751022,106.036133 
	C127.464653,106.252182 127.892487,106.278954 128.637619,106.248779 
	C135.756882,107.537384 137.820190,112.044449 135.098541,120.623474 
z"/>
<path fill="#E4FAD9" opacity="1.000000" stroke="none" 
	d="
M46.404129,122.062469 
	C46.040512,121.442482 45.854221,121.222427 45.379471,120.988754 
	C42.119133,117.335953 44.024471,113.076347 43.566948,108.684479 
	C44.267010,106.145302 44.675354,104.033516 44.744026,101.418472 
	C44.932335,100.994522 45.091133,100.591370 45.107719,100.375366 
	C45.643730,98.528084 46.927303,98.419823 48.669754,98.760254 
	C49.008720,98.969955 49.011620,99.008812 49.023918,98.993484 
	C50.575188,103.799126 54.046913,106.064697 58.664936,108.047028 
	C63.253414,110.016655 63.226215,114.392059 59.427223,118.820236 
	C59.113564,119.078857 59.029469,119.062546 59.059586,119.093002 
	C58.478031,119.561783 58.179192,120.334763 57.237938,120.834702 
	C57.021465,121.017319 57.000851,120.998032 57.006042,121.010635 
	C54.810177,122.570000 51.993595,120.624573 49.445648,122.491936 
	C48.232517,122.922729 47.419758,122.896263 46.404129,122.062469 
z"/>
<path fill="#5FED1D" opacity="1.000000" stroke="none" 
	d="
M118.501068,100.960831 
	C118.942596,106.544075 119.047234,112.126770 119.074059,117.709846 
	C119.091721,121.386574 120.633263,122.550270 124.367638,120.821625 
	C124.958519,124.034508 122.457008,124.609352 120.495132,123.733147 
	C117.094376,122.214302 114.097565,123.314972 110.875298,123.801613 
	C108.480339,124.163315 105.778046,124.558327 104.283783,121.220009 
	C105.771751,118.204292 108.421722,119.929092 111.185539,119.198021 
	C108.350731,118.987991 106.251831,118.385056 104.591675,116.803001 
	C102.810501,115.105621 101.919838,113.016479 102.052429,110.547371 
	C102.284103,106.233078 105.527275,103.315018 110.394913,103.012573 
	C111.223015,102.961128 112.053993,103.032333 112.885262,102.969963 
	C113.969681,102.888603 114.699608,102.225174 115.668205,101.285431 
	C116.652405,101.013535 117.391769,100.987000 118.501068,100.960831 
z"/>
<path fill="#E5FBDA" opacity="1.000000" stroke="none" 
	d="
M115.602951,101.002960 
	C116.364868,104.461365 117.012154,107.878601 111.431389,105.569901 
	C108.814972,104.487511 106.463982,105.825752 104.950867,108.011360 
	C103.488136,110.124199 103.694321,112.554138 105.259857,114.547478 
	C106.947479,116.696251 109.327568,117.539124 111.936974,116.382736 
	C113.998337,115.469223 115.973831,114.883614 116.749603,117.582283 
	C117.541367,120.336548 115.034538,120.736862 113.215660,121.428795 
	C110.395439,122.501633 107.651939,121.959419 104.550903,120.906151 
	C104.155586,120.875557 104.196671,120.901833 104.194054,120.876556 
	C103.863556,120.766426 103.582672,120.601524 103.165894,120.190948 
	C102.982986,120.025322 102.999809,119.999489 102.988815,120.010635 
	C102.241386,119.283340 101.078461,119.114700 100.595901,117.868233 
	C100.692719,117.570030 100.677086,117.361839 100.585564,117.311630 
	C97.528938,116.482880 96.804977,114.521019 97.344810,111.685875 
	C97.705925,109.789322 97.335175,107.777145 98.263573,105.547546 
	C98.453369,104.909760 98.526680,104.655327 98.751953,104.036430 
	C99.325554,102.984077 99.991150,102.574394 100.964142,101.943329 
	C101.737976,101.507927 102.198189,101.295654 103.029518,100.993195 
	C106.241104,99.383301 109.287453,99.956055 112.664581,100.065094 
	C113.792305,100.383209 114.542580,100.674530 115.602951,101.002960 
z"/>
<path fill="#E3FAD7" opacity="1.000000" stroke="none" 
	d="
M33.281963,122.132446 
	C32.822971,121.574844 32.566658,121.416245 32.011684,121.374870 
	C30.643141,121.926056 30.189085,120.905884 29.332134,120.097610 
	C29.150446,119.803505 29.106236,119.882706 29.149298,119.868469 
	C25.952698,116.806068 25.119213,113.054367 26.992039,109.166862 
	C28.729883,105.559555 32.247898,105.160789 35.835258,105.847725 
	C38.125408,106.286270 40.374012,104.827530 42.588455,106.257416 
	C42.537758,106.682182 42.730785,106.722687 42.632019,106.721085 
	C43.150894,106.864159 43.566448,107.235573 43.858204,108.269180 
	C43.819134,112.547035 44.532837,116.422386 43.142639,120.544113 
	C42.832169,120.865524 42.956436,120.927841 42.905827,120.880188 
	C42.220795,122.515839 40.862110,123.129822 39.342316,122.522736 
	C37.356491,121.729500 35.478382,122.349930 33.281963,122.132446 
z"/>
<path fill="#D4FCBC" opacity="1.000000" stroke="none" 
	d="
M156.722931,105.796692 
	C157.049942,105.915375 157.429016,106.031120 157.622894,106.072182 
	C158.143982,106.247177 158.423447,106.447662 158.752502,106.957748 
	C159.534882,109.152885 160.474380,110.155571 162.224899,108.099571 
	C162.972580,107.221413 164.520386,105.793076 164.875015,106.378471 
	C168.277298,111.994675 171.694412,105.445435 175.081253,106.540703 
	C177.316498,107.263565 177.254257,105.283417 177.464020,103.853157 
	C177.714996,102.141685 177.138046,100.119621 179.620163,99.125786 
	C181.011978,106.161469 180.924667,113.278435 182.033966,120.688522 
	C178.680084,123.021561 177.809586,120.957413 177.440796,118.021263 
	C177.162872,115.808563 178.150345,113.419487 176.337280,110.910637 
	C174.292908,113.197342 173.734009,115.944427 172.578476,118.368362 
	C171.107803,121.453278 169.447601,124.095390 166.389557,119.617653 
	C164.963486,117.529541 164.015442,118.686729 162.894440,120.449081 
	C162.440247,120.871941 162.226929,120.985558 161.716217,120.894844 
	C160.434540,115.144295 162.083755,113.949059 169.648941,114.575241 
	C167.803207,114.464233 166.170593,113.158707 164.287277,113.561081 
	C162.352234,113.974495 160.519043,114.974297 158.131027,114.120110 
	C156.716751,113.081268 155.495102,112.396088 153.943008,111.537857 
	C152.738251,110.094177 152.926605,108.882713 153.866150,107.378235 
	C154.133926,107.093513 154.040756,107.025749 154.073914,107.072845 
	C154.638153,106.271210 155.473862,105.906075 156.722931,105.796692 
z"/>
<path fill="#DDFBCE" opacity="1.000000" stroke="none" 
	d="
M17.186487,119.700272 
	C16.931988,120.030312 16.775873,120.277222 16.806429,120.420052 
	C16.790195,121.010826 16.595116,121.380508 15.933792,121.745750 
	C15.615857,121.819565 15.280390,121.774323 15.131889,121.855530 
	C14.618482,122.372803 14.156412,122.539398 13.303355,122.176163 
	C12.602648,121.629425 12.195773,121.343063 11.559447,120.960251 
	C10.017007,114.145607 9.735901,107.439934 11.948086,100.474426 
	C12.322619,100.188927 12.691218,100.171272 12.843588,100.067215 
	C17.333191,98.264442 21.740574,98.849884 26.542084,99.838547 
	C26.932409,100.117981 26.952814,100.037369 26.920429,100.063446 
	C27.183233,100.209816 27.435921,100.389786 27.853275,100.738846 
	C28.060442,100.848259 28.051620,100.923996 28.089600,100.927330 
	C28.983969,102.071503 29.127645,103.310753 28.402723,104.945358 
	C27.950081,105.392662 27.734081,105.531868 27.149191,105.757210 
	C26.533993,105.822701 26.287685,105.802063 25.706287,105.639252 
	C23.646313,103.179939 21.455992,102.954849 18.914433,104.328903 
	C18.875324,104.932930 18.942125,105.269173 19.239719,105.811447 
	C19.550303,106.158600 19.693232,106.286545 20.086903,106.574295 
	C21.511717,107.465118 22.913631,107.163177 24.494755,107.754929 
	C26.995461,112.087440 26.538256,113.416458 22.019537,114.431190 
	C19.167080,115.071747 16.788166,115.688515 17.186487,119.700272 
z"/>
<path fill="#E5FAD8" opacity="1.000000" stroke="none" 
	d="
M182.473053,120.867836 
	C180.406769,120.633675 179.038055,119.694496 179.067947,117.724213 
	C179.158173,111.776871 178.235703,105.792358 179.825653,99.516937 
	C180.965927,98.924004 181.894180,98.906975 182.758728,100.265327 
	C182.885986,100.792404 182.979553,100.884209 182.933472,100.930817 
	C182.098465,103.074402 182.638580,105.240829 182.745239,107.679108 
	C183.724274,110.176254 184.859634,109.162697 185.889313,108.255539 
	C187.302872,107.010162 188.674164,106.394798 190.153275,108.122185 
	C191.450211,109.636826 190.821335,110.911324 189.568146,111.989616 
	C187.171478,114.051811 188.758423,115.339287 190.370438,116.698120 
	C191.620865,117.752182 192.406540,119.003899 191.193695,120.555450 
	C189.831635,122.297943 188.418365,121.661346 186.843491,120.683769 
	C185.606964,119.916222 184.121384,116.544174 182.473053,120.867836 
z"/>
<path fill="#EEF8E8" opacity="1.000000" stroke="none" 
	d="
M139.190033,120.134933 
	C139.003235,119.609383 138.868225,119.331139 138.399780,119.017502 
	C137.760590,118.634109 137.390106,118.288208 136.894547,117.549240 
	C136.358521,115.716324 136.663208,114.142845 136.077789,112.290985 
	C135.645752,109.969345 136.881378,109.110207 138.727081,108.246979 
	C139.064636,108.054291 139.006729,108.010345 139.022202,108.043228 
	C139.232971,107.794540 139.457230,107.538292 139.944809,107.203743 
	C140.179138,107.100052 140.086441,107.088181 140.082001,107.134697 
	C140.397766,106.687988 140.851929,106.442757 141.828003,106.313675 
	C143.770950,105.442398 145.372574,105.389870 147.387512,106.015793 
	C148.276291,106.378624 148.803772,106.518806 149.520752,106.968590 
	C149.693542,107.341049 150.003448,107.017868 149.849792,107.181847 
	C149.903168,107.402252 150.110199,107.458672 150.582184,107.700241 
	C151.202866,108.142014 151.539047,108.422287 152.102646,108.954987 
	C152.966797,110.866653 154.638199,112.164238 154.021210,114.551262 
	C153.406403,115.378937 152.757980,115.734688 152.524658,116.802429 
	C152.503555,117.617599 152.450760,118.078140 152.046555,118.713104 
	C151.748352,118.893639 151.870010,118.891441 151.866821,118.830688 
	C151.783051,119.122162 151.607056,119.417557 151.116867,119.805252 
	C150.898056,119.954376 150.965164,119.961411 150.958191,119.928406 
	C150.772293,120.191513 150.552185,120.453506 150.060791,120.791374 
	C149.825272,120.896866 149.911331,120.905334 149.913971,120.862183 
	C149.595337,121.313492 149.139786,121.559395 148.161438,121.690475 
	C146.227844,122.598557 144.587921,122.520851 142.541412,122.256256 
	C141.643005,121.923721 141.153870,121.674950 140.378723,121.118706 
	C140.081146,120.834007 140.088394,120.915482 140.128967,120.910370 
	C139.848465,120.782745 139.577499,120.589821 139.190033,120.134933 
z"/>
<path fill="#DDF8CF" opacity="1.000000" stroke="none" 
	d="
M89.427986,122.142120 
	C89.095543,121.832886 88.884804,121.624580 88.736656,121.623016 
	C88.166718,121.774979 87.778381,121.722610 87.226242,121.187531 
	C87.023895,120.942070 86.921829,120.940453 86.919823,120.991455 
	C85.668724,120.088676 83.890007,119.881714 82.909485,117.950180 
	C82.355461,115.446632 82.510880,113.295761 82.647293,110.750458 
	C83.249115,108.537155 85.151886,108.429863 86.690994,107.231972 
	C87.030930,107.020554 87.000221,107.053238 87.021927,107.058899 
	C88.760086,105.019150 91.124954,105.579880 93.695969,105.501389 
	C94.302017,105.507751 94.542618,105.513107 95.138260,105.561333 
	C97.357941,106.215355 98.649338,108.105957 97.835068,109.359299 
	C95.588814,112.816765 97.800438,116.148956 97.142281,119.722198 
	C96.891884,119.962959 96.959404,119.954994 96.946548,119.923523 
	C96.794861,120.202484 96.587616,120.457260 96.128784,120.824364 
	C95.416359,121.165771 94.887093,121.339195 94.145065,121.693535 
	C92.684898,123.102394 91.274864,123.154358 89.427986,122.142120 
z"/>
<path fill="#62E923" opacity="1.000000" stroke="none" 
	d="
M125.867859,86.228424 
	C126.119301,86.092026 126.572235,86.044975 126.779007,85.949654 
	C127.408981,85.604210 127.867073,85.506149 128.683228,85.689285 
	C130.382248,86.239578 131.753464,86.640656 133.483322,87.063965 
	C134.011993,87.216576 134.182037,87.346962 134.039612,87.868683 
	C129.885788,87.758560 126.111244,87.844093 122.425919,89.267548 
	C120.194763,90.129333 117.884689,89.891975 115.535835,89.649422 
	C113.194664,89.407669 110.531830,88.714287 109.377113,92.022789 
	C108.606895,94.229622 107.565536,92.388542 106.940407,91.881432 
	C104.948387,90.265488 102.863701,90.280952 100.400192,90.530090 
	C91.719055,91.408035 83.010246,91.718826 74.161308,89.652008 
	C78.346878,89.229156 82.740158,89.113976 87.548195,88.945572 
	C90.339905,88.104836 92.779320,88.636787 95.612625,88.720001 
	C97.407379,88.926422 98.778954,88.963081 100.558899,88.943077 
	C102.240822,88.174316 103.627792,88.633263 105.279999,88.500031 
	C106.423660,88.469025 107.256500,88.593369 108.285118,88.125793 
	C108.612160,87.769821 108.712852,87.602051 109.077423,87.305763 
	C109.341293,87.177254 109.685074,87.196556 109.837921,87.117340 
	C110.114929,86.921738 110.239090,86.805351 110.614868,86.645752 
	C111.195465,86.690750 111.527641,86.764366 112.113945,86.770988 
	C112.516510,86.644051 112.668625,86.567360 113.036316,86.353264 
	C113.376106,86.099091 113.500328,85.982315 113.860634,85.767250 
	C114.444099,85.433372 114.791481,85.197800 115.444595,84.877441 
	C116.417046,84.399422 116.907730,84.732735 117.546158,85.417557 
	C118.433601,86.674187 119.462883,87.160995 120.949280,87.308823 
	C121.934242,87.151733 122.618362,87.069946 123.633881,86.891418 
	C124.481316,86.519478 125.066719,86.510696 125.867859,86.228424 
z"/>
<path fill="#64E925" opacity="1.000000" stroke="none" 
	d="
M17.159742,119.755432 
	C16.072199,116.110664 16.496080,113.469116 21.647772,113.586189 
	C24.708603,113.655746 26.149622,111.829460 23.404890,108.689049 
	C21.585798,108.496193 20.096148,108.538818 18.278362,108.270607 
	C17.948305,108.098198 17.903349,108.116028 17.885529,108.099686 
	C17.155560,104.736237 19.539398,104.146851 22.356436,103.536194 
	C23.720844,103.518272 24.577320,103.706161 25.651733,104.589203 
	C25.998428,104.871391 25.743250,105.011337 25.809326,105.140991 
	C26.107914,105.571999 26.384226,105.636444 26.859863,105.218460 
	C28.341591,104.225990 28.161491,102.928902 28.130259,101.306839 
	C30.023449,104.207466 33.099018,104.811096 36.563915,104.939331 
	C38.443428,105.008896 40.563927,104.382790 42.370255,106.329681 
	C39.610161,106.646790 36.668022,106.409409 33.758060,106.618919 
	C28.059097,107.029259 25.901541,112.933723 29.131016,119.492538 
	C28.173409,119.747429 27.265593,119.423820 26.657841,118.532448 
	C25.705671,117.135925 26.442951,114.252525 23.128347,114.955391 
	C20.367287,115.540848 18.060852,116.390259 17.159742,119.755432 
z"/>
<path fill="#78E643" opacity="1.000000" stroke="none" 
	d="
M133.624023,54.971725 
	C131.809586,54.599651 130.916504,52.263088 128.041580,52.550430 
	C130.835556,60.773510 130.902222,68.841927 126.356918,76.810898 
	C125.807579,77.263855 125.522392,77.489273 125.206390,78.020035 
	C125.144669,78.286766 125.220535,78.230080 125.246971,78.269363 
	C124.417763,78.542068 123.585121,78.665916 122.939926,77.394394 
	C123.584557,75.556023 124.244873,74.145363 124.960098,72.402496 
	C124.674606,69.721451 126.432747,67.870865 126.671684,65.280014 
	C126.859138,63.895767 126.919174,62.860840 126.918289,61.440937 
	C126.317619,60.188122 126.606506,59.177563 126.383286,57.896957 
	C126.391342,57.537315 126.387886,57.192997 126.309265,57.039829 
	C124.559227,55.788643 124.854073,53.895061 124.334518,51.949020 
	C123.845749,50.613888 123.402405,49.642345 122.931816,48.350815 
	C123.082787,47.842052 123.260994,47.653278 123.722855,47.731293 
	C125.646584,49.823708 128.080322,49.928883 130.139557,50.848869 
	C131.812378,51.596230 133.302658,52.593822 133.624023,54.971725 
z"/>
<path fill="#E9FBDE" opacity="1.000000" stroke="none" 
	d="
M62.744614,107.424271 
	C63.155041,106.935402 63.307285,106.862114 63.705498,106.727676 
	C67.412354,105.994926 70.878906,104.572746 74.672699,107.011253 
	C75.643005,108.018700 75.699715,108.856041 75.259468,110.120392 
	C74.645836,111.022575 74.123306,111.528748 73.462120,111.540665 
	C69.408180,111.613754 68.633072,114.076263 68.972900,117.472702 
	C69.069923,118.442383 69.014122,119.450157 68.168823,120.620926 
	C67.886871,120.910690 67.983643,120.974953 67.945343,120.931259 
	C66.656281,122.131523 65.188873,122.091980 63.296604,121.309982 
	C62.899166,120.586494 62.851364,120.159760 62.736145,119.418114 
	C61.367908,115.368820 60.957539,111.620026 62.744614,107.424271 
z"/>
<path fill="#84F54E" opacity="1.000000" stroke="none" 
	d="
M72.388374,162.618591 
	C67.722343,163.183319 63.453056,163.130966 59.148624,162.692673 
	C56.143005,162.386612 54.668320,160.244110 55.149956,158.124329 
	C55.735573,155.546967 58.103958,157.444580 59.652756,157.828079 
	C62.940125,158.642075 66.153519,158.978485 69.622940,157.211548 
	C71.007103,158.086838 72.648155,157.701233 73.563179,158.631058 
	C75.077332,160.169708 75.520493,161.741348 72.388374,162.618591 
z"/>
<path fill="#D3FDBD" opacity="1.000000" stroke="none" 
	d="
M103.977570,36.493744 
	C100.226402,38.741329 96.189575,37.614254 92.260826,37.827625 
	C89.891891,37.956287 87.546974,37.799866 86.016327,40.629116 
	C84.911003,40.684322 84.215813,41.151745 83.161835,41.210777 
	C82.070641,41.246445 81.271523,41.234222 80.141907,41.158070 
	C78.399277,40.848366 76.882164,41.276493 75.295090,40.173866 
	C74.974091,39.608688 74.841553,39.346954 74.445786,39.001476 
	C73.735542,36.470119 75.279938,35.161976 77.165352,35.190128 
	C86.084152,35.323280 95.063110,33.859550 103.977570,36.493744 
z"/>
<path fill="#62E923" opacity="1.000000" stroke="none" 
	d="
M104.405884,36.937866 
	C95.104462,35.189358 86.086884,36.474247 77.110161,36.259808 
	C75.862694,36.230011 74.982979,37.012184 74.392197,38.537949 
	C72.656822,36.519855 73.596230,34.368622 76.997894,34.286545 
	C85.749756,34.075382 94.561455,33.172287 103.250633,34.909241 
	C105.778328,35.414520 108.569061,35.357658 110.891464,37.507084 
	C110.933243,38.044476 110.809402,38.266697 110.329315,38.352142 
	C109.973068,38.215359 109.540039,38.010361 109.301857,37.984772 
	C108.609612,37.565769 108.042542,37.508556 107.219193,37.324883 
	C106.227646,37.117626 105.500229,37.013439 104.405884,36.937866 
z"/>
<path fill="#73ED39" opacity="1.000000" stroke="none" 
	d="
M72.427902,162.782837 
	C75.692276,159.510529 70.692947,159.435486 70.097351,157.448334 
	C74.349152,156.331177 78.517426,158.100708 82.831696,158.213882 
	C84.799522,158.265518 86.442062,159.971970 86.131279,161.862778 
	C85.830460,163.692978 83.648346,162.905060 82.280098,162.937057 
	C79.137474,163.010559 75.990433,162.894791 72.427902,162.782837 
z"/>
<path fill="#6AE42E" opacity="1.000000" stroke="none" 
	d="
M97.182892,119.726051 
	C96.967575,117.062973 95.802185,115.559044 92.700562,116.247635 
	C90.551941,116.724655 88.890984,116.119514 89.038925,113.712936 
	C89.178810,111.437447 91.046631,111.441711 92.777428,111.857018 
	C94.367546,112.238564 95.790421,112.132149 96.621422,110.566322 
	C97.560471,108.796944 96.340050,107.841980 94.790863,106.760803 
	C95.991455,104.876167 97.119270,102.624718 100.241692,104.079773 
	C98.584984,108.475250 98.174606,112.493958 100.360962,116.914978 
	C99.487335,118.004005 98.480621,118.746574 97.182892,119.726051 
z"/>
<path fill="#71E838" opacity="1.000000" stroke="none" 
	d="
M62.771141,106.974411 
	C62.971100,110.737373 62.939407,114.466064 62.788223,118.648972 
	C61.721111,119.094627 60.773487,119.086060 59.469715,119.078171 
	C62.093319,111.471451 60.691196,108.812546 52.357819,106.797272 
	C50.848125,106.432190 50.537029,105.658318 50.452301,104.443932 
	C50.337761,102.802368 50.364922,101.135414 49.240601,99.321762 
	C50.584934,99.090584 51.212486,100.120575 51.741493,101.438934 
	C53.289833,105.297585 57.949406,107.624947 62.771141,106.974411 
z"/>
<path fill="#7CF542" opacity="1.000000" stroke="none" 
	d="
M136.174393,157.836441 
	C139.732895,158.004761 142.845978,159.545975 146.214249,157.848785 
	C147.674225,157.113113 150.414169,157.357712 150.666290,160.260437 
	C150.905655,163.016403 148.657974,162.584839 146.960129,163.075089 
	C142.584244,164.338654 139.626251,160.781082 135.482727,160.095749 
	C134.241318,158.978622 134.495560,158.150345 136.174393,157.836441 
z"/>
<path fill="#71E838" opacity="1.000000" stroke="none" 
	d="
M68.232674,120.787613 
	C67.881927,119.758659 68.025597,118.582886 67.845955,117.458778 
	C67.122620,112.932579 68.949638,110.653961 73.795052,110.369736 
	C76.808205,109.594177 77.138763,111.641891 77.437073,113.542084 
	C77.685623,115.125389 77.655792,116.755264 78.949661,118.359131 
	C79.548721,118.932442 79.920731,119.231483 80.612450,119.724365 
	C81.092010,120.116722 81.264465,120.299644 81.604546,120.824478 
	C81.951035,121.951752 81.832527,122.684799 81.051056,123.550552 
	C80.339806,123.760513 79.963715,123.780098 79.306870,123.821838 
	C77.574615,122.934830 76.123108,122.025673 74.412331,120.920654 
	C74.152832,119.069321 74.211258,117.411064 74.133224,115.759262 
	C74.074211,114.510208 74.369415,112.843170 72.312691,112.940369 
	C70.723625,113.015472 70.129372,114.153877 69.909332,115.616913 
	C69.649918,117.341721 70.395332,119.347740 68.232674,120.787613 
z"/>
<path fill="#60E91F" opacity="1.000000" stroke="none" 
	d="
M75.300446,108.352463 
	C71.790596,105.889168 68.177299,107.387642 64.381813,106.810730 
	C66.974106,103.604187 70.733086,104.348557 74.406120,104.689751 
	C74.293694,98.387177 74.972969,97.707504 80.673569,98.893600 
	C80.217514,100.722015 78.565956,101.838135 78.530075,104.151077 
	C78.480362,104.992897 78.434914,105.479797 78.270180,106.337723 
	C77.659264,107.740952 76.847504,108.339935 75.300446,108.352463 
z"/>
<path fill="#5FED1D" opacity="1.000000" stroke="none" 
	d="
M138.666061,108.033447 
	C138.494843,109.156342 137.925064,110.258392 137.308685,111.669495 
	C137.730240,113.479225 137.350555,115.038116 137.687622,116.922966 
	C137.911652,117.648453 138.024429,118.006409 138.159180,118.645370 
	C137.234039,119.476357 136.286911,120.026337 135.054382,120.745743 
	C134.628799,115.549637 136.526611,109.431969 129.222534,106.401688 
	C132.590286,104.081955 134.817383,109.174866 138.666061,108.033447 
z"/>
<path fill="#62E923" opacity="1.000000" stroke="none" 
	d="
M82.694580,39.741440 
	C83.715141,40.209633 84.428986,40.464523 85.422791,40.779350 
	C85.407997,40.966614 85.204102,41.180546 85.008896,41.692425 
	C84.746078,42.197041 84.522766,42.453732 84.036133,42.799973 
	C83.045265,43.536755 82.280708,44.152267 81.291039,44.960480 
	C80.629929,45.451328 80.147827,45.600601 79.251495,45.486145 
	C75.594528,45.336597 72.305717,45.301910 68.574402,45.337624 
	C67.909981,45.429821 67.688042,45.451611 67.230972,45.235489 
	C70.681351,42.774727 75.044724,45.050217 78.922218,43.329819 
	C78.399986,41.274582 75.741554,42.353977 75.134132,40.233978 
	C76.749657,40.010891 78.470734,40.111843 80.604782,40.083618 
	C81.416092,39.624733 81.875473,39.491272 82.694580,39.741440 
z"/>
<path fill="#62E923" opacity="1.000000" stroke="none" 
	d="
M85.171326,84.724365 
	C84.301430,85.120567 83.571899,85.185860 82.482857,85.321510 
	C81.336121,85.747932 80.528290,85.937454 79.272629,85.545517 
	C77.229889,85.355713 75.581627,85.316040 73.525040,85.335678 
	C71.341698,86.139702 69.535713,86.160797 67.352234,85.330551 
	C68.142464,83.540825 70.517624,84.584366 71.649994,82.539749 
	C71.862045,82.017395 71.960320,81.787720 72.354187,81.327255 
	C73.651512,80.668320 74.593452,80.750114 75.756638,81.662277 
	C78.058891,82.009819 80.070145,82.121773 82.512794,82.253601 
	C84.385612,82.251701 85.157730,82.977402 85.171326,84.724365 
z"/>
<path fill="#D3FEBB" opacity="1.000000" stroke="none" 
	d="
M74.785896,108.471527 
	C75.580986,107.794960 76.254303,107.337669 77.166496,106.682922 
	C77.619995,105.360344 78.427788,105.425072 79.580765,105.826309 
	C80.373970,106.572098 80.855217,107.048058 81.562851,107.776405 
	C81.711517,108.261024 81.633797,108.493248 81.325134,109.010292 
	C79.021873,110.582664 79.625122,112.672142 79.490189,114.557175 
	C79.354393,116.454117 79.987289,118.474564 78.374969,120.438400 
	C75.178116,120.790367 76.378922,118.510498 76.287529,117.232361 
	C76.115929,114.832588 76.453354,112.375793 74.389526,110.190132 
	C74.235680,109.597046 74.449898,109.143929 74.785896,108.471527 
z"/>
<path fill="#4BE802" opacity="1.000000" stroke="none" 
	d="
M100.531822,104.481155 
	C98.488258,104.246849 97.187492,106.078415 94.935776,106.398788 
	C94.548347,106.528572 94.446304,106.553528 94.429840,106.503647 
	C94.320320,106.181587 94.227272,105.909416 94.504196,105.415253 
	C94.097351,99.481567 95.627525,98.394157 102.718613,99.968002 
	C103.388283,100.446281 103.498840,100.889046 103.188370,101.641205 
	C102.832596,102.205414 102.654549,102.462303 102.196747,102.767960 
	C101.356964,102.985603 100.854729,103.303658 100.509026,104.106636 
	C100.551735,104.409172 100.561913,104.471603 100.531822,104.481155 
z"/>
<path fill="#4AED01" opacity="1.000000" stroke="none" 
	d="
M179.642792,19.980827 
	C180.000000,20.005493 179.999390,20.500404 179.999084,20.747799 
	C178.928085,22.585468 179.988220,24.537321 179.292557,26.625587 
	C176.550156,25.119543 173.437592,23.802078 174.033127,20.738838 
	C174.501587,18.329201 177.423615,19.921204 179.642792,19.980827 
z"/>
<path fill="#4AED01" opacity="1.000000" stroke="none" 
	d="
M35.642933,19.980831 
	C36.000153,20.005493 35.999512,20.500404 35.999214,20.747799 
	C35.761490,22.726084 35.524059,24.456974 35.231205,26.591902 
	C32.550182,25.119511 29.437511,23.802158 30.033155,20.738794 
	C30.501692,18.329144 33.423717,19.921246 35.642933,19.980831 
z"/>
<path fill="#4AED01" opacity="1.000000" stroke="none" 
	d="
M179.642792,163.980820 
	C180.000000,164.005493 179.999390,164.500366 179.999084,164.747742 
	C179.761429,166.726013 179.524078,168.456924 179.231308,170.591919 
	C176.550156,169.119568 173.437576,167.802139 174.033096,164.738861 
	C174.501556,162.329163 177.423615,163.921188 179.642792,163.980820 
z"/>
<path fill="#4AED01" opacity="1.000000" stroke="none" 
	d="
M35.643574,163.981384 
	C36.000305,164.006104 35.999462,164.500671 35.999035,164.747894 
	C35.760471,166.725250 35.522339,168.455399 35.235207,170.541519 
	C32.488266,169.336914 29.962172,167.919724 30.589933,164.888809 
	C31.116165,162.348099 33.629688,164.022385 35.643574,163.981384 
z"/>
<path fill="#79F33C" opacity="1.000000" stroke="none" 
	d="
M107.233536,162.771667 
	C104.431740,162.906723 100.486725,162.919159 100.819618,160.073624 
	C101.267952,156.241394 105.021370,159.377319 107.634781,158.924805 
	C108.661018,159.734222 108.597435,160.590286 108.095764,161.753937 
	C107.765221,162.200607 107.615715,162.366013 107.233536,162.771667 
z"/>
<path fill="#5FED1D" opacity="1.000000" stroke="none" 
	d="
M124.901077,120.615028 
	C124.651283,118.733658 124.626663,116.608597 124.746162,114.491669 
	C124.824318,113.107399 125.322861,111.878563 127.009163,111.819176 
	C128.682266,111.760254 129.323669,112.966217 129.487625,114.309738 
	C129.724030,116.246948 129.710999,118.214607 129.806274,120.604782 
	C127.009903,119.956726 128.765930,116.786758 126.872322,114.569252 
	C126.220085,116.816605 125.703758,118.595695 124.901077,120.615028 
z"/>
<path fill="#76F23B" opacity="1.000000" stroke="none" 
	d="
M121.801437,159.165344 
	C122.526474,158.792236 123.021461,158.796982 123.511856,158.751877 
	C125.437157,158.574860 127.537033,157.836533 128.683487,160.251053 
	C129.033752,160.988754 129.380066,161.983887 128.500504,162.470612 
	C126.352287,163.659378 124.390717,163.058487 122.363235,161.268616 
	C121.667412,160.630890 121.501259,160.113174 121.801437,159.165344 
z"/>
<path fill="#79F141" opacity="1.000000" stroke="none" 
	d="
M121.662216,158.813889 
	C122.036072,159.313675 122.038544,159.816956 122.054382,160.696838 
	C122.067749,161.073441 122.054092,161.032608 122.059067,161.042633 
	C120.526184,162.632401 118.283783,161.492538 116.297852,162.684265 
	C114.616890,162.890625 113.228165,162.883453 111.434715,162.767029 
	C110.862778,162.481415 110.695572,162.305084 110.436752,161.775787 
	C110.378281,161.182037 110.411407,160.941254 110.623131,160.382874 
	C111.730263,159.035126 112.902245,158.990936 114.509232,159.224030 
	C115.299187,159.129028 115.726395,159.049423 116.478233,158.939392 
	C117.052719,158.802338 117.302582,158.695724 117.940002,158.714981 
	C119.315315,158.833038 120.303078,158.825211 121.662216,158.813889 
z"/>
<path fill="#64E925" opacity="1.000000" stroke="none" 
	d="
M26.722996,99.793930 
	C22.591417,100.127304 18.250423,100.136627 13.452694,100.054550 
	C17.385630,96.614365 21.931494,97.545738 26.722996,99.793930 
z"/>
<path fill="#63E424" opacity="1.000000" stroke="none" 
	d="
M43.222519,120.890434 
	C42.843220,116.886490 42.854271,112.907463 42.915497,108.469460 
	C43.349312,107.626602 43.809185,107.476921 44.654957,107.783478 
	C45.042751,112.000565 45.120880,115.995628 45.187870,120.446625 
	C44.655441,120.906830 44.134155,120.911087 43.222519,120.890434 
z"/>
<path fill="#D3FDBD" opacity="1.000000" stroke="none" 
	d="
M77.419235,104.167404 
	C75.380989,100.508446 76.164192,98.744431 80.576019,99.104782 
	C81.493729,100.498375 81.907471,101.866196 80.957718,103.552292 
	C79.940353,104.771072 78.909424,104.959572 77.419235,104.167404 
z"/>
<path fill="#76E63F" opacity="1.000000" stroke="none" 
	d="
M152.602615,115.315735 
	C152.974991,112.969772 152.503433,111.175697 150.998718,109.333458 
	C150.676376,108.872681 150.585312,108.682495 150.213867,108.345947 
	C149.933472,108.199600 149.730118,107.796196 149.713135,107.571007 
	C150.966064,107.305092 152.235992,107.264359 153.819916,107.158569 
	C154.281311,108.235100 154.428696,109.376694 154.823273,110.767426 
	C155.615662,111.401680 156.240631,111.683327 156.804657,112.541451 
	C157.188339,113.492836 157.326233,114.152092 157.048935,115.157219 
	C156.751678,115.637825 156.594757,115.804893 156.110458,116.076981 
	C155.113861,116.123528 154.444626,116.065056 153.438736,116.038696 
	C152.897354,115.935654 152.692642,115.800499 152.602615,115.315735 
z"/>
<path fill="#64E925" opacity="1.000000" stroke="none" 
	d="
M11.936793,100.282990 
	C10.028470,106.670479 11.541109,113.354988 11.299683,120.404083 
	C11.024826,120.759933 10.456170,120.665283 10.452168,120.550888 
	C10.215888,113.795029 8.488461,106.950920 11.936793,100.282990 
z"/>
<path fill="#8DFA57" opacity="1.000000" stroke="none" 
	d="
M96.676765,161.790741 
	C94.432884,161.951752 92.480415,161.951752 90.472916,161.951752 
	C90.277184,160.072266 90.901260,157.841858 92.291359,157.763184 
	C94.452377,157.640839 96.154221,159.411804 96.676765,161.790741 
z"/>
<path fill="#62E923" opacity="1.000000" stroke="none" 
	d="
M76.420135,53.820183 
	C75.814758,55.481529 75.386795,56.860596 74.972244,58.606125 
	C74.838425,59.083252 74.691177,59.193909 74.149078,59.027321 
	C73.996841,55.828804 74.409164,52.895668 73.051163,49.709633 
	C74.248657,49.308926 75.543007,49.278114 77.226494,49.304829 
	C77.872787,49.404064 78.129944,49.445774 78.040756,49.668465 
	C77.694427,49.849449 77.535324,50.136044 77.561279,50.297874 
	C77.855606,51.678120 77.034637,52.546299 76.420135,53.820183 
z"/>
<path fill="#62E923" opacity="1.000000" stroke="none" 
	d="
M74.956360,64.683998 
	C74.937698,65.483482 74.936661,65.909737 75.015800,66.646576 
	C75.644135,68.012550 75.715622,69.188095 75.942024,70.674698 
	C76.019783,71.453568 76.100227,71.881645 76.159958,72.635803 
	C73.036308,68.828041 71.570267,64.345757 73.482193,58.976181 
	C73.754219,58.750076 74.011856,58.994194 74.141190,59.115707 
	C75.392036,60.805412 74.878014,62.600376 74.956360,64.683998 
z"/>
<path fill="#4BEC02" opacity="1.000000" stroke="none" 
	d="
M80.975838,123.927109 
	C80.783165,123.049110 80.850433,122.357307 80.959381,120.972610 
	C81.205482,119.285049 81.949417,118.747269 83.378677,118.031204 
	C84.891975,118.714828 85.755463,119.606812 86.768379,120.770622 
	C84.553650,121.196129 84.280899,125.219597 80.975838,123.927109 
z"/>
<path fill="#62E923" opacity="1.000000" stroke="none" 
	d="
M119.189209,44.095108 
	C118.972626,43.564102 118.787918,43.311756 118.264938,43.060593 
	C117.810608,42.767487 117.581444,42.556374 117.154251,42.220657 
	C116.518135,41.720055 116.078957,41.345234 115.356735,40.894844 
	C113.895203,40.904251 113.396217,39.764412 112.231514,39.199810 
	C111.984612,39.020107 111.999084,38.999542 111.989540,39.009262 
	C111.779472,38.902214 111.578941,38.785446 111.582382,38.386635 
	C116.240982,38.153774 119.650909,39.720131 120.908752,44.766689 
	C120.896667,45.139023 120.436096,45.112255 120.210579,45.063766 
	C119.788170,44.755703 119.570854,44.514534 119.189209,44.095108 
z"/>
<path fill="#6AE42E" opacity="1.000000" stroke="none" 
	d="
M103.334137,101.777946 
	C102.972221,101.491913 102.996048,101.078445 103.058228,100.356857 
	C103.944420,99.805992 104.792244,99.563240 105.950562,99.199181 
	C106.847900,98.403214 107.581268,98.288712 108.740433,98.728142 
	C110.221222,99.168083 111.365936,99.397156 112.776337,99.859062 
	C110.207626,102.244209 106.609367,99.827805 103.334137,101.777946 
z"/>
<path fill="#D6FCC1" opacity="1.000000" stroke="none" 
	d="
M66.902237,85.134323 
	C68.753319,85.082962 70.508125,85.131477 72.689819,85.287491 
	C72.196960,87.481117 69.246712,86.166176 68.199440,88.555496 
	C67.921188,89.028664 67.771454,89.200310 67.285072,89.313599 
	C66.948425,89.255226 66.560509,89.031792 66.341179,88.987114 
	C65.142624,87.945610 64.952560,86.846138 66.110016,85.442062 
	C66.529541,85.258156 66.805954,85.234192 66.902237,85.134323 
z"/>
<path fill="#78E643" opacity="1.000000" stroke="none" 
	d="
M137.276505,62.085739 
	C136.982758,61.147263 136.810287,60.528355 136.647400,59.587807 
	C140.233948,62.302902 140.293716,66.177582 139.046051,70.604385 
	C138.592758,69.177177 138.380585,67.451889 138.057968,65.371017 
	C137.275299,64.248383 137.612015,63.268822 137.276505,62.085739 
z"/>
<path fill="#64E925" opacity="1.000000" stroke="none" 
	d="
M33.291603,122.091377 
	C35.966351,120.383141 39.196712,122.087921 42.521423,120.938065 
	C40.507248,125.932899 36.752739,122.370804 33.291603,122.091377 
z"/>
<path fill="#97FB5F" opacity="1.000000" stroke="none" 
	d="
M136.491882,157.778687 
	C135.717239,158.230560 135.276489,158.755463 135.121887,159.841873 
	C134.946121,160.731766 134.811295,161.849854 134.617996,161.860062 
	C132.798996,161.956055 133.513336,160.369507 133.244034,159.477463 
	C132.930939,158.440338 132.402222,157.066971 134.214584,156.880798 
	C134.933121,156.806992 135.708450,157.286194 136.491882,157.778687 
z"/>
<path fill="#5FED1D" opacity="1.000000" stroke="none" 
	d="
M140.213242,121.175430 
	C140.476059,120.888145 140.870972,120.942284 141.563721,121.039375 
	C143.387695,121.882889 145.032730,121.336914 146.961197,121.509560 
	C147.535004,121.556259 147.762604,121.595474 148.117188,121.956993 
	C145.334122,124.896057 142.679001,124.871590 140.213242,121.175430 
z"/>
<path fill="#62E923" opacity="1.000000" stroke="none" 
	d="
M76.236374,73.704041 
	C76.726173,73.813171 77.058815,74.254387 77.591003,74.896095 
	C78.390053,75.342850 78.707397,75.805878 78.777512,76.724869 
	C78.740028,77.019684 78.697365,77.352280 78.726540,77.517380 
	C77.653107,79.180763 75.863472,78.453117 74.080887,78.910637 
	C73.470695,78.668755 73.248558,78.521797 72.871826,78.006454 
	C73.566055,76.183693 75.572632,75.809944 76.236374,73.704041 
z"/>
<path fill="#5FED1D" opacity="1.000000" stroke="none" 
	d="
M126.963455,105.836967 
	C125.598572,107.158096 124.968483,106.423164 124.746597,105.055450 
	C124.464867,103.318916 124.259972,101.569916 123.901413,99.465225 
	C127.056694,100.121452 125.724106,103.397240 126.963455,105.836967 
z"/>
<path fill="#5FED1D" opacity="1.000000" stroke="none" 
	d="
M141.893860,106.038460 
	C143.546707,103.613708 145.527969,103.437019 147.734528,105.753296 
	C146.347733,106.613441 144.904083,106.454720 143.106934,106.490959 
	C142.510864,106.445190 142.274323,106.406540 141.893860,106.038460 
z"/>
<path fill="#71E838" opacity="1.000000" stroke="none" 
	d="
M62.834988,121.265709 
	C64.322365,121.429733 65.698616,121.555283 67.491928,120.956482 
	C66.460548,123.411949 64.770027,123.930344 62.834988,121.265709 
z"/>
<path fill="#76F23B" opacity="1.000000" stroke="none" 
	d="
M116.400826,162.920776 
	C117.112228,160.463715 119.325523,161.133179 121.662567,161.038208 
	C120.956078,163.488235 118.723213,162.790207 116.400826,162.920776 
z"/>
<path fill="#6AE42E" opacity="1.000000" stroke="none" 
	d="
M94.460968,105.148880 
	C94.810295,105.407974 94.746407,105.622696 94.547943,106.145584 
	C92.168427,106.142868 89.952667,106.196182 87.419724,107.024429 
	C88.640831,103.775780 91.604393,105.369576 94.460968,105.148880 
z"/>
<path fill="#60E91F" opacity="1.000000" stroke="none" 
	d="
M86.692886,107.051041 
	C86.233604,107.914108 85.436287,108.807671 84.395615,109.879791 
	C83.746399,110.373390 83.304741,110.625809 82.444946,110.840149 
	C81.817261,110.793182 81.571976,110.721771 81.028290,110.409973 
	C80.484642,109.700661 80.415955,109.207161 80.726959,108.364326 
	C80.930061,108.039566 81.359673,108.037056 81.574463,108.032928 
	C83.311119,107.713043 84.832985,107.397293 86.692886,107.051041 
z"/>
<path fill="#6AE42E" opacity="1.000000" stroke="none" 
	d="
M89.195114,122.158371 
	C90.438576,121.827118 91.781601,121.821350 93.528473,121.845016 
	C92.702721,124.484520 91.131989,124.498451 89.195114,122.158371 
z"/>
<path fill="#76F23B" opacity="1.000000" stroke="none" 
	d="
M114.600342,159.002136 
	C113.777031,159.713074 112.682098,160.217545 111.302643,160.850876 
	C110.334244,160.701630 109.966354,160.171005 109.803162,159.131226 
	C111.306534,158.023895 112.818008,157.874527 114.600342,159.002136 
z"/>
<path fill="#62E923" opacity="1.000000" stroke="none" 
	d="
M71.871185,82.136131 
	C69.713661,80.622902 69.597450,79.145935 72.407150,77.753067 
	C72.717224,77.638069 72.862457,77.828171 72.936577,77.922058 
	C73.735367,79.186920 73.633263,80.277115 72.442513,81.544487 
	C72.193817,81.803757 71.978584,82.025200 71.871185,82.136131 
z"/>
<path fill="#79F141" opacity="1.000000" stroke="none" 
	d="
M109.498810,158.816284 
	C110.142242,159.320374 110.489868,159.848282 110.927811,160.677963 
	C111.018127,160.979752 110.997864,161.002594 110.987991,161.013565 
	C110.049278,161.902542 108.989861,162.477829 107.367569,162.237732 
	C107.293976,161.197601 107.523598,160.370865 107.885910,159.247269 
	C108.413399,158.913635 108.808197,158.876862 109.498810,158.816284 
z"/>
<path fill="#64E925" opacity="1.000000" stroke="none" 
	d="
M45.051517,107.573364 
	C44.520390,108.005104 44.076160,108.004700 43.298801,108.007401 
	C42.749317,107.773582 42.601124,107.499779 42.527176,106.954285 
	C43.959091,105.328041 43.839787,103.328438 44.730984,101.320923 
	C45.001026,103.043419 45.069721,105.092316 45.051517,107.573364 
z"/>
<path fill="#64E925" opacity="1.000000" stroke="none" 
	d="
M46.206871,122.056084 
	C46.755692,121.715202 47.370293,121.695312 48.286404,121.745537 
	C49.158764,121.595673 49.748402,121.517586 50.727859,121.838181 
	C49.566189,123.489883 48.038750,124.974854 46.206871,122.056084 
z"/>
<path fill="#62E923" opacity="1.000000" stroke="none" 
	d="
M136.737961,76.216095 
	C136.877274,75.973495 137.042053,75.567795 137.056122,75.349304 
	C137.336548,74.727119 137.710999,74.509071 138.510178,74.615005 
	C138.601761,76.360062 138.376709,77.966782 137.979721,79.944275 
	C137.633713,80.381790 137.459641,80.448517 137.124603,80.286591 
	C136.890594,79.297112 136.817566,78.536285 136.706146,77.394684 
	C136.644730,76.828842 136.621689,76.643768 136.737961,76.216095 
z"/>
<path fill="#62E923" opacity="1.000000" stroke="none" 
	d="
M109.003876,98.632790 
	C108.368629,98.973213 107.660744,99.007423 106.606964,99.059753 
	C106.292625,98.100815 106.107246,96.889832 107.421043,96.695183 
	C108.418015,96.547478 108.693878,97.524818 109.003876,98.632790 
z"/>
<path fill="#62E923" opacity="1.000000" stroke="none" 
	d="
M134.773056,87.524429 
	C135.749207,87.636208 136.464905,87.756355 137.534027,87.776093 
	C138.080353,87.555260 138.273300,87.434822 138.688171,87.573532 
	C137.671356,89.949989 136.140564,90.583977 133.927856,88.517075 
	C133.727142,88.260017 133.919662,88.063011 134.015198,87.963799 
	C134.244675,87.753998 134.378647,87.643402 134.773056,87.524429 
z"/>
<path fill="#D3FDBD" opacity="1.000000" stroke="none" 
	d="
M66.879143,45.090912 
	C67.186874,45.060944 67.377922,45.124313 67.850449,45.297855 
	C67.819962,46.357941 67.508011,47.307854 67.139999,48.553989 
	C65.677872,49.074085 65.377472,48.172375 65.227554,46.774269 
	C65.216309,46.001568 65.408752,45.607189 66.123611,45.247234 
	C66.463623,45.187962 66.762451,45.184246 66.879143,45.090912 
z"/>
<path fill="#D0FDB7" opacity="1.000000" stroke="none" 
	d="
M138.871109,74.355362 
	C138.434601,74.827751 138.042404,74.902161 137.360199,75.053696 
	C136.836914,73.724594 137.024200,72.409599 138.181580,71.052094 
	C138.605392,71.890762 138.760406,72.924072 138.871109,74.355362 
z"/>
<path fill="#71E838" opacity="1.000000" stroke="none" 
	d="
M51.393578,122.142876 
	C50.540596,122.035049 49.982300,121.975143 49.005959,121.865440 
	C50.933376,119.864914 53.708504,122.219963 56.572189,121.042984 
	C56.571262,121.389526 56.131298,121.755821 55.409752,122.200409 
	C54.639172,122.437538 54.138107,122.500717 53.251514,122.390312 
	C52.481453,122.271843 52.084858,122.231316 51.393578,122.142876 
z"/>
<path fill="#76E63F" opacity="1.000000" stroke="none" 
	d="
M159.029175,120.910507 
	C156.571686,120.495781 156.274582,118.659218 155.851349,116.521667 
	C155.783081,116.182007 156.066956,115.957230 156.208878,115.844818 
	C157.346603,115.474442 158.072220,116.034096 159.054657,116.790146 
	C159.421356,117.226105 159.546936,117.418144 159.798691,117.930023 
	C159.958099,118.475204 159.991348,118.700562 159.894440,119.582794 
	C159.615463,120.406418 159.466644,120.573174 159.029175,120.910507 
z"/>
<path fill="#62E923" opacity="1.000000" stroke="none" 
	d="
M66.187866,85.284973 
	C66.344887,86.236504 66.160233,87.214859 66.048706,88.567825 
	C63.797432,87.901726 63.500038,86.707108 66.187866,85.284973 
z"/>
<path fill="#D4FCBC" opacity="1.000000" stroke="none" 
	d="
M183.028748,107.553436 
	C181.787033,105.926064 181.926376,103.788414 182.714935,101.299301 
	C182.964981,103.026024 183.042572,105.074608 183.028748,107.553436 
z"/>
<path fill="#62E923" opacity="1.000000" stroke="none" 
	d="
M123.960236,47.650017 
	C123.822731,47.999912 123.638962,48.001736 123.179886,48.017197 
	C122.247604,47.257587 121.590630,46.484344 120.899117,45.404968 
	C122.408218,45.103516 123.618744,45.569283 123.960236,47.650017 
z"/>
<path fill="#7EDF4E" opacity="1.000000" stroke="none" 
	d="
M77.132339,104.320076 
	C78.092522,103.870834 79.084190,103.857040 80.447441,103.835724 
	C80.609032,104.403671 80.399040,104.979134 80.040878,105.825371 
	C79.271973,106.204010 78.651230,106.311882 77.717934,106.452606 
	C77.324860,105.908813 77.244347,105.332169 77.132339,104.320076 
z"/>
<path fill="#62E923" opacity="1.000000" stroke="none" 
	d="
M138.239075,83.292870 
	C138.016983,82.807716 137.999863,82.641693 137.871307,82.251480 
	C137.671295,81.808334 137.582718,81.589371 137.782745,81.164902 
	C140.303223,81.845634 140.032471,83.627022 139.530685,85.748505 
	C137.801712,85.732628 138.822021,84.402557 138.239075,83.292870 
z"/>
<path fill="#62E923" opacity="1.000000" stroke="none" 
	d="
M67.054291,89.512970 
	C67.138268,89.196991 67.328102,89.138763 67.794434,88.968773 
	C68.533478,88.941223 68.996040,89.025429 69.788429,89.236267 
	C69.316048,90.832191 68.357758,91.169334 67.054291,89.512970 
z"/>
<path fill="#5FED1D" opacity="1.000000" stroke="none" 
	d="
M130.242004,121.830772 
	C130.923965,121.602432 131.621155,121.687439 132.655426,121.873520 
	C132.188019,123.762207 131.309296,124.351578 130.242004,121.830772 
z"/>
<path fill="#62E923" opacity="1.000000" stroke="none" 
	d="
M67.012291,49.465981 
	C67.367714,49.138515 67.821541,49.069225 68.616409,48.943802 
	C69.238380,48.794521 69.519302,48.701378 69.923683,49.034660 
	C69.190285,50.909996 68.218651,51.077919 67.012291,49.465981 
z"/>
<path fill="#76F23B" opacity="1.000000" stroke="none" 
	d="
M107.045334,162.271027 
	C108.147438,161.729523 109.230515,161.434692 110.645859,161.082199 
	C110.989441,161.389481 111.000763,161.754410 111.021034,162.388550 
	C109.956940,162.784683 108.883904,162.911621 107.405853,163.025238 
	C107.000854,163.011917 107.026299,162.517715 107.045334,162.271027 
z"/>
<path fill="#D4FCBC" opacity="1.000000" stroke="none" 
	d="
M158.941040,121.228439 
	C158.769638,120.915215 158.798752,120.749352 158.882721,120.336929 
	C159.593155,119.353760 160.400848,119.257759 161.654144,119.771996 
	C162.012222,120.013779 162.342026,120.377304 162.497787,120.567810 
	C162.575531,121.051392 162.412460,121.285141 162.027145,121.628227 
	C161.612656,122.331230 161.178406,122.541954 160.243820,122.223389 
	C159.646103,121.805664 159.393082,121.591591 158.941040,121.228439 
z"/>
<path fill="#6AE42E" opacity="1.000000" stroke="none" 
	d="
M100.637848,117.899612 
	C101.386925,118.209953 102.081131,118.849876 102.876579,119.755783 
	C101.768761,119.973030 100.740402,119.682884 100.637848,117.899612 
z"/>
<path fill="#76E63F" opacity="1.000000" stroke="none" 
	d="
M156.809418,105.749527 
	C156.275986,106.269325 155.502014,106.623268 154.417572,107.048569 
	C154.407013,105.773483 155.088943,105.039192 156.809418,105.749527 
z"/>
<path fill="#D0FDB7" opacity="1.000000" stroke="none" 
	d="
M137.990021,83.364723 
	C138.405212,83.786522 138.776306,84.599289 139.267441,85.734627 
	C139.276169,86.450294 139.164856,86.843399 138.981812,87.534592 
	C138.737350,87.822029 138.564590,87.811378 138.139633,87.738205 
	C137.906921,86.369026 137.926422,85.062363 137.990021,83.364723 
z"/>
<path fill="#71E838" opacity="1.000000" stroke="none" 
	d="
M48.748371,98.776810 
	C47.923389,99.275307 46.838055,99.580666 45.438515,100.022690 
	C45.504570,98.052330 46.868694,98.045593 48.748371,98.776810 
z"/>
<path fill="#64E925" opacity="1.000000" stroke="none" 
	d="
M29.246260,120.145767 
	C29.873520,120.190834 30.596594,120.578163 31.550186,121.174110 
	C30.771343,121.620033 29.898098,121.486351 29.246260,120.145767 
z"/>
<path fill="#78E643" opacity="1.000000" stroke="none" 
	d="
M136.693970,58.960968 
	C136.171143,58.698219 135.683136,58.124371 135.167877,57.260506 
	C136.070206,57.151836 136.541870,57.766212 136.693970,58.960968 
z"/>
<path fill="#5FED1D" opacity="1.000000" stroke="none" 
	d="
M122.772858,98.702118 
	C122.246086,98.930763 121.490814,98.988998 120.356033,99.024918 
	C120.721558,98.240746 121.570160,98.043762 122.772858,98.702118 
z"/>
<path fill="#71E838" opacity="1.000000" stroke="none" 
	d="
M57.328644,120.979675 
	C57.537212,120.468430 58.052959,119.919533 58.829201,119.247047 
	C58.991138,120.038300 58.446915,120.596840 57.328644,120.979675 
z"/>
<path fill="#76E63F" opacity="1.000000" stroke="none" 
	d="
M159.897888,122.206924 
	C160.340164,121.935577 160.779770,121.853149 161.554657,121.783813 
	C161.384827,122.528770 160.855804,123.180984 159.897888,122.206924 
z"/>
<path fill="#5FED1D" opacity="1.000000" stroke="none" 
	d="
M147.740463,121.177177 
	C148.482071,120.967438 148.889130,120.898628 149.606415,120.824417 
	C149.527496,121.219582 149.138351,121.620148 148.496704,122.150009 
	C148.244186,122.279305 148.061676,122.073944 147.969482,121.972115 
	C147.720184,121.686226 147.563065,121.502159 147.740463,121.177177 
z"/>
<path fill="#64E925" opacity="1.000000" stroke="none" 
	d="
M13.169165,122.092209 
	C13.452893,121.850914 13.896264,121.786057 14.661512,121.828964 
	C14.526376,122.518517 13.980898,122.659309 13.169165,122.092209 
z"/>
<path fill="#D3FDBD" opacity="1.000000" stroke="none" 
	d="
M70.300415,49.358032 
	C69.864418,49.367840 69.681694,49.274590 69.228210,49.034500 
	C69.466766,48.385960 70.036255,48.268860 70.845306,48.787384 
	C70.859131,49.055946 70.706406,49.155464 70.300415,49.358032 
z"/>
<path fill="#64E925" opacity="1.000000" stroke="none" 
	d="
M53.093258,122.416992 
	C53.377838,122.287788 53.877628,122.263214 54.752796,122.258667 
	C54.521603,122.359673 53.915039,122.440651 53.093258,122.416992 
z"/>
<path fill="#D0FDB7" opacity="1.000000" stroke="none" 
	d="
M137.963379,80.815506 
	C138.020935,81.137772 137.970520,81.316170 137.839996,81.760933 
	C137.475540,81.559441 137.191177,81.091599 136.935226,80.340851 
	C136.963638,80.057938 137.382568,80.197426 137.595184,80.256241 
	C137.807785,80.315056 137.855423,80.671638 137.963379,80.815506 
z"/>
<path fill="#D3FDBD" opacity="1.000000" stroke="none" 
	d="
M111.587021,38.077972 
	C111.786362,38.104595 111.856728,38.567345 111.918365,38.793159 
	C111.436188,38.895889 110.892387,38.772800 110.160828,38.432533 
	C110.152435,38.146637 110.331802,38.077919 110.784134,37.915726 
	C111.057083,37.822250 111.387680,38.051346 111.587021,38.077972 
z"/>
<path fill="#5FED1D" opacity="1.000000" stroke="none" 
	d="
M152.008926,118.730988 
	C151.821320,118.495056 151.894272,118.096474 152.017944,117.396515 
	C152.173920,116.835106 152.279205,116.575066 152.676971,116.617630 
	C152.736099,117.469597 152.502792,118.018959 152.008926,118.730988 
z"/>
<path fill="#5FED1D" opacity="1.000000" stroke="none" 
	d="
M142.247467,106.803032 
	C141.486282,107.015343 141.087234,107.092133 140.382874,107.175064 
	C140.466522,106.777519 140.855499,106.373833 141.497192,105.839584 
	C141.749924,105.709023 141.917892,105.903709 142.002869,106.000198 
	C142.261765,106.286957 142.435684,106.477234 142.247467,106.803032 
z"/>
<path fill="#D0FDB7" opacity="1.000000" stroke="none" 
	d="
M152.979279,116.704239 
	C152.969406,116.920227 152.519409,117.010223 152.294037,117.052689 
	C152.165054,116.537422 152.261459,115.979698 152.537567,115.194046 
	C152.777664,115.151421 152.838028,115.336723 153.000229,115.796425 
	C153.102066,116.070816 152.989166,116.488251 152.979279,116.704239 
z"/>
<path fill="#76E63F" opacity="1.000000" stroke="none" 
	d="
M149.575409,107.067627 
	C149.308502,107.269524 148.923447,107.197998 148.246002,107.079025 
	C147.780441,106.941788 147.607285,106.852005 147.637238,106.551636 
	C147.840317,106.341049 147.927399,106.015816 147.989502,105.858368 
	C148.520157,106.065346 148.988708,106.429779 149.575409,107.067627 
z"/>
<path fill="#D4FCBC" opacity="1.000000" stroke="none" 
	d="
M182.979492,100.773544 
	C182.885986,100.792404 182.812820,100.610298 182.835068,100.514832 
	C182.857315,100.419357 183.082642,100.483955 183.082642,100.483955 
	C183.082642,100.483955 183.073013,100.754692 182.979492,100.773544 
z"/>
<path fill="#5FED1D" opacity="1.000000" stroke="none" 
	d="
M139.937378,107.195251 
	C139.974991,107.384178 139.770844,107.668312 139.302185,108.014282 
	C139.256989,107.814232 139.476303,107.552338 139.937378,107.195251 
z"/>
<path fill="#76E63F" opacity="1.000000" stroke="none" 
	d="
M158.762543,106.949631 
	C158.570663,107.000511 158.291458,106.800247 157.914505,106.356613 
	C158.102921,106.308319 158.389053,106.503403 158.762543,106.949631 
z"/>
<path fill="#62E923" opacity="1.000000" stroke="none" 
	d="
M66.180962,45.325806 
	C66.222923,45.522705 65.982224,45.857449 65.461845,46.334732 
	C65.420876,46.139397 65.659584,45.801525 66.180962,45.325806 
z"/>
<path fill="#76F23B" opacity="1.000000" stroke="none" 
	d="
M118.142868,158.734482 
	C118.074120,158.856369 117.820671,158.871872 117.185043,158.898163 
	C117.187965,158.815323 117.573074,158.721710 118.142868,158.734482 
z"/>
<path fill="#78E643" opacity="1.000000" stroke="none" 
	d="
M134.611938,56.168549 
	C134.372116,56.255497 134.072739,56.076965 133.710358,55.635216 
	C133.949020,55.549026 134.250717,55.726051 134.611938,56.168549 
z"/>
<path fill="#64E925" opacity="1.000000" stroke="none" 
	d="
M27.922720,100.644470 
	C27.720800,100.832085 27.420063,100.715538 27.023138,100.294067 
	C27.236368,100.080582 27.535353,100.197639 27.922720,100.644470 
z"/>
<path fill="#6AE42E" opacity="1.000000" stroke="none" 
	d="
M103.123863,120.240273 
	C103.307167,120.141541 103.631355,120.257759 104.073486,120.612625 
	C103.882538,120.719254 103.573639,120.587242 103.123863,120.240273 
z"/>
<path fill="#D6FCC1" opacity="1.000000" stroke="none" 
	d="
M70.246887,89.069885 
	C70.187202,88.670052 70.459480,88.583237 70.909821,88.842056 
	C70.843254,89.030617 70.673576,89.095680 70.246887,89.069885 
z"/>
<path fill="#6AE42E" opacity="1.000000" stroke="none" 
	d="
M87.237587,121.147522 
	C87.406395,121.026115 87.788895,121.110153 88.379951,121.407829 
	C88.209435,121.531967 87.830353,121.442474 87.237587,121.147522 
z"/>
<path fill="#5FED1D" opacity="1.000000" stroke="none" 
	d="
M151.120850,119.813263 
	C151.043839,119.622627 151.189636,119.290886 151.599548,118.864532 
	C151.690308,119.070663 151.516968,119.371407 151.120850,119.813263 
z"/>
<path fill="#64E925" opacity="1.000000" stroke="none" 
	d="
M15.891371,121.689659 
	C15.838906,121.488617 16.061958,121.157669 16.560997,120.694801 
	C16.613617,120.895172 16.390253,121.227463 15.891371,121.689659 
z"/>
<path fill="#6AE42E" opacity="1.000000" stroke="none" 
	d="
M96.182022,120.882690 
	C96.119011,120.700607 96.292397,120.408882 96.699738,120.004601 
	C96.761932,120.185715 96.590172,120.479378 96.182022,120.882690 
z"/>
<path fill="#5FED1D" opacity="1.000000" stroke="none" 
	d="
M150.066406,120.797340 
	C150.022430,120.603882 150.219589,120.310905 150.683990,119.956665 
	C150.736679,120.162872 150.522110,120.430344 150.066406,120.797340 
z"/>
<path fill="#5FED1D" opacity="1.000000" stroke="none" 
	d="
M139.155914,120.165619 
	C139.338486,120.097076 139.653519,120.250809 140.069061,120.654900 
	C139.875839,120.732803 139.582108,120.560349 139.155914,120.165619 
z"/>
<path fill="#095FEC" opacity="1.000000" stroke="none" 
	d="
M111.334084,50.632957 
	C118.265587,57.199917 119.047859,66.944328 113.322472,73.624207 
	C107.731033,80.147827 96.971176,80.966270 90.324715,75.373520 
	C84.254898,70.265991 82.502037,59.758743 87.013283,54.141907 
	C94.350876,45.006058 103.508011,43.976051 111.334084,50.632957 
z"/>
<path fill="#7EDF4E" opacity="1.000000" stroke="none" 
	d="
M122.678818,77.188171 
	C123.494064,77.332756 124.063896,77.698822 124.953568,78.186768 
	C123.731506,80.487778 122.189598,82.666901 120.343994,85.006012 
	C119.308777,85.958542 118.915939,87.152184 117.308395,87.052139 
	C116.743172,86.326790 116.456718,85.786674 115.960297,85.019608 
	C117.978020,82.331650 120.205704,79.870651 122.678818,77.188171 
z"/>
<path fill="#D6FCC1" opacity="1.000000" stroke="none" 
	d="
M72.579224,81.882523 
	C71.846649,80.666222 71.638451,79.546295 72.806808,78.295448 
	C74.656136,77.935860 76.301567,77.855782 78.351364,77.729095 
	C78.260483,79.154953 75.960106,79.275864 76.075150,81.561874 
	C75.019958,81.919006 73.992294,81.940140 72.579224,81.882523 
z"/>
<path fill="#D6FCC1" opacity="1.000000" stroke="none" 
	d="
M85.209946,85.238419 
	C84.447456,84.290527 83.863937,83.525780 83.112305,82.517250 
	C85.319572,80.728447 86.136986,82.725731 86.844650,84.216591 
	C87.451126,85.494255 86.693794,85.992805 85.209946,85.238419 
z"/>
<path fill="#D6FCC1" opacity="1.000000" stroke="none" 
	d="
M75.143501,64.759537 
	C73.953110,63.459850 74.326874,61.700745 74.302917,59.611160 
	C74.270515,59.237225 74.624870,59.096550 74.805267,59.034569 
	C76.150276,60.733395 76.104645,62.574146 75.143501,64.759537 
z"/>
<path fill="#D3FDBD" opacity="1.000000" stroke="none" 
	d="
M126.608253,65.201859 
	C127.185806,67.285820 126.446053,69.417320 125.254333,71.788452 
	C123.459312,69.441132 125.638908,67.605988 126.608253,65.201859 
z"/>
<path fill="#D3FDBD" opacity="1.000000" stroke="none" 
	d="
M124.240219,51.995316 
	C125.492332,52.877384 125.810829,54.544571 126.231621,56.527306 
	C123.905373,56.141621 124.182259,54.212479 124.240219,51.995316 
z"/>
<path fill="#D6FCC1" opacity="1.000000" stroke="none" 
	d="
M95.702988,88.707275 
	C93.637527,88.962555 91.239258,89.035347 88.401970,89.000244 
	C90.378387,87.688950 92.864197,87.903633 95.702988,88.707275 
z"/>
<path fill="#D6FCC1" opacity="1.000000" stroke="none" 
	d="
M107.181442,88.746964 
	C105.119987,88.917328 103.452530,88.994408 101.376160,88.978958 
	C102.615814,87.874359 104.477585,88.065239 106.682152,87.978531 
	C107.245323,88.226540 107.410385,88.440117 107.181442,88.746964 
z"/>
<path fill="#D3FDBD" opacity="1.000000" stroke="none" 
	d="
M112.113785,39.279064 
	C113.142998,38.921436 113.936729,39.634747 114.919777,40.544224 
	C113.330917,42.157871 113.010124,40.354843 112.113785,39.279064 
z"/>
<path fill="#D6FCC1" opacity="1.000000" stroke="none" 
	d="
M76.107391,70.804047 
	C74.894051,70.117310 75.097893,68.846657 75.031281,67.315216 
	C75.990105,68.002663 76.761162,69.088196 76.107391,70.804047 
z"/>
<path fill="#D6FCC1" opacity="1.000000" stroke="none" 
	d="
M79.001907,85.635971 
	C79.693466,85.324768 80.508789,85.254143 81.723724,85.287704 
	C81.328705,86.818764 80.331261,86.991318 79.001907,85.635971 
z"/>
<path fill="#D6FCC1" opacity="1.000000" stroke="none" 
	d="
M76.550507,53.931061 
	C76.538589,53.049351 76.834457,51.996235 77.358780,50.701408 
	C77.909508,51.684551 77.823166,52.819138 76.550507,53.931061 
z"/>
<path fill="#D3FDBD" opacity="1.000000" stroke="none" 
	d="
M78.976929,45.583752 
	C79.364716,45.277126 79.846077,45.182972 80.696686,45.120995 
	C80.698174,46.290344 80.101051,46.715752 78.976929,45.583752 
z"/>
<path fill="#D6FCC1" opacity="1.000000" stroke="none" 
	d="
M78.913376,76.843842 
	C78.427315,76.567894 78.114601,76.116104 77.796219,75.380447 
	C78.685226,75.238792 79.455635,75.483505 78.913376,76.843842 
z"/>
<path fill="#D3FDBD" opacity="1.000000" stroke="none" 
	d="
M126.304703,57.896961 
	C126.585892,58.471664 126.780434,59.406013 126.916168,60.698162 
	C126.644264,60.122845 126.431160,59.189724 126.304703,57.896961 
z"/>
<path fill="#D6FCC1" opacity="1.000000" stroke="none" 
	d="
M111.372871,87.433365 
	C110.829597,87.356125 110.651360,87.323029 110.231949,87.164017 
	C110.647499,86.672058 111.304237,86.305992 112.251770,85.935532 
	C112.818649,86.019234 113.094727,86.107338 113.037376,86.474319 
	C112.703941,86.753212 112.769859,86.789085 112.779655,86.752861 
	C112.621185,87.222130 112.279503,87.487953 111.372871,87.433365 
z"/>
<path fill="#7EDF4E" opacity="1.000000" stroke="none" 
	d="
M107.026825,88.887718 
	C106.787445,88.840248 106.948692,88.432167 107.014473,88.222565 
	C107.080254,88.012962 107.523239,87.926285 107.726257,87.827698 
	C108.134415,87.665581 108.339539,87.602043 108.776123,87.762520 
	C108.842224,89.064720 107.999969,88.900375 107.026825,88.887718 
z"/>
<path fill="#7EDF4E" opacity="1.000000" stroke="none" 
	d="
M112.936302,86.707962 
	C112.703941,86.753212 112.653809,86.336121 112.598190,86.133629 
	C112.884277,85.833549 113.225990,85.735954 113.832214,85.653656 
	C113.787369,86.000206 113.478020,86.331459 112.936302,86.707962 
z"/>
<path fill="#D3FDBD" opacity="1.000000" stroke="none" 
	d="
M107.168633,37.424622 
	C107.526741,37.317608 108.098419,37.413406 108.866890,37.734192 
	C108.503189,37.848598 107.942696,37.738014 107.168633,37.424622 
z"/>
<path fill="#D6FCC1" opacity="1.000000" stroke="none" 
	d="
M77.814423,49.812538 
	C77.694427,49.849449 77.505585,49.629440 77.560608,49.495899 
	C77.615631,49.362358 77.942154,49.448582 77.942154,49.448582 
	C77.942154,49.448582 77.934410,49.775631 77.814423,49.812538 
z"/>
<path fill="#D3FDBD" opacity="1.000000" stroke="none" 
	d="
M84.061775,42.834068 
	C84.005592,42.625782 84.201370,42.330318 84.661926,41.969315 
	C84.722389,42.184811 84.518059,42.465855 84.061775,42.834068 
z"/>
<path fill="#D3FDBD" opacity="1.000000" stroke="none" 
	d="
M119.122421,44.143013 
	C119.322113,44.098976 119.598930,44.299511 119.930405,44.757660 
	C119.723221,44.806046 119.461388,44.596817 119.122421,44.143013 
z"/>
<path fill="#D3FDBD" opacity="1.000000" stroke="none" 
	d="
M117.072632,42.311981 
	C117.251190,42.234642 117.545082,42.374405 117.938828,42.746971 
	C117.693146,42.946491 117.409569,42.796261 117.072632,42.311981 
z"/>
<path fill="#D6FCC1" opacity="1.000000" stroke="none" 
	d="
M109.130417,87.800461 
	C108.827515,87.945801 108.647446,87.905075 108.198318,87.796730 
	C108.223251,87.543144 108.517227,87.357185 109.076248,87.174240 
	C109.341293,87.177254 109.253242,87.614388 109.130417,87.800461 
z"/>
<path fill="#D0FDB7" opacity="1.000000" stroke="none" 
	d="
M117.042877,87.118683 
	C117.835808,86.310074 118.641983,85.753250 119.744225,85.181213 
	C120.306351,85.703957 120.572411,86.241905 121.044296,87.006683 
	C119.879189,88.108040 118.488434,88.375496 117.042877,87.118683 
z"/>
<path fill="#D0FDB7" opacity="1.000000" stroke="none" 
	d="
M137.114410,62.112389 
	C137.454697,62.619312 137.754150,63.472454 138.000549,64.670517 
	C137.656204,64.163162 137.364899,63.310886 137.114410,62.112389 
z"/>
<path fill="#D0FDB7" opacity="1.000000" stroke="none" 
	d="
M128.841660,85.669525 
	C128.559799,85.887932 128.108597,85.937370 127.321579,85.920570 
	C127.453186,85.284630 128.008972,85.136269 128.841660,85.669525 
z"/>
<path fill="#D0FDB7" opacity="1.000000" stroke="none" 
	d="
M125.823853,86.057930 
	C125.600334,86.358025 125.081367,86.624016 124.263840,86.842346 
	C124.486320,86.537727 125.007362,86.280777 125.823853,86.057930 
z"/>
<path fill="#7EDF4E" opacity="1.000000" stroke="none" 
	d="
M125.394318,78.164978 
	C125.335159,77.993103 125.525650,77.699440 125.917847,77.238846 
	C125.961021,77.395676 125.802490,77.719429 125.394318,78.164978 
z"/>
<path fill="#D0FDB7" opacity="1.000000" stroke="none" 
	d="
M136.746582,76.063843 
	C136.889999,76.156570 136.902725,76.339638 136.791595,76.768311 
	C136.438400,76.743469 136.421112,76.456902 136.746582,76.063843 
z"/>
<path fill="#D0FDB7" opacity="1.000000" stroke="none" 
	d="
M134.877243,87.352493 
	C135.033493,87.516052 134.586594,87.729126 134.348663,87.796860 
	C134.110718,87.864586 133.960907,87.480759 133.901428,87.283478 
	C134.150497,86.987732 134.443512,87.021980 134.877243,87.352493 
z"/>
<path fill="#63E424" opacity="1.000000" stroke="none" 
	d="
M50.168083,113.994675 
	C51.216148,111.877609 52.587677,111.359070 54.259537,112.716377 
	C55.190712,113.472366 55.202084,114.508278 54.256680,115.259842 
	C52.602768,116.574661 51.206043,116.169647 50.168083,113.994675 
z"/>
<path fill="#6AE42E" opacity="1.000000" stroke="none" 
	d="
M100.790024,104.279709 
	C100.320160,103.514862 100.275894,102.725212 101.754059,102.760178 
	C101.662254,103.289986 101.345284,103.720116 100.790024,104.279709 
z"/>
<path fill="#63E424" opacity="1.000000" stroke="none" 
	d="
M33.412254,112.233231 
	C35.350510,112.051178 37.076458,112.340721 36.859642,114.292114 
	C36.698952,115.738350 35.027920,116.354774 33.692505,115.839272 
	C31.966955,115.173164 31.490778,113.875984 33.412254,112.233231 
z"/>
<path fill="#F4F7F2" opacity="1.000000" stroke="none" 
	d="
M162.112961,119.667450 
	C161.243378,120.028976 160.474533,120.044174 159.321655,120.074875 
	C158.937607,120.090370 158.951599,120.065224 158.943176,120.059006 
	C158.797318,119.876884 158.659912,119.700981 158.357147,119.233971 
	C158.191757,118.942856 157.970901,118.593834 157.912445,118.395767 
	C157.426376,116.987907 157.205231,115.736496 157.164764,114.083008 
	C157.362015,113.486092 157.495438,113.267693 157.978241,112.890182 
	C159.437866,112.491203 160.898376,112.614922 161.594070,111.944717 
	C163.871506,109.750694 165.132187,107.836891 168.253952,111.788361 
	C170.654892,114.827446 170.974854,109.404831 174.017593,108.585350 
	C173.519562,112.617111 172.255539,115.930565 170.216202,118.863922 
	C169.219543,120.297516 168.357910,118.921860 167.614868,117.973770 
	C164.867401,114.467995 163.336166,116.145126 162.112961,119.667450 
z"/>
<path fill="#F4F7F2" opacity="1.000000" stroke="none" 
	d="
M156.077881,113.309738 
	C155.551315,112.617607 155.340469,112.099182 155.100037,111.298660 
	C155.928345,110.431435 155.685760,108.364510 157.289383,108.983124 
	C158.496353,109.448723 158.036514,110.980194 158.284943,112.395355 
	C158.327606,112.731064 158.040176,112.981049 157.899780,113.109741 
	C157.335892,113.497292 156.880615,113.578941 156.077881,113.309738 
z"/>
<path fill="#F5F5F8" opacity="1.000000" stroke="none" 
	d="
M25.939016,104.487213 
	C25.265385,104.997467 24.532341,105.123543 23.428024,105.297195 
	C21.306120,105.606720 19.547699,105.500504 17.404480,105.245560 
	C16.216808,103.729744 13.353593,105.713402 13.654639,103.303520 
	C13.886041,101.451157 16.140486,101.798431 17.455074,102.039413 
	C20.290468,102.559181 23.895802,100.166046 25.939016,104.487213 
z"/>
<path fill="#98F169" opacity="1.000000" stroke="none" 
	d="
M16.944885,105.384621 
	C18.757830,105.039574 20.497288,105.044220 22.646751,105.196823 
	C21.652859,106.645599 19.154583,105.314568 17.975079,107.748283 
	C16.743000,107.636505 16.684433,106.737473 16.944885,105.384621 
z"/>
<path fill="#98F169" opacity="1.000000" stroke="none" 
	d="
M18.279129,108.263489 
	C19.446712,107.728630 20.944256,107.675102 22.757599,108.307755 
	C21.586473,108.479607 20.098215,108.454193 18.279129,108.263489 
z"/>
<path fill="#98F169" opacity="1.000000" stroke="none" 
	d="
M26.712957,105.023682 
	C26.802021,105.436241 26.751621,106.144501 25.935490,105.419220 
	C26.056168,105.192314 26.236931,105.113991 26.712957,105.023682 
z"/>
<path fill="#5FED1D" opacity="1.000000" stroke="none" 
	d="
M146.844940,112.690659 
	C147.133408,113.432182 147.176941,113.888374 147.183517,114.686745 
	C146.616028,115.330315 146.526138,115.880043 146.125275,116.502876 
	C145.316559,116.644325 144.758713,116.678795 143.949875,116.575592 
	C143.743683,116.008759 143.621613,115.639458 142.995514,115.349686 
	C142.686066,115.359413 142.586929,115.326218 142.587311,115.273941 
	C142.542404,114.679802 142.522629,114.137001 142.521362,113.185791 
	C142.514282,112.778313 142.516190,112.651382 142.573395,112.623901 
	C143.932373,112.088821 145.191544,110.696434 146.844940,112.690659 
z"/>
<path fill="#88E65D" opacity="1.000000" stroke="none" 
	d="
M147.075531,112.618362 
	C145.903793,112.188080 144.637543,112.013351 142.959106,112.537613 
	C143.948761,110.389694 145.429977,110.335335 147.075531,112.618362 
z"/>
<path fill="#D0FDB7" opacity="1.000000" stroke="none" 
	d="
M147.632904,120.992813 
	C148.074997,121.036255 147.990189,121.456612 147.933746,121.663452 
	C146.056168,121.998680 144.221527,122.400665 142.153900,121.342094 
	C143.637970,121.038010 145.414383,120.993683 147.632904,120.992813 
z"/>
<path fill="#D0FDB7" opacity="1.000000" stroke="none" 
	d="
M147.433365,106.266617 
	C147.840317,106.341049 147.895508,106.686523 147.924545,106.859047 
	C146.218353,107.039162 144.483109,107.046761 142.316589,106.996452 
	C141.885315,106.938553 141.961319,106.511536 142.024582,106.304108 
	C143.734039,106.128517 145.380219,106.160355 147.433365,106.266617 
z"/>
<path fill="#D0FDB7" opacity="1.000000" stroke="none" 
	d="
M137.838928,116.901390 
	C136.474716,115.962265 136.857193,114.323059 137.115280,112.355911 
	C137.467728,113.489792 137.673370,115.001038 137.838928,116.901390 
z"/>
<path fill="#88E65D" opacity="1.000000" stroke="none" 
	d="
M142.299896,112.976273 
	C142.566193,113.320869 142.618118,113.863419 142.628845,114.813828 
	C141.797852,114.691849 141.813171,113.964554 142.299896,112.976273 
z"/>
<path fill="#88E65D" opacity="1.000000" stroke="none" 
	d="
M146.166931,116.565277 
	C146.154846,116.182045 146.435287,115.754227 146.931152,115.177658 
	C146.917526,115.526176 146.688507,116.023430 146.166931,116.565277 
z"/>
<path fill="#D0FDB7" opacity="1.000000" stroke="none" 
	d="
M150.026581,108.383423 
	C150.273239,108.179680 150.527100,108.317726 150.731247,108.838303 
	C150.502151,108.962181 150.286240,108.796974 150.026581,108.383423 
z"/>
<path fill="#88E65D" opacity="1.000000" stroke="none" 
	d="
M142.752258,115.620667 
	C142.961136,115.557831 143.236206,115.756241 143.605072,116.196289 
	C143.405396,116.252594 143.111923,116.067253 142.752258,115.620667 
z"/>
<path fill="#73DE3F" opacity="1.000000" stroke="none" 
	d="
M81.827057,110.287689 
	C82.590050,109.954140 83.036697,109.979279 83.817810,110.031395 
	C83.678345,112.349579 83.426506,114.644989 84.025299,117.389618 
	C84.028496,117.822845 84.189224,118.115250 84.124100,118.268845 
	C83.439034,118.638100 82.813118,118.657104 81.793274,118.198929 
	C80.161713,115.475800 80.125473,113.050789 81.827057,110.287689 
z"/>
<path fill="#7EDF4E" opacity="1.000000" stroke="none" 
	d="
M111.210358,87.465652 
	C111.390152,87.199966 111.772484,87.010719 112.472130,86.769051 
	C112.330597,86.991783 111.871742,87.266937 111.210358,87.465652 
z"/>
<path fill="#EFF4F4" opacity="1.000000" stroke="none" 
	d="
M83.127701,39.755188 
	C82.559448,39.989971 82.117607,40.025208 81.346764,40.007446 
	C81.400383,38.887760 81.909668,37.798145 83.262878,38.157215 
	C84.304695,38.433659 83.560143,39.079216 83.127701,39.755188 
z"/>
<path fill="#F3F2F1" opacity="1.000000" stroke="none" 
	d="
M80.536194,108.085632 
	C81.043442,108.429314 81.156822,108.819054 81.320206,109.512085 
	C81.580963,110.882469 81.475937,111.961441 81.459702,113.438736 
	C80.509590,115.854729 81.637314,118.170433 80.203354,120.430695 
	C79.509056,120.737335 79.106583,120.763779 78.405212,120.737740 
	C78.025116,117.741432 77.893791,114.797791 77.882462,111.853699 
	C77.876152,110.211319 77.890594,108.458694 80.536194,108.085632 
z"/>
<path fill="#D3FEBB" opacity="1.000000" stroke="none" 
	d="
M80.176125,120.784050 
	C80.123337,118.671043 80.335159,116.631195 80.713188,114.251968 
	C82.020172,115.074707 81.240997,116.575508 81.688080,118.281540 
	C81.803047,119.248268 81.684326,119.785118 81.215485,120.644905 
	C80.990067,120.995422 80.999878,120.976875 80.989044,120.973160 
	C80.799049,120.932037 80.619896,120.894630 80.176125,120.784050 
z"/>
<path fill="#D4FCBC" opacity="1.000000" stroke="none" 
	d="
M155.793854,113.468636 
	C156.208588,113.144699 156.654999,113.153374 157.430389,113.200241 
	C157.814774,114.613014 157.870178,115.987587 157.889771,117.779938 
	C157.469711,117.533501 157.085449,116.869293 156.526001,115.968750 
	C156.175720,115.088684 156.000641,114.444962 155.793854,113.468636 
z"/>
<path fill="#6AE42E" opacity="1.000000" stroke="none" 
	d="
M81.283051,120.903610 
	C81.103653,120.577728 81.217239,120.160027 81.393219,119.423660 
	C81.445808,118.858162 81.436012,118.611343 81.751205,118.186569 
	C82.524063,118.066780 82.971939,118.124954 83.739395,118.302780 
	C83.677147,119.682182 82.544533,120.161720 81.283051,120.903610 
z"/>
<path fill="#98F169" opacity="1.000000" stroke="none" 
	d="
M82.046967,117.562111 
	C81.967590,118.269218 81.848831,118.525116 81.587761,118.940643 
	C81.313889,117.661827 81.172173,116.218666 80.954926,114.344040 
	C80.943169,112.806435 81.006950,111.700279 81.220467,110.204750 
	C81.370201,109.815369 81.767708,109.794937 81.955551,109.861969 
	C82.101509,112.324532 82.059624,114.720070 82.046967,117.562111 
z"/>
<path fill="#D4FCBC" opacity="1.000000" stroke="none" 
	d="
M158.209396,119.188248 
	C158.483215,119.085892 158.699554,119.303566 158.887756,119.824326 
	C158.573593,119.989586 158.337692,119.783211 158.209396,119.188248 
z"/>
<path fill="#E4EFFA" opacity="1.000000" stroke="none" 
	d="
M106.073959,66.661987 
	C103.087509,69.076843 100.226852,70.087067 97.141090,67.928116 
	C94.310394,65.947617 93.808380,63.170460 95.034637,59.673973 
	C95.204475,58.961948 95.392586,58.633579 95.888329,58.179604 
	C96.121613,58.011414 96.012314,58.016960 96.015335,58.071594 
	C96.220207,57.814274 96.459404,57.534214 97.001297,57.204723 
	C97.266632,57.123386 97.096146,57.100060 97.086166,57.185516 
	C99.915001,55.232250 102.616547,56.089336 105.465508,58.067791 
	C105.646751,58.475525 105.646179,58.336967 105.577187,58.343246 
	C108.218994,60.767452 108.076912,63.503513 106.073959,66.661987 
z"/>
<path fill="#1E66D8" opacity="1.000000" stroke="none" 
	d="
M105.555168,58.129623 
	C103.297310,56.737156 100.757660,56.070190 97.496208,57.187061 
	C100.080582,54.029678 102.825638,55.030716 105.555168,58.129623 
z"/>
<path fill="#1E66D8" opacity="1.000000" stroke="none" 
	d="
M106.097168,66.791100 
	C107.153702,64.301765 107.526772,61.681396 105.655174,58.697113 
	C109.298622,60.727497 108.577034,63.618176 106.097168,66.791100 
z"/>
<path fill="#1E66D8" opacity="1.000000" stroke="none" 
	d="
M95.899292,58.189003 
	C95.947571,58.352776 95.773537,58.694141 95.345108,59.184208 
	C95.286133,59.010807 95.481560,58.688702 95.899292,58.189003 
z"/>
<path fill="#1E66D8" opacity="1.000000" stroke="none" 
	d="
M97.018188,57.236046 
	C97.033852,57.409893 96.801079,57.696404 96.293327,58.054573 
	C96.268822,57.867058 96.519279,57.607883 97.018188,57.236046 
z"/>
</svg>