<svg xmlns="http://www.w3.org/2000/svg" xmlns:xlink="http://www.w3.org/1999/xlink" version="1.1" width="1000" height="1000" viewBox="0 0 1000 1000" xml:space="preserve">
<desc>Created with Fabric.js 3.5.0</desc>
<defs>
</defs>
<rect x="0" y="0" width="100%" height="100%" fill="#ffffff"/>
<g transform="matrix(0.7813 0 0 0.7813 500.032 500.032)" id="864070">
<g style="" vector-effect="non-scaling-stroke">
		<g transform="matrix(0.8 0 0 0.8 -3.5553 -61.2792)">
<path style="stroke: none; stroke-width: 1; stroke-dasharray: none; stroke-linecap: butt; stroke-dashoffset: 0; stroke-linejoin: miter; stroke-miterlimit: 4; is-custom-font: none; font-file-url: none; fill: rgb(155,163,176); fill-rule: nonzero; opacity: 1;" transform=" translate(-296.5559, -262.401)" d="m 0 0 c 4.24 3.4 8.28 7.03 12 11 v 2 h 2 v 2 h 2 c 14.5 16.7 22.2 42.9 24.6 64.4 c 0.212 2.6 0.212 2.6 1.36 4.62 c 2.15 13.7 2.19 27.7 2.19 41.5 c 0.000816 0.703 0.00163 1.41 0.00247 2.13 c -0.00228 17.3 -1.53 34.1 -4.15 51.3 c -0.485 3.18 -0.957 6.37 -1.43 9.56 c -0.307 2.05 -0.615 4.09 -0.924 6.14 c -0.14 0.942 -0.279 1.88 -0.423 2.85 c -0.767 4.99 -1.79 9.71 -3.27 14.5 c -0.409 1.67 -0.805 3.35 -1.18 5.03 c -0.206 0.893 -0.411 1.79 -0.623 2.71 c -0.42 1.84 -0.837 3.68 -1.25 5.52 c -2.95 12.7 -2.95 12.7 -5.94 15.7 c -7.52 0.239 -7.52 0.239 -10 -1 v -2 h -2 c -1.18 -7.51 -0.665 -14.2 0.312 -21.8 c 0.131 -1.11 0.262 -2.22 0.396 -3.36 c 1.03 -8.23 1.03 -8.23 2.3 -11.4 c 1.15 -2.92 1.49 -5.52 1.81 -8.63 c 0.124 -1.15 0.249 -2.3 0.377 -3.48 c 0.122 -1.19 0.244 -2.38 0.369 -3.6 c 0.248 -2.37 0.499 -4.74 0.754 -7.11 c 0.108 -1.05 0.215 -2.09 0.326 -3.17 c 0.357 -2.53 0.357 -2.53 1.36 -4.53 c 3.46 -26.1 4.6 -56 0 -82 c -0.33 -0.33 -0.66 -0.66 -1 -1 c -0.296 -1.86 -0.586 -3.71 -0.848 -5.57 c -2.74 -19.1 -9.41 -37.9 -21.2 -53.4 v -2 c -0.639 -0.268 -1.28 -0.536 -1.94 -0.812 c -2.06 -1.19 -2.06 -1.19 -3.06 -4.19 c -2.02 -0.733 -2.02 -0.733 -4 -1 v -2 c -1.05 -0.307 -1.05 -0.307 -2.12 -0.621 c -0.91 -0.269 -1.82 -0.539 -2.76 -0.816 c -0.905 -0.267 -1.81 -0.534 -2.74 -0.809 c -2.38 -0.754 -2.38 -0.754 -4.38 -1.75 c -11.5 -2.83 -23.9 1.25 -33.8 7.12 c -2.19 1.44 -4.26 2.93 -6.32 4.55 c -1.86 1.32 -1.86 1.32 -3.86 1.32 c -0.33 0.99 -0.66 1.98 -1 3 c -1.53 1.47 -1.53 1.47 -3.5 3.06 c -7.65 6.53 -13.7 13.8 -18.9 22.4 c -1.61 2.54 -1.61 2.54 -3.43 4.74 c -15.8 20.3 -27.2 46.8 -36.2 70.8 c -0.428 1.14 -0.856 2.29 -1.3 3.47 c -2.76 7.58 -5.23 15.2 -7.59 22.9 c -0.671 2.17 -1.37 4.33 -2.11 6.47 c -5.96 18.5 -9.14 38.4 -11.6 57.6 c -0.395 2.48 -0.395 2.48 -1.39 4.48 c -2.51 14.9 -2.22 30.3 -2.25 45.4 c -0.00763 1.33 -0.00763 1.33 -0.0154 2.68 c -0.0763 16.5 0.748 32.9 5.27 48.9 c 0.185 0.67 0.37 1.34 0.561 2.03 c 3.99 14.1 9.83 27.6 20.4 38 l 1 3 c 1.77 1.05 1.77 1.05 4 2 c 2.89 1.73 5.77 3.49 8.64 5.25 c 7.29 3.8 13.8 5.27 22 5.13 c 0.868 -0.0087 1.74 -0.0174 2.63 -0.0264 c 29.5 -0.662 60.2 -17.5 80.7 -38.3 c 0.949 -0.763 1.9 -1.53 2.88 -2.31 c 3.2 -2.61 5.79 -5.64 8.46 -8.77 c 2.1 -2.43 4.39 -4.64 6.66 -6.91 c 0.825 -0.99 1.65 -1.98 2.5 -3 c 2.37 -2.84 4.88 -5.38 7.5 -8 c 8.96 -9.71 16.1 -20.9 23.1 -32.1 c 1.23 -1.93 2.46 -3.85 3.7 -5.77 c 3.16 -4.91 6.14 -9.85 8.92 -15 c 1.74 -3.04 3.71 -5.89 5.72 -8.75 c 1.65 -2.64 3 -5.34 4.37 -8.13 c 2.23 -4.45 4.64 -8.81 7.03 -13.2 c 0.504 -0.929 1.01 -1.86 1.53 -2.82 c 2.51 -4.6 5.07 -9.14 7.79 -13.6 c 2.14 -3.53 4.09 -7.08 5.87 -10.8 c 2.39 -4.85 4.86 -9.43 7.94 -13.9 h 2 c 0.289 -0.784 0.577 -1.57 0.875 -2.38 c 1.12 -2.62 1.12 -2.62 3.12 -4.62 c 0.639 -0.804 1.28 -1.61 1.94 -2.44 c 3.48 -4.32 6.9 -7.39 12.1 -9.56 c 2.62 -0.125 2.62 -0.125 5 1 c 5.92 5.92 8.33 12.5 9.17 20.7 c 0.0796 0.732 0.159 1.46 0.241 2.22 c 0.874 8.8 0.894 17.6 0.837 26.4 c -0.00343 0.875 -0.00687 1.75 -0.0104 2.65 c -0.113 24.7 -2.57 49 -5.56 73.5 c -0.165 1.36 -0.165 1.36 -0.333 2.76 c -0.208 1.71 -0.418 3.43 -0.633 5.14 c -0.51 4.21 -0.823 8.29 -0.711 12.5 c 3.49 -0.77 3.49 -0.77 7 -2 c 0.33 -0.99 0.66 -1.98 1 -3 c 1.86 -1.62 1.86 -1.62 4.31 -3.44 c 5.01 -3.87 9.39 -8.13 13.8 -12.7 c 1.28 -1.32 2.6 -2.6 3.94 -3.86 h 2 c 0.21 -0.548 0.42 -1.1 0.637 -1.66 c 1.85 -3.18 4.44 -5.37 7.18 -7.78 c 1.05 -0.935 2.1 -1.87 3.14 -2.81 c 0.51 -0.457 1.02 -0.913 1.55 -1.38 c 3.02 -2.77 5.87 -5.71 8.68 -8.68 c 1.81 -1.69 1.81 -1.69 3.81 -1.69 c 0.25 -0.577 0.5 -1.15 0.757 -1.75 c 1.42 -2.57 3.03 -4.25 5.13 -6.3 c 0.774 -0.763 1.55 -1.53 2.35 -2.31 c 0.81 -0.789 1.62 -1.58 2.46 -2.39 c 6.55 -6.41 12.8 -12.9 18.6 -20.1 c 1.75 -2.19 1.75 -2.19 3.24 -3.58 c 1.64 -1.74 2.47 -3.27 3.45 -5.44 c 0.338 -0.735 0.675 -1.47 1.02 -2.23 c 0.343 -0.763 0.686 -1.53 1.04 -2.31 c 2.13 -4.7 4.24 -9.25 7 -13.6 c 0.509 -0.874 1.02 -1.75 1.54 -2.65 c 3.8 -6.3 7.74 -10.8 13.5 -15.4 c 0.66 -0.701 1.32 -1.4 2 -2.12 c 3.01 -2.83 6.45 -4.78 10 -6.88 c 0.887 -0.598 1.77 -1.2 2.69 -1.81 c 5.91 -2.12 12.8 -2.57 18.7 -0.238 c 2.01 1.23 3.78 2.55 5.59 4.05 c 0.565 0.419 1.13 0.838 1.71 1.27 c 3.29 2.53 5.71 4.88 7.29 8.73 c 0.229 3.02 0.178 5.98 0 9 c -3.12 0.468 -5.26 0.466 -7.97 -1.23 c -1.37 -1.07 -2.73 -2.15 -4.09 -3.23 c -3.49 -2.76 -6.59 -4.37 -11 -4.91 c -3.49 0.446 -5.1 1.3 -7.94 3.38 c -0.512 0.356 -1.02 0.712 -1.55 1.08 c -6.24 4.77 -10.2 11.4 -14.4 17.9 c -0.509 0.772 -1.02 1.54 -1.54 2.34 c -8.36 13 -15.3 28.9 -14.5 44.7 c 0.681 -0.712 0.681 -0.712 1.38 -1.44 c 1.62 -1.56 1.62 -1.56 3.62 -2.56 c 0.371 -1.21 0.371 -1.21 0.75 -2.44 c 1.41 -4.02 3.38 -7.25 5.61 -10.9 c 1.63 -2.7 3.15 -5.43 4.64 -8.21 c 2.42 -4.5 5 -8.87 7.7 -13.2 c 1.34 -2.37 2.34 -4.74 3.3 -7.29 h 2 c 0.186 -0.66 0.371 -1.32 0.562 -2 c 2.03 -4.24 4.84 -7.94 8.44 -11 h 4 v 2 h 2 c 3.82 5.65 4.54 9.7 4.56 16.4 c 0.31 19.3 0.31 19.3 9.44 35.6 c 5.27 4.34 10.4 5.84 17.2 5.48 c 13.2 -2.28 25.8 -14.5 33.5 -24.8 c 3.44 -5.3 5.15 -10.4 6.5 -16.5 c 3.1 -13.5 3.1 -13.5 6.71 -17.1 c 0.674 -1.73 1.29 -3.49 1.88 -5.25 c 2.38 -6.67 5.12 -11.8 11.1 -15.8 c 3.65 -1.68 7.11 -1.85 11 -0.922 c 2.56 2.12 2.56 2.12 4 5 c 0.401 4.54 -0.233 7.04 -2.62 10.9 c -3.74 6.48 -6.21 13.2 -8.71 20.3 c -0.931 2.61 -1.9 5.21 -2.86 7.81 c -0.311 0.871 -0.621 1.74 -0.941 2.64 c -0.546 1.52 -1.11 3.03 -1.71 4.53 c -3.58 9.48 -6.29 24.1 -3.16 33.9 c 4.93 -0.149 7.19 -2.79 10.4 -6.11 c 1.61 -1.82 1.61 -1.82 2.57 -3.93 c 1.06 -2.12 2.28 -3.31 3.98 -4.96 c 0.907 -1.27 1.78 -2.56 2.62 -3.88 c 3.32 -5.07 6.77 -10 10.2 -15 c 3.28 -4.75 6.45 -9.55 9.52 -14.4 c 0.605 -0.947 1.21 -1.89 1.83 -2.87 c 1.13 -1.78 2.26 -3.56 3.37 -5.35 c 3 -4.72 5.7 -8.38 10.4 -11.5 c 3.88 -0.812 3.88 -0.812 7 -1 c 4.59 6.37 5.13 11.1 5.25 18.8 c 0.033 1.54 0.0662 3.08 0.0996 4.61 c 0.0472 2.4 0.0917 4.8 0.131 7.2 c 0.15 15.3 0.15 15.3 4.84 29.7 c 0.388 0.812 0.776 1.62 1.18 2.46 c 1.89 2.7 3.52 3.79 6.51 5.16 c 7.73 1.18 13.4 -0.0709 20 -4 h 2 c 0.33 -0.99 0.66 -1.98 1 -3 c 1.32 -0.685 2.66 -1.35 4 -2 c 1.36 -1.31 2.69 -2.65 4 -4 c 1.18 -1.03 2.37 -2.05 3.56 -3.06 c 0.686 -0.628 1.37 -1.26 2.08 -1.9 c 2.36 -2.04 2.36 -2.04 5.22 -3.91 c 6.24 -4.74 8.29 -8.29 9.4 -16 c 0.558 -5.1 0.889 -10.2 1.18 -15.3 c 0.488 -7.97 2.08 -15.7 7.56 -21.8 c 3.25 -0.375 3.25 -0.375 6 0 v 2 c 1.32 0.66 2.64 1.32 4 2 c 0.277 13.5 -0.508 26.6 -2 40 c 4.7 -1.94 8.04 -3.75 12 -7 c 6.97 -4.01 13.5 -4.15 21.3 -4.1 c 0.879 0.00141 1.76 0.00283 2.66 0.00429 c 2.79 0.00557 5.58 0.0181 8.37 0.0309 c 1.9 0.00502 3.8 0.00958 5.7 0.0137 c 4.64 0.011 9.28 0.0282 13.9 0.0488 c 0.464 -0.932 0.928 -1.86 1.41 -2.82 c 1.48 -2.95 3.01 -5.85 4.59 -8.74 c 0.743 -1.36 0.743 -1.36 1.5 -2.75 c 2.23 -3.99 4.21 -7.5 7.5 -10.7 c 0.964 -1.37 1.92 -2.75 2.88 -4.12 c 5.64 -7.31 14.7 -14.1 23.7 -16.6 c 6.38 -0.78 13.8 -0.721 19.4 2.71 c 4.65 4.04 10.3 9.84 11.4 16.1 c -0.00391 1.93 -0.00391 1.93 -0.379 4.86 c -5.4 0.514 -7.71 -0.822 -12 -4 c -3.86 -2.79 -6.86 -4.82 -11.6 -5.56 c -3.97 0.662 -6.17 2.18 -9.38 4.56 h -2 c -0.241 0.553 -0.482 1.11 -0.73 1.68 c -1.55 2.84 -3.48 5.06 -5.58 7.51 c -3.91 4.72 -6.97 9.33 -9.69 14.8 c -0.504 0.995 -1.01 1.99 -1.53 3.02 c -1.51 2.99 -2.99 5.98 -4.47 8.98 c -0.519 0.968 -1.04 1.94 -1.57 2.93 c -3.54 7.62 -5.08 16.7 -4.43 25.1 c 0.33 0.33 0.66 0.66 1 1 c 0.155 -0.897 0.155 -0.897 0.312 -1.81 c 0.688 -2.19 0.688 -2.19 2.06 -3.52 c 1.96 -2.01 3.02 -4.05 4.31 -6.54 c 2.26 -4.26 4.67 -8.36 7.25 -12.4 c 2.81 -4.5 5.27 -9.03 7.56 -13.8 c 3.55 -7.28 7.62 -15.3 14.5 -19.9 c 2.44 -0.375 2.44 -0.375 5 0 c 4.48 3.66 4.86 6.81 5.64 12.3 c 0.414 4.25 0.612 8.48 0.797 12.7 c 0.498 10.7 1.78 20 9.56 27.9 c 5.11 4.25 9.81 5.38 16.3 5.26 c 11 -1.08 21.7 -10.6 28.7 -18.6 c 0.988 -1.22 1.97 -2.45 2.94 -3.69 c 0.742 -0.825 1.49 -1.65 2.25 -2.5 c 4.74 -6.77 5.54 -14.5 6.57 -22.5 c 0.725 -5.16 1.95 -9.27 4.18 -14 c 0.491 -1.31 0.973 -2.62 1.44 -3.94 c 4.79 -12.8 4.79 -12.8 9.56 -15.1 c 3.25 -0.188 3.25 -0.188 6 0 c 0.33 0.99 0.66 1.98 1 3 h 2 c 3.44 6.88 0.296 16.5 -1.14 23.6 c -1.12 5.55 -1.99 11.1 -2.86 16.7 c -0.895 5.57 -0.895 5.57 -2 6.68 c -0.287 1.66 -0.515 3.33 -0.719 5 c -0.128 1.03 -0.255 2.07 -0.387 3.13 c -0.13 1.09 -0.26 2.18 -0.395 3.31 c -0.13 1.06 -0.26 2.11 -0.395 3.2 c -0.381 3.12 -0.747 6.24 -1.11 9.36 c -0.103 0.892 -0.206 1.78 -0.312 2.7 c -0.589 5.43 -0.847 10.8 -0.813 16.2 c 0.0029 1.16 0.0029 1.16 0.00586 2.34 c 0.0447 5.94 0.391 11.8 1.12 17.7 c 1.46 -0.0601 2.92 -0.149 4.38 -0.25 c 0.812 -0.0464 1.62 -0.0928 2.46 -0.141 c 2.31 -0.379 2.31 -0.379 3.2 -2.41 c 0.476 -1.09 0.476 -1.09 0.961 -2.2 c 1.33 -1.34 2.66 -2.67 4 -4 c 5.74 -7.6 10.7 -15.5 15 -24 c 0.297 -0.581 0.595 -1.16 0.901 -1.76 c 7.46 -14.6 15 -29.5 21.1 -44.7 c 2.47 -6.12 5.23 -12.9 10 -17.5 c 2.75 -0.812 2.75 -0.812 5 -1 v 2 h 2 c 0.335 7.46 0.154 13.2 -3 20 c -0.876 2.08 -1.75 4.17 -2.62 6.25 c -7.17 16.6 -14.6 32.9 -23.4 48.8 c -1.13 2.06 -2.25 4.12 -3.38 6.19 c -0.875 1.6 -1.75 3.21 -2.62 4.81 h -2 c -0.206 0.846 -0.412 1.69 -0.625 2.56 c -1.5 3.75 -3.34 5.99 -6.04 8.92 c -1.44 1.49 -1.44 1.49 -2.34 3.52 h -2 c -0.249 0.596 -0.498 1.19 -0.754 1.8 c -1.43 2.52 -2.84 3.65 -5.18 5.32 c -0.69 0.498 -1.38 0.995 -2.09 1.51 c -5.74 3.98 -10 4.35 -17 3.37 c -6.1 -2.71 -10.4 -7.94 -13 -14 c -0.903 -3.31 -1.53 -6.6 -2 -10 h -1 c -0.33 -9.57 -0.66 -19.1 -1 -29 h -4 c -0.223 0.578 -0.446 1.16 -0.676 1.75 c -3.73 6.35 -14.2 12.7 -21.2 14.8 c -3.77 0.753 -7.56 0.642 -11.4 0.665 c -0.83 0.0206 -1.66 0.0412 -2.51 0.0625 c -10.1 0.0639 -17 -4.3 -24.2 -11.3 c -6.38 -8.31 -10 -16.8 -12 -27 c -2.65 2.38 -4.16 4.86 -5.81 8 c -0.526 0.984 -1.05 1.97 -1.59 2.98 c -1 1.9 -2 3.8 -3 5.7 c -2.87 5.39 -5.94 10.6 -9.22 15.8 c -0.372 0.591 -0.745 1.18 -1.13 1.79 c -5.22 8.09 -5.22 8.09 -10.2 9.77 c -5.3 0.386 -10.2 0.559 -15 -2 v -2 h -2 c -0.66 -1.65 -1.32 -3.3 -2 -5 h -1 c -2.44 -10.6 -1.16 -21.7 2 -32 c 0.34 -1.33 0.675 -2.66 1 -4 c -4.25 -0.059 -8.5 -0.0939 -12.8 -0.125 c -1.19 -0.0168 -2.37 -0.0335 -3.6 -0.0508 c -13.6 -0.444 -13.6 -0.444 -25.7 4.49 c -0.66 0.887 -1.32 1.77 -2 2.69 c -0.628 0.722 -1.26 1.44 -1.9 2.19 c -2.49 3.33 -4.05 6.69 -5.66 10.5 c -0.304 0.718 -0.609 1.44 -0.923 2.17 c -0.853 2.04 -1.69 4.09 -2.51 6.14 l -1.05 2.57 c -2.3 6.55 -2.66 13.4 -3.13 20.3 c -0.392 5.04 -1.16 8.7 -3.82 13.1 c -1.44 0.108 -2.87 0.186 -4.31 0.25 c -0.801 0.0464 -1.6 0.0928 -2.43 0.141 c -2.26 -0.391 -2.26 -0.391 -3.88 -1.83 c -2.1 -3.9 -1.75 -7.57 -1.67 -11.9 c 0.00424 -0.904 0.00849 -1.81 0.0129 -2.74 c 0.0168 -2.88 0.0544 -5.77 0.0926 -8.65 c 0.015 -1.96 0.0287 -3.91 0.041 -5.87 c 0.033 -4.79 0.0848 -9.59 0.146 -14.4 c -1.28 0.957 -2.56 1.91 -3.84 2.87 c -0.713 0.533 -1.43 1.07 -2.16 1.62 c -2.28 1.73 -4.48 3.55 -6.68 5.39 c -11 8.84 -20.2 14.2 -34.4 14.4 c -0.673 0.018 -1.35 0.0361 -2.04 0.0547 c -7.16 -0.014 -12.7 -2.44 -17.9 -7.37 c -3 -4.34 -3 -4.34 -3 -7 h -2 c -0.277 -0.927 -0.554 -1.85 -0.84 -2.81 c -0.362 -1.2 -0.724 -2.4 -1.1 -3.63 c -0.36 -1.19 -0.719 -2.39 -1.09 -3.62 c -0.682 -2.8 -0.682 -2.8 -1.97 -3.94 c -0.91 -5.7 -1.13 -11.2 -1.06 -17 c 0.00451 -0.775 0.00902 -1.55 0.0137 -2.35 c 0.0116 -1.88 0.0296 -3.77 0.0488 -5.65 c -1.32 -0.33 -2.64 -0.66 -4 -1 c -0.309 0.784 -0.619 1.57 -0.938 2.38 c -1.06 2.62 -1.06 2.62 -2.06 4.62 h -2 c -0.247 0.866 -0.495 1.73 -0.75 2.62 c -1.34 3.61 -3.08 6.21 -5.25 9.38 c -0.803 1.45 -1.59 2.91 -2.38 4.38 c -2.15 3.95 -4.62 7.46 -7.39 11 c -1.31 1.62 -1.31 1.62 -2.23 3.63 h -2 c -0.245 0.723 -0.49 1.45 -0.742 2.19 c -3.47 7.75 -11.1 14.4 -18.3 18.8 c -4.07 1.36 -7.75 1.53 -12 1 c -3.31 -1.75 -3.31 -1.75 -6 -4 c -0.742 -0.578 -1.48 -1.16 -2.25 -1.75 c -4.3 -5.53 -4.22 -13.5 -4.75 -20.2 c -3.61 1.28 -6.16 2.77 -9.06 5.25 c -11.1 8.86 -22.8 13 -36.9 11.8 c -10 -2.27 -18.1 -11 -23.8 -19.1 c -3.9 -6.26 -5.07 -12.7 -6.18 -19.9 c -3.42 3.07 -5.27 6.12 -7.25 10.2 c -0.521 1.08 -1.04 2.16 -1.58 3.27 c -0.387 0.82 -0.773 1.64 -1.17 2.48 h -2 c -0.99 2.97 -1.98 5.94 -3 9 h -2 c -0.34 1.55 -0.34 1.55 -0.688 3.12 c -1.8 6.28 -6.75 10.4 -11.3 14.9 c -0.33 0.33 -0.66 0.66 -1 1 c -1.91 0.153 -3.83 0.222 -5.75 0.25 c -1.05 0.0258 -2.09 0.0516 -3.17 0.0781 c -3.49 -0.372 -5.28 -1.24 -8.08 -3.33 c -3.59 -4.88 -5.13 -7.63 -5.06 -13.6 c 0.00902 -1 0.018 -2.01 0.0273 -3.04 c 0.0174 -1.16 0.0174 -1.16 0.0352 -2.34 c -4.1 2.98 -7.16 6.4 -10.4 10.3 c -1.65 1.71 -1.65 1.71 -4.65 2.71 c -0.668 1.33 -1.33 2.67 -2 4 c -1.66 1.82 -3.37 3.59 -5.12 5.31 c -0.496 0.489 -0.991 0.979 -1.5 1.48 c -3.29 3.23 -6.7 6.27 -10.2 9.26 c -3.4 3.06 -6.58 6.34 -9.79 9.6 c -3.64 3.67 -7.4 7.04 -11.4 10.3 c -2.27 2.2 -4.44 4.46 -6.62 6.75 c -2.38 2.25 -2.38 2.25 -4.38 2.25 c -0.232 0.57 -0.464 1.14 -0.703 1.73 c -1.62 2.84 -3.58 4.52 -6.05 6.65 c -3.03 2.65 -5.97 5.29 -8.75 8.19 c -2.5 2.44 -2.5 2.44 -4.5 2.44 c -0.402 1.24 -0.402 1.24 -0.812 2.5 c -0.819 2.41 -1.71 4.8 -2.65 7.17 c -1.61 4.3 -2.53 8.57 -3.35 13.1 c -0.338 1.76 -0.678 3.52 -1.02 5.28 c -0.276 1.43 -0.276 1.43 -0.557 2.88 c -3.6 18.2 -7.25 36.5 -12.8 54.3 c -0.713 2.38 -1.38 4.76 -2.04 7.16 c -0.215 0.788 -0.431 1.58 -0.653 2.39 c -0.425 1.56 -0.848 3.13 -1.27 4.69 c -1.36 4.99 -3 9.78 -4.89 14.6 c -0.55 1.43 -1.1 2.86 -1.65 4.3 c -22.2 57.3 -22.2 57.3 -37.5 64.8 c -1.98 0.782 -1.98 0.782 -2.63 2.79 c -2.32 4.21 -6.94 6.17 -11.2 8.14 c -3.81 0.688 -3.81 0.688 -7 0 c -3.58 -2.85 -5.83 -6 -8 -10 c 0.652 -0.242 1.3 -0.485 1.98 -0.734 c 9.14 -3.51 17.5 -8.17 22 -17.3 c 0.984 -1.94 0.984 -1.94 2.43 -3.36 c 2.02 -2.04 3.15 -4.23 4.5 -6.76 c 0.522 -0.98 1.04 -1.96 1.58 -2.97 c 1.87 -3.59 3.69 -7.21 5.48 -10.8 c 0.339 -0.668 0.678 -1.34 1.03 -2.02 c 0.342 -0.673 0.683 -1.35 1.04 -2.04 c 0.451 -0.884 0.451 -0.884 0.91 -1.79 c 2.59 -5.43 4.67 -10.9 6.53 -16.6 c 2.61 -7.97 2.61 -7.97 4 -11.6 c 5.98 -15.6 10.9 -31.8 13.9 -48.2 c 0.578 -2.78 0.578 -2.78 1.58 -3.78 c 0.369 -1.91 0.683 -3.83 0.973 -5.75 c 0.177 -1.17 0.354 -2.33 0.537 -3.53 c 0.182 -1.23 0.365 -2.45 0.553 -3.72 c 0.186 -1.23 0.373 -2.45 0.564 -3.72 c 0.94 -5.12 0.94 -5.12 1.37 -10.3 c -3.93 2.86 -6.9 6.1 -10 9.78 c -2.85 3.22 -5.95 6.17 -9.05 9.14 c -1.96 1.92 -1.96 1.92 -2.87 4.03 c -1.49 2.9 -3.72 4.78 -6.05 7.05 c -15.6 17.9 -30.5 38.6 -41 60 c -0.544 1.03 -1.09 2.06 -1.65 3.12 c -8 15.4 -12.4 30.6 -12.7 48.1 c -0.852 3.76 -2.45 4.77 -5.64 6.81 c -2.69 0.875 -2.69 0.875 -5 1 c -3.56 -3.56 -3.15 -7.72 -3.19 -12.5 c 0.0152 -13 1.66 -24.2 6.19 -36.5 c 0.418 -1.14 0.835 -2.29 1.27 -3.47 c 1.92 -5.14 3.8 -9.88 6.73 -14.5 c 0.449 -0.755 0.897 -1.51 1.36 -2.29 c 7.2 -12.1 14.8 -23.7 23.6 -34.7 c 6.07 -7.67 6.07 -7.67 11.2 -15.9 c 1.9 -3.32 4.03 -5.37 6.75 -8.06 c 1.98 -2.19 3.9 -4.44 5.81 -6.69 c 0.783 -0.914 0.783 -0.914 1.58 -1.85 c 3.83 -4.49 7.5 -9.08 11.1 -13.8 c 0.503 -0.559 1.01 -1.12 1.52 -1.7 h 2 c 0.238 -0.75 0.477 -1.5 0.723 -2.27 c 1.48 -3.15 2.91 -4.34 5.71 -6.35 c 2.74 -1.99 5.2 -3.95 7.56 -6.38 c 0.866 -0.681 1.73 -1.36 2.62 -2.06 c 2.44 -1.72 2.44 -1.72 3.38 -3.94 h 2 c 0.193 -1.09 0.387 -2.17 0.586 -3.29 c 0.263 -1.45 0.526 -2.89 0.789 -4.34 c 0.126 -0.713 0.253 -1.43 0.383 -2.16 c 0.129 -0.703 0.258 -1.41 0.391 -2.13 c 0.115 -0.639 0.23 -1.28 0.349 -1.94 c 0.502 -2.15 0.502 -2.15 1.5 -4.96 c 1.09 -3.48 1.49 -6.67 1.81 -10.3 c 0.0614 -0.655 0.123 -1.31 0.186 -1.98 c 0.193 -2.07 0.378 -4.14 0.56 -6.21 c 0.187 -2.09 0.376 -4.18 0.571 -6.27 c 0.175 -1.88 0.342 -3.76 0.51 -5.65 c 0.357 -2.77 0.357 -2.77 1.36 -3.77 c 0.44 -3.09 0.819 -6.17 1.16 -9.28 c 0.107 -0.974 0.214 -1.95 0.324 -2.95 c 0.349 -3.24 0.686 -6.47 1.02 -9.71 c 0.114 -1.1 0.229 -2.2 0.346 -3.34 c 2.53 -24.9 3.07 -49.7 3.15 -74.7 c -2.95 2.87 -5.12 5.56 -7.19 9.12 c -0.509 0.869 -1.02 1.74 -1.54 2.63 c -0.79 1.4 -1.55 2.81 -2.27 4.24 h -2 c -0.247 0.866 -0.495 1.73 -0.75 2.62 c -1.33 3.6 -3.07 6.23 -5.25 9.38 c -1.35 2.33 -2.68 4.66 -4 7 c -0.713 1.25 -1.43 2.5 -2.14 3.75 c -0.348 0.609 -0.696 1.22 -1.05 1.85 l -4.8 8.41 h -2 c -0.186 0.949 -0.371 1.9 -0.562 2.88 c -1.27 4.51 -3.9 7.84 -6.64 11.6 c -2.14 3.03 -3.87 6.19 -5.62 9.46 c -1.14 2 -2.37 3.8 -3.75 5.65 c -2.67 3.59 -4.52 7.4 -6.44 11.4 h -2 c -0.206 0.804 -0.413 1.61 -0.625 2.44 c -1.78 4.62 -4.24 8.72 -7.38 12.6 h -2 c -0.257 0.719 -0.513 1.44 -0.777 2.18 c -3.59 8.29 -10.4 15.4 -16.1 22.3 c -1.37 1.65 -2.71 3.32 -4.03 5.02 c -2.2 2.68 -4.56 5.07 -7.05 7.49 c -0.825 0.825 -1.65 1.65 -2.5 2.5 c -2.5 2.5 -5 5 -7.5 7.5 c -0.824 0.83 -1.65 1.66 -2.5 2.52 c -2.48 2.46 -5 4.87 -7.57 7.23 c -0.837 0.779 -1.67 1.56 -2.54 2.36 c -2.34 1.84 -3.61 2.22 -6.4 2.89 c -0.33 0.99 -0.66 1.98 -1 3 c -1.32 0.685 -2.66 1.35 -4 2 c -0.619 0.619 -1.24 1.24 -1.88 1.88 c -2.49 2.49 -5.15 4.24 -8.12 6.12 c -1.36 0.866 -1.36 0.866 -2.75 1.75 c -2.25 1.25 -2.25 1.25 -4.25 1.25 v 2 c -5.65 3.04 -11.3 6.04 -17 9 c -1.02 0.53 -2.04 1.06 -3.09 1.61 c -11.7 5.72 -24 6.91 -36.9 6.77 c -1.31 -0.0102 -2.63 -0.0203 -3.98 -0.0308 c -19.4 -0.311 -32.2 -4.33 -46.1 -18.3 c -17 -18.6 -17 -18.6 -17 -27 h -2 c -6.54 -14.2 -11.2 -28.4 -13 -44 h -1 c -4.06 -27.9 -4.02 -59.1 0 -87 c 0.33 -0.33 0.66 -0.66 1 -1 c 0.274 -1.71 0.491 -3.42 0.684 -5.14 c 0.123 -1.05 0.246 -2.11 0.373 -3.19 c 0.252 -2.22 0.502 -4.44 0.75 -6.66 c 0.619 -5.27 1.35 -10 3.19 -15 c 0.56 -3.06 0.999 -6.12 1.44 -9.2 c 0.562 -2.8 0.562 -2.8 1.52 -4.66 c 1.59 -3.29 2.01 -6.83 2.66 -10.4 c 2.16 -11 5.75 -21.5 9.44 -32 c 0.834 -2.41 1.64 -4.83 2.43 -7.26 c 0.217 -0.669 0.435 -1.34 0.658 -2.03 c 0.551 -1.7 1.1 -3.41 1.65 -5.11 c 5.53 -15.2 13.2 -30.3 21.2 -44.3 c 0.789 -1.4 1.58 -2.81 2.36 -4.21 c 2.21 -3.93 4.42 -7.86 6.64 -11.8 h 2 c 0.242 -0.694 0.485 -1.39 0.734 -2.1 c 1.47 -3.38 3.4 -6.28 5.52 -9.27 c 0.604 -0.864 0.604 -0.864 1.22 -1.74 c 2.54 -3.6 5.2 -7 8.14 -10.3 c 1.55 -1.79 2.89 -3.68 4.26 -5.61 c 2.72 -3.69 5.81 -6.55 9.32 -9.48 c 1.9 -1.55 1.9 -1.55 3.8 -3.58 c 8.7 -8.43 19.6 -15 31 -18.9 c 0.808 -0.287 1.62 -0.575 2.45 -0.871 c 17.2 -5.94 36.4 -4.62 51.6 5.87 z m 21 85 l 1 3 z m -182 67 l 1 2 z m 182 21 l 1 4 z m -188 2 l 1 2 z m -4 18 l 1 3 z m 187 11 l 1 4 z m 471 1 l 1 4 z m 204 2 l 1 3 z m -864 1 l 1 2 z m -2 10 v 5 h 1 v -5 h -1 z m 514 1 l 1 2 z m -515 12 l 1 2 z m 189 2 l 1 2 z m 394 7 l 1 3 z m 152 0 l 1 2 z m -2 7 l 1 3 z m -1 8 l 1 4 z m -447 5 l 1 2 z m 447 3 l 1 4 z m -451 30 v 5 h 1 v -5 h -1 z m -5 36 l 1 2 z m -8 45 l 1 4 z m -21 80 l 1 2 z m -75 56 l 1 2 z" stroke-linecap="round"/>
</g>
		<g transform="matrix(0.8 0 0 0.8 43.9301 -206.467)">
<path style="stroke: none; stroke-width: 1; stroke-dasharray: none; stroke-linecap: butt; stroke-dashoffset: 0; stroke-linejoin: miter; stroke-miterlimit: 4; is-custom-font: none; font-file-url: none; fill: rgb(155,163,176); fill-rule: nonzero; opacity: 1;" transform=" translate(-51.9126, -154.9162)" d="m 0 0 c 1.48 -0.00415 1.48 -0.00415 2.99 -0.00839 c 2.81 -0.00578 5.63 -0.00402 8.44 0.00058 c 0.862 -0.00197 1.72 -0.00394 2.61 -0.00597 c 5.97 0.0235 5.97 0.0235 7.08 1.14 c 2.71 0.362 5.4 0.668 8.12 0.938 c 0.815 0.085 1.63 0.17 2.47 0.258 c 2.62 0.272 5.23 0.539 7.85 0.805 c 2.61 0.266 5.22 0.533 7.84 0.805 c 1.63 0.17 3.26 0.335 4.88 0.498 c 5.62 0.585 5.62 0.585 7.84 1.7 c 1.49 0.309 2.98 0.581 4.48 0.832 c 0.91 0.157 1.82 0.314 2.76 0.475 c 1.46 0.25 1.46 0.25 2.95 0.505 c 22.4 3.96 22.4 3.96 28.7 7.16 c 2.08 1.02 4.06 1.69 6.28 2.32 c 0.808 0.233 1.62 0.467 2.45 0.708 c 0.858 0.246 1.72 0.492 2.6 0.746 c 9.1 2.67 17.9 5.75 26.8 9.25 c 0.775 0.305 1.55 0.61 2.35 0.924 c 15.8 6.27 30.9 13.5 45.7 22.1 v 2 c 0.737 0.115 1.47 0.229 2.23 0.347 c 2.82 0.665 4.6 1.55 7.02 3.09 c 1.18 0.746 1.18 0.746 2.38 1.51 c 0.821 0.533 1.64 1.07 2.49 1.61 c 1.27 0.816 1.27 0.816 2.57 1.65 c 6.27 4.05 12.3 8.3 18.3 12.8 c 1.85 1.34 3.71 2.67 5.56 4 c 10.9 7.93 21 16.7 30.9 25.8 c 3.26 3 6.56 5.95 9.89 8.88 c 3.62 3.24 6.84 6.63 9.97 10.3 c 1.84 2.11 3.78 4.07 5.78 6.03 c 7.24 7.15 7.24 7.15 9.94 10.9 v 2 h 2 c 0.268 0.804 0.536 1.61 0.812 2.44 c 0.588 1.27 0.588 1.27 1.19 2.56 c 0.99 0.33 1.98 0.66 3 1 c 0.957 1.37 1.9 2.74 2.79 4.16 c 1.34 2.03 2.81 3.88 4.34 5.78 c 7.69 9.79 14.3 20.5 20.9 31.1 c 0.558 0.884 1.12 1.77 1.69 2.68 c 1.31 2.32 1.31 2.32 1.31 4.32 h 2 c 11.2 19.9 11.2 19.9 15 28 c 0.371 0.784 0.742 1.57 1.12 2.38 c 1.33 2.86 2.61 5.74 3.88 8.62 c 0.293 0.661 0.586 1.32 0.887 2 c 4.54 10.3 8.51 20.7 11.9 31.4 c 0.407 1.27 0.407 1.27 0.823 2.57 c 0.237 0.754 0.474 1.51 0.719 2.28 c 0.491 1.74 0.491 1.74 1.63 2.74 c 0.851 10.8 0.898 20 -6.38 28.6 c -1.31 1.36 -1.31 1.36 -3.62 3.36 c -0.66 0.66 -1.32 1.32 -2 2 c -2.62 -0.375 -2.62 -0.375 -5 -1 c -0.696 -2.46 -1.38 -4.91 -2.06 -7.38 c -0.199 -0.699 -0.398 -1.4 -0.604 -2.12 c -1.45 -5.28 -1.45 -5.28 -0.334 -7.51 h -2 c -1.12 -5.75 -1.12 -5.75 0 -8 h 2 c 2.2 -7.1 2.34 -16.9 -0.625 -23.8 c -0.76 -1.41 -1.55 -2.81 -2.38 -4.19 c -0.447 -0.843 -0.895 -1.69 -1.36 -2.55 c -3.53 -6.38 -7.44 -10.8 -13.6 -14.7 c -6.68 -4.37 -9.94 -10.5 -13 -17.8 v -3 c -0.66 -0.33 -1.32 -0.66 -2 -1 c -0.911 -1.33 -1.76 -2.7 -2.57 -4.09 c -0.499 -0.842 -0.997 -1.68 -1.51 -2.55 c -0.529 -0.903 -1.06 -1.81 -1.6 -2.74 c -1.1 -1.85 -2.2 -3.7 -3.3 -5.55 c -0.527 -0.888 -1.05 -1.78 -1.6 -2.69 c -9.88 -16.6 -21.6 -31.9 -34.4 -46.4 c -1.31 -1.52 -2.63 -3.04 -3.94 -4.56 c -1.9 -2.17 -3.81 -4.17 -5.88 -6.19 c -2.19 -2.25 -2.19 -2.25 -3.25 -4.44 c -1.24 -2.39 -2.54 -2.65 -4.94 -3.81 c -2.75 -2.5 -2.75 -2.5 -5 -5 v -2 c -0.597 -0.267 -1.19 -0.534 -1.81 -0.809 c -2.24 -1.22 -3.54 -2.39 -5.25 -4.25 c -4.61 -4.76 -9.77 -8.81 -14.9 -12.9 c -0.895 -0.728 -1.79 -1.46 -2.71 -2.21 c -2.15 -1.81 -2.15 -1.81 -4.29 -2.79 v -2 c -0.722 -0.248 -1.44 -0.495 -2.19 -0.75 c -3.07 -1.37 -5.22 -3.13 -7.81 -5.25 c -1.31 -0.709 -2.64 -1.39 -4 -2 v -2 c -1.18 -0.464 -1.18 -0.464 -2.38 -0.938 c -2.62 -1.06 -2.62 -1.06 -4.62 -2.06 v -2 c -0.949 -0.309 -1.9 -0.619 -2.88 -0.938 c -3.12 -1.06 -3.12 -1.06 -5.12 -2.06 v -2 c -1.18 -0.278 -1.18 -0.278 -2.38 -0.562 c -3.24 -1.29 -5.24 -2.52 -8 -4.56 c -6.16 -4.47 -12.8 -7.66 -19.7 -10.9 c -1.89 -0.919 -3.76 -1.88 -5.64 -2.84 c -5.61 -2.81 -11.4 -5.18 -17.2 -7.61 c -1.12 -0.473 -2.24 -0.946 -3.39 -1.43 c -9.65 -4.06 -19.2 -8.02 -29.2 -11.1 c -0.702 -0.214 -1.4 -0.428 -2.13 -0.649 c -0.717 -0.218 -1.43 -0.437 -2.17 -0.662 c -2.29 -0.718 -4.57 -1.48 -6.85 -2.24 c -10 -3.34 -19.8 -5.69 -30.2 -7.05 c -2.15 -0.407 -2.15 -0.407 -5.39 -1.37 c -3.9 -1.08 -7.76 -1.75 -11.8 -2.29 c -0.757 -0.106 -1.51 -0.211 -2.3 -0.32 c -2.46 -0.338 -4.92 -0.665 -7.38 -0.988 c -1.27 -0.167 -1.27 -0.167 -2.56 -0.338 c -33 -4.29 -65.8 -3.72 -98.7 0.9 c -1.34 0.179 -2.68 0.357 -4.02 0.535 c -4.91 0.693 -9.68 1.59 -14.5 2.83 c -4.35 1.11 -8.72 2.15 -13.1 3.14 c -19 4.34 -37.7 9.52 -55.5 17.6 c -2.27 1.03 -4.58 1.96 -6.9 2.86 c -1.29 0.53 -1.29 0.53 -2.61 1.07 c -0.852 0.348 -1.7 0.696 -2.58 1.05 c -1.29 0.53 -1.29 0.53 -2.61 1.07 c -2.21 0.805 -2.21 0.805 -4.21 0.805 v 2 c -0.534 0.231 -1.07 0.461 -1.62 0.699 c -8.73 3.82 -17.1 8.03 -25.3 12.9 c -0.964 0.577 -0.964 0.577 -1.95 1.16 c -3.19 1.93 -6.21 3.96 -9.18 6.21 c -0.866 0.413 -1.73 0.825 -2.62 1.25 c -3.97 2.06 -7.42 4.58 -11 7.23 c -2.37 1.52 -2.37 1.52 -4.55 1.98 c -0.901 0.267 -0.901 0.267 -1.82 0.539 c -0.698 1.32 -1.36 2.65 -2 4 c -1.78 1.39 -1.78 1.39 -3.94 2.69 c -4.93 3.09 -9.16 6.77 -13.5 10.7 c -2.58 1.66 -2.58 1.66 -5.24 1.7 c -3.06 -1.37 -3.61 -2.63 -4.96 -5.67 c -0.407 -0.904 -0.815 -1.81 -1.23 -2.74 c -0.376 -0.87 -0.753 -1.74 -1.14 -2.64 c -0.503 -1.01 -0.503 -1.01 -1.02 -2.04 c -1.3 -2.67 -1.98 -4.73 -1.98 -7.71 c 1.36 -3.05 3.02 -3.87 6 -5.25 h 2 v -2 c 1.79 -1.4 1.79 -1.4 4.19 -2.94 c 1.23 -0.797 1.23 -0.797 2.49 -1.61 c 1.72 -1.07 3.45 -2.12 5.2 -3.14 c 2.1 -1.17 2.1 -1.17 3.4 -2.64 c 8.34 -8.1 19.7 -13.9 29.7 -19.7 c 0.605 -0.355 1.21 -0.71 1.83 -1.08 c 7.06 -4.13 14.2 -8.04 21.5 -11.6 c 2.62 -1.33 5.11 -2.79 7.62 -4.32 c 8.08 -4.23 16.4 -7.93 25 -11 c 0.784 -0.295 1.57 -0.59 2.38 -0.895 c 13.5 -5.04 27.3 -8.99 41.2 -12.7 c 1.11 -0.293 1.11 -0.293 2.24 -0.591 c 36.3 -9.54 72.6 -11.9 110 -12 z m 16.1 1.12 l 4 1 z" stroke-linecap="round"/>
</g>
		<g transform="matrix(0.8 0 0 0.8 -281.989 -101.377)">
<path style="stroke: none; stroke-width: 1; stroke-dasharray: none; stroke-linecap: butt; stroke-dashoffset: 0; stroke-linejoin: miter; stroke-miterlimit: 4; is-custom-font: none; font-file-url: none; fill: rgb(155,163,176); fill-rule: nonzero; opacity: 1;" transform=" translate(48.4862, -151.2788)" d="m 0 0 c 0.398 1.3 0.398 1.3 0.805 2.63 c 0.353 1.15 0.706 2.3 1.07 3.49 c 0.348 1.14 0.696 2.27 1.05 3.45 c 0.695 2.23 1.42 4.45 2.16 6.66 c 1.22 3.73 1.56 5.85 0.906 9.77 c -1.82 2.7 -3.81 5.12 -5.96 7.57 c -2.12 2.39 -2.12 2.39 -3.68 5.23 c -0.45 0.724 -0.9 1.45 -1.36 2.2 h -2 c -0.232 0.687 -0.464 1.37 -0.703 2.08 c -1.58 3.55 -3.74 6.51 -6.05 9.61 c -3.57 4.89 -6.9 9.82 -9.95 15.1 c -1.63 2.8 -3.37 5.53 -5.13 8.26 c -1.54 2.59 -2.83 5.28 -4.18 7.98 c -0.752 1.43 -1.51 2.86 -2.27 4.29 c -7.86 14.8 -14.7 29.7 -20.8 45.3 c -0.666 1.68 -1.34 3.36 -2.03 5.03 c -2.06 5.02 -3.75 9.92 -5.07 15.2 c -1.14 4.49 -2.41 8.86 -3.88 13.2 c -0.359 1.49 -0.694 2.99 -1 4.5 c -0.507 2.5 -1.1 4.79 -1.96 7.2 c -1.3 4.16 -1.95 8.31 -2.6 12.6 c -1.31 8.56 -1.31 8.56 -2.44 9.69 c -0.93 4.65 -1.48 9.36 -2.06 14.1 c -0.0922 0.747 -0.184 1.49 -0.279 2.26 c -3.25 27.7 -2 55.9 -1.66 83.7 c -6.32 3.16 -15.5 0.989 -22 -1 v -2 h -2 c -0.0468 -9.45 -0.0821 -18.9 -0.104 -28.4 c -0.0103 -4.39 -0.0243 -8.78 -0.0473 -13.2 c -0.0221 -4.25 -0.0338 -8.51 -0.0389 -12.8 c -0.00364 -1.61 -0.0107 -3.21 -0.0217 -4.82 c -0.0994 -15.2 0.761 -30.2 4.5 -44.9 c 0.705 -2.92 1.2 -5.81 1.65 -8.77 c 1.8 -11.2 5 -22.1 8.06 -33.1 c 0.237 -0.855 0.474 -1.71 0.718 -2.59 c 1.48 -5.2 3.28 -10.2 5.34 -15.2 c 1.83 -4.56 3.22 -9.26 4.7 -13.9 c 1.14 -3.13 2.51 -5.6 4.25 -8.42 c 0.603 -1.61 1.16 -3.24 1.69 -4.88 c 2.19 -6.25 5.25 -11.9 8.43 -17.7 c 1.42 -2.59 2.78 -5.18 4.07 -7.82 c 1.73 -3.53 3.65 -6.94 5.57 -10.4 c 1.85 -3.37 3.54 -6.8 5.24 -10.3 h 2 c 0.396 -1.32 0.396 -1.32 0.801 -2.67 c 6.05 -16.8 21 -32.3 32.3 -46 c 1.52 -1.9 2.87 -3.76 4.15 -5.81 c 2.62 -3.83 4.96 -6.56 9.75 -6.56 z m -90 159 l 1 2 z m -5 20 l 1 2 z m -1 4 l 1 2 z m -4 21 l 1 4 z m -1 8 l 1 3 z m -1 11 l 1 2 z" stroke-linecap="round"/>
</g>
		<g transform="matrix(0.8 0 0 0.8 279.0684 61.332)">
<path style="stroke: none; stroke-width: 1; stroke-dasharray: none; stroke-linecap: butt; stroke-dashoffset: 0; stroke-linejoin: miter; stroke-miterlimit: 4; is-custom-font: none; font-file-url: none; fill: rgb(155,163,176); fill-rule: nonzero; opacity: 1;" transform=" translate(14.1644, -125.665)" d="m 0 0 c 1.98 0.33 3.96 0.66 6 1 c -0.0761 0.987 -0.152 1.97 -0.23 2.99 c 0.00585 4.65 1.79 8.08 3.92 12.1 c 0.34 0.69 0.679 1.38 1.03 2.09 c 2.61 5.1 5.59 8.92 10.4 12.2 c 5.57 4.11 5.57 4.11 6.51 8.1 c 0.08 3.14 -0.114 6.15 -0.408 9.27 c -0.0775 1.16 -0.155 2.32 -0.235 3.52 c -0.226 3.21 -0.491 6.41 -0.775 9.61 c -0.246 2.85 -0.457 5.7 -0.671 8.55 c -1.86 24.7 -5.67 48.2 -12 72.1 c -0.536 2.02 -1.06 4.05 -1.59 6.07 c -0.344 1.3 -0.688 2.6 -1.03 3.89 c -0.458 1.74 -0.458 1.74 -0.926 3.51 c -0.914 2.89 -0.914 2.89 -2.91 5.89 c -0.507 1.67 -0.96 3.36 -1.38 5.06 c -1.46 5.54 -3.41 10.7 -5.62 15.9 c -0.559 1.36 -1.12 2.73 -1.67 4.09 c -8.19 20.1 -8.19 20.1 -13.1 28.6 c -1.27 2.3 -2.44 4.62 -3.59 6.98 c -3.26 6.61 -6.99 12.9 -10.7 19.3 h -2 c -0.402 1.33 -0.402 1.33 -0.812 2.69 c -1.1 3.08 -2.42 5.57 -4.19 8.31 c -7.7 -1.97 -14 -6.96 -20 -12 c 1.69 -4.5 3.82 -8.73 6 -13 h 2 c 0.247 -0.846 0.495 -1.69 0.75 -2.56 c 1.12 -3.07 2.5 -5.63 4.14 -8.44 c 2 -3.59 3.69 -7.33 5.43 -11.1 c 2.76 -5.91 5.59 -11.8 8.56 -17.6 c 2.54 -5.04 4.54 -9.96 6.12 -15.4 c 0.452 -1.4 0.91 -2.79 1.38 -4.19 c 0.245 -0.736 0.49 -1.47 0.742 -2.23 c 1.48 -4.34 3.04 -8.65 4.6 -13 c 2.66 -7.52 5 -15 6.91 -22.8 c 0.217 -0.855 0.433 -1.71 0.656 -2.59 c 0.911 -3.66 1.71 -7.23 2.24 -11 c 0.477 -3.32 0.477 -3.32 1.44 -6.55 c 1.37 -4.98 1.96 -9.97 2.6 -15.1 c 0.248 -1.98 0.499 -3.95 0.754 -5.93 c 0.108 -0.867 0.215 -1.73 0.326 -2.63 c 0.357 -2.14 0.357 -2.14 1.36 -4.14 c 2.32 -14.3 2.19 -29 2.19 -43.4 c 0.000816 -0.79 0.00163 -1.58 0.00247 -2.39 c -0.00102 -8.77 -0.183 -17.5 -0.639 -26.3 c -0.0385 -0.77 -0.077 -1.54 -0.117 -2.33 c -0.167 -3.94 -0.167 -3.94 -1.43 -7.63 z m 0 84 l 1 3 z m -5 29 l 1 3 z m -7 28 l 1 2 z m -11 32 l 1 2 z" stroke-linecap="round"/>
</g>
		<g transform="matrix(0.8 0 0 0.8 -288.3952 110.2506)">
<path style="stroke: none; stroke-width: 1; stroke-dasharray: none; stroke-linecap: butt; stroke-dashoffset: 0; stroke-linejoin: miter; stroke-miterlimit: 4; is-custom-font: none; font-file-url: none; fill: rgb(155,163,176); fill-rule: nonzero; opacity: 1;" transform=" translate(-12.506, -64.8132)" d="m 0 0 c 0.73 2.3 0.73 2.3 1.4 5.32 c 0.251 1.09 0.501 2.19 0.76 3.31 c 0.256 1.15 0.512 2.3 0.775 3.49 c 1.55 6.92 3.03 13.4 6.06 19.9 c 0.503 1.41 0.986 2.82 1.44 4.25 c 1.73 5.3 3.61 10.5 5.56 15.8 c 0.445 1.2 0.445 1.2 0.898 2.43 c 2.6 6.78 5.84 13.2 9.14 19.7 c 0.987 1.95 1.95 3.91 2.92 5.87 c 5.72 11.6 12 22.9 18.9 33.9 c 1.24 2.39 1.72 4.53 2.13 7.18 c -2.01 1.5 -4.03 2.97 -6.06 4.44 c -0.561 0.421 -1.12 0.842 -1.7 1.28 c -4.11 2.94 -7.19 3.93 -12.2 4.29 v -2 h -2 c -1.73 -2.52 -1.73 -2.52 -3.62 -5.81 c -0.632 -1.08 -1.26 -2.16 -1.91 -3.27 c -1.46 -2.92 -1.46 -2.92 -1.46 -5.92 h -2 c -3 -5.62 -3 -5.62 -3 -9 h -2 c -5.6 -10.1 -10.5 -20.4 -15 -31 c -0.725 -1.63 -1.45 -3.25 -2.19 -4.88 c -0.608 -1.37 -1.21 -2.75 -1.81 -4.12 c -0.373 -0.853 -0.745 -1.71 -1.13 -2.59 c -0.37 -0.879 -0.74 -1.76 -1.12 -2.66 c -0.335 -0.789 -0.67 -1.58 -1.02 -2.39 c -0.8 -2.57 -0.867 -4.68 -0.734 -7.36 h -2 c -3.14 -7.58 -5.61 -15 -7.32 -23 c -0.773 -3.39 -1.84 -6.59 -2.99 -9.87 c -0.97 -2.99 -1.62 -6.01 -2.26 -9.09 c -0.401 -2.08 -0.401 -2.08 -1.11 -4.18 c -0.159 -0.922 -0.159 -0.922 -0.32 -1.86 c 4.27 -4.27 19.6 -4.7 25 -2 z m -24 3 l 1 2 z" stroke-linecap="round"/>
</g>
		<g transform="matrix(0.8 0 0 0.8 231.1139 183.1788)">
<path style="stroke: none; stroke-width: 1; stroke-dasharray: none; stroke-linecap: butt; stroke-dashoffset: 0; stroke-linejoin: miter; stroke-miterlimit: 4; is-custom-font: none; font-file-url: none; fill: rgb(155,163,176); fill-rule: nonzero; opacity: 1;" transform=" translate(-3.8924, -28.9735)" d="m 0 0 c 5.5 3.92 10.5 8.21 15.4 12.8 c 4.02 3.72 8.2 7.18 12.5 10.5 c 1.02 0.82 1.02 0.82 2.06 1.66 c 0.607 0.443 1.21 0.887 1.84 1.34 c 1.16 1.66 1.16 1.66 0.848 4.84 c -0.227 0.928 -0.454 1.86 -0.688 2.81 c -2.65 0.0268 -5.29 0.0468 -7.94 0.0625 c -0.755 0.00838 -1.51 0.0168 -2.29 0.0254 c -1.93 0.00863 -3.85 -0.0356 -5.78 -0.0879 c -0.33 -0.33 -0.66 -0.66 -1 -1 c -1.78 -0.0873 -3.56 -0.107 -5.35 -0.0977 c -1.08 0.00322 -2.16 0.00645 -3.27 0.00977 c -1.7 0.0126 -1.7 0.0126 -3.44 0.0254 c -1.71 0.00677 -1.71 0.00677 -3.46 0.0137 c -2.83 0.0118 -5.65 0.0283 -8.48 0.0488 v 2 c 1.58 1.59 1.58 1.59 3.65 3.22 c 1.14 0.931 1.14 0.931 2.3 1.88 c 0.802 0.646 1.6 1.29 2.43 1.96 c 0.794 0.65 1.59 1.3 2.41 1.97 c 3.9 3.3 3.9 3.3 8.22 5.97 v 2 c 0.99 0.33 1.98 0.66 3 1 c -0.33 1.65 -0.66 3.3 -1 5 c -4.52 -0.487 -7.04 -1.37 -10.5 -4.31 c -0.852 -0.715 -1.7 -1.43 -2.58 -2.17 c -0.963 -0.831 -1.93 -1.66 -2.92 -2.52 c -1.17 -0.997 -2.34 -1.99 -3.51 -2.99 c -2.93 -2.5 -5.85 -5.01 -8.76 -7.52 c -2.9 -2.5 -5.82 -5 -8.73 -7.49 c 1.75 -4.88 1.75 -4.88 4 -6 c 2.47 -0.102 4.91 -0.141 7.38 -0.125 c 0.74 0.00266 1.48 0.00532 2.24 0.00806 c 6.09 0.05 12.2 0.267 18.3 0.554 c 0.862 0.0392 1.72 0.0783 2.61 0.119 c 0.806 0.0421 1.61 0.0841 2.44 0.127 c 0.714 0.0367 1.43 0.0733 2.16 0.111 c 1.91 0.205 1.91 0.205 4.91 1.21 c 0.33 -0.66 0.66 -1.32 1 -2 c -0.552 -0.233 -1.1 -0.467 -1.67 -0.707 c -2.94 -1.63 -5.12 -3.69 -7.58 -5.98 c -4.02 -3.74 -8.1 -7.32 -12.4 -10.7 c -1.36 -1.57 -1.36 -1.57 -1.36 -5.57 c 0.99 -0.66 1.98 -1.32 3 -2 z" stroke-linecap="round"/>
</g>
		<g transform="matrix(0.8 0 0 0.8 167.8138 243.8739)">
<path style="stroke: none; stroke-width: 1; stroke-dasharray: none; stroke-linecap: butt; stroke-dashoffset: 0; stroke-linejoin: miter; stroke-miterlimit: 4; is-custom-font: none; font-file-url: none; fill: rgb(155,163,176); fill-rule: nonzero; opacity: 1;" transform=" translate(10.2327, -22.8424)" d="m 0 0 c 5.95 3.09 10.7 8.67 13.3 14.8 c 1.25 8.05 0.885 14.1 -2.44 21.6 h -2 c -0.227 0.578 -0.454 1.15 -0.688 1.75 c -2.04 3.5 -4.43 5.59 -8.29 6.95 c -8.21 2.06 -16.5 2.74 -24 -1.7 c -5.4 -4.56 -9.53 -8.55 -10.3 -15.8 c -0.0529 -13.4 -0.0529 -13.4 4.81 -18.8 c 8.44 -7.63 18.2 -12 29.7 -8.71 z m -17.2 7.39 c -1.01 0.557 -2.02 1.11 -3.06 1.69 c -4.22 3.32 -6.49 6.48 -7.32 11.7 c -0.276 6.04 0.722 9.75 4.38 14.6 c 5.76 4.64 10.3 4.65 17.5 4.46 c 4.88 -0.633 6.49 -1.65 9.52 -5.46 c 3.39 -5.33 2.68 -12 2 -18 c -1.3 -3.13 -2.56 -4.51 -5 -7 c -0.577 -0.619 -1.15 -1.24 -1.75 -1.88 c -5.19 -2.59 -11.1 -3.02 -16.2 -0.125 z m 5 33 v 1 h 5 v -1 h -5 z" stroke-linecap="round"/>
</g>
		<g transform="matrix(0.8 0 0 0.8 -187.8848 239.5696)">
<path style="stroke: none; stroke-width: 1; stroke-dasharray: none; stroke-linecap: butt; stroke-dashoffset: 0; stroke-linejoin: miter; stroke-miterlimit: 4; is-custom-font: none; font-file-url: none; fill: rgb(155,163,176); fill-rule: nonzero; opacity: 1;" transform=" translate(-1.1439, -27.462)" d="m 0 0 c 7.41 0 12.6 4.2 18 9 c 0.495 1.48 0.495 1.48 1 3 c 0.928 0.402 0.928 0.402 1.88 0.812 c 3.2 1.79 3.87 3.79 5.12 7.19 c 0.966 6.55 -0.861 10.8 -4.5 16.2 c -3.47 2.43 -6.87 2.57 -11 2.96 c -2.66 0.544 -2.66 0.544 -3.76 3.02 c -0.693 2.73 -1.1 5.28 -1.33 8.08 c -0.0748 0.883 -0.15 1.77 -0.227 2.68 c -0.049 0.664 -0.098 1.33 -0.148 2.01 c -2.87 -0.573 -3.86 -0.861 -6 -3 c -0.0409 -2.47 -0.00151 -4.85 0.125 -7.31 c 0.305 -5.61 0.305 -5.61 -1.9 -10.6 c -2.95 -2.74 -5.28 -2.84 -9.23 -3.07 c -0.303 0.505 -0.606 1.01 -0.918 1.53 c -3.43 5.32 -3.43 5.32 -6.77 6.09 c -2.31 -0.625 -2.31 -0.625 -4.31 -3.62 c 3.19 -4.85 6.52 -9.58 9.88 -14.3 c 4.13 -5.84 8.22 -11.7 12.1 -17.7 c 0.66 -0.99 1.32 -1.98 2 -3 z m 1.62 11 c -5.59 6.24 -5.59 6.24 -7.62 14 c 1.99 1.54 3.83 2.76 6 4 c 0.65 0.378 1.3 0.755 1.97 1.14 c 4.09 2.23 7.28 3.7 12 2.86 c 3.03 -1.27 3.03 -1.27 5 -4 c 0.929 -3.88 0.736 -7.34 -0.887 -11 c -2.91 -4.48 -6.31 -6.78 -11.1 -9 c -3.14 -0.322 -3.14 -0.322 -5.38 2 z" stroke-linecap="round"/>
</g>
		<g transform="matrix(0.8 0 0 0.8 -115.5518 277.2012)">
<path style="stroke: none; stroke-width: 1; stroke-dasharray: none; stroke-linecap: butt; stroke-dashoffset: 0; stroke-linejoin: miter; stroke-miterlimit: 4; is-custom-font: none; font-file-url: none; fill: rgb(155,163,176); fill-rule: nonzero; opacity: 1;" transform=" translate(-8.5603, -26.5015)" d="m 0 0 c 6.27 0.499 11.5 1.6 17.3 3.94 c 0.689 0.265 1.38 0.53 2.09 0.803 c 3.28 1.27 6.49 2.61 9.6 4.26 v 2 h 2 v 4 c -6.15 0.461 -10.6 -1.58 -16.1 -3.9 c -4.01 -1.62 -5.53 -2.18 -9.85 -1.1 c -0.99 3.63 -1.98 7.26 -3 11 c 1.51 0.268 3.01 0.536 4.56 0.812 c 4.5 0.89 8.31 2.21 12.4 4.19 v 2 h 2 v 5 c -4.95 -0.861 -9.66 -1.75 -14.3 -3.69 c -3.85 -1.73 -3.85 -1.73 -8.69 -0.312 c -0.99 3.3 -1.98 6.6 -3 10 c 2.17 0.619 2.17 0.619 4.38 1.25 c 5.35 1.6 10.5 3.59 15.6 5.75 v 2 h 2 v 5 c -8.14 -1.23 -15.4 -3.9 -23 -7 c -0.775 -0.281 -1.55 -0.562 -2.35 -0.852 c -4.41 -1.65 -4.41 -1.65 -5.47 -3.81 c -0.271 -3.46 0.899 -5.99 2.13 -9.21 c 0.45 -1.19 0.9 -2.39 1.36 -3.62 c 0.437 -1.16 0.874 -2.32 1.32 -3.51 c 0.311 -0.933 0.621 -1.87 0.941 -2.83 c 1.46 -4.39 3.08 -8.71 4.68 -13 c 0.325 -0.879 0.65 -1.76 0.984 -2.66 c 0.796 -2.15 1.59 -4.31 2.39 -6.46 z" stroke-linecap="round"/>
</g>
		<g transform="matrix(0.8 0 0 0.8 -40.6399 296.4312)">
<path style="stroke: none; stroke-width: 1; stroke-dasharray: none; stroke-linecap: butt; stroke-dashoffset: 0; stroke-linejoin: miter; stroke-miterlimit: 4; is-custom-font: none; font-file-url: none; fill: rgb(155,163,176); fill-rule: nonzero; opacity: 1;" transform=" translate(4.7998, -24.539)" d="m 0 0 c 3.34 1.43 4.2 3.29 5.65 6.54 c 1.55 4.12 2.82 8.31 4.04 12.5 c 0.842 2.76 1.85 5.37 2.93 8.05 c 0.484 1.94 0.967 3.87 1.43 5.82 c 0.616 2.34 1.39 4.59 2.2 6.87 c 1.11 3.22 1.71 5.87 1.38 9.31 c -2.99 -0.323 -4.56 -0.548 -6.69 -2.75 c -1.37 -2.35 -2.35 -4.71 -3.31 -7.25 c -3.5 -3.5 -12.6 -3.33 -17.2 -3.69 c -3.02 -0.0996 -3.02 -0.0996 -5.75 0.688 c -2.11 2.21 -3.33 4.27 -4.62 7.03 c -0.683 0.975 -0.683 0.975 -1.38 1.97 c -2.66 0.281 -2.66 0.281 -5 0 c -0.75 -1.62 -0.75 -1.62 -1 -4 c 1.75 -2.94 1.75 -2.94 4 -6 c 3.82 -6.15 7.29 -12.5 10.4 -19 c 7.83 -15.9 7.83 -15.9 12.9 -16.1 z m -1.38 9.12 c -4.59 5.76 -7.76 12 -10 19 l 1 2 h 15 c -0.716 -4.3 -1.49 -8.5 -2.44 -12.8 c -0.246 -1.13 -0.492 -2.26 -0.746 -3.42 c -0.6 -2.93 -0.6 -2.93 -2.82 -4.83 z" stroke-linecap="round"/>
</g>
		<g transform="matrix(0.8 0 0 0.8 -244.216 186.0229)">
<path style="stroke: none; stroke-width: 1; stroke-dasharray: none; stroke-linecap: butt; stroke-dashoffset: 0; stroke-linejoin: miter; stroke-miterlimit: 4; is-custom-font: none; font-file-url: none; fill: rgb(155,163,176); fill-rule: nonzero; opacity: 1;" transform=" translate(8.27, -22.5287)" d="m 0 0 c 1.82 0.971 3.31 2.03 4.9 3.35 c 0.909 0.729 0.909 0.729 1.84 1.47 c 4.86 4.34 7.53 9.23 9.16 15.5 c 0.0977 2.8 0.0977 2.8 0 5 h -6 c -0.433 -1.2 -0.866 -2.39 -1.31 -3.62 c -2.93 -8.25 -2.93 -8.25 -9.69 -13.4 c -3.8 -1.44 -8 -1.66 -12 -1 c -3.89 1.79 -6.41 4.2 -8.94 7.62 c -1.92 6.11 -2.17 11.9 0.5 17.8 c 2.96 3.11 5.61 4.62 9.44 6.56 c 0.99 0.66 1.98 1.32 3 2 c 0.188 2.62 0.188 2.62 0 5 c -8.57 -0.857 -8.57 -0.857 -12 -3 v -2 c -0.557 -0.206 -1.11 -0.412 -1.69 -0.625 c -4.8 -2.86 -7.56 -7.18 -9.31 -12.4 c -1.2 -7.43 0.229 -13.1 4.08 -19.5 c 6.67 -8.52 17.6 -12 28 -8.81 z" stroke-linecap="round"/>
</g>
		<g transform="matrix(0.8 0 0 0.8 36.8064 293.2547)">
<path style="stroke: none; stroke-width: 1; stroke-dasharray: none; stroke-linecap: butt; stroke-dashoffset: 0; stroke-linejoin: miter; stroke-miterlimit: 4; is-custom-font: none; font-file-url: none; fill: rgb(155,163,176); fill-rule: nonzero; opacity: 1;" transform=" translate(18.992, -22.5683)" d="m 0 0 v 4 c -4.29 0.99 -8.58 1.98 -13 3 c -0.0957 6.7 -0.0852 13.4 1 20 c 0.33 0.33 0.66 0.66 1 1 c 0.987 6.03 1.11 11.9 1 18 c -1.98 0.495 -1.98 0.495 -4 1 c -0.474 -0.804 -0.949 -1.61 -1.44 -2.44 c -1.33 -2.41 -1.33 -2.41 -2.56 -3.56 c -0.373 -2.37 -0.691 -4.72 -0.973 -7.1 c -0.0874 -0.709 -0.175 -1.42 -0.265 -2.15 c -0.279 -2.27 -0.552 -4.54 -0.825 -6.82 c -0.188 -1.54 -0.376 -3.07 -0.564 -4.61 c -0.462 -3.77 -0.919 -7.55 -1.37 -11.3 h -14 v -2 h -2 c 0.543 -1.9 0.543 -1.9 2 -4 c 2.52 -0.743 4.73 -1.21 7.31 -1.55 c 0.723 -0.11 1.45 -0.22 2.19 -0.334 c 1.53 -0.229 3.06 -0.448 4.59 -0.66 c 2.34 -0.326 4.68 -0.684 7.02 -1.05 c 1.48 -0.218 2.97 -0.434 4.46 -0.648 c 0.7 -0.107 1.4 -0.214 2.12 -0.325 c 3.83 -0.511 4.98 -0.657 8.32 1.57 z" stroke-linecap="round"/>
</g>
		<g transform="matrix(0.8 0 0 0.8 103.6394 276.784)">
<path style="stroke: none; stroke-width: 1; stroke-dasharray: none; stroke-linecap: butt; stroke-dashoffset: 0; stroke-linejoin: miter; stroke-miterlimit: 4; is-custom-font: none; font-file-url: none; fill: rgb(155,163,176); fill-rule: nonzero; opacity: 1;" transform=" translate(-6.5492, -21.98)" d="m 0 0 c 3.69 3.17 5 6.04 6.5 10.6 c 1.44 4.25 2.88 8.47 4.56 12.6 c 0.316 0.784 0.632 1.57 0.957 2.38 c 0.691 1.67 1.4 3.34 2.12 5 c 1.96 4.63 3.4 8.24 2.86 13.4 h -5 v -2 c -0.66 -0.33 -1.32 -0.66 -2 -1 c -0.93 -1.71 -0.93 -1.71 -1.88 -3.94 c -0.347 -0.811 -0.694 -1.62 -1.05 -2.46 c -1.41 -3.41 -2.79 -6.84 -4.14 -10.3 c -0.775 -1.93 -1.63 -3.82 -2.5 -5.7 c -2.01 -5.08 -3.21 -10.3 -4.44 -15.6 c 1.32 -0.99 2.64 -1.98 4 -3 z" stroke-linecap="round"/>
</g>
		<g transform="matrix(0.8 0 0 0.8 233.6 189.2)">
<path style="stroke: none; stroke-width: 1; stroke-dasharray: none; stroke-linecap: butt; stroke-dashoffset: 0; stroke-linejoin: miter; stroke-miterlimit: 4; is-custom-font: none; font-file-url: none; fill: rgb(155,163,176); fill-rule: nonzero; opacity: 1;" transform=" translate(-8, -0.5)" d="m 0 0 h 16 v 1 h -16 v -1 z" stroke-linecap="round"/>
</g>
		<g transform="matrix(0.8 0 0 0.8 -227.6 189.2)">
<path style="stroke: none; stroke-width: 1; stroke-dasharray: none; stroke-linecap: butt; stroke-dashoffset: 0; stroke-linejoin: miter; stroke-miterlimit: 4; is-custom-font: none; font-file-url: none; fill: rgb(155,163,176); fill-rule: nonzero; opacity: 1;" transform=" translate(-2.5, -0.5)" d="m 0 0 h 5 v 1 h -5 v -1 z" stroke-linecap="round"/>
</g>
		<g transform="matrix(0.8 0 0 0.8 -215.6 157.2)">
<path style="stroke: none; stroke-width: 1; stroke-dasharray: none; stroke-linecap: butt; stroke-dashoffset: 0; stroke-linejoin: miter; stroke-miterlimit: 4; is-custom-font: none; font-file-url: none; fill: rgb(155,163,176); fill-rule: nonzero; opacity: 1;" transform=" translate(-1.5, -0.5)" d="m 0 0 c 3 1 3 1 3 1 z" stroke-linecap="round"/>
</g>
		<g transform="matrix(0.8 0 0 0.8 -60.8 -64)">
<path style="stroke: none; stroke-width: 1; stroke-dasharray: none; stroke-linecap: butt; stroke-dashoffset: 0; stroke-linejoin: miter; stroke-miterlimit: 4; is-custom-font: none; font-file-url: none; fill: rgb(155,163,176); fill-rule: nonzero; opacity: 1;" transform=" translate(-1, -1)" d="m 0 0 l 2 1 l -2 1 v -2 z" stroke-linecap="round"/>
</g>
		<g transform="matrix(0.8 0 0 0.8 -40 306)">
<path style="stroke: none; stroke-width: 1; stroke-dasharray: none; stroke-linecap: butt; stroke-dashoffset: 0; stroke-linejoin: miter; stroke-miterlimit: 4; is-custom-font: none; font-file-url: none; fill: rgb(155,163,176); fill-rule: nonzero; opacity: 1;" transform=" translate(-1, -0.5)" d="m 0 0 l 2 1 z" stroke-linecap="round"/>
</g>
		<g transform="matrix(0.8 0 0 0.8 -98.4 269.2)">
<path style="stroke: none; stroke-width: 1; stroke-dasharray: none; stroke-linecap: butt; stroke-dashoffset: 0; stroke-linejoin: miter; stroke-miterlimit: 4; is-custom-font: none; font-file-url: none; fill: rgb(155,163,176); fill-rule: nonzero; opacity: 1;" transform=" translate(-1, -0.5)" d="m 0 0 l 2 1 z" stroke-linecap="round"/>
</g>
		<g transform="matrix(0.8 0 0 0.8 -184.8 262.8)">
<path style="stroke: none; stroke-width: 1; stroke-dasharray: none; stroke-linecap: butt; stroke-dashoffset: 0; stroke-linejoin: miter; stroke-miterlimit: 4; is-custom-font: none; font-file-url: none; fill: rgb(155,163,176); fill-rule: nonzero; opacity: 1;" transform=" translate(-1, -0.5)" d="m 0 0 l 2 1 z" stroke-linecap="round"/>
</g>
		<g transform="matrix(0.8 0 0 0.8 -204 249.2)">
<path style="stroke: none; stroke-width: 1; stroke-dasharray: none; stroke-linecap: butt; stroke-dashoffset: 0; stroke-linejoin: miter; stroke-miterlimit: 4; is-custom-font: none; font-file-url: none; fill: rgb(155,163,176); fill-rule: nonzero; opacity: 1;" transform=" translate(-1, -0.5)" d="m 0 0 l 2 1 z" stroke-linecap="round"/>
</g>
		<g transform="matrix(0.8 0 0 0.8 293.6 -39.6)">
<path style="stroke: none; stroke-width: 1; stroke-dasharray: none; stroke-linecap: butt; stroke-dashoffset: 0; stroke-linejoin: miter; stroke-miterlimit: 4; is-custom-font: none; font-file-url: none; fill: rgb(155,163,176); fill-rule: nonzero; opacity: 1;" transform=" translate(-1, -0.5)" d="m 0 0 l 2 1 z" stroke-linecap="round"/>
</g>
		<g transform="matrix(0.8 0 0 0.8 285.6 -81.2)">
<path style="stroke: none; stroke-width: 1; stroke-dasharray: none; stroke-linecap: butt; stroke-dashoffset: 0; stroke-linejoin: miter; stroke-miterlimit: 4; is-custom-font: none; font-file-url: none; fill: rgb(155,163,176); fill-rule: nonzero; opacity: 1;" transform=" translate(-1, -0.5)" d="m 0 0 l 2 1 z" stroke-linecap="round"/>
</g>
		<g transform="matrix(0.8 0 0 0.8 -200.8 -239.6)">
<path style="stroke: none; stroke-width: 1; stroke-dasharray: none; stroke-linecap: butt; stroke-dashoffset: 0; stroke-linejoin: miter; stroke-miterlimit: 4; is-custom-font: none; font-file-url: none; fill: rgb(155,163,176); fill-rule: nonzero; opacity: 1;" transform=" translate(-1, -0.5)" d="m 0 0 l 2 1 z" stroke-linecap="round"/>
</g>
</g>
</g>
</svg>