<svg xmlns="http://www.w3.org/2000/svg" xmlns:xlink="http://www.w3.org/1999/xlink" version="1.1" width="1000" height="1000" viewBox="0 0 1000 1000" xml:space="preserve">
<desc>Created with Fabric.js 3.5.0</desc>
<defs>
</defs>
<rect x="0" y="0" width="100%" height="100%" fill="#ffffff"/>
<g transform="matrix(0.7813 0 0 0.7813 500.032 500.032)" id="802239">
<g style="" vector-effect="non-scaling-stroke">
		<g transform="matrix(0.8 0 0 0.8 3.9627 -4.3266)">
<path style="stroke: none; stroke-width: 1; stroke-dasharray: none; stroke-linecap: butt; stroke-dashoffset: 0; stroke-linejoin: miter; stroke-miterlimit: 4; is-custom-font: none; font-file-url: none; fill: rgb(155,163,176); fill-rule: nonzero; opacity: 1;" transform=" translate(-531.9533, -441.5918)" d="m 0 0 c 1.03 -0.0122 2.06 -0.0245 3.12 -0.0371 c 6.25 -0.0119 11.9 0.53 17.9 2.22 c 1.83 0.516 1.83 0.516 3.7 1.04 c 8.7 2.81 16.4 6.33 24.3 11 v 2 c 1.65 0.66 3.3 1.32 5 2 v 2 c 0.743 0.248 1.49 0.495 2.25 0.75 c 3.1 1.41 4.48 2.71 6.75 5.25 c 0.48 0.534 0.959 1.07 1.45 1.62 c 3.65 4.11 7.2 8.3 10.7 12.5 c 0.819 0.972 1.64 1.94 2.48 2.95 c 3.84 4.83 6.98 9.93 9.92 15.3 c 1.01 1.84 2.03 3.68 3.08 5.5 c 4.42 7.86 7.69 15.8 10.7 24.3 c 0.888 2.5 1.84 4.97 2.77 7.45 c 3.61 10 6.19 20.2 8.16 30.7 c 0.506 2.61 1.06 5.17 1.67 7.75 c 5.24 23.4 6.15 48 7.04 71.9 c 0.0361 0.936 0.0722 1.87 0.109 2.84 c 0.746 22.5 -1.43 45.4 -3.17 67.9 c -0.119 1.56 -0.119 1.56 -0.24 3.15 c -0.0769 0.934 -0.154 1.87 -0.233 2.83 c -0.0658 0.807 -0.132 1.61 -0.199 2.44 c -0.265 1.82 -0.265 1.82 -1.27 2.82 c -0.287 1.98 -0.516 3.98 -0.719 5.97 c -0.191 1.82 -0.191 1.82 -0.387 3.67 c -0.13 1.27 -0.26 2.55 -0.395 3.86 c -0.256 2.51 -0.517 5.02 -0.781 7.53 c -0.114 1.12 -0.228 2.24 -0.346 3.39 c -0.373 2.58 -0.373 2.58 -1.37 3.58 c -0.334 1.77 -0.612 3.55 -0.867 5.33 c -0.243 1.66 -0.243 1.66 -0.491 3.35 c -0.256 1.77 -0.256 1.77 -0.517 3.58 c -1.21 8.11 -2.47 16.1 -4.47 24.1 c -0.902 3.72 -1.52 7.48 -2.12 11.3 c -0.527 2.44 -0.527 2.44 -1.47 4.72 c -1.41 3.64 -2.09 7.33 -2.87 11.2 c -1.72 8.16 -4.14 15.8 -7.19 23.6 h -2 v 2 c -4.13 2.07 -9.42 1.35 -13.8 0.375 c -3.11 -1.96 -4.85 -3.99 -6.19 -7.38 c -0.546 -4.49 -0.467 -8.92 -0.375 -13.4 c 0.00193 -1.8 0.00193 -1.8 0.00391 -3.64 c 0.0604 -6.09 0.635 -11.1 2.37 -16.9 c 0.457 -2.47 0.873 -4.95 1.25 -7.43 c 0.106 -0.676 0.212 -1.35 0.321 -2.05 c 0.334 -2.13 0.661 -4.26 0.988 -6.4 c 0.434 -2.83 0.874 -5.66 1.32 -8.49 c 0.192 -1.25 0.383 -2.5 0.58 -3.78 c 0.541 -2.85 0.541 -2.85 1.54 -3.85 c 0.497 -2.75 0.936 -5.5 1.34 -8.27 c 0.127 -0.852 0.253 -1.7 0.383 -2.58 c 0.412 -2.8 0.815 -5.6 1.21 -8.4 c 0.137 -0.958 0.273 -1.92 0.414 -2.9 c 4.99 -35.3 6.36 -71.2 5.65 -107 c -0.0189 -1.25 -0.0189 -1.25 -0.0381 -2.52 c -0.391 -21.7 -2.12 -44.6 -8.13 -65.5 c -0.832 -2.96 -0.832 -2.96 -1.32 -6.11 c -0.488 -2.72 -1.26 -4.43 -2.51 -6.85 c -0.474 -1.85 -0.908 -3.7 -1.31 -5.56 c -1.26 -5.23 -3.05 -9.83 -5.38 -14.7 c -1.33 -2.82 -2.48 -5.68 -3.62 -8.58 c -2.93 -7.12 -6.78 -13.6 -10.7 -20.2 c -0.703 -1.25 -1.4 -2.49 -2.11 -3.74 c -1.8 -3.29 -1.8 -3.29 -4.14 -6.07 c -1.75 -2.19 -1.75 -2.19 -1.75 -4.19 c -0.99 -0.33 -1.98 -0.66 -3 -1 c -1.67 -1.67 -3.33 -3.33 -5 -5 c -1.26 -0.917 -2.53 -1.81 -3.81 -2.69 c -1.05 -0.763 -2.1 -1.53 -3.19 -2.31 v -2 c -0.866 -0.268 -1.73 -0.536 -2.62 -0.812 c -3.37 -1.19 -3.37 -1.19 -6.19 -2.62 c -14.7 -7.19 -32 -5.77 -47.3 -0.88 c -6.05 2.13 -11.8 4.37 -16.9 8.32 c -2.75 0.688 -2.75 0.688 -5 1 c -0.33 0.99 -0.66 1.98 -1 3 c -1.96 1.38 -3.97 2.71 -6 4 c -0.908 0.743 -1.82 1.49 -2.75 2.25 c -2.25 1.75 -2.25 1.75 -4.25 1.75 c -0.33 0.99 -0.66 1.98 -1 3 c -0.959 0.217 -0.959 0.217 -1.94 0.438 c -0.681 0.186 -1.36 0.371 -2.06 0.562 c -0.699 1.32 -1.37 2.65 -2 4 c -0.99 0.33 -1.98 0.66 -3 1 c -0.33 0.66 -0.66 1.32 -1 2 c -0.33 0.66 -0.66 1.32 -1 2 c -0.99 0.33 -1.98 0.66 -3 1 c -0.33 0.66 -0.66 1.32 -1 2 c -0.33 0.66 -0.66 1.32 -1 2 c -0.99 0.33 -1.98 0.66 -3 1 c -0.289 0.722 -0.577 1.44 -0.875 2.19 c -1.43 3.58 -3.59 5.92 -6.12 8.81 c -5.62 6.74 -10.6 14 -15 21.6 l -1.04 1.4 h -2 c -0.268 0.715 -0.536 1.43 -0.812 2.17 c -1.2 2.87 -2.6 5.47 -4.19 8.14 c -0.773 1.32 -0.773 1.32 -1.56 2.68 c -0.474 0.664 -0.949 1.33 -1.44 2.01 h -2 c -0.232 0.811 -0.464 1.62 -0.703 2.46 c -1.6 4.36 -3.75 8.21 -6.05 12.2 c -0.908 1.61 -1.82 3.23 -2.72 4.84 c -0.437 0.773 -0.874 1.55 -1.32 2.34 c -9.03 16 -17.2 32.4 -24 49.5 c -1.18 2.66 -1.18 2.66 -2.73 5.24 c -1.33 2.23 -2.14 4.14 -2.88 6.61 c -1.01 3.21 -2.14 6.34 -3.41 9.46 c -2.13 5.27 -4.19 10.6 -6.22 15.9 c -0.338 0.873 -0.677 1.75 -1.03 2.64 c -1.97 5.15 -3.72 10.3 -5.25 15.6 c -0.648 2.2 -1.36 4.38 -2.1 6.55 c -3.07 9.15 -5.82 18.3 -7.85 27.7 c -0.711 2.97 -0.711 2.97 -1.73 5.98 c -0.982 3.01 -1.52 5.86 -1.98 9 c -0.45 3.08 -0.956 5.87 -1.96 8.82 c -1.29 3.95 -1.94 7.89 -2.6 12 c -1.31 8.06 -1.31 8.06 -2.44 9.19 c -0.284 1.54 -0.514 3.1 -0.719 4.66 l -0.387 2.85 l -0.395 3 c -0.257 1.95 -0.517 3.9 -0.781 5.84 l -0.346 2.63 c -0.373 2.03 -0.373 2.03 -1.37 3.03 c -0.287 1.98 -0.516 3.98 -0.719 5.97 l -0.387 3.67 l -0.395 3.86 c -0.256 2.51 -0.517 5.02 -0.781 7.53 c -0.114 1.12 -0.228 2.24 -0.346 3.39 c -0.373 2.58 -0.373 2.58 -1.37 3.58 c -0.293 2.36 -0.525 4.69 -0.719 7.06 c -0.0625 0.728 -0.125 1.46 -0.189 2.21 c -0.203 2.39 -0.398 4.78 -0.592 7.17 c -0.0673 0.808 -0.135 1.62 -0.204 2.45 c -0.983 11.9 -1.7 23.7 -2.01 35.6 c -0.0264 0.986 -0.0529 1.97 -0.0801 2.99 c -0.0176 0.855 -0.0351 1.71 -0.0532 2.59 c -0.158 1.93 -0.158 1.93 -1.16 2.93 c -0.0992 1.62 -0.131 3.25 -0.133 4.88 c -0.00129 0.985 -0.00258 1.97 -0.00391 2.98 c 0.0058 1.55 0.0058 1.55 0.0117 3.14 c -0.00387 1.04 -0.00773 2.07 -0.0117 3.14 c 0.00193 1.48 0.00193 1.48 0.00391 2.98 c 0.00169 1.37 0.00169 1.37 0.00342 2.76 c -0.106 2.1 -0.106 2.1 1.13 3.12 c 0.279 2.8 0.5 5.58 0.684 8.38 c 0.124 1.74 0.249 3.48 0.373 5.23 c 0.191 2.75 0.38 5.5 0.566 8.25 c 0.181 2.65 0.371 5.3 0.561 7.96 c 0.0522 0.814 0.104 1.63 0.158 2.47 c 0.351 4.82 1.22 9.08 2.66 13.7 c 0.231 1.34 0.428 2.69 0.562 4.04 l 0.227 2.06 c 0.142 1.4 0.282 2.8 0.422 4.2 c 0.407 3.69 1.04 6.45 2.79 9.7 c 0.797 3.16 1.45 6.33 2.12 9.52 c 1.71 6.77 4.51 13.1 7.32 19.5 c 0.457 1.04 0.457 1.04 0.924 2.11 c 2.08 4.71 4.26 9.33 6.64 13.9 h 2 l 0.312 2.31 c 0.757 2.96 1.51 3.68 3.69 5.69 c 0.683 1.33 1.35 2.66 2 4 l 2 2 l 2.32 2.33 c 10.8 10.7 22.2 20.3 36.7 25.7 l 2.3 0.863 c 27.5 9.75 60.3 1.65 85.8 -10.5 c 0.947 -0.464 1.89 -0.928 2.87 -1.41 c 0.607 -0.291 1.21 -0.583 1.84 -0.883 c 7.83 -3.76 15.4 -7.64 22.6 -12.5 c 1.93 -1.25 3.91 -2.42 5.92 -3.55 c 3.6 -2.04 6.95 -4.35 10.3 -6.78 c 0.896 -0.646 0.896 -0.646 1.81 -1.3 c 10.7 -7.43 10.7 -7.43 20.5 -16 c 1.18 -1.05 2.37 -2.09 3.56 -3.12 c 10.5 -9.18 20.8 -18.5 29.9 -29.1 c 2.06 -2.36 4.31 -4.53 6.53 -6.75 c 0.557 -0.763 1.11 -1.53 1.69 -2.31 c 0.433 -0.557 0.866 -1.11 1.31 -1.69 h 2 c 0.237 -0.558 0.474 -1.12 0.719 -1.69 c 1.58 -2.84 3.54 -4.89 5.78 -7.25 c 18 -19.4 32.8 -42.5 46.5 -65.1 c 1.37 -2.23 2.75 -4.46 4.12 -6.69 c 1.29 -2.1 2.58 -4.21 3.88 -6.31 c 0.501 -0.817 1 -1.63 1.52 -2.48 c 3.46 -5.7 6.72 -11.5 9.96 -17.3 c 2.49 -4.44 5.06 -8.81 7.7 -13.2 c 7.68 -12.7 14.7 -25.7 21.9 -38.6 c 1.37 -2.48 2.74 -4.95 4.11 -7.43 c 0.976 -1.77 1.95 -3.54 2.92 -5.3 c 0.595 -1.08 1.19 -2.15 1.8 -3.26 c 0.524 -0.951 1.05 -1.9 1.59 -2.88 c 1.37 -2.32 2.86 -4.4 4.5 -6.54 c 0.783 -1.5 1.53 -3.03 2.25 -4.56 c 2.34 -4.78 5.04 -9.21 7.95 -13.7 c 1.16 -1.78 2.29 -3.57 3.38 -5.38 c 7.45 -12.2 17.1 -27.6 31.4 -32.4 c 8.87 -0.429 8.87 -0.429 13 2 c 1.06 1.81 1.06 1.81 2 4 c 0.619 0.66 1.24 1.32 1.88 2 c 5.89 8.32 7.18 19.1 8.12 29 c 0.0883 0.855 0.177 1.71 0.268 2.59 c 1.03 11.7 0.883 23.5 0.863 35.3 c -0.00529 3.7 -0.0000684 7.39 0.00635 11.1 c 0.00399 12.6 -0.16 25.2 -0.582 37.8 c -0.0581 1.82 -0.0581 1.82 -0.117 3.68 c -0.062 1.66 -0.062 1.66 -0.125 3.36 c -0.0359 0.981 -0.0717 1.96 -0.109 2.97 c -0.203 2.22 -0.203 2.22 -1.2 3.22 c -0.291 2.87 -0.524 5.72 -0.719 8.59 c -0.0628 0.862 -0.126 1.72 -0.19 2.61 c -0.201 2.76 -0.397 5.53 -0.591 8.29 c -0.255 3.64 -0.516 7.27 -0.781 10.9 c -0.0573 0.845 -0.115 1.69 -0.174 2.56 c -0.432 5.92 -0.432 5.92 -1.55 7.03 c -0.362 2.87 -0.668 5.72 -0.938 8.59 c -0.085 0.862 -0.17 1.72 -0.258 2.61 c -0.273 2.76 -0.539 5.53 -0.805 8.29 c -0.349 3.64 -0.704 7.27 -1.06 10.9 c -0.0792 0.845 -0.158 1.69 -0.24 2.56 c -0.585 5.92 -0.585 5.92 -1.7 7.03 c -1.02 6.96 -1.14 14 -1 21 c 0.99 0.33 1.98 0.66 3 1 v -2 c 0.557 -0.227 1.11 -0.454 1.69 -0.688 c 2.47 -1.26 2.47 -1.26 4.58 -3.61 c 3.63 -3.59 7.67 -6.43 11.8 -9.42 c 2.91 -2.26 5.38 -4.63 7.94 -7.28 c 1.18 -1.2 2.37 -2.4 3.56 -3.59 c 0.95 -0.957 0.95 -0.957 1.92 -1.93 c 0.646 -0.651 1.29 -1.3 1.96 -1.97 c 0.643 -0.651 1.29 -1.3 1.95 -1.97 c 2.87 -2.88 5.72 -5.68 8.87 -8.25 c 2.36 -1.96 4.24 -3.85 6.18 -6.21 c 2.71 -3.19 5.54 -5.92 8.79 -8.54 c 3.03 -2.59 5.76 -5.48 8.55 -8.33 c 1.97 -2 3.94 -4 5.91 -6 c 0.676 -0.693 1.35 -1.39 2.05 -2.1 c 0.648 -0.654 1.3 -1.31 1.96 -1.98 c 0.586 -0.597 1.17 -1.19 1.78 -1.81 c 1.52 -1.3 1.52 -1.3 3.52 -1.3 c 0.388 -0.895 0.388 -0.895 0.785 -1.81 c 1.32 -2.37 2.57 -3.56 4.66 -5.26 c 5.99 -5.07 11.4 -10.7 16.9 -16.3 c 1.39 -1.42 2.78 -2.83 4.18 -4.24 c 0.818 -0.835 1.64 -1.67 2.48 -2.53 c 2.03 -1.82 2.03 -1.82 4.03 -1.82 c 0.227 -0.557 0.454 -1.11 0.688 -1.69 c 1.68 -2.96 3.89 -4.92 6.31 -7.31 c 3.27 -3.49 6.48 -7.02 9.7 -10.6 c 1.12 -1.23 2.24 -2.45 3.36 -3.68 c 6.83 -7.58 11.6 -15.7 15.8 -25 c 3.86 -8.33 8.09 -16.1 13.1 -23.8 c 1.3 -2.13 2.6 -4.27 3.89 -6.41 c 1.22 -1.74 2.6 -3.09 4.11 -4.59 c 1.27 -1.55 2.51 -3.11 3.75 -4.69 c 1.42 -1.77 2.83 -3.54 4.25 -5.31 c 0.547 -0.699 1.09 -1.4 1.66 -2.12 c 9.26 -11.3 22.8 -20.4 37.3 -22.9 c 11.8 -1.05 23.3 0.898 33 8 c 2.6 2.49 4.82 5.15 7 8 l 1.51 1.96 c 3.67 4.96 4.62 8.13 4.55 14.2 c -0.00902 1.09 -0.018 2.17 -0.0273 3.29 c -0.0174 1.25 -0.0174 1.25 -0.0352 2.52 c -2.9 1.5 -4.31 2.21 -7.5 1.24 c -0.825 -0.451 -1.65 -0.902 -2.5 -1.37 c -0.871 -0.476 -1.74 -0.951 -2.64 -1.44 c -2.66 -1.61 -5 -3.41 -7.36 -5.43 c -5.86 -4.39 -11.6 -7.11 -18.9 -6.88 c -4.79 0.862 -9.44 2.37 -14.1 3.88 v 2 c -1.45 1.21 -1.45 1.21 -2.94 2.44 c -24.8 20.7 -42.6 59.6 -46.5 91.3 c -0.236 2.76 -0.429 5.5 -0.535 8.26 c 3.17 -0.292 4.6 -0.544 6.74 -2.98 c 0.519 -0.874 1.04 -1.75 1.57 -2.65 c 0.589 -0.985 1.18 -1.97 1.79 -2.98 c 2.78 -4.96 5.48 -9.96 8.11 -15 c 1.52 -2.86 3.11 -5.62 4.8 -8.38 c 6.87 -11.5 13.5 -23.2 20.1 -34.9 c 0.497 -0.881 0.995 -1.76 1.51 -2.67 c 0.855 -1.52 1.7 -3.05 2.54 -4.58 c 1.68 -3.04 3.28 -5.52 5.83 -7.87 c 0.767 -1.16 1.52 -2.32 2.25 -3.5 c 2.71 -3.79 5.09 -5.47 9.75 -6.5 c 3.87 0.878 6.83 2.58 9.36 5.66 c 3.1 5.11 3.74 10 3.89 15.8 c 0.0314 1.06 0.0628 2.12 0.0952 3.21 c 0.0317 1.12 0.0635 2.25 0.0962 3.4 c 0.279 8.17 0.627 16.3 1.44 24.4 c 0.0663 0.729 0.133 1.46 0.201 2.21 c 0.503 4.63 1.63 8.78 3.2 13.2 c 0.7 2 1.25 4.01 1.78 6.06 c 0.309 0.99 0.619 1.98 0.938 3 c 0.66 0.33 1.32 0.66 2 1 c 0.474 0.825 0.949 1.65 1.44 2.5 c 1.38 2.79 1.38 2.79 4.56 3.5 c 1.32 1.49 1.32 1.49 2.69 3.31 c 4.24 5.09 9.1 7.54 15.6 8.56 c 10.7 0.733 20.4 -3 29.4 -8.54 c 2.3 -1.34 2.3 -1.34 4.3 -1.34 v -2 c 0.598 -0.268 1.2 -0.536 1.81 -0.812 c 2.17 -1.04 2.17 -1.04 3.5 -2.5 c 2.99 -2.99 6.4 -5.51 9.71 -8.14 c 13.2 -11.3 22.7 -23.3 26 -40.5 c 1.78 -7.52 3.65 -14.9 7.01 -21.9 c 1.05 -2.22 1.93 -4.47 2.8 -6.77 c 5.68 -14.3 12 -27.5 25.1 -36.2 c 5.4 -1.84 10.8 -2.06 16.1 0.188 c 2.71 2.3 4.73 4.35 5.57 7.87 c 0.202 7.99 -2.92 13.9 -6.5 20.9 c -3.23 6.8 -6.08 13.7 -8.74 20.7 c -1.23 3.2 -2.54 6.36 -3.88 9.52 c -2.04 4.86 -3.77 9.73 -5.38 14.8 c -0.666 1.96 -1.33 3.92 -2 5.88 c -0.672 2.04 -1.34 4.08 -2 6.12 l -0.852 2.61 c -4.84 16.1 -4.42 32.8 -4.15 49.4 c 4.92 -0.646 7.23 -1.75 11 -5 h 2 c 0.259 -0.581 0.518 -1.16 0.785 -1.76 c 1.31 -2.41 2.77 -4.06 4.65 -6.05 c 8.42 -9.29 15.4 -19.9 22.5 -30.2 c 1.92 -2.79 3.86 -5.55 5.81 -8.31 c 2.59 -3.67 4.96 -7.41 7.21 -11.3 c 0.344 -0.461 0.688 -0.923 1.04 -1.4 h 2 c 0.356 -1.27 0.356 -1.27 0.719 -2.57 c 1.44 -3.86 3.45 -7.01 5.78 -10.4 c 0.903 -1.32 1.81 -2.65 2.71 -3.97 c 0.693 -1.01 0.693 -1.01 1.4 -2.04 c 1.37 -2.01 2.7 -4.04 4.03 -6.08 c 13.7 -21 13.7 -21 23.3 -23.8 c 3.96 -0.162 6.46 0.174 10.1 1.88 c 1.54 2.53 2.24 5.15 3 8 c 0.336 0.778 0.672 1.56 1.02 2.36 c 1.45 5.38 1.28 10.6 1.29 16.2 c 0.0252 2.51 0.0506 5.02 0.0762 7.53 c 0.0286 3.93 0.0526 7.86 0.0715 11.8 c 0.0524 25.8 0.0524 25.8 7.54 50.2 h 2 v 3 c 4.91 5.75 10.7 9.11 18.1 10.3 c 13.5 0.949 27.7 -9.34 37.5 -17.7 c 1.63 -1.42 3.25 -2.84 4.86 -4.26 c 2.43 -2.1 4.94 -4.1 7.45 -6.11 c 3.7 -3.01 7.12 -6.12 10.4 -9.55 c 2.51 -2.51 5.2 -4.81 7.89 -7.12 c 1.82 -1.55 1.82 -1.55 3.41 -3.28 c 1.39 -1.3 1.39 -1.3 3.39 -1.3 c 0.0752 -1.09 0.0752 -1.09 0.152 -2.2 c 0.235 -3.35 0.479 -6.7 0.723 -10.1 c 0.118 -1.71 0.118 -1.71 0.238 -3.45 c 0.49 -6.64 1.25 -13.1 2.45 -19.7 c 0.416 -2.51 0.65 -4.96 0.81 -7.49 c 0.938 -10.2 3.95 -21.9 10.9 -29.7 c 3.66 -1.96 5.73 -1.45 9.69 -0.438 c 2.44 1.06 2.44 1.06 4 2 v 2 h 2 c 1.81 3.63 1.19 7.88 1.19 11.9 c -0.000121 1.54 -0.000121 1.54 -0.000244 3.12 c -0.0694 10.1 -0.565 20.1 -1.12 30.1 c -0.0435 0.793 -0.087 1.59 -0.132 2.4 c -0.127 2.29 -0.26 4.57 -0.396 6.85 c -0.0579 1.02 -0.0579 1.02 -0.117 2.06 c -0.243 3.91 -0.707 7.71 -1.42 11.6 h 6 c 0.206 -0.557 0.412 -1.11 0.625 -1.69 c 1.95 -3.28 4.32 -5.02 7.38 -7.31 h 2 v -2 c 1.8 -0.997 3.62 -1.97 5.44 -2.94 c 1.51 -0.818 1.51 -0.818 3.06 -1.65 c 7.67 -3.09 16.1 -2.56 24.3 -2.54 c 1.11 -0.000957 2.22 -0.00191 3.37 -0.0029 c 2.34 -0.000677 4.68 0.00115 7.02 0.00534 c 3.54 0.00533 7.09 0.0000506 10.6 -0.00635 c 2.29 0.000661 4.57 0.00194 6.86 0.00391 c 1.04 -0.00202 2.08 -0.00405 3.16 -0.00613 c 7.43 0.0232 14.8 0.482 22.2 1.14 c 1.38 -2.44 2.75 -4.87 4.12 -7.31 l 1.25 -2.21 c 2.33 -4.14 4.63 -8.3 6.88 -12.5 c 5.6 -10.3 5.6 -10.3 7.75 -13 h 2 c 0.25 -0.722 0.5 -1.44 0.758 -2.19 c 1.35 -3.06 2.98 -5.24 5.12 -7.81 c 0.678 -0.825 1.36 -1.65 2.05 -2.5 c 0.683 -0.825 1.37 -1.65 2.07 -2.5 c 0.669 -0.859 1.34 -1.72 2.03 -2.6 c 2.96 -3.59 6.41 -6.43 9.97 -9.4 c 0.692 -0.603 1.38 -1.21 2.1 -1.83 c 5.8 -4.84 11.8 -7.61 18.9 -10.2 l 3.38 -1.31 c 12.6 -2.4 24.3 -0.543 35.2 6.32 c 7.44 6.04 14.8 16.1 15.9 25.8 c -0.438 3.19 -0.438 3.19 -1.56 5.12 c -2.98 1.69 -4.44 1.62 -7.88 1.06 c -5.46 -2.66 -10.3 -6.22 -15.2 -9.75 c -5.82 -4.11 -10.5 -5.97 -17.8 -5.25 c -10.1 2.76 -16.7 8.93 -23 17 c -0.629 0.781 -1.26 1.56 -1.91 2.37 c -16.7 20.9 -29.4 44.5 -34.7 70.9 c -0.425 1.71 -0.425 1.71 -1.43 2.71 c -0.237 2.69 -0.422 5.36 -0.562 8.06 c -0.0432 0.759 -0.0864 1.52 -0.131 2.3 c -0.106 1.88 -0.207 3.76 -0.307 5.64 c 5.7 -2.49 8.19 -7.25 11.4 -12.3 c 0.573 -0.894 1.15 -1.79 1.74 -2.71 c 3.9 -6.17 7.36 -12.4 10.4 -19 c 1.58 -3.18 3.49 -6 5.46 -8.95 c 0.99 -1.92 1.95 -3.86 2.88 -5.81 c 2.27 -4.64 4.79 -8.84 7.73 -13.1 c 2.12 -3.23 3.74 -6.62 5.39 -10.1 h 2 l 0.875 -2.75 c 1.48 -4.29 2.8 -7.17 6.12 -10.2 c 1.18 -1.24 1.18 -1.24 2.38 -2.5 c 4.59 -4.37 4.59 -4.37 7.62 -5.5 c 4.6 0.654 7.39 2.27 10.4 5.81 c 2.88 5.64 3.88 10.3 3.97 16.6 c 0.0146 0.7 0.0292 1.4 0.0443 2.12 c 0.0462 2.22 0.0805 4.45 0.112 6.67 c 0.189 13.5 0.189 13.5 2.5 26.8 c 0.322 1.43 0.644 2.87 0.965 4.3 c 0.322 1.34 0.646 2.68 0.973 4.01 c 0.157 0.676 0.313 1.35 0.475 2.05 c 1.24 5.08 2.87 8.93 6.59 12.6 c 0.296 0.639 0.593 1.28 0.898 1.94 c 3.09 5.78 11.1 9.86 17.1 12.1 c 9.38 2.37 18.4 -0.07 27 -4 h 3 v -2 c 1.05 -0.598 2.1 -1.2 3.19 -1.81 c 1.27 -0.729 2.54 -1.46 3.81 -2.19 l 2.75 -1.56 c 2.2 -1.29 2.2 -1.29 3.56 -2.77 c 2.17 -2.15 4.54 -3.97 6.94 -5.86 c 4.11 -3.34 7.7 -6.71 11.1 -10.8 c 1.19 -1.43 2.43 -2.82 3.71 -4.17 c 0.692 -0.735 1.38 -1.47 2.1 -2.23 c 0.621 -0.647 1.24 -1.29 1.88 -1.96 c 6.4 -8.55 8.15 -17.2 9.62 -27.7 c 1.26 -8.57 2.59 -16.8 5.38 -25 c 0.459 -1.46 0.917 -2.92 1.38 -4.38 c 9.32 -27.5 9.32 -27.5 18.4 -32 c 4.26 -0.82 6.99 -0.587 11.2 0.375 c 3.21 2.39 4.29 4.15 5 8 c 0.868 15.3 -2.29 29.9 -5.24 44.9 c -0.852 4.33 -1.69 8.63 -2.29 13 c -0.473 3.15 -0.473 3.15 -1.44 6.44 c -1.3 4.66 -1.94 9.3 -2.6 14.1 c -0.248 1.8 -0.499 3.6 -0.754 5.4 c -0.108 0.788 -0.215 1.58 -0.326 2.39 c -0.357 1.84 -0.357 1.84 -1.36 2.84 c -0.287 1.74 -0.516 3.5 -0.719 5.25 l -0.387 3.29 c -0.13 1.14 -0.26 2.29 -0.395 3.46 c -0.13 1.11 -0.26 2.22 -0.395 3.37 c -0.257 2.2 -0.51 4.41 -0.759 6.61 c -0.206 1.8 -0.422 3.59 -0.657 5.38 c -0.833 6.54 -0.882 13.1 -0.878 19.6 c 0.0000806 1.19 0.000161 2.38 0.000244 3.6 c 0.0598 9.28 0.767 18.2 2.19 27.4 c 0.334 2.33 0.668 4.67 1 7 c 5.39 0.513 7.78 -0.705 12 -4 c 5.17 -3.93 5.17 -3.93 9 -9 h 2 c 0.248 -0.722 0.495 -1.44 0.75 -2.19 c 1.39 -3.13 3.07 -5.16 5.25 -7.81 c 5.97 -7.91 10.9 -16.4 15.8 -25 c 1.02 -1.76 2.07 -3.5 3.12 -5.24 c 3.89 -6.46 7.17 -13.1 10.3 -20 c 1.73 -3.78 3.57 -7.48 5.45 -11.2 c 2.6 -5.15 5.03 -10.3 7.31 -15.6 c 2.95 -6.69 5.97 -13.3 9 -20 c 0.834 -1.83 1.67 -3.67 2.5 -5.5 l 1.25 -2.74 c 0.841 -1.86 1.67 -3.72 2.5 -5.58 c 8.42 -18.9 8.42 -18.9 14.6 -23.6 c 3.31 -0.947 5.88 -0.422 9.19 0.375 c 2.9 4.35 2.54 7.89 2 13 c -1.66 7.5 -4.1 14.7 -7.07 21.8 c -0.833 1.99 -1.58 3.99 -2.3 6.03 c -2.18 5.88 -4.96 11.5 -7.62 17.2 c -4.05 8.73 -4.05 8.73 -8 17.5 c -12.1 27.3 -25.5 54.2 -43.3 78.2 c -1.37 1.87 -2.66 3.75 -3.9 5.71 c -2.03 2.93 -4.23 5.16 -6.81 7.62 c -0.661 0.694 -1.32 1.39 -2 2.1 c -8.24 8.57 -17.1 15.9 -29.4 16.4 c -8.49 -0.233 -13.6 -3.43 -19.8 -9 c -8.48 -8.99 -11.9 -18.4 -11.9 -30.5 h -2 v -5 h -1 c -0.33 -14.8 -0.66 -29.7 -1 -45 c -4.75 2.58 -4.75 2.58 -7.19 5.19 c -6.06 6.06 -12.9 11 -20.1 15.6 c -0.867 0.559 -0.867 0.559 -1.75 1.13 c -13.3 8.4 -28.4 12.8 -44.1 9.65 c -8.14 -2.03 -15.4 -5.34 -21.9 -10.6 c -0.673 -0.512 -1.35 -1.02 -2.04 -1.55 c -8.68 -7.02 -14.4 -16.4 -19 -26.4 c -0.462 -0.992 -0.462 -0.992 -0.934 -2 c -1.49 -3.29 -2.52 -6.42 -3.07 -10 h -1 c -1.21 -4.67 -1.09 -9.21 -1 -14 h -5 c -0.16 0.859 -0.16 0.859 -0.324 1.73 c -0.775 2.6 -1.92 4.31 -3.49 6.52 c -2.41 3.39 -4.3 6.86 -6.13 10.6 c -21.4 43.8 -21.4 43.8 -37.1 54.2 c -7.4 2.47 -14.9 0.968 -22 -2 c -5.71 -3.6 -7.78 -7.86 -10 -14 c -0.357 -0.918 -0.714 -1.84 -1.08 -2.78 c -1.08 -3.8 -1.34 -7.36 -1.36 -11.3 c -0.00314 -0.792 -0.00628 -1.58 -0.00952 -2.4 c 0.216 -11.5 1.23 -29.1 6.45 -39.5 c -7.77 -0.102 -15.5 -0.172 -23.3 -0.22 c -2.64 -0.02 -5.28 -0.0473 -7.92 -0.082 c -3.81 -0.0489 -7.62 -0.0713 -11.4 -0.0889 c -1.75 -0.031 -1.75 -0.031 -3.54 -0.0626 c -8.09 -0.00218 -16.4 0.798 -22.8 6.15 c -4.75 4.87 -7.91 11.1 -11.2 17 c -1.05 1.91 -2.13 3.8 -3.29 5.64 c -1.5 2.6 -2.51 5.06 -3.48 7.9 c -0.342 0.99 -0.684 1.98 -1.04 3 c -0.347 1.02 -0.695 2.05 -1.05 3.1 c -0.527 1.52 -0.527 1.52 -1.06 3.08 c -2.74 7.97 -5.06 15.5 -5.77 23.9 c -0.152 1.59 -0.305 3.18 -0.459 4.77 c -0.233 2.48 -0.46 4.95 -0.67 7.43 c -0.208 2.41 -0.444 4.82 -0.683 7.23 c -0.0554 0.735 -0.111 1.47 -0.168 2.23 c -0.588 5.6 -2.22 8.17 -6.13 12 c -3.71 1.24 -7.14 1.55 -11 1 c -3.89 -2.63 -5.8 -6.54 -7 -11 c -0.411 -4.72 -0.349 -9.41 -0.293 -14.1 c 0.00561 -1.37 0.00987 -2.75 0.0129 -4.12 c 0.0114 -3.6 0.0408 -7.19 0.0741 -10.8 c 0.0308 -3.66 0.0444 -7.33 0.0595 -11 c 0.0286 -6.43 0.0721 -12.9 0.126 -19.3 c 0.0143 -1.89 0.0202 -3.78 0.0202 -5.67 c -0.94 0.866 -0.94 0.866 -1.9 1.75 c -0.817 0.743 -1.63 1.48 -2.48 2.25 c -0.812 0.743 -1.62 1.48 -2.46 2.25 c -2.16 1.75 -2.16 1.75 -4.16 1.75 v 2 c -9.29 8.73 -21 16.7 -32 23 c -1.13 0.66 -2.27 1.32 -3.44 2 c -13.6 6.45 -29.8 10.1 -44.6 5.88 c -13.4 -5.66 -22.4 -16.6 -27.9 -29.9 c -0.188 -2.89 -0.188 -2.89 0 -5 h -2 c -0.673 -2.89 -1.34 -5.79 -2 -8.69 c -0.286 -1.22 -0.286 -1.22 -0.578 -2.47 c -0.909 -4.01 -1.69 -7.7 -1.42 -11.8 h -1 c -0.125 -7.62 -0.125 -7.62 1 -11 h -2 c -0.33 -6.93 -0.66 -13.9 -1 -21 c -3.37 1.12 -3.68 1.6 -5.49 4.46 c -0.456 0.713 -0.912 1.43 -1.38 2.16 c -0.476 0.763 -0.952 1.53 -1.44 2.31 c -0.493 0.778 -0.987 1.56 -1.5 2.36 c -2.98 4.72 -5.91 9.47 -8.75 14.3 c -7.84 13.2 -16.2 26.1 -25.2 38.6 c -1.32 1.83 -1.32 1.83 -2.28 3.86 h -2 c -0.26 0.743 -0.519 1.49 -0.787 2.25 c -1.24 2.82 -2.53 4.51 -4.63 6.75 l -2.06 2.19 c -0.71 0.742 -1.42 1.48 -2.15 2.25 c -0.687 0.738 -1.37 1.48 -2.08 2.24 c -7.16 7.56 -15.5 15.5 -26.4 16.5 c -7.6 0.164 -13.7 -1.88 -19.9 -6.2 c -1.98 -2.49 -1.98 -2.49 -3.75 -5.31 c -0.593 -0.924 -1.19 -1.85 -1.8 -2.8 c -1.53 -3.04 -1.97 -5.54 -2.45 -8.89 c -0.348 -0.603 -0.696 -1.21 -1.05 -1.83 c -1.53 -3.53 -1.15 -7.13 -1.07 -10.9 c 0.00902 -0.793 0.018 -1.59 0.0273 -2.4 c 0.0235 -1.95 0.0594 -3.9 0.0977 -5.85 c -4.98 0 -6.88 1.96 -10.5 5 c -6.26 5.08 -12.6 9.74 -19.5 14 c -0.891 0.556 -1.78 1.11 -2.7 1.68 c -13.3 7.78 -27.8 10.5 -42.9 7.62 c -9.45 -2.65 -17.8 -6.95 -24.4 -14.3 c -0.784 -0.743 -1.57 -1.48 -2.38 -2.25 c -7.22 -7.57 -15.6 -17.7 -15.6 -28.8 c -0.66 -0.33 -1.32 -0.66 -2 -1 c -2.53 -5.96 -3.36 -11.6 -3 -18 c -2.85 0.305 -3.81 0.768 -5.65 3.03 c -0.57 0.96 -1.14 1.92 -1.73 2.91 c -0.33 0.552 -0.659 1.1 -0.999 1.67 c -4.32 7.37 -8.24 15 -12.3 22.5 c -3.64 6.8 -7.39 13.5 -11.4 20.1 c -0.428 0.699 -0.857 1.4 -1.3 2.12 c -7.55 12.1 -7.55 12.1 -12.7 16.5 c -0.651 0.563 -1.3 1.13 -1.97 1.71 c -4.96 3.74 -8.91 3.97 -15 3.48 c -6.55 -1.06 -12 -3.01 -16.8 -7.75 c -3.29 -4.75 -4.23 -9.65 -5.25 -15.2 h -1 c -0.027 -1.94 -0.0464 -3.87 -0.0625 -5.81 c -0.0116 -1.08 -0.0232 -2.16 -0.0352 -3.27 c 0.0977 -2.92 0.0977 -2.92 1.1 -5.92 c -3.05 1.13 -4.65 2.63 -6.62 5.12 c -0.784 0.949 -1.57 1.9 -2.38 2.88 h -2 c -0.377 0.853 -0.377 0.853 -0.762 1.72 c -2.34 4.3 -5.93 7.7 -9.24 11.3 c -0.517 0.559 -1.03 1.12 -1.57 1.7 c -1.1 1.15 -2.26 2.23 -3.43 3.3 h -2 c -0.268 0.639 -0.536 1.28 -0.812 1.94 c -1.19 2.06 -1.19 2.06 -4.19 3.06 c -1.21 2 -1.21 2 -2 4 h -2 c -0.258 0.596 -0.516 1.19 -0.781 1.8 c -1.33 2.39 -2.61 3.6 -4.72 5.32 c -3.38 2.85 -6.52 5.85 -9.62 9 c -3.49 3.53 -7.03 6.75 -10.9 9.88 c -2.23 2.17 -4.41 4.4 -6.59 6.62 c -2.98 3.02 -6 5.92 -9.23 8.69 c -4.28 3.67 -8.18 7.68 -12.1 11.7 c -2.1 1.94 -2.1 1.94 -4.1 1.94 v 2 c -1.22 1.2 -1.22 1.2 -3.06 2.69 c -5.27 4.45 -10 9.38 -14.8 14.3 c -0.63 0.642 -1.26 1.28 -1.91 1.94 c -0.567 0.584 -1.13 1.17 -1.72 1.77 c -1.48 1.27 -1.48 1.27 -3.48 1.27 v 2 c -1.64 1.69 -1.64 1.69 -3.81 3.56 c -0.708 0.62 -1.42 1.24 -2.14 1.88 c -2.04 1.56 -2.04 1.56 -5.04 2.56 c -0.289 0.578 -0.578 1.16 -0.875 1.75 c -1.52 3.05 -3.61 4.98 -6.12 7.25 c -0.99 0.33 -1.98 0.66 -3 1 c -0.72 1.98 -1.38 3.99 -2 6 c -0.482 0.753 -0.964 1.51 -1.46 2.28 c -1.78 3.14 -2.44 5.94 -3.16 9.47 c -1.28 6.16 -1.28 6.16 -2.38 7.25 c -0.662 3.67 -1.24 7.35 -1.81 11 c -0.759 4.79 -1.84 9.3 -3.19 14 c -0.57 2.8 -1.04 5.62 -1.5 8.44 c -0.783 4.76 -1.68 9.41 -2.89 14.1 c -0.818 3.33 -1.54 6.67 -2.27 10 c -0.149 0.687 -0.298 1.37 -0.451 2.08 c -0.622 2.87 -1.24 5.75 -1.86 8.62 c -0.456 2.12 -0.916 4.24 -1.38 6.36 c -0.27 1.25 -0.54 2.51 -0.818 3.8 c -0.831 3.58 -1.81 7.08 -2.84 10.6 c -0.693 2.6 -1.38 5.2 -2.06 7.8 c -0.39 1.49 -0.78 2.97 -1.17 4.46 c -0.605 2.31 -1.21 4.61 -1.81 6.92 c -3.96 15.2 -3.96 15.2 -6.27 21.8 c -1.66 4.86 -3.02 9.82 -4.45 14.8 c -1.45 4.93 -3.16 9.58 -5.25 14.3 c -0.932 2.43 -1.85 4.87 -2.75 7.31 c -0.528 1.41 -1.06 2.83 -1.59 4.24 c -0.834 2.23 -1.67 4.46 -2.49 6.69 c -3.81 10.3 -8.09 20 -13.1 29.8 c -1.82 3.53 -3.58 7.08 -5.35 10.6 c -0.642 1.28 -1.28 2.57 -1.93 3.85 c -1.09 2.18 -2.17 4.37 -3.23 6.57 c -1.73 3.34 -3.67 6.5 -5.72 9.64 c -0.397 0.611 -0.793 1.22 -1.2 1.85 c -6.75 10.3 -14.1 19.5 -22.6 28.5 c -0.617 0.67 -1.23 1.34 -1.87 2.03 c -6.8 7.18 -15.1 12.5 -23.6 17.5 c -0.591 0.351 -1.18 0.701 -1.79 1.06 c -3.3 1.87 -4.87 2.44 -8.77 2.44 c -1.92 -2.58 -1.92 -2.58 -2.92 -4.24 c -1.11 -1.81 -2.34 -3.45 -3.66 -5.12 c -0.438 -0.558 -0.877 -1.12 -1.33 -1.69 c -0.909 -1.15 -1.82 -2.3 -2.73 -3.45 c -3.36 -4.29 -3.36 -4.29 -3.36 -6.5 c 0.69 -0.0864 1.38 -0.173 2.09 -0.262 c 6.17 -0.922 10.8 -2.4 16.1 -5.71 c 1.78 -1.02 1.78 -1.02 3.78 -1.02 v -2 c 0.928 -0.124 0.928 -0.124 1.88 -0.25 c 2.26 -0.529 2.26 -0.529 3.06 -2.5 l 1.06 -2.25 c 1.66 -1.67 3.33 -3.34 5 -5 c 15.4 -16.9 26.3 -38.1 34.8 -59.2 c 1.13 -2.74 2.35 -5.41 3.61 -8.1 c 3.26 -7.1 5.89 -14.4 8.56 -21.8 c 0.582 -1.58 0.582 -1.58 1.18 -3.19 c 6.2 -17 12.2 -34.3 16.8 -51.8 c 0.223 -0.845 0.445 -1.69 0.674 -2.56 c 1.3 -4.95 2.59 -9.91 3.87 -14.9 c 0.862 -3.33 1.74 -6.65 2.66 -9.97 c 1.82 -6.59 3.35 -13.1 4.3 -19.8 c 0.492 -2.78 0.492 -2.78 1.45 -6.01 c 1.24 -4.5 1.9 -8.96 2.54 -13.6 c 0.974 -6.78 2.05 -13.5 3.5 -20.2 c -0.598 0.309 -1.2 0.619 -1.81 0.938 c -2.19 1.06 -2.19 1.06 -5.19 2.06 c -0.704 1.31 -1.36 2.65 -2 4 c -2 2.75 -2 2.75 -4 5 h -2 c -0.251 0.568 -0.503 1.14 -0.762 1.72 c -3.37 6.21 -9.22 11.4 -14.2 16.3 c -4.66 4.49 -4.66 4.49 -8.81 9.44 c -0.392 0.516 -0.784 1.03 -1.19 1.56 h -2 c -0.0619 0.557 -0.124 1.11 -0.188 1.69 c -0.929 2.65 -2.34 3.86 -4.32 5.78 c -2.9 2.97 -5.45 6.24 -8.06 9.47 l -1.71 2.09 c -2.49 3.08 -4.88 6.13 -7.01 9.47 l -1.72 2.5 h -2 c -0.235 0.71 -0.469 1.42 -0.711 2.15 c -1.52 3.36 -3.48 5.64 -5.91 8.41 c -4.25 4.94 -7.95 10.1 -11.5 15.6 c -1.81 2.78 -3.7 5.49 -5.63 8.2 c -2.26 3.21 -4.34 6.42 -6.23 9.86 c -1.23 2.2 -2.52 4.35 -3.83 6.51 c -0.514 0.857 -1.03 1.71 -1.56 2.6 c -1.09 1.82 -2.19 3.64 -3.29 5.46 c -8.06 13.5 -14.6 27.6 -20.3 42.3 c -0.391 0.986 -0.781 1.97 -1.18 2.99 c -2.86 7.51 -4.89 15.2 -6.82 23 c -0.218 0.84 -0.436 1.68 -0.66 2.55 c -1.63 7 -1.86 14.1 -2.19 21.3 c -0.0521 1.07 -0.0521 1.07 -0.105 2.16 c -0.0822 2.23 -0.0822 2.23 0.226 5.33 c -0.27 2.68 -0.27 2.68 -2.28 4.66 c -0.883 0.544 -1.77 1.09 -2.68 1.65 c -0.913 0.581 -1.83 1.16 -2.77 1.76 c -0.84 0.532 -1.68 1.06 -2.55 1.61 c -0.969 0.804 -1.94 1.61 -2.94 2.44 c -2.06 1.56 -2.06 1.56 -5.06 1.56 v -5 h -2 c -0.985 -4.97 -1.19 -9.76 -1.24 -14.8 c -0.00807 -0.844 -0.0161 -1.69 -0.0245 -2.56 c -0.0138 -1.78 -0.0245 -3.57 -0.0324 -5.35 c -0.0115 -1.8 -0.0318 -3.59 -0.0615 -5.39 c -0.193 -11.7 0.638 -21.7 4.36 -32.9 c 0.272 -0.889 0.544 -1.78 0.824 -2.69 c 9.01 -29.1 24.8 -58.1 43 -82.4 c 2.75 -3.7 5.38 -7.49 8.03 -11.3 c 4.58 -6.54 9.33 -12.9 14.3 -19.2 c 1.86 -2.28 1.86 -2.28 2.86 -4.44 h 2 c 0.209 -0.67 0.418 -1.34 0.633 -2.03 c 1.84 -4 4.45 -7.09 7.24 -10.5 c 0.53 -0.651 1.06 -1.3 1.61 -1.97 c 1.5 -1.85 3.01 -3.69 4.52 -5.53 c 2.78 -3.32 2.78 -3.32 5 -7 h 2 c 0.211 -0.695 0.423 -1.39 0.641 -2.11 c 1.77 -3.76 4.23 -6.25 7.11 -9.21 c 3.52 -3.7 6.89 -7.34 9.88 -11.5 l 2.38 -3.19 h 2 c 0.34 -0.801 0.34 -0.801 0.688 -1.62 c 1.74 -3.15 3.98 -5.79 6.31 -8.51 c 0.492 -0.575 0.984 -1.15 1.49 -1.74 c 6.66 -7.7 13.7 -14.6 21.7 -20.9 l 1.83 -1.43 c 2.39 -1.85 4.77 -3.67 7.25 -5.39 c 9.18 -6.69 10.2 -19.3 11.9 -29.7 c 0.457 -3 0.907 -6.01 1.36 -9.01 c 0.409 -2.46 0.922 -4.86 1.51 -7.28 c 1.4 -6.05 1.7 -12.2 2.16 -18.4 c 0.0748 -0.926 0.15 -1.85 0.227 -2.81 c 0.0606 -0.823 0.121 -1.65 0.184 -2.49 c 0.404 -2.97 1.14 -5.79 1.89 -8.69 c 0.787 -3.37 1.16 -6.76 1.53 -10.2 c 0.0836 -0.75 0.167 -1.5 0.253 -2.27 c 0.175 -1.58 0.347 -3.16 0.516 -4.74 c 0.254 -2.36 0.518 -4.72 0.783 -7.08 c 0.985 -8.92 1.72 -17.8 2.16 -26.8 c 0.248 -3.04 0.248 -3.04 1.25 -5.04 c 0.286 -2.36 0.521 -4.71 0.719 -7.09 c 0.0939 -1.08 0.0939 -1.08 0.19 -2.18 c 0.203 -2.37 0.399 -4.74 0.592 -7.11 c 0.1 -1.23 0.1 -1.23 0.203 -2.49 c 2.67 -33 2.42 -66 2.3 -99.1 c -3.91 1.3 -4.4 2.83 -6.51 6.33 c -0.676 1.11 -1.35 2.22 -2.05 3.37 c -0.709 1.18 -1.42 2.37 -2.13 3.55 c -1.38 2.28 -2.76 4.55 -4.14 6.83 c -0.693 1.15 -1.39 2.3 -2.08 3.45 c -2.73 4.53 -5.51 9.02 -8.29 13.5 c -1.83 3 -3.61 6.04 -5.37 9.08 c -2.8 4.83 -5.74 9.54 -8.76 14.2 c -2.1 3.3 -4.1 6.65 -6.1 10 c -1.73 2.87 -3.49 5.72 -5.27 8.57 c -3.42 5.55 -6.73 11.2 -10 16.8 c -0.451 0.78 -0.903 1.56 -1.37 2.36 c -2.18 3.78 -4.32 7.57 -6.42 11.4 c -2.59 4.67 -5.4 9.18 -8.28 13.7 c -0.521 0.821 -1.04 1.64 -1.58 2.49 c -2.42 3.82 -4.86 7.62 -7.31 11.4 c -0.401 0.622 -0.802 1.24 -1.22 1.88 c -1.07 1.65 -2.14 3.29 -3.21 4.94 c -1.35 2.15 -2.65 4.34 -3.89 6.55 c -2.01 3.55 -4.32 6.86 -6.73 10.1 c -0.882 1.22 -1.76 2.44 -2.64 3.66 c -0.443 0.614 -0.886 1.23 -1.34 1.86 c -2.1 2.93 -4.15 5.89 -6.2 8.85 l -2.12 3.06 c -1.42 2.08 -2.8 4.19 -4.14 6.31 c -0.616 0.866 -1.23 1.73 -1.87 2.62 h -2 c -0.259 0.733 -0.518 1.47 -0.785 2.22 c -1.25 2.87 -2.65 4.82 -4.65 7.21 c -2.42 2.94 -4.83 5.88 -7.15 8.9 c -5.67 7.37 -11.6 14.3 -18 21.1 c -1.55 1.66 -3.09 3.33 -4.63 5.01 c -0.799 0.87 -0.799 0.87 -1.61 1.76 c -1.02 1.11 -2.04 2.22 -3.06 3.33 c -6.04 6.55 -6.04 6.55 -9.15 9.45 h -2 v 2 c -1.4 1.41 -1.4 1.41 -3.38 3.06 c -3.3 2.8 -6.54 5.65 -9.75 8.56 c -10.4 9.38 -10.4 9.38 -12.9 9.38 v 2 c -1.95 1.59 -1.95 1.59 -4.69 3.5 c -4.43 3.14 -8.77 6.36 -13.1 9.69 c -5.92 4.58 -11.8 8.98 -18.2 12.8 c -1.59 0.963 -1.59 0.963 -3.21 1.95 c -19.6 11.9 -39 22.9 -61.5 28.3 c -0.664 0.163 -1.33 0.326 -2.01 0.494 c -25.3 5.81 -63.3 5.9 -86.2 -8.32 c -0.69 -0.469 -1.38 -0.938 -2.09 -1.42 l -2.56 -1.67 c -9.68 -6.65 -18.2 -15.1 -25.4 -24.3 v -2 c -0.99 -0.33 -1.98 -0.66 -3 -1 c -0.688 -2.06 -0.688 -2.06 -1 -4 h -2 c -1.69 -2.47 -3.27 -4.94 -4.81 -7.5 l -1.29 -2.11 c -0.865 -1.41 -1.73 -2.83 -2.59 -4.25 c -1.31 -2.15 -2.65 -4.28 -3.99 -6.41 c -1.65 -2.64 -3.23 -5.27 -4.63 -8.05 c -0.489 -0.953 -0.489 -0.953 -0.988 -1.93 c -0.699 -1.76 -0.699 -1.76 -0.699 -4.76 h -2 c -0.266 -0.675 -0.531 -1.35 -0.805 -2.05 c -0.353 -0.892 -0.706 -1.78 -1.07 -2.7 c -0.348 -0.882 -0.696 -1.76 -1.05 -2.67 c -0.999 -2.53 -0.999 -2.53 -2.2 -4.66 c -0.867 -1.92 -0.867 -1.92 -0.867 -5.92 h -2 c -1.09 -3.74 -2.12 -7.46 -3 -11.2 c -0.796 -3.79 -0.796 -3.79 -3 -6.75 c -0.561 -2.26 -1.05 -4.53 -1.5 -6.81 c -0.687 -3.48 -1.37 -6.81 -2.53 -10.2 c -1.14 -3.55 -1.59 -6.95 -2.04 -10.7 c -0.518 -4.7 -0.518 -4.7 -1.43 -9.34 c -8.37 -33.9 -3.52 -72.6 -1.5 -107 c 0.0635 -1.12 0.0635 -1.12 0.128 -2.26 c 0.12 -2.11 0.247 -4.21 0.376 -6.32 c 0.0716 -1.2 0.143 -2.39 0.217 -3.62 c 0.279 -2.8 0.279 -2.8 1.28 -4.8 c 0.353 -2.53 0.662 -5.06 0.938 -7.6 c 0.174 -1.54 0.349 -3.08 0.523 -4.62 c 0.271 -2.43 0.541 -4.86 0.81 -7.3 c 0.26 -2.34 0.526 -4.68 0.792 -7.03 c 0.0792 -0.732 0.158 -1.46 0.24 -2.22 c 0.585 -5.13 0.585 -5.13 1.7 -6.25 c 0.345 -1.77 0.636 -3.54 0.902 -5.32 l 0.51 -3.31 c 0.347 -2.3 0.693 -4.61 1.04 -6.91 c 0.867 -5.63 1.9 -11 3.55 -16.5 c 0.707 -3.39 1.28 -6.8 1.86 -10.2 c 0.683 -3.84 1.69 -7.19 3.14 -10.8 c 0.791 -3.66 1.45 -7.33 2.12 -11 c 0.738 -3.67 1.88 -7.12 3.1 -10.7 c 1.33 -3.96 2.41 -7.99 3.53 -12 c 2.18 -7.7 4.46 -15.4 6.88 -23 c 0.277 -0.883 0.554 -1.77 0.839 -2.68 c 1.67 -5.22 3.54 -10.3 5.63 -15.4 c 1.17 -2.92 2.15 -5.88 3.1 -8.88 c 2.29 -6.79 5.01 -13.4 7.81 -20 c 0.343 -0.811 0.686 -1.62 1.04 -2.46 c 0.984 -2.33 1.97 -4.65 2.96 -6.98 c 0.269 -0.633 0.538 -1.27 0.815 -1.92 c 4.68 -11 9.92 -21.6 15.4 -32.2 c 0.519 -0.996 1.04 -1.99 1.57 -3.02 c 3.39 -6.45 7.04 -12.7 10.9 -18.9 c 0.342 -0.556 0.685 -1.11 1.04 -1.68 c 1.84 -3 3.69 -5.99 5.54 -8.98 c 0.546 -0.885 0.546 -0.885 1.1 -1.79 c 1.02 -1.65 2.04 -3.31 3.07 -4.96 c 1.53 -2.45 1.53 -2.45 2.57 -4.58 h 2 c 0.219 -0.66 0.438 -1.32 0.664 -2 c 1.79 -4.01 4.2 -7.42 6.71 -11 c 0.482 -0.699 0.964 -1.4 1.46 -2.12 c 3.49 -5.02 7.16 -9.81 11.2 -14.4 c 2.62 -2.97 5.17 -5.99 7.7 -9.04 c 11.9 -14.3 25.2 -26.4 40.2 -37.5 c 0.605 -0.474 1.21 -0.949 1.83 -1.44 c 5.81 -4.47 12.6 -7.4 19.2 -10.6 c 0.897 -0.456 1.79 -0.913 2.72 -1.38 c 5.64 -2.77 11.4 -4.66 17.4 -6.37 c 0.74 -0.211 1.48 -0.422 2.24 -0.639 c 9.17 -2.48 18.2 -2.79 27.6 -2.8 z m 87 178 l 1 2 z m 1 45 v 6 h 1 v -6 h -1 z m -315 100 l 1 3 z m -4 21 l 1 4 z m 1068 26 l 1 2 z m -766 1 l 1 2 z m 159 8 v 11 h 1 v -11 h -1 z m -466 1 v 6 h 1 v -6 h -1 z m -1 15 l 1 3 z m 1194 5 l 1 2 z m -488 3 l 1 2 z m 122 26 c -0.33 0.66 -0.66 1.32 -1 2 h 2 c -0.33 -0.66 -0.66 -1.32 -1 -2 z m -366 16 v 6 h 1 v -6 h -1 z m 727 0 l 1 3 z m -1191 15 l 1 2 z m 2 28 l 1 4 z m 4 29 l 1 2 z m 5 20 l 1 2 z m 5 16 l 1 2 z m 422 69 l 1 2 z m -156 183 v 5 h 1 v -5 h -1 z m 0 38 l 1 2 z" stroke-linecap="round"/>
</g>
		<g transform="matrix(0.8 0 0 0.8 79.512 -240.5349)">
<path style="stroke: none; stroke-width: 1; stroke-dasharray: none; stroke-linecap: butt; stroke-dashoffset: 0; stroke-linejoin: miter; stroke-miterlimit: 4; is-custom-font: none; font-file-url: none; fill: rgb(155,163,176); fill-rule: nonzero; opacity: 1;" transform=" translate(-125.39, -252.4314)" d="m 0 0 c 1.28 -0.00315 2.56 -0.0063 3.87 -0.00955 c 1.4 0.00179 2.8 0.00384 4.2 0.00613 c 1.43 -0.000673 2.86 -0.00164 4.29 -0.0029 c 3 -0.00148 5.99 0.000673 8.99 0.00534 c 3.85 0.0057 7.7 0.00241 11.5 -0.00357 c 2.95 -0.00361 5.9 -0.00247 8.86 0.000128 c 1.42 0.000669 2.84 -0.000158 4.26 -0.00248 c 1.98 -0.00253 3.96 0.002 5.94 0.0069 c 1.13 0.000796 2.26 0.00159 3.42 0.00241 c 2.54 0.127 2.54 0.127 3.54 1.13 c 2.08 0.206 4.16 0.348 6.25 0.465 c 1.96 0.115 1.96 0.115 3.95 0.233 c 0.693 0.0391 1.39 0.0782 2.1 0.118 c 9.87 0.561 19.7 1.15 29.6 2.25 c 0.729 0.0792 1.46 0.158 2.21 0.24 c 4.78 0.565 4.78 0.565 5.92 1.7 c 1.47 0.228 2.96 0.397 4.44 0.543 c 0.962 0.101 1.92 0.203 2.91 0.307 c 1.59 0.167 1.59 0.167 3.21 0.337 c 10.7 1.2 21.3 2.93 31.9 4.94 c 0.713 0.134 1.43 0.268 2.16 0.406 c 12 2.27 12 2.27 14.4 3.47 c 1.34 0.317 2.69 0.602 4.04 0.867 c 0.81 0.164 1.62 0.327 2.46 0.496 c 1.69 0.336 3.37 0.669 5.06 1 c 4.89 0.993 9.56 2.24 14.3 3.88 c 3.42 1.19 6.89 2.25 10.4 3.32 c 3.61 1.12 7.22 2.24 10.8 3.44 c 3.67 1.21 7.37 2.29 11.1 3.37 c 10.8 3.16 10.8 3.16 16.1 4.75 c 0.972 0.291 1.94 0.583 2.95 0.883 c 2.73 0.925 5.35 2 7.99 3.16 c 2.14 0.921 4.3 1.78 6.47 2.63 c 10.3 4.06 20.5 8.4 30.5 13.2 c 1.8 0.842 3.61 1.68 5.41 2.52 c 1.86 0.862 3.71 1.73 5.56 2.6 c 2.92 1.37 5.85 2.72 8.77 4.08 c 9.04 4.21 17.7 8.62 26.3 13.8 c 2.33 1.34 4.66 2.67 7 4 c 14.4 8.17 14.4 8.17 20.1 11.8 c 2.35 1.47 4.73 2.87 7.12 4.28 c 3.51 2.09 6.65 4.35 9.81 6.94 c 0.99 0.33 1.98 0.66 3 1 v 2 c 1.98 0.66 3.96 1.32 6 2 v 2 c 1.98 0.66 3.96 1.32 6 2 v 2 c 2.47 0.99 2.47 0.99 5 2 v 2 c 0.835 0.402 0.835 0.402 1.69 0.812 c 2.51 1.29 4.89 2.74 7.31 4.19 c 0.681 0.309 1.36 0.619 2.06 0.938 c 2.45 1.34 3.99 3.06 5.94 5.06 c 2.29 2.05 4.64 4.03 7 6 c 0.898 0.753 1.8 1.51 2.72 2.28 l 2.9 2.41 c 1.35 1.12 1.35 1.12 2.73 2.26 c 2.59 2.09 2.59 2.09 5.36 3.67 c 2.29 1.38 2.29 1.38 4.22 3.82 c 2.37 2.94 4.9 4.52 8.06 6.56 c 2.38 2.12 2.38 2.12 4 4 v 2 c 0.99 0.33 1.98 0.66 3 1 v 2 c 0.577 0.289 1.16 0.578 1.75 0.875 c 0.742 0.371 1.49 0.742 2.25 1.12 c 0.681 0.268 1.36 0.536 2.06 0.812 c 1.94 1.19 1.94 1.19 3.38 3.62 c 1.39 2.73 1.39 2.73 4.12 4.06 c 3 1.84 3.21 3.3 4.44 6.5 c 1.32 0.689 2.66 1.35 4 2 c 1.65 1.39 1.65 1.39 3.23 2.97 c 0.86 0.857 0.86 0.857 1.74 1.73 c 0.88 0.891 0.88 0.891 1.78 1.8 c 0.602 0.594 1.2 1.19 1.82 1.8 c 0.568 0.571 1.14 1.14 1.72 1.73 c 0.519 0.521 1.04 1.04 1.57 1.58 c 1.13 1.39 1.13 1.39 1.13 3.39 c 0.601 0.266 1.2 0.533 1.82 0.807 c 2.24 1.23 3.4 2.32 5.02 4.27 c 0.759 0.904 0.759 0.904 1.53 1.83 c 0.516 0.628 1.03 1.26 1.56 1.9 c 3.54 4.26 7.11 8.31 11.1 12.2 c 1.23 1.46 2.47 2.91 3.67 4.39 c 0.945 1.14 1.92 2.26 2.91 3.37 c 2.98 3.33 4.81 6.03 6.42 10.2 c 0.99 0.33 1.98 0.66 3 1 c 0.926 1.3 1.84 2.62 2.68 3.98 c 2.39 3.67 5.08 7.13 7.71 10.6 c 1.61 2.39 1.61 2.39 1.61 4.39 c 0.99 0.33 1.98 0.66 3 1 c 1.06 1.94 1.06 1.94 2 4 c 0.66 0.66 1.32 1.32 2 2 c 3 4.62 3 4.62 3 7 h 2 c 1.23 1.51 1.23 1.51 2.62 3.69 c 0.781 1.21 0.781 1.21 1.58 2.45 c 0.593 0.944 1.19 1.89 1.8 2.86 c 0.35 0.551 0.7 1.1 1.06 1.67 c 6.94 10.9 6.94 10.9 6.94 13.3 h 2 c 0.291 0.534 0.583 1.07 0.883 1.62 c 4.27 7.76 8.78 15.3 13.6 22.8 c 3.09 4.81 5.67 9.75 8.14 14.9 c 1.33 2.67 2.81 5.18 4.36 7.73 l 3 6 c 0.68 1.21 1.37 2.42 2.06 3.62 c 2.14 3.74 4.02 7.5 5.75 11.4 c 1.51 3.43 3.06 6.84 4.62 10.2 c 4.37 9.6 8.27 19.4 12.2 29.2 c 0.808 2.02 1.62 4.04 2.46 6.05 c 2.58 6.21 4.68 12.6 6.75 19 c 1.14 3.49 2.32 6.89 3.81 10.2 c 2.65 6.26 2.59 12.3 2.63 18.9 c 0.0206 0.943 0.0412 1.89 0.0625 2.86 c 0.0533 9.7 -1.82 17.4 -7.94 25 c -0.653 0.813 -0.653 0.813 -1.32 1.64 c -3.98 4.87 -8.11 9.88 -13.1 13.8 h -3 c -0.701 -1.74 -1.39 -3.5 -2.06 -5.25 c -0.383 -0.975 -0.766 -1.95 -1.16 -2.95 c -0.788 -2.84 -0.802 -4.09 0.223 -6.8 h -2 c -1.6 -5.65 -3.03 -11.2 -4 -17 c -0.371 -0.825 -0.742 -1.65 -1.12 -2.5 c -1.14 -3.27 -0.775 -5.18 0.125 -8.5 c 0.969 -1.68 1.97 -3.35 3 -5 c 2.14 -5.12 2.35 -9.73 2.31 -15.2 c -0.00419 -0.843 -0.00838 -1.69 -0.0127 -2.55 c -0.296 -16.4 -7.95 -30 -18.8 -41.9 c -3.73 -3.41 -7.87 -6.08 -12.2 -8.7 c -4.36 -2.71 -7.34 -5.44 -10.4 -9.63 v -2 h -2 c -0.273 -0.922 -0.273 -0.922 -0.551 -1.86 c -0.251 -0.808 -0.503 -1.62 -0.762 -2.45 c -0.365 -1.2 -0.365 -1.2 -0.738 -2.43 c -1 -2.39 -2.12 -3.48 -3.95 -5.26 c -0.688 -3.19 -0.688 -3.19 -1 -6 h -2 c -0.577 -1.18 -1.16 -2.35 -1.75 -3.56 c -1.39 -2.79 -2.85 -5.5 -4.44 -8.19 c -1.43 -2.56 -2.36 -4.4 -2.81 -7.25 h -2 c -0.461 -0.825 -0.923 -1.65 -1.4 -2.5 c -12 -21.2 -25.3 -41.5 -40.6 -60.5 c -4.51 -5.69 -8.82 -11.5 -13 -17.4 c -2.14 -2.78 -4.49 -5.13 -6.99 -7.58 c -1.98 -2.08 -3.93 -4.2 -5.88 -6.31 c -0.529 -0.573 -1.06 -1.15 -1.6 -1.73 c -2.82 -3.06 -5.58 -6.16 -8.27 -9.33 c -2.84 -3.29 -5.97 -6.04 -9.28 -8.84 c -2.65 -2.4 -4.88 -5.08 -7.18 -7.81 c -2.42 -2.68 -5.14 -4.93 -7.89 -7.26 c -1.79 -1.62 -3.26 -3.27 -4.77 -5.15 c -3.21 -3.94 -7.11 -6.83 -11.1 -9.86 c -0.652 -0.561 -1.3 -1.12 -1.98 -1.7 v -2 c -0.959 -0.402 -0.959 -0.402 -1.94 -0.812 c -2.06 -1.19 -2.06 -1.19 -3.06 -4.19 c -2.5 -1.22 -2.5 -1.22 -5 -2 v -2 c -1.02 -0.278 -1.02 -0.278 -2.06 -0.562 c -2.81 -1.37 -4.03 -2.41 -6.12 -4.62 c -4.12 -4.33 -8.85 -7.53 -13.8 -10.8 l -3 -2 v -2 c -0.763 -0.289 -1.53 -0.578 -2.31 -0.875 c -2.69 -1.12 -2.69 -1.12 -5.69 -3.12 v -2 c -0.784 -0.309 -1.57 -0.619 -2.38 -0.938 c -2.62 -1.06 -2.62 -1.06 -4.62 -2.06 v -2 c -0.724 -0.268 -1.45 -0.536 -2.2 -0.812 c -2.79 -1.18 -5.14 -2.54 -7.68 -4.19 c -1.43 -0.926 -1.43 -0.926 -2.89 -1.87 c -4.26 -2.8 -8.49 -5.64 -12.7 -8.49 c -4.51 -3.02 -9.11 -5.83 -13.9 -8.48 c -0.822 -0.572 -0.822 -0.572 -1.66 -1.16 v -2 c -0.99 -0.227 -1.98 -0.454 -3 -0.688 c -5.62 -1.6 -10.1 -5.01 -14.9 -8.31 c -4.21 -2.69 -8.64 -4.81 -13.1 -7 c -1.6 -0.811 -3.21 -1.62 -4.81 -2.44 c -8 -3.99 -16.1 -7.74 -24.4 -11.1 c -3.67 -1.51 -7.22 -3.11 -10.8 -4.94 c -4.81 -2.46 -9.75 -4.37 -14.8 -6.26 c -2.96 -1.13 -5.85 -2.35 -8.76 -3.62 c -6.52 -2.75 -13.2 -4.94 -19.9 -7.13 c -4.63 -1.51 -9.21 -3.09 -13.8 -4.82 c -8.08 -3.02 -16.4 -5.15 -24.8 -6.96 c -2.97 -0.711 -2.97 -0.711 -5.78 -1.66 c -3.06 -1 -6.08 -1.79 -9.22 -2.52 c -1.12 -0.26 -2.24 -0.519 -3.4 -0.787 c -1.74 -0.397 -1.74 -0.397 -3.51 -0.803 c -1.15 -0.269 -2.31 -0.538 -3.5 -0.814 c -4.5 -1.03 -8.93 -2.03 -13.5 -2.68 c -3.06 -0.441 -3.06 -0.441 -5.82 -1.41 c -4.63 -1.47 -9.31 -1.95 -14.1 -2.53 c -10.2 -1.26 -10.2 -1.26 -14.8 -2.5 c -6.7 -1.8 -13.8 -1.99 -20.7 -2.57 c -2.21 -0.187 -4.42 -0.377 -6.62 -0.571 c -1.99 -0.174 -3.97 -0.342 -5.96 -0.51 c -3.04 -0.357 -3.04 -0.357 -5.04 -1.36 c -27.4 -3.95 -55.6 -2.3 -83.2 -1.06 c -0.98 0.0434 -1.96 0.0868 -2.97 0.131 c -2.77 0.126 -5.55 0.259 -8.32 0.396 c -0.835 0.0386 -1.67 0.0772 -2.53 0.117 c -4.13 0.129 -4.13 0.129 -7.99 1.42 c -2.77 0.343 -5.52 0.639 -8.3 0.902 c -1.7 0.17 -3.4 0.34 -5.09 0.51 c -2.68 0.264 -5.35 0.525 -8.03 0.783 c -2.58 0.251 -5.17 0.51 -7.75 0.77 c -0.794 0.074 -1.59 0.148 -2.41 0.224 c -4.41 0.449 -8.23 1.29 -12.4 2.81 c -1.43 0.301 -2.87 0.565 -4.31 0.781 c -0.766 0.12 -1.53 0.24 -2.32 0.363 c -1.58 0.237 -3.16 0.474 -4.73 0.711 c -4.41 0.69 -8.4 1.68 -12.6 3.14 c -2.37 0.513 -4.74 0.99 -7.12 1.44 c -6.69 1.29 -13.3 2.85 -19.9 4.56 c -1.44 0.356 -2.87 0.71 -4.31 1.06 c -2.32 0.59 -4.64 1.21 -6.94 1.88 c -3.22 0.912 -6.44 1.72 -9.69 2.5 c -4.18 1.03 -8.16 2.23 -12.2 3.82 c -4.58 1.79 -9.27 3.27 -14 4.65 c -1.09 0.321 -2.18 0.642 -3.3 0.973 c -0.998 0.286 -2 0.572 -3.02 0.867 c -3.99 1.39 -7.73 3.11 -11.6 4.89 c -5.34 2.4 -10.8 4.52 -16.2 6.68 c -9.07 3.65 -17.9 7.49 -26.6 12 c -3.35 1.72 -6.77 3.18 -10.2 4.66 c -1.95 0.941 -3.88 1.9 -5.81 2.88 c -6 3.03 -6 3.03 -8.83 4.41 c -9.03 4.41 -17.4 9.72 -25.8 15.2 c -4.37 2.82 -8.81 5.51 -13.3 8.16 c -5.95 3.53 -11.6 7.32 -17.2 11.4 c -2.86 2.02 -5.51 3.82 -8.81 5.06 l -2.19 0.938 c -0.33 0.99 -0.66 1.98 -1 3 c -2.43 1.82 -2.43 1.82 -5.44 3.69 l -3 1.89 c -2.57 1.43 -2.57 1.43 -4.57 1.43 c -0.33 0.99 -0.66 1.98 -1 3 c -1.32 0.685 -2.66 1.35 -4 2 l -1.75 1.75 c -3.12 3.12 -6.55 5.85 -10.2 8.25 h -2 c -0.227 0.578 -0.454 1.16 -0.688 1.75 c -1.69 2.9 -3.49 4.44 -6.31 6.25 c -2.01 -0.129 -2.01 -0.129 -4 -1 c -1.31 -1.83 -1.31 -1.83 -2.44 -4.25 l -1.28 -2.73 c -1.8 -4.23 -3.42 -8.52 -5.01 -12.8 c -1.54 -3.85 -3.46 -7.4 -5.55 -11 c -0.723 -2.22 -0.723 -2.22 -0.25 -4.71 c 2.02 -3.32 4.7 -5.09 7.9 -7.13 c 1.15 -0.762 2.31 -1.53 3.46 -2.29 l 3.16 -2.09 c 1.13 -0.878 1.13 -0.878 2.29 -1.77 c 1.71 -1.23 1.71 -1.23 3.71 -1.23 v -2 c 1.57 -1.29 1.57 -1.29 3.77 -2.76 c 0.8 -0.539 1.6 -1.08 2.43 -1.63 c 0.864 -0.572 1.73 -1.14 2.62 -1.73 c 1.77 -1.19 3.54 -2.38 5.31 -3.57 c 0.853 -0.574 1.71 -1.15 2.59 -1.74 c 2.59 -1.76 5.1 -3.61 7.6 -5.5 c 35.4 -26.1 35.4 -26.1 43.7 -26.1 v -2 l 2.16 -1.16 c 2.72 -1.45 5.43 -2.91 8.15 -4.37 c 1.21 -0.649 2.42 -1.3 3.63 -1.95 c 6.58 -3.53 13.1 -7.1 19.6 -10.9 c 7.17 -4.16 14.7 -7.42 22.3 -10.7 c 2.34 -1.01 4.67 -2.03 7 -3.06 c 1.07 -0.472 1.07 -0.472 2.16 -0.954 c 1.96 -0.901 3.87 -1.87 5.78 -2.87 c 7.72 -3.92 16 -6.73 24.2 -9.39 c 1.88 -0.626 3.73 -1.33 5.58 -2.05 c 6.05 -2.3 12.3 -4.12 18.5 -6.02 c 1.72 -0.53 3.44 -1.07 5.15 -1.61 c 7.67 -2.4 15.4 -4.62 23.1 -6.81 c 4.32 -1.22 8.62 -2.47 12.9 -3.78 c 3.79 -1.14 7.59 -2.13 11.5 -2.98 c 3.25 -0.717 6.43 -1.47 9.62 -2.43 c 4.33 -1.18 8.64 -1.89 13.1 -2.57 c 5.23 -0.365 5.23 -0.365 9.62 -2.44 c 2.26 -0.359 4.53 -0.661 6.81 -0.938 c 0.682 -0.085 1.36 -0.17 2.07 -0.258 c 2.19 -0.272 4.37 -0.539 6.56 -0.805 c 2.18 -0.266 4.37 -0.533 6.55 -0.805 c 1.98 -0.247 3.97 -0.489 5.95 -0.73 c 2.96 -0.29 2.96 -0.29 5.06 -1.46 c 2.39 -0.285 4.76 -0.521 7.15 -0.719 c 0.721 -0.0625 1.44 -0.125 2.18 -0.189 c 2.35 -0.202 4.69 -0.397 7.04 -0.592 c 1.19 -0.101 1.19 -0.101 2.4 -0.204 c 10.2 -0.868 20.5 -1.65 30.7 -2.01 c 4.79 -0.176 8.77 -1.42 13.6 -1.42 z m -6.09 1.13 v 1 h 11 v -1 h -11 z m 57 0 v 1 h 7 v -1 h -7 z m -114 5 v 1 h 5 v -1 h -5 z m 166 0 v 1 h 5 v -1 h -5 z m 507 424 l 1 2 z m 1 4 l 1 2 z m 0 4 v 8 h 1 v -8 h -1 z" stroke-linecap="round"/>
</g>
		<g transform="matrix(0.8 0 0 0.8 -449.2721 -72.4923)">
<path style="stroke: none; stroke-width: 1; stroke-dasharray: none; stroke-linecap: butt; stroke-dashoffset: 0; stroke-linejoin: miter; stroke-miterlimit: 4; is-custom-font: none; font-file-url: none; fill: rgb(155,163,176); fill-rule: nonzero; opacity: 1;" transform=" translate(74.5902, -246.3846)" d="m 0 0 c 0.99 0.33 1.98 0.66 3 1 c 1.06 2.44 1.06 2.44 2 5.56 c 1.11 3.59 2.23 7.13 3.62 10.6 c 1.36 3.53 2.15 7.09 2.9 10.8 c 0.435 2.15 0.435 2.15 1.6 4.52 c 1.37 3.91 1.63 7.42 0.875 11.5 c -1.58 3.02 -3.78 5.43 -6 8 c -1.62 2.05 -3.22 4.11 -4.81 6.19 c -0.427 0.552 -0.854 1.1 -1.29 1.67 c -3.81 4.95 -7.35 10.1 -10.9 15.2 c -1.69 2.44 -3.42 4.82 -5.21 7.18 c -2.57 3.37 -4.92 6.86 -7.25 10.4 c -2.15 3.22 -4.4 6.36 -6.66 9.5 c -4.91 7.33 -9.22 15.1 -13.6 22.7 c -0.512 0.897 -1.02 1.79 -1.55 2.72 c -3.61 6.34 -7.17 12.7 -10.7 19.1 c -0.436 0.788 -0.872 1.58 -1.32 2.39 c -4.83 8.79 -9.18 17.8 -13.2 26.9 c -2.31 5.19 -4.61 10.3 -7.25 15.4 c -2.44 4.74 -4.14 9.69 -5.84 14.7 c -1.09 3.15 -2.38 6.18 -3.69 9.24 c -3.3 7.86 -5.98 15.9 -8.65 24 c -0.263 0.791 -0.526 1.58 -0.797 2.4 c -4.19 12.6 -8.02 25.3 -11.3 38.2 c -0.29 1.11 -0.58 2.22 -0.879 3.36 c -1.54 5.96 -2.89 12 -4.25 18 c -0.171 0.754 -0.342 1.51 -0.518 2.28 c -0.742 3.34 -1.39 6.62 -1.85 10 c -0.508 3.39 -0.508 3.39 -1.48 6.65 c -1.33 4.83 -1.92 9.65 -2.53 14.6 c -1.32 10.6 -1.32 10.6 -2.53 15.5 c -1.32 5.61 -1.63 11.3 -2.04 17 c -0.154 2.14 -0.311 4.29 -0.473 6.43 c -0.0658 0.938 -0.132 1.88 -0.199 2.84 c -0.265 2.29 -0.265 2.29 -1.27 4.29 c -0.154 1.61 -0.25 3.23 -0.316 4.86 c -0.0421 1 -0.0843 2 -0.128 3.04 c -0.0391 1.09 -0.0781 2.18 -0.118 3.3 c -0.041 1.14 -0.082 2.27 -0.124 3.44 c -0.637 19 -0.169 37.7 0.829 56.6 c 0.698 13.3 1.13 26.4 0.857 39.7 c -4.62 1.54 -9.23 1.18 -14.1 1.19 c -1 0.0122 -2 0.0245 -3.03 0.0371 c -16.4 0.032 -16.4 0.032 -21 -4.13 c -2.75 -4.49 -2.44 -8.39 -2.38 -13.6 c -0.0038 -1.05 -0.00759 -2.11 -0.0115 -3.2 c -0.00742 -3.49 0.014 -6.99 0.0364 -10.5 c 0.00239 -2.45 0.00329 -4.89 0.00278 -7.34 c 0.00313 -5.14 0.0197 -10.3 0.0465 -15.4 c 0.0336 -6.52 0.0416 -13 0.0401 -19.6 c 0.00055 -5.06 0.0116 -10.1 0.026 -15.2 c 0.00628 -2.4 0.0103 -4.8 0.0118 -7.2 c 0.0158 -12.1 0.251 -24.1 1.23 -36.2 c 0.0772 -0.958 0.154 -1.92 0.234 -2.9 c 0.484 -5.37 1.28 -10.6 2.42 -15.9 c 0.681 -3.32 1.02 -6.64 1.39 -10 c 0.691 -5.9 1.73 -11.6 3.15 -17.3 c 1.2 -5.07 2.24 -10.2 3.29 -15.3 c 1.72 -8.3 3.47 -16.6 5.31 -24.9 c 0.202 -0.931 0.404 -1.86 0.613 -2.82 c 0.194 -0.86 0.387 -1.72 0.586 -2.61 c 0.167 -0.753 0.334 -1.51 0.507 -2.28 c 0.607 -1.98 0.607 -1.98 2.61 -4.98 c 0.727 -2.6 1.39 -5.18 2 -7.81 c 1.14 -4.82 2.36 -9.51 4 -14.2 c 1.67 -4.86 3.21 -9.71 4.5 -14.7 c 1.09 -4.09 2.57 -7.53 4.5 -11.3 c 0.505 -1.58 0.981 -3.16 1.44 -4.75 c 1.23 -4.27 2.71 -8.33 4.41 -12.4 c 1.1 -2.69 2.16 -5.39 3.22 -8.1 c 3.02 -7.68 6.38 -15.2 9.94 -22.6 c 1.1 -2.31 2.18 -4.63 3.26 -6.94 c 0.785 -1.67 1.57 -3.35 2.36 -5.02 c 0.36 -0.772 0.72 -1.54 1.09 -2.34 c 2.17 -4.61 4.51 -9.07 7.02 -13.5 c 2.15 -3.86 4.17 -7.79 6.21 -11.7 c 3.07 -5.86 6.18 -11.7 9.66 -17.3 c 1.55 -2.52 3 -5.08 4.46 -7.65 c 6.88 -11.8 14.5 -23.3 22.4 -34.4 c 2.22 -3.25 4.18 -6.63 6.13 -10 c 1.3 -2.04 2.64 -3.44 4.36 -5.13 c 1.34 -1.75 2.65 -3.52 3.94 -5.31 c 0.703 -0.972 1.41 -1.94 2.13 -2.95 c 1.49 -2.12 2.92 -4.24 4.31 -6.43 c 0.536 -0.763 1.07 -1.53 1.62 -2.31 h 2 c 0.268 -0.804 0.536 -1.61 0.812 -2.44 c 0.588 -1.27 0.588 -1.27 1.19 -2.56 c 0.99 -0.33 1.98 -0.66 3 -1 c 0.113 -0.554 0.227 -1.11 0.344 -1.68 c 1.01 -3.58 3.63 -5.83 6.16 -8.45 c 3.66 -3.63 3.66 -3.63 6.5 -7.88 h 2 c 0.268 -0.804 0.536 -1.61 0.812 -2.44 c 0.392 -0.846 0.784 -1.69 1.19 -2.56 c 0.99 -0.33 1.98 -0.66 3 -1 c 1.22 -2.5 1.22 -2.5 2 -5 z" stroke-linecap="round"/>
</g>
		<g transform="matrix(0.8 0 0 0.8 460.9305 191.986)">
<path style="stroke: none; stroke-width: 1; stroke-dasharray: none; stroke-linecap: butt; stroke-dashoffset: 0; stroke-linejoin: miter; stroke-miterlimit: 4; is-custom-font: none; font-file-url: none; fill: rgb(155,163,176); fill-rule: nonzero; opacity: 1;" transform=" translate(27.8368, -205.9825)" d="m 0 0 c 1.65 0.33 3.3 0.66 5 1 c -0.33 0.66 -0.66 1.32 -1 2 c 0.317 2.54 0.706 4.99 1.19 7.5 c 0.135 0.717 0.27 1.43 0.409 2.17 c 1.15 5.74 2.89 11 5.4 16.3 h 2 c 0.124 0.949 0.247 1.9 0.375 2.88 c 0.342 3.21 0.342 3.21 2.62 5.12 c 0.66 0.33 1.32 0.66 2 1 c 0.103 0.598 0.206 1.2 0.312 1.81 c 0.981 3.12 3.18 4.19 5.69 6.19 v 3 c 0.566 0.0941 1.13 0.188 1.71 0.285 c 2.83 0.885 4.55 2.28 6.85 4.15 c 2.44 1.97 4.82 3.82 7.44 5.56 c 0.33 1.87 0.33 1.87 0.265 4.16 c -0.0255 1.29 -0.0255 1.29 -0.0516 2.61 c -0.0342 0.939 -0.0684 1.88 -0.104 2.85 c -0.0361 1.46 -0.0361 1.46 -0.0729 2.96 c -0.0813 3.14 -0.184 6.28 -0.286 9.42 c -0.0547 2.05 -0.108 4.11 -0.16 6.16 c -0.251 9.43 -0.592 18.9 -1.07 28.3 c -0.0364 0.758 -0.0727 1.52 -0.11 2.3 c -0.286 5.15 -0.286 5.15 -1.41 6.27 c -0.29 2.5 -0.523 4.99 -0.719 7.5 c -0.0628 0.751 -0.126 1.5 -0.19 2.28 c -0.201 2.41 -0.397 4.82 -0.591 7.22 c -0.255 3.17 -0.516 6.33 -0.781 9.5 c -0.0573 0.735 -0.115 1.47 -0.174 2.23 c -0.432 5.16 -0.432 5.16 -1.55 6.27 c -0.286 1.69 -0.515 3.39 -0.719 5.09 c -0.128 1.03 -0.255 2.06 -0.387 3.12 c -0.13 1.08 -0.26 2.17 -0.395 3.29 c -0.257 2.14 -0.517 4.27 -0.781 6.41 c -0.114 0.952 -0.228 1.9 -0.346 2.88 c -0.373 2.21 -0.373 2.21 -1.37 3.21 c -0.662 3.67 -1.24 7.35 -1.81 11 c -0.758 4.78 -1.79 9.32 -3.19 14 c -0.635 2.5 -1.26 5 -1.88 7.5 c -0.706 2.83 -1.42 5.67 -2.12 8.5 c -0.286 1.14 -0.572 2.28 -0.867 3.46 c -4.4 17 -9.82 33.7 -15.3 50.4 c -0.308 0.943 -0.617 1.89 -0.935 2.86 c -2.3 6.9 -5.01 13.6 -7.88 20.3 c -0.491 1.15 -0.982 2.3 -1.49 3.49 c -15.7 36.6 -15.7 36.6 -23.9 51.6 c -1.54 2.81 -3.07 5.63 -4.59 8.46 l -3 5.55 c -0.495 0.924 -0.99 1.85 -1.5 2.8 c -2.83 5.22 -5.84 10.2 -9.19 15.1 c -1.61 2.41 -2.98 4.9 -4.31 7.47 c -2.36 4.43 -4.95 8.59 -7.8 12.7 c -1.25 1.77 -1.25 1.77 -2.2 3.78 c -4.78 -0.488 -7.43 -1.68 -11.2 -4.62 c -6.97 -5.3 -14.3 -9.89 -21.8 -14.4 c 1.73 -5.06 4.56 -9.37 7.38 -13.9 c 3.3 -5.33 6.54 -10.7 9.62 -16.1 c 0.692 -1.2 1.38 -2.39 2.08 -3.59 c 4.35 -7.56 8.33 -15.2 12 -23.1 c 2.17 -4.7 4.51 -9.25 7.01 -13.8 c 3.68 -6.7 6.59 -13.6 9.39 -20.7 c 0.935 -2.35 1.93 -4.55 3.07 -6.82 c 1.67 -3.35 3 -6.77 4.29 -10.3 c 0.256 -0.692 0.513 -1.38 0.777 -2.1 c 2.89 -7.83 5.68 -15.7 8.41 -23.6 c 0.331 -0.957 0.331 -0.957 0.668 -1.93 c 7.32 -21.3 13.2 -43 17.9 -65 c 0.395 -1.83 0.802 -3.66 1.21 -5.49 c 0.775 -3.51 1.51 -7.02 2.23 -10.5 c 0.155 -0.746 0.309 -1.49 0.469 -2.26 c 2.72 -13.3 4.38 -26.5 5.58 -40 c 0.112 -1.23 0.223 -2.47 0.338 -3.74 c 0.142 -1.66 0.142 -1.66 0.288 -3.35 c 0.325 -2.63 0.325 -2.63 1.33 -4.63 c 1.29 -10.1 1.28 -20.4 1.5 -30.6 c 0.0594 -2.67 0.125 -5.34 0.191 -8 c 0.124 -5.14 0.224 -10.3 0.307 -15.4 c 0.012 -0.716 0.024 -1.43 0.0364 -2.17 c 0.206 -14.1 -0.585 -28.3 -1.33 -42.4 c -0.163 -3.12 -0.313 -6.25 -0.461 -9.37 c -0.0541 -0.954 -0.108 -1.91 -0.164 -2.89 c -0.0402 -0.886 -0.0804 -1.77 -0.122 -2.68 c -0.04 -0.775 -0.0799 -1.55 -0.121 -2.35 c 0.189 -2.46 0.934 -4.03 2.16 -6.15 z m 1 43 v 8 h 1 v -8 h -1 z m 0 25 v 17 h 1 v -17 h -1 z m -3 56 l 1 4 z" stroke-linecap="round"/>
</g>
		<g transform="matrix(0.8 0 0 0.8 -458.7959 272.7691)">
<path style="stroke: none; stroke-width: 1; stroke-dasharray: none; stroke-linecap: butt; stroke-dashoffset: 0; stroke-linejoin: miter; stroke-miterlimit: 4; is-custom-font: none; font-file-url: none; fill: rgb(155,163,176); fill-rule: nonzero; opacity: 1;" transform=" translate(-21.5051, -108.9613)" d="m 0 0 c 0.0258 0.548 0.0516 1.1 0.0781 1.66 c 0.525 7.34 2.33 14.2 4.33 21.2 c 0.611 2.16 1.2 4.33 1.79 6.5 c 5 18.6 5 18.6 11.8 36.6 c 2.18 5.6 4.1 11.3 5.94 17 c 1.2 3.42 2.61 6.71 4.06 10 c 0.876 2.04 1.75 4.08 2.63 6.12 c 0.977 2.25 1.96 4.51 2.93 6.76 c 0.494 1.15 0.989 2.3 1.5 3.49 c 0.476 1.09 0.953 2.19 1.44 3.31 c 0.647 1.5 0.647 1.5 1.31 3.02 c 0.975 2.44 0.975 2.44 3.19 3.3 c 0.392 1.65 0.721 3.32 1 5 c 0.724 2.95 0.724 2.95 2.44 4.38 c 1.93 2.01 2.53 4.05 3.56 6.62 c 0.536 0.495 1.07 0.99 1.62 1.5 c 1.38 1.5 1.38 1.5 1.56 4.19 c -0.0928 1.14 -0.0928 1.14 -0.188 2.31 c 0.66 0.33 1.32 0.66 2 1 c 3.7 4.97 6.3 10.4 9 16 c 1.1 2.24 2.22 4.36 3.5 6.5 c 1.65 2.74 3.06 5.52 4.38 8.44 c 1.14 2.23 1.14 2.23 3.12 4.56 c 1.73 2.16 2.81 4.03 4 6.5 c 0.495 0.557 0.99 1.11 1.5 1.69 c 2.26 3.48 2.77 7.27 3.5 11.3 c -0.822 0.496 -1.64 0.993 -2.49 1.5 c -6.24 3.8 -12.3 7.7 -18.3 12 c -2.98 2.06 -6.05 3.81 -9.23 5.54 c -3.94 -4.28 -6.58 -8.72 -9.29 -13.9 c -1.82 -3.36 -3.78 -6.63 -5.77 -9.89 c -8.77 -14.5 -17.1 -29.3 -24.9 -44.2 c -0.431 -0.808 -0.861 -1.62 -1.3 -2.45 c -2.7 -5.18 -2.7 -5.18 -2.7 -8.55 c -0.66 -0.33 -1.32 -0.66 -2 -1 c -0.707 -1.65 -1.37 -3.32 -2 -5 c -0.495 -0.99 -0.99 -1.98 -1.5 -3 c -3.5 -7 -3.5 -7 -3.5 -11 c -0.99 -0.33 -1.98 -0.66 -3 -1 c -0.124 -0.722 -0.248 -1.44 -0.375 -2.19 c -0.918 -4.13 -2.28 -7.29 -4.62 -10.8 c -0.597 -2.59 -1.01 -5.19 -1.44 -7.82 c -0.186 -0.719 -0.371 -1.44 -0.562 -2.18 c -0.66 -0.33 -1.32 -0.66 -2 -1 c -1.29 -3.95 -2.26 -7.91 -3 -12 h -2 c -0.121 -0.592 -0.242 -1.18 -0.367 -1.79 c -1.19 -5.61 -2.42 -10.4 -5.63 -15.2 c -0.367 -2.61 -0.504 -5.19 -0.656 -7.82 c -0.113 -0.719 -0.227 -1.44 -0.344 -2.18 c -0.66 -0.33 -1.32 -0.66 -2 -1 c 0.33 -0.66 0.66 -1.32 1 -2 h -2 c -1 -7.62 -1 -7.62 -1 -11 c -0.66 -0.33 -1.32 -0.66 -2 -1 c -0.688 -1.94 -0.688 -1.94 -1 -4 c 0.33 -0.66 0.66 -1.32 1 -2 h -2 c -1 -7.62 -1 -7.62 -1 -11 h -2 c -0.977 -2.93 -1.26 -5.31 -1.5 -8.38 c -0.222 -2.88 -0.493 -5.59 -1.09 -8.41 c -0.134 -0.73 -0.268 -1.46 -0.406 -2.21 c 1.57 -1.57 3.16 -1.18 5.34 -1.25 c 0.899 -0.0329 1.8 -0.0657 2.72 -0.0996 c 1.88 -0.0601 3.76 -0.117 5.64 -0.172 c 5.52 -0.207 10.7 -0.815 16.1 -2.05 c 3.12 -0.61 6.03 -0.568 9.2 -0.43 z m -37 13 l 1 2 z" stroke-linecap="round"/>
</g>
		<g transform="matrix(0.8 0 0 0.8 385.184 394.8205)">
<path style="stroke: none; stroke-width: 1; stroke-dasharray: none; stroke-linecap: butt; stroke-dashoffset: 0; stroke-linejoin: miter; stroke-miterlimit: 4; is-custom-font: none; font-file-url: none; fill: rgb(155,163,176); fill-rule: nonzero; opacity: 1;" transform=" translate(-7.48, -48.5256)" d="m 0 0 c 5.08 3.08 9.24 6.88 13.6 10.9 c 1.86 1.64 3.62 3.04 5.71 4.36 c 3 1.95 5.15 4.21 7.69 6.75 c 2.28 2.06 4.6 4.06 6.94 6.06 c 0.595 0.516 1.19 1.03 1.8 1.56 c 3.6 3.09 7.28 5.79 11.3 8.37 c 1.02 0.979 2.02 1.98 3 3 c 1.98 1.7 3.99 3.35 6 5 c -0.33 0.99 -0.66 1.98 -1 3 l -1 -1 c -0.0825 0.743 -0.165 1.48 -0.25 2.25 c -0.933 3.42 -1.96 4.58 -4.75 6.75 c -3.05 0.394 -3.05 0.394 -6.66 0.242 c -0.654 -0.0224 -1.31 -0.0448 -1.98 -0.0678 c -2.14 -0.0792 -4.28 -0.189 -6.42 -0.299 c -1.48 -0.0625 -2.96 -0.124 -4.45 -0.184 c -33.1 -1.41 -33.1 -1.41 -47.5 -3.69 c 4.38 4.6 9.2 8.35 14.3 12.2 c 1.61 1.24 3.18 2.53 4.73 3.84 v 2 c 0.772 0.327 0.772 0.327 1.56 0.66 c 3.46 1.9 6.42 4.32 9.5 6.78 c 0.625 0.49 1.25 0.981 1.89 1.49 c 2.84 2.24 5.52 4.48 8.04 7.08 c -1.16 3.91 -2.36 6.87 -5 10 c -4.58 -1.28 -7.38 -2.97 -11 -6 c -0.793 -0.639 -1.59 -1.28 -2.4 -1.94 c -9.66 -7.86 -19.1 -15.9 -28.4 -24.2 c -1.8 -1.55 -3.63 -3.05 -5.48 -4.54 c -0.593 -0.483 -1.19 -0.967 -1.8 -1.46 c -1.18 -0.96 -2.37 -1.91 -3.56 -2.85 c -2.4 -1.96 -4.14 -3.65 -5.49 -6.45 c 0.238 -3.15 1.34 -5.05 3.5 -7.35 c 3.33 -2.34 6.84 -1.83 10.8 -1.63 c 1.42 0.0367 1.42 0.0367 2.86 0.0742 c 2.27 0.0609 4.54 0.135 6.82 0.219 c 5.19 0.186 10.4 0.285 15.6 0.39 c 10.9 0.224 21.8 0.482 32.7 0.754 c -0.451 -0.363 -0.903 -0.727 -1.37 -1.1 c -2.08 -1.68 -4.16 -3.36 -6.23 -5.04 c -1.06 -0.857 -1.06 -0.857 -2.15 -1.73 c -5.36 -4.34 -10.4 -8.9 -15.5 -13.6 c -3.5 -3.16 -7.2 -5.98 -11 -8.75 c -0.874 -0.868 -0.874 -0.868 -1.77 -1.75 c 0 -4 0 -4 2.38 -6.69 c 2.62 -2.31 2.62 -2.31 4.62 -3.31 z m 19 87 v 2 c 0.66 -0.33 1.32 -0.66 2 -1 c -0.66 -0.33 -1.32 -0.66 -2 -1 z" stroke-linecap="round"/>
</g>
		<g transform="matrix(0.8 0 0 0.8 281.096 488.0513)">
<path style="stroke: none; stroke-width: 1; stroke-dasharray: none; stroke-linecap: butt; stroke-dashoffset: 0; stroke-linejoin: miter; stroke-miterlimit: 4; is-custom-font: none; font-file-url: none; fill: rgb(155,163,176); fill-rule: nonzero; opacity: 1;" transform=" translate(25.6299, -32.0641)" d="m 0 0 c 2.39 1.95 4.16 4.07 5.94 6.58 c 1.08 0.959 1.08 0.959 2.19 1.94 c 2.35 2.67 2.34 4.56 2.81 8.06 c 0.492 1.21 0.985 2.41 1.49 3.65 c 1.69 4.43 2.09 8.44 2.07 13.2 c -0.00169 0.785 -0.00338 1.57 -0.00513 2.38 c -0.261 8.48 -3.45 14.2 -8.93 20.6 c -0.866 0.743 -1.73 1.48 -2.62 2.25 c -0.539 0.552 -1.08 1.1 -1.63 1.67 c -8.03 7.86 -17.5 10.8 -28.6 10.9 c -11.9 -0.241 -18.8 -3.72 -27.5 -12 c -2.91 -3.11 -4.59 -5.64 -6.35 -9.52 c -0.367 -0.651 -0.735 -1.3 -1.11 -1.97 c -3.67 -6.94 -4.53 -14.5 -2.28 -22.1 c 1.56 -4.43 3.42 -8.7 5.39 -13 h 2 c 0.244 -0.741 0.487 -1.48 0.738 -2.25 c 3.11 -6.78 10.7 -11.6 17.3 -14.8 c 12.8 -4.56 28 -3.48 39.1 4.42 z m -47.4 16.3 c -4.5 6.17 -4.96 11.6 -5.07 19.1 c -0.0142 0.746 -0.0284 1.49 -0.043 2.26 c 0.0389 4.3 0.319 6.92 3.42 9.99 c 2.23 2.12 4.62 4.05 7 6 c 0.639 0.557 1.28 1.11 1.94 1.69 c 6.59 4.19 13.4 5.55 21.1 4.31 c 8.56 -2.92 15.9 -7.74 20 -16 c 0.415 -3.05 0.561 -6.12 0.75 -9.19 c 0.0683 -0.839 0.137 -1.68 0.207 -2.54 c 0.455 -7.48 -1.12 -12.6 -6.08 -18.5 c -5.55 -5.92 -10.7 -7.92 -18.8 -8.28 c -11.2 -0.164 -17.2 2.43 -24.4 11.1 z" stroke-linecap="round"/>
</g>
		<g transform="matrix(0.8 0 0 0.8 -296.5421 481.612)">
<path style="stroke: none; stroke-width: 1; stroke-dasharray: none; stroke-linecap: butt; stroke-dashoffset: 0; stroke-linejoin: miter; stroke-miterlimit: 4; is-custom-font: none; font-file-url: none; fill: rgb(155,163,176); fill-rule: nonzero; opacity: 1;" transform=" translate(3.6777, -47.015)" d="m 0 0 c 3.07 1.2 5.01 2.92 7.56 5 c 1.85 1.39 3.7 2.76 5.56 4.12 c 0.929 0.683 1.86 1.37 2.82 2.07 c 2.18 1.5 4.27 2.63 6.62 3.8 c 1.71 1.62 3.37 3.29 5 5 c 0.743 0.701 1.49 1.4 2.25 2.12 c 2.24 2.4 2.72 4.79 3.75 7.88 c 0.516 0.804 1.03 1.61 1.56 2.44 c 2.13 5.28 2.41 9.95 1.44 15.6 c -2.92 6.54 -7.02 12.1 -13 16 c -6 2 -6 2 -19 3 c -0.33 8.91 -0.66 17.8 -1 27 c -4.94 -0.989 -6.6 -1.5 -10 -5 c -1.22 -3.66 -0.968 -6.85 -0.562 -10.6 c 0.0825 -0.859 0.165 -1.72 0.25 -2.6 c 0.312 -2.77 0.312 -2.77 0.875 -5.73 c 0.428 -3.47 0.502 -5.69 -0.562 -9.04 c -3.78 -4.38 -8.84 -7.51 -14 -10 c -2.88 0.38 -3.77 0.762 -5.82 2.89 c -0.864 1.17 -0.864 1.17 -1.75 2.36 c -0.606 0.808 -1.21 1.62 -1.84 2.45 c -1.71 2.37 -1.71 2.37 -3.29 5.36 c -0.433 0.639 -0.866 1.28 -1.31 1.94 c -4.31 0 -5.68 -0.398 -9 -3 c -0.977 -2.12 -0.977 -2.12 -1 -5 c 1.45 -2.88 3.37 -5.37 5.31 -7.94 c 0.545 -0.744 1.09 -1.49 1.65 -2.26 c 1.12 -1.53 2.25 -3.06 3.39 -4.58 c 2.43 -3.27 4.79 -6.59 7.15 -9.91 c 0.594 -0.826 0.594 -0.826 1.2 -1.67 c 2.51 -3.5 4.91 -7.06 7.3 -10.6 c 1.98 -2.89 3.99 -5.76 6 -8.62 c 0.521 -0.75 1.04 -1.5 1.58 -2.27 c 7.09 -10.1 7.09 -10.1 10.9 -10.1 z m -4.31 21.9 c -0.596 0.905 -1.19 1.81 -1.8 2.74 c -1.48 2.22 -1.48 2.22 -1.32 4.38 h -2 c -1.6 1.91 -1.6 1.91 -3.12 4.31 c -0.539 0.801 -1.08 1.6 -1.63 2.43 c -1.48 2.27 -1.48 2.27 -1.24 5.26 c 3.61 2.99 3.61 2.99 8 4 c 0.33 0.99 0.66 1.98 1 3 c 2.4 1.74 5.1 2.94 7.75 4.25 c 0.717 0.376 1.43 0.753 2.17 1.14 c 4.24 2.13 4.24 2.13 8.9 2.42 c 5.32 -1.99 9.32 -3.73 12.2 -8.81 c 1.28 -5.35 1.73 -9.33 -0.508 -14.4 c -2.66 -4.28 -6.34 -7.04 -10.4 -9.99 c -0.695 -0.541 -1.39 -1.08 -2.11 -1.64 c -3.15 -2.34 -5.4 -3.8 -9.29 -4.58 c -3.71 0.885 -4.58 2.35 -6.61 5.53 z m 29.9 16.1 v 6 h 1 v -6 h -1 z" stroke-linecap="round"/>
</g>
		<g transform="matrix(0.8 0 0 0.8 -178.8098 542.234)">
<path style="stroke: none; stroke-width: 1; stroke-dasharray: none; stroke-linecap: butt; stroke-dashoffset: 0; stroke-linejoin: miter; stroke-miterlimit: 4; is-custom-font: none; font-file-url: none; fill: rgb(155,163,176); fill-rule: nonzero; opacity: 1;" transform=" translate(-12.4877, -43.7926)" d="m 0 0 c 5.86 0.523 10.5 1.87 16 4 c 1.29 0.479 2.57 0.956 3.86 1.43 c 21.3 7.89 21.3 7.89 30.1 12.6 c -0.66 3.3 -1.32 6.6 -2 10 c -5.41 -0.653 -10.1 -2.39 -15.2 -4.31 c -1.69 -0.634 -3.39 -1.27 -5.08 -1.9 c -1.58 -0.595 -3.15 -1.19 -4.73 -1.79 c -2.12 -0.796 -4.25 -1.59 -6.38 -2.38 c -0.791 -0.296 -1.58 -0.593 -2.4 -0.898 c -2.39 -0.779 -4.76 -1.28 -7.23 -1.73 c -0.484 1.85 -0.962 3.71 -1.44 5.56 c -0.267 1.03 -0.534 2.07 -0.809 3.13 c -0.78 3.42 -1.3 6.83 -1.75 10.3 c 1.22 0.398 2.44 0.797 3.69 1.21 c 1.62 0.535 3.25 1.07 4.87 1.61 c 0.8 0.261 1.6 0.522 2.42 0.791 c 4.79 1.58 9.41 3.34 14 5.4 c 1.11 0.495 2.23 0.99 3.38 1.5 c 2.62 1.5 2.62 1.5 3.62 4.5 h -2 v 7 c -2 1 -2 1 -4.15 0.469 c -0.919 -0.32 -1.84 -0.639 -2.79 -0.969 c -1.06 -0.366 -2.12 -0.732 -3.21 -1.11 c -2.93 -1.05 -5.85 -2.13 -8.77 -3.22 c -0.85 -0.316 -1.7 -0.633 -2.57 -0.959 c -1.7 -0.637 -3.4 -1.28 -5.1 -1.93 c -0.787 -0.296 -1.57 -0.592 -2.39 -0.896 c -0.704 -0.268 -1.41 -0.536 -2.13 -0.812 c -2.04 -0.725 -2.04 -0.725 -4.89 -0.579 c -1.04 2.05 -2.05 4.12 -3.06 6.19 c -0.568 1.15 -1.14 2.3 -1.72 3.48 c -1.35 3.17 -1.35 3.17 -1.33 6.07 c 1.69 3.45 4.55 4.14 7.99 5.33 c 0.679 0.252 1.36 0.504 2.06 0.763 c 2.02 0.744 4.04 1.46 6.07 2.17 c 1.94 0.708 3.88 1.42 5.81 2.12 c 1.29 0.46 1.29 0.46 2.6 0.93 c 4.24 1.55 8.41 3.24 12.6 4.95 c -0.33 2.97 -0.66 5.94 -1 9 c -3.95 1.32 -6.44 0.0884 -10.2 -1.25 c -0.675 -0.234 -1.35 -0.468 -2.05 -0.708 c -1.93 -0.67 -3.85 -1.36 -5.77 -2.04 c -0.831 -0.296 -1.66 -0.593 -2.52 -0.898 c -3.02 -1.11 -5.97 -2.32 -8.92 -3.6 c -4.92 -2.07 -9.96 -3.77 -15.1 -5.21 c -0.812 -0.238 -1.62 -0.477 -2.46 -0.723 c -0.742 -0.205 -1.49 -0.41 -2.25 -0.621 c -1.75 -0.941 -1.75 -0.941 -2.64 -2.62 c -0.16 -3.39 0.94 -5.91 2.14 -9.07 c 0.438 -1.17 0.877 -2.34 1.33 -3.55 c 0.469 -1.22 0.938 -2.44 1.42 -3.7 c 0.719 -1.92 1.44 -3.84 2.16 -5.75 c 0.971 -2.59 1.95 -5.17 2.93 -7.75 c 3.82 -10.1 7.6 -20.2 10.8 -30.5 c 1.12 -3.16 2.51 -6.06 4.07 -9.02 z m 31 47 v 2 c 0.66 -0.33 1.32 -0.66 2 -1 c -0.66 -0.33 -1.32 -0.66 -2 -1 z" stroke-linecap="round"/>
</g>
		<g transform="matrix(0.8 0 0 0.8 -56.794 573.7568)">
<path style="stroke: none; stroke-width: 1; stroke-dasharray: none; stroke-linecap: butt; stroke-dashoffset: 0; stroke-linejoin: miter; stroke-miterlimit: 4; is-custom-font: none; font-file-url: none; fill: rgb(155,163,176); fill-rule: nonzero; opacity: 1;" transform=" translate(11.9925, -39.196)" d="m 0 0 c 1.81 1.12 1.81 1.12 3 3 c 0.358 2.33 0.688 4.66 1 7 c 0.712 1.63 1.43 3.26 2.15 4.89 c 1.7 4.23 2.82 8.66 4.04 13.1 c 0.273 0.97 0.545 1.94 0.826 2.94 c 0.666 2.37 1.33 4.75 1.99 7.12 h 2 c 0.238 1.58 0.238 1.58 0.48 3.19 c 1.74 10.9 4.26 21.3 8.67 31.5 c 0.848 2.33 0.848 2.33 0.848 6.33 c -3.1 -0.013 -6 -0.166 -9 -1 c -1.96 -2.79 -3 -4.58 -3 -8 h -2 c -0.293 -3.03 -0.293 -3.03 -0.586 -6.05 c -0.278 -2.17 -0.278 -2.17 -2.41 -3.95 c -2.81 -0.46 -5.54 -0.802 -8.38 -1.06 c -0.832 -0.0823 -1.66 -0.165 -2.52 -0.25 c -9.35 -0.881 -18.7 -1.31 -28.1 -1.69 c -0.286 0.727 -0.572 1.45 -0.867 2.2 c -3.47 8.56 -3.47 8.56 -6.13 11.8 c -3.79 1.59 -7.11 1.3 -11 0 c 1.69 -8.93 7.82 -17.9 12.5 -25.6 c 1.52 -2.52 2.93 -5.07 4.33 -7.66 c 3.6 -6.65 7.3 -13.2 11.1 -19.8 c 0.414 -0.705 0.827 -1.41 1.25 -2.14 c 1.3 -2.19 2.61 -4.37 3.93 -6.55 c 0.404 -0.683 0.808 -1.37 1.22 -2.07 c 3.69 -6 7.19 -9.49 14.6 -7.24 z m -7 14 c -1.92 3.33 -3.84 6.67 -5.75 10 c -0.808 1.4 -0.808 1.4 -1.63 2.83 c -5.93 9.09 -5.93 9.09 -8.62 19.2 c 9.66 1.7 19.2 2.52 29 3 c -1.04 -3.22 -2.11 -6.24 -3.56 -9.31 c -1.44 -3.7 -1.9 -6.66 -2.13 -10.6 c -0.347 -2.38 -1.2 -4 -2.31 -6.11 c -0.247 -1.52 -0.247 -1.52 -0.5 -3.06 c -0.325 -3.12 -0.325 -3.12 -2.5 -5.94 h -2 z m 8 20 l 1 2 z" stroke-linecap="round"/>
</g>
		<g transform="matrix(0.8 0 0 0.8 -388.057 394.5611)">
<path style="stroke: none; stroke-width: 1; stroke-dasharray: none; stroke-linecap: butt; stroke-dashoffset: 0; stroke-linejoin: miter; stroke-miterlimit: 4; is-custom-font: none; font-file-url: none; fill: rgb(155,163,176); fill-rule: nonzero; opacity: 1;" transform=" translate(26.0713, -29.2013)" d="m 0 0 c 5.08 4.85 7.8 8.6 8.75 15.6 c 0.665 1.8 1.35 3.59 2.06 5.38 c 1.83 4.84 2.33 8.49 1.94 13.6 c -2.52 1.19 -4.37 2.04 -7.19 1.88 c -2.47 -1.19 -2.81 -2.35 -3.81 -4.88 c -0.141 -1.73 -0.22 -3.46 -0.25 -5.19 c -0.557 -7.45 -4.01 -12.2 -9.31 -17.2 c -2.42 -1.55 -4.72 -2.63 -7.44 -3.56 v -2 c -11.6 -0.62 -11.6 -0.62 -22.4 3.12 c -1.64 0.875 -1.64 0.875 -3.64 0.875 v 2 c -1.11 1.02 -1.11 1.02 -2.25 2.06 c -4.8 4.58 -7.45 11.8 -7.92 18.3 c -0.038 4.88 -0.0617 9.17 2.17 13.6 c 1.85 1.05 1.85 1.05 4 2 c 0.743 0.949 1.49 1.9 2.25 2.88 c 4.17 5.26 10.5 7.25 16.8 9.12 v 10 c -5.91 1.97 -12.5 -1.34 -18 -3.88 c -2.93 -1.62 -4.84 -3.59 -7.03 -6.12 c -0.543 -0.541 -1.09 -1.08 -1.64 -1.64 c -7.91 -8.2 -12.3 -17.9 -12.1 -29.3 c 0.711 -10.7 6.82 -21 14.8 -28 c 2.29 -1.62 4.46 -2.75 7 -4 c 1.45 -0.835 1.45 -0.835 2.94 -1.69 c 13.7 -5.88 29 -1.71 40.3 7.06 z" stroke-linecap="round"/>
</g>
		<g transform="matrix(0.8 0 0 0.8 69.1684 568.7992)">
<path style="stroke: none; stroke-width: 1; stroke-dasharray: none; stroke-linecap: butt; stroke-dashoffset: 0; stroke-linejoin: miter; stroke-miterlimit: 4; is-custom-font: none; font-file-url: none; fill: rgb(155,163,176); fill-rule: nonzero; opacity: 1;" transform=" translate(30.5395, -38.9989)" d="m 0 0 v 9 c -7.62 2 -15.2 3.68 -23 5 c -0.198 7.29 0.375 14.3 1.38 21.5 c 0.126 0.968 0.253 1.94 0.383 2.93 c 0.615 4.58 1.32 9.1 2.27 13.6 c 1.07 5.16 1.62 10.3 2.09 15.6 c 0.0864 0.909 0.173 1.82 0.262 2.75 c 0.209 2.21 0.413 4.41 0.613 6.62 c -7.27 1.45 -7.27 1.45 -10.5 -0.535 c -1.94 -3.11 -2.11 -5.25 -2.23 -8.9 c -0.161 -3.97 -0.42 -7.68 -1.31 -11.6 h -1 v -6 h -1 c -0.169 -2.87 -0.335 -5.75 -0.5 -8.62 c -0.0477 -0.808 -0.0954 -1.62 -0.145 -2.45 c -0.246 -4.32 -0.411 -8.6 -0.355 -12.9 h -2 v -10 c -1.64 0.156 -3.27 0.312 -4.96 0.473 c -2.14 0.197 -4.28 0.394 -6.41 0.59 c -1.08 0.104 -2.16 0.208 -3.27 0.314 c -1.03 0.0935 -2.06 0.187 -3.12 0.283 c -0.953 0.089 -1.91 0.178 -2.89 0.27 c -2.34 0.0701 -2.34 0.0701 -4.34 -0.93 c -0.484 -1.78 -0.484 -1.78 -0.75 -3.94 c -0.098 -0.71 -0.196 -1.42 -0.297 -2.15 c 0.0469 -1.91 0.0469 -1.91 2.05 -3.91 c 2.39 -0.562 2.39 -0.562 5.39 -1 c 1.1 -0.164 2.19 -0.328 3.32 -0.497 c 1.17 -0.166 2.34 -0.332 3.54 -0.503 c 1.18 -0.174 2.37 -0.349 3.58 -0.529 c 3.39 -0.498 6.78 -0.985 10.2 -1.47 c 1.51 -0.222 3.01 -0.444 4.52 -0.668 c 3.16 -0.463 6.32 -0.907 9.48 -1.33 c 0.819 -0.112 1.64 -0.224 2.48 -0.34 c 5.53 -0.695 10.9 -0.739 16.5 -0.66 z m -32 38 l 1 2 z m 4 26 l 1 3 z m 1 7 l 1 3 z" stroke-linecap="round"/>
</g>
		<g transform="matrix(0.8 0 0 0.8 176.8257 541.964)">
<path style="stroke: none; stroke-width: 1; stroke-dasharray: none; stroke-linecap: butt; stroke-dashoffset: 0; stroke-linejoin: miter; stroke-miterlimit: 4; is-custom-font: none; font-file-url: none; fill: rgb(155,163,176); fill-rule: nonzero; opacity: 1;" transform=" translate(-8.0321, -36.455)" d="m 0 0 c 1.94 1.5 1.94 1.5 4 4 c 0.232 1.92 0.46 3.85 0.658 5.77 c 0.579 3.77 2 7.2 3.4 10.7 c 0.282 0.727 0.563 1.45 0.854 2.2 c 0.687 1.77 1.38 3.53 2.08 5.3 h 2 c 0.66 3.63 1.32 7.26 2 11 h 2 c 1.2 4.66 2.29 9.24 3 14 h 2 c 0.553 2.08 1 3.84 1 6 c 0.495 1.61 0.495 1.61 1 3.25 c 0.925 3.47 1.17 6.19 1 9.75 c -2.64 0.33 -5.28 0.66 -8 1 c -3.88 -8.48 -7.63 -17 -11 -25.7 c -0.925 -2.32 -0.925 -2.32 -2.03 -4.43 c -1.4 -2.84 -2.09 -5.85 -2.94 -8.9 c -1.76 -5.69 -3.85 -11.2 -6.09 -16.7 c -1.89 -4.74 -3.19 -9.23 -3.91 -14.3 c 2.97 -0.99 5.94 -1.98 9 -3 z m 16 43 l 1 2 z" stroke-linecap="round"/>
</g>
		<g transform="matrix(0.8 0 0 0.8 375.704 391.3868)">
<path style="stroke: none; stroke-width: 1; stroke-dasharray: none; stroke-linecap: butt; stroke-dashoffset: 0; stroke-linejoin: miter; stroke-miterlimit: 4; is-custom-font: none; font-file-url: none; fill: rgb(155,163,176); fill-rule: nonzero; opacity: 1;" transform=" translate(-24.63, -3.2335)" d="m 0 0 c 0.939 0.0381 1.88 0.0762 2.84 0.115 c 0.987 0.0207 1.97 0.0414 2.99 0.0627 c 2.2 0.0509 4.4 0.115 6.59 0.189 c 3.27 0.11 6.54 0.199 9.82 0.279 c 22.8 0.556 22.8 0.556 31.7 1.19 c 0.768 0.0529 1.54 0.106 2.33 0.16 c 1.85 0.492 1.85 0.492 3.85 3.49 c -1.57 -0.0909 -1.57 -0.0909 -3.17 -0.184 c -25.5 -1.49 -25.5 -1.49 -51 -2.13 c -1.05 -0.0174 -2.11 -0.0348 -3.19 -0.0527 c -0.961 0.000645 -1.92 0.00129 -2.91 0.00195 c -1.23 -0.00447 -1.23 -0.00447 -2.49 -0.00903 c -2.74 0.459 -4.15 1.58 -6.22 3.37 c -0.66 -0.33 -1.32 -0.66 -2 -1 c 2.91 -5.19 5.37 -5.56 10.9 -5.49 z" stroke-linecap="round"/>
</g>
		<g transform="matrix(0.8 0 0 0.8 69.196 541.9911)">
<path style="stroke: none; stroke-width: 1; stroke-dasharray: none; stroke-linecap: butt; stroke-dashoffset: 0; stroke-linejoin: miter; stroke-miterlimit: 4; is-custom-font: none; font-file-url: none; fill: rgb(155,163,176); fill-rule: nonzero; opacity: 1;" transform=" translate(30.505, -5.4888)" d="m 0 0 c -0.33 0.99 -0.66 1.98 -1 3 c -0.594 -0.0116 -1.19 -0.0232 -1.8 -0.0352 c -6.42 -0.0699 -12.8 0.0994 -19.2 1.04 c -0.33 0.33 -0.66 0.66 -1 1 c -2.55 0.433 -5.09 0.812 -7.65 1.16 c -0.768 0.107 -1.54 0.214 -2.33 0.325 c -2.47 0.344 -4.93 0.682 -7.4 1.02 c -2.46 0.338 -4.92 0.677 -7.38 1.02 c -1.53 0.213 -3.06 0.424 -4.6 0.631 c -3.01 0.418 -5.76 0.887 -8.65 1.85 c 0.663 -1.93 0.663 -1.93 2 -4 c 2.39 -0.79 2.39 -0.79 5.39 -1.2 c 1.1 -0.158 2.19 -0.315 3.32 -0.477 c 1.17 -0.149 2.34 -0.299 3.54 -0.452 c 1.77 -0.248 1.77 -0.248 3.58 -0.501 c 2.34 -0.326 4.68 -0.645 7.02 -0.955 c 2.56 -0.341 5.11 -0.698 7.66 -1.08 c 3.16 -0.47 6.32 -0.915 9.48 -1.34 c 0.819 -0.112 1.64 -0.224 2.48 -0.34 c 5.52 -0.693 11 -0.765 16.5 -0.66 z" stroke-linecap="round"/>
</g>
		<g transform="matrix(0.8 0 0 0.8 281.6 463.7879)">
<path style="stroke: none; stroke-width: 1; stroke-dasharray: none; stroke-linecap: butt; stroke-dashoffset: 0; stroke-linejoin: miter; stroke-miterlimit: 4; is-custom-font: none; font-file-url: none; fill: rgb(155,163,176); fill-rule: nonzero; opacity: 1;" transform=" translate(25, -1.7349)" d="m 0 0 c 2.38 1.95 4.23 4.05 5.95 6.6 c -4.37 -2.04 -8.25 -4.77 -12.2 -7.44 c -7.79 -4.41 -20.3 -3.77 -28.8 -1.88 c -7.74 2.94 -14.6 8.03 -20.9 13.3 c 3.06 -7.09 10.2 -11.7 17 -15 c 12.8 -4.56 28 -3.47 39 4.4 z" stroke-linecap="round"/>
</g>
		<g transform="matrix(0.8 0 0 0.8 396.396 372.3944)">
<path style="stroke: none; stroke-width: 1; stroke-dasharray: none; stroke-linecap: butt; stroke-dashoffset: 0; stroke-linejoin: miter; stroke-miterlimit: 4; is-custom-font: none; font-file-url: none; fill: rgb(155,163,176); fill-rule: nonzero; opacity: 1;" transform=" translate(-21.495, -20.493)" d="m 0 0 c 5.08 3.08 9.24 6.88 13.6 10.9 c 1.86 1.64 3.62 3.04 5.71 4.36 c 3 1.95 5.15 4.21 7.69 6.75 c 2.28 2.06 4.6 4.06 6.94 6.06 c 0.595 0.516 1.19 1.03 1.8 1.56 c 2.78 2.39 5.53 4.6 8.64 6.56 c 2.62 1.82 2.62 1.82 3.62 4.82 c -3.37 -0.58 -4.68 -1.57 -7 -4 c -4.68 -4.25 -9.53 -8.31 -14.4 -12.4 c -0.524 -0.441 -1.05 -0.882 -1.59 -1.34 c -2.85 -2.39 -2.85 -2.39 -6.04 -4.29 v -2 c -0.525 -0.215 -1.05 -0.431 -1.59 -0.652 c -4.02 -2.25 -7.28 -5.42 -10.7 -8.45 c -2.55 -2.21 -4.45 -3.82 -7.69 -4.9 c -2.17 0.875 -2.17 0.875 -4 2 c 1 -3 1 -3 3.06 -4.19 c 0.639 -0.268 1.28 -0.536 1.94 -0.812 z" stroke-linecap="round"/>
</g>
		<g transform="matrix(0.8 0 0 0.8 -169.232 515.212)">
<path style="stroke: none; stroke-width: 1; stroke-dasharray: none; stroke-linecap: butt; stroke-dashoffset: 0; stroke-linejoin: miter; stroke-miterlimit: 4; is-custom-font: none; font-file-url: none; fill: rgb(155,163,176); fill-rule: nonzero; opacity: 1;" transform=" translate(-24.46, -10.015)" d="m 0 0 c 5.86 0.523 10.5 1.87 16 4 c 1.29 0.479 2.57 0.956 3.86 1.43 c 21.3 7.89 21.3 7.89 30.1 12.6 v 2 c -8.81 -2.92 -17.6 -5.92 -26.1 -9.56 c -7.3 -3.1 -15 -6.3 -22.9 -7.44 c -0.99 0.495 -0.99 0.495 -2 1 c 0.33 -1.32 0.66 -2.64 1 -4 z" stroke-linecap="round"/>
</g>
		<g transform="matrix(0.8 0 0 0.8 -387.268 369.7203)">
<path style="stroke: none; stroke-width: 1; stroke-dasharray: none; stroke-linecap: butt; stroke-dashoffset: 0; stroke-linejoin: miter; stroke-miterlimit: 4; is-custom-font: none; font-file-url: none; fill: rgb(155,163,176); fill-rule: nonzero; opacity: 1;" transform=" translate(26.085, 2.8497)" d="m 0 0 c 0.804 0.722 1.61 1.44 2.44 2.19 c -0.33 0.66 -0.66 1.32 -1 2 c -2.04 -1.27 -4.04 -2.61 -6 -4 v -2 c -0.592 -0.193 -1.18 -0.387 -1.79 -0.586 c -0.79 -0.26 -1.58 -0.521 -2.39 -0.789 c -0.777 -0.255 -1.55 -0.51 -2.36 -0.773 c -2.46 -0.852 -2.46 -0.852 -4.81 -1.93 c -7.92 -2.76 -17.9 -1.71 -25.4 1.79 c -3.93 2.2 -7.65 4.65 -11.3 7.29 c -0.66 -0.33 -1.32 -0.66 -2 -1 c 15.7 -15.2 37.6 -16.2 54.6 -2.19 z" stroke-linecap="round"/>
</g>
		<g transform="matrix(0.8 0 0 0.8 280.416 506.1885)">
<path style="stroke: none; stroke-width: 1; stroke-dasharray: none; stroke-linecap: butt; stroke-dashoffset: 0; stroke-linejoin: miter; stroke-miterlimit: 4; is-custom-font: none; font-file-url: none; fill: rgb(155,163,176); fill-rule: nonzero; opacity: 1;" transform=" translate(-22.52, -7.7356)" d="m 0 0 c 0.688 0.597 0.688 0.597 1.39 1.21 c 1.86 1.61 3.74 3.2 5.61 4.79 c 0.639 0.557 1.28 1.11 1.94 1.69 c 6.55 4.17 13.4 5.6 21.1 4.31 c 5.36 -2.1 10.2 -4.81 15 -8 c -1.5 4.06 -4.4 6.74 -8 9 c -7.51 3.01 -16.2 3.51 -23.8 0.438 c -4.86 -2.52 -11.2 -6.24 -12.9 -11.7 c -0.0928 -0.588 -0.186 -1.18 -0.281 -1.78 z" stroke-linecap="round"/>
</g>
		<g transform="matrix(0.8 0 0 0.8 -182.02 564.7984)">
<path style="stroke: none; stroke-width: 1; stroke-dasharray: none; stroke-linecap: butt; stroke-dashoffset: 0; stroke-linejoin: miter; stroke-miterlimit: 4; is-custom-font: none; font-file-url: none; fill: rgb(155,163,176); fill-rule: nonzero; opacity: 1;" transform=" translate(-19.475, -8.998)" d="m 0 0 c 0.664 0.269 1.33 0.539 2.01 0.816 c 3.58 1.42 7.19 2.77 10.8 4.12 c 1.36 0.509 2.72 1.02 4.08 1.53 c 2.07 0.774 4.14 1.55 6.21 2.32 c 3.82 1.43 7.62 2.88 11.4 4.4 c 0.856 0.344 1.71 0.688 2.59 1.04 c 0.629 0.254 1.26 0.508 1.91 0.77 c -0.33 0.99 -0.66 1.98 -1 3 c -1.16 -0.454 -1.16 -0.454 -2.35 -0.918 c -5.96 -2.31 -11.9 -4.54 -18 -6.64 c -14.7 -5.25 -14.7 -5.25 -17.7 -10.4 z" stroke-linecap="round"/>
</g>
		<g transform="matrix(0.8 0 0 0.8 -290.044 483.3352)">
<path style="stroke: none; stroke-width: 1; stroke-dasharray: none; stroke-linecap: butt; stroke-dashoffset: 0; stroke-linejoin: miter; stroke-miterlimit: 4; is-custom-font: none; font-file-url: none; fill: rgb(155,163,176); fill-rule: nonzero; opacity: 1;" transform=" translate(-19.445, -8.169)" d="m 0 0 c 1.33 0.667 2.67 1.33 4 2 c 0.681 0.309 1.36 0.619 2.06 0.938 c 1.94 1.06 1.94 1.06 3.13 2.39 c 2.58 2.38 5.57 3.85 8.68 5.42 c 0.918 0.493 0.918 0.493 1.86 0.996 c 2.83 1.44 4.82 2.29 8.02 2.05 c 4.08 -1.44 7.66 -3.4 11.2 -5.79 c -1.52 4.26 -4.03 5.98 -8 8 c -8.75 1.45 -14.7 -2 -21.7 -6.88 c -3.75 -2.7 -6.55 -5.41 -9.31 -9.12 z" stroke-linecap="round"/>
</g>
		<g transform="matrix(0.8 0 0 0.8 -284 452.792)">
<path style="stroke: none; stroke-width: 1; stroke-dasharray: none; stroke-linecap: butt; stroke-dashoffset: 0; stroke-linejoin: miter; stroke-miterlimit: 4; is-custom-font: none; font-file-url: none; fill: rgb(155,163,176); fill-rule: nonzero; opacity: 1;" transform=" translate(-14, -10.99)" d="m 0 0 c 4.49 0.513 6.56 2.16 10 5 c 1.85 1.39 3.7 2.76 5.56 4.12 c 0.929 0.683 1.86 1.37 2.82 2.07 c 2.48 1.8 2.48 1.8 4.79 2.89 c 3.38 1.69 6.14 4.54 7.83 7.91 c -3.88 -1.38 -6.84 -3.16 -10.1 -5.62 c -0.956 -0.704 -1.91 -1.41 -2.9 -2.13 c -1.98 -1.49 -3.95 -3.01 -5.89 -4.55 c -5.52 -4.6 -5.52 -4.6 -12.3 -6.2 c -1.39 0.247 -1.39 0.247 -2.81 0.5 c 0.99 -1.32 1.98 -2.64 3 -4 z" stroke-linecap="round"/>
</g>
		<g transform="matrix(0.8 0 0 0.8 -173.988 540.4004)">
<path style="stroke: none; stroke-width: 1; stroke-dasharray: none; stroke-linecap: butt; stroke-dashoffset: 0; stroke-linejoin: miter; stroke-miterlimit: 4; is-custom-font: none; font-file-url: none; fill: rgb(155,163,176); fill-rule: nonzero; opacity: 1;" transform=" translate(-16.515, -7.5005)" d="m 0 0 c 3.02 0.931 6.04 1.87 9.06 2.81 c 1.27 0.392 1.27 0.392 2.57 0.791 c 4.94 1.54 9.65 3.27 14.4 5.4 c 1.11 0.495 2.23 0.99 3.38 1.5 c 2.62 1.5 2.62 1.5 3.62 4.5 c -0.666 -0.271 -1.33 -0.541 -2.02 -0.82 c -3.54 -1.4 -7.1 -2.73 -10.7 -4.05 c -16.1 -6 -16.1 -6 -20.3 -8.12 v -2 z" stroke-linecap="round"/>
</g>
		<g transform="matrix(0.8 0 0 0.8 385.196 417.204)">
<path style="stroke: none; stroke-width: 1; stroke-dasharray: none; stroke-linecap: butt; stroke-dashoffset: 0; stroke-linejoin: miter; stroke-miterlimit: 4; is-custom-font: none; font-file-url: none; fill: rgb(155,163,176); fill-rule: nonzero; opacity: 1;" transform=" translate(-14.495, -12.505)" d="m 0 0 c 2.95 1.37 5.52 2.88 8 5 v 2 c 0.514 0.218 1.03 0.436 1.56 0.66 c 3.46 1.9 6.42 4.32 9.5 6.78 c 0.625 0.49 1.25 0.981 1.89 1.49 c 2.84 2.24 5.52 4.48 8.04 7.08 c -0.33 0.66 -0.66 1.32 -1 2 c -2 -1.38 -2 -1.38 -4 -3 v -2 c -0.669 -0.197 -1.34 -0.394 -2.03 -0.598 c -4.13 -1.95 -7.16 -4.8 -10.5 -7.84 c -1.31 -1.17 -2.63 -2.33 -3.94 -3.5 c -0.607 -0.541 -1.21 -1.08 -1.84 -1.64 c -1.75 -1.54 -1.75 -1.54 -4.12 -3.21 c -0.507 -0.401 -1.01 -0.802 -1.54 -1.21 v -2 z" stroke-linecap="round"/>
</g>
		<g transform="matrix(0.8 0 0 0.8 -396.808 413.1984)">
<path style="stroke: none; stroke-width: 1; stroke-dasharray: none; stroke-linecap: butt; stroke-dashoffset: 0; stroke-linejoin: miter; stroke-miterlimit: 4; is-custom-font: none; font-file-url: none; fill: rgb(155,163,176); fill-rule: nonzero; opacity: 1;" transform=" translate(-10.99, -8.498)" d="m 0 0 c 1.11 0.936 2.21 1.87 3.31 2.81 c 0.615 0.522 1.23 1.04 1.86 1.58 c 1.82 1.61 1.82 1.61 3.17 3.14 c 2.36 2.09 4.93 3 7.84 4.16 c 1.09 0.437 2.17 0.874 3.29 1.32 c 0.831 0.326 1.66 0.652 2.52 0.988 c -0.33 0.99 -0.66 1.98 -1 3 c -8.93 -2.64 -15.7 -6.1 -21 -14 v -3 z" stroke-linecap="round"/>
</g>
		<g transform="matrix(0.8 0 0 0.8 -55.208 581.2016)">
<path style="stroke: none; stroke-width: 1; stroke-dasharray: none; stroke-linecap: butt; stroke-dashoffset: 0; stroke-linejoin: miter; stroke-miterlimit: 4; is-custom-font: none; font-file-url: none; fill: rgb(155,163,176); fill-rule: nonzero; opacity: 1;" transform=" translate(-12.99, -2.502)" d="m 0 0 c 3.77 0.307 7.54 0.621 11.3 0.938 c 1.07 0.087 2.14 0.174 3.25 0.264 c 1.03 0.087 2.06 0.174 3.12 0.264 c 0.948 0.0786 1.9 0.157 2.87 0.238 c 2.45 0.297 2.45 0.297 5.45 1.3 v 2 c -8.25 -0.66 -16.5 -1.32 -25 -2 c -0.33 -0.99 -0.66 -1.98 -1 -3 z" stroke-linecap="round"/>
</g>
		<g transform="matrix(0.8 0 0 0.8 190.796 -3.0336)">
<path style="stroke: none; stroke-width: 1; stroke-dasharray: none; stroke-linecap: butt; stroke-dashoffset: 0; stroke-linejoin: miter; stroke-miterlimit: 4; is-custom-font: none; font-file-url: none; fill: rgb(155,163,176); fill-rule: nonzero; opacity: 1;" transform=" translate(13.505, -4.208)" d="m 0 0 c 0.99 0.33 1.98 0.66 3 1 c -1.94 0.982 -3.87 1.96 -5.81 2.94 c -1.62 0.818 -1.62 0.818 -3.27 1.65 c -4.29 2.07 -7.55 2.62 -12.3 2.72 c -1.68 0.0561 -1.68 0.0561 -3.4 0.113 c -3.84 -0.507 -5.45 -1.79 -8.23 -4.43 c 5.75 0.875 5.75 0.875 8 2 c 8.01 0.775 13.8 -1.46 21 -5 c 0.33 -0.33 0.66 -0.66 1 -1 z" stroke-linecap="round"/>
</g>
		<g transform="matrix(0.8 0 0 0.8 -51.196 544.8502)">
<path style="stroke: none; stroke-width: 1; stroke-dasharray: none; stroke-linecap: butt; stroke-dashoffset: 0; stroke-linejoin: miter; stroke-miterlimit: 4; is-custom-font: none; font-file-url: none; fill: rgb(155,163,176); fill-rule: nonzero; opacity: 1;" transform=" translate(4.995, -3.0627)" d="m 0 0 c 1.88 1.56 1.88 1.56 3 3 l -1 2 c -0.536 -0.516 -1.07 -1.03 -1.62 -1.56 c -2.33 -1.7 -2.33 -1.7 -5.31 -1.38 c -3.43 1.05 -5.43 2.53 -8.06 4.94 c 0.935 -3.15 1.7 -4.75 4.25 -6.88 c 3.44 -1.41 5.22 -1.2 8.75 -0.125 z" stroke-linecap="round"/>
</g>
		<g transform="matrix(0.8 0 0 0.8 168.4 515.2)">
<path style="stroke: none; stroke-width: 1; stroke-dasharray: none; stroke-linecap: butt; stroke-dashoffset: 0; stroke-linejoin: miter; stroke-miterlimit: 4; is-custom-font: none; font-file-url: none; fill: rgb(155,163,176); fill-rule: nonzero; opacity: 1;" transform=" translate(2.5, -3)" d="m 0 0 c 1.32 1.32 2.64 2.64 4 4 l -1 2 c -0.66 -0.66 -1.32 -1.32 -2 -2 c -2.46 0.2 -2.46 0.2 -5.12 0.875 c -0.91 0.204 -1.82 0.407 -2.76 0.617 c -0.699 0.168 -1.4 0.335 -2.12 0.508 v -3 c 2.97 -0.99 5.94 -1.98 9 -3 z" stroke-linecap="round"/>
</g>
		<g transform="matrix(0.8 0 0 0.8 -32.0757 586)">
<path style="stroke: none; stroke-width: 1; stroke-dasharray: none; stroke-linecap: butt; stroke-dashoffset: 0; stroke-linejoin: miter; stroke-miterlimit: 4; is-custom-font: none; font-file-url: none; fill: rgb(155,163,176); fill-rule: nonzero; opacity: 1;" transform=" translate(-0.9053, -3.5)" d="m 0 0 c 2 3 2 3 1.62 5.19 c -0.309 0.897 -0.309 0.897 -0.625 1.81 c -0.33 -2.31 -0.66 -4.62 -1 -7 z" stroke-linecap="round"/>
</g>
		<g transform="matrix(0.8 0 0 0.8 -489.2 70.4)">
<path style="stroke: none; stroke-width: 1; stroke-dasharray: none; stroke-linecap: butt; stroke-dashoffset: 0; stroke-linejoin: miter; stroke-miterlimit: 4; is-custom-font: none; font-file-url: none; fill: rgb(155,163,176); fill-rule: nonzero; opacity: 1;" transform=" translate(-0.5, -4)" d="m 0 0 h 1 v 8 h -1 v -8 z" stroke-linecap="round"/>
</g>
		<g transform="matrix(0.8 0 0 0.8 491.6 -75.2)">
<path style="stroke: none; stroke-width: 1; stroke-dasharray: none; stroke-linecap: butt; stroke-dashoffset: 0; stroke-linejoin: miter; stroke-miterlimit: 4; is-custom-font: none; font-file-url: none; fill: rgb(155,163,176); fill-rule: nonzero; opacity: 1;" transform=" translate(-0.5, -4)" d="m 0 0 h 1 v 8 h -1 v -8 z" stroke-linecap="round"/>
</g>
		<g transform="matrix(0.8 0 0 0.8 -586 16.4)">
<path style="stroke: none; stroke-width: 1; stroke-dasharray: none; stroke-linecap: butt; stroke-dashoffset: 0; stroke-linejoin: miter; stroke-miterlimit: 4; is-custom-font: none; font-file-url: none; fill: rgb(155,163,176); fill-rule: nonzero; opacity: 1;" transform=" translate(-0.5, -3.5)" d="m 0 0 h 1 v 7 h -1 v -7 z" stroke-linecap="round"/>
</g>
		<g transform="matrix(0.8 0 0 0.8 -366 -45.2)">
<path style="stroke: none; stroke-width: 1; stroke-dasharray: none; stroke-linecap: butt; stroke-dashoffset: 0; stroke-linejoin: miter; stroke-miterlimit: 4; is-custom-font: none; font-file-url: none; fill: rgb(155,163,176); fill-rule: nonzero; opacity: 1;" transform=" translate(-0.5, -3.5)" d="m 0 0 h 1 v 7 h -1 v -7 z" stroke-linecap="round"/>
</g>
		<g transform="matrix(0.8 0 0 0.8 -44.8 -409.2)">
<path style="stroke: none; stroke-width: 1; stroke-dasharray: none; stroke-linecap: butt; stroke-dashoffset: 0; stroke-linejoin: miter; stroke-miterlimit: 4; is-custom-font: none; font-file-url: none; fill: rgb(155,163,176); fill-rule: nonzero; opacity: 1;" transform=" translate(-3, -0.5)" d="m 0 0 h 6 v 1 h -6 v -1 z" stroke-linecap="round"/>
</g>
		<g transform="matrix(0.8 0 0 0.8 -9.6 -410.8)">
<path style="stroke: none; stroke-width: 1; stroke-dasharray: none; stroke-linecap: butt; stroke-dashoffset: 0; stroke-linejoin: miter; stroke-miterlimit: 4; is-custom-font: none; font-file-url: none; fill: rgb(155,163,176); fill-rule: nonzero; opacity: 1;" transform=" translate(-3, -0.5)" d="m 0 0 h 6 v 1 h -6 v -1 z" stroke-linecap="round"/>
</g>
		<g transform="matrix(0.8 0 0 0.8 -39.2 561.6)">
<path style="stroke: none; stroke-width: 1; stroke-dasharray: none; stroke-linecap: butt; stroke-dashoffset: 0; stroke-linejoin: miter; stroke-miterlimit: 4; is-custom-font: none; font-file-url: none; fill: rgb(155,163,176); fill-rule: nonzero; opacity: 1;" transform=" translate(-1, -2)" d="m 0 0 c 0.66 1.32 1.32 2.64 2 4 c -0.66 -0.33 -1.32 -0.66 -2 -1 v -3 z" stroke-linecap="round"/>
</g>
		<g transform="matrix(0.8 0 0 0.8 176.8 526.4)">
<path style="stroke: none; stroke-width: 1; stroke-dasharray: none; stroke-linecap: butt; stroke-dashoffset: 0; stroke-linejoin: miter; stroke-miterlimit: 4; is-custom-font: none; font-file-url: none; fill: rgb(155,163,176); fill-rule: nonzero; opacity: 1;" transform=" translate(-1, -2)" d="m 0 0 c 0.66 1.32 1.32 2.64 2 4 c -0.66 -0.33 -1.32 -0.66 -2 -1 v -3 z" stroke-linecap="round"/>
</g>
		<g transform="matrix(0.8 0 0 0.8 -359.2 384)">
<path style="stroke: none; stroke-width: 1; stroke-dasharray: none; stroke-linecap: butt; stroke-dashoffset: 0; stroke-linejoin: miter; stroke-miterlimit: 4; is-custom-font: none; font-file-url: none; fill: rgb(155,163,176); fill-rule: nonzero; opacity: 1;" transform=" translate(-1, -2)" d="m 0 0 c 0.99 0.495 0.99 0.495 2 1 c -0.33 0.99 -0.66 1.98 -1 3 c -0.33 -1.32 -0.66 -2.64 -1 -4 z" stroke-linecap="round"/>
</g>
		<g transform="matrix(0.8 0 0 0.8 515.6 79.6)">
<path style="stroke: none; stroke-width: 1; stroke-dasharray: none; stroke-linecap: butt; stroke-dashoffset: 0; stroke-linejoin: miter; stroke-miterlimit: 4; is-custom-font: none; font-file-url: none; fill: rgb(155,163,176); fill-rule: nonzero; opacity: 1;" transform=" translate(-0.5, -2.5)" d="m 0 0 h 1 v 5 h -1 v -5 z" stroke-linecap="round"/>
</g>
		<g transform="matrix(0.8 0 0 0.8 -27.6 600)">
<path style="stroke: none; stroke-width: 1; stroke-dasharray: none; stroke-linecap: butt; stroke-dashoffset: 0; stroke-linejoin: miter; stroke-miterlimit: 4; is-custom-font: none; font-file-url: none; fill: rgb(155,163,176); fill-rule: nonzero; opacity: 1;" transform=" translate(-0.5, -2)" d="m 0 0 l 1 4 z" stroke-linecap="round"/>
</g>
		<g transform="matrix(0.8 0 0 0.8 78 573.6)">
<path style="stroke: none; stroke-width: 1; stroke-dasharray: none; stroke-linecap: butt; stroke-dashoffset: 0; stroke-linejoin: miter; stroke-miterlimit: 4; is-custom-font: none; font-file-url: none; fill: rgb(155,163,176); fill-rule: nonzero; opacity: 1;" transform=" translate(-0.5, -2)" d="m 0 0 l 1 4 z" stroke-linecap="round"/>
</g>
		<g transform="matrix(0.8 0 0 0.8 191.6 567.2)">
<path style="stroke: none; stroke-width: 1; stroke-dasharray: none; stroke-linecap: butt; stroke-dashoffset: 0; stroke-linejoin: miter; stroke-miterlimit: 4; is-custom-font: none; font-file-url: none; fill: rgb(155,163,176); fill-rule: nonzero; opacity: 1;" transform=" translate(-0.5, -2)" d="m 0 0 l 1 4 z" stroke-linecap="round"/>
</g>
		<g transform="matrix(0.8 0 0 0.8 -43.2 550)">
<path style="stroke: none; stroke-width: 1; stroke-dasharray: none; stroke-linecap: butt; stroke-dashoffset: 0; stroke-linejoin: miter; stroke-miterlimit: 4; is-custom-font: none; font-file-url: none; fill: rgb(155,163,176); fill-rule: nonzero; opacity: 1;" transform=" translate(-1, -1.5)" d="m 0 0 c 0.99 0.495 0.99 0.495 2 1 c -0.33 0.66 -0.66 1.32 -1 2 c -0.33 -0.99 -0.66 -1.98 -1 -3 z" stroke-linecap="round"/>
</g>
		<g transform="matrix(0.8 0 0 0.8 312.4 480)">
<path style="stroke: none; stroke-width: 1; stroke-dasharray: none; stroke-linecap: butt; stroke-dashoffset: 0; stroke-linejoin: miter; stroke-miterlimit: 4; is-custom-font: none; font-file-url: none; fill: rgb(155,163,176); fill-rule: nonzero; opacity: 1;" transform=" translate(-0.5, -2)" d="m 0 0 l 1 4 z" stroke-linecap="round"/>
</g>
		<g transform="matrix(0.8 0 0 0.8 -579.6 68)">
<path style="stroke: none; stroke-width: 1; stroke-dasharray: none; stroke-linecap: butt; stroke-dashoffset: 0; stroke-linejoin: miter; stroke-miterlimit: 4; is-custom-font: none; font-file-url: none; fill: rgb(155,163,176); fill-rule: nonzero; opacity: 1;" transform=" translate(-0.5, -2)" d="m 0 0 l 1 4 z" stroke-linecap="round"/>
</g>
		<g transform="matrix(0.8 0 0 0.8 16 -410.8)">
<path style="stroke: none; stroke-width: 1; stroke-dasharray: none; stroke-linecap: butt; stroke-dashoffset: 0; stroke-linejoin: miter; stroke-miterlimit: 4; is-custom-font: none; font-file-url: none; fill: rgb(155,163,176); fill-rule: nonzero; opacity: 1;" transform=" translate(-2, -0.5)" d="m 0 0 l 4 1 z" stroke-linecap="round"/>
</g>
		<g transform="matrix(0.8 0 0 0.8 -78 -405.2)">
<path style="stroke: none; stroke-width: 1; stroke-dasharray: none; stroke-linecap: butt; stroke-dashoffset: 0; stroke-linejoin: miter; stroke-miterlimit: 4; is-custom-font: none; font-file-url: none; fill: rgb(155,163,176); fill-rule: nonzero; opacity: 1;" transform=" translate(-1.5, -0.5)" d="m 0 0 c 3 1 3 1 3 1 z" stroke-linecap="round"/>
</g>
		<g transform="matrix(0.8 0 0 0.8 -97.6 -401.2)">
<path style="stroke: none; stroke-width: 1; stroke-dasharray: none; stroke-linecap: butt; stroke-dashoffset: 0; stroke-linejoin: miter; stroke-miterlimit: 4; is-custom-font: none; font-file-url: none; fill: rgb(155,163,176); fill-rule: nonzero; opacity: 1;" transform=" translate(-1, -0.5)" d="m 0 0 l 2 1 z" stroke-linecap="round"/>
</g>
		<g transform="matrix(0.8 0 0 0.8 34.4 -409.2)">
<path style="stroke: none; stroke-width: 1; stroke-dasharray: none; stroke-linecap: butt; stroke-dashoffset: 0; stroke-linejoin: miter; stroke-miterlimit: 4; is-custom-font: none; font-file-url: none; fill: rgb(155,163,176); fill-rule: nonzero; opacity: 1;" transform=" translate(-1, -0.5)" d="m 0 0 l 2 1 z" stroke-linecap="round"/>
</g>
</g>
</g>
</svg>