<?xml version="1.0" encoding="UTF-8"?>
<svg version="1.1" viewBox="0 0 1600 856" width="1280" height="1280" xmlns="http://www.w3.org/2000/svg">
<path transform="translate(973 123)" d="m0 0c3.51 3.1 5.77 6.74 8.04 10.8 0.379 0.661 0.758 1.32 1.15 2 5.24 9.74 6.41 19.2 6.35 30.1-0.00532 1.97-0.00532 1.97-0.0107 3.97-0.201 16.4-3.48 32.7-9.49 47.9-0.476 1.22-0.951 2.44-1.44 3.69-1.03 2.6-2.07 5.2-3.13 7.79-0.827 2.04-1.64 4.08-2.42 6.13-3.07 8.08-7.06 15.7-11 23.4-0.363 0.712-0.726 1.42-1.1 2.16-4.54 8.89-9.39 17.4-14.9 25.7-2.16 3.35-4.07 6.77-5.96 10.3-1.43 2.48-3.24 4.6-5.05 6.82-0.965 1.71-1.93 3.41-2.88 5.12-1.64 2.74-3.57 5.21-5.51 7.74-1.63 2.17-3.15 4.39-4.67 6.64-4.76 6.85-10.1 13.2-15.4 19.7-2.59 3.16-5.13 6.35-7.67 9.54-1.3 1.63-2.61 3.26-3.92 4.88-2.97 3.68-5.91 7.34-8.6 11.2-2.24 3.09-4.58 5.52-7.31 8.19-1.59 1.72-3.18 3.45-4.75 5.19-0.779 0.86-1.56 1.72-2.36 2.61-1.92 2.06-1.92 2.06-2.89 4.21h-2c-0.268 0.701-0.536 1.4-0.812 2.12-1.19 2.88-1.19 2.88-2.64 5.61-5.9 12.5-7.03 28.1-9.37 41.6-1.14 6.54-2.38 13.1-3.69 19.6-0.713 4.54-0.713 4.54-0.48 9.1 3.16 2.2 6.46 3.71 10 5.12 0.949 0.376 1.9 0.752 2.88 1.14 32.9 12.8 71.3 19.7 105 5.62 15.8-7.24 29.4-17.9 41.9-29.9 0.732-0.691 1.46-1.38 2.22-2.09 3.77-3.65 7.12-7.5 10.4-11.6 3.21-3.97 6.09-7.52 10.4-10.3 2.38 0.188 2.38 0.188 4 1-0.512 4.48-2.15 6.58-5 10-0.614 0.779-1.23 1.56-1.86 2.36-10.3 13-21 23-34.6 32.5-1.38 1-2.69 2.09-3.99 3.19-3.33 2.52-6.85 4.16-10.6 5.88-1.14 0.523-1.14 0.523-2.31 1.06-1.52 0.693-3.05 1.38-4.58 2.07-1.67 0.762-3.31 1.57-4.95 2.39-29.6 14.1-63.6 9.45-94.1 1.55 0.485 0.594 0.969 1.19 1.47 1.8 5.06 6.25 9.88 12.6 14.5 19.2 0.459 0.646 0.918 1.29 1.39 1.96 2.61 3.78 2.61 3.78 2.61 6.04h2c9.02 16.2 15.3 32.1 20 50 0.238 0.857 0.476 1.71 0.72 2.6 2.07 7.74 3.19 15.4 3.97 23.3 0.125 1.27 0.25 2.55 0.379 3.86 2.37 25.6 1.4 51.8-7.07 76.2-0.338 0.983-0.338 0.983-0.684 1.98-4.83 13.7-11.3 27.9-23.2 36.6-1.01 0.755-2.02 1.51-3.05 2.29-8.78 5.96-16.7 6.63-27.1 6.09-6.66-1.33-13.9-4.34-19-9v-2c-0.599-0.248-1.2-0.495-1.82-0.75-10.4-5.97-15.9-25.7-19.2-36.6-0.694-2.56-1.37-5.11-2-7.69-0.165-0.666-0.33-1.33-0.5-2.02-11.6-48.7-8.66-100-5.88-150 0.123-2.19 0.243-4.38 0.362-6.57 1.07-19.3 3.05-38.3 6.01-57.5-3.33 1.11-4.01 1.93-6.19 4.56-7.07 8.28-14.7 15.4-23.8 21.4h-2c-0.33 0.99-0.66 1.98-1 3-2.12 1.58-2.12 1.58-4.88 3.25-4.35 2.65-4.35 2.65-8.6 5.45-15.9 10.8-38.5 21.3-58.1 18.6-6.28-0.743-12.4-1.45-18.4 0.676-5.76 5.08-8.66 12.3-11.7 19.2-2 4.24-4.56 7.98-7.3 11.8-0.48 0.667-0.96 1.33-1.45 2.02-1.44 1.97-2.89 3.91-4.36 5.85-0.78 1.03-0.78 1.03-1.58 2.09-7.11 9.39-14.6 18.4-22.6 27-0.572 0.626-1.14 1.25-1.73 1.9-9.46 9.95-23 19.6-37.3 20.1-10.1-1.38-17.2-4.4-23.6-12.4-7.45-10.4-11.4-22.2-14.4-34.6-0.167-0.655-0.335-1.31-0.507-1.98-9.33-37.3-7.18-77-4.49-115 0.0694-0.992 0.139-1.98 0.21-3.01 0.733-9.81 2.3-19.4 4.16-29.1 0.197-1.04 0.394-2.07 0.597-3.14 2.2-10.8 5.37-22.4 15-28.8 5.64-2.57 11.3-2.92 17.3-1.42 3 1.18 5.12 2.17 6.47 5.2 1.45 9.07-1.27 18.9-3.21 27.8-1.6 7.41-2.89 14.9-4.08 22.3-0.107 0.669-0.213 1.34-0.323 2.03-3.44 21.6-5.81 43.2-7.18 65.1-0.0593 0.939-0.119 1.88-0.18 2.85-4.18 48.1-4.18 48.1 10.8 91.8 2.67 2.78 2.67 2.78 6.22 3.43 12.2-0.986 21.9-9.5 30.1-18.1 0.97-1.14 1.93-2.3 2.86-3.47 1.89-2.34 4.09-4.38 6.21-6.5 8.21-8.72 15-18.2 21.3-28.4 1.53-2.43 3.11-4.81 4.71-7.18 8.15-11 8.15-11 11.9-23.4-1.6-1.37-1.6-1.37-3.69-2.5l-2.22-1.31c-1.59-0.902-3.18-1.8-4.78-2.69-8.64-5.6-15.3-15.6-20.3-24.5-0.347-0.611-0.694-1.22-1.05-1.85-11.6-21.7-12.8-50.2-6.23-73.7 4.92-15.1 12.9-30.6 27-38.9l3.25-1.56c1.01-0.557 2.02-1.11 3.06-1.69 7.07-3.16 15.2-3.06 22.7-1.56 8.68 3.34 15.6 10.2 19.6 18.6 6.85 17.7 4.23 38.5 0.625 56.7-0.139 0.738-0.278 1.48-0.422 2.24-3.63 19.1-10.3 36.8-18.2 54.5-2.26 5.03-4.33 10.1-6.33 15.3 9.8 4.9 27.3 1.17 37.5-1.8 8.63-2.95 16.7-6.51 24.5-11.2 0.946-0.567 0.946-0.567 1.91-1.14 2.05-1.26 4.07-2.55 6.09-3.86 0.883-0.552 1.77-1.1 2.68-1.67 6.73-4.31 12.7-9.06 18.7-14.4 2.53-2.25 4.38-3.86 7.63-4.95 0.289-0.578 0.578-1.16 0.875-1.75 1.52-3.04 3.61-4.99 6.12-7.25h2c0.371-0.835 0.371-0.835 0.75-1.69 1.48-2.74 3.18-4.99 5.25-7.31h2c2-5.78 3.39-11.6 4.43-17.6 0.128-0.736 0.257-1.47 0.389-2.23 1.39-8.1 2.51-16.2 3.63-24.4 2.76-20 5.94-39.9 9.55-59.8 0.215-1.18 0.215-1.18 0.434-2.38 1.05-5.75 2.12-11.5 3.19-17.2 0.21-1.13 0.21-1.13 0.425-2.29 2.46-13.2 5.24-26.2 8.95-39.1 0.336-1.36 0.66-2.72 0.965-4.09 0.16-0.704 0.321-1.41 0.486-2.13 0.322-1.43 0.643-2.86 0.961-4.29 1.03-4.48 2.32-8.79 3.81-13.1 1.39-4.2 2.53-8.46 3.72-12.7 2.07-7.34 4.31-14.5 7.06-21.6 0.47-1.27 0.937-2.55 1.4-3.82 2.89-7.89 6-15.6 9.6-23.2 0.581-1.28 1.16-2.57 1.74-3.86 7.24-16 15.5-30.1 27.3-43.1 1.21-1.44 2.42-2.87 3.62-4.31 16.5-18.6 43-29.4 65.3-13.5zm-37.6 4.36c-2.61 2.11-2.61 2.11-2.38 4.44-0.99 0.33-1.98 0.66-3 1-13.6 18.4-21.8 41.5-29 63-0.256 0.759-0.512 1.52-0.776 2.3-4.83 14.4-8.79 29-12.5 43.8-0.619 2.46-1.25 4.92-1.89 7.37-5.33 20.6-9.12 41.6-12.8 62.6-0.206 1.15-0.206 1.15-0.415 2.32-6.8 34.1-6.8 34.1-9.58 68.7h2c3.03-3.06 3.03-3.06 4-7 0.99-0.33 1.98-0.66 3-1 1.22-2.5 1.22-2.5 2-5h2c1.56-1.84 3.01-3.69 4.44-5.62 0.891-1.19 1.78-2.37 2.68-3.56 0.467-0.622 0.935-1.24 1.42-1.89 1.5-1.97 3.03-3.91 4.58-5.84 0.504-0.631 1.01-1.26 1.53-1.91 0.984-1.23 1.97-2.46 2.96-3.68 2.57-2.89 2.57-2.89 3.4-6.5h2c1.28-1.72 2.47-3.51 3.62-5.31 2.7-4.15 5.43-8.21 8.38-12.2 4.19-5.71 8.13-11.6 12-17.5 0.438-0.669 0.876-1.34 1.33-2.03 4.86-7.44 9.71-14.9 14.2-22.5 1.73-2.9 3.53-5.76 5.32-8.62 8.8-14.3 15.8-29.3 22.1-44.8 0.413-1.02 0.825-2.04 1.25-3.09 7.67-19.4 12.9-38.4 12.9-59.4 0.0122-1.18 0.0245-2.35 0.0371-3.56 0.0212-12.6-2.1-23.6-11.2-33-9.77-8.15-23.4-9.46-33.6-1.44zm-264 237v2h-2c-14.4 19.1-17.8 45.3-15.7 68.4 3.34 22.2 14.1 39.9 31.8 53.4 2.05 1.26 3.48 1.98 5.89 2.16 4.01-3.3 5.61-8.12 7.69-12.8 0.438-0.97 0.877-1.94 1.33-2.94 4.33-9.77 7.87-19.8 11.2-29.9 0.642-1.95 1.32-3.89 2-5.83 7.07-20.8 13.9-50.7 3.73-71.7-3.4-6.39-8.44-11.1-14.9-14.4-12.7-2.08-22.4 1.81-31.1 11.5zm176 111c-2.09 2.09-1.65 6.36-1.94 9.25-0.551 5.3-1.15 10.6-2.06 15.8-1.17 7.25-1.64 14.5-2.18 21.9-0.482 6.35-1.1 12.7-1.88 19-11.2 81.3-11.2 81.3 9.06 158h2c0.309 1.11 0.309 1.11 0.625 2.25 2.75 5.49 8.78 7.82 14.4 9.75 7.78 0.878 13.3-1.28 19.6-5.92 5.93-5.02 9.99-10.1 13.4-17.1 0.575-1.16 1.15-2.33 1.74-3.52 19.8-41.8 18.5-93.5 3.26-136-8.09-21.8-20.2-42.7-37-59h-2c-0.219-0.563-0.438-1.13-0.664-1.71-1.77-3.03-3.99-4.77-6.71-6.98-0.956-0.788-1.91-1.58-2.9-2.39-2.4-1.69-3.84-2.64-6.73-2.93z" fill="#000100"/>
<path transform="translate(605 367)" d="m0 0c1.89 1.76 2.26 2.77 2.66 5.31 0.198 8.66-1.7 17.2-3.55 25.7-1.6 7.41-2.89 14.9-4.08 22.3-0.107 0.669-0.213 1.34-0.323 2.03-3.44 21.6-5.81 43.2-7.18 65.1-0.0593 0.939-0.119 1.88-0.18 2.85-0.351 5.72-0.631 11.4-0.82 17.2-0.0234 0.702-0.0467 1.4-0.0708 2.13-0.321 11.5 0.462 22.9 1.45 34.3 0.636 7.97 0.478 15.6-0.376 23.5-6.62 1-6.62 1-10 1l-1-4c-0.722-0.0412-1.44-0.0825-2.19-0.125-3.92-1.22-5.78-3.45-7.81-6.88-1.42-3.24-2.2-6.56-3-10-0.478-1.89-0.478-1.89-0.965-3.83-8.68-36.9-6.68-75.7-4.04-113 0.0694-0.992 0.139-1.98 0.21-3.01 0.733-9.81 2.3-19.4 4.16-29.1 0.197-1.04 0.394-2.07 0.597-3.14 2.2-10.8 5.37-22.4 15-28.8 6.97-3.17 14.8-3.3 21.5 0.566z" fill="#000100"/>
<path transform="translate(1034 425)" d="m0 0c0.804 0.402 0.804 0.402 1.62 0.812-0.512 4.48-2.15 6.58-5 10-0.92 1.17-0.92 1.17-1.86 2.36-10.3 13-21 23-34.6 32.5-1.38 1-2.69 2.09-3.99 3.19-3.33 2.52-6.85 4.16-10.6 5.88-1.14 0.523-1.14 0.523-2.31 1.06-1.52 0.693-3.05 1.38-4.58 2.07-1.67 0.762-3.31 1.57-4.95 2.39-29.6 14.1-63.6 9.45-94.1 1.55 0.485 0.594 0.969 1.19 1.47 1.8 5.06 6.25 9.88 12.6 14.5 19.2 0.459 0.646 0.918 1.29 1.39 1.96 2.61 3.78 2.61 3.78 2.61 6.04h2c9.02 16.2 15.3 32.1 20 50 0.238 0.857 0.476 1.71 0.72 2.6 2.07 7.74 3.19 15.4 3.97 23.3 0.125 1.27 0.25 2.55 0.379 3.86 2.37 25.6 1.4 51.8-7.07 76.2-0.226 0.655-0.451 1.31-0.684 1.98-4.83 13.7-11.3 27.9-23.2 36.6-1.01 0.755-2.02 1.51-3.05 2.29-8.78 5.96-16.7 6.63-27.1 6.09-6.66-1.33-13.9-4.34-19-9v-2c-0.899-0.371-0.899-0.371-1.82-0.75-9.35-5.35-13.9-21.7-17.2-31.2 3.96-0.33 7.92-0.66 12-1 0.0778-4.74 0.0125-9.36-0.469-14.1-2.04-21.6-1.93-43.4-1.09-65 0.0392-1.04 0.0783-2.08 0.119-3.15 0.0421-0.965 0.0841-1.93 0.127-2.92 0.0367-0.856 0.0733-1.71 0.111-2.59 0.205-2.21 0.205-2.21 1.21-5.21 0.183-2.77 0.325-5.54 0.438-8.31 0.375-8 1.25-15.8 2.56-23.7h1c-0.379 13.1-0.829 26.2-1.79 39.3-4.6 56.6-4.6 56.6 11.8 110 1.3 1.37 2.62 2.72 4 4v2c0.572 0.286 1.14 0.572 1.73 0.867 1.45 0.726 2.9 1.46 4.34 2.2 5.99 2.91 10.6 4.16 17.1 2.3 13.4-5.2 19.7-16.4 25.4-28.8 18.4-42.1 16-93.2 0.289-136-9.78-24.4-24.6-48.8-46-64.7-1.05-0.779-2.09-1.56-3.17-2.36-2.46-1.87-2.46-1.87-4.64-2.89v-11c0.543 0.611 1.09 1.22 1.64 1.85 2.62 2.39 4.71 3.32 8.04 4.52 1.15 0.419 2.3 0.838 3.49 1.27 0.928 0.328 0.928 0.328 1.87 0.663 2.01 0.717 4.01 1.46 6.02 2.2 31.4 11.6 69.4 16.9 101 2.49 15-7.6 27.9-17.5 40-29 0.732-0.691 1.46-1.38 2.22-2.09 3.77-3.65 7.12-7.5 10.4-11.6 8.46-10.5 8.46-10.5 12.8-10.1z" fill="#090909"/>
<path transform="translate(714,353)" d="m0 0c11.2 10.8 13.9 22.1 14.3 37.4 0.176 17.4-3.33 33.8-7.29 50.6-0.66-0.99-1.32-1.98-2-3-0.33 0.66-0.66 1.32-1 2h-3c-0.326 1.06-0.652 2.12-0.988 3.22-2.16 7-4.31 14-7.01 20.8h-1c0.505-9.43 3.59-18.2 6.74-27.1 7.18-20.5 11.5-45.8 4.25-66.8-3.47-7.04-7.79-12-14.9-15.5-9.06-1.63-15.2-0.392-23.2 4.25-2.34 1.78-3.82 3.2-5.62 5.44-0.743 0.908-1.49 1.81-2.25 2.75h-2c-0.262 0.699-0.523 1.4-0.793 2.12-1.31 3.13-2.9 6.02-4.52 9.01-11.4 22-12.6 48.9-5.94 72.4 2.02 6.29 4.95 11.7 8.25 17.4 1.89 3.6 3.71 7.13 5 11h2c0.33 1.98 0.66 3.96 1 6 0.744 0.0928 1.49 0.186 2.25 0.281 3.17 0.83 4.39 1.93 6.68 4.22 3.27 3.03 5.46 4.38 10.1 4.5 0.495 3.47 0.495 3.47 1 7 0.99 0.33 1.98 0.66 3 1-0.364 0.541-0.728 1.08-1.1 1.64-3.7 5.52-7.3 11.1-10.8 16.7-0.528 0.835-1.06 1.67-1.6 2.53-2.14 3.39-4.27 6.78-6.34 10.2-4.81 7.92-10.7 14.9-16.6 22-2.09 2.53-4.12 5.11-6.17 7.68-11.6 14.1-26 27.9-44.8 31.1-7.18 0.236-16.2-2.07-21.6-6.91-6.94-7.64-11.9-16.2-15-26l1-2c0.866 0.959 0.866 0.959 1.75 1.94 2.02 2.18 2.02 2.18 4.31 2.56 2.7 0.698 3.46 2.22 4.94 4.5v-1c2.31-0.33 4.62-0.66 7-1 0.33-3.96 0.66-7.92 1-12 1.66 3.32 2.52 6 3.29 9.59 1.85 8.52 4.09 16.3 11.7 21.4 10.4 0.815 18.3-5.88 25.8-12.2 3.33-2.88 6.29-5.87 9.03-9.3 1.89-2.34 4.09-4.38 6.21-6.5 8.21-8.72 15-18.2 21.3-28.4 1.53-2.43 3.11-4.81 4.71-7.18 8.15-11 8.15-11 11.9-23.4-1.6-1.37-1.6-1.37-3.69-2.5-0.732-0.433-1.46-0.866-2.22-1.31-1.59-0.902-3.18-1.8-4.78-2.69-8.64-5.6-15.3-15.6-20.3-24.5-0.347-0.611-0.694-1.22-1.05-1.85-11.6-21.7-12.8-50.2-6.23-73.7 4.92-15.1 12.9-30.6 27-38.9 1.07-0.516 2.14-1.03 3.25-1.56 1.01-0.557 2.02-1.11 3.06-1.69 10.3-4.62 23.1-3.34 31.9 3.69z" fill="#090909"/>
<path transform="translate(973 123)" d="m0 0c3.51 3.1 5.77 6.74 8.04 10.8 0.379 0.661 0.758 1.32 1.15 2 5.24 9.74 6.41 19.2 6.35 30.1-0.00354 1.31-0.00709 2.62-0.0107 3.97-0.201 16.4-3.48 32.7-9.49 47.9-0.476 1.22-0.951 2.44-1.44 3.69-1.03 2.6-2.07 5.2-3.13 7.79-0.827 2.04-1.64 4.08-2.42 6.13-3.07 8.08-7.06 15.7-11 23.4-0.544 1.07-0.544 1.07-1.1 2.16-4.54 8.89-9.39 17.4-14.9 25.7-2.16 3.35-4.07 6.77-5.96 10.3-1.43 2.48-3.24 4.6-5.05 6.82-0.965 1.71-1.93 3.41-2.88 5.12-1.64 2.74-3.57 5.21-5.51 7.74-1.63 2.17-3.15 4.39-4.67 6.64-4.76 6.85-10.1 13.2-15.4 19.7-2.59 3.16-5.13 6.35-7.67 9.54-1.3 1.63-2.61 3.26-3.92 4.88-2.97 3.68-5.91 7.34-8.6 11.2-2.24 3.09-4.58 5.52-7.31 8.19-1.59 1.72-3.18 3.45-4.75 5.19-1.17 1.29-1.17 1.29-2.36 2.61-1.92 2.06-1.92 2.06-2.89 4.21h-2c-0.66 1.65-1.32 3.3-2 5h-2c-0.027-1.46-0.0464-2.92-0.0625-4.38-0.0116-0.812-0.0232-1.62-0.0352-2.46 0.0977-2.16 0.0977-2.16 1.1-4.16h2c0.267-0.585 0.534-1.17 0.809-1.77 1.21-2.26 2.55-3.95 4.25-5.85 1.6-1.79 2.86-3.22 3.94-5.38h2c0.224-0.525 0.449-1.05 0.68-1.59 1.79-3.27 4.11-6.08 6.45-8.97 4.3-5.39 8.39-10.9 12.3-16.5 0.514-0.632 1.03-1.26 1.56-1.91h2c0.257-0.722 0.513-1.44 0.777-2.19 1.29-2.98 2.83-5.23 4.79-7.81 7.4-10 14.3-20.3 21.1-30.7 0.63-0.962 1.26-1.92 1.91-2.92 3.47-5.33 6.83-10.7 10.1-16.2 1.69-2.83 3.44-5.61 5.2-8.4 8.8-14.3 15.8-29.3 22.1-44.8 0.413-1.02 0.825-2.04 1.25-3.09 7.67-19.4 12.9-38.4 12.9-59.4 0.0122-1.18 0.0245-2.35 0.0371-3.56 0.0142-8.46-0.28-16.4-4.66-23.9-0.617-1.08-0.617-1.08-1.25-2.18-1.25-1.99-1.25-1.99-2.98-3.58-1.34-1.37-1.34-1.37-1.34-3.37-0.681-0.268-1.36-0.536-2.06-0.812-2.11-0.853-4.19-1.78-6.25-2.75-8.03-3.13-13.8-2.74-21.7 0.562-3.79 2.47-6.27 5.42-9 9-0.66 0.66-1.32 1.32-2 2-0.33-3.3-0.66-6.6-1-10-0.99-0.33-1.98-0.66-3-1 0.66 0.66 1.32 1.32 2 2v3h-3c-0.33 0.66-0.66 1.32-1 2-0.681-0.99-0.681-0.99-1.38-2-0.536-0.66-1.07-1.32-1.62-2h-2c-0.258 0.597-0.516 1.19-0.781 1.81-1.32 2.37-2.61 3.58-4.72 5.25-2.44 1.95-3.72 3.27-5.5 5.94-0.66-0.33-1.32-0.66-2-1 16.9-20.4 44.2-35.4 69-17.8z" fill="#080808"/>
<path transform="translate(1033,731)" d="m0 0h34c-3.69 2.46-6.7 3.01-11 4-1.13 4.08-1.22 8.06-1.32 12.3-0.0187 0.704-0.0373 1.41-0.0565 2.13-0.0681 2.62-0.128 5.23-0.19 7.85-0.144 5.86-0.289 11.7-0.438 17.8h58v-41c-2.97-0.33-5.94-0.66-9-1-0.99-0.99-0.99-0.99-2-2h34c-3 2-3 2-12 3v88c5.44 0.495 5.44 0.495 11 1v2h-33v-2c1.07-0.182 1.07-0.182 2.15-0.367 0.919-0.168 1.84-0.335 2.79-0.508 0.917-0.162 1.83-0.325 2.78-0.492 1.13-0.313 1.13-0.313 2.29-0.633 1.69-3.38 1.24-7.22 1.32-10.9 0.0187-0.784 0.0373-1.57 0.0565-2.38 0.0684-2.93 0.128-5.87 0.19-8.8 0.144-6.56 0.289-13.1 0.438-19.9h-59c0.495 20.3 0.495 20.3 1 41 4.26 1.71 7.51 2.47 12 3v2h-34v-2c4.95-0.99 4.95-0.99 10-2 0.154-10.5 0.302-20.9 0.443-31.4 0.0656-4.86 0.133-9.71 0.205-14.6 0.0696-4.69 0.134-9.38 0.195-14.1 0.024-1.79 0.05-3.57 0.0778-5.36 0.0388-2.51 0.0707-5.01 0.101-7.52 0.0129-0.736 0.0259-1.47 0.0392-2.23 0.0416-4.08-0.261-7.89-1.06-11.9-3.3-0.66-6.6-1.32-10-2v-1z" fill="#090909"/>
<path transform="translate(1325,741)" d="m0 0c9.82 9.57 16.8 21.2 17.4 35.2-0.363 11.6-3.95 24.5-12.4 32.8-1.48 1.81-2.95 3.64-4.4 5.48-1.6 1.52-1.6 1.52-3.73 2.05-0.617 0.157-1.23 0.315-1.87 0.477-0.495 1.49-0.495 1.49-1 3-12.7 7.87-28.8 8.58-43.3 6.54-8.71-2.07-15.8-6.86-21.7-13.5-0.554-0.624-1.11-1.25-1.68-1.89-10.6-12.6-12.3-26.3-11.3-42.1 1.64-10.8 9.61-21.4 18-28 19.2-13 47.6-17 66 0zm-64.2 3.48c-8.93 11.6-10.8 24.2-9.07 38.6 1.02 6.28 2.85 12 5.31 17.9h2c0.206 0.846 0.412 1.69 0.625 2.56 3.64 9.09 11.4 13.7 19.6 18.2 10.1 3.21 21.6 3.21 31.5-0.969 9.09-4.94 15.2-13 18.3-22.8 3.52-15.2 2.88-32.2-5.47-45.8-0.758-1.1-0.758-1.1-1.53-2.23-0.402-0.59-0.804-1.18-1.22-1.79-5.76-7.59-15.3-13.8-24.8-15.2-2.81-0.144-5.57-0.23-8.38-0.25-0.73-0.0206-1.46-0.0412-2.21-0.0625-9.58-0.0684-18.3 4.76-24.7 11.8z" fill="#000100"/>
<path transform="translate(1377,731)" d="m0 0c2.54-0.136 5.08-0.234 7.62-0.312 0.713-0.0419 1.43-0.0838 2.16-0.127 4.22-0.0967 5.88 0.214 9.5 2.67 2.34 2.39 4.49 4.74 6.53 7.39 1.02 1.31 1.02 1.31 2.06 2.64 0.703 0.904 1.41 1.81 2.13 2.74 4.47 5.6 9.01 11.1 13.9 16.3 4.22 4.58 8.07 9.34 11.9 14.3 3.9 5.03 8 9.85 12.2 14.6 3 3.43 5.57 6.96 8.06 10.8 2.98 4.08 2.98 4.08 7 7-0.109-1.08-0.109-1.08-0.22-2.18-0.702-7.53-0.859-14.9-0.737-22.5 0.0224-2.38 0.0438-4.76 0.0645-7.14 0.0371-3.7 0.0804-7.4 0.139-11.1 0.0546-3.61 0.0836-7.21 0.109-10.8 0.0238-1.1 0.0476-2.19 0.0721-3.32 0.0225-6.64-0.655-12.3-4.43-17.9-2.56-1.65-2.56-1.65-5-2v-1h24c-3 2-3 2-5.08 2.38-2.06 0.432-2.06 0.432-2.95 2.3-1.92 6.13-2.44 11.8-2.48 18.2-0.018 1.03-0.036 2.06-0.0545 3.13-0.0544 3.33-0.0883 6.67-0.121 10-0.0328 2.29-0.0666 4.59-0.101 6.88-0.252 17.7-0.338 35.4-0.211 53.1-4.31-2.45-7.21-5.24-10.3-9.06-0.477-0.576-0.954-1.15-1.45-1.74-3.57-4.32-7.07-8.68-10.6-13.1-2.91-3.65-5.93-7.21-8.93-10.8-0.81-0.976-1.62-1.95-2.45-2.96-0.767-0.92-1.53-1.84-2.32-2.79-1.66-2.16-2.9-4.1-3.99-6.59h-2c-0.268-0.804-0.536-1.61-0.812-2.44-0.588-1.27-0.588-1.27-1.19-2.56-0.99-0.33-1.98-0.66-3-1-1.8-2.09-3.47-4.18-5.12-6.38-0.983-1.28-1.97-2.56-2.95-3.84-0.49-0.639-0.981-1.28-1.49-1.94-3.38-4.36-6.92-8.6-10.4-12.9-0.527-0.652-1.05-1.3-1.6-1.98-2.33-2.95-2.33-2.95-5.4-5.02 0.33 25.4 0.66 50.8 1 77 2.97 0.99 5.94 1.98 9 3 0.33 0.99 0.66 1.98 1 3h-22c0.33-0.99 0.66-1.98 1-3 0.99-0.351 1.98-0.701 3-1.06 3.1-1.53 3.1-1.53 3.51-3.76 0.593-8.01 0.658-16 0.662-24 0.00322-1.52 0.00658-3.04 0.0101-4.55 0.00595-3.16 0.00784-6.33 0.00725-9.49-1.02e-4 -4.04 0.0136-8.09 0.0308-12.1 0.0111-3.13 0.0131-6.26 0.0126-9.38 0.00118-1.49 0.00557-2.98 0.0133-4.47 0.00984-2.08 0.00691-4.17 8.95e-4 -6.25 0.00143-1.18 0.00285-2.36 0.00432-3.58-0.256-3.39-1.04-6.11-2.25-9.27-2.31-0.33-4.62-0.66-7-1v-2zm84 46v14h1v-14h-1z" fill="#090909"/>
<path transform="translate(228,732)" d="m0 0c4.19 3.33 7.27 7.82 10.6 12 2.8 3.46 5.69 6.82 8.61 10.2 0.553 0.637 1.11 1.27 1.68 1.93 2.82 3.24 5.64 6.46 8.48 9.69 6.73 7.69 13.2 15.5 19.4 23.6 3.03 3.9 6.13 7.74 9.23 11.6 0.505 0.63 1.01 1.26 1.53 1.91 2.36 2.98 2.36 2.98 5.47 5.09-0.0613-8.48-0.139-17-0.236-25.5-0.0446-3.94-0.0839-7.88-0.111-11.8-0.0261-3.81-0.0666-7.61-0.117-11.4-0.0166-1.45-0.0282-2.9-0.0344-4.35 0.158-10.4 0.158-10.4-3.5-20-3.03-1.98-3.03-1.98-6-3v-1h25c-2 2-2 2-4.94 3.25-3.82 2.18-4.61 3.62-6.06 7.75-1.36 8.72-1.13 17.5-1.1 26.3 0.00187 1.67 0.00329 3.34 0.00429 5.01 0.00379 4.36 0.0136 8.73 0.0247 13.1 0.0103 4.46 0.0148 8.93 0.0198 13.4 0.0107 8.74 0.0277 17.5 0.0488 26.2-4.66-0.846-6.67-3.66-9.56-7.19-0.785-0.935-0.785-0.935-1.58-1.89-4.1-4.92-8.06-9.96-12-15-3.12-4.01-6.4-7.79-9.82-11.5-3.02-3.48-5.78-7.15-8.54-10.8-1.82-2.42-3.64-4.65-5.8-6.78-1.7-1.74-1.7-1.74-1.7-3.74h-2c-1.38-1.51-1.38-1.51-3-3.69-0.612-0.808-1.22-1.62-1.86-2.45-1.06-1.42-1.06-1.42-2.14-2.86-1.32-1.75-2.64-3.49-3.97-5.23-0.889-1.17-1.77-2.34-2.66-3.51-2.27-3.1-2.27-3.1-5.38-5.26v-2c-0.99 0.495-0.99 0.495-2 1-0.0232 8.91-0.0409 17.8-0.0518 26.7-0.00521 4.14-0.0123 8.27-0.0236 12.4-0.0109 3.99-0.0168 7.99-0.0194 12-0.00185 1.52-0.00545 3.05-0.0109 4.57-0.00728 2.14-0.00826 4.27-0.0078 6.41-0.00333 1.82-0.00333 1.82-0.00673 3.68 0.108 2.9 0.317 5.44 1.12 8.22 2.05 1.46 2.05 1.46 4.56 2.31 0.826 0.326 1.65 0.652 2.5 0.988 0.638 0.231 1.28 0.461 1.93 0.699v2h-24c1-3 1-3 3.88-4.69 3.12-1.31 3.12-1.31 6.12-1.31 0.0464-10.1 0.0819-20.2 0.104-30.3 0.0104-4.68 0.0246-9.36 0.0473-14 0.0217-4.52 0.0337-9.04 0.0389-13.6 0.00369-1.72 0.0109-3.45 0.0217-5.17 0.0145-2.42 0.0165-4.83 0.0156-7.25 0.00719-0.711 0.0144-1.42 0.0218-2.16-0.0167-4.02-0.657-6.91-2.25-10.6v-4c3.85-1.28 6.07-0.949 10 0z" fill="#090909"/>
<path transform="translate(442,731)" d="m0 0c7.08-0.0255 14.2-0.0429 21.2-0.0549 2.41-0.00501 4.81-0.0118 7.22-0.0205 3.47-0.0122 6.94-0.0178 10.4-0.0222 1.06-0.00516 2.13-0.0103 3.22-0.0156 6.38-4.72e-4 12.6 0.376 18.9 1.11 0.495 7.92 0.495 7.92 1 16-2-1-2-1-3.25-3.25-3.38-5.31-8.23-8.89-14.3-10.4-6.88-0.75-14-1.41-20.4 1.62-1.61 3.22-1.24 6.75-1.32 10.3-0.0208 0.818-0.0416 1.64-0.063 2.48-0.0655 2.62-0.124 5.24-0.183 7.86-0.0432 1.77-0.0868 3.55-0.131 5.32-0.107 4.35-0.208 8.7-0.307 13.1 3.56 0.0583 7.12 0.0937 10.7 0.125 1.01 0.0168 2.01 0.0335 3.05 0.0508 0.976 0.00645 1.95 0.0129 2.96 0.0195 0.895 0.0105 1.79 0.0209 2.71 0.0317 3.79-0.333 6.63-1.31 9.39-3.95 0.499-0.626 0.998-1.25 1.51-1.9 0.512-0.632 1.02-1.26 1.55-1.91 0.375-0.482 0.75-0.964 1.14-1.46 0.842 2.92 1.12 5.51 1.1 8.55-0.00322 0.844-0.00645 1.69-0.00977 2.56-0.0126 1.31-0.0126 1.31-0.0254 2.64-0.00451 0.888-0.00902 1.78-0.0137 2.69-0.0118 2.19-0.0282 4.37-0.0488 6.56-2-2-2-2-3.44-4.5-1.47-2.74-1.47-2.74-4.56-4.5-2.81-0.368-2.81-0.368-5.98-0.414-1.57-0.0534-1.57-0.0534-3.18-0.108-1.33-0.034-2.66-0.068-4.03-0.103-4.23-0.124-8.46-0.247-12.8-0.375v42c4.83 0.0619 9.65 0.124 14.6 0.188 1.51 0.0273 3.02 0.0546 4.58 0.0828 1.2 0.00749 2.41 0.015 3.65 0.0227 1.84 0.0236 1.84 0.0236 3.71 0.0476 3.83-0.38 6.19-1.29 9.44-3.34 1.54-2.44 2.73-4.58 3.88-7.19 0.307-0.654 0.614-1.31 0.93-1.98 0.749-1.6 1.47-3.22 2.2-4.83h1c-0.143 2.19-0.289 4.38-0.438 6.56-0.0812 1.22-0.162 2.44-0.246 3.69-0.304 3.6-0.806 7.17-1.32 10.7h-64v-2c0.71-0.133 1.42-0.266 2.15-0.402 0.919-0.177 1.84-0.353 2.79-0.535 1.37-0.261 1.37-0.261 2.78-0.527 2.24-0.312 2.24-0.312 3.29-1.54 0.1-2.64 0.136-5.26 0.129-7.9 0.00175-0.828 0.0035-1.66 0.00531-2.51 0.00442-2.75 0.00148-5.5-0.00189-8.25 6.73e-4 -1.9 0.00164-3.8 0.0029-5.71 0.00148-3.99-6.78e-4 -7.98-0.00534-12-0.0057-5.13-0.00242-10.3 0.00357-15.4 0.00361-3.93 0.00247-7.86-1.28e-4 -11.8-6.69e-4 -1.89 1.59e-4 -3.78 0.00248-5.67 0.00253-2.64-0.00131-5.28-0.0069-7.92 0.00202-0.79 0.00405-1.58 0.00613-2.39 0.315-3.55 0.315-3.55-1.14-6.51-1.68-0.393-3.37-0.741-5.06-1.06-0.919-0.177-1.84-0.353-2.79-0.535-0.71-0.133-1.42-0.266-2.15-0.402v-1z" fill="#0A0A0A"/>
<path transform="translate(855,731)" d="m0 0h4c0.208 0.548 0.415 1.1 0.629 1.66 4.01 10.3 8.67 20.3 14 30 3.96 7.24 7.42 14.7 10.9 22.2 0.282 0.609 0.564 1.22 0.855 1.85 2.72 5.88 5.43 11.8 8.05 17.7 0.351 0.779 0.701 1.56 1.06 2.36 0.621 1.38 1.23 2.77 1.82 4.17 2.54 5.6 5.99 8.82 11.6 11.4 0.701 0.227 1.4 0.454 2.12 0.688v2h-31v-2c2.97-0.99 5.94-1.98 9-3-1.04-4.15-2.51-7.99-4.12-11.9-0.306-0.748-0.612-1.5-0.928-2.27-2.52-6.02-5.43-11.7-8.66-17.4-1.29-2.44-1.29-2.44-1.29-4.44-11.9 0.33-23.8 0.66-36 1-5.62 11.2-11.2 22.4-13 35 0.915 0.133 1.83 0.266 2.77 0.402 1.19 0.177 2.38 0.353 3.6 0.535 1.18 0.174 2.37 0.348 3.59 0.527 3.04 0.535 3.04 0.535 5.04 1.54v2h-33v-2c1.95-0.358 3.91-0.716 5.86-1.07 10.2-4.41 15.8-25.9 19.8-35.7 1.11-2.67 2.22-5.35 3.32-8.02 0.262-0.633 0.524-1.27 0.794-1.92 1.73-4.17 3.53-8.31 5.38-12.4 1.09-2.44 2.11-4.9 3.12-7.38 2.37-5.74 4.85-11.4 7.36-17.1 1.22-2.76 2.37-5.48 3.32-8.34zm-3 15c-1.78 4.14-3.55 8.29-5.31 12.4-0.5 1.16-0.999 2.33-1.51 3.53-0.487 1.14-0.973 2.29-1.47 3.47-0.445 1.04-0.89 2.08-1.35 3.16-1.61 4.07-2.96 8.25-4.35 12.4 16.3 0.495 16.3 0.495 33 1-2.64-7.93-5.59-15.4-9-23-0.522-1.17-1.04-2.33-1.58-3.53-0.509-1.08-1.02-2.17-1.54-3.28-0.456-0.976-0.913-1.95-1.38-2.96-1.27-2.4-1.27-2.4-3.59-2.87-0.944-0.178-0.944-0.178-1.91-0.361z" fill="#090909"/>
<path transform="translate(340,731)" d="m0 0c7.81-0.0231 15.6-0.0409 23.4-0.0518 3.62-0.00523 7.25-0.0123 10.9-0.0236 3.49-0.0108 6.99-0.0168 10.5-0.0194 1.99-0.00276 3.98-0.0106 5.96-0.0184 1.2-7.55e-5 2.4-1.51e-4 3.64-2.29e-4 1.6-0.00333 1.6-0.00333 3.22-0.00673 2.4 0.12 2.4 0.12 3.4 1.12 0.237 2.69 0.422 5.36 0.562 8.06 0.0432 0.759 0.0864 1.52 0.131 2.3 0.106 1.88 0.207 3.76 0.307 5.64l-2 1c-0.371-1.05-0.743-2.1-1.12-3.19-2.09-4.89-5.38-7.2-9.81-10.1-7.01-2.55-15.3-2.42-22.6-1.12-2.73 1.17-2.73 1.17-3.64 3.99-0.957 3.79-1.08 7.07-1.05 11 0.00424 1.05 0.00424 1.05 0.00858 2.13 0.0111 2.22 0.0362 4.44 0.0617 6.66 0.01 1.51 0.0192 3.03 0.0273 4.54 0.0219 3.69 0.0564 7.39 0.0977 11.1 3.92 1.31 7.67 1.22 11.8 1.25 1.18 0.0309 1.18 0.0309 2.38 0.0625 6.03 0.04 11-0.718 15.6-4.92 0.574-0.783 0.574-0.783 1.16-1.58 0.681-0.928 1.36-1.86 2.06-2.81 0.842 2.92 1.12 5.51 1.1 8.55-0.00322 0.844-0.00645 1.69-0.00977 2.56-0.0126 1.31-0.0126 1.31-0.0254 2.64-0.00451 0.888-0.00902 1.78-0.0137 2.69-0.0118 2.19-0.0282 4.37-0.0488 6.56-2.12-2.62-4.13-5.2-6-8-3.18-1.06-5.64-1.2-8.98-1.32-1.05-0.0381-2.1-0.0762-3.18-0.115-1.33-0.0431-2.66-0.0862-4.03-0.131-4.23-0.144-8.46-0.289-12.8-0.438 0.495 20.3 0.495 20.3 1 41 5.92 1.18 11.5 1.22 17.5 1.25 1.13 0.0206 2.26 0.0412 3.42 0.0625 1.63 0.00773 1.63 0.00773 3.3 0.0156 0.989 0.00935 1.98 0.0187 3 0.0283 3.23-0.414 5.08-1.59 7.78-3.36h2c0.248-0.804 0.495-1.61 0.75-2.44 1.51-4.31 3.35-8.42 5.25-12.6h1c-0.142 2.35-0.289 4.71-0.438 7.06-0.122 1.97-0.122 1.97-0.246 3.97-0.293 3.67-0.796 7.32-1.32 11h-64v-2c0.71-0.133 1.42-0.266 2.15-0.402 0.919-0.177 1.84-0.353 2.79-0.535 1.37-0.261 1.37-0.261 2.78-0.527 2.24-0.312 2.24-0.312 3.29-1.54 0.106-2.57 0.147-5.11 0.145-7.69 0.00336-0.805 0.00672-1.61 0.0102-2.44 0.00954-2.67 0.0115-5.35 0.0125-8.02 0.00321-1.85 0.00657-3.7 0.0101-5.56 6e-3 -3.89 0.00784-7.78 0.00725-11.7-1.02e-4 -4.99 0.0135-9.98 0.0308-15 0.0111-3.83 0.0131-7.66 0.0126-11.5 0.00118-1.84 0.00562-3.68 0.0133-5.52 0.00977-2.57 0.00693-5.14 8.95e-4 -7.71 0.00562-0.764 0.0112-1.53 0.017-2.31-0.0225-3.76-0.121-5.42-2.26-8.63-2.19-0.794-2.19-0.794-4.62-1.19-1.23-0.238-1.23-0.238-2.48-0.48-0.94-0.164-0.94-0.164-1.9-0.332v-1z" fill="#090909"/>
<path transform="translate(716,731)" d="m0 0c7.66-0.0231 15.3-0.0409 23-0.0518 3.56-0.00522 7.11-0.0123 10.7-0.0236 4.09-0.0129 8.17-0.0178 12.3-0.0222 1.92-0.00774 1.92-0.00774 3.88-0.0156 1.18-7.55e-5 2.36-1.51e-4 3.58-2.29e-4 1.57-0.00333 1.57-0.00333 3.16-0.00673 2.48 0.12 2.48 0.12 4.48 1.12-0.114 2.29-0.241 4.58-0.375 6.88-0.0696 1.28-0.139 2.55-0.211 3.87-0.414 3.26-0.414 3.26-2.41 5.26-0.504-1.29-1-2.58-1.5-3.88-0.278-0.719-0.557-1.44-0.844-2.18-0.656-1.95-0.656-1.95-0.656-3.95-0.784-0.309-1.57-0.619-2.38-0.938-2.62-1.06-2.62-1.06-4.62-2.06-2.35-0.235-4.71-0.414-7.06-0.562-1.01-0.0637-1.01-0.0637-2.04-0.129-4.98-0.297-9.92-0.396-14.9-0.309-2.17 4.37-2.26 8.37-2.2 13.1 0.00424 1.15 0.00424 1.15 0.00858 2.33 0.0111 2.45 0.0362 4.89 0.0617 7.34 0.01 1.66 0.0192 3.33 0.0273 4.99 0.022 4.07 0.0565 8.13 0.0977 12.2 4.8 1.38 9.54 1.22 14.5 1.25 0.95 0.0206 1.9 0.0412 2.88 0.0625 1.37 0.00773 1.37 0.00773 2.78 0.0156 1.25 0.014 1.25 0.014 2.53 0.0283 2.87-0.441 4.21-1.4 6.32-3.36 1.27-2.58 1.27-2.58 2-5h1c-0.33 7.59-0.66 15.2-1 23-2-2-2-2-2.25-3.94-0.622-2.38-0.622-2.38-3.5-3.75-8.64-3.49-16.5-2.77-26.2-3.31 0.495 20.3 0.495 20.3 1 41 4.47 1.49 7.37 2.3 11.9 2.62 0.967 0.0748 1.93 0.15 2.93 0.227 1.09 0.0735 1.09 0.0735 2.2 0.148v2h-39v-2c4.95-0.99 4.95-0.99 10-2 0.0231-11 0.0409-22.1 0.0518-33.1 0.00523-5.13 0.0123-10.3 0.0236-15.4 0.0108-4.95 0.0168-9.89 0.0194-14.8 0.00185-1.89 0.00547-3.78 0.0109-5.67 0.00722-2.64 0.00826-5.28 0.0078-7.92 0.0036-0.788 0.00719-1.58 0.0109-2.39 0.0766-3.95 0.0766-3.95-1.12-7.64-2.12-0.687-2.12-0.687-4.56-1.12-0.826-0.168-1.65-0.335-2.5-0.508-0.638-0.121-1.28-0.242-1.93-0.367v-1z" fill="#080808"/>
<path transform="translate(973 731)" d="m0 0c1.02-0.0161 2.05-0.0322 3.1-0.0488 5.55-0.00359 9.7 0.149 14.5 3.36 3.69 5.1 3.1 12 3 18-2-2-2-2-3.69-5.12-3.02-5.35-6.64-10.4-12.1-13.4-6.85-1.07-13.3-1.71-19.2 2.5-4.01 5.21-5.33 9.27-5.3 15.7 0.45 3.43 2.21 5.61 4.3 8.29v2c0.855 0.389 0.855 0.389 1.73 0.785 2.48 1.32 4.47 2.88 6.65 4.65 3.41 2.7 6.66 4.75 10.6 6.56 8.95 4.55 16 11.7 20 21 1.05 7.45 0.932 14.6-3.34 21-6.52 7.72-13.7 10.9-23.7 12-7.71 0.124-17.3-0.264-23.6-5.29-3.66-4.52-3.77-9.46-4.01-15-0.0387-0.741-0.0773-1.48-0.117-2.24-0.0936-1.81-0.177-3.63-0.258-5.44 3.48 1.74 4.6 6.18 6.17 9.63 3.05 6.41 7.08 10.8 13.8 13.4 6.82 1.7 12.6 0.756 19-2 3.65-2.45 3.65-2.45 6-6 0.123-2.1 0.176-4.21 0.188-6.31 0.0142-1.13 0.0284-2.26 0.043-3.43-0.402-5.7-2.43-8.85-6.23-13-0.701-0.779-1.4-1.56-2.12-2.36-1.74-1.96-1.74-1.96-3.88-2.89v-2c-0.784-0.186-1.57-0.371-2.38-0.562-5.13-2.03-9.2-5.19-13.6-8.44-0.741-0.499-1.48-0.998-2.25-1.51-5.68-3.92-9.46-8.4-11.6-15.1-0.513-6.67-0.448-12.5 2.81-18.4 7.71-8.67 14.2-10.3 25.4-10.3z" fill="#090909"/>
<path transform="translate(1556 733)" d="m0 0c3.27 2.88 3.8 4.69 4.61 8.92 0.236 1.14 0.472 2.27 0.715 3.44 0.348 3 0.348 3-0.652 6-0.447-0.664-0.895-1.33-1.36-2.01-3.91-5.81-3.91-5.81-8.58-11-1.02-0.99-1.02-0.99-2.06-2v-2c-7.23-1.56-14.8-1.64-22 0-0.33 0.99-0.66 1.98-1 3h-2c-2.38 6.69-3.52 14.1-0.875 20.9 1.61 1.83 3.19 3.27 5.06 4.81 0.928 0.763 1.86 1.53 2.81 2.31v2c0.684 0.242 1.37 0.485 2.07 0.734 3.48 1.51 6.58 3.44 9.74 5.52 0.618 0.403 1.24 0.807 1.87 1.22 1.78 1.17 3.55 2.35 5.31 3.53 0.83 0.554 1.66 1.11 2.52 1.68 5.35 3.78 9.37 7.97 11.5 14.3 0.121 2.46 0.175 4.92 0.188 7.38 0.0142 1.31 0.0284 2.61 0.043 3.96-0.436 6.93-3.5 10.9-8.23 15.7-6.89 5.9-15.8 7.38-24.7 6.88-6.69-0.738-14.4-1.84-19.3-6.88-0.954-2.76-1.38-5.55-1.81-8.44-0.133-0.764-0.267-1.53-0.404-2.31-0.616-3.78-0.902-6.53 0.217-10.2 2.74 1.37 2.76 2.71 3.75 5.56 2.37 6.14 5.42 11.3 10.7 15.3 6.81 2.99 12.3 3.62 19.6 2.12 3.35-1.38 3.35-1.38 6-3 0.99-0.33 1.98-0.66 3-1 2.75-7.7 2.36-15.5-0.844-23.1-4.4-7.42-12.6-11.5-19.7-15.9-8.96-5.51-17.3-11-20.1-21.7-0.956-6.44-0.163-11.6 3.28-17.1 4.47-5.97 8.49-9.05 15.9-10.6 8.14-1.07 17.3-1.69 24.8 2.02z" fill="#090909"/>
<path transform="translate(13,731)" d="m0 0h28c-2.76 2.76-5.21 2.58-9 3 1.09 8.54 4.34 15.5 8.19 23.1 1.19 2.4 2.37 4.8 3.55 7.2 0.567 1.15 1.13 2.3 1.72 3.48 2.52 5.18 4.8 10.5 7.06 15.7 1.51 3.49 3.11 6.94 4.74 10.4 2.31 4.94 4.16 9.85 5.75 15.1h2c2.33-2.66 3.73-5.38 5.05-8.64 0.366-0.898 0.731-1.8 1.11-2.72 0.381-0.953 0.761-1.91 1.15-2.89 0.398-0.983 0.796-1.97 1.21-2.98 2.57-6.39 5.02-12.8 7.38-19.3 1.53-4.12 3.27-8.09 5.16-12.1 3.68-7.76 7.94-16.8 7.94-25.4-3.63-0.99-7.26-1.98-11-3v-1h27c-3 2-3 2-5.03 2.91-6.13 3.41-8.84 12.9-11.4 19.1-0.388 0.916-0.775 1.83-1.17 2.77-2.85 6.8-5.5 13.7-8 20.6-1.29 3.39-2.72 6.67-4.21 9.98-2.52 5.72-4.86 11.5-7.24 17.3-0.798 1.94-1.6 3.87-2.39 5.81-0.722 1.75-1.44 3.5-2.16 5.25-1.43 3.45-2.9 6.88-4.38 10.3-1.82-0.18-1.82-0.18-4-1-1.46-2.2-1.46-2.2-2.81-5.12-0.509-1.08-1.02-2.17-1.54-3.28-0.543-1.19-1.09-2.37-1.64-3.59-0.598-1.26-1.2-2.52-1.8-3.78-2.55-5.37-5.07-10.7-7.2-16.3-1.57-4.07-3.46-7.93-5.44-11.8-2.11-4.13-4.09-8.26-5.81-12.6-4.07-10.1-8.99-19.8-13.8-29.6-0.326-0.737-0.652-1.47-0.988-2.23-1.45-2.54-3.31-2.91-6.01-3.77v-1z" fill="#090909"/>
<path transform="translate(626,729)" d="m0 0c-0.33 8.25-0.66 16.5-1 25-2-3-2-3-2.75-5.69-2.1-5.56-5.92-11.4-11.2-14.3-3.03-0.435-6.01-0.419-9.06-0.375-0.815-0.0116-1.63-0.0232-2.47-0.0352-1.18 0.0058-1.18 0.0058-2.38 0.0117-0.713 0.00338-1.43 0.00677-2.16 0.0103-2.63 0.529-3.33 1.22-4.93 3.39-0.587 3.32-0.587 3.32-0.681 7.15-0.0332 0.709-0.0663 1.42-0.1 2.15-0.331 7.79-0.345 15.6-0.316 23.4 0.00187 1.52 0.00329 3.05 0.00429 4.57 0.00376 3.95 0.0135 7.9 0.0247 11.9 0.0104 4.06 0.0148 8.11 0.0198 12.2 0.0106 7.92 0.0282 15.8 0.0488 23.7 4.29 0.33 8.58 0.66 13 1v2h-37v-2c6.43-0.495 6.43-0.495 13-1 0.0231-10.9 0.0409-21.8 0.0518-32.7 0.00522-5.06 0.0123-10.1 0.0236-15.2 0.0108-4.88 0.0168-9.76 0.0194-14.6 0.00185-1.86 0.00546-3.73 0.0109-5.59 0.00724-2.61 0.00826-5.21 0.0078-7.82 0.00539-1.16 0.00539-1.16 0.0109-2.35-0.00614-3.17-0.113-5.67-1.12-8.7-4.99-2.5-14-1.75-19.4-0.398-2 0.827-2 0.827-4.59 2.4-0.673 0.275-1.35 0.549-2.04 0.832-3.63 2.16-4.58 6.34-5.96 10.2-0.76 2.86-0.76 2.86-1 5-0.66-0.33-1.32-0.66-2-1v-21h77c1.24-0.495 1.24-0.495 2.5-1 2.5-1 2.5-1 4.5-1z" fill="#090909"/>
<path transform="translate(683,512)" d="m0 0c0.99 1.49 0.99 1.49 2 3 0.66-0.66 1.32-1.32 2-2-0.515 4.53-1.58 7.42-4.12 11.2-0.959 1.44-0.959 1.44-1.94 2.91-0.959 1.44-0.959 1.44-1.94 2.91-0.773 1.28-0.773 1.28-1.56 2.59-4.89 8.12-10.8 15.3-16.9 22.5-2.09 2.53-4.12 5.11-6.17 7.68-11.6 14.1-26 27.9-44.8 31.1-7.18 0.236-16.2-2.07-21.6-6.91-6.94-7.64-11.9-16.2-15-26 0.33-0.66 0.66-1.32 1-2 0.866 0.959 0.866 0.959 1.75 1.94 2.02 2.18 2.02 2.18 4.31 2.56 2.7 0.698 3.46 2.22 4.94 4.5v-1c3.47-0.495 3.47-0.495 7-1 0.33-3.96 0.66-7.92 1-12 1.66 3.32 2.52 6 3.29 9.59 1.85 8.52 4.09 16.3 11.7 21.4 10.4 0.815 18.3-5.88 25.8-12.2 3.33-2.88 6.29-5.87 9.03-9.3 1.89-2.34 4.09-4.38 6.21-6.5 8.94-9.5 16.1-20 23-31 3.29-5.19 6.44-9.85 11-14z" fill="#090909"/>
<path transform="translate(1034 425)" d="m0 0c0.804 0.402 0.804 0.402 1.62 0.812-0.512 4.48-2.15 6.58-5 10-0.92 1.17-0.92 1.17-1.86 2.36-10.3 13-21 23-34.6 32.5-1.38 1-2.69 2.09-3.99 3.19-3.33 2.52-6.85 4.16-10.6 5.88-1.14 0.523-1.14 0.523-2.31 1.06-1.52 0.693-3.05 1.38-4.58 2.07-1.67 0.762-3.31 1.57-4.95 2.39-6.92 3.29-14.1 4.82-21.6 6.36-1.04 0.219-2.09 0.439-3.17 0.665-10 1.95-19.4 2.46-29.3-0.29-1.01-0.272-1.01-0.272-2.05-0.55-1.99-0.534-3.97-1.09-5.95-1.64-6.12-1.63-12.1-3.06-18.4-3.88-7.27-1.03-13.8-3.52-20.6-6.12-2-0.677-4-1.35-6-2v-2c-0.722-0.144-1.44-0.289-2.19-0.438-1.84-0.368-3.67-0.763-5.5-1.19-2.33-0.609-2.33-0.609-4.31 0.625-0.625-2.38-0.625-2.38-1-5 0.66-0.66 1.32-1.32 2-2 0.562 0.28 1.12 0.559 1.7 0.848 34.2 16.3 73.1 23 110 12.1 18.1-6.5 33.6-18.8 47.4-31.9 0.732-0.691 1.46-1.38 2.22-2.09 3.77-3.65 7.12-7.5 10.4-11.6 8.46-10.5 8.46-10.5 12.8-10.1z" fill="#000100"/>
<path transform="translate(1033,731)" d="m0 0h34c-3.69 2.46-6.7 3.01-11 4-1.28 3.91-1.13 7.83-1.11 11.9-1.46e-4 0.791-2.92e-4 1.58-4.43e-4 2.4 6.96e-4 2.61 0.00847 5.22 0.0163 7.82 0.00187 1.81 0.00329 3.62 0.00429 5.43 0.00382 4.76 0.0136 9.52 0.0247 14.3 0.0102 4.86 0.0148 9.72 0.0198 14.6 0.0107 9.53 0.0278 19.1 0.0488 28.6 4.02 1.71 7.66 2.49 12 3v2h-34v-2c4.95-0.99 4.95-0.99 10-2 0.154-10.5 0.302-20.9 0.443-31.4 0.0656-4.86 0.133-9.71 0.205-14.6 0.0696-4.69 0.134-9.38 0.195-14.1 0.024-1.79 0.05-3.57 0.0778-5.36 0.0388-2.51 0.0707-5.01 0.101-7.52 0.0129-0.736 0.0259-1.47 0.0392-2.23 0.0416-4.08-0.261-7.89-1.06-11.9-3.3-0.66-6.6-1.32-10-2v-1z" fill="#0A0A0A"/>
<path transform="translate(973 123)" d="m0 0c3.51 3.1 5.77 6.74 8.04 10.8 0.379 0.661 0.758 1.32 1.15 2 5.24 9.74 6.4 19.2 6.35 30.1-0.00209 1.3-0.00419 2.61-0.00635 3.95-0.139 12.2-0.53 28.5-7.49 38.9 0.525-5.03 1.11-10 2-15-0.66-0.33-1.32-0.66-2-1v2h-4c0.144-0.842 0.289-1.68 0.438-2.55 1.37-9.14 1.78-18.1 1.81-27.4 0.00902-1.15 0.018-2.3 0.0273-3.48-0.0289-8.3-0.421-16.2-4.71-23.5-0.617-1.08-0.617-1.08-1.25-2.18-1.25-1.99-1.25-1.99-2.98-3.58-1.34-1.37-1.34-1.37-1.34-3.37-0.681-0.268-1.36-0.536-2.06-0.812-2.11-0.853-4.19-1.78-6.25-2.75-8.03-3.13-13.8-2.74-21.7 0.562-3.79 2.47-6.27 5.42-9 9-0.66 0.66-1.32 1.32-2 2-0.495-4.95-0.495-4.95-1-10-0.99-0.33-1.98-0.66-3-1 0.66 0.66 1.32 1.32 2 2v3h-3c-0.33 0.66-0.66 1.32-1 2-0.681-0.99-0.681-0.99-1.38-2-0.536-0.66-1.07-1.32-1.62-2h-2c-0.258 0.597-0.516 1.19-0.781 1.81-1.32 2.37-2.61 3.58-4.72 5.25-2.44 1.95-3.72 3.27-5.5 5.94-0.66-0.33-1.32-0.66-2-1 16.9-20.4 44.2-35.4 69-17.8z" fill="#090909"/>
<path transform="translate(140,731)" d="m0 0h33c-3.28 2.19-6.21 3-10 4-0.92 4.67-1.14 9.19-1.11 13.9-1.46e-4 0.771-2.92e-4 1.54-4.43e-4 2.34 6.93e-4 2.53 0.00846 5.06 0.0163 7.6 0.00187 1.76 0.00329 3.53 0.00429 5.29 0.00381 4.63 0.0136 9.25 0.0247 13.9 0.0103 4.73 0.0148 9.45 0.0198 14.2 0.0107 9.26 0.0278 18.5 0.0488 27.8 3.64 1.98 6.88 2.53 11 3v2h-33v-2c3.63-0.99 7.26-1.98 11-3 0.0463-10.8 0.0819-21.5 0.104-32.3 0.0104-5 0.0246-10 0.0473-15 0.0217-4.82 0.0337-9.65 0.0389-14.5 0.0037-1.84 0.0109-3.68 0.0217-5.53 0.0145-2.58 0.0165-5.15 0.0156-7.73 0.00719-0.765 0.0144-1.53 0.0218-2.32-0.0147-3.76-0.106-5.43-2.25-8.64-2.19-0.794-2.19-0.794-4.62-1.19-1.23-0.238-1.23-0.238-2.48-0.48-0.94-0.164-0.94-0.164-1.9-0.332v-1z" fill="#0A0A0A"/>
<path transform="translate(1170,731)" d="m0 0h34c-3.68 1.84-7.05 2.94-11 4-1.06 4.31-1.14 8.5-1.11 12.9-1.46e-4 0.781-2.92e-4 1.56-4.43e-4 2.37 6.94e-4 2.57 0.00846 5.14 0.0163 7.71 0.00187 1.79 0.00329 3.57 0.00429 5.36 0.00381 4.69 0.0136 9.39 0.0247 14.1 0.0102 4.79 0.0148 9.59 0.0198 14.4 0.0107 9.4 0.0278 18.8 0.0488 28.2 4.02 1.71 7.66 2.49 12 3v2h-34v-2c0.71-0.121 1.42-0.242 2.15-0.367 0.919-0.168 1.84-0.335 2.79-0.508 0.917-0.162 1.83-0.325 2.78-0.492 0.754-0.209 1.51-0.418 2.29-0.633 1.58-3.16 1.13-6.56 1.11-10 1.46e-4 -0.829 2.92e-4 -1.66 4.43e-4 -2.51-6.98e-4 -2.75-0.00849-5.5-0.0163-8.25-0.00186-1.9-0.00329-3.81-0.00429-5.71-0.00382-5.01-0.0137-10-0.0247-15-0.0102-5.11-0.0148-10.2-0.0198-15.3-0.0107-10-0.0278-20.1-0.0488-30.1-0.71-0.049-1.42-0.098-2.15-0.148-0.919-0.0748-1.84-0.15-2.79-0.227-0.917-0.0696-1.83-0.139-2.78-0.211-1.13-0.205-1.13-0.205-2.29-0.414-0.33-0.66-0.66-1.32-1-2z" fill="#0A0A0A"/>
<path transform="translate(1309,738)" d="m0 0h4v2c0.825 0.206 1.65 0.413 2.5 0.625 10 3.93 17.1 12.5 22 21.9 1.5 3.5 1.5 3.5 1.5 5.5h2c3.41 10.2-0.0183 22.3-4.27 31.9-1.9 3.54-3.8 6.38-6.73 9.15-0.557 0.557-1.11 1.11-1.69 1.69-0.433 0.433-0.866 0.866-1.31 1.31-1.06-3.28-0.906-5.56-0.223-8.92 0.184-0.944 0.367-1.89 0.557-2.86 0.199-0.98 0.398-1.96 0.604-2.97 3.14-15.5 2.89-31.1-5.34-45.1-1.58-2.3-1.58-2.3-3.79-4.37-1.81-1.83-1.81-1.83-1.81-3.83-0.578-0.247-1.15-0.495-1.75-0.75-2.55-1.42-4.27-3.13-6.25-5.25z" fill="#090909"/>
<path transform="translate(855,731)" d="m0 0h4c0.495 2.97 0.495 2.97 1 6h-3c-0.433 0.959-0.433 0.959-0.875 1.94-1.12 2.06-1.12 2.06-3.12 3.06-0.463 2.12-0.921 4.25-1.35 6.38-1.13 4.59-3.1 8.82-5.02 13.1-0.387 0.886-0.773 1.77-1.17 2.68-1.14 2.61-2.3 5.21-3.45 7.82-1.32 2.97-2.64 5.94-4 9h26v3c-13.4 0.495-13.4 0.495-27 1-5.62 11.2-11.2 22.4-13 35 0.915 0.133 1.83 0.266 2.77 0.402 1.19 0.177 2.38 0.353 3.6 0.535 1.18 0.174 2.37 0.348 3.59 0.527 3.04 0.535 3.04 0.535 5.04 1.54v2h-33v-2c1.95-0.358 3.91-0.716 5.86-1.07 10.2-4.41 15.8-25.9 19.8-35.7 1.11-2.67 2.22-5.35 3.32-8.02 0.262-0.633 0.524-1.27 0.794-1.92 1.73-4.17 3.53-8.31 5.38-12.4 1.09-2.44 2.11-4.9 3.12-7.38 2.37-5.74 4.85-11.4 7.36-17.1 1.22-2.76 2.37-5.48 3.32-8.34z" fill="#020302"/>
<path transform="translate(1377,731)" d="m0 0c2.54-0.136 5.08-0.234 7.62-0.312 0.713-0.0419 1.43-0.0838 2.16-0.127 4.22-0.0967 5.88 0.214 9.5 2.67 2.34 2.39 4.49 4.74 6.53 7.39 1.02 1.31 1.02 1.31 2.06 2.64 0.703 0.904 1.41 1.81 2.13 2.74 4.47 5.6 9.01 11.1 13.9 16.3 4.22 4.58 8.07 9.34 11.9 14.3 3.9 5.03 8 9.85 12.2 14.6 3 3.43 5.54 6.98 8.06 10.8 1.6 1.82 3.24 3.55 4.93 5.29 1.07 1.71 1.07 1.71 0.742 3.92-0.331 0.886-0.331 0.886-0.668 1.79-0.66-0.66-1.32-1.32-2-2-0.99 0.495-0.99 0.495-2 1-0.66-1.65-1.32-3.3-2-5h-2c-1.01-1.66-2.01-3.33-3-5-1.53-1.79-3.09-3.53-4.7-5.25-1.3-1.75-1.3-1.75-1.73-3.84-0.282-0.946-0.282-0.946-0.57-1.91-1.32-0.685-2.66-1.35-4-2-2.07-2.35-2.07-2.35-4.12-5.06-2.48-3.51-2.48-3.51-5.88-5.94-0.33-0.99-0.66-1.98-1-3-1.17-1.14-2.35-2.28-3.54-3.4-2.39-2.61-4.17-5.61-6.04-8.61-1.44-2.25-1.44-2.25-4.43-3.99-0.495-1.49-0.495-1.49-1-3-0.433-0.413-0.866-0.825-1.31-1.25-1.69-1.75-1.69-1.75-3.5-5.12-2.13-3.88-4.69-5.95-8.19-8.62-0.459-0.527-0.918-1.05-1.39-1.6-2.1-1.83-3.55-1.89-6.3-2.09-0.808-0.0657-1.62-0.131-2.45-0.199-0.615-0.0374-1.23-0.0748-1.86-0.113-0.33-0.99-0.66-1.98-1-3-2.31-0.33-4.62-0.66-7-1v-2z" fill="#000100"/>
<path transform="translate(228,732)" d="m0 0c4.19 3.33 7.27 7.82 10.6 12 2.8 3.46 5.69 6.82 8.61 10.2 0.553 0.637 1.11 1.27 1.68 1.93 2.82 3.24 5.64 6.46 8.48 9.69 6.73 7.69 13.2 15.5 19.4 23.6 3.03 3.9 6.13 7.74 9.23 11.6 0.505 0.63 1.01 1.26 1.53 1.91 2.36 2.98 2.36 2.98 5.47 5.09v3h-6c-0.248-0.577-0.495-1.15-0.75-1.75-1.89-3.4-4.65-5.7-7.5-8.31-1.75-1.94-1.75-1.94-1.75-4.94h-2c-1.37-1.83-1.37-1.83-2.88-4.25-2.13-3.31-4.18-6.1-7.12-8.75-2.25-2.06-2.25-2.06-4-4v-3c-0.574-0.228-1.15-0.456-1.74-0.691-2.87-1.66-4.41-3.64-6.45-6.25-0.695-0.875-1.39-1.75-2.11-2.65-1.71-2.41-1.71-2.41-2.71-5.41-1.64-1.69-3.31-3.35-5-5-1.12-1.22-2.22-2.45-3.31-3.69-0.512-0.581-1.02-1.16-1.55-1.76-1.14-1.55-1.14-1.55-1.14-3.55h-2c-1.35-1.99-2.69-3.99-4-6-0.66-0.33-1.32-0.66-2-1v-3h-10c-0.33-1.65-0.66-3.3-1-5 3.85-1.28 6.07-0.949 10 0z" fill="#000100"/>
<path transform="translate(626,729)" d="m0 0c-0.33 8.25-0.66 16.5-1 25-2-3-2-3-2.75-5.69-2.1-5.56-5.92-11.4-11.2-14.3-3.03-0.435-6.01-0.419-9.06-0.375-0.815-0.0116-1.63-0.0232-2.47-0.0352-1.18 0.0058-1.18 0.0058-2.38 0.0117-0.713 0.00338-1.43 0.00677-2.16 0.0103-2.45 0.494-3.24 1.6-4.93 3.39-2.81 0.398-2.81 0.398-6 0.375-1.05 0.00773-2.1 0.0155-3.19 0.0234-2.81-0.398-2.81-0.398-4.23-1.9-2.94-2.8-7.02-1.89-10.9-1.85-5.02 0.14-8.4 0.865-12.7 3.35-0.673 0.275-1.35 0.549-2.04 0.832-3.63 2.16-4.58 6.34-5.96 10.2-0.76 2.86-0.76 2.86-1 5-0.66-0.33-1.32-0.66-2-1v-21h77c1.24-0.495 1.24-0.495 2.5-1 2.5-1 2.5-1 4.5-1z" fill="#000100"/>
<path transform="translate(1191,748)" d="m0 0c0.33 23.8 0.66 47.5 1 72 4.26 1.71 7.51 2.47 12 3v2c-2.27 0.027-4.54 0.0464-6.81 0.0625-1.9 0.0174-1.9 0.0174-3.83 0.0352-3.36-0.0977-3.36-0.0977-6.36-1.1-1.14-2.29-1.15-3.64-1.21-6.18-0.0199-0.866-0.0399-1.73-0.0604-2.62-0.0167-0.943-0.0334-1.89-0.0506-2.86-0.0208-0.978-0.0416-1.96-0.063-2.96-0.0433-2.08-0.0844-4.16-0.123-6.25-0.0586-3.13-0.124-6.25-0.191-9.38-0.189-9.13-0.348-18.3-0.385-27.4-0.00548-1.3-0.011-2.6-0.0166-3.94 0.124-4.46 0.682-8.17 2.09-12.4 3-2 3-2 4-2z" fill="#000100"/>
<path transform="translate(853,252)" d="m0 0c1.37 3.82 0.68 7.07 0 11h-2c-0.0258 0.715-0.0516 1.43-0.0781 2.17-0.395 6.93-1.72 12.9-3.88 19.5-3.01 9.61-4.5 19.6-6.04 29.6-0.897 5.67-0.897 5.67-2 6.78-0.208 1.47-0.367 2.95-0.5 4.44-0.39 4.34-0.39 4.34-1.5 6.56-0.203 1.83-0.365 3.66-0.5 5.5-0.389 5.28-0.389 5.28-1.5 7.5 0.0319 1.98 0.0663 3.95 0.16 5.93-0.16 2.07-0.16 2.07-1.1 3.79-1.63 3.51-1.76 7.15-2.12 11-0.814 8.19-0.814 8.19-1.94 9.31-0.274 1.48-0.491 2.96-0.684 4.45-0.183 1.38-0.183 1.38-0.37 2.8-0.127 0.99-0.254 1.98-0.384 3-0.266 2.03-0.533 4.05-0.801 6.08-0.13 0.982-0.259 1.96-0.393 2.98-0.441 3.22-0.959 6.42-1.49 9.63-1.11 6.99-1.5 14-1.88 21.1h-2c-0.66 3.3-1.32 6.6-2 10h-1c-0.139-5.06 0.356-9.75 1.32-14.7 1.17-6.29 2.19-12.6 3.07-18.9 0.171-1.23 0.171-1.23 0.346-2.49 0.236-1.71 0.471-3.41 0.706-5.12 2.76-20 5.94-39.9 9.55-59.8 0.143-0.786 0.286-1.57 0.434-2.38 1.05-5.75 2.12-11.5 3.19-17.2 0.14-0.754 0.281-1.51 0.425-2.29 2.46-13.2 5.24-26.2 8.95-39.1 0.348-1.42 0.684-2.84 1-4.26 0.165-0.726 0.33-1.45 0.5-2.2 0.336-1.49 0.669-2.99 1-4.48 0.818-3.58 1.62-6.87 3.5-10.1z" fill="#090909"/>
<path transform="translate(715,437)" d="m0 0c0.33 0.99 0.66 1.98 1 3h2c0.33-0.99 0.66-1.98 1-3h1c0.269 5.43-0.582 9.85-2.38 15-0.258 0.759-0.516 1.52-0.782 2.3-3.67 10.5-8.24 20.6-12.8 30.7-0.518 1.19-1.04 2.39-1.57 3.62-0.472 0.786-0.944 1.57-1.43 2.38-3.69 0.875-3.69 0.875-7 1 1.2-5.11 2.59-7.91 6-12v-3c0.939-5.7 2.55-10.8 5-16l2 1c0.96-2.85 1.92-5.71 2.88-8.56 0.269-0.8 0.539-1.6 0.816-2.42 1.55-4.64 3-9.29 4.31-14z" fill="#000100"/>
<path transform="translate(1021,440)" d="m0 0c1.21 3.62 1.03 5.33 0 9-1.61 1.92-3.12 3.37-5 5-0.692 0.659-1.38 1.32-2.1 2-5.63 5.28-11.5 9.69-17.9 14-2.95 1.95-2.95 1.95-5.36 4.06-3.35 2.54-6.87 4.19-10.7 5.92-0.752 0.346-1.5 0.693-2.28 1.05-2.22 1.01-4.44 2.02-6.66 3.01-1.72 0.772-1.72 0.772-3.46 1.56-7.24 3.14-14.5 5.96-22.5 5.44 2-3 2-3 3.91-3.44 0.71-0.04 1.42-0.0799 2.15-0.121 1.3-0.144 2.6-0.289 3.94-0.438 0.33-0.66 0.66-1.32 1-2 1.81-0.51 3.65-0.933 5.5-1.31 5.92-1.41 10.3-3.54 15.5-6.69 1.17-0.658 2.35-1.31 3.53-1.96 0.624-0.347 1.25-0.693 1.89-1.05 1.23-0.686 2.47-1.37 3.71-2.05 3.47-1.96 6.2-3.99 8.87-6.94 3.67-3.89 3.67-3.89 7-5 0.577-0.722 1.15-1.44 1.75-2.19 2.32-2.9 4.79-5.03 7.64-7.39 1.83-1.62 3.17-3.46 4.61-5.43h2c0.186-0.959 0.186-0.959 0.375-1.94 0.206-0.681 0.413-1.36 0.625-2.06 0.66-0.33 1.32-0.66 2-1z" fill="#090909"/>
<path transform="translate(816,440)" d="m0 0 2 1c-0.33 1.32-0.66 2.64-1 4l2 1c-0.889 0.383-0.889 0.383-1.8 0.773-2.43 1.35-3.7 2.71-5.45 4.85-7.04 8.26-14.7 15.4-23.8 21.4h-2c-0.33 0.99-0.66 1.98-1 3-2.12 1.58-2.12 1.58-4.88 3.25-4.35 2.65-4.35 2.65-8.6 5.45-5.95 4.05-12.2 7.18-18.7 10.2-0.844 0.394-1.69 0.787-2.56 1.19-5.17 2.31-9.61 3.53-15.3 3.93 3.13-2.64 6.09-3.84 10-5v-2c2.64-0.33 5.28-0.66 8-1v-2c3.47-0.495 3.47-0.495 7-1 0.33-0.99 0.66-1.98 1-3 2.32-1.03 4.65-2.03 7-3 1.02-0.981 2.02-1.98 3-3 1.05-0.248 1.05-0.248 2.12-0.5 0.619-0.165 1.24-0.33 1.88-0.5 0.33-0.99 0.66-1.98 1-3 0.784-0.0825 1.57-0.165 2.38-0.25 2.77-0.478 2.77-0.478 3.94-2.81 0.227-0.639 0.454-1.28 0.688-1.94h3v-2h3c0.0825-0.619 0.165-1.24 0.25-1.88 0.75-2.12 0.75-2.12 2.75-3.25 0.66-0.289 1.32-0.577 2-0.875 0.33-0.66 0.66-1.32 1-2h2v-2c1.81-2.12 1.81-2.12 4-4h3c0.206-0.763 0.413-1.53 0.625-2.31 1.81-3.53 3.88-3.97 7.38-5.69 1.84-2.46 1.84-2.46 3-5 0.33-0.66 0.66-1.32 1-2z" fill="#0A0A0A"/>
<path transform="translate(679,516)" d="m0 0c1 3 1 3 0 6h-2c-0.186 0.866-0.186 0.866-0.375 1.75-0.631 2.27-1.51 4.18-2.62 6.25h-2c-0.371 1.05-0.371 1.05-0.75 2.12-1.42 3.26-3.22 5.95-5.25 8.88-2.96 4.27-2.96 4.27-5 9-1.33 0.667-2.67 1.33-4 2-0.33 0.99-0.66 1.98-1 3-1.64 1.69-3.31 3.35-5 5-0.888 1.03-1.76 2.07-2.62 3.12-1.73 2.1-3.42 4.01-5.38 5.88-0.516 0.557-1.03 1.11-1.56 1.69-1.44 1.31-1.44 1.31-3.44 1.31v3c-0.557 0.227-1.11 0.454-1.69 0.688-3.55 2.02-6.11 4.97-8.81 8-2.88 2.52-5.73 3.31-9.5 3.31v2c-2.37 1.18-3.87 1.13-6.5 1.12-0.794 0.00258-1.59 0.00516-2.41 0.00781-2.09-0.133-2.09-0.133-4.09-1.13-1.69-2.94-1.69-2.94-3-6 0.495-0.99 0.495-0.99 1-2 0.639 0.681 1.28 1.36 1.94 2.06 3.72 2.35 5.45 2.32 9.68 1.59 10.9-3.02 21.2-12.4 28.2-21.2 1.89-2.34 4.09-4.38 6.21-6.5 8.2-8.71 15-18.2 21.3-28.3 6.77-10.8 6.77-10.8 8.67-12.7z" fill="#000100"/>
<path transform="translate(83,731)" d="m0 0h27c-3 2-3 2-5.03 2.91-6.13 3.41-8.84 12.9-11.4 19.1-0.388 0.916-0.775 1.83-1.17 2.77-2.63 6.27-5.09 12.6-7.43 19-1.79 4.86-3.78 9.57-5.96 14.3-0.412 0.95-0.825 1.9-1.25 2.88-0.433 0.989-0.866 1.98-1.31 3-0.59 1.36-0.59 1.36-1.19 2.74-1.2 2.3-2.43 3.58-4.25 5.38-0.495 1.76-0.495 1.76-1 3.56-1 3.44-1 3.44-4 5.44 0-4.28 0.621-5.54 2.62-9.19 2.97-5.71 5.16-11.5 7.19-17.6 1.76-5.23 3.9-10.2 6.18-15.2 1.54-3.47 3.05-6.95 4.56-10.4 0.579-1.32 0.579-1.32 1.17-2.66 4.66-10.6 4.66-10.6 6.27-21.9-3.63-0.99-7.26-1.98-11-3v-1z" fill="#090909"/>
<path transform="translate(903,675)" d="m0 0c1.12 3.37 0.897 4.03-0.25 7.25-0.423 1.2-0.423 1.2-0.855 2.42-0.762 1.99-1.6 3.95-2.46 5.89-1.14 2.72-1.83 4.97-2.44 7.81-0.33 1.2-0.66 2.39-1 3.62-0.99 0.33-1.98 0.66-3 1-1.01 1.33-2.01 2.66-3 4h-2c-0.33 0.99-0.66 1.98-1 3-1.32 0.699-2.65 1.37-4 2l-1 2c-5.39 3.46-13.3 3.67-19.4 2.57-6.02-2.06-10.7-5.77-14-11.2-1.56-3.38-1.56-3.38-0.562-6.38 1.38 1.29 2.71 2.63 4 4v2c0.859 0.429 0.859 0.429 1.73 0.867 1.45 0.726 2.9 1.46 4.34 2.2 5.99 2.91 10.6 4.16 17.1 2.3 11.8-4.59 18.5-13.9 23.5-25.1 1.48-3.4 2.91-6.82 4.3-10.2z" fill="#000100"/>
<path transform="translate(953,754)" d="m0 0c2.25 2.69 3.88 4.65 5 8 1.31 0.712 2.65 1.37 4 2 1.48 1.12 2.94 2.27 4.38 3.44 3.41 2.7 6.66 4.75 10.6 6.56 8.78 4.46 16.4 11.7 20 21 0.188 3.88 0.188 3.88 0 7-2.64-3.13-3.84-6.09-5-10h-2c-1.03-0.974-2.02-1.98-3-3-4.63-4.06-4.63-4.06-10-7v-2c-0.638-0.193-1.28-0.387-1.93-0.586-1.24-0.391-1.24-0.391-2.5-0.789-1.24-0.383-1.24-0.383-2.5-0.773-2.07-0.852-2.07-0.852-3.07-2.85-0.758-0.451-1.52-0.902-2.3-1.37-5-3.02-9.81-7.48-11.4-13.2-0.266-2.47-0.266-2.47-0.266-6.41z" fill="#000100"/>
<path transform="translate(978,193)" d="m0 0c0.33 0.66 0.66 1.32 1 2h2v-2c0.99 0.33 1.98 0.66 3 1-4.03 26.4-4.03 26.4-10 37-1.49 0.495-1.49 0.495-3 1-0.33-0.66-0.66-1.32-1-2h-3c0.524-6.43 1.73-12 3.88-18.1 0.257-0.751 0.513-1.5 0.777-2.28 4.37-12.7 4.37-12.7 6.35-16.7z" fill="#010201"/>
<path transform="translate(1323 739)" d="m0 0c8.64 7.97 16.2 16.7 17 28.8-2.29-2.09-3.57-3.92-4.81-6.75-1.82-3.84-4.12-6.72-7.02-9.8-1.17-1.45-1.17-1.45-1.17-3.45-0.575-0.277-1.15-0.554-1.74-0.84-2.21-1.14-4.28-2.39-6.38-3.72-1.94-1.23-3.82-2.41-5.88-3.44v-2c-1.3 0.0928-1.3 0.0928-2.62 0.188-3.86-0.214-5.99-1.39-9.38-3.19-4.44-1.21-8.87-1.15-13.4-1.12-0.738-0.00387-1.48-0.00773-2.24-0.0117-4.22 0.0075-8.17 0.307-12.3 1.14 2-3 2-3 4.91-3.77 15.7-2.04 32.2-2.62 45.1 7.95z" fill="#000100"/>
<path transform="translate(1521,755)" d="m0 0c0.536 0.722 1.07 1.44 1.62 2.19 1.85 2.19 3.42 3.75 5.62 5.5 0.908 0.763 1.82 1.53 2.75 2.31v2c0.684 0.242 1.37 0.485 2.07 0.734 3.48 1.51 6.58 3.44 9.74 5.52 0.927 0.605 0.927 0.605 1.87 1.22 1.78 1.17 3.55 2.35 5.31 3.53 0.83 0.554 1.66 1.11 2.52 1.68 4.96 3.5 9.56 7.41 11 13.5 0.25 1.92 0.375 3.85 0.477 5.78-0.33-0.66-0.66-1.32-1-2h-2c-0.268-0.804-0.536-1.61-0.812-2.44-0.588-1.27-0.588-1.27-1.19-2.56-0.99-0.33-1.98-0.66-3-1-1.72-1.57-3.25-3.27-4.81-5-2.52-2.31-5.09-3.59-8.19-5v-2c-0.743-0.124-1.48-0.247-2.25-0.375-4.33-0.984-6.67-2.54-9.75-5.62-1.81-1.48-3.64-2.95-5.48-4.4-1.75-1.84-2.13-3.12-2.52-5.6h-2v-8z" fill="#000100"/>
<path transform="translate(812,509)" d="m0 0 2 1c0.153 37.7-0.238 75.3-1 113h-1c-1.82-16.4-2.32-32.6-2.25-49.1 0.00266-1.82 0.00266-1.82 0.00537-3.68 0.035-20.5 0.695-40.8 2.24-61.2z" fill="#0A0A0A"/>
<path transform="translate(942,800)" d="m0 0c3.48 1.74 4.6 6.18 6.17 9.63 3.05 6.41 7.08 10.8 13.8 13.4 6.82 1.7 12.6 0.76 19-2 2.68-1.84 4.71-3.71 7-6-0.491 6.51-0.491 6.51-2.68 8.62-9.25 5.49-20.9 5.13-31 2.74-3.87-1.18-6.69-2.14-9.29-5.36-2.29-4.31-2.42-8.54-2.62-13.3-0.0387-0.741-0.0773-1.48-0.117-2.24-0.0936-1.81-0.177-3.63-0.258-5.44z" fill="#000100"/>
<path transform="translate(340,731)" d="m0 0c7.81-0.0231 15.6-0.0409 23.4-0.0518 3.62-0.00523 7.25-0.0123 10.9-0.0236 3.49-0.0108 6.99-0.0168 10.5-0.0194 1.99-0.00276 3.98-0.0106 5.96-0.0184 1.2-7.55e-5 2.4-1.51e-4 3.64-2.29e-4 1.6-0.00333 1.6-0.00333 3.22-0.00673 2.4 0.12 2.4 0.12 3.4 1.12 0.237 2.69 0.422 5.36 0.562 8.06 0.0432 0.759 0.0864 1.52 0.131 2.3 0.106 1.88 0.207 3.76 0.307 5.64l-2 1c-0.371-1.05-0.743-2.1-1.12-3.19-2.09-4.89-5.38-7.2-9.81-10.1-7.63-2.78-17.6-3.01-25.1 0.25-0.33 0.33-0.66 0.66-1 1-1.98 0.151-3.96 0.222-5.94 0.25-1.08 0.0258-2.16 0.0516-3.28 0.0781-0.919-0.108-1.84-0.217-2.79-0.328-0.66-0.99-1.32-1.98-2-3-2.19-0.794-2.19-0.794-4.62-1.19-1.23-0.238-1.23-0.238-2.48-0.48-0.94-0.164-0.94-0.164-1.9-0.332v-1z" fill="#000100"/>
<path transform="translate(716,731)" d="m0 0c7.66-0.0231 15.3-0.0409 23-0.0518 3.56-0.00522 7.11-0.0123 10.7-0.0236 4.09-0.0129 8.17-0.0178 12.3-0.0222 1.92-0.00774 1.92-0.00774 3.88-0.0156 1.18-7.55e-5 2.36-1.51e-4 3.58-2.29e-4 1.57-0.00333 1.57-0.00333 3.16-0.00673 2.48 0.12 2.48 0.12 4.48 1.12-0.114 2.29-0.241 4.58-0.375 6.88-0.0696 1.28-0.139 2.55-0.211 3.87-0.414 3.26-0.414 3.26-2.41 5.26-0.504-1.29-1-2.58-1.5-3.88-0.278-0.719-0.557-1.44-0.844-2.18-0.656-1.95-0.656-1.95-0.656-3.95-0.784-0.309-1.57-0.619-2.38-0.938-2.62-1.06-2.62-1.06-4.62-2.06-2.35-0.235-4.71-0.414-7.06-0.562-1.01-0.0637-1.01-0.0637-2.04-0.129-4.98-0.297-9.92-0.396-14.9-0.309-0.33 0.99-0.66 1.98-1 3-1.96 0.0808-3.92 0.139-5.88 0.188-1.64 0.0522-1.64 0.0522-3.3 0.105-0.931-0.0967-1.86-0.193-2.82-0.293-0.66-0.99-1.32-1.98-2-3-2.19-0.794-2.19-0.794-4.62-1.19-1.23-0.238-1.23-0.238-2.48-0.48-0.94-0.164-0.94-0.164-1.9-0.332v-1z" fill="#000100"/>
<path transform="translate(1248,787)" d="m0 0c1.32 0.33 2.64 0.66 4 1 0.33 3.63 0.66 7.26 1 11h2c2.64 3.34 4.67 6.95 5.94 11 2 5.66 5.28 9.94 10.4 13 0.866 0.33 1.73 0.66 2.62 1-1.69 0.668-1.69 0.668-4 1-2.4-1.07-2.4-1.07-4.94-2.69-0.834-0.519-1.67-1.04-2.53-1.57-5.06-3.47-8.8-7-12.3-12.1-0.398-0.543-0.797-1.09-1.21-1.65-2.76-3.96-3.79-7.24-4.04-12 1-2 1-2 4-3-0.66-0.33-1.32-0.66-2-1 0.33-1.32 0.66-2.64 1-4z" fill="#090909"/>
<path transform="translate(442,731)" d="m0 0c7.08-0.0255 14.2-0.0429 21.2-0.0549 2.41-0.00501 4.81-0.0118 7.22-0.0205 3.47-0.0122 6.94-0.0178 10.4-0.0222 1.06-0.00516 2.13-0.0103 3.22-0.0156 6.38-4.72e-4 12.6 0.376 18.9 1.11 0.495 7.92 0.495 7.92 1 16-2-1-2-1-3.25-3.25-3.38-5.31-8.23-8.89-14.3-10.4-6.97-0.76-13.9-1.3-20.4 1.62-0.33 0.33-0.66 0.66-1 1-1.81 0.151-3.62 0.222-5.44 0.25-1.48 0.0387-1.48 0.0387-3 0.0781-0.847-0.108-1.69-0.217-2.57-0.328-0.66-0.99-1.32-1.98-2-3-2.42-0.798-2.42-0.798-5.12-1.19-1.37-0.238-1.37-0.238-2.76-0.48-0.699-0.11-1.4-0.219-2.12-0.332v-1z" fill="#000100"/>
<path transform="translate(1450,731)" d="m0 0h24c-3 2-3 2-5.08 2.38-2.06 0.43-2.06 0.43-2.95 2.29-1.96 6.22-2.44 12-2.48 18.5-0.018 1.03-0.0359 2.06-0.0544 3.12-0.0538 3.26-0.0879 6.52-0.121 9.78-0.0332 2.22-0.0677 4.45-0.104 6.67-0.0846 5.42-0.153 10.8-0.209 16.3-1.48 0.495-1.48 0.495-3 1-0.00365-0.581-0.00729-1.16-0.011-1.76-0.042-6.08-0.111-12.2-0.196-18.3-0.0281-2.27-0.0494-4.53-0.0635-6.8-0.0216-3.27-0.0683-6.54-0.12-9.81-0.00123-1-0.00246-2.01-0.00372-3.04-0.131-6.39-1.06-11.9-4.61-17.3-2.56-1.65-2.56-1.65-5-2v-1z" fill="#0A0A0A"/>
<path transform="translate(1509,800)" d="m0 0c0.99 0.33 1.98 0.66 3 1 0.957 2 0.957 2 1.81 4.56 2.32 6.17 5.35 11.3 10.6 15.3 6.03 2.65 10.9 3.33 17.5 2.75 0.684-0.0567 1.37-0.113 2.07-0.172 1.66-0.14 3.33-0.295 4.99-0.453-2.14 3.2-2.33 3.45-5.81 4.25-9.99 1.92-20.3 0.216-29.3-4.32-2.89-2.99-3.04-6.34-3.61-10.4-0.188-1.15-0.188-1.15-0.379-2.31-0.555-3.5-0.871-6.68-0.871-10.2z" fill="#000100"/>
<path transform="translate(974 731)" d="m0 0c1.01-0.00709 2.02-0.0142 3.06-0.0215 5.49 0.0468 9.61 0.313 14.3 3.46 3.69 5.1 3.1 12 3 18-2-2-2-2-3.69-5.12-3.02-5.35-6.64-10.4-12.1-13.4-5.71-0.896-10.9-1.18-16.5 0.5-3.21 2.39-4.52 4.89-6.45 8.32-1.23 1.68-1.23 1.68-4.05 2.18-0.722-0.165-1.44-0.33-2.19-0.5-0.66 1.98-1.32 3.96-2 6h-1c0.122-5.86 1.93-8.72 5.72-13.1 6.88-5.73 13.1-6.51 21.9-6.33z" fill="#000100"/>
<path transform="translate(405,803)" d="m0 0h1c-0.142 2.35-0.289 4.71-0.438 7.06-0.0812 1.31-0.162 2.62-0.246 3.97-0.293 3.67-0.796 7.32-1.32 11h-41c-0.33-1.32-0.66-2.64-1-4 1.32 0.0236 1.32 0.0236 2.67 0.0476 3.29 0.0513 6.58 0.0888 9.87 0.117 1.42 0.015 2.84 0.0355 4.26 0.0615 2.05 0.0366 4.1 0.0535 6.14 0.0667 1.23 0.0157 2.46 0.0314 3.73 0.0476 3.59-0.368 5.37-1.34 8.32-3.34h2c0.248-0.804 0.495-1.61 0.75-2.44 1.51-4.31 3.35-8.42 5.25-12.6z" fill="#000100"/>
<path transform="translate(605 367)" d="m0 0c2.54 2.43 2.65 4.97 2.9 8.36-0.355 2.12-0.355 2.12-3.36 5.12v-9c-6.87-0.745-13.2-1.18-20 0v2h-2c-0.247 0.639-0.495 1.28-0.75 1.94-1.25 2.06-1.25 2.06-3.38 2.81-0.928 0.124-0.928 0.124-1.88 0.25v6c-1.98 0.99-1.98 0.99-4 2 0.417-7.78 2.83-12.9 8.44-18.4 7.42-4.71 16.2-5.42 24-1.1z" fill="#010201"/>
<path transform="translate(1556 733)" d="m0 0c3.27 2.88 3.8 4.69 4.61 8.92 0.236 1.14 0.472 2.27 0.715 3.44 0.348 3 0.348 3-0.652 6-0.447-0.664-0.895-1.33-1.36-2.01-3.91-5.81-3.91-5.81-8.58-11-1.02-0.99-1.02-0.99-2.06-2v-2c-7.23-1.56-14.8-1.64-22 0-0.33 0.99-0.66 1.98-1 3h-2c-0.33 1.32-0.66 2.64-1 4h-2v2c-0.784 0.206-1.57 0.413-2.38 0.625-2.93 1.18-2.93 1.18-3.94 4.5-0.227 0.949-0.454 1.9-0.688 2.88h-1c0.416-6.8 2.71-10.7 7.46-15.5 8.8-7.33 26-7.77 35.9-2.88z" fill="#000100"/>
<path transform="translate(507,804)" d="m0 0h1c-0.143 2.19-0.289 4.38-0.438 6.56-0.0812 1.22-0.162 2.44-0.246 3.69-0.304 3.6-0.806 7.17-1.32 10.7h-41c-0.33-1.32-0.66-2.64-1-4 1.32 0.0236 1.32 0.0236 2.66 0.0476 3.28 0.0513 6.55 0.0888 9.83 0.117 1.41 0.015 2.83 0.0354 4.24 0.0615 2.04 0.0367 4.08 0.0535 6.12 0.0667 1.84 0.0236 1.84 0.0236 3.71 0.0476 3.83-0.38 6.19-1.29 9.44-3.34 1.54-2.44 2.73-4.58 3.88-7.19 0.307-0.654 0.614-1.31 0.93-1.98 0.749-1.6 1.47-3.22 2.2-4.83z" fill="#000100"/>
<path transform="translate(395,766)" d="m0 0c0.842 2.92 1.12 5.51 1.1 8.55-0.00322 0.844-0.00645 1.69-0.00977 2.56-0.0126 1.31-0.0126 1.31-0.0254 2.64-0.00451 0.888-0.00902 1.78-0.0137 2.69-0.0118 2.19-0.0282 4.37-0.0488 6.56-2.12-2.62-4.13-5.2-6-8-3.18-1.06-5.64-1.2-8.98-1.32-1.16-0.0419-2.33-0.0838-3.53-0.127-1.82-0.059-1.82-0.059-3.68-0.119-1.23-0.0432-2.45-0.0864-3.72-0.131-3.03-0.106-6.06-0.208-9.1-0.307v-5c0.576 0.161 1.15 0.322 1.74 0.487 3.67 0.834 7.32 0.738 11.1 0.763 1.17 0.0309 1.17 0.0309 2.37 0.0625 6.01 0.0401 11-0.733 15.6-4.92 0.574-0.783 0.574-0.783 1.16-1.58 0.681-0.928 1.36-1.86 2.06-2.81z" fill="#000100"/>
<path transform="translate(827,801)" d="m0 0c0.66 0.33 1.32 0.66 2 1-0.277 0.797-0.554 1.59-0.84 2.41-0.362 1.06-0.724 2.12-1.1 3.21-0.36 1.04-0.719 2.09-1.09 3.16-0.93 3.07-1.52 6.04-1.97 9.21 0.915 0.133 1.83 0.266 2.77 0.402 1.19 0.177 2.38 0.353 3.6 0.535 1.18 0.174 2.37 0.348 3.59 0.527 3.04 0.535 3.04 0.535 5.04 1.54v2h-33v-2c1.86-0.34 1.86-0.34 3.75-0.688 4.23-1.06 5.89-2.56 8.25-6.31 0.516-0.928 1.03-1.86 1.56-2.81 0.474-0.722 0.949-1.44 1.44-2.19h3c0.99-3.3 1.98-6.6 3-10z" fill="#0A0A0A"/>
<path transform="translate(626,729)" d="m0 0c-0.33 8.25-0.66 16.5-1 25-2-3-2-3-2.75-5.69-2.11-5.6-5.93-11.4-11.2-14.3-2.91-0.497-5.8-0.602-8.75-0.688-1.19-0.0512-1.19-0.0512-2.4-0.104-1.95-0.0822-3.9-0.147-5.85-0.209 0.33-0.66 0.66-1.32 1-2h24c0.825-0.33 1.65-0.66 2.5-1 2.5-1 2.5-1 4.5-1z" fill="#000100"/>
<path transform="translate(769,767)" d="m0 0h1c-0.33 7.59-0.66 15.2-1 23-2-2-2-2-2.25-3.94-0.622-2.38-0.622-2.38-3.5-3.75-5.78-2.33-11.4-2.58-17.6-2.88-0.836-0.0432-1.67-0.0864-2.53-0.131-2.05-0.105-4.1-0.207-6.15-0.307v-5c1.08 0.241 1.08 0.241 2.19 0.487 4.45 0.812 8.86 0.738 13.4 0.763 0.946 0.0206 1.89 0.0412 2.87 0.0625 0.912 0.00516 1.82 0.0103 2.76 0.0156 0.827 0.00935 1.65 0.0187 2.51 0.0283 2.86-0.442 4.2-1.4 6.3-3.36 1.27-2.58 1.27-2.58 2-5z" fill="#000100"/>
<path transform="translate(497,766)" d="m0 0c0.842 2.92 1.12 5.51 1.1 8.55-0.00322 0.844-0.00645 1.69-0.00977 2.56-0.0126 1.31-0.0126 1.31-0.0254 2.64-0.00451 0.888-0.00902 1.78-0.0137 2.69-0.0118 2.19-0.0282 4.37-0.0488 6.56-2-2-2-2-3.44-4.5-1.47-2.74-1.47-2.74-4.56-4.5-2.81-0.368-2.81-0.368-5.98-0.414-1.16-0.0387-2.33-0.0773-3.53-0.117-1.82-0.0464-1.82-0.0464-3.68-0.0938-1.23-0.0387-2.45-0.0773-3.72-0.117-3.03-0.0944-6.06-0.18-9.1-0.258v-4c0.64 0.0105 1.28 0.0209 1.94 0.0317 2.92 0.0417 5.83 0.0676 8.75 0.0933 1.01 0.0168 2.01 0.0335 3.05 0.0508 0.976 0.00645 1.95 0.0129 2.96 0.0195 0.895 0.0105 1.79 0.0209 2.71 0.0317 3.79-0.333 6.63-1.31 9.39-3.95 0.499-0.626 0.998-1.25 1.51-1.9 0.512-0.632 1.02-1.26 1.55-1.91 0.375-0.482 0.75-0.964 1.14-1.46z" fill="#000100"/>
<path transform="translate(1055,775)" d="m0 0c18.8 0.33 37.6 0.66 57 1v3h-57v-4z" fill="#000100"/>
<path transform="translate(837,550)" d="m0 0h1c-0.691 27-2.41 54-4 81-0.66-0.33-1.32-0.66-2-1-0.107-11.4-0.0185-22.7 0.438-34.1 0.0392-1.04 0.0785-2.07 0.119-3.14 0.042-0.967 0.084-1.93 0.127-2.93 0.0367-0.856 0.0733-1.71 0.111-2.59 0.205-2.21 0.205-2.21 1.21-5.21 0.183-2.77 0.325-5.54 0.438-8.31 0.375-8 1.25-15.8 2.56-23.7z" fill="#0A0A0A"/>
<path transform="translate(1253,753)" d="m0 0h2c-0.781 4.81-1.66 9.59-2.56 14.4-0.208 1.1-0.208 1.1-0.42 2.23-0.339 1.8-0.678 3.6-1.02 5.39-0.66-0.33-1.32-0.66-2-1v-4c-0.33 1.65-0.66 3.3-1 5h-1c-0.33-1.98-0.66-3.96-1-6-2.27 6.04-3.49 11.6-4 18h-1v-18h2c0.33-1.32 0.66-2.64 1-4h2c0.217-1.18 0.217-1.18 0.438-2.38 0.562-2.62 0.562-2.62 1.56-4.62h2c0.309-0.639 0.619-1.28 0.938-1.94 1.06-2.06 1.06-2.06 2.06-3.06z" fill="#090909"/>
<path transform="translate(714,353)" d="m0 0c1.7 1.63 3.38 3.29 5 5-0.33 0.66-0.66 1.32-1 2-0.99-0.66-1.98-1.32-3-2v-2c-2.48-0.99-2.48-0.99-5-2v-2c-2.73-0.911-4.35-1.13-7.17-1.13-1.22-0.00193-1.22-0.00193-2.46-0.00391-1.27 0.0058-1.27 0.0058-2.56 0.0117-0.826-0.00387-1.65-0.00773-2.5-0.0117-5.19 0.00818-10.2 0.39-15.3 1.14v2c-0.739 0.245-1.48 0.49-2.24 0.742-3.06 1.39-4.68 2.93-6.95 5.38-1.23 1.33-2.5 2.63-3.81 3.88h-2c-0.33 0.99-0.66 1.98-1 3h-2v2c-0.66-0.33-1.32-0.66-2-1 7.88-9.53 15.7-17.6 27.9-20.8 9.9-0.808 17.8-0.505 26.1 5.75z" fill="#000100"/>
<path transform="translate(881,177)" d="m0 0c0 3.3-0.743 5.16-2 8.19-0.371 0.901-0.742 1.8-1.12 2.73-0.289 0.687-0.577 1.37-0.875 2.08h-2c0.0477 0.714 0.0954 1.43 0.145 2.16-0.166 3.27-1.03 5.28-2.46 8.21-0.455 0.962-0.91 1.92-1.38 2.91-0.432 0.895-0.864 1.79-1.31 2.71-2.22 4.66-3.33 8.85-4 14-0.639 1.68-1.3 3.35-2 5-0.369 1.66-0.713 3.32-1 5h-2c-0.105 0.565-0.211 1.13-0.32 1.71-0.485 2.56-0.989 5.11-1.49 7.66-0.166 0.889-0.331 1.78-0.502 2.7-0.171 0.851-0.342 1.7-0.518 2.58-0.152 0.786-0.304 1.57-0.46 2.38-0.708 1.97-0.708 1.97-3.71 3.97 0.522-6.18 1.56-11.5 3.62-17.4 0.264-0.767 0.527-1.53 0.799-2.33 2.79-8.05 5.74-16 8.73-24 0.821-2.21 1.62-4.43 2.41-6.65 6.87-19.1 6.87-19.1 11.4-23.6z" fill="#090909"/>
<path transform="translate(572,387)" d="m0 0h1c-0.14 1.65-0.287 3.29-0.438 4.94-0.0812 0.917-0.162 1.83-0.246 2.78-0.316 2.29-0.316 2.29-1.32 3.29-0.835 4.74-1.39 9.53-2 14.3-0.0913 0.702-0.183 1.4-0.277 2.13-1.22 9.42-2.2 18.8-2.4 28.3-0.126 5.02-0.963 9.4-2.33 14.2h-1c-0.187-9.71 0.349-19.3 1.25-28.9 0.0979-1.07 0.0979-1.07 0.198-2.16 0.864-9.34 1.95-18.6 3.61-27.8 0.162-0.904 0.324-1.81 0.491-2.74 1.18-6.05 1.18-6.05 3.45-8.32z" fill="#0A0A0A"/>
<path transform="translate(966,225)" d="m0 0h2v5c0.99-0.33 1.98-0.66 3-1 1.1 1.7 1.1 1.7 2 4-0.539 2.33-0.539 2.33-1.62 4.81-0.379 0.87-0.758 1.74-1.15 2.64-1.59 3.3-3.32 6.42-5.23 9.55-0.66-0.99-1.32-1.98-2-3-0.66 0.66-1.32 1.32-2 2 0.114-1.65 0.241-3.29 0.375-4.94 0.0696-0.917 0.139-1.83 0.211-2.78 0.137-0.754 0.273-1.51 0.414-2.29 0.66-0.33 1.32-0.66 2-1-0.0619-1.55-0.0619-1.55-0.125-3.12 0.121-3.74 0.774-6.41 2.12-9.88z" fill="#060606"/>
<path transform="translate(703,471)" d="m0 0 4 2c-0.545 6.41-2.27 12.7-6.46 17.8-2.17 1.76-3.83 1.47-6.54 1.25 1.2-5.11 2.59-7.91 6-12v-3c1.67-4.67 1.67-4.67 3-6z" fill="#090909"/>
<path transform="translate(43,766)" d="m0 0c2.29 2.09 3.61 3.93 4.83 6.77 0.321 0.736 0.642 1.47 0.972 2.23 0.333 0.782 0.665 1.56 1.01 2.37 0.706 1.63 1.41 3.26 2.12 4.89 0.348 0.804 0.696 1.61 1.05 2.44 1.4 3.17 2.89 6.29 4.39 9.42 2.15 4.6 3.65 8.9 4.62 13.9-1.48-0.495-1.48-0.495-3-1v-3h-2c-0.266-0.843-0.531-1.69-0.805-2.55l-1.07-3.32c-0.522-1.64-0.522-1.64-1.05-3.3-0.882-2.91-0.882-2.91-3.07-4.82-0.633-2.38-0.633-2.38-1.12-5.12-0.168-0.91-0.335-1.82-0.508-2.76-0.182-1.05-0.182-1.05-0.367-2.12h-2c-0.866-1.77-1.72-3.54-2.56-5.31-0.713-1.48-0.713-1.48-1.44-2.99-0.996-2.7-0.996-2.7 0.00391-5.7z" fill="#000100"/>
<path transform="translate(887,792)" d="m0 0c1.72 2.57 2.92 4.9 4.17 7.71 0.418 0.915 0.835 1.83 1.27 2.77 0.869 1.91 1.73 3.83 2.58 5.76 3.12 6.78 5.89 10.9 12.9 14.1 0.701 0.227 1.4 0.454 2.12 0.688v2c-1.46 0.027-2.92 0.0464-4.38 0.0625-1.22 0.0174-1.22 0.0174-2.46 0.0352-2.16-0.0977-2.16-0.0977-4.16-1.1-0.874-2.03-1.53-4.09-2.22-6.19-0.635-2.01-0.635-2.01-2.78-2.81-1.45-3.61-2-6.07-2-10h-2c-3.43-8.43-3.43-8.43-3-13z" fill="#000100"/>
<path transform="translate(817,452)" d="m0 0c0.33 0.99 0.66 1.98 1 3 0.66 0.33 1.32 0.66 2 1-0.309 1.13-0.619 2.26-0.938 3.43-1.82 8.17-1.79 16.7-2.17 25-0.104 2.25-0.218 4.5-0.333 6.76-0.0272 0.679-0.0543 1.36-0.0823 2.06-0.234 4.56-1.1 8.43-2.48 12.7h-1c-0.508-18.1 1.76-36.1 4-54z" fill="#0A0A0A"/>
<path transform="translate(1033,731)" d="m0 0h34c-3.22 2.15-5.54 2.64-9.26 3.34-0.575 0.218-1.15 0.436-1.74 0.66-0.33 0.99-0.66 1.98-1 3h-11c-0.33-1.32-0.66-2.64-1-4-3.3-0.66-6.6-1.32-10-2v-1z" fill="#000100"/>
<path transform="translate(81,773)" d="m0 0h2c-0.333 1.33-0.667 2.67-1 4-0.275 1.12-0.549 2.24-0.832 3.39-4.29 16.9-4.29 16.9-8.73 21.1-1.77 1.63-1.77 1.63-2.44 5.08-1 3.44-1 3.44-4 5.44 0-4.28 0.621-5.54 2.62-9.19 3.01-5.79 5.22-11.7 7.28-17.8 1.4-4.18 3.02-8.05 5.09-12z" fill="#010201"/>
<path transform="translate(882,498)" d="m0 0c2.83 3.5 5.58 7.06 8.25 10.7 0.706 0.953 1.41 1.91 2.14 2.89 1.61 2.43 1.61 2.43 1.61 4.43h2c1.66 3.03 3.3 6.08 4.94 9.12 0.469 0.856 0.937 1.71 1.42 2.59 2.37 4.43 4.25 8.18 4.64 13.3-0.66-0.33-1.32-0.66-2-1v-4h-2c-3-5.62-3-5.62-3-9-0.99-0.33-1.98-0.66-3-1-0.922-1.75-0.922-1.75-1.75-4-1.92-4.67-4.54-8.2-7.76-12.1-1.49-1.95-1.49-1.95-2.49-4.95l-1.5-1.5c-1.5-1.5-1.5-1.5-2.5-4.5 0.33-0.33 0.66-0.66 1-1z" fill="#000100"/>
<path transform="translate(1170,731)" d="m0 0h34c-4 2-4 2-7.69 2.94-1.64 0.526-1.64 0.526-3.31 1.06-0.33 0.99-0.66 1.98-1 3-1.26 0.0206-2.52 0.0412-3.81 0.0625-0.708 0.0116-1.42 0.0232-2.14 0.0352-2.04-0.0977-2.04-0.0977-5.04-1.1v-3c-0.71-0.049-1.42-0.098-2.15-0.148-0.919-0.0748-1.84-0.15-2.79-0.227-0.917-0.0696-1.83-0.139-2.78-0.211-1.13-0.205-1.13-0.205-2.29-0.414-0.33-0.66-0.66-1.32-1-2z" fill="#000100"/>
<path transform="translate(913,658)" d="m0 0h1c0.0812 2.25 0.139 4.5 0.188 6.75 0.0348 1.25 0.0696 2.51 0.105 3.8-0.305 3.59-0.837 4.9-3.29 7.45-0.33-1.32-0.66-2.64-1-4-0.66 1.65-1.32 3.3-2 5-1.92-1.84-2.98-3.19-3.05-5.91 0.405-3.62 0.878-7.08 3.05-10.1 3-1 3-1 4-1 0.33-0.66 0.66-1.32 1-2z" fill="#010201"/>
<path transform="translate(1101,731)" d="m0 0h34c-3.04 2.02-4.19 2.32-7.69 2.62-0.808 0.0748-1.62 0.15-2.45 0.227-0.615 0.049-1.23 0.098-1.86 0.148v3h-11v-3c-0.626-0.049-1.25-0.098-1.9-0.148-0.817-0.0748-1.63-0.15-2.48-0.227-1.22-0.104-1.22-0.104-2.46-0.211-2.16-0.414-2.16-0.414-4.16-2.41z" fill="#000100"/>
<path transform="translate(140,731)" d="m0 0h33c-3 2-3 2-6.62 3-1.11 0.33-2.23 0.66-3.38 1-0.33 0.66-0.66 1.32-1 2-1.79 0.0809-3.58 0.139-5.38 0.188-1.5 0.0522-1.5 0.0522-3.02 0.105-0.859-0.0967-1.72-0.193-2.6-0.293-0.66-0.99-1.32-1.98-2-3-2.19-0.794-2.19-0.794-4.62-1.19-1.23-0.238-1.23-0.238-2.48-0.48-0.94-0.164-0.94-0.164-1.9-0.332v-1z" fill="#000100"/>
<path transform="translate(837,321)" d="m0 0h1c0.027 1.46 0.0464 2.92 0.0625 4.38 0.0116 0.812 0.0232 1.62 0.0352 2.46-0.0977 2.16-0.0977 2.16-1.1 4.16-0.203 1.83-0.365 3.66-0.5 5.5-0.389 5.28-0.389 5.28-1.5 7.5 0.0206 1.28 0.0412 2.56 0.0625 3.88 0.0483 3.36-0.438 5.16-2.06 8.12-0.387 2.32-0.73 4.66-1 7h-2c0.527-9.37 1.79-18.5 3.5-27.7 0.338-1.89 0.338-1.89 0.684-3.82 1.67-9.21 1.67-9.21 2.82-11.5z" fill="#0A0A0A"/>
<path transform="translate(13,731)" d="m0 0h28c-2.76 2.76-5.21 2.58-9 3v2c-2.43 1.54-3.67 2.03-6.58 1.76-1.32-0.313-1.32-0.313-2.67-0.633-0.892-0.204-1.78-0.407-2.7-0.617-1.01-0.251-1.01-0.251-2.05-0.508v-2c-2.48-0.99-2.48-0.99-5-2v-1z" fill="#000100"/>
<path transform="translate(591 367)" d="m0 0c0.557 0.371 1.11 0.743 1.69 1.12v2c-2.64 0.33-5.28 0.66-8 1v2h-2c-0.247 0.639-0.495 1.28-0.75 1.94-1.25 2.06-1.25 2.06-3.38 2.81-0.928 0.124-0.928 0.124-1.88 0.25v6c-1.98 0.99-1.98 0.99-4 2 0.4-5.8 1.08-9.43 5-14 2.69-1.25 2.69-1.25 5-2 0.33-0.66 0.66-1.32 1-2 4.24-2.29 4.24-2.29 7.31-1.12z" fill="#080808"/>
<path transform="translate(836,778)" d="m0 0c2.13 6.51-1.8 12.8-4.69 18.6-0.765 1.48-1.53 2.96-2.31 4.44h-2c-0.186 1.08-0.186 1.08-0.375 2.19-0.615 2.77-1.51 5.21-2.62 7.81h-2c2.13-6.81 4.73-13.3 7.56-19.9 0.399-0.936 0.798-1.87 1.21-2.84 1.57-3.65 3.02-6.98 5.23-10.3z" fill="#000100"/>
<path transform="translate(943,808)" d="m0 0c4.56 3.04 6.48 7.25 8 12.4 0.33 0.866 0.66 1.73 1 2.62 2.03 0.969 2.03 0.969 4 1v2c-4.86-0.452-7.53-1.53-11-5-2.48-4.25-2.16-8.21-2-13z" fill="#0A0A0A"/>
<path transform="translate(283,731)" d="m0 0h25c-2 2-2 2-5.06 3.5-3.02 1.18-3.02 1.18-3.94 3.5-1.44-0.0875-2.88-0.196-4.31-0.312-0.801-0.058-1.6-0.116-2.43-0.176-2.66-0.602-3.49-1.5-5.26-3.51-2.1-1.18-2.1-1.18-4-2v-1z" fill="#000100"/>
<path transform="translate(405,803)" d="m0 0h1c-0.142 2.35-0.289 4.71-0.438 7.06-0.0812 1.31-0.162 2.62-0.246 3.97-0.295 3.7-0.749 7.3-1.32 11h-8l2-4h2c0.11-0.713 0.219-1.43 0.332-2.16 0.946-5.72 2.12-10.6 4.67-15.8z" fill="#090909"/>
<path transform="translate(625,735)" d="m0 0v19c-2-3-2-3-2.81-5.69-1.5-4.18-3.74-7.63-6.19-11.3 3-2 3-2 9-2z" fill="#0A0A0A"/>
<path transform="translate(1556,808)" d="m0 0h2c0.309 0.784 0.619 1.57 0.938 2.38 0.991 2.55 0.991 2.55 2.06 4.62-3.27 4.23-6.19 7.44-11 10-2.38-0.25-2.38-0.25-4-1 1.62-1.71 3.29-3.37 5-5h2c0.99-3.63 1.98-7.26 3-11z" fill="#090909"/>
<path transform="translate(962,732)" d="m0 0v2c-1.14 0.866-1.14 0.866-2.31 1.75-2.98 2.5-4.16 4.71-5.69 8.25h-5c-0.66 1.98-1.32 3.96-2 6h-1c0.126-6.03 2.04-8.91 6.16-13.3 3.18-2.99 5.43-4.73 9.84-4.73z" fill="#000100"/>
<path transform="translate(1450,731)" d="m0 0h24c-3 2-3 2-5.12 2.44-0.619 0.186-1.24 0.371-1.88 0.562-0.33 0.99-0.66 1.98-1 3-1.46 0.081-2.92 0.139-4.38 0.188-0.812 0.0348-1.62 0.0696-2.46 0.105-0.714-0.0967-1.43-0.193-2.16-0.293-0.66-0.99-1.32-1.98-2-3-2.55-1.2-2.55-1.2-5-2v-1z" fill="#000100"/>
<path transform="translate(83,731)" d="m0 0h27c-3 2-3 2-5.12 3-2.05 0.859-2.05 0.859-2.88 3-3.31 0.188-3.31 0.188-7 0l-3-3c-2.26-0.784-2.26-0.784-4.69-1.19-1.21-0.238-1.21-0.238-2.45-0.48-0.615-0.11-1.23-0.219-1.86-0.332v-1z" fill="#000100"/>
<path transform="translate(1529,732)" d="m0 0v2h-2c-0.33 0.99-0.66 1.98-1 3h-2c-0.33 1.32-0.66 2.64-1 4h-2v2c-0.784 0.206-1.57 0.413-2.38 0.625-2.93 1.18-2.93 1.18-3.94 4.5-0.227 0.949-0.454 1.9-0.688 2.88h-1c0.364-5.95 1.92-9.62 6-14 5.74-5 5.74-5 10-5z" fill="#000100"/>
<path transform="translate(715,437)" d="m0 0c0.33 0.99 0.66 1.98 1 3h2c0.33-0.99 0.66-1.98 1-3h1c0.402 6.17-1.03 11.2-3 17-0.144-0.639-0.289-1.28-0.438-1.94-0.373-2.04-0.373-2.04-1.56-3.06-0.33 1.65-0.66 3.3-1 5-2-6.01-0.903-11.2 1-17z" fill="#030403"/>
<path transform="translate(841,781)" d="m0 0h23v3h-23v-3z" fill="#000100"/>
<path transform="translate(507,804)" d="m0 0h1c-0.964 14.8-0.964 14.8-2 21h-6c0.217-0.531 0.433-1.06 0.656-1.61 0.278-0.706 0.557-1.41 0.844-2.14 0.418-1.04 0.418-1.04 0.844-2.11 0.852-2.4 0.852-2.4 0.656-6.14 0.875-2.36 0.875-2.36 2-4.75 0.371-0.799 0.743-1.6 1.12-2.42 0.289-0.603 0.577-1.21 0.875-1.83z" fill="#070707"/>
<path transform="translate(1510,807)" d="m0 0c0.99 0.33 1.98 0.66 3 1 0.773 2.11 0.773 2.11 1.38 4.75 1.3 4.84 2.76 7.12 6.62 10.2-0.33 0.99-0.66 1.98-1 3-6.52-3.26-6.52-3.26-8.38-6.12-0.925-4.26-1.3-8.53-1.62-12.9z" fill="#0A0A0A"/>
<path transform="translate(1556,801)" d="m0 0c0.784 0.495 1.57 0.99 2.38 1.5 2.41 1.67 2.41 1.67 4.62 1.5 1.16 4.05 0.837 6.22-1 10l-4-2v-4c-0.99-0.33-1.98-0.66-3-1 0.33-1.98 0.66-3.96 1-6z" fill="#000100"/>
<path transform="translate(821,811)" d="m0 0c1.61 4.02 0.433 7.06-1 11-1.22 1.7-1.22 1.7-3 3-2.7 0.293-2.7 0.293-5.69 0.188-0.994-0.0271-1.99-0.0541-3.01-0.082-0.759-0.0348-1.52-0.0696-2.3-0.105v-2c1.86-0.34 1.86-0.34 3.75-0.688 5.45-1.37 7.12-4.5 10-9.12 0.413-0.722 0.825-1.44 1.25-2.19z" fill="#000100"/>
<path transform="translate(862,222)" d="m0 0h2c-0.33 2.64-0.66 5.28-1 8h-2c-0.105 0.565-0.211 1.13-0.32 1.71-0.485 2.56-0.989 5.11-1.49 7.66-0.166 0.889-0.331 1.78-0.502 2.7-0.171 0.851-0.342 1.7-0.518 2.58-0.152 0.786-0.304 1.57-0.46 2.38-0.708 1.97-0.708 1.97-3.71 3.97 0.525-6.57 1.81-12.2 4-18.4 0.41-1.2 0.41-1.2 0.828-2.43 1.97-5.73 1.97-5.73 3.17-8.13z" fill="#070807"/>
<path transform="translate(714,437)" d="m0 0c1.35 4.04 0.0417 6.81-1.25 10.7-0.232 0.717-0.463 1.43-0.702 2.17-1.55 4.77-3.2 9.48-5.05 14.1h-1c0.328-6.13 1.63-11.6 3.44-17.4 0.217-0.71 0.435-1.42 0.659-2.15 1.65-5.16 1.65-5.16 3.9-7.41z" fill="#070707"/>
<path transform="translate(393,773)" d="m0 0h2c0.33 5.28 0.66 10.6 1 16-2.08-2.6-4.15-5.23-6-8-0.99-0.66-1.98-1.32-3-2 0.804-0.619 1.61-1.24 2.44-1.88 2.6-1.87 2.6-1.87 3.56-4.12z" fill="#0A0A0A"/>
<path transform="translate(842,765)" d="m0 0h2c-1.56 5.61-3.16 10.9-6 16h3v3c-1.65 0.33-3.3 0.66-5 1-0.573-9.74-0.573-9.74 3-14h2c0.33-1.98 0.66-3.96 1-6z" fill="#060606"/>
<path transform="translate(572,387)" d="m0 0h1c-0.14 1.65-0.287 3.29-0.438 4.94-0.0812 0.917-0.162 1.83-0.246 2.78-0.316 2.29-0.316 2.29-1.32 3.29-0.397 2.35-0.744 4.7-1.06 7.06-0.265 1.94-0.265 1.94-0.535 3.91-0.133 0.999-0.266 2-0.402 3.03-0.99 0.33-1.98 0.66-3 1 0.612-3.96 1.24-7.92 1.88-11.9 0.174-1.13 0.348-2.26 0.527-3.42 0.174-1.08 0.348-2.15 0.527-3.26 0.157-0.995 0.314-1.99 0.476-3.02 0.594-2.43 0.594-2.43 2.59-4.43z" fill="#090909"/>
<path transform="translate(551,737)" d="m0 0c-0.338 0.485-0.675 0.969-1.02 1.47-3.2 4.8-4.86 8.87-5.98 14.5-0.66-0.33-1.32-0.66-2-1 0.113-2.31 0.241-4.63 0.375-6.94 0.0696-1.29 0.139-2.58 0.211-3.9 0.137-1.04 0.273-2.09 0.414-3.16 2.71-1.35 5.01-1.07 8-1z" fill="#080808"/>
<path transform="translate(985,738)" d="m0 0c5.42 0.361 5.42 0.361 7.88 3.06 1.48 3.88 1.34 6.8 1.12 10.9-2.18-2.18-3.49-4.51-4.98-7.18-1.29-2.3-2.65-4.56-4.02-6.82z" fill="#090909"/>
<path transform="translate(855,731)" d="m0 0h4c0.33 1.98 0.66 3.96 1 6h-3c-0.247 0.598-0.495 1.2-0.75 1.81-1.41 2.47-2.9 3.62-5.25 5.19 0.72-4.61 2.31-8.67 4-13z" fill="#000100"/>
<path transform="translate(737,820)" d="m0 0c1.39 0.464 1.39 0.464 2.81 0.938 4.97 1.44 10 1.71 15.2 2.06v2h-18v-5z" fill="#000100"/>
<path transform="translate(825,820)" d="m0 0c1.96 0.309 3.92 0.622 5.88 0.938 1.09 0.174 2.18 0.348 3.3 0.527 2.82 0.535 2.82 0.535 4.82 1.54v2h-14v-5z" fill="#000100"/>
<path transform="translate(393,737)" d="m0 0h8c0.33 3.63 0.66 7.26 1 11-0.99 0.495-0.99 0.495-2 1-0.619-1.61-0.619-1.61-1.25-3.25-1.39-3.28-3.08-5.35-5.75-7.75v-1z" fill="#090909"/>
<path transform="translate(496,773)" d="m0 0h1c0.33 5.28 0.66 10.6 1 16-2.65-2.65-4.33-5.66-6-9 2.44-5.44 2.44-5.44 4-7z" fill="#0A0A0A"/>
<path transform="translate(870,758)" d="m0 0c4.25 4.57 6.94 10.1 9 16-0.33 0.66-0.66 1.32-1 2-3.33-2.69-4.41-6.12-6-10-0.66-0.99-1.32-1.98-2-3-0.125-2.69-0.125-2.69 0-5z" fill="#000100"/>
<path transform="translate(768,774)" d="m0 0h1v16c-2.19-2.19-2.28-3.11-3-6l-2-2c2.88-6.88 2.88-6.88 4-8z" fill="#0A0A0A"/>
<path transform="translate(1552,737)" d="m0 0c4.84 1.73 4.84 1.73 6.31 4.12 0.227 0.619 0.454 1.24 0.688 1.88h2c0.33 2.64 0.66 5.28 1 8-3.05-2.83-5.17-5.66-7.25-9.25-0.521-0.892-1.04-1.78-1.58-2.7-0.387-0.675-0.773-1.35-1.17-2.05z" fill="#080808"/>
<path transform="translate(769,737)" d="m0 0h7c0.054 1.46 0.0928 2.92 0.125 4.38 0.0232 0.812 0.0464 1.62 0.0703 2.46-0.195 2.16-0.195 2.16-2.2 4.16-0.504-1.29-1-2.58-1.5-3.88-0.278-0.719-0.557-1.44-0.844-2.18-0.656-1.95-0.656-1.95-0.656-3.95-0.66-0.33-1.32-0.66-2-1z" fill="#0A0A0A"/>
<path transform="translate(224,819)" d="m0 0c4.95 1.98 4.95 1.98 10 4v2h-10v-6z" fill="#000100"/>
<path transform="translate(860,737)" d="m0 0c4.78 5.29 8.08 11.9 9 19-2.75-2.46-4.4-5.16-6.19-8.38-0.53-0.936-1.06-1.87-1.61-2.84-1.24-2.87-1.46-4.7-1.21-7.79z" fill="#000100"/>
<path transform="translate(1390,819)" d="m0 0c1.48 0.423 2.96 0.864 4.44 1.31 1.24 0.365 1.24 0.365 2.5 0.738 0.682 0.313 1.36 0.626 2.07 0.949 0.33 0.99 0.66 1.98 1 3h-8v-2h-2v-4z" fill="#000100"/>
<path transform="translate(219,819)" d="m0 0c0.0427 1.67 0.0406 3.33 0 5-1 1-1 1-2.85 1.1-2.05-0.0326-4.1-0.0651-6.15-0.0977 1-3 1-3 3.94-4.69 3.06-1.31 3.06-1.31 5.06-1.31z" fill="#000100"/>
<path transform="translate(495,737)" d="m0 0c2.64 0.33 5.28 0.66 8 1 0.33 3.3 0.66 6.6 1 10-2.77-1.39-3.43-3.34-5-6-1.31-1.68-2.64-3.36-4-5z" fill="#0A0A0A"/>
<path transform="translate(351,820)" d="m0 0h1v5h-12v-2c0.71-0.133 1.42-0.266 2.15-0.402 0.919-0.177 1.84-0.353 2.79-0.535 1.37-0.261 1.37-0.261 2.78-0.527 2.24-0.312 2.24-0.312 3.29-1.54z" fill="#000100"/>
<path transform="translate(152,820)" d="m0 0v5h-12v-2c1.81-0.502 3.62-1 5.44-1.5 1.01-0.278 2.02-0.557 3.06-0.844 2.5-0.656 2.5-0.656 3.5-0.656z" fill="#000100"/>
<path transform="translate(1054,820)" d="m0 0c0.846 0.309 1.69 0.619 2.56 0.938 3.49 1.08 6.82 1.63 10.4 2.06v2h-13v-5z" fill="#000100"/>
<path transform="translate(1181,819)" d="m0 0h1c0.0427 1.67 0.0406 3.33 0 5-1 1-1 1-3.5 1.1-1.51-0.0174-1.51-0.0174-3.06-0.0352-1.01-0.00902-2.02-0.018-3.07-0.0273-0.782-0.0116-1.56-0.0232-2.37-0.0352v-2c0.71-0.121 1.42-0.242 2.15-0.367 0.919-0.168 1.84-0.335 2.79-0.508 0.917-0.162 1.83-0.325 2.78-0.492 0.754-0.209 1.51-0.418 2.29-0.633 0.33-0.66 0.66-1.32 1-2z" fill="#000100"/>
<path transform="translate(161,820)" d="m0 0c0.681 0.309 1.36 0.619 2.06 0.938 3.31 1.2 6.45 1.65 9.94 2.06v2h-12v-5z" fill="#000100"/>
<path transform="translate(589,822)" d="m0 0c4.29 0.33 8.58 0.66 13 1v2h-13v-3z" fill="#000100"/>
<path transform="translate(595,367)" d="m0 0c3.31-0.25 3.31-0.25 7 0 0.99 1.32 1.98 2.64 3 4-3.63-0.33-7.26-0.66-11-1 0.33-0.99 0.66-1.98 1-3z" fill="#0A0A0A"/>
<path transform="translate(578,822)" d="m0 0v3h-13v-2c1.6-0.169 3.21-0.335 4.81-0.5 0.893-0.0928 1.79-0.186 2.71-0.281 2.48-0.219 2.48-0.219 5.48-0.219z" fill="#000100"/>
<path transform="translate(1111,821)" d="m0 0c0.33 1.32 0.66 2.64 1 4h-11v-2c3.3-0.66 6.6-1.32 10-2z" fill="#000100"/>
<path transform="translate(858,238)" d="m0 0c1.29 2.58 0.847 3.71 0.25 6.5-0.24 1.19-0.24 1.19-0.484 2.41-0.766 2.09-0.766 2.09-3.77 4.09 0.595-9.59 0.595-9.59 4-13z" fill="#0A0A0A"/>
<path transform="translate(916,129)" d="m0 0c0 3 0 3-1.68 4.72-1.09 0.882-1.09 0.882-2.2 1.78-2.61 2.13-4.23 3.66-6.12 6.5-0.66-0.33-1.32-0.66-2-1 3.72-4.42 7.3-8.58 12-12z" fill="#080808"/>
<path transform="translate(1043,821)" d="m0 0c0.33 1.32 0.66 2.64 1 4h-11v-2c3.3-0.66 6.6-1.32 10-2z" fill="#000100"/>
<path transform="translate(452,821)" d="m0 0c0.33 1.32 0.66 2.64 1 4h-11v-2c3.3-0.66 6.6-1.32 10-2z" fill="#000100"/>
<path transform="translate(1123,822)" d="m0 0c3.63 0.33 7.26 0.66 11 1v2h-11v-3z" fill="#000100"/>
<path transform="translate(1028,433)" d="m0 0c1.32 0.33 2.64 0.66 4 1-1.19 2.5-1.19 2.5-3 5-2.69 0.312-2.69 0.312-5 0 0.33-0.99 0.66-1.98 1-3h3v-3z" fill="#080808"/>
<path transform="translate(844,291)" d="m0 0c1.12 3.3 0.896 5.05-0.438 8.25-0.287 0.706-0.575 1.41-0.871 2.14-0.228 0.531-0.456 1.06-0.691 1.61h-1c0.114-1.63 0.242-3.25 0.375-4.88 0.0696-0.905 0.139-1.81 0.211-2.74 0.414-2.38 0.414-2.38 2.41-4.38z" fill="#0A0A0A"/>
<path transform="translate(209,731)" d="m0 0h7c0.33 1.32 0.66 2.64 1 4-2.64-0.99-5.28-1.98-8-3v-1z" fill="#000100"/>
</svg>
