<?xml version="1.0" encoding="UTF-8"?>
<svg version="1.1" viewBox="0 0 1600 1600" width="1280" height="1280" xmlns="http://www.w3.org/2000/svg">
<path transform="translate(830 400)" d="m0 0c2.62 1.69 2.62 1.69 4.01 3.28 2.12 1.86 3.23 1.73 6.02 1.63 1.34-0.0305 1.34-0.0305 2.71-0.0615 0.971-0.0325 1.94-0.0651 2.94-0.0986 32.3-0.503 63 4.08 91.9 18.9 1.17 0.594 2.34 1.19 3.55 1.8 8.63 4.63 15.8 10.2 23 16.8 1.23 1.13 2.49 2.24 3.75 3.34 19.2 17.7 30.3 45.7 32 71.4 1.01 30.7-4.4 60.2-16.2 88.6-0.296 0.716-0.593 1.43-0.898 2.17-4.63 11.1-9.95 21.5-16.1 31.8-0.576 0.97-0.576 0.97-1.16 1.96-9.78 16.4-21.1 31.6-33.3 46.2-1.48 1.78-2.95 3.56-4.41 5.35-5.29 6.39-10.8 12.3-16.8 18.1-1.82 1.82-3.46 3.6-5.05 5.61-1.85 2.2-3.52 3.85-5.69 5.69-4.42 3.77-8.52 7.84-12.6 11.9-0.684 0.679-1.37 1.36-2.07 2.06-0.636 0.638-1.27 1.28-1.93 1.93-0.577 0.579-1.15 1.16-1.75 1.75-1.36 1.19-1.36 1.19-1.25 2.38 1.13 0.0673 1.13 0.0673 2.28 0.136 33.6 2.05 66.2 5.7 90.8 31.6 19.6 23.1 23.4 50.8 21.9 80.3-3.14 32.1-3.14 32.1-8 37-1.35 0.0927-2.71 0.117-4.06 0.114-0.861-7.55e-5 -1.72-1.51e-4 -2.61-2.29e-4 -0.935-0.00516-1.87-0.0103-2.83-0.0156-0.953-0.00141-1.91-0.00283-2.89-0.00429-3.06-0.00562-6.11-0.0182-9.17-0.0309-2.07-0.00501-4.13-0.00958-6.2-0.0137-5.08-0.0111-10.2-0.0283-15.2-0.0488 1.15-3.49 2.33-6.96 3.59-10.4 11.1-31.1 15-65.8 0.414-96.6-5.58-11.1-12.3-16.7-24-21-20.6-6.48-43.3-8.03-64-1-0.651 0.215-1.3 0.43-1.97 0.651-12.9 4.4-24.3 11.6-35.9 18.5-31 18.5-62.3 29.8-96.6 40.3-0.753 0.23-1.51 0.46-2.28 0.697-15.3 4.64-15.3 4.64-21.2 3.88-2.19-1.82-3.39-3.59-5-6 5.57-14.3 25.2-23 38-30 0.623-0.345 1.25-0.69 1.89-1.05 25.7-14.2 52.9-25 80.7-34.2 10.3-3.4 19.1-6.5 27.4-13.8 1.36-1.05 1.36-1.05 2.75-2.12 2.58-2.15 4.88-4.49 7.25-6.88 0.967-0.958 1.93-1.92 2.9-2.87 2.84-2.81 5.68-5.62 8.52-8.44 1.21-1.2 2.43-2.4 3.64-3.6 7.48-7.38 14.4-14.8 20.9-23.1 0.933-1.09 1.87-2.18 2.83-3.25 7.3-8.29 13.5-17.2 19.6-26.4 1.62-2.4 3.3-4.74 4.99-7.09 4.19-5.96 7.82-12.2 11.4-18.6 0.522-0.919 0.522-0.919 1.06-1.86 24.8-43.8 41.6-93.1 28.5-143-7.3-25.4-23.6-47-46.4-60.3-19.1-10.5-39.4-14.4-61-14.3-1.93-0.0116-1.93-0.0116-3.9-0.0234-1.85 0.00387-1.85 0.00387-3.73 0.00781-1.1 0.00226-2.21 0.00451-3.35 0.00684-3.77 0.328-3.77 0.328-6.89 2.26-1.41 2.98-1.41 2.98-2.4 6.69-0.207 0.702-0.414 1.4-0.628 2.13-2.57 8.93-4.66 18-6.79 27-5.37 22.7-11.5 45-18.6 67.1-0.572 1.81-1.14 3.62-1.7 5.43-12.9 41.2-29.7 81.9-48.9 121-0.652 1.33-1.3 2.66-1.95 3.98-8.15 16.5-16.7 32.9-25.9 48.9-1.31 2.29-2.6 4.59-3.89 6.89-7.17 12.7-14.8 25.2-22.6 37.5-1.46 2.32-2.9 4.64-4.33 6.98-6.55 10.7-13.6 21-20.7 31.3-1.97 2.88-3.9 5.79-5.82 8.71-7.45 11.2-15.3 22.1-23.5 32.9-3.15 4.18-6.22 8.4-9.23 12.7-4.41 6.25-9.09 12.3-13.8 18.3-3.88 4.95-7.69 9.96-11.4 15-4.41 5.92-8.95 11.7-13.6 17.5-2.99 3.71-5.89 7.47-8.72 11.3-3.56 4.8-7.28 9.44-11.1 14.1-5.35 6.54-10.5 13.2-15.5 20-0.44 0.602-0.881 1.2-1.33 1.82-1.39 1.91-2.78 3.82-4.17 5.74-0.434 0.596-0.868 1.19-1.32 1.81-1.82 2.54-3.19 4.65-4.18 7.63 4.63 8.28 14.6 14.3 22 20l2.12 1.63c3.57 2.74 7.15 5.47 10.7 8.2 11.5 8.77 22.8 17.8 33.8 27.2 5.51 4.69 11.1 9.25 16.8 13.7 3.96 3.08 7.83 6.26 11.7 9.48 8.31 6.95 16.9 13.4 25.8 19.5 1.88 1.28 3.74 2.58 5.6 3.88 16.4 11.3 33.9 21.1 52.4 28.5 0.659 0.268 1.32 0.536 2 0.812 9.74 4.12 9.74 4.12 20 4.19 8.56-4.38 16.5-9.89 24.4-15.3 0.545-0.372 1.09-0.744 1.65-1.13 8.2-5.6 16.1-11.4 23.9-17.6 1.6-1.21 3.2-2.42 4.8-3.63 6.9-5.23 13.5-10.8 20-16.5 1.72-1.48 3.45-2.94 5.19-4.39 8.74-7.32 16.9-15.1 24.9-23.2 2.04-2.06 4.08-4.11 6.13-6.15 1.33-1.33 2.65-2.66 3.98-4 0.897-0.899 0.897-0.899 1.81-1.82 3.67-3.71 7.13-7.54 10.5-11.5 2.51-2.69 4.37-4.6 8.09-5.15 0.897 0.00666 1.79 0.0133 2.72 0.0202 1.53 3.4e-4 1.53 3.4e-4 3.09 6.87e-4 1.09 0.0155 2.19 0.031 3.32 0.0469 1.13 0.00424 2.25 0.00849 3.41 0.0129 3.6 0.0168 7.19 0.0544 10.8 0.0926 2.44 0.015 4.88 0.0287 7.32 0.041 5.98 0.0331 12 0.0833 17.9 0.146-4.19 8.75-11.7 15.9-18.2 23-1.8 1.88-1.8 1.88-2.75 4h-2c-0.204 0.53-0.407 1.06-0.617 1.61-1.98 3.43-4.68 5.95-7.51 8.71-0.882 0.872-0.882 0.872-1.78 1.76-3.61 3.54-7.28 6.98-11.1 10.3-2.36 2.01-4.66 4.09-6.96 6.17-1.67 1.5-3.33 3-5 4.5-0.623 0.563-1.25 1.13-1.89 1.71-19.2 17.2-40.6 32.4-62.1 46.6-0.826 0.544-1.65 1.09-2.5 1.65-1.59 1.05-3.19 2.09-4.8 3.12-1.08 0.705-1.08 0.705-2.18 1.42-0.635 0.411-1.27 0.821-1.93 1.24-1.9 1.34-1.9 1.34-3.61 4.25 77.8 1.07 148-11.1 218-47.1 3.03-1.46 5.65-2.09 8.98-2.27 0.757-0.0419 1.51-0.0838 2.29-0.127 1.18-0.059 1.18-0.059 2.38-0.119 0.797-0.0432 1.59-0.0864 2.42-0.131 1.97-0.106 3.93-0.207 5.9-0.307-5.24 4.09-11 7.31-16.8 10.7-0.61 0.361-1.22 0.723-1.85 1.1-8.66 5.12-17.4 10-26.5 14.3-2.08 0.984-4.14 2.01-6.19 3.03-42.8 21.1-91.4 34-139 34-1.27 0.00333-2.53 0.00666-3.84 0.0101-2.67 0.00503-5.34 0.00785-8.01 0.00725-2.69-8.09e-5 -5.38 0.00681-8.07 0.0205-14.3 0.0674-28.4-0.0229-42.6-1.77-5.91-0.654-9.83-0.832-15.2 1.84-1 0.49-2 0.98-3.03 1.49-1.59 0.8-1.59 0.8-3.21 1.62-2.25 1.11-4.49 2.21-6.74 3.32-1.12 0.557-2.25 1.11-3.41 1.69-4.8 2.36-9.64 4.65-14.5 6.93-5.52 2.6-11 5.28-16.4 8.05-7.63 3.85-15.4 7.21-23.3 10.5-0.721 0.303-1.44 0.607-2.19 0.92-4.95 2.08-9.91 4.15-14.9 6.21-1.05 0.436-2.1 0.873-3.18 1.32-69 28.5-146 48.9-221 48.9-3.23 0.00217-6.47 0.0203-9.7 0.0393-11.8 0.0306-23.4-0.379-35.2-1.52-7.46-0.724-14.6-1.26-22 0.298-5.24 0.381-8.58-0.0841-13-3-0.439-0.814-0.878-1.63-1.33-2.47-2.09-3.16-3.57-3.66-7.13-4.86-1.1-0.384-2.2-0.767-3.34-1.16-1.18-0.396-2.36-0.793-3.58-1.2-27.1-9.57-50.6-22.5-71.6-42.3-0.788-0.712-1.58-1.42-2.39-2.16-31.6-29.7-49.9-80-51.9-123-0.53-18.1 1.69-35.7 9.31-52.2l1.52-3.44c11.2-23.9 30.7-40.2 53.5-52.6l2.39-1.3c49.4-24.5 111-18.5 162-1.68 10.2 3.5 20.3 7.18 29.9 12 0.605 0.299 1.21 0.598 1.83 0.906 4.11 2.03 8.21 4.09 12.3 6.15 2.62 1.32 5.24 2.63 7.87 3.94 1.33 0.667 2.67 1.33 4 2 4.99-3.95 8.87-8.08 12.6-13.2 1.04-1.43 2.09-2.85 3.14-4.27 0.539-0.736 1.08-1.47 1.63-2.23 2.79-3.76 5.66-7.44 8.54-11.1 0.877-1.12 0.877-1.12 1.77-2.27 2.95-3.78 5.9-7.55 8.86-11.3 11.1-14.1 21.7-28.5 32-43.2 3.6-5.12 7.24-10.2 10.9-15.3 0.536-0.741 1.07-1.48 1.62-2.25 2.79-3.86 5.59-7.72 8.4-11.6 5.14-7.06 10.2-14.1 14.8-21.5 2.07-3.29 4.23-6.51 6.41-9.74 17.9-26.7 34.6-54.4 50-82.6 1.48-2.7 2.97-5.4 4.46-8.09 6.99-12.7 13.5-25.6 19.6-38.7 1.17-2.49 2.35-4.97 3.54-7.45 8.48-17.6 16.4-35.5 23.7-53.7 1.21-3 2.43-5.98 3.66-8.97 7.7-18.9 14.8-38.1 21.6-57.3 0.752-2.13 1.51-4.26 2.26-6.38 8.71-24.5 16.3-49.3 23.9-74.2 2.5-8.22 5.05-16.4 7.63-24.6-39.4 11.4-79.5 23.9-115 44.7-3.81 2.21-7.67 4.21-11.6 6.14-6.24 3.1-12.1 6.63-18 10.4-1.56 0.986-1.56 0.986-3.16 1.99-8.52 5.4-16.9 11-25.1 16.8-0.611 0.432-1.22 0.864-1.85 1.31-15.8 11.2-31.6 23.4-44.9 37.5-1.27 1.17-1.27 1.17-3.27 1.17v2c-1.33 1.23-1.33 1.23-3.25 2.75-5.76 4.9-10.4 10.7-15.2 16.5-1.37 1.63-2.77 3.22-4.19 4.8-12.3 13.9-22.6 29.7-31.3 46-0.805 1.45-1.61 2.89-2.42 4.34-18.6 33.7-26.5 70.5-27.2 109-0.0383 1.75-0.0774 3.51-0.117 5.26-0.0944 4.23-0.179 8.45-0.258 12.7-1.75 0.0475-3.51 0.0813-5.26 0.109-0.977 0.0203-1.95 0.0406-2.96 0.0615-3.52-0.217-5.58-1.04-8.22-3.33-11.9-14.1-13-36.3-11.6-53.8 4.35-40.5 27.9-77.6 55-107 1.32-1.47 2.63-2.95 3.94-4.44 0.545-0.617 1.09-1.23 1.65-1.87 1.59-1.85 1.59-1.85 3.41-4.69h2c0.383-0.87 0.383-0.87 0.773-1.76 1.35-2.47 2.86-4.12 4.86-6.1 0.724-0.723 1.45-1.45 2.2-2.19 0.758-0.746 1.52-1.49 2.3-2.26 0.735-0.734 1.47-1.47 2.23-2.22 4.14-4.11 8.38-8.04 12.8-11.9 2.21-1.92 4.34-3.92 6.46-5.93 6.56-6.19 13.4-11.8 20.6-17.3 1.83-1.42 3.63-2.87 5.42-4.34 15.7-12.8 32.5-24 49.4-35.1 0.77-0.505 1.54-1.01 2.33-1.53 19.8-12.9 40.5-24.9 61.7-35.5 0.816-0.41 1.63-0.82 2.47-1.24 25-12.5 50.7-22.5 77.2-31.1 0.695-0.226 1.39-0.452 2.11-0.685 3.49-1.13 6.98-2.25 10.5-3.34 1.35-0.431 2.71-0.862 4.06-1.29 1.19-0.373 2.38-0.745 3.61-1.13 3.8-1.54 5.97-3.53 8.61-6.6 5.64-6.36 13.2-7.31 20.8-4.34zm-552 548c-21.5 25.4-27.2 55.7-25.2 88.2 3.07 29.7 15.7 58.6 34 82 0.773 0.995 1.55 1.99 2.34 3.02 4.06 5.09 8.31 9.83 13 14.3 1.63 1.66 1.63 1.66 3.63 4.66h2c0.262 0.596 0.523 1.19 0.793 1.8 2.17 3.94 5.76 6.39 9.21 9.2 0.919 0.755 1.84 1.51 2.79 2.29 16.9 13.5 42.6 31.7 65.2 31.7 0.208-0.888 0.415-1.78 0.629-2.69 4.97-20.6 11.3-40.1 20.4-59.3 0.428-0.911 0.856-1.82 1.3-2.76 6.63-14 14.2-27.3 22.1-40.6 1.38-2.32 2.75-4.64 4.12-6.97 4.46-7.58 9.21-14.9 14.1-22.2 1.96-2.91 3.85-5.87 5.7-8.85 7.96-12.6 17-24.5 25.7-36.6 0.486-0.673 0.972-1.35 1.47-2.04 0.968-1.34 1.94-2.67 2.93-3.99 2.61-3.16 2.61-3.16 3.51-6.99h2c1.74-2.07 1.74-2.07 3.56-4.75 2.93-4.13 5.89-8.21 8.94-12.2l2.25-3c1.51-2.01 3.03-4.02 4.56-6.02 1.08-1.44 1.08-1.44 2.19-2.91 0.65-0.855 1.3-1.71 1.97-2.59 1.68-2.71 2.57-4.27 2.53-7.47-3.63-4.77-8.65-7.41-13.8-10.3-0.843-0.479-1.69-0.959-2.55-1.45-64.1-36.1-165-53.3-221 6.58zm257 25.4c-0.802 1.01-0.802 1.01-1.62 2.05-0.66 0.821-1.32 1.64-2 2.49-0.816 1.08-1.63 2.17-2.44 3.26-0.531 0.704-1.06 1.41-1.61 2.13-18.6 24.7-35.4 50.4-51.4 76.9-0.514 0.848-1.03 1.7-1.56 2.57-4.89 8.09-9.47 16.2-13.6 24.7-2.09 4.27-4.3 8.49-6.51 12.7-0.42 0.799-0.839 1.6-1.27 2.42-2.27 4.31-4.59 8.59-6.96 12.8-6.4 11.5-12.1 23.1-17.5 35.2-2.17 4.82-4.46 9.56-6.85 14.3-2.43 4.82-4.86 9.63-7.19 14.5-0.727 1.51-0.727 1.51-1.47 3.04-1.09 2.92-1.65 4.7-1.03 7.77 5.87 5.02 14.7 3.84 22 4 1.08 0.0272 2.15 0.0545 3.26 0.0825 40.2 0.888 79.7-4.09 119-14.1 1.06-0.271 2.12-0.542 3.22-0.822 33.3-8.66 65.4-21.3 96.8-35.2 0.685-0.303 1.37-0.606 2.08-0.918 20.5-9.03 20.5-9.03 40.7-18.9 3.31-1.71 6.62-3.41 9.93-5.1 2.77-1.42 5.54-2.83 8.31-4.25 1.41-0.721 2.82-1.44 4.22-2.16 1.99-1.02 3.99-2.05 5.98-3.07 1.75-0.898 1.75-0.898 3.53-1.81 3.24-1.78 6.23-3.7 9.27-5.8-2.24-2.53-4.15-3.64-7.32-4.76-0.855-0.31-1.71-0.619-2.59-0.938-0.915-0.326-1.83-0.652-2.77-0.988-9.49-3.51-18.4-7.49-27.3-12.3-0.928-0.503-1.86-1.01-2.81-1.52-24.9-13.6-48.6-28.7-71.1-45.9-2.09-1.59-4.18-3.17-6.27-4.75-7.8-5.91-15.5-12-23.1-18.2-5.51-4.5-11.1-8.86-16.8-13.2-2.33-1.78-4.65-3.56-6.98-5.35-5.31-4.08-10.6-8.12-16-12.1-0.693-0.522-1.39-1.04-2.1-1.58-1.75-1.3-3.51-2.58-5.27-3.86-0.936-0.679-1.87-1.36-2.84-2.06-3.81-2.05-7.79-3.74-11.7-1.3z" fill="#000100"/>
<path transform="translate(1312 384)" d="m0 0c3.89 1.56 5.54 4.38 7.62 7.89 2.78 6.63-0.74 14.8-3.29 21-14.1 32.3-32.1 62.2-50.8 91.9-1.41 2.25-2.81 4.5-4.2 6.76-6.23 10.1-12.8 20-19.4 29.8-1.74 2.57-3.47 5.14-5.21 7.71-9.46 14-19.1 27.9-29.2 41.4-4.49 6.04-8.88 12.1-13.2 18.3-4.87 6.96-10 13.7-15.3 20.3-2.88 3.63-5.72 7.3-8.57 11-0.596 0.766-1.19 1.53-1.8 2.32-3.09 3.97-6.16 7.95-9.21 11.9-7.2 9.41-14.7 18.5-22.5 27.5-5.14 5.97-10.2 12-15.1 18.2-1.09 1.36-2.24 2.68-3.41 3.99h-2c-0.257 0.52-0.514 1.04-0.78 1.57-1.55 3.09-3.15 6.16-4.75 9.23-47.5 83.9-47.5 83.9-52.5 176 0.645 1.68 1.31 3.34 2 5 12 2.43 23.3-3.57 33.2-10 1.95-1.31 3.87-2.65 5.79-4 0.568-0.398 1.14-0.797 1.72-1.21 8.26-5.88 15.6-12.6 22.9-19.6 2.46-2.34 4.96-4.61 7.55-6.81 3.96-3.4 7.61-7.11 11.3-10.9 3.36-3.42 6.88-6.58 10.5-9.72 3.39-2.97 6.66-6.08 9.94-9.18 5.2-4.9 10.4-9.76 15.8-14.5 2.62-2.34 5.2-4.73 7.79-7.11 4.5-4.09 9.11-7.99 13.8-11.8 1.75-1.42 3.48-2.87 5.19-4.34 8.52-7.31 17.9-13.1 27.5-18.9 0.746-0.45 1.49-0.9 2.26-1.36 16.1-9.62 16.1-9.62 23.7-10.6 0.66 0.33 1.32 0.66 2 1-1 3-1 3-4.18 4.76-1.38 0.649-2.75 1.29-4.14 1.93-19.9 9.55-36.5 23.9-51.8 39.5-1.78 1.75-3.62 3.38-5.53 5-3.8 3.26-7.3 6.76-10.8 10.3-3.98 4.02-7.99 7.88-12.3 11.5-3.76 3.39-7.27 7.05-10.8 10.7-1.43 1.46-2.91 2.87-4.39 4.27h-2c-0.33 0.99-0.66 1.98-1 3-1.5 1.51-1.5 1.51-3.44 3.12-3.11 2.64-6.17 5.32-9.19 8.06-9.87 8.9-20 17.5-30.4 25.8-0.791 0.651-1.58 1.3-2.4 1.97-13.2 10.3-27.5 18.4-44.6 17-7.67-1.68-13.4-5.68-18-12-2.08-3.89-3.64-7.81-5-12-0.391-1.18-0.391-1.18-0.789-2.38-2.23-7.28-2.68-14-2.59-21.6 0.0152-1.78 0.0152-1.78 0.0308-3.59 0.175-10 1.15-19.6 3.34-29.4 0.298-1.33 0.298-1.33 0.602-2.68 3.36-14.5 7.99-28.4 13.4-42.3 0.5-1.3 0.5-1.3 1.01-2.63 6.39-16.6 14.1-32.5 22-48.4 0.476-0.968 0.953-1.94 1.44-2.93 5.59-11.3 11.4-22.6 17.3-33.7 1.22-2.31 2.43-4.63 3.63-6.95 4.96-9.54 10.1-18.9 15.4-28.3 3.6-6.33 7.15-12.7 10.7-19.1 7.23-13.1 14.8-26 22.5-38.8 2.06-3.39 4.11-6.79 6.17-10.2 12.4-20.4 24.8-40.8 38.2-60.6 1.84-2.75 3.66-5.52 5.48-8.29 7.53-11.5 15.3-22.6 23.8-33.4 2.07-2.65 4.08-5.35 6.09-8.04 11.5-15.4 23.6-30.3 36.1-44.9 2.94-3.41 5.8-6.87 8.62-10.4 4.59-5.67 9.56-11 14.5-16.3 2.35-2.51 4.65-5.06 6.89-7.67 11.7-13.6 11.7-13.6 16.6-13.6zm-6.5 30c-1.27 1.57-2.47 3.21-3.62 4.88-2.58 3.64-5.19 7.22-8 10.7-3.81 4.71-7.54 9.47-11.2 14.2-0.609 0.784-1.22 1.57-1.85 2.37-3.48 4.49-6.95 8.99-10.4 13.5-3.6 4.7-7.28 9.33-11 13.9-4.82 5.99-9.42 12.1-13.9 18.4-0.732 1.02-1.46 2.04-2.22 3.09-2.12 2.94-4.22 5.9-6.32 8.85-1.03 1.45-2.05 2.89-3.08 4.33-8.03 11.3-15.7 22.7-23 34.5-2.22 3.55-4.5 7.05-6.79 10.6-9.79 15.1-19.5 30.2-28.6 45.7-0.993 1.68-1.99 3.36-2.98 5.04-2.21 3.73-4.42 7.47-6.62 11.2-2.24 3.8-4.49 7.6-6.73 11.4-5.26 8.87-10.5 17.8-15.7 26.7-0.649 1.12-0.649 1.12-1.31 2.26-0.821 1.42-1.64 2.84-2.45 4.27-0.884 1.54-1.78 3.07-2.7 4.59-0.702 1.2-0.702 1.2-1.42 2.42-0.431 0.722-0.861 1.44-1.3 2.19-1.14 2.11-1.14 2.11 0.18 4.96 7.34-8.83 14.6-17.7 21.6-26.8 2.62-3.45 5.31-6.84 7.99-10.2 4.91-6.24 9.71-12.6 14.4-18.9 0.509-0.687 1.02-1.37 1.54-2.08 11.5-15.5 22.9-31.1 33.8-47.1 3.28-4.83 6.63-9.61 10.1-14.3 3.44-4.78 6.69-9.64 9.81-14.6 2.07-3.27 4.22-6.47 6.38-9.68 6.06-9.04 11.9-18.2 17.7-27.4 1.66-2.62 3.32-5.24 4.99-7.86 6.06-9.55 12-19.1 17.8-28.9 0.556-0.948 1.11-1.9 1.68-2.87 6.54-11.2 13-22.4 19.1-33.8 0.603-1.12 0.603-1.12 1.22-2.26 2.25-4.29 3.8-8.35 4.97-13h-2z" fill="#000100"/>
<path transform="translate(856,913)" d="m0 0c3.4-0.0875 6.79-0.141 10.2-0.188 0.96-0.0251 1.92-0.0503 2.91-0.0762 8.98-0.0932 8.98-0.0932 12.9 3.26 1.55 3.09 1.29 5.59 1 9-1.88 2.44-1.88 2.44-4 4h-2c0.266 0.641 0.531 1.28 0.805 1.94 3.23 7.92 3.23 7.92 4.26 12 0.905 2.96 1.53 4.2 3.94 6.06-1 1-1 1-4.06 1.06-0.969-0.0206-1.94-0.0412-2.94-0.0625-3.07-6.14-4.06-12.2-5-19-2.97-0.33-5.94-0.66-9-1v18c1.32 0.33 2.64 0.66 4 1h-12c1.49-0.495 1.49-0.495 3-1v-34c-1.32-0.33-2.64-0.66-4-1zm9 2c-0.0989 2.16-0.13 4.33-0.125 6.5-0.00258 1.19-0.00516 2.37-0.00781 3.59-0.199 2.8-0.199 2.8 1.13 3.91 1.85 0.0723 3.71 0.0838 5.56 0.0625 1.01-0.00902 2.02-0.018 3.07-0.0273 0.782-0.0116 1.56-0.0232 2.37-0.0352 1.99-4.48 2.16-7.17 1-12-1.65-2.22-2.47-2.92-5.23-3.33-0.791 0.0258-1.58 0.0516-2.4 0.0781-0.797 0.0155-1.59 0.0309-2.41 0.0469-1.96-0.00492-1.96-0.00492-2.96 1.2z" fill="#000100"/>
<path transform="translate(931,914)" d="m0 0h2c0.307 0.954 0.614 1.91 0.93 2.89 1.15 3.55 2.32 7.08 3.49 10.6 0.506 1.53 1.01 3.06 1.5 4.59 0.711 2.21 1.44 4.41 2.18 6.61 0.215 0.684 0.43 1.37 0.651 2.07 1.16 3.38 1.97 5.03 4.92 7.11 0.765 0.365 1.53 0.73 2.32 1.11v1h-12c-0.33-0.66-0.66-1.32-1-2 0.99-0.495 0.99-0.495 2-1-0.33-1.98-0.66-3.96-1-6h-13c-0.66 1.98-1.32 3.96-2 6 1.32 0.66 2.64 1.32 4 2-6.05 0.977-6.05 0.977-8 1-0.66-0.66-1.32-1.32-2-2 0.608-0.527 1.22-1.05 1.84-1.6 2.55-2.84 3.47-5.25 4.7-8.85 0.651-1.86 0.651-1.86 1.31-3.76 0.444-1.31 0.887-2.61 1.33-3.92 0.454-1.31 0.909-2.63 1.37-3.94 0.832-2.4 1.66-4.8 2.48-7.2 0.968-2.73 0.968-2.73 1.97-4.73zm-2 9c-0.703 1.72-1.39 3.45-2.06 5.19-0.383 0.963-0.766 1.93-1.16 2.92-0.834 3.1-0.664 4.84 0.223 7.89h9c1.18-4.71 0.489-5.93-1.44-10.2-0.473-1.08-0.946-2.16-1.43-3.27-0.373-0.82-0.745-1.64-1.13-2.48h-2z" fill="#000100"/>
<path transform="translate(1210,913)" d="m0 0c2.63 2.63 3.12 5.03 4.24 8.58 0.431 1.34 0.862 2.68 1.29 4.01 0.671 2.11 1.34 4.21 2 6.32 0.643 2.04 1.3 4.07 1.96 6.1 0.578 1.83 0.578 1.83 1.17 3.69 1.36 3.34 2.95 5.61 5.34 8.29h-10c-0.33-0.66-0.66-1.32-1-2h2c-0.66-2.31-1.32-4.62-2-7-4.29-0.33-8.58-0.66-13-1-0.167 3.42-0.167 3.42 0 7 0.66 0.66 1.32 1.32 2 2-4.45 0.495-4.45 0.495-9 1-0.33-0.66-0.66-1.32-1-2 1.09-0.833 1.09-0.833 2.21-1.68 4.37-4.37 5.64-10.6 7.48-16.4 0.773-2.35 1.55-4.69 2.32-7.04 0.335-1.04 0.67-2.07 1.01-3.14 0.839-2.38 1.78-4.54 2.97-6.76zm-2 9c-0.866 2.27-1.72 4.54-2.56 6.81-0.247 0.643-0.494 1.29-0.748 1.95-1.54 4.06-1.54 4.06-0.689 8.24h10c1.3-2.06 1.3-2.06 0.328-4.71-0.356-1.06-0.712-2.13-1.08-3.22-0.345-1.06-0.691-2.12-1.05-3.21-1.12-2.66-2.01-4.04-4.2-5.85z" fill="#000100"/>
<path transform="translate(759,913)" d="m0 0h2c1.57 4.66 3.14 9.32 4.7 14 0.532 1.59 1.07 3.17 1.6 4.76 0.767 2.28 1.53 4.56 2.29 6.84 0.241 0.712 0.481 1.42 0.729 2.16 1.68 5.03 1.68 5.03 1.68 7.26 1.32 0.33 2.64 0.66 4 1v1c-1.26 0.0412-2.52 0.0825-3.81 0.125-0.708 0.0232-1.42 0.0464-2.14 0.0703-2.04-0.195-2.04-0.195-5.04-2.2 0.186-0.598 0.371-1.2 0.562-1.81 0.658-2.35 0.658-2.35-0.562-5.19-4.29-0.66-8.58-1.32-13-2-0.66 2.64-1.32 5.28-2 8 1.32 0.66 2.64 1.32 4 2-1.46 0.222-2.92 0.427-4.38 0.625-0.812 0.116-1.62 0.232-2.46 0.352-0.714 0.00773-1.43 0.0155-2.16 0.0234-0.66-0.66-1.32-1.32-2-2 0.589-0.161 1.18-0.322 1.79-0.488 3.49-2.38 4.26-5.82 5.65-9.7 0.298-0.798 0.596-1.6 0.903-2.42 2.74-7.4 5.25-14.9 7.66-22.4zm-1 9c-0.839 2.1-1.67 4.21-2.5 6.31-0.464 1.17-0.928 2.34-1.41 3.55-1.26 3.06-1.26 3.06-1.09 6.14 3.47 1.16 6.36 1.07 10 1 1.69-4.08 0.169-6.83-1.44-10.8-0.473-1.17-0.946-2.34-1.43-3.55-0.373-0.892-0.745-1.78-1.13-2.7h-1z" fill="#000100"/>
<path transform="translate(977,913)" d="m0 0c1.41-0.136 2.83-0.232 4.25-0.312 0.789-0.058 1.58-0.116 2.39-0.176 3.59 0.742 4.32 2.45 6.36 5.49 2.14 3.36 4.21 6.76 6.25 10.2 0.554 0.915 1.11 1.83 1.68 2.77 0.523 0.873 1.05 1.75 1.59 2.65 0.716 1.19 0.716 1.19 1.45 2.41 1.04 1.98 1.04 1.98 1.04 3.98h2c1.62 1 1.62 1 3 3 0.263 2.72 0.135 5.26 0 8-3.51-1.17-3.83-1.86-5.71-4.9-0.502-0.804-1-1.61-1.52-2.44-0.523-0.858-1.05-1.72-1.59-2.6-0.536-0.863-1.07-1.73-1.62-2.61-3.24-5.23-6.43-10.5-9.48-15.8-1-1.78-1-1.78-3.09-2.62 0.0805 4.46 0.193 8.92 0.312 13.4 0.0226 1.27 0.0451 2.54 0.0684 3.85 0.0354 1.21 0.0709 2.42 0.107 3.67 0.0262 1.12 0.0524 2.24 0.0793 3.4 0.143 0.893 0.285 1.79 0.432 2.71 0.99 0.66 1.98 1.32 3 2-3.58 1.24-6.34 0.749-10 0 0.652-0.345 1.3-0.689 1.98-1.04 2.36-1.87 2.36-1.87 2.48-5.23-6.31e-4 -1.34-0.0231-2.68-0.0635-4.01-0.00849-1.06-0.00849-1.06-0.0172-2.14-0.0224-2.25-0.0726-4.5-0.123-6.76-0.0201-1.53-0.0383-3.06-0.0547-4.58-0.0441-3.74-0.113-7.49-0.195-11.2h-5v-1z" fill="#000100"/>
<path transform="translate(1048,914)" d="m0 0c0.66 0.33 1.32 0.66 2 1-0.976 1.18-0.976 1.18-1.97 2.38-2.87 4.31-2.58 8.6-2.46 13.6-0.0106 1.31-0.0106 1.31-0.0215 2.66 0.0507 5.18 0.571 8.88 3.46 13.3 2.2 1.63 3.28 2.04 6 1.88 2.93-1.28 4.17-2.19 6-4.88 0.497-3.38 0.651-6.64 0-10-0.99-0.66-1.98-1.32-3-2h13c-3 2-3 2-5 2 0.144 1.15 0.289 2.31 0.438 3.5 0.0447 5.01-2.38 7.43-5.71 10.9-1.94 1.76-3.05 2.52-5.68 2.69-3.47-0.189-6.09-0.391-8.9-2.54-5.3-5.92-6.66-11.9-6.54-19.7 0.65-4.81 2.63-8.92 5.39-12.9 0.99-0.66 1.98-1.32 3-2z" fill="#000100"/>
<path transform="translate(1256,913)" d="m0 0h15v1h-6v34c0.99 0.33 1.98 0.66 3 1-1 1-1 1-4.44 1.19-3.56-0.188-3.56-0.188-5.56-2.19h2v-34c-1.32-0.33-2.64-0.66-4-1z" fill="#000100"/>
<path transform="translate(685,913)" d="m0 0h19v1c-0.957 0.0909-0.957 0.0909-1.93 0.184-0.826 0.0838-1.65 0.168-2.5 0.254-1.24 0.122-1.24 0.122-2.5 0.246-2.05 0.106-2.05 0.106-3.07 1.32-0.0884 2.38-0.115 4.72-0.0977 7.1 0.00212 1.06 0.00212 1.06 0.00429 2.15 0.00561 2.27 0.0182 4.54 0.0309 6.82 0.00501 1.54 0.00958 3.07 0.0137 4.61 0.011 3.78 0.0283 7.55 0.0488 11.3 0.99 0.33 1.98 0.66 3 1-4.46 0.495-4.46 0.495-9 1-0.33-0.66-0.66-1.32-1-2h2v-34c-1.32-0.33-2.64-0.66-4-1z" fill="#000100"/>
<path transform="translate(1137,913)" d="m0 0h15v1h-6c-0.33 11.2-0.66 22.4-1 34 1.65 0.33 3.3 0.66 5 1v1h-12v-2h3c0.0247-4.38 0.0429-8.76 0.0549-13.1 0.00503-1.49 0.0119-2.98 0.0205-4.47 0.0121-2.14 0.0178-4.28 0.0222-6.42 0.00524-1.29 0.0105-2.58 0.0159-3.9 0.102-2.99 0.102-2.99-1.11-5.07-0.99-0.66-1.98-1.32-3-2z" fill="#000100"/>
<path transform="translate(813,913)" d="m0 0h15v1h-5c0.0105 0.68 0.0209 1.36 0.0317 2.06 0.042 3.13 0.0677 6.25 0.0933 9.38 0.0168 1.07 0.0335 2.14 0.0508 3.24 0.0967 15.8 0.0967 15.8-3.75 20.1-0.471 0.415-0.941 0.829-1.43 1.26-0.99-0.33-1.98-0.66-3-1 0.66-0.99 1.32-1.98 2-3 0.386-3.07 0.386-3.07 0.449-6.57 0.0648-1.93 0.0648-1.93 0.131-3.91 0.0175-0.671 0.035-1.34 0.053-2.03 0.0543-2.05 0.125-4.1 0.197-6.16 0.581-6.35 0.581-6.35-0.83-12.3-1.32-0.66-2.64-1.32-4-2z" fill="#000100"/>
<path transform="translate(970,996)" d="m0 0 4 1c-0.174 0.633-0.348 1.27-0.527 1.92-0.643 4.19-0.325 8.18-0.0352 12.4 0.0522 0.836 0.104 1.67 0.158 2.53 0.129 2.05 0.266 4.1 0.404 6.15h-5c-0.0289-3.62-0.0468-7.25-0.0625-10.9-0.00838-1.03-0.0168-2.07-0.0254-3.13-0.00322-0.986-0.00645-1.97-0.00977-2.99-0.00524-0.911-0.0105-1.82-0.0159-2.76 0.114-2.25 0.114-2.25 1.11-4.25z" fill="#000100"/>
<path transform="translate(698,930)" d="m0 0c3.86-0.463 7.43-0.855 10.9 1.05 3 2.66 4.46 4.97 4.75 9.01-0.817 4.68-1.84 6.2-5.69 8.94-2.81 0.312-2.81 0.312-5 0 0.639-0.351 1.28-0.701 1.94-1.06 2.34-1.87 2.34-1.87 3-5.19 0.079-4.74-0.38-6.75-2.94-10.8-3.59-1.06-3.59-1.06-7-1v-1z" fill="#000100"/>
<path transform="translate(1039,996)" d="m0 0c2.22-0.406 2.22-0.406 5 0 1.78 2.17 3.11 4.1 4.5 6.5 0.581 0.958 0.581 0.958 1.17 1.93 0.769 1.27 1.53 2.54 2.29 3.82 1.31 2.2 2.71 4.35 4.1 6.49 1.94 3.25 1.94 3.25 1.94 5.25-4.42-1.49-6.11-4.89-8.38-8.69-3.2-5.18-6.52-9.79-10.6-14.3v-1z" fill="#000100"/>
<path transform="translate(1265,995)" d="m0 0c2.47 0.495 2.47 0.495 5 1 0.338 1.05 0.675 2.1 1.02 3.18 0.45 1.38 0.901 2.76 1.35 4.14 0.333 1.04 0.333 1.04 0.672 2.09 1.05 3.2 2.07 5.77 3.95 8.6 0.125 2.69 0.125 2.69 0 5-0.99 0.33-1.98 0.66-3 1-0.597-1.86-0.597-1.86-1.21-3.76-0.535-1.64-1.07-3.28-1.61-4.93-0.261-0.817-0.522-1.63-0.791-2.47-1.41-4.31-2.95-7.99-5.4-11.8v-2z" fill="#000100"/>
<path transform="translate(1352,996)" d="m0 0h6c-0.99 0.495-0.99 0.495-2 1-0.17 11.5-0.17 11.5 1 23h-5v-24z" fill="#000100"/>
<path transform="translate(953,996)" d="m0 0h5c0.794 1.87 1.59 3.75 2.38 5.62 0.661 1.57 0.661 1.57 1.34 3.16 3.73 9.3 3.73 9.3 2.29 14.2-2.92-2.43-3.57-4.46-4.38-8.12-1.38-5.54-3.61-10.1-6.62-14.9z" fill="#000100"/>
<path transform="translate(1006,996)" d="m0 0c2.39 2.14 3.54 3.88 4.57 6.91 0.257 0.744 0.513 1.49 0.777 2.25 0.257 0.772 0.513 1.54 0.777 2.34 0.264 0.772 0.529 1.54 0.801 2.34 0.7 2.05 1.39 4.1 2.07 6.16 0.33 0.99 0.66 1.98 1 3 0.66 0.33 1.32 0.66 2 1h-7c-0.0825-0.949-0.165-1.9-0.25-2.88-0.45-3.32-1.49-6.06-2.81-9.12-1.82-4.3-2.34-7.37-1.94-12z" fill="#000100"/>
<path transform="translate(1319,996)" d="m0 0c2 1 2 1 2.75 2.79 0.228 0.765 0.456 1.53 0.691 2.32 0.255 0.836 0.51 1.67 0.773 2.53 0.26 0.88 0.521 1.76 0.789 2.67 0.518 1.73 1.04 3.45 1.56 5.18 0.228 0.769 0.456 1.54 0.691 2.33 0.745 2.18 1.67 4.15 2.75 6.18h-6c-0.103-0.969-0.206-1.94-0.312-2.94-1.06-7.6-1.06-7.6-4.69-14.1 0.287-2.34 0.619-4.67 1-7z" fill="#000100"/>
<path transform="translate(1222,996)" d="m0 0h6c-0.99 0.495-0.99 0.495-2 1 0.0811 3.08 0.194 6.17 0.312 9.25 0.0226 0.873 0.0451 1.75 0.0684 2.64 0.174 6.16 0.174 6.16 3.62 11.1-1.65-0.33-3.3-0.66-5-1-1.97-5.02-2.41-9.56-2.62-14.9-0.0387-0.784-0.0773-1.57-0.117-2.38-0.0935-1.92-0.177-3.83-0.258-5.75z" fill="#000100"/>
<path transform="translate(1282,996)" d="m0 0h4v24h-5c0.495-1.49 0.495-1.49 1-3 0.0954-2.1 0.13-4.21 0.125-6.31 0.00258-1.11 0.00516-2.22 0.00781-3.36-0.0604-3.33-0.0604-3.33-0.703-6.62-0.43-2.71-0.43-2.71 0.57-4.71z" fill="#000100"/>
<path transform="translate(1180,995)" d="m0 0c2.97 0.495 2.97 0.495 6 1l-2 1c0.0722 0.846 0.144 1.69 0.219 2.56 0.851 10.4 0.851 10.4 0.781 15.1-0.247 3.19-0.247 3.19 1 5.31h-6c0.162-0.659 0.325-1.32 0.492-2 0.626-3.7 0.653-7.33 0.633-11.1 0.00387-0.707 0.00773-1.41 0.0117-2.14-0.00639-3.4-0.0722-6.54-1.14-9.79z" fill="#000100"/>
<path transform="translate(1094,997)" d="m0 0c3 1 3 1 4.69 2.94 1.89 4.4 2 8.35 1.31 13.1-2.7 5.49-2.7 5.49-6.25 6.88-0.578 0.0412-1.15 0.0825-1.75 0.125 0.712-0.897 0.712-0.897 1.44-1.81 3.33-4.66 2.93-9.68 2.56-15.2-0.871-3.46-0.871-3.46-2-6z" fill="#000100"/>
<path transform="translate(1084,998)" d="m0 0c1 2 1 2 0.562 3.69-1.32 5.44-0.661 10.2 1.44 15.3 0.66 0.99 1.32 1.98 2 3-3.43-0.927-4.77-1.66-6.81-4.62-1.4-3.98-1.97-7.21-1.19-11.4 1.12-2.3 2.39-3.98 4-6z" fill="#000100"/>
<path transform="translate(704,914)" d="m0 0c2.93 0.317 4.59 0.632 6.81 2.62 1.65 3.3 1.58 5.73 1.19 9.38-1.44 1.94-1.44 1.94-3 3h-1c-0.0374-0.664-0.0748-1.33-0.113-2.01-0.377-5.06-0.699-8.83-3.89-13z" fill="#000100"/>
<path transform="translate(1e3 913)" d="m0 0h11c-0.484 0.707-0.969 1.41-1.47 2.14-1.69 3.14-1.95 5.06-2.04 8.6-0.0354 1.07-0.0709 2.13-0.107 3.23-0.0226 1.1-0.0451 2.21-0.0684 3.34-0.0342 1.12-0.0683 2.24-0.104 3.4-0.0823 2.76-0.151 5.52-0.209 8.29h-1c-0.0198-0.711-0.0396-1.42-0.0601-2.16-0.0952-3.22-0.205-6.44-0.315-9.66-0.0309-1.12-0.0619-2.24-0.0938-3.39-0.0387-1.07-0.0773-2.15-0.117-3.25-0.0314-0.99-0.0628-1.98-0.0952-3-0.157-2.78-0.157-2.78-2.32-5.54-0.99-0.66-1.98-1.32-3-2z" fill="#000100"/>
<path transform="translate(1187 1e3)" d="m0 0c1.8 0.164 1.8 0.164 4 1 1.63 2.4 1.63 2.4 3.12 5.38 1.53 3.01 3 5.81 4.88 8.62h-6c-0.266-0.748-0.531-1.5-0.805-2.27-0.353-0.985-0.706-1.97-1.07-2.98-0.348-0.975-0.696-1.95-1.05-2.95-0.903-2.36-1.89-4.57-3.07-6.8z" fill="#000100"/>
<path transform="translate(1163,937)" d="m0 0h1c0.0269 1.98 0.0463 3.96 0.0625 5.94 0.0116 1.1 0.0232 2.2 0.0352 3.34-0.0977 2.72-0.0977 2.72-1.1 3.72-2.02 0.0724-4.04 0.0838-6.06 0.0625-1.1-0.00902-2.21-0.018-3.35-0.0273-1.28-0.0174-1.28-0.0174-2.59-0.0352v-1c4.45-0.495 4.45-0.495 9-1 0.99-3.63 1.98-7.26 3-11z" fill="#000100"/>
<path transform="translate(1362,1007)" d="m0 0c3 1 3 1 3.88 2.71 0.226 0.695 0.451 1.39 0.684 2.11 0.974 2.86 2 5.53 3.44 8.19h-6c-0.66-4.29-1.32-8.58-2-13z" fill="#000100"/>
<path transform="translate(1283,937)" d="m0 0h1c-0.14 1.98-0.287 3.96-0.438 5.94-0.0812 1.1-0.162 2.2-0.246 3.34-0.316 2.72-0.316 2.72-1.32 3.72-2.19 0.0726-4.38 0.0837-6.56 0.0625-1.8-0.0135-1.8-0.0135-3.63-0.0273-0.927-0.0116-1.85-0.0232-2.81-0.0352v-1c0.675-0.0284 1.35-0.0567 2.05-0.0859 2.94-0.315 5.24-0.706 7.95-1.91 2.07-3.15 3.1-6.36 4-10z" fill="#000100"/>
<path transform="translate(1057,914)" d="m0 0c2.97 0.33 5.94 0.66 9 1 0.33 3.63 0.66 7.26 1 11-2.21-2.21-3.83-4.04-5.56-6.56-1.4-2.03-2.68-3.68-4.44-5.44z" fill="#000100"/>
<path transform="translate(1128 1e3)" d="m0 0c3.75 4.99 3.59 7.98 3 14-1 3.12-1 3.12-2 5h-2c0.33-6.27 0.66-12.5 1-19z" fill="#000100"/>
<path transform="translate(807,939)" d="m0 0c0.99 0.33 1.98 0.66 3 1-0.66 1.32-1.32 2.64-2 4h-2c1.98 2.97 1.98 2.97 4 6-4.88-1.88-4.88-1.88-6-3-0.25-2.38-0.25-2.38 0-5 1.5-1.81 1.5-1.81 3-3z" fill="#000100"/>
<path transform="translate(1359,996)" d="m0 0c5.62-0.25 5.62-0.25 9 2 0.375 3 0.375 3 0 6-0.99 0.66-1.98 1.32-3 2-1.48-2.96-1.06-5.74-1-9h-5v-1z" fill="#000100"/>
<path transform="translate(1315,1007)" d="m0 0c1.6 4.01 0.252 7.02-1 11v2h-5c0.524-1.03 0.524-1.03 1.06-2.08 0.455-0.901 0.91-1.8 1.38-2.73 0.452-0.893 0.905-1.79 1.37-2.71 1.27-2.52 1.27-2.52 2.19-5.48z" fill="#000100"/>
<path transform="translate(1055,996)" d="m0 0h4c-0.33 5.28-0.66 10.6-1 16h-1c-0.0606-0.987-0.121-1.97-0.184-2.99-0.0838-1.28-0.168-2.56-0.254-3.88-0.0812-1.28-0.162-2.55-0.246-3.87-0.108-3.14-0.108-3.14-1.32-5.26z" fill="#000100"/>
<path transform="translate(1e3 1014)" d="m0 0c2 3.75 2 3.75 2 6h-5l3-6z" fill="#000100"/>
<path transform="translate(1119,1014)" d="m0 0c0.99 0.33 1.98 0.66 3 1v4c-0.99-0.33-1.98-0.66-3-1v-4z" fill="#000100"/>
<path transform="translate(1193,996)" d="m0 0h6c-1.65 1.32-3.3 2.64-5 4-0.33-1.32-0.66-2.64-1-4z" fill="#000100"/>
<path transform="translate(1126,996)" d="m0 0h7c-2 2-2 2-5 4v-3c-0.66-0.33-1.32-0.66-2-1z" fill="#000100"/>
<path transform="translate(1264,1018)" d="m0 0h6c-0.33 0.66-0.66 1.32-1 2h-5v-2z" fill="#000100"/>
<path transform="translate(955 1e3)" d="m0 0h1v11h-1v-11z" fill="#000100"/>
<path transform="translate(1041,1017)" d="m0 0 3 3h-5v-2c0.66-0.33 1.32-0.66 2-1z" fill="#000100"/>
<path transform="translate(955,1017)" d="m0 0c0.66 0.33 1.32 0.66 2 1v2h-5l3-3z" fill="#000100"/>
<path transform="translate(1e3 1009)" d="m0 0c0.33 0.99 0.66 1.98 1 3h6v1h-7v-4z" fill="#000100"/>
<path transform="translate(1240 1e3)" d="m0 0h1v10h-1v-10z" fill="#000100"/>
<path transform="translate(1238,996)" d="m0 0h5c-1.32 1.65-2.64 3.3-4 5-0.33-1.65-0.66-3.3-1-5z" fill="#000100"/>
<path transform="translate(1086,996)" d="m0 0h8v1h-8v-1z" fill="#000100"/>
<path transform="translate(1050,913)" d="m0 0h7v1h-7v-1z" fill="#000100"/>
<path transform="translate(1041,1009)" d="m0 0h1v6h-1v-6z" fill="#000100"/>
<path transform="translate(810,950)" d="m0 0h5v1h-5v-1z" fill="#000100"/>
<path transform="translate(1239,1014)" d="m0 0 1 4z" fill="#000100"/>
<path transform="translate(1317,1012)" d="m0 0 4 1z" fill="#000100"/>
<path transform="translate(1236,1019)" d="m0 0 2 1z" fill="#000100"/>
</svg>
