<?xml version="1.0" encoding="UTF-8"?>
<svg version="1.1" viewBox="0 0 1600 1128" width="1280" height="1280" xmlns="http://www.w3.org/2000/svg">
<path transform="translate(491,252)" d="m0 0c1.89 0.558 3.77 1.11 5.67 1.65 27.5 7.75 50.7 20.9 73.3 38.4 0.92 0.709 1.84 1.42 2.79 2.15 1.98 1.66 3.58 3.29 5.21 5.29 1.7 2.09 3.43 3.99 5.36 5.88 19.9 20.2 32.5 47.3 38.6 74.7l0.56 2.47c2.81 12.9 3.82 25.5 3.81 38.7 0.00181 0.693 0.00363 1.39 0.00549 2.1-0.00269 9.07-0.77 17.8-2.38 26.7-0.188 1.25-0.376 2.49-0.57 3.78-2.65 15.1-8.24 38-19.4 49.2-2.18 0.241-2.18 0.241-4.91 0.227-1.02-1.51e-4 -2.04-3.02e-4 -3.09-4.58e-4 -1.11-0.0103-2.21-0.0206-3.35-0.0313-1.13-0.00283-2.26-0.00566-3.42-0.00858-3.62-0.0112-7.23-0.0363-10.9-0.0617-2.45-0.01-4.9-0.0192-7.34-0.0273-6.01-0.0221-12-0.0556-18-0.0977 0.655-3.55 1.5-6.22 3.25-9.38 10.4-20.4 13.7-44 14.8-66.6 0.04-0.761 0.0799-1.52 0.121-2.31 0.934-20.2-2.55-40.4-8.12-59.7-0.295-1.09-0.59-2.18-0.895-3.3-3.69-12.4-10.7-24-17.9-34.7-1.21-2-1.21-2-1.21-4h-2c-0.935-1.35-1.86-2.71-2.75-4.09-4.19-6.37-8.8-11.7-14.8-16.5-0.496-0.465-0.993-0.931-1.5-1.41v-2c-0.575-0.264-1.15-0.529-1.74-0.801-2.37-1.26-4.29-2.7-6.38-4.39-12.2-9.55-25.4-18.2-39.9-23.8-1.78-0.706-1.78-0.706-3.61-1.43-25.6-9.96-53.2-15.5-80.6-16.3-0.692-0.019-1.38-0.0379-2.1-0.0575-41-1.09-80.2 4.15-119 16.8-0.806 0.257-1.61 0.514-2.44 0.779-0.722 0.232-1.44 0.465-2.19 0.704-1.81 0.503-1.81 0.503-3.81 0.503-0.33 76.2-0.66 152-1 231-3.66 0.732-6.35 1.12-9.97 1.11-0.961-7.55e-5 -1.92-1.51e-4 -2.91-2.29e-4 -1.02-0.00516-2.05-0.0103-3.1-0.0156-1.06-0.00141-2.12-0.00283-3.21-0.00429-3.37-0.00559-6.74-0.0181-10.1-0.0309-2.29-0.00502-4.58-0.00958-6.87-0.0137-5.61-0.011-11.2-0.0277-16.8-0.0488-0.984-2.95-1.13-4.89-1.15-7.97-0.00834-1.03-0.0167-2.05-0.0253-3.11-0.00628-1.69-0.00628-1.69-0.0127-3.41-0.00829-1.19-0.0166-2.38-0.0251-3.6-0.022-3.27-0.0397-6.53-0.0558-9.8-0.0182-3.44-0.0427-6.88-0.0666-10.3-0.055-8.04-0.103-16.1-0.15-24.1-0.0593-10.1-0.121-20.3-0.191-30.4-0.0233-3.41-0.0449-6.82-0.0621-10.2 1.72-61 1.72-61-16.3-118-0.454-0.887-0.908-1.77-1.38-2.69-5.65-8.05-15.1-12.8-24.7-14.7-3.29-0.488-6.55-0.814-9.86-1.07-3.08-0.52-3.08-0.52-5.07-1.82-1.01-1.7-1.01-1.7-0.575-3.81 0.279-0.937 0.279-0.937 0.563-1.89 1.43-0.0088 1.43-0.0088 2.88-0.0178 79.2-0.34 79.2-0.34 158-6.65 5.97-0.675 12-1.14 18-1.63 4.73-0.396 9.43-0.853 14.1-1.45 45.4-5.64 108-12.1 151 5.75z" fill="#000100"/>
<path transform="translate(875,256)" d="m0 0h210c0.33 0.99 0.66 1.98 1 3-0.33 0.66-0.66 1.32-1 2-5.97 1.93-12.3 2.24-18.6 2.58-18 1.01-35.2 5.21-47.9 18.9-9.85 12-11.8 26.2-10.6 41.5 1.94 18.9 7.72 36.5 14 54.4 0.386 1.1 0.386 1.1 0.779 2.22 2.81 7.98 5.75 15.9 9.06 23.6 1.88 4.48 3.58 9.03 5.29 13.6 2.61 6.99 2.61 6.99 5.45 13.9 1.48 3.42 2.81 6.87 4.11 10.4 0.251 0.672 0.503 1.34 0.761 2.04 1.54 4.13 3.05 8.27 4.54 12.4 3.12 8.66 6.24 17.3 9.84 25.7 1.36 3.21 2.68 6.44 3.98 9.68 0.419 1.04 0.838 2.08 1.27 3.15 0.918 2.91 0.918 2.91 0.918 7.91h-53v-2h-2c-0.559-1.49-1.12-2.98-1.68-4.47-0.52-1.39-1.04-2.77-1.56-4.16-1.64-4.38-3.28-8.76-4.92-13.1-3.71-9.92-7.45-19.8-11.3-29.7-2.75-7.04-5.36-14.1-7.95-21.2-2.33-6.35-4.71-12.7-7.27-18.9-3-7.41-5.73-14.9-8.42-22.4-2.17-6.04-4.47-12-6.89-17.9-0.385-0.945-0.771-1.89-1.17-2.86-1.27-3.05-2.55-6.09-3.83-9.14-0.321-0.768-0.643-1.54-0.974-2.33-4.94-11.8-10.2-23.3-16-34.7-0.668-1.34-1.33-2.68-2-4.03-11.1-23-11.1-23-29-40v-2c-0.681-0.248-1.36-0.495-2.06-0.75-2.94-1.25-2.94-1.25-6.25-3.19-7.13-4.11-13.7-5.52-21.8-6.44-2.86-0.625-2.86-0.625-4.8-1.94-0.347-0.557-0.694-1.11-1.05-1.69 0.33-1.32 0.66-2.64 1-4z" fill="#000100"/>
<path transform="translate(402,677)" d="m0 0c8.5-0.116 17-0.205 25.5-0.259 3.95-0.0261 7.9-0.0614 11.8-0.118 3.81-0.0545 7.62-0.0843 11.4-0.0972 1.45-0.00921 2.9-0.0272 4.36-0.0543 12.8-0.229 12.8-0.229 16.6 2.86 6.21 7.5 6.21 7.5 6.21 10.7 0.99 0.33 1.98 0.66 3 1 1.37 2.06 1.37 2.06 3 5 0.808 1.29 1.62 2.57 2.45 3.85 0.437 0.688 0.874 1.38 1.32 2.08 0.908 1.43 1.82 2.85 2.73 4.27 0.434 0.686 0.869 1.37 1.32 2.08 0.395 0.618 0.789 1.24 1.2 1.87 1.03 1.93 1.54 3.7 1.98 5.84h2c1.32 1.93 2.56 3.92 3.75 5.94 0.72 1.21 1.44 2.41 2.16 3.61 0.355 0.592 0.71 1.18 1.08 1.8 1.31 2.14 2.71 4.21 4.14 6.28 2.15 3.18 4.01 6.42 5.81 9.81 2.51 4.7 5.37 8.98 8.48 13.3 1.32 1.89 2.48 3.75 3.59 5.77 1.59 2.89 3.4 5.56 5.31 8.25 10.7 15.1 10.7 15.1 10.7 18.2h2c1.66 2.02 1.66 2.02 3.62 4.81 1.06 1.5 1.06 1.5 2.14 3.02 0.736 1.04 1.47 2.09 2.23 3.16 1.43 1.98 2.87 3.96 4.31 5.94 0.636 0.875 1.27 1.75 1.93 2.65 1.14 1.55 2.3 3.09 3.49 4.6 1.27 1.81 1.27 1.81 1.27 3.81 0.99 0.33 1.98 0.66 3 1 0.333 1.33 0.667 2.67 1 4 0.99 0.33 1.98 0.66 3 1 1.18 1.39 1.18 1.39 2.44 3.25 3.36 4.68 7.21 8.81 11.2 13 2.42 2.58 4.78 5.17 7.02 7.92 2.02 2.4 4 4.43 6.38 6.45 0.681 0.584 1.36 1.17 2.06 1.77 1.62 1.34 3.27 2.64 4.94 3.92 0.66 0.557 1.32 1.11 2 1.69v2c0.763 0.268 1.53 0.536 2.31 0.812 2.61 1.15 3.76 2.17 5.69 4.19 0.99 0.33 1.98 0.66 3 1 0.33 0.66 0.66 1.32 1 2 2.15 1.2 4.29 2.31 6.5 3.38 0.636 0.312 1.27 0.623 1.93 0.944 4.81 2.34 9.64 4.62 14.6 6.68 0.639 0.276 1.28 0.552 1.94 0.836 4.7 1.92 9.36 2.86 14.4 3.69 3.63 0.635 7.14 1.53 10.7 2.47v4c-6.42 0.734-12.7 1.15-19.2 1.16-0.86 0.00496-1.72 0.00993-2.61 0.015-2.81 0.0145-5.62 0.0214-8.43 0.0269-0.969 0.00283-1.94 0.00565-2.94 0.00857-5.12 0.0149-10.2 0.0242-15.4 0.0285-5.26 0.00549-10.5 0.0295-15.8 0.058-4.08 0.0187-8.15 0.0238-12.2 0.0254-1.94 0.00301-3.88 0.011-5.81 0.0242-15.9 0.101-29.1-0.479-41.3-11.8-0.784-0.846-1.57-1.69-2.38-2.56-0.496-0.465-0.993-0.931-1.5-1.41-8.79-8.3-15.7-18.6-22.5-28.6-0.989-1.44-1.98-2.88-2.97-4.32-8.77-12.8-17.4-25.6-25.8-38.6-3.01-4.71-6.11-9.35-9.22-14-2.6-3.92-5.14-7.89-7.68-11.9-2.41-3.76-4.87-7.5-7.36-11.2-3.28-4.89-6.47-9.83-9.64-14.8-2.45-3.83-4.95-7.63-7.48-11.4-2.65-3.96-5.28-7.94-7.88-11.9-0.577-0.889-1.15-1.78-1.75-2.7-1.25-2.18-1.25-2.18-1.25-4.18h-2c-1.52-2.18-2.93-4.36-4.31-6.62-2.28-3.72-4.54-7.3-7.37-10.6-2.08-2.46-3.56-4.88-5.1-7.69-4.2-7.06-9.38-13.5-15-19.5-1.25-1.56-1.25-1.56-1.25-3.56z" fill="#000100"/>
<path transform="translate(211 677)" d="m0 0c1.04-0.00315 2.08-0.0063 3.14-0.00955 1.69 0.00304 1.69 0.00304 3.42 0.00613 1.73-0.00144 1.73-0.00144 3.49-0.0029 2.44-6.82e-4 4.88 0.00117 7.31 0.00534 3.75 0.00535 7.49 5.57e-5 11.2-0.00635 2.36 6.61e-4 4.72 0.00194 7.09 0.00391 1.13-0.00202 2.26-0.00405 3.42-0.00613 1.56 0.00473 1.56 0.00473 3.14 0.00955 0.919 7.96e-4 1.84 0.00159 2.78 0.00241 2.09 0.127 2.09 0.127 3.09 1.13 0.12 2.67 0.175 5.32 0.189 7.99 0.0124 1.26 0.0124 1.26 0.0251 2.54 0.0175 1.84 0.0326 3.67 0.0458 5.51 0.0211 2.94 0.0481 5.87 0.0767 8.81 0.0598 6.28 0.112 12.6 0.163 18.8 0.222 32.3 0.222 32.3 0.977 64.6 0.0576 1.74 0.0576 1.74 0.116 3.52 0.331 8.96 1.01 17.8 2.11 26.7 0.32 2.64 0.6 5.28 0.882 7.92 1.71 15.1 5.11 29.2 12.4 42.7 0.98 1.85 0.98 1.85 1.98 4.85 2 1.21 2 1.21 4 2v2c0.722 0.268 1.44 0.536 2.19 0.812 3.96 1.67 7.48 3.98 11.1 6.25 4.79 2.43 9.86 2.78 15.1 3.25 3.6 0.338 5.47 0.632 8.55 2.68v4c-6.89 1.06-13.6 1.14-20.6 1.13-1.25 0.00175-2.49 0.0035-3.78 0.00531-3.41 0.00364-6.82 0.0028-10.2-3.79e-4 -3.61-0.00255-7.21-1.76e-4 -10.8 0.00139-6.08 0.00182-12.2-5.7e-4 -18.2-0.00534-6.94-0.00538-13.9-0.00372-20.8 0.00183-6.02 0.00461-12 0.00514-18 0.00256-3.57-0.00153-7.13-0.00186-10.7 0.00154-19.9 0.0165-39.8-0.401-59.8-1.14 0-4 0-4 2-6 2.49-0.344 4.94-0.601 7.44-0.812 7.31-0.762 13.1-2.64 19.6-6.19 0.98-0.427 0.98-0.427 1.98-0.863 9.12-4.25 13.5-15.3 17-24.1 6.31-18.3 8.09-37.5 9.08-56.7 0.0629-1.19 0.0629-1.19 0.127-2.41 1.16-22.4 1.2-44.9 1.33-67.3 0.0531-8.99 0.117-18 0.188-27 0.0227-3.12 0.039-6.23 0.0547-9.35 0.0134-1.88 0.027-3.76 0.0409-5.63 0.00261-0.862 0.00523-1.72 0.00792-2.61 0.0629-7.11 0.0629-7.11 6.04-7.11z" fill="#000100"/>
<path transform="translate(1260,676)" d="m0 0c0.369 5.16-0.922 9.07-2.88 13.8-0.649 1.61-1.3 3.23-1.95 4.84-0.528 1.3-0.528 1.3-1.07 2.64-2.01 5.01-3.93 10-5.86 15.1-0.419 1.09-0.839 2.18-1.27 3.3-4.16 10.8-8.27 21.7-12.4 32.5-1.59 4.2-3.18 8.39-4.79 12.6-3.42 8.92-6.76 17.9-10 26.8-2.34 6.47-4.75 12.9-7.47 19.2-2.99 7.21-5.68 14.5-8.44 21.9-1.12 2.97-2.26 5.93-3.41 8.89-2.81 7.3-5.6 14.6-8.38 21.9-1.42 3.74-2.85 7.47-4.27 11.2-0.349 0.914-0.698 1.83-1.06 2.77-0.687 1.8-1.37 3.6-2.06 5.4-1.7 4.46-3.35 8.94-4.91 13.5-1.75 4.89-4.14 9.31-6.81 13.8h-4c-2.88-4.78-5.07-9.43-6.94-14.7-0.52-1.43-1.04-2.85-1.57-4.28-0.254-0.692-0.508-1.38-0.77-2.1-0.965-2.57-2.02-5.1-3.1-7.62-3.48-8.21-6.56-16.6-9.72-24.9-1.12-2.95-2.26-5.89-3.41-8.82-2.26-5.84-4.38-11.7-6.5-17.6-2.43-6.73-4.96-13.4-7.79-19.9-1.85-4.56-3.44-9.2-5.05-13.8-1.6-4.61-3.32-9.14-5.18-13.6-1.18-2.99-2.24-6.02-3.3-9.05-1.86-5.27-3.89-10.4-6.06-15.6-3.36-7.99-6.24-16.1-9.05-24.3-2.34-6.81-4.92-13.4-7.89-20-2.93-6.55-5.43-13.2-7.73-20-0.92-2.71-1.82-5.33-3.12-7.88-0.832-1.7-0.832-1.7-0.832-4.7 7.64-0.127 15.3-0.214 22.9-0.275 2.6-0.0252 5.2-0.0593 7.8-0.103 3.73-0.0605 7.46-0.089 11.2-0.111 1.17-0.0258 2.33-0.0516 3.53-0.0782 1.62-5.66e-4 1.62-5.66e-4 3.28-0.00114 0.953-0.0111 1.91-0.0222 2.89-0.0336 2.41 0.601 2.41 0.601 4.17 2.96 1.31 2.77 2.49 5.53 3.58 8.39 0.423 1.1 0.847 2.21 1.28 3.34 0.434 1.14 0.868 2.29 1.31 3.47 0.43 1.12 0.86 2.23 1.3 3.38 2.45 6.41 4.74 12.8 6.84 19.4 0.944 2.76 2.02 5.43 3.17 8.12 6.24 14.7 11.6 29.7 17 44.7 2.62 7.23 5.37 14.4 8.26 21.5 9.45 23.3 9.45 23.3 12.5 34.7 0.781 2.95 0.781 2.95 3.96 4.64 0.392-1.2 0.784-2.39 1.19-3.62 1.75-5.25 3.61-10.5 5.48-15.7 0.892-2.49 1.78-4.98 2.66-7.47 0.428-1.21 0.856-2.42 1.3-3.67 0.384-1.09 0.768-2.18 1.16-3.31 0.841-2.26 1.75-4.5 2.7-6.71 1.52-3.55 2.82-7.14 4.07-10.8 2.69-7.73 5.52-15.4 8.38-23.1 3.02-8.12 5.99-16.2 8.81-24.4 2.37-6.87 4.96-13.6 7.71-20.3 1.88-4.68 3.47-9.46 5.1-14.2 7.46-21.7 7.46-21.7 15.4-21.7z" fill="#000100"/>
<path transform="translate(1291 255)" d="m0 0c1.34 0.00318 2.68 0.0121 4.02 0.0251 0.736 0.00323 1.47 0.00646 2.23 0.00979 2.48 0.0121 4.97 0.0315 7.45 0.0508 1.77 0.0101 3.55 0.0198 5.32 0.0291 4.83 0.0265 9.66 0.0593 14.5 0.0931 5.04 0.0343 10.1 0.0629 15.1 0.0921 9.56 0.0562 19.1 0.118 28.7 0.181 10.9 0.0716 21.8 0.138 32.6 0.203 22.4 0.135 44.8 0.277 67.1 0.424-0.33 1.65-0.66 3.3-1 5-1.15 0.208-2.3 0.415-3.48 0.629-13.2 2.56-28.7 7.06-37.1 18.5-0.7 0.903-0.7 0.903-1.41 1.82h-2c-0.253 0.554-0.505 1.11-0.766 1.68-1.43 2.7-3.15 5.01-4.98 7.45-16.7 22.8-27.7 49.6-37.5 75.9-1.72 4.57-3.45 9.14-5.18 13.7-1.5 3.96-3 7.92-4.49 11.9-3.18 8.44-6.4 16.9-9.68 25.3-3.58 9.17-7.04 18.4-10.4 27.6-6.22 17.2-6.22 17.2-9.68 25.3-2.28 5.51-4.34 11.1-6.41 16.7-2.01 5.37-4.04 10.6-6.94 15.6-3.28 1.25-5.63 0.844-9 0 0.455-7.44 2.93-14.1 5.35-21.1 1.32-3.91 2.48-7.87 3.66-11.8 0.982-3.06 2.08-6.06 3.22-9.06 1.2-3.18 2.33-6.39 3.46-9.6 0.253-0.718 0.505-1.44 0.766-2.17 2.52-7.18 5.02-14.4 7.51-21.5 1.59-4.59 3.19-9.18 4.82-13.8 3.31-9.34 6.48-18.7 9.53-28.2 0.338-1.04 0.675-2.08 1.02-3.15 1.66-5.2 3.11-10.4 4.22-15.7 0.616-2.72 1.55-5.32 2.44-7.96 4.67-21.8 5.35-47.4-6.82-66.9-9.87-14.3-23.9-22.9-40.8-26.7-6.25-1.07-12.6-1.33-19-1.64-1.57-0.0897-1.57-0.0897-3.17-0.181-1.41-0.0639-1.41-0.0639-2.86-0.129-2.78-0.531-3.77-1.18-5.41-3.46 0.459-3.9 0.908-4.96 4.93-5.11z" fill="#000100"/>
<path transform="translate(801,33)" d="m0 0c1.32 0.33 2.64 0.66 4 1-0.33 155-0.66 310-1 469-1.65-0.33-3.3-0.66-5-1-0.0561-85.9-0.00157-172 0.339-287 0.00272-0.864 0.00543-1.73 0.00823-2.62 0.0232-7.36 0.0232-7.36 0.033-10.5 0.0454-14.4 0.0857-28.9 0.124-43.3 0.0403-15.1 0.0843-30.3 0.132-45.4 0.0264-8.38 0.0514-16.8 0.0722-25.1 0.0174-7.01 0.0382-14 0.0636-21 0.0128-3.56 0.0239-7.12 0.0308-10.7 0.00743-3.84 0.0225-7.68 0.0384-11.5 9.78e-4 -1.13 0.00196-2.26 0.00296-3.43 0.00547-1.02 0.0109-2.03 0.0166-3.08 0.00266-0.884 0.00532-1.77 0.00805-2.68 0.131-1.99 0.131-1.99 1.13-2.99z" fill="#000100"/>
<path transform="translate(799,677)" d="m0 0h5c0.0235 7.56 0.0411 15.1 0.0518 22.7 0.00514 3.51 0.0121 7.02 0.0236 10.5 0.0111 3.41 0.0169 6.82 0.0194 10.2 0.00265 1.89 0.0104 3.77 0.0184 5.66 4e-4 6.45-0.136 12.9-0.451 19.3-0.694 14.3-0.979 28.5-1.19 42.8-0.0304 2.06-0.0619 4.12-0.0935 6.19-0.459 30.3-0.514 60.7-0.483 91 0.0074 7.57 0.00867 15.1 0.0098 22.7 0.00215 13.5 0.0087 27 0.0183 40.5 0.00928 13 0.0163 26.1 0.0205 39.1 3.94e-4 1.22 3.94e-4 1.22 7.96e-4 2.47 0.00131 4.08 0.00257 8.17 0.00381 12.3 0.0103 33.5 0.0278 67 0.0503 101-1.65-0.33-3.3-0.66-5-1-0.0336-30 0.0576-60 0.169-89.9 0.0149-4 0.0296-8 0.0442-12 0.0415-11.3 0.0833-22.6 0.126-33.9 0.011-2.9 0.022-5.8 0.033-8.69 0.00273-0.72 0.00546-1.44 0.00827-2.18 0.0405-10.7 0.0792-21.4 0.117-32.1 0.059-16.8 0.121-33.6 0.186-50.4 0.00405-1.04 0.00405-1.04 0.00819-2.1 0.253-64.6 0.749-129 1.31-194zm1 11v5h1v-5h-1z" fill="#000100"/>
<path transform="translate(258,552)" d="m0 0c2 0 2 0 3.94 1.67 2.15 2.44 3.56 4.76 5.06 7.64 1.73 3.29 3.48 6.55 5.38 9.75 1.62 2.94 1.62 2.94 1.62 4.94h2c1.27 2.21 2.54 4.42 3.81 6.62 0.356 0.617 0.713 1.23 1.08 1.87 6.11 10.6 6.11 10.6 6.11 13.5h2c1.62 2.5 1.62 2.5 3 5 4.48-1.47 5.93-4.88 8-8.81 0.787-1.45 1.57-2.89 2.36-4.34 0.421-0.778 0.842-1.56 1.28-2.36 2.46-4.51 5.01-8.97 7.55-13.4 0.487-0.863 0.973-1.73 1.47-2.61 8.88-15.6 8.88-15.6 13.3-19.4h2c1.14 3.41 1.12 5.99 1.11 9.58 1.46e-4 0.664 2.92e-4 1.33 4.43e-4 2.01-6.96e-4 2.19-0.00847 4.38-0.0163 6.57-0.00187 1.52-0.00329 3.04-0.00429 4.56-0.00382 4-0.0136 8-0.0247 12-0.0102 4.08-0.0148 8.16-0.0198 12.2-0.0107 8.01-0.0278 16-0.0488 24h-6c-0.33-17.5-0.66-35-1-53-3.52 3.52-5.34 6.04-7.69 10.3-0.699 1.25-1.4 2.51-2.1 3.76-0.361 0.646-0.723 1.29-1.09 1.96-2.19 3.87-4.51 7.66-6.81 11.5-1.82 3.02-3.62 6.04-5.36 9.11-0.621 1.1-1.24 2.19-1.88 3.32-0.545 0.978-1.09 1.96-1.65 2.96-0.465 0.692-0.931 1.38-1.41 2.1h-2c-3.71-3.85-5.94-8.5-8.43-13.2-1.41-2.55-2.92-4.93-4.57-7.33-2.8-4.09-5.14-8.34-7.48-12.7-2.36-4.34-4.78-8.68-7.52-12.8h-1c0.00524 0.605 0.0105 1.21 0.0159 1.83 0.128 17.4-0.311 34.8-1.02 52.2-1.67 0.0427-3.33 0.0406-5 0-1.83-1.83-1.14-4.76-1.15-7.22-0.00336-0.649-0.00672-1.3-0.0102-1.97-0.00954-2.16-0.0115-4.31-0.0125-6.47-0.00321-1.49-0.00658-2.99-0.0101-4.48-6e-3 -3.14-0.00784-6.27-0.00725-9.41 1.02e-4 -4.02-0.0135-8.04-0.0308-12.1-0.0111-3.09-0.0131-6.17-0.0126-9.26-0.00118-1.48-0.00561-2.96-0.0133-4.45-0.00978-2.07-0.00693-4.15-8.95e-4 -6.22-0.00143-1.18-0.00285-2.36-0.00432-3.58 0.247-2.9 0.247-2.9 2.25-5.9z" fill="#000100"/>
<path transform="translate(1144,553)" d="m0 0c4.44 1.39 6.94 3.52 10 7 0.33 0.99 0.66 1.98 1 3 1.65 1.68 3.32 3.35 5 5 2.23 2.56 4.36 5.18 6.5 7.81 0.605 0.739 1.21 1.48 1.83 2.24 1.89 2.31 3.78 4.63 5.67 6.95 0.606 0.745 1.21 1.49 1.84 2.26 2.27 2.79 4.54 5.59 6.81 8.39 0.983 1.21 1.97 2.43 2.95 3.64 0.939 1.15 1.88 2.31 2.81 3.47 2.41 3.07 2.41 3.07 5.59 5.25-0.00222-0.662-0.00444-1.32-0.00673-2.01-0.0221-6.86-0.0372-13.7-0.0482-20.6-0.00504-2.56-0.0119-5.13-0.0205-7.69-0.0121-3.68-0.0178-7.35-0.0222-11-0.00516-1.15-0.0103-2.31-0.0156-3.5-7.55e-5 -1.06-1.51e-4 -2.12-2.29e-4 -3.22-0.00222-0.939-0.00444-1.88-0.00673-2.85 0.12-2.13 0.12-2.13 1.12-3.13h6v69c-3 1-3 1-5.46-0.164-2.61-1.88-4.28-3.66-6.23-6.21-1.03-1.33-1.03-1.33-2.08-2.68-1.14-1.51-2.29-3.01-3.43-4.52-1.25-1.64-2.49-3.28-3.74-4.92-0.421-0.553-0.842-1.11-1.28-1.68-2.66-3.46-5.45-6.74-8.41-9.95-4.59-4.98-8.48-10.3-12.4-15.9-1.1-1.55-2.2-3.09-3.31-4.62-0.45-0.632-0.9-1.26-1.36-1.91-1.37-1.75-1.37-1.75-4.32-2.46v55h-6c-1.24-2.47-1.13-4.11-1.13-6.87-0.00315-1.02-0.0063-2.03-0.00955-3.08 0.00202-1.11 0.00405-2.21 0.00613-3.35-9.57e-4 -1.14-0.00191-2.28-0.0029-3.46-6.82e-4 -2.42 0.00117-4.85 0.00534-7.27 0.00529-3.67 8.69e-5 -7.33-0.00635-11-0.00841-25.9-0.00841-25.9 1.14-34 0.33-0.33 0.66-0.66 1-1z" fill="#000100"/>
<path transform="translate(46,554)" d="m0 0c4.7-0.0498 9.39-0.0859 14.1-0.11 1.59-0.01 3.19-0.0236 4.78-0.041 2.3-0.0245 4.61-0.0357 6.91-0.0444 0.702-0.0103 1.4-0.0206 2.13-0.0313 7.57-0.00168 14 1.4 20.1 6.23 5.74 6.06 6.42 12 6.24 20.1-0.638 7.62-5 12.7-10.2 17.9-1.31 1.03-2.64 2.03-4 3 0.508 0.69 1.02 1.38 1.54 2.09 2.17 2.96 4.32 5.93 6.46 8.91 0.628 0.868 1.26 1.74 1.9 2.63 0.548 0.782 1.1 1.56 1.66 2.37 0.496 0.701 0.993 1.4 1.5 2.12 0.934 1.88 0.934 1.88-0.0664 4.88-5.79-0.988-7.98-3.97-11.3-8.48-0.576-0.833-1.15-1.67-1.75-2.52-0.88-1.25-0.88-1.25-1.78-2.52-4.22-6.14-4.22-6.14-4.22-8.48h-28v21h-6c-1.18-23-1.49-46 0-69zm6 7c-0.199 2.49-0.28 4.86-0.266 7.34-0.00191 0.725-0.00383 1.45-0.0058 2.2-0.00136 1.53 0.00233 3.07 0.0107 4.6 0.0107 2.35 1.04e-4 4.7-0.0127 7.05 0.00132 1.49 0.00388 2.98 0.00781 4.46-0.00405 0.705-0.0081 1.41-0.0123 2.14-0.0749 4.05-0.0749 4.05 2.28 7.21 3.48 0.458 6.99 0.324 10.5 0.312 0.956 0.0161 1.91 0.0322 2.9 0.0488 7.48 0.00507 14.8-0.733 21.1-5.05 4.43-5.21 5.89-9.45 5.53-16.3-0.679-5.72-2.96-9.02-7.35-12.6-5.45-2.98-11.5-3.17-17.6-3.45-1.05-0.0476-1.05-0.0476-2.12-0.0962-8.09-0.887-8.09-0.887-14.9 2.1z" fill="#000100"/>
<path transform="translate(604,553)" d="m0 0c3.02-0.281 3.02-0.281 6.88-0.145 0.686 0.0217 1.37 0.0434 2.08 0.0658 1.46 0.0493 2.91 0.106 4.37 0.17 2.2 0.095 4.4 0.165 6.6 0.231 21.5 0.738 21.5 0.738 28.1 7.68 5.25 7.13 6.05 14.3 5 23-2.29 6.75-7.49 10.8-13 15 0.537 3.87 1.59 5.97 4 9v2h2c3 4.38 3 4.38 3 7h2c2 3 2 3 2 6-2.69 0.375-2.69 0.375-6 0-2.03-1.97-3.4-3.7-5-6-0.69-0.905-1.38-1.81-2.09-2.74-5.91-7.83-5.91-7.83-5.91-11.3-3.34-1.01-6.37-1.12-9.86-1.1-1.12 0.00322-2.23 0.00645-3.38 0.00977-1.74 0.0126-1.74 0.0126-3.51 0.0254-1.17 0.00451-2.35 0.00902-3.56 0.0137-2.9 0.0118-5.79 0.0297-8.69 0.0488v21h-6c-0.131-7.7-0.262-15.4-0.391-23.1-0.0602-3.58-0.121-7.15-0.182-10.7-0.0589-3.46-0.117-6.91-0.175-10.4-0.0328-1.95-0.0663-3.9-0.0997-5.85-0.0389-2.33-0.0745-4.67-0.106-7-0.0277-1.75-0.0668-3.5-0.13-5.25-0.104-3.55 0.0248-4.61 2.08-7.69zm5 7v34c3.59 1.8 4.69 2.26 8.41 2.3 0.839 0.00967 1.68 0.0193 2.54 0.0293 13.5 0.43 13.5 0.43 25.2-5.17 4.77-5.12 6.3-8.98 6.16-16.1-0.58-4.43-2.67-7.64-5.96-10.6-8.05-6.04-27.2-9.03-36.3-4.49z" fill="#000100"/>
<path transform="translate(393 554)" d="m0 0c0.734-0.00333 1.47-0.00666 2.23-0.0101 1.56-0.00508 3.12-0.00741 4.68-0.00725 2.37-0.00217 4.73-0.0203 7.1-0.0393 1.52-0.00294 3.04-0.00492 4.56-0.00586 0.699-0.00719 1.4-0.0144 2.12-0.0218 7.55 0.0343 14 1.44 20.1 6.25 5.74 6.06 6.4 12 6.25 20.1-0.527 6.04-3.09 10.5-7.25 14.9-10.5 8.73-28.1 7-41 7v21h-6c-1.1-13.1-1.15-26.2-1.13-39.4 0.00544-3.61-1.56e-5 -7.23-0.00635-10.8 6.59e-4 -2.29 0.00194-4.59 0.00391-6.88-0.00202-1.08-0.00405-2.16-0.00613-3.28 0.00315-0.989 0.0063-1.98 0.00955-3 7.96e-4 -0.873 0.00159-1.75 0.00241-2.65 0.292-4.57 4.81-3.15 8.38-3.15zm-1.25 6.17c-0.0742 4.64-0.129 9.29-0.165 13.9-0.0151 1.58-0.0356 3.16-0.0615 4.74-0.0364 2.27-0.0534 4.54-0.0667 6.81-0.0155 0.706-0.031 1.41-0.0469 2.14-9.74e-4 2.84 0.0294 4.88 1.57 7.32 2.24 1.34 3.7 1.44 6.3 1.45 1.34 0.0058 1.34 0.0058 2.71 0.0117 0.931-0.0116 1.86-0.0232 2.82-0.0352 0.904 0.0116 1.81 0.0232 2.74 0.0352 7.31-0.0314 14.5-0.861 20.7-5.14 4.11-4.9 5.95-8.8 5.53-15.3-1.09-5.93-3.3-9.52-7.71-13.6-6.75-4.22-27-6.06-34.3-2.43z" fill="#000100"/>
<path transform="translate(493 554)" d="m0 0c1.45 0.0309 1.45 0.0309 2.94 0.0625 0.0146 1.28 0.0292 2.56 0.0442 3.88 0.0583 4.79 0.136 9.58 0.218 14.4 0.0331 2.07 0.0612 4.13 0.084 6.2 0.0339 2.98 0.0862 5.97 0.142 8.95 0.00639 0.911 0.0128 1.82 0.0194 2.76 0.168 7.45 1.09 14.8 5.8 20.8 5.3 4.07 9.9 5.65 16.6 5.62 0.706-9.67e-4 1.41-0.00193 2.14-0.00293 5.34-0.18 8.58-1.3 12.5-4.86 3.85-4.43 5.58-7.6 5.69-13.5 0.0199-0.981 0.0399-1.96 0.0604-2.97 0.0167-1.06 0.0334-2.11 0.0506-3.2 0.0208-1.08 0.0416-2.17 0.063-3.28 0.0654-3.46 0.124-6.93 0.183-10.4 0.0432-2.35 0.0868-4.69 0.131-7.04 0.107-5.76 0.209-11.5 0.307-17.3 2-0.0425 4-0.0408 6 0 1.53 1.53 1.14 2.93 1.16 5.07 0.00961 0.865 0.0192 1.73 0.0291 2.62 0.00425 0.945 0.0085 1.89 0.0129 2.86 0.0057 0.971 0.0114 1.94 0.0173 2.94 0.00947 2.07 0.016 4.13 0.0198 6.2 0.00962 3.13 0.0406 6.26 0.0723 9.39 0.00654 2.01 0.0118 4.02 0.0156 6.03 0.0123 0.924 0.0247 1.85 0.0374 2.8-0.0226 6.75-1.32 12.7-3.37 19.1h-2c-0.268 0.804-0.536 1.61-0.812 2.44-0.392 0.846-0.784 1.69-1.19 2.56-0.99 0.33-1.98 0.66-3 1v2c-8.82 4.93-18.1 6.38-28.1 4.31-6.11-1.76-11.2-4.67-14.8-10-4.34-8.03-5.64-15.8-5.52-24.9 0.00187-0.96 0.00375-1.92 0.00568-2.91 0.00667-2.01 0.0205-4.02 0.0412-6.02 0.0315-3.09 0.041-6.17 0.0469-9.26 0.00916-1.96 0.0195-3.91 0.0312-5.87 0.00637-1.39 0.00637-1.39 0.0129-2.81 0.0854-7.54 0.0854-7.54 4.25-7.63z" fill="#000100"/>
<path transform="translate(1523,551)" d="m0 0c3.45 1.02 4.1 2.18 5.89 5.39 0.652 1.43 1.29 2.86 1.92 4.3 0.702 1.55 1.4 3.1 2.11 4.65 0.349 0.782 0.697 1.56 1.06 2.37 1.51 3.37 3.08 6.7 4.65 10 2.57 5.49 5.1 11 7.62 16.5 1.41 3.04 2.88 6.04 4.35 9.05 0.457 0.938 0.914 1.88 1.39 2.84 0.914 1.87 1.84 3.74 2.77 5.61 0.42 0.865 0.841 1.73 1.27 2.62 0.381 0.771 0.762 1.54 1.15 2.34 0.921 2.56 0.974 4.59 0.823 7.29-2.98-0.578-5.28-1.08-7.21-3.54-1.1-1.95-2.09-3.93-3.04-5.96-2.35-5.1-2.35-5.1-5.75-9.5-2.77-0.188-5.45-0.256-8.22-0.23-0.814 4.58e-4 -1.63 9.16e-4 -2.47 0.00139-1.72 0.00302-3.44 0.0109-5.16 0.0233-2.64 0.0182-5.28 0.0205-7.92 0.0203-1.67 0.00492-3.34 0.0107-5.01 0.0176-0.793 0.00111-1.59 0.00223-2.4 0.00337-4.04-0.0568-4.04-0.0568-7.82 1.16-1.3 2.88-2.47 5.78-3.61 8.72-1.56 3.86-3.09 6.68-6.39 9.28-2.25-0.25-2.25-0.25-4-1 0.65-4.76 2.55-8.66 4.62-12.9 0.358-0.751 0.715-1.5 1.08-2.27 2.24-4.67 4.56-9.3 6.92-13.9 2.36-4.65 4.38-9.32 6.25-14.2 2.27-5.83 4.88-11.3 7.81-16.9 0.571-1.08 0.571-1.08 1.15-2.18 1.84-3.41 3.7-6.62 6.16-9.63zm0 11c-3.1 4.1-5.06 8.22-7 13-0.619 1.42-1.24 2.84-1.88 4.25-0.331 0.752-0.663 1.5-1 2.28-0.814 1.8-1.66 3.58-2.52 5.35-0.465 0.968-0.931 1.94-1.41 2.93-0.44 0.893-0.879 1.79-1.33 2.71-1.19 2.71-1.19 2.71 0.145 6.48h32c-2.15-12.9-9.1-25.4-15-37h-2z" fill="#000100"/>
<path transform="translate(795,552)" d="m0 0h3c6.7 13.2 13.3 26.5 19.1 40.2 3.47 8.22 7.48 16.1 11.6 24 1.36 2.88 1.58 4.64 1.3 7.77-2.75 0-2.75 0-6-1-1.31-1.8-2.11-3.62-2.99-5.66-1.09-2.52-2.35-4.88-3.7-7.28-0.416-0.752-0.833-1.5-1.26-2.28-0.926-1.74-0.926-1.74-2.05-2.79-2.88-0.0887-5.74-0.115-8.63-0.0977-0.864 0.00141-1.73 0.00283-2.62 0.00429-2.77 0.00562-5.54 0.0182-8.31 0.0309-1.87 0.00501-3.75 0.00958-5.62 0.0137-4.6 0.0111-9.21 0.0283-13.8 0.0488-0.31 0.778-0.62 1.56-0.94 2.36-2.31 5.76-4.69 11.4-8.06 16.6-1.65-0.33-3.3-0.66-5-1 0.62-4.28 2.14-7.55 4.12-11.4 0.64-1.25 1.28-2.5 1.91-3.75 0.326-0.641 0.653-1.28 0.989-1.94 1.54-3.06 3.02-6.14 4.47-9.24 0.29-0.619 0.581-1.24 0.88-1.88 1.83-3.96 3.49-7.95 5.09-12 9.36-23.6 9.36-23.6 16.5-30.8zm0 10v2h-2c-0.424 0.981-0.848 1.96-1.29 2.97-3.39 7.8-6.84 15.6-10.5 23.2-1.22 2.58-2.32 5.08-3.22 7.79 4.31 2.16 10 1.45 14.8 1.62 1.18 0.0516 2.36 0.103 3.58 0.156 1.14 0.0438 2.29 0.0877 3.47 0.133 1.05 0.0408 2.09 0.0815 3.17 0.124 3.11-0.0385 5.98-0.447 9.04-1.04-0.908-8.63-5.17-16.5-8.77-24.3-0.807-1.77-1.58-3.55-2.33-5.35-0.338-0.813-0.675-1.63-1.02-2.46-0.291-0.724-0.583-1.45-0.883-2.2-0.952-2.03-0.952-2.03-3.99-2.68z" fill="#000100"/>
<path transform="translate(175,551)" d="m0 0h3c1.17 2.46 2.34 4.91 3.5 7.38 0.334 0.699 0.668 1.4 1.01 2.12 2.49 5.28 2.49 5.28 2.49 7.51h2c1.33 3 2.67 6 4 9 0.297 0.667 0.593 1.33 0.899 2.02 1.67 3.75 3.34 7.51 5 11.3 0.639 1.45 1.28 2.89 1.92 4.34 0.34 0.77 0.679 1.54 1.03 2.33 1.69 3.82 3.41 7.61 5.23 11.4 0.324 0.674 0.649 1.35 0.983 2.04 0.889 1.84 1.79 3.67 2.69 5.5 1.2 3.02 1.54 4.93 1.25 8.14-2.3-0.176-2.3-0.176-5-1-1.7-2.29-1.7-2.29-3.12-5.19-0.501-0.991-1-1.98-1.52-3-0.447-0.927-0.895-1.85-1.36-2.81-0.603-1.21-1.21-2.42-1.81-3.62-0.392-0.784-0.784-1.57-1.19-2.38-2.88-2.88-13-1.46-17-1.51-1.8-0.0316-3.6-0.0794-5.41-0.144-2.6-0.0914-5.19-0.13-7.79-0.158-0.802-0.0382-1.6-0.0763-2.43-0.116-2.36 0.00819-4.12 0.107-6.33 0.932-2.24 2.42-3.63 5.02-5 8-0.476 0.968-0.951 1.94-1.44 2.93-0.755 1.69-1.5 3.37-2.25 5.06-1.31 2-1.31 2-3.46 2.79-0.61 0.0709-1.22 0.142-1.85 0.215-1.3-3.52-0.959-5.61 0.512-8.93 0.711-1.47 1.44-2.93 2.18-4.39 0.529-1.08 0.529-1.08 1.07-2.19 1.07-2.17 2.15-4.34 3.24-6.5 3.89-7.74 7.71-15.5 10.8-23.6 2.79-7.13 6.55-13.8 10.2-20.5 0.886-1.61 1.75-3.23 2.6-4.86 0.465-0.656 0.931-1.31 1.41-1.99zm0 12c-3.75 3.91-5.52 8.16-7.44 13.1-0.601 1.52-1.2 3.03-1.81 4.55-0.294 0.737-0.587 1.47-0.89 2.23-1.54 3.74-3.32 7.37-5.11 11-1.04 2.25-1.04 2.25 0.25 5.1 4.37 0.198 8.75 0.381 13.1 0.562 1.24 0.0561 2.47 0.112 3.75 0.17 1.2 0.0483 2.4 0.0967 3.63 0.146 1.1 0.0471 2.2 0.0943 3.33 0.143 3.16-0.0218 6.06-0.415 9.16-1.02-0.703-4.57-2.31-8.69-4.06-12.9-0.304-0.74-0.607-1.48-0.92-2.24-3.08-7.3-6.9-14.1-11-20.8h-2z" fill="#000100"/>
<path transform="translate(1062,552)" d="m0 0c4.09 1.36 4.9 3.98 6.75 7.62 0.347 0.669 0.694 1.34 1.05 2.03 4.82 9.37 9.29 18.9 13.1 28.7 1.39 3.39 2.91 6.71 4.46 10 0.297 0.637 0.594 1.27 0.9 1.93 2.44 5.18 5.05 10.3 7.76 15.3 0.969 2.39 0.969 2.39-0.0312 5.39-4.55-0.492-4.55-0.492-6.51-2.69-2.23-3.45-3.7-7.17-5.31-10.9-0.956-2.5-0.956-2.5-3.18-3.36v-2c-5.36 0.0441-10.7 0.114-16.1 0.208-1.82 0.0282-3.65 0.0494-5.47 0.0635-2.62 0.0214-5.24 0.068-7.86 0.12-0.816 0.00123-1.63 0.00246-2.47 0.00372-4.48 0.0645-4.48 0.0645-8.09 2.46-1.8 3.71-3.28 7.52-4.76 11.4-1.19 2.57-2.03 4.09-4.28 5.78-2.19-0.312-2.19-0.312-4-1 0.621-3.85 1.77-6.98 3.44-10.5 0.536-1.14 1.07-2.28 1.62-3.45 1.43-2.99 2.87-5.98 4.31-8.97 0.855-1.78 1.71-3.55 2.56-5.33 0.432-0.899 0.864-1.8 1.31-2.72 2.69-5.65 5.18-11.3 7.5-17.2 6.73-16.8 6.73-16.8 13.2-22.9zm0 10c-4.43 5.39-7 11.1-9.62 17.6-0.761 1.84-1.52 3.67-2.29 5.5-0.355 0.855-0.71 1.71-1.08 2.59-0.858 1.99-1.81 3.94-2.78 5.87-1.37 2.31-1.37 2.31-1.23 4.47 4.44 2.22 10.4 1.45 15.3 1.62 1.24 0.0516 2.47 0.103 3.75 0.156 1.19 0.0438 2.39 0.0877 3.62 0.133 1.09 0.0408 2.18 0.0815 3.31 0.124 2.82-0.0352 5.28-0.381 8.01-1.04-0.69-4.34-2.16-8.26-3.81-12.3-0.269-0.666-0.538-1.33-0.816-2.02-1.92-4.69-4.04-9.17-6.37-13.7-1.04-2.32-2.02-4.66-3-7-0.33-0.66-0.66-1.32-1-2h-2z" fill="#000100"/>
<path transform="translate(927 552)" d="m0 0c3.36 1.27 4.14 2.97 5.66 6.13 0.474 1.06 0.474 1.06 0.958 2.13 0.341 0.721 0.681 1.44 1.03 2.18 1.03 2.18 2.03 4.37 3.03 6.57 0.845 1.78 0.845 1.78 1.71 3.6 2.67 5.65 5.15 11.3 7.41 17.2 0.823 2.08 1.71 4.12 2.63 6.16 1.25 3.06 1.25 3.06 1.25 6.06h2c0.671 1.46 1.34 2.92 2 4.38 0.371 0.812 0.742 1.62 1.12 2.46 0.875 2.16 0.875 2.16 0.875 4.16 3.05-2.79 4.85-5.28 6.55-9.04 0.448-0.983 0.895-1.97 1.36-2.98 0.464-1.04 0.927-2.09 1.41-3.17 0.485-1.07 0.97-2.15 1.47-3.25 2.79-6.22 5.47-12.5 8.03-18.8 7.87-19.4 7.87-19.4 14.2-23.8h2c-0.592 4.64-1.86 8.45-3.73 12.7-0.273 0.629-0.546 1.26-0.827 1.91-0.578 1.33-1.16 2.65-1.74 3.98-0.874 1.98-1.74 3.97-2.6 5.96-3.08 7.08-6.32 14-9.84 20.9-1.14 2.27-2.19 4.55-3.2 6.89-1.79 4.07-3.65 8.11-5.56 12.1-0.285 0.624-0.57 1.25-0.863 1.89-2.14 4.4-2.14 4.4-4.86 5.51-0.588 0.0309-1.18 0.0619-1.78 0.0938-4.21-4.6-6.69-9.1-9.12-14.8-0.378-0.862-0.755-1.72-1.14-2.61-0.818-1.87-1.63-3.74-2.44-5.61-1.33-3.05-2.68-6.09-4.03-9.13-5.72-12.8-11.2-25.7-16.3-38.8 1-1 1-1 3.32-1.02z" fill="#000100"/>
<path transform="translate(1451,551)" d="m0 0c0.66 0.33 1.32 0.66 2 1-1.37 8.92-7.33 16.7-12.1 24.1-2.05 3.18-4.06 6.37-6.05 9.58-0.633 1.01-1.27 2.03-1.92 3.07-0.625 1.07-1.25 2.14-1.89 3.24-0.363 0.584-0.727 1.17-1.1 1.77-3.31 5.79-3.55 11.2-3.65 17.7-0.0445 1.52-0.0445 1.52-0.0898 3.07-0.0701 2.48-0.123 4.95-0.16 7.43-1.66 0.382-3.32 0.714-5 1-1.58-1.58-1.15-3.19-1.18-5.38-0.0238-0.904-0.0477-1.81-0.0723-2.74-0.0423-1.89-0.0739-3.79-0.0938-5.68-0.177-5.85-1.13-10.2-3.81-15.4-0.851-1.78-0.851-1.78-0.851-3.78h-2c-0.629-1.15-1.26-2.3-1.91-3.48-0.864-1.57-1.73-3.14-2.59-4.71-0.451-0.817-0.901-1.63-1.37-2.48-3.31-5.96-6.81-11.7-10.5-17.4-1.82-3.3-2.69-6.25-3.59-9.89 3.86 0.551 5.42 2.17 8 5 1.13 1.61 2.21 3.26 3.25 4.94 0.602 0.966 1.2 1.93 1.82 2.93 2.67 4.34 5.33 8.69 7.99 13 2.21 3.53 4.52 6.98 6.9 10.4 1.03 1.71 1.03 1.71 1.03 3.71 3.68-1.23 3.95-2.15 5.81-5.44 0.519-0.902 1.04-1.8 1.57-2.73 0.532-0.933 1.06-1.87 1.61-2.83 1.04-1.73 2.08-3.46 3.12-5.19 1.65-2.75 3.27-5.5 4.81-8.31 3.32-5.87 7.12-11.9 12.1-16.5z" fill="#000100"/>
<path transform="translate(708,554)" d="m0 0c2.31 0.33 4.62 0.66 7 1v68h-6c-1.42-2.83-1.12-5.21-1.11-8.38-1.46e-4 -0.654-2.92e-4 -1.31-4.43e-4 -1.98 6.98e-4 -2.16 0.00848-4.33 0.0163-6.49 0.00186-1.5 0.00329-3 0.00429-4.5 0.00382-3.95 0.0136-7.9 0.0247-11.8 0.0102-4.03 0.0148-8.06 0.0198-12.1 0.0107-7.91 0.0278-15.8 0.0488-23.7z" fill="#000100"/>
<path transform="translate(1257,554)" d="m0 0h7v69c-1.65-0.33-3.3-0.66-5-1-3.55-7.1-2.13-17.5-2.1-25.2 0.00141-1.23 0.00283-2.46 0.00429-3.72 0.00556-3.89 0.0181-7.78 0.0309-11.7 0.00502-2.65 0.00958-5.3 0.0137-7.96 0.011-6.47 0.0277-12.9 0.0488-19.4z" fill="#000100"/>
<path transform="translate(1341,588)" d="m0 0c3.55 1.87 5.73 3.1 7 7 0.79 7.09 0.649 14.7-3 21-4.23 4.77-7.86 7.56-14.2 8.24-6.61 0.205-12-0.971-17.8-4.24-2.62-2.5-2.62-2.5-4-5v-4c3.36 0.42 5.88 1.4 8.81 3 4.91 2.54 9.42 3.69 14.9 2.31 3.11-1.81 5.71-3.63 6.84-7.16 0.43-2.25 0.618-4.41 0.727-6.7 0.0419-0.844 0.0838-1.69 0.127-2.56 0.0393-0.873 0.0786-1.75 0.119-2.64 0.0432-0.888 0.0864-1.78 0.131-2.69 0.106-2.19 0.208-4.37 0.307-6.56z" fill="#000100"/>
<path transform="translate(1315,554)" d="m0 0h33c-1.12 13.5-1.12 13.5-4 18h-3c-0.33-3.63-0.66-7.26-1-11-1.46-0.049-2.92-0.098-4.42-0.148-1.92-0.0751-3.85-0.151-5.77-0.227-0.96-0.0309-1.92-0.0619-2.91-0.0938-0.931-0.0387-1.86-0.0773-2.82-0.117-0.854-0.0314-1.71-0.0628-2.59-0.0952-2.76-0.352-4.97-1.19-7.5-2.32 0.33-1.32 0.66-2.64 1-4z" fill="#000100"/>
</svg>
