<?xml version="1.0" encoding="UTF-8"?>
<svg version="1.1" viewBox="0 0 1392 1600" width="1280" height="1280" xmlns="http://www.w3.org/2000/svg">
<path transform="translate(519 341)" d="m0 0c0.933 0.0588 1.87 0.118 2.83 0.178 12.6 0.813 24.8 2.36 37.2 4.51 2.02 0.334 4.04 0.668 6.06 1 0.924 0.157 1.85 0.315 2.8 0.477 2.43 0.406 4.87 0.794 7.3 1.17 9.41 1.48 18.6 3.33 27.8 5.81 2.06 0.554 4.12 1.09 6.18 1.63 16.1 4.29 32.1 9.47 47.7 15.6 2.48 0.988 4.97 1.94 7.48 2.88 8.23 3.1 16.2 6.44 24 10.5 5.36 2.77 10.9 5.27 16.3 7.79 7.74 3.61 7.74 3.61 10.4 6.11v2c1.02 0.13 1.02 0.13 2.07 0.262 3.67 0.922 6.65 2.64 9.87 4.55 0.595 0.344 1.19 0.687 1.8 1.04 1.19 0.692 2.37 1.4 3.54 2.11 1.64 0.989 3.3 1.93 4.97 2.86 6.11 4.84 6.46 12.4 7.32 19.7 0.132 1.03 0.264 2.07 0.4 3.13 0.284 2.23 0.564 4.46 0.839 6.69 0.739 5.98 1.51 11.9 2.28 17.9 0.156 1.22 0.313 2.45 0.474 3.71 1.59 12.4 3.33 24.8 5.12 37.1 0.148 1.03 0.295 2.05 0.447 3.11 1.97 13.7 3.98 27.4 6.02 41.1 1.33 8.89 2.58 17.8 3.84 26.7-7.52 0.37-7.52 0.37-9.67-1.29-2.23-2.87-3.18-6.3-4.33-9.71-0.293-0.846-0.587-1.69-0.889-2.56-0.641-1.85-1.28-3.7-1.91-5.56-8.91-26-20.3-48.9-35.2-71.9-0.401-0.628-0.802-1.26-1.21-1.9-1.26-1.94-2.47-3.78-4.12-5.41-3.07-3.1-5.68-6.6-8.41-9.99-2.18-2.69-2.18-2.69-4.54-4.91-1.71-1.78-1.71-1.78-1.71-3.78-0.99-0.33-1.98-0.66-3-1-2.69-2.44-2.69-2.44-5-5v-2c-0.558-0.238-1.12-0.477-1.69-0.723-2.82-1.56-4.89-3.51-7.25-5.71-2.56-2.4-4.85-4.44-7.88-6.22-0.721-0.442-1.44-0.884-2.18-1.34v-2c-0.66-0.206-1.32-0.413-2-0.625-3.43-1.57-6.09-3.6-9.04-5.94-1.92-1.4-3.81-2.44-5.96-3.44v-2c-0.819-0.229-1.64-0.459-2.48-0.695-4.29-1.59-7.94-3.79-11.8-6.18-9.75-6.08-9.75-6.08-20.6-9.69-2.12-0.438-2.12-0.438-3.52-1.87-1.77-1.73-3.04-2.29-5.37-3.07-0.726-0.248-1.45-0.495-2.2-0.75-0.754-0.248-1.51-0.495-2.29-0.75-8.53-2.86-8.53-2.86-12.4-4.57-35.6-15.4-78.9-18-117-17.9-1.38 0.00301-2.75 0.00574-4.13 0.00821-19.7 0.0492-38.8 0.692-58.2 4.43-2.25 0.402-4.5 0.803-6.75 1.2-12.3 2.26-24.3 5.14-36.2 8.8-1 0.304-2 0.608-3.03 0.922-6.8 2.18-13.5 4.71-20.2 7.2-0.947 0.349-1.89 0.698-2.87 1.06-0.883 0.334-1.77 0.668-2.67 1.01-1.2 0.449-1.2 0.449-2.42 0.907-2.03 0.754-2.03 0.754-2.85 2.9-1.91 0.463-3.82 0.923-5.74 1.36-3.79 1.07-7.08 2.98-10.5 4.89-1.49 0.812-2.98 1.62-4.47 2.43-1.09 0.593-1.09 0.593-2.2 1.2-2.89 1.55-5.82 2.99-8.77 4.43-3.12 1.54-6.07 3.09-8.94 5.06-2.38 1.62-2.38 1.62-4.38 1.62v2c-2.12 1.51-2.12 1.51-4.88 3.12-0.905 0.539-1.81 1.08-2.74 1.63-2.38 1.24-2.38 1.24-4.38 1.24v2c-2.81 2.03-5.69 3.82-8.69 5.56-2.33 1.33-2.33 1.33-4 3.12-0.433 0.433-0.866 0.866-1.31 1.31h-2c-0.33 0.99-0.66 1.98-1 3-1.33 0.333-2.67 0.667-4 1-0.33 0.99-0.66 1.98-1 3-2.07 1.83-2.07 1.83-4.69 3.81-3.13 2.42-6.07 4.83-8.81 7.69-0.825 0.825-1.65 1.65-2.5 2.5h-2c-0.33 0.99-0.66 1.98-1 3-1.41 1.18-2.82 2.35-4.26 3.49-2.6 2.26-4.73 4.87-6.96 7.48-1.65 1.88-3.35 3.61-5.15 5.34-4.62 4.56-8.59 9.62-12.6 14.7-0.439 0.546-0.878 1.09-1.33 1.65-14.5 18-27.9 37.4-38.1 58.1-1.08 2.2-2.18 4.39-3.29 6.58-6.4 12.6-11.6 25.3-16.4 38.6-0.42 1.16-0.84 2.33-1.27 3.52-7.91 22.3-13.2 45.4-16.8 68.8-0.155 0.979-0.309 1.96-0.468 2.97-2.98 20.4-3.68 41-3.6 61.7 0.0107 3.62 6.82e-6 7.25-0.0127 10.9-0.0129 20.3 1.11 40.4 4.15 60.5 0.174 1.17 0.347 2.34 0.526 3.54 2.82 18.5 7.02 36.2 12.6 54.1l0.774 2.49c3.54 11.3 7.73 22.3 12.3 33.2 0.609 1.47 1.21 2.94 1.81 4.42 6.64 16.3 15.3 31.8 24.8 46.7 1.33 2.27 1.33 2.27 1.33 4.27h2c1.38 1.95 1.38 1.95 3 4.69 4.21 6.82 9.03 13 14 19.3l2.24 2.84c2.87 3.6 5.76 7.17 8.76 10.7 2 2.5 2 2.5 2 4.5l1.75 0.73c2.68 1.52 4.18 3.24 6.18 5.58 8.06 9.17 16.7 17.8 26.1 25.7 1.02 0.872 2.04 1.74 3.06 2.62 10.2 8.73 20.5 16.6 32 23.6 1.36 0.864 2.67 1.79 3.97 2.74v2c0.83 0.156 0.83 0.156 1.68 0.316 2.82 0.829 4.99 2.12 7.51 3.63 1 0.598 2.01 1.2 3.04 1.81 1.06 0.636 2.12 1.27 3.21 1.93 8.37 4.94 16.6 9.58 25.6 13.3 1.55 0.66 3.1 1.32 4.65 1.98 4.09 1.74 8.19 3.46 12.3 5.16 1.64 0.682 3.27 1.38 4.89 2.08 7.05 2.98 14.4 5.02 21.7 7.09 2.46 0.7 4.9 1.43 7.35 2.17 59.4 17.5 128 17.6 188 0.523 1.3-0.359 2.59-0.719 3.89-1.08 16-4.52 32.4-9.21 47.3-16.6 2.83-1.38 5.68-2.56 8.6-3.73 30.8-12.7 60.7-32.1 85.2-54.6 4.7-4 4.7-4 7-4v-2c0.66-0.33 1.32-0.66 2-1 1.03-21.4 1.16-42.7 1.17-64.1 7.2e-4 -2.81 0.00287-5.61 0.0055-8.42 0.00918-9.84 0.0133-19.7 0.0125-29.5-6.03e-4 -9.11 0.01-18.2 0.0257-27.3 0.0131-7.89 0.0184-15.8 0.0178-23.7-2.53e-4 -4.68 0.00249-9.36 0.0132-14 0.00977-4.39 0.0097-8.79 0.00248-13.2-0.00103-1.6 0.00125-3.2 0.00736-4.79 0.0653-18.3-0.344-35.7-13.3-49.9-13.2-13.1-31.6-13.9-49.1-14.6-1.05-0.0432-2.1-0.0864-3.19-0.131-2.56-0.105-5.12-0.207-7.69-0.307v-9h218v9c-0.932 0.0396-1.86 0.0793-2.82 0.12-3.52 0.158-7.04 0.331-10.6 0.515-1.51 0.0756-3.02 0.145-4.54 0.209-16.9 0.718-33.1 4.21-45.1 17.2-7.46 10.2-8.47 22.1-8.68 34.3-0.0328 1.4-0.0663 2.8-0.1 4.21-0.366 16.2-0.348 32.4-0.32 48.6 0.0064 4.34 0.00685 8.69 0.00803 13 0.00307 8.17 0.0112 16.3 0.0213 24.5 0.0113 9.32 0.0167 18.6 0.0217 28 0.0104 19.1 0.0279 38.2 0.0503 57.4h2c0.329-1.47 0.329-1.47 0.664-2.97 6.78-29.3 22.6-55.5 40.1-79.6 2.27-3.11 2.27-3.11 4.19-6.44h2c0.241-0.549 0.482-1.1 0.73-1.66 1.56-2.87 3.49-5.2 5.58-7.71 0.802-0.963 1.6-1.93 2.43-2.92 0.745-0.893 1.49-1.79 2.26-2.71l1.63-2.05c1.08-1.35 2.22-2.66 3.37-3.95h2c0.33-0.99 0.66-1.98 1-3 5.29-0.504 7.81 0.811 12 4-0.56 4.25-2 6.87-4.44 10.4-0.713 1.04-1.43 2.08-2.16 3.15-0.386 0.557-0.771 1.11-1.17 1.69-2.23 3.22-4.42 6.47-6.61 9.72-0.643 0.939-0.643 0.939-1.3 1.9-2.21 3.28-4.03 6.42-5.33 10.2h-2c-0.118 0.568-0.235 1.14-0.357 1.72-0.701 2.48-1.7 4.47-2.94 6.74-0.463 0.858-0.925 1.72-1.4 2.6-0.739 1.36-0.739 1.36-1.49 2.76-3.99 7.49-7.55 14.9-10.6 22.9-1.16 3.06-2.43 6.02-3.76 9.01-5.64 13.5-9.13 27.9-12.1 42.2-0.426 2.07-0.866 4.15-1.31 6.22-2.55 12.2-3.38 24.2-3.75 36.7-0.0221 0.727-0.0443 1.45-0.067 2.2-0.352 12-0.354 24 0.692 36 0.101 1.19 0.201 2.38 0.305 3.61 3.73 32.5 18.6 62 37.2 88.3 3.45 4.9 3.45 4.9 3.45 7.1 0.99 0.33 1.98 0.66 3 1 0.33 1.65 0.66 3.3 1 5h3c1.48 1.63 1.48 1.63 3.19 4 9.87 12.8 21.9 23.4 34.8 33 0.839 0.65 1.68 1.3 2.54 1.97 3.93 3.05 3.93 3.05 8.46 5.03v2c0.731 0.277 1.46 0.554 2.22 0.839 2.6 1.08 4.92 2.3 7.34 3.74 0.854 0.499 1.71 0.998 2.59 1.51 0.902 0.528 1.8 1.06 2.73 1.6 53 30.5 117 35.9 176 20.9 4.88-1.33 9.71-2.81 14.5-4.4 2.93-0.96 5.86-1.83 8.83-2.65 5.48-1.64 10.5-4.05 15.7-6.5 1.34-0.609 2.68-1.22 4.02-1.82 9.12-4.15 17.6-8.73 26-14.2 0.92-0.563 1.84-1.13 2.79-1.71 5.9-3.63 11.4-7.61 16.8-11.9 2.18-1.72 4.21-3.28 6.73-4.48 2.05-0.84 2.05-0.84 2.68-3.89 1.45-1.39 1.45-1.39 3.25-2.81 3.4-2.8 5.98-5.76 8.75-9.19 1.67-1.67 3.33-3.33 5-5 0.904-1.1 1.8-2.2 2.69-3.31 0.763-0.887 1.53-1.77 2.31-2.69h2c0.0825-0.536 0.165-1.07 0.25-1.62 1.03-3.25 2.72-5.66 4.75-8.38h2c0.233-0.829 0.467-1.66 0.707-2.51 1.53-4.14 3.66-7.57 5.98-11.3 26.6-44.1 35.1-105 23.2-155-10.3-39.4-29.7-78.2-57.9-108-1.15-1.33-2.3-2.66-3.44-4-9.22-10.6-19.6-20.2-30.9-28.5-0.835-0.733-0.835-0.733-1.69-1.48v-2c-0.701-0.227-1.4-0.454-2.12-0.688-3.47-1.58-6.05-3.8-8.88-6.31-4.85-4.21-9.79-8.2-14.9-12.1-5.22-3.97-10.3-8.13-15.3-12.3-4.55-3.72-9.21-7.16-14.1-10.4-0.536-0.419-1.07-0.838-1.62-1.27v-2c-1.07-0.358-1.07-0.358-2.16-0.723-3.3-1.48-5.54-3.34-8.28-5.71-1.05-0.901-2.11-1.8-3.17-2.7-0.551-0.468-1.1-0.937-1.67-1.42-2.94-2.46-5.96-4.83-8.98-7.19-0.888-0.696-0.888-0.696-1.79-1.41-3.76-2.93-7.55-5.82-11.4-8.63-1.55-1.22-1.55-1.22-3.07-2.81-1.54-1.66-1.54-1.66-4.48-2.41-1.67-1.67-3.33-3.33-5-5-1.26-0.917-2.53-1.81-3.81-2.69-1.58-1.14-1.58-1.14-3.19-2.31v-2c-0.713-0.238-1.43-0.477-2.16-0.723-3.3-1.48-5.54-3.34-8.28-5.71-1.05-0.901-2.11-1.8-3.17-2.7-0.551-0.468-1.1-0.937-1.67-1.42-2.94-2.46-5.96-4.83-8.98-7.19-0.598-0.468-1.2-0.937-1.81-1.42-3.02-2.35-6.05-4.68-9.13-6.96-3.08-2.28-6.04-4.69-9-7.12-4.47-3.68-9.02-7.23-13.6-10.7-4.47-3.42-8.83-6.95-13.2-10.5-11.7-9.69-11.7-9.69-24.1-18.5-3.03-2.1-5.38-4.4-7.95-7.04-1.71-1.44-3.44-2.86-5.19-4.25-7.29-5.9-14.2-12.1-20.8-18.8-0.813-0.79-1.63-1.58-2.46-2.39-10.1-9.83-10.1-9.83-13.5-15.6v-2h-2c-1.52-2.05-1.52-2.05-3.25-4.88l-1.88-3.05c-0.616-1.01-1.23-2.03-1.87-3.07-0.801-1.27-0.801-1.27-1.62-2.57-26.6-42.9-28.9-97.1-17.9-145 2.01-8.19 4.64-16.2 7.54-24.1 0.235-0.645 0.471-1.29 0.713-1.95 7.46-20.1 18.3-38.1 31.3-55 0.434-0.573 0.869-1.15 1.32-1.74 4.66-6.14 4.66-6.14 6.68-8.26h2c0.227-0.557 0.454-1.11 0.688-1.69 1.69-2.97 3.78-5.03 6.31-7.31h2c0.66-1.32 1.32-2.64 2-4h2v-2h3c0.208-0.561 0.415-1.12 0.629-1.7 1.86-3.12 4.44-4.98 7.31-7.11 0.872-0.657 0.872-0.657 1.76-1.33 8.63-6.43 17.8-11.9 27.3-16.9 0.596-0.311 1.19-0.622 1.81-0.942 14.9-7.61 30.9-12.9 47.3-16.2 0.784-0.159 1.57-0.318 2.37-0.481 16.6-3.11 33.3-3.74 50.1-3.64 0.955 0.00277 1.91 0.00554 2.89 0.00839 22 0.0744 43.6 1.46 65.3 4.89 3.31 0.513 6.62 0.958 9.93 1.41 4.62 0.656 9.18 1.45 13.7 2.47 7.59 1.37 15.2 1.69 22.9 1.96 2.15 0.0833 4.31 0.167 6.46 0.25 3.37 0.127 6.74 0.252 10.1 0.375 3.27 0.121 6.54 0.248 9.81 0.375 1.02 0.0354 2.03 0.0709 3.08 0.107 0.932 0.0367 1.86 0.0735 2.82 0.111 0.823 0.0303 1.65 0.0606 2.49 0.0918 1.88 0.189 1.88 0.189 2.88 1.19 0.155 2.7 0.245 5.38 0.294 8.09 0.0191 0.853 0.0382 1.71 0.0579 2.59 0.0623 2.86 0.117 5.73 0.171 8.59 0.0414 2.03 0.083 4.06 0.125 6.08 0.437 21.9 0.693 43.8 0.91 65.7 0.0563 5.69 0.12 11.4 0.185 17.1 0.0498 4.43 0.095 8.87 0.139 13.3 0.0215 2.1 0.0447 4.21 0.0695 6.31 0.0336 2.89 0.0609 5.78 0.0865 8.67 0.0171 1.29 0.0171 1.29 0.0345 2.61 0.0143 1.99-0.0231 3.98-0.0721 5.97-1 1-1 1-3.88 1.19-3.12-0.188-3.12-0.188-6.12-2.19-0.555-2.77-0.555-2.77-0.875-6.38-3.17-29-14.5-55.8-35.1-76.6-0.748-0.547-1.5-1.09-2.27-1.66-0.572-0.443-1.14-0.887-1.73-1.34v-2c-1.65-0.66-3.3-1.32-5-2v-2c-0.732-0.264-1.46-0.529-2.22-0.801-2.78-1.2-4.86-2.58-7.28-4.39-7.42-5.3-15.3-10.7-24.5-11.8v-2c-0.69-0.182-1.38-0.364-2.09-0.551-4.46-1.19-8.87-2.4-13.2-3.95-33.3-11.1-75.4-9.66-108 4.5-0.33 0.66-0.66 1.32-1 2-1.07 0.206-2.14 0.413-3.25 0.625-16.1 3.71-34.3 20-44.4 32.7-0.763 0.887-1.53 1.77-2.31 2.69h-2c-0.155 0.897-0.155 0.897-0.312 1.81-0.688 2.19-0.688 2.19-1.98 3.43-4.05 4.17-6.72 9.78-9.7 14.8-0.611 1-0.611 1-1.23 2.02-8.6 14.5-12.9 30.5-15.8 47-0.169 0.894-0.338 1.79-0.513 2.71-5.64 31 0.483 65.8 17.6 92.5 1.92 2.66 3.9 5.24 5.95 7.8 1.25 1.62 2.5 3.25 3.75 4.88 0.574 0.727 1.15 1.45 1.74 2.2 1.18 1.5 2.32 3.02 3.45 4.55 2.39 2.76 5.01 5.05 7.78 7.41 2.51 2.15 4.96 4.37 7.41 6.59 6.31 6.19 6.31 6.19 13.9 10.4 1.69 1.64 3.36 3.31 5 5 1.81 1.57 3.65 3.11 5.5 4.62 0.918 0.755 1.84 1.51 2.78 2.29 2.66 2.13 2.66 2.13 5.56 3.73 0.712 0.446 1.42 0.892 2.16 1.35v2c0.66 0.186 1.32 0.371 2 0.562 3.47 1.66 5.76 3.77 8.59 6.34 2.72 2.37 5.54 4.55 8.41 6.73 7.21 5.48 14.2 11.2 21.2 16.9 10.2 8.31 20.5 16.5 31 24.4 4.76 3.63 9.39 7.33 13.9 11.3 6.05 5.31 12.5 10.2 18.9 15.1 0.834 0.644 0.834 0.644 1.68 1.3 2.42 1.86 4.84 3.63 7.38 5.32v2c0.743 0.268 1.48 0.536 2.25 0.812 2.64 1.14 4.61 2.28 6.75 4.19v2c0.541 0.241 1.08 0.482 1.64 0.73 2.96 1.59 5.46 3.52 8.11 5.58 0.843 0.653 0.843 0.653 1.7 1.32 5.22 4.06 10.3 8.26 15.4 12.5 5.38 4.39 10.9 8.51 16.6 12.5 1.54 1.1 3.04 2.26 4.52 3.43v2h2v2c0.679 0.218 1.36 0.436 2.06 0.66 3.82 1.74 6.77 4.14 10 6.78 1.22 0.978 2.44 1.96 3.66 2.93 0.566 0.459 1.13 0.917 1.72 1.39 1.3 1.03 2.64 2 4 2.96 0.517 0.422 1.03 0.843 1.57 1.28v2c0.557 0.0619 1.11 0.124 1.69 0.188 3.26 1.14 4.89 3.37 7.31 5.81 2.89 2.38 5.83 4.7 8.77 7.01 1.1 0.984 1.1 0.984 2.23 1.99v2c0.835 0.34 0.835 0.34 1.69 0.688 2.96 1.68 4.93 3.87 7.31 6.31 1.12 0.946 2.24 1.88 3.38 2.81 4.42 3.74 9.17 8.06 11.6 13.4 0.912 2.17 0.912 2.17 3.99 2.82 1.52 1.67 2.97 3.41 4.38 5.19 0.79 0.993 1.58 1.99 2.39 3.01 1.1 1.39 1.1 1.39 2.23 2.8 1.02 1.19 2.04 2.38 3.06 3.56 1.94 2.44 1.94 2.44 1.94 4.44 0.99 0.33 1.98 0.66 3 1 0.688 2.06 0.688 2.06 1 4h2c2.05 2.85 3.87 5.77 5.62 8.81 1.19 2.31 1.19 2.31 3.38 3.19 0.97 1.64 1.88 3.31 2.75 5 1.83 3.53 3.8 6.84 6.05 10.1 3.67 5.44 6.69 11.2 9.7 17 0.856 1.65 0.856 1.65 1.73 3.34 4.11 8.04 7.66 16.1 10.8 24.5 0.663 1.58 1.33 3.17 2 4.75 5.62 14.2 9.34 28.9 12.5 43.8 0.449 2.1 0.937 4.2 1.43 6.29 4.36 19.8 4.91 41.9 4.09 62.2-0.0616 1.67-0.0616 1.67-0.125 3.38-1.36 33.5-8.39 66.3-23.7 96.5-0.503 0.998-0.503 0.998-1.02 2.02-10.2 20.1-22.9 41.3-39.2 57.1-1.58 1.86-3.13 3.74-4.67 5.64-0.44 0.447-0.879 0.895-1.33 1.36h-2c-0.26 0.589-0.519 1.18-0.787 1.78-1.3 2.37-2.65 3.83-4.62 5.67-0.661 0.619-1.32 1.24-2 1.88-0.69 0.634-1.38 1.27-2.09 1.92-0.69 0.65-1.38 1.3-2.09 1.97-5.15 4.78-5.15 4.78-7.41 4.78v2c-0.557 0.227-1.11 0.454-1.69 0.688-2.46 1.26-2.46 1.26-4.57 3.58-2.84 2.82-5.83 5.31-9 7.73-0.571 0.439-1.14 0.877-1.73 1.33-3.8 2.87-7.65 5.33-11.9 7.52-3.15 1.71-6.05 3.76-8.98 5.82-2.3 1.43-4.6 2.4-7.14 3.33v7c-5.21 2.85-10.1 4.72-15.8 6.17-3.45 0.902-6.82 1.96-10.2 3.02-13.2 3.97-26.7 6.89-40.1 9.93-2.3 0.522-4.6 1.05-6.89 1.58-14.3 3.3-28.7 4.62-43.3 5.92-3.71 0.38-7.38 0.907-11.1 1.44-11.1 1.5-22.4 1.33-33.6 1.31-1.72 1.81e-4 -1.72 1.81e-4 -3.47 3.66e-4 -19.2-0.0287-37.7-1.3-56.6-4.38-1.97-0.283-3.94-0.563-5.91-0.84-11.9-1.77-23.5-4.66-35.1-7.72-1.12-0.294-1.12-0.294-2.26-0.593-2.14-0.567-4.29-1.14-6.43-1.72-1.24-0.336-2.48-0.672-3.76-1.02-3.68-1.14-7.03-2.54-10.6-4.1-2.16-0.766-4.33-1.52-6.5-2.25-13.1-4.65-25.3-11.1-37.5-17.8-0.978-0.514-1.96-1.03-2.96-1.56-12.9-6.84-24.5-15.6-36-24.4-0.557-0.424-1.11-0.849-1.69-1.29-6.27-4.8-6.27-4.8-8.31-6.71v-2c-0.568-0.241-1.14-0.482-1.72-0.73-2.73-1.52-4.54-3.34-6.71-5.58-0.741-0.759-1.48-1.52-2.25-2.3l-2.32-2.39c-2.74-2.75-5.49-5.49-8.27-8.2-17.5-17.2-17.5-17.2-19.7-23.8h-2c-0.977-1.42-1.95-2.84-2.86-4.29-1.27-1.98-1.27-1.98-3.64-4.64-2.16-2.64-3.77-5.23-5.42-8.19-1.7-2.95-3.58-5.78-5.45-8.62-3.85-5.94-7.33-12-10.6-18.2-0.729-1.35-1.46-2.69-2.19-4.04-6.19-11.4-11.2-23-15.5-35.2-0.728-2.07-1.46-4.13-2.23-6.19-2.48-6.67-4.62-13.4-6.58-20.2-0.3-1.04-0.601-2.07-0.91-3.14-2.4-8.34-4.59-16.7-6.59-25.2-4.3 2.39-8.31 4.85-12.2 7.81-5.43 4-11 7.65-16.8 11.2-0.567 0.352-1.13 0.704-1.72 1.07-8.87 5.5-17.9 10.4-27.3 14.9-0.598 0.286-1.2 0.572-1.81 0.866-15.3 7.28-30.6 13.9-46.6 19.2-1.17 0.388-1.17 0.388-2.36 0.784-13.6 4.49-27.2 8.21-41.2 11.2-2 0.441-4 0.883-6 1.32-16.5 3.56-33.2 5.87-50 7.68-1.12 0.12-2.23 0.24-3.38 0.364-17.2 1.74-34.4 1.81-51.7 1.82-1.09 0.00109-2.17 0.00218-3.29 0.0033-20-0.00227-39.8-0.624-59.7-3.32-1.2-0.159-1.2-0.159-2.42-0.321-12.3-1.64-24.4-3.69-36.5-6.12-1.07-0.212-1.07-0.212-2.16-0.429-13.1-2.64-25.9-6.3-38.7-10.4-0.934-0.299-1.87-0.598-2.83-0.906-23-7.41-23-7.41-33.8-12.5-2.73-1.27-5.49-2.39-8.27-3.52-6.96-2.87-13.6-6.27-20.3-9.69-1.87-0.944-3.74-1.87-5.62-2.79-12.2-5.97-23.7-12.6-35-20-3.1-2.02-6.21-4.01-9.33-5.98l-2.64-1.69c-1.45-0.924-2.91-1.84-4.37-2.75-1.36-0.865-2.68-1.8-3.99-2.75v-2l-2.24-0.809c-2.7-1.17-4.6-2.42-6.88-4.25-0.786-0.632-1.57-1.26-2.38-1.91-1.23-1-1.23-1-2.49-2.02l-2.43-1.9c-13-10.3-24.6-22.1-36.3-33.7-1.27-1.26-1.27-1.26-2.56-2.55-11.7-11.7-11.7-11.7-11.7-14.8h-3c-1.41-2.14-1.41-2.14-3-5-1.46-1.93-2.94-3.85-4.44-5.75-30.6-39.2-30.6-39.2-30.6-47.2h-2c-0.401-0.813-0.802-1.63-1.21-2.46l-1.72-3.47c-0.311-0.628-0.623-1.26-0.944-1.9-1.71-3.42-3.46-6.82-5.31-10.2-8.4-15.3-14.5-31.4-20.1-47.9-0.717-2.08-1.46-4.16-2.21-6.23-4.25-12-7.11-24.2-9.8-36.6-0.482-2.22-0.973-4.43-1.47-6.64-1.86-8.37-3.23-16.7-4.36-25.2-0.169-1.22-0.338-2.44-0.512-3.7-1.68-12.4-2.52-24.6-2.57-37.2-0.00283-0.674-0.00565-1.35-0.00857-2.04-0.0149-3.58-0.0242-7.15-0.0285-10.7-0.00435-2.89-0.0181-5.79-0.041-8.68-0.137-17.7 0.473-34.9 2.92-52.4 0.446-3.31 0.806-6.62 1.15-9.94 0.672-6.45 1.74-12.7 3.31-19 0.704-2.92 1.33-5.82 1.92-8.77 2.16-10.7 4.77-21.1 8.1-31.5 0.505-1.58 0.505-1.58 1.02-3.19 1.64-4.97 3.4-9.61 5.85-14.2 0.452-1.26 0.872-2.53 1.25-3.81 5.42-16.8 13-33.4 22.1-48.5 1.51-2.54 2.89-5.11 4.25-7.73 6.74-12.4 15-24.1 23.1-35.8 0.505-0.733 1.01-1.47 1.53-2.22 1.21-1.71 2.49-3.38 3.78-5.03h2c0.33-1.32 0.66-2.64 1-4h2c0.66-1.65 1.32-3.3 2-5h2c0.222-0.53 0.443-1.06 0.672-1.61 1.8-3.24 4.16-5.92 6.58-8.71 0.497-0.579 0.995-1.16 1.51-1.75 0.979-1.14 1.96-2.28 2.94-3.42 1.54-1.8 3.04-3.63 4.55-5.45 2.41-2.81 5.07-5.18 7.94-7.51 2.4-2.06 4.58-4.31 6.81-6.55 2.04-1.96 4.11-3.89 6.19-5.81 0.533-0.502 1.07-1 1.62-1.52 3.97-3.67 3.97-3.67 6.2-3.67v-2c2.05-1.77 4.1-3.43 6.25-5.06 0.953-0.735 0.953-0.735 1.93-1.49 1.94-1.49 3.88-2.97 5.82-4.45 1.06-0.815 2.12-1.63 3.18-2.45 6.76-5.15 13.7-9.9 20.8-14.6 2.1-1.42 4.21-2.83 6.31-4.25 11.7-7.75 11.7-7.75 16.7-7.75v-2c7.74-5.84 17.3-9.78 26-14 0.782-0.381 1.56-0.762 2.37-1.16 9.73-4.73 19.5-9.12 29.6-12.8 2.06-0.811 4.13-1.62 6.19-2.44 31.4-12.1 64-20.1 97.3-24.2 2.13-0.273 4.26-0.572 6.39-0.875 4.02-0.557 8.04-1.03 12.1-1.44 1.34-0.138 1.34-0.138 2.7-0.278 33.6-3.26 67.6-2.59 101-0.41z" fill="#000001"/>
<path transform="translate(996,114)" d="m0 0h2c2.65 3.57 3.86 7.39 5.2 11.6 2.89 8.77 6.9 17.1 10.8 25.4 1 2.19 2 4.37 3 6.56 1.96 4.25 4 8.45 6.12 12.6 2.61 5.17 4.79 10.4 6.88 15.8 3.07 7.8 6.56 15.3 10.4 22.7 2.59 5.05 2.59 5.05 2.59 7.26 3.23 1.74 6.51 2.89 10 4v1h-33c2.62-1.75 4.04-2.39 7-3-0.392-7.84-2.78-13.9-6-21-0.379-0.889-0.758-1.78-1.15-2.7-1.86-4.52-1.86-4.52-4.85-8.3-1.94-0.291-1.94-0.291-4.17-0.227-1.29 2.27e-4 -1.29 2.27e-4 -2.61 4.58e-4 -0.93 0.0103-1.86 0.0206-2.82 0.0313-0.952 0.00283-1.9 0.00566-2.88 0.00858-3.05 0.0112-6.09 0.0363-9.14 0.0617-2.06 0.01-4.12 0.0192-6.19 0.0273-5.06 0.0221-10.1 0.0566-15.2 0.0977v2h-2c-0.34 1.89-0.34 1.89-0.688 3.81-0.841 3.88-2.15 7.18-3.88 10.8-2.21 4.61-3.15 8.35-3.44 13.4 0.825 0.454 1.65 0.908 2.5 1.38 0.825 0.536 1.65 1.07 2.5 1.62v2c-24.9 1.29-24.9 1.29-36.7 0.75-0.745-0.0263-1.49-0.0527-2.26-0.0798-10.5-0.61-18.6-6.64-26.1-13.7-4-4.51-4-4.51-4-7h-2c-1.42-1.87-2.76-3.8-4.06-5.75-0.812-1.19-1.63-2.39-2.44-3.58-1.22-1.79-2.44-3.59-3.65-5.38-4.76-6.98-8.89-12.1-16.8-15.3v-2c1.23-0.121 2.46-0.242 3.73-0.367 1.63-0.169 3.27-0.338 4.9-0.508 0.808-0.0786 1.62-0.157 2.45-0.238 7.28-0.769 14-1.96 18.9-7.89 3.84-7.02 4.19-15.7 2.46-23.4-1.63-4.81-3.88-8.3-8.46-10.6v-2c-0.892-0.133-1.78-0.266-2.7-0.402-1.17-0.177-2.34-0.353-3.55-0.535-1.16-0.174-2.32-0.348-3.52-0.527-3.23-0.535-3.23-0.535-5.21-1.09-3.03-0.663-5.98-0.573-9.08-0.566-1.23-0.00258-2.46-0.00516-3.72-0.00781-3.23-0.015-3.23-0.015-6.21 1.13 0.33 31 0.66 62 1 94 2.31 0.99 4.62 1.98 7 3 1.49 0.99 1.49 0.99 3 2h-32c2.91-1.94 5.86-3.46 9-5 0.0695-11.9 0.123-23.9 0.155-35.8 0.0157-5.54 0.0369-11.1 0.0709-16.6 0.0326-5.34 0.0505-10.7 0.0583-16 0.00555-2.04 0.0164-4.08 0.0326-6.12 0.0217-2.85 0.0248-5.71 0.0234-8.56 0.0108-0.846 0.0216-1.69 0.0327-2.56-0.0177-3.35-0.103-5.84-1.73-8.81-2.04-1.89-4.02-2.67-6.65-3.52v-2c5.53-0.0502 11.1-0.0861 16.6-0.11 1.87-0.00993 3.74-0.0235 5.62-0.041 9.47-0.0864 18.9-0.0568 28.3 1.02 0.679 0.0759 1.36 0.152 2.06 0.23 7.22 0.935 13.5 3.36 18.4 8.9 5.38 7.82 6.64 13.5 6.06 23-1.96 9.8-7.98 16.3-16 22-2.92 0.958-4.89 1.06-8 1 1.98 6.06 5.32 9.81 9.64 14.4 2.24 2.44 4.36 4.92 6.43 7.5 0.568 0.71 1.14 1.42 1.72 2.15 1.21 1.91 1.21 1.91 1.21 4.91 0.606 0.254 1.21 0.508 1.84 0.77 2.44 1.39 3.29 2.57 4.79 4.92 4.02 5.64 9.78 10.1 16.4 12.3 4.63 0.618 8.01 0.523 12.2-1.69 4.46-4.27 6.5-10.7 8.81-16.3h2c0.11-0.592 0.219-1.18 0.332-1.79 0.937-4.67 2-8.2 4.67-12.2 0.669-1.67 1.34-3.33 2-5 0.838-1.7 1.69-3.38 2.56-5.06 3.19-6.32 6.09-12.8 8.98-19.2 2.75-6.16 5.6-12.3 8.5-18.4 2.93-6.19 5.7-12.4 8.44-18.7 2.42-5.52 2.42-5.52 3.53-6.62zm-2 20c-4.12 8.82-8.09 17.7-12 26.6-0.875 2.03-1.75 4.05-2.63 6.07-0.562 1.3-1.12 2.6-1.69 3.89-0.501 1.16-1 2.32-1.52 3.51-1.25 2.88-1.25 2.88-2.21 5.89 3.73 1.24 7.27 1.23 11.2 1.32 1.19 0.0312 1.19 0.0312 2.41 0.063 2.54 0.0653 5.07 0.124 7.61 0.183 1.72 0.0432 3.44 0.0868 5.16 0.131 4.22 0.107 8.43 0.208 12.7 0.307 1.35-4.35 0.23-6.56-1.56-10.8-0.563-1.34-1.12-2.68-1.68-4.02-0.291-0.693-0.582-1.39-0.882-2.1-1.42-3.47-2.7-6.98-4-10.5-2.62-7.06-5.49-13.9-8.88-20.6h-2z"/>
<path transform="translate(498,1449)" d="m0 0h4c0.33 1.32 0.66 2.64 1 4h2c4.77 4.3 4.77 4.3 6 8 1.32 0.691 2.66 1.35 4 2 1.64 1.37 3.24 2.8 4.81 4.25 3.05 2.81 6.12 5.55 9.31 8.19 0.949 0.846 1.9 1.69 2.88 2.56v2c0.833 0.34 0.833 0.34 1.68 0.688 2.98 1.69 5 3.85 7.38 6.31 2.59 2.68 4.83 4.93 7.94 7v2c0.535 0.206 1.07 0.412 1.62 0.625 3.36 1.94 5.77 4.59 8.44 7.38 4.18 4.33 4.18 4.33 8.94 8v2c0.557 0.227 1.11 0.454 1.69 0.688 2.96 1.68 4.93 3.87 7.31 6.31 1.16 0.988 2.33 1.97 3.5 2.94 2.35 1.98 4.38 3.99 6.31 6.38 1.91 2.72 1.91 2.72 4.19 3.69 0.0463-9.58 0.0819-19.2 0.104-28.7 0.0104-4.45 0.0246-8.9 0.0473-13.3 0.0217-4.29 0.0337-8.58 0.0389-12.9 0.0037-1.64 0.0109-3.28 0.0217-4.91 0.0145-2.29 0.0165-4.59 0.0156-6.88 0.00444-1.31 0.00888-2.61 0.0135-3.96-0.226-3.09-0.435-4.81-2.24-7.29-3.04-1.29-3.04-1.29-6-2v-2h26c-1.62 3.25-4.75 3.7-8 5-0.785 10.1-1.15 20.1-1.13 30.2-6.77e-4 1.41-0.00165 2.82-0.0029 4.22-0.00146 2.93 6.19e-4 5.86 0.00534 8.79 0.00567 3.69 0.00234 7.37-0.00345 11.1-0.0211 15.9 0.136 31.8 1.13 47.8-3.38-1.2-5.71-2.34-8.19-4.93-0.552-0.567-1.1-1.13-1.67-1.72-0.84-0.885-0.84-0.885-1.7-1.79-1.12-1.17-2.25-2.33-3.38-3.5-0.787-0.812-0.787-0.812-1.59-1.64-1.55-1.57-1.55-1.57-3.87-3.21-0.527-0.401-1.05-0.802-1.6-1.21v-2c-0.579-0.262-1.16-0.523-1.75-0.793-5.84-3.14-10.7-8.5-15.2-13.2-4.2-4.28-8.38-8.53-12.9-12.4-4.01-3.44-7.69-7.15-11.4-10.9-2.09-2.04-4.2-3.95-6.41-5.85-4.79-4.15-9.21-8.63-13.6-13.1-1.59-1.61-3.18-3.23-4.77-4.84-1.04-1.06-1.04-1.06-2.1-2.13-1.66-1.73-1.66-1.73-3.75-2.65 0.33 26.1 0.66 52.1 1 79 1.98 0.66 3.96 1.32 6 2 1.32 0.66 2.64 1.32 4 2h-29c3-2 3-2 5.62-3 2.53-0.76 2.53-0.76 3.38-3 0.0915-1.36 0.122-2.72 0.12-4.07 0.00137-0.853 0.00275-1.71 0.00417-2.58-0.0036-0.937-0.00719-1.87-0.0109-2.84 1.46e-4 -0.985 2.92e-4 -1.97 4.43e-4 -2.99-6.99e-4 -3.27-0.00849-6.54-0.0163-9.8-0.00186-2.26-0.00329-4.52-0.00429-6.78-0.00382-5.96-0.0137-11.9-0.0247-17.9-0.0102-6.08-0.0148-12.2-0.0198-18.2-0.0107-11.9-0.0278-23.9-0.0488-35.8z"/>
<path transform="translate(733,1452)" d="m0 0h32c-2 2-2 2-9 5-0.33 14.8-0.66 29.7-1 45h65c-0.33-14.8-0.66-29.7-1-45-4.46-1.98-4.46-1.98-9-4v-1h31c-1.62 3.25-4.75 3.7-8 5-1.29 17.1-1.15 34.3-1.13 51.4 0.00577 4.23 0.00236 8.47-0.00357 12.7-0.00361 3.28-0.00247 6.57 1.28e-4 9.85 6.65e-4 1.56-1.44e-4 3.12-0.00248 4.69-0.00254 2.17 0.00133 4.34 0.0069 6.51 7.96e-4 1.23 0.00159 2.46 0.00241 3.73 0.105 2.58 0.361 4.68 1.13 7.12 1.95 0.186 1.95 0.186 3.94 0.375 2.21 0.211 2.21 0.211 4.06 0.625l1 2h-32c1.85-1.23 3.72-2.43 5.62-3.56 2.25-1.23 2.25-1.23 3.38-2.44 0.122-1.35 0.178-2.71 0.205-4.06 0.0202-0.873 0.0404-1.75 0.0612-2.65 0.0165-0.923 0.033-1.85 0.0499-2.8 0.0187-0.844 0.0373-1.69 0.0565-2.56 0.0685-3.17 0.129-6.33 0.19-9.5 0.144-7.07 0.289-14.1 0.438-21.4-21.5 0.33-42.9 0.66-65 1-0.0206 6.15-0.0412 12.3-0.0625 18.6-0.0091 1.93-0.0182 3.86-0.0276 5.85-0.00292 1.54-0.00547 3.09-0.00757 4.63-0.00767 1.18-0.00767 1.18-0.0155 2.39-6.72e-4 4.28 0.26 8.28 1.11 12.5 2.97 0.99 5.94 1.98 9 3v1h-32c3-2 3-2 5.62-2.88 0.784-0.371 1.57-0.743 2.38-1.12 1.43-4.09 1.18-8.37 1.21-12.7 0.00978-0.872 0.0196-1.74 0.0296-2.64 0.0299-2.88 0.0513-5.76 0.0702-8.64 0.00657-0.984 0.0131-1.97 0.0199-2.98 0.0326-5.2 0.057-10.4 0.0765-15.6 0.0179-4.31 0.0527-8.62 0.103-12.9 0.0601-5.2 0.0909-10.4 0.101-15.6 0.00858-1.98 0.0274-3.97 0.0567-5.95 0.0388-2.77 0.04-5.54 0.0321-8.32 0.02-0.821 0.04-1.64 0.0606-2.49 0.0329-2.57 0.0329-2.57-0.758-6.16-2.75-2.51-2.75-2.51-6-4-0.99-0.66-1.98-1.32-3-2z"/>
<path transform="translate(557,106)" d="m0 0c3.09 3.27 3.77 6.45 4.62 10.8 0.24 1.18 0.48 2.36 0.727 3.58 0.634 3.53 1.17 7.05 1.65 10.6-3-1-3-1-4.18-2.79-0.375-0.752-0.75-1.5-1.14-2.28-6.82-12.8-15.1-19.2-28.8-23.6-12.7-3.38-26.8-2.04-38.2 4.5-1.58 1.04-3.14 2.1-4.69 3.19-0.625 0.418-1.25 0.835-1.89 1.27-10.9 8.16-16.2 22.7-18.1 35.7-1.25 19.4-1.63 38.1 11.2 53.8 1.77 2.2 1.77 2.2 2.76 4.37 1.31 2.38 2.54 2.77 5.01 3.83 1.59 0.97 3.17 1.95 4.75 2.94 14.2 8.53 28.2 8.16 43.9 4.44 7.95-2.15 15.9-5.87 20.4-13.1 1.96-4.81 1.24-10.4 1.23-15.5l0.0488-3.64c0.00368-6.7-0.222-12.1-3.36-18.1-2.33-1.53-4.29-2.18-7-3 3.48-1.07 6.67-1.11 10.3-1.1 1.81 0.00483 1.81 0.00483 3.65 0.00977 1.25 0.00838 2.51 0.0168 3.8 0.0254 1.9 0.00677 1.9 0.00677 3.85 0.0137 3.13 0.0118 6.27 0.0282 9.4 0.0488-1.4 2.81-3.11 2.97-6 4-1.49 0.495-1.49 0.495-3 1 0.0262 0.993 0.0524 1.99 0.0793 3.01 0.091 3.71 0.148 7.42 0.195 11.1 0.025 1.6 0.0591 3.2 0.103 4.8 0.0611 2.31 0.0891 4.62 0.111 6.93 0.0258 0.708 0.0516 1.42 0.0782 2.14 0.00314 5.66-1.86 8.94-5.57 13-6.85 5.77-14.4 10.4-23 13-0.879 0.296-1.76 0.593-2.66 0.898-19.1 5.48-39.3 3.19-56.6-6.02-6.35-3.97-15.4-10.3-17.5-17.7-0.0657-0.714-0.131-1.43-0.199-2.16h-2c-4.48-9.32-8.41-18.6-9-29l-0.195-3.23c-0.584-18.5 4.6-35.9 17.2-49.8 5.13-5 5.13-5 8-5 0.33-0.99 0.66-1.98 1-3 21-13.3 58.3-15.7 79 0z"/>
<path transform="translate(642,114)" d="m0 0h3c0.636 1.81 0.636 1.81 1.29 3.66 3.12 8.77 6.45 17.2 10.8 25.4 2.56 5.01 4.73 10.2 6.95 15.4 2.85 6.63 5.72 13.2 8.81 19.8 2 4.23 3.91 8.48 5.69 12.8 1.93 4.69 3.95 9.33 6.06 13.9 0.281 0.627 0.562 1.25 0.852 1.9 2.1 4.53 4.19 8.88 8.73 11.3 1.04 0.331 1.04 0.331 2.11 0.668 1.24 0.392 2.48 0.784 3.75 1.19v1h-32c1.32-1.32 2.64-2.64 4-4h2c-3.9-17.4-3.9-17.4-13-31-1.93-0.321-1.93-0.321-4.06-0.306-0.811-0.016-1.62-0.032-2.46-0.0484-1.31-0.00804-1.31-0.00804-2.64-0.0163-0.899-0.00903-1.8-0.0181-2.72-0.0274-1.9-0.0145-3.8-0.0234-5.7-0.0271-2.91-0.0119-5.82-0.0611-8.73-0.112-1.85-0.00946-3.69-0.0167-5.54-0.0215-0.872-0.0195-1.74-0.0391-2.64-0.0592-2.28 0.0171-4.3 0.0739-6.51 0.618-2.11 2.25-2.11 2.25-3 5-0.423 0.862-0.846 1.72-1.28 2.61-1.26 2.79-2.5 5.58-3.72 8.39-0.326 0.741-0.652 1.48-0.988 2.25-1.8 4.37-2.75 8.05-2.01 12.8 2.39 1.94 2.39 1.94 5 3v1h-29c7.5-5 7.5-5 10-5 0.263-0.681 0.527-1.36 0.798-2.06 1.38-3.36 2.89-6.65 4.43-9.93 0.314-0.67 0.627-1.34 0.95-2.03 0.664-1.42 1.33-2.84 1.99-4.25 0.994-2.12 1.98-4.24 2.98-6.36 3.07-6.56 6.2-13.1 9.47-19.6 3.34-6.63 6.36-13.4 9.32-20.2 3.91-8.9 7.94-17.7 12.4-26.3 1.81-3.72 3.22-7.44 4.62-11.3zm-1 20c-4.3 8.26-8.08 16.5-11.4 25.2-1.9 4.8-4.12 9.45-6.37 14.1-1.65 3.23-1.65 3.23-2.18 6.75 2.39 1.2 4.06 1.2 6.73 1.32 0.961 0.042 1.92 0.084 2.91 0.127 1.02 0.0392 2.05 0.0785 3.1 0.119 1.55 0.0637 1.55 0.0637 3.14 0.129 7.71 0.299 15.4 0.429 23.1 0.309 1.38-2.19 1.38-2.19-0.0391-5.53-0.519-1.47-1.05-2.94-1.59-4.41-0.417-1.16-0.417-1.16-0.842-2.34-1.85-5.06-3.92-9.95-6.24-14.8-1.97-4.44-3.57-9.01-5.15-13.6-1.3-3.64-1.83-5.1-5.14-7.3z"/>
<path transform="translate(817,117)" d="m0 0c-2.33 1.21-4.5 2.17-7 3-0.913 8.84-1.08 17.6-1 26.4 0.0507 10.8-0.0161 21.5-0.312 32.3-0.0226 1.17-0.0451 2.34-0.0684 3.54-0.418 13.1-3.14 22-12.3 31.5-10.6 9.87-24.2 10.8-38 10.6-13-0.56-22-4.99-31.1-14.1-5.26-7.67-7.28-15.7-7.38-24.9-0.00829-0.658-0.0166-1.32-0.0251-1.99-0.0173-1.42-0.0325-2.84-0.0458-4.26-0.0211-2.25-0.0481-4.5-0.0767-6.75-0.0696-5.58-0.129-11.2-0.189-16.7-0.051-4.72-0.106-9.45-0.166-14.2-0.0265-2.21-0.0474-4.43-0.068-6.64-0.0166-1.36-0.0335-2.72-0.0507-4.08-0.0125-1.18-0.0251-2.37-0.038-3.59-0.126-2.53-0.411-4.62-1.15-7.03-2.31-0.66-4.62-1.32-7-2v-1h29c-2.57 2.57-4.48 2.54-8 3-0.0465 9.23-0.082 18.5-0.104 27.7-0.0104 4.29-0.0245 8.58-0.0473 12.9-0.0218 4.14-0.0337 8.29-0.0389 12.4-0.00368 1.58-0.0109 3.15-0.0217 4.73-0.0833 12.6 0.554 22.7 8.21 33.3 6.79 6.79 15.5 8.21 24.7 8.25 10.4-0.0165 18.5-1.94 26.3-9.25 0.33-0.66 0.66-1.32 1-2h2c0.289-0.908 0.577-1.82 0.875-2.75 1.12-3.25 1.12-3.25 2.19-5.12 3.45-7.83 2.06-17.8 2.04-26.2-0.00187-1.56-0.00329-3.12-0.00429-4.67-0.0038-4.08-0.0136-8.15-0.0247-12.2-0.0103-4.17-0.0148-8.34-0.0198-12.5-0.0107-8.16-0.0277-16.3-0.0488-24.5-2.64-0.66-5.28-1.32-8-2v-1c8.75-1.37 17.2-0.708 26 0z"/>
<path transform="translate(348,1433)" d="m0 0v19h-2c-0.392-1.22-0.784-2.43-1.19-3.69-1.89-4.91-4.09-8.09-9.04-10.3-7.13-2.47-13-2.45-20 0.254-4.31 2.74-7.09 5.15-9.06 9.94-1.4 7.76-1.35 13.8 2.31 20.8 0.309 0.763 0.619 1.53 0.938 2.31 0.945 1.83 0.945 1.83 2.88 2.59 2.4 1.21 4.12 2.63 6.12 4.41 0.973 0.86 0.973 0.86 1.96 1.74 1.53 1.42 3.02 2.87 4.49 4.35 2.73 2.72 5.56 5.33 8.42 7.91 21.6 19.7 21.6 19.7 22.4 34.5-0.145 8.56-2.96 16.6-8.75 23-1.21 1.08-1.21 1.08-2.44 2.19-0.677 0.744-0.677 0.744-1.37 1.5-6.46 5.92-16.2 6.55-24.5 6.46-9.82-0.507-19.1-2.76-26.1-9.97-0.941-2.82-1.12-4.53-1.1-7.45 0.00322-0.848 0.00645-1.7 0.00977-2.57 0.00838-0.881 0.0168-1.76 0.0254-2.67 0.00451-0.893 0.00902-1.79 0.0137-2.71 0.0118-2.2 0.0282-4.4 0.0488-6.61 0.99-0.495 0.99-0.495 2-1 0.231 0.834 0.461 1.67 0.699 2.53 2.95 11.7 2.95 11.7 10.3 20.9 7.66 3.99 16.5 5.27 24.8 2.76 6.79-3.07 11.4-7.34 14-14.4 1.61-6.02 2.09-12.4-1.07-18-2.89-3.97-6.21-7.45-9.77-10.8-1.82-1.85-3.63-3.7-5.45-5.55-1.51-1.55-1.51-1.55-3.55-2.45v-2c-0.565-0.241-1.13-0.482-1.71-0.73-4.8-2.66-8.44-7.1-12.3-11l-2.73-2.69c-7.36-7.36-12.1-13.2-12.5-23.9 0.191-9.6 2.48-15.7 9.19-22.8 12.1-11.5 28.8-8.71 44-6z"/>
<path transform="translate(932,1449)" d="m0 0h4v17c-1.49-0.495-1.49-0.495-3-1-0.879-1.81-0.879-1.81-1.56-4-0.644-2.15-0.644-2.15-1.44-4-3.01-1.51-6.12-1.14-9.42-1.13-0.738-9.57e-4 -1.48-0.00191-2.24-0.0029-1.56-6.81e-4 -3.13 0.00117-4.69 0.00534-2.38 0.00532-4.76 6.86e-5 -7.14-0.00635-1.52 6.61e-4 -3.04 0.00194-4.56 0.00391-0.706-0.00202-1.41-0.00405-2.14-0.00613-4.13 0.0193-7.68 0.451-11.8 1.14v44c5.53 0.0206 11.1 0.0412 16.8 0.0625 1.74 0.0091 3.48 0.0182 5.27 0.0276 1.38 0.00292 2.77 0.00547 4.15 0.00757 0.714 0.00512 1.43 0.0102 2.16 0.0155 3.37 5.9e-4 6.45-0.0611 9.67-1.11 0.33-1.65 0.66-3.3 1-5h2v19h-2c-0.33-1.65-0.66-3.3-1-5-3.85-1.18-7.76-1.34-11.8-1.56-0.659-0.0432-1.32-0.0864-2-0.131-7.77-0.453-15.4-0.307-23.3-0.307v44c5.61 0.0412 11.2 0.0825 17 0.125 1.75 0.0182 3.51 0.0364 5.32 0.0552 1.42 0.00585 2.83 0.0109 4.25 0.0151 0.715 0.0102 1.43 0.0205 2.17 0.031 6.02 0.00205 11.7-0.708 17-3.79 3.91-4.12 6.52-9.06 8.31-14.4h2c-0.469 6.44-2.22 11.2-5 17-0.392 0.99-0.784 1.98-1.19 3-0.812 2-0.812 2-1.81 3-1.78 0.129-3.57 0.188-5.35 0.221-1.15 0.0232-2.29 0.0463-3.47 0.0702-1.25 0.0198-2.5 0.0397-3.79 0.0602-1.28 0.0232-2.56 0.0463-3.89 0.0702-2.73 0.0486-5.45 0.0935-8.18 0.136-3.46 0.0543-6.93 0.118-10.4 0.185-3.33 0.0628-6.66 0.117-9.98 0.171-1.23 0.0239-2.46 0.0478-3.73 0.0724-7.14 0.102-14.1-0.165-21.2-0.986 2-2 2-2 9-5v-94c-1.98-0.99-3.96-1.98-6-3-1.33-0.667-2.67-1.33-4-2 8.54-0.743 17-1.17 25.6-1.28 2.32-0.0377 4.65-0.0755 6.97-0.113 3.61-0.054 7.23-0.106 10.8-0.158 3.52-0.0515 7.04-0.109 10.6-0.167 1.64-0.0204 1.64-0.0204 3.31-0.0411 0.999-0.0167 2-0.0334 3.03-0.0507 0.882-0.0125 1.76-0.0251 2.67-0.038 2 0.068 2 0.068 3.01-1.15z"/>
<path transform="translate(1169,115)" d="m0 0v3c-0.866 0.33-1.73 0.66-2.62 1-6.94 4.11-10.4 11.4-13.6 18.6-0.771 1.67-1.54 3.35-2.32 5.02-0.402 0.878-0.805 1.76-1.22 2.66-1.78 3.85-3.63 7.67-5.48 11.5-3.98 8.24-7.85 16.5-11.4 24.9-1.67 3.89-3.48 7.67-5.42 11.4-4.75 9.3-8.34 19.1-11.9 28.9h-3c-0.543-1.1-1.09-2.19-1.64-3.32-0.723-1.45-1.45-2.91-2.17-4.36-0.356-0.721-0.713-1.44-1.08-2.19-1.49-3-2.98-5.92-4.73-8.78-1.57-2.67-2.58-5.32-3.63-8.22-2.11-5.63-4.51-11-7.09-16.5-2-4.23-3.9-8.48-5.72-12.8-2.84-6.69-5.86-13.3-8.94-19.9-0.598-1.29-1.2-2.58-1.79-3.87-1.2-2.58-2.4-5.16-3.61-7.73-0.932-1.99-1.85-3.98-2.75-5.98-2.5-5.43-5.21-8.24-10.7-10.7-0.722-0.248-1.44-0.495-2.19-0.75v-1h31v3c-1.32 0.33-2.64 0.66-4 1-0.227 5.12 0.382 8.9 2.19 13.7 0.458 1.22 0.915 2.44 1.39 3.7 1.67 4.23 3.39 8.43 5.18 12.6 1.32 3.16 2.54 6.36 3.75 9.56 1.95 5.12 4.13 10.1 6.43 15.1 1.95 4.33 3.07 7.62 3.07 12.4h2c0.338 1.06 0.675 2.12 1.02 3.21 0.45 1.39 0.901 2.78 1.35 4.16 0.222 0.699 0.443 1.4 0.672 2.12 1.32 4.13 1.32 4.13 3.95 7.51 3.46-3.12 4.48-6.74 5.88-11.1 1.9-5.65 3.97-10.9 6.78-16.2 1.84-3.8 3.29-7.71 4.78-11.7 1.97-5.2 4-10.2 6.56-15.2 2.52-4.88 4.79-9.83 6.94-14.9 0.319-0.723 0.638-1.45 0.967-2.19 1.66-3.96 2.73-6.77 1.1-10.9-1.62-1.39-3.29-2.73-5-4v-2c0.782 0.00524 1.56 0.0105 2.37 0.0159 3.52 0.0207 7.04 0.0338 10.6 0.0466 1.23 0.00838 2.46 0.0168 3.73 0.0254 1.17 0.00322 2.34 0.00645 3.54 0.00977 1.08 0.00524 2.17 0.0105 3.28 0.0159 2.44 0.171 2.44 0.171 3.5-1.11z"/>
<path transform="translate(479,1451)" d="m0 0c-0.996 0.472-0.996 0.472-2.01 0.953-7.06 3.42-12 6.15-16 13h-2c-0.371 1.02-0.371 1.02-0.75 2.06-3.53 8.3-3.53 8.3-6.61 11.2-2.38 2.47-4.08 5.36-5.89 8.26-2.72 4.31-5.49 8.52-8.5 12.6-6.51 9.3-9.03 17.5-9.19 28.8-0.0628 1.65-0.0628 1.65-0.127 3.33-0.305 10.5-0.305 10.5 2.06 20.7 2.7 1.91 4.69 2.31 8 3v1h-32c3-2 3-2 5.62-3 2.53-0.76 2.53-0.76 3.38-3 0.239-2.76 0.426-5.49 0.562-8.25 0.0403-0.807 0.0806-1.61 0.122-2.45 0.114-2.43 0.217-4.87 0.315-7.3 0.0554-1.32 0.111-2.63 0.168-3.99 0.361-15.7-7.01-27.1-15.7-39.8-3.68-5.42-7.17-11-10.5-16.6-0.346-0.576-0.693-1.15-1.05-1.75-0.976-1.63-1.94-3.26-2.91-4.9-2.06-3.05-4.31-5.43-6.99-7.95-0.598-0.578-1.2-1.15-1.81-1.75-3.3-1.89-6.41-1.94-10.2-2.25v-2h37c-0.33 0.99-0.66 1.98-1 3-1.98 0.33-3.96 0.66-6 1 1.46 7.16 5.27 12.8 9 19 0.821 1.45 1.63 2.91 2.44 4.38 2.19 3.98 4.43 7.93 6.69 11.9 0.337 0.591 0.674 1.18 1.02 1.79 1.49 2.6 2.99 5.17 4.6 7.69 1.26 2.27 1.26 2.27 1.26 5.27 1.32 0.33 2.64 0.66 4 1 0.242-0.675 0.485-1.35 0.734-2.05 1.54-3.59 3.49-6.87 5.52-10.2 0.403-0.667 0.805-1.33 1.22-2.02 2.16-3.55 4.37-7.05 6.72-10.5 2.77-4.07 5.11-8.32 7.42-12.7 0.969-1.79 2-3.55 3.07-5.28 1.5-2.16 1.5-2.16 1.26-4.36-1.21-2.49-2.96-4.02-4.94-5.94v-2c0.706 0.00524 1.41 0.0105 2.14 0.0159 3.2 0.0208 6.41 0.0338 9.61 0.0466 1.11 0.00838 2.22 0.0168 3.37 0.0254 1.6 0.00483 1.6 0.00483 3.24 0.00977 0.985 0.00524 1.97 0.0105 2.98 0.0159 9.72-0.415 9.72-0.415 10.7-0.114z"/>
<path transform="translate(1181 1449)" d="m0 0c1.08 0.00685 2.17 0.0137 3.28 0.0208 9.3 0.184 17.7 1.48 26.5 4.42 1.03 0.339 2.06 0.678 3.12 1.03 5 2.04 7.33 3.94 9.45 8.97 1.61 4.92 2.58 9.63 2.5 14.8-0.00902 0.79-0.018 1.58-0.0273 2.39-0.0116 0.592-0.0232 1.18-0.0352 1.79-1.53-2.29-2.58-4.22-3.69-6.69-4.69-9.42-12-15.5-21.8-19.1-12.6-3.79-28.6-4.14-40.7 1.5-5.55 3.07-11.3 6.25-13.8 12.2h-2c-0.667 1.67-1.33 3.33-2 5-0.414 1.03-0.828 2.06-1.25 3.12-0.648 1.64-0.648 1.64-1.31 3.32-0.434 1.09-0.869 2.18-1.32 3.31-5 14.5-3.36 32.9 3.13 46.6 2.61 5.35 5.17 8.09 9.75 11.7 0.66 0.99 1.32 1.98 2 3 14.6 9.21 30.5 9.62 47 6 10.5-2.43 18.6-8.18 24.5-17.2 2.63-4.74 4.65-9.7 6.54-14.8h1c0.512 9.21-1.06 16.2-7.19 23.3-7.02 7.22-14.3 10.7-23.8 13.7-1.01 0.358-2.02 0.717-3.06 1.09-16.7 4.66-36.4 1.31-51.4-6.84-12.1-8.05-19.8-19.9-23.1-34.1-2.18-15.7-0.94-32.9 8.56-46.2 4.85-6.36 10.1-11 17-15 0.636-0.379 1.27-0.758 1.93-1.15 9.36-5.16 19.7-6.39 30.3-6.29z"/>
<path transform="translate(954,1449)" d="m0 0c1.97 0.243 1.97 0.243 3.97 0.492 4.51 0.499 8.93 0.65 13.5 0.637 1.18 0.00263 1.18 0.00263 2.39 0.00531 2.58 0.00436 5.16 0.0015 7.74-0.00189 1.81 6.75e-4 3.62 0.00165 5.43 0.0029 3.78 0.00147 7.55-6.51e-4 11.3-0.00534 4.83-0.0057 9.66-0.00241 14.5 0.00357 3.73 0.00362 7.46 0.00246 11.2-1.28e-4 1.78-6.65e-4 3.56 1.43e-4 5.34 0.00248 2.49 0.00255 4.98-0.00135 7.47-0.0069 1.09 0.00304 1.09 0.00304 2.2 0.00613 4.49-0.0185 8.46-0.491 13-1.14v16h-3c-0.495-3.96-0.495-3.96-1-8-12.8-2.55-26-1-39-1 0.33 31.7 0.66 63.4 1 96 2.97 0.99 5.94 1.98 9 3v1h-32c2.67-1.78 5.03-2.88 8-4 0.131-12.1 0.261-24.1 0.391-36.2 0.0604-5.61 0.121-11.2 0.182-16.8 0.0585-5.41 0.117-10.8 0.175-16.2 0.0223-2.07 0.0446-4.13 0.067-6.2 0.0313-2.89 0.0624-5.78 0.0934-8.66 0.014-1.29 0.014-1.29 0.0283-2.6 0.0331-3.09 0.0635-6.18 0.0635-9.28-4.75-0.0248-9.5-0.0429-14.3-0.0549-1.61-0.00502-3.23-0.0118-4.84-0.0205-2.33-0.0122-4.65-0.0178-6.98-0.0222-0.718-0.00516-1.44-0.0103-2.18-0.0156-3.71-4.12e-4 -7.14 0.224-10.8 1.11 0.0206 1.11 0.0412 2.23 0.0625 3.38-0.0625 3.62-0.0625 3.62-1.06 5.62h-2v-17z"/>
<path transform="translate(719,1449)" d="m0 0v16c-0.99-0.33-1.98-0.66-3-1-0.495-3.46-0.495-3.46-1-7-3.53-1.18-6.73-1.14-10.4-1.13-0.721-9.57e-4 -1.44-0.00191-2.19-0.0029-1.52-6.8e-4 -3.05 0.00116-4.57 0.00534-2.33 0.00535-4.66 4.84e-5 -6.99-0.00635-1.48 6.61e-4 -2.96 0.00194-4.44 0.00391-0.697-0.00202-1.39-0.00405-2.11-0.00613-3.04 0.0147-5.38 0.168-8.29 1.14 0.0842 12.2 0.179 24.4 0.288 36.7 0.05 5.67 0.0964 11.3 0.134 17 0.0368 5.47 0.0831 10.9 0.136 16.4 0.0186 2.09 0.0337 4.18 0.0453 6.27 0.0168 2.92 0.0458 5.84 0.0778 8.76 0.00216 0.872 0.00432 1.74 0.00655 2.64-0.142 4.59-0.142 4.59 2.31 8.21 1.97 0.673 1.97 0.673 4.12 1.12 1.28 0.289 2.56 0.578 3.88 0.875v1h-33c3-2 3-2 10-4v-95c-6.8-1.13-13.3-1.18-20.1-1.19-1.27-0.0122-2.55-0.0245-3.86-0.0371-1.22-0.00193-2.45-0.00387-3.71-0.00586-1.11-0.00411-2.23-0.00822-3.38-0.0125-2.92 0.242-4.55 0.556-6.93 2.24-1.02 2.32-2.02 4.66-3 7-0.99 0.33-1.98 0.66-3 1 0.14-2.48 0.287-4.96 0.438-7.44 0.0393-0.707 0.0786-1.41 0.119-2.14 0.33-5.31 0.33-5.31 1.44-6.42 2.78-0.0899 5.54-0.115 8.33-0.0977 0.873 0.00146 1.75 0.00292 2.65 0.00443 1.9 0.00382 3.81 0.00994 5.71 0.0181 3.01 0.0127 6.02 0.0193 9.03 0.0241 7.47 0.0134 14.9 0.0376 22.4 0.0614 6.31 0.0197 12.6 0.0354 18.9 0.0456 2.97 0.0065 5.94 0.019 8.91 0.0317 1.82 0.00363 3.63 0.00698 5.45 0.01 1.24 0.00775 1.24 0.00775 2.51 0.0157 4.56 4.23e-4 8.58-1.11 13.1-1.11z" fill="#000100"/>
<path transform="translate(1285 1449)" d="m0 0c1 0.00516 2 0.0103 3.04 0.0156 5.31 0.0559 10.1 0.476 15.4 1.23 0.495 7.92 0.495 7.92 1 16h-2c-0.396-0.893-0.396-0.893-0.801-1.8-2.56-4.69-6.7-7.59-11.6-9.57-8.28-1.43-16.2-1.19-23.5 3.58-3.85 3.09-5.9 5.64-7.05 10.5-0.457 5.01 0.788 8.37 3.88 12.3 3.47 3.27 7.19 6.13 11 9 1.67 1.31 3.33 2.62 5 3.94 2.3 1.79 4.58 3.45 7 5.06v2c0.692 0.226 1.38 0.451 2.1 0.684 8.6 3.9 18.1 12.6 21.9 21.3 1.88 6.69 1.07 13-2.07 19.1-4.74 7.98-11.1 13.8-19.9 16.9-11.9 2.16-27.2 0.976-37.6-5.62-3.71-6.12-2.44-12.8-0.91-19.5 0.156-0.617 0.312-1.23 0.473-1.87 0.66 0.33 1.32 0.66 2 1 0.859 3.01 1.47 6.05 2.12 9.12 0.894 2.93 1.65 3.91 3.88 5.88v2c9.39 3.98 21.2 6.73 31.1 2.75 4.82-2.94 8.49-5.51 10.9-10.8 1.33-6.32 1.23-11.1-2.11-16.9-2.27-3.39-4.03-5.53-7.89-7.08-1.02-0.98-2.02-1.98-3-3-0.99-0.495-0.99-0.495-2-1v-2c-0.732-0.26-1.46-0.521-2.22-0.789-2.84-1.24-4.88-2.65-7.28-4.59-0.782-0.626-1.56-1.25-2.37-1.9-0.703-0.57-1.41-1.14-2.13-1.73-0.846-0.66-1.69-1.32-2.56-2-16.6-13.6-16.6-13.6-17.7-24.1-0.241-5.77 1.1-10.5 3.22-15.9h2c0.186-0.557 0.371-1.11 0.562-1.69 6-9.65 17.7-10.8 28-10.6z"/>
<path transform="translate(1066,1452)" d="m0 0h33c-3 2-3 2-6.12 3.38-2.98 1.27-2.98 1.27-3.55 3.49-0.532 3.45-0.467 6.91-0.458 10.4-0.00175 0.831-0.0035 1.66-0.00531 2.52-0.0044 2.75-0.00149 5.49 0.00189 8.24-6.74e-4 1.91-0.00164 3.82-0.0029 5.73-0.00147 4 6.69e-4 8.01 0.00534 12 0.00569 5.13 0.00242 10.3-0.00357 15.4-0.00362 3.95-0.00246 7.89 1.28e-4 11.8 6.67e-4 1.89-1.5e-4 3.78-0.00248 5.67-0.00254 2.64 0.00134 5.29 0.0069 7.93-0.00202 0.78-0.00405 1.56-0.00613 2.36 0.0152 3.89 0.364 7.18 1.14 11 3.3 0.99 6.6 1.98 10 3v1h-35c3.6-1.8 7.3-3.41 11-5 0.33-31 0.66-62 1-94-3.66-1.46-7.26-2.78-11-4v-1z" fill="#000100"/>
</svg>
