<?xml version="1.0" encoding="UTF-8"?>
<svg version="1.1" viewBox="0 0 1600 1040" width="1280" height="1280" xmlns="http://www.w3.org/2000/svg">
<path transform="translate(1073 32.7)" d="m0 0c2.98 1.26 5.99 2.35 9.04 3.45 7.25 2.78 13.8 6.44 20.4 10.4 0.882 0.527 0.882 0.527 1.78 1.07 9.17 5.49 17.7 11.4 25.8 18.3 2.02 1.63 4.04 3.25 6.06 4.88 5.61 4.54 10.4 9.59 15.1 15.1 1.34 1.5 2.75 2.95 4.19 4.36 3.12 3.18 5.88 6.54 8.66 10 0.508 0.626 1.02 1.25 1.54 1.9 9.46 11.8 9.46 11.8 9.46 15.8h2c18.3 33.3 18.3 33.3 24 50 0.514 1.34 1.03 2.67 1.56 4 2.21 5.87 3.79 12 5.44 18 0.32 1.16 0.639 2.32 0.969 3.51 4.68 17.8 8.08 35.7 9.16 54.1 0.0614 1.01 0.0614 1.01 0.124 2.04 0.952 15.9 1.05 31.9 1 47.8-0.0116 3.99-0.00467 7.98 0.00714 12 0.00727 3.14 0.00491 6.29-2.56e-4 9.43-0.00131 1.47 2.23e-4 2.94 0.00496 4.41 0.0665 26.4 0.0665 26.4-6.81 33.3-4.62 3.64-6.62 4.58-12.5 4.59-1.28 0.00426-2.56 0.00853-3.88 0.0129-1.43-3.5e-4 -2.86-8.11e-4 -4.28-0.00137-1.5 0.00299-3 0.00639-4.49 0.0102-4.08 0.00885-8.15 0.0112-12.2 0.0118-3.4 9.48e-4 -6.8 0.00463-10.2 0.00817-8.03 0.00815-16.1 0.0106-24.1 0.00987-8.28-6e-4 -16.6 0.00994-24.8 0.0257-7.11 0.0131-14.2 0.0184-21.3 0.0178-4.25-2.55e-4 -8.49 0.00259-12.7 0.0132-4 0.00969-7.99 0.00976-12 0.00248-1.46-0.00105-2.93 0.00131-4.39 0.00736-2 0.00773-4.01 0.00187-6.01-0.00463-1.68 8.17e-4 -1.68 8.17e-4 -3.39 0.00165-4.05-0.323-7.8-0.913-10.7-3.88-0.376-0.638-0.753-1.28-1.14-1.93-0.387-0.62-0.773-1.24-1.17-1.88-3.52-8.35-3.38-17-3.41-25.8-0.0084-2.41-0.029-4.83-0.0525-7.24-0.0479-5.14-0.081-10.3-0.112-15.4-0.036-5.93-0.0785-11.9-0.136-17.8-0.0196-2.34-0.0283-4.68-0.0363-7.03-0.193-27.5-5.54-53.8-25.3-74.2-14.9-14.6-33.2-20.4-53.9-20.2-20.1 0.77-37.8 9.03-51.6 23.8-39.2 46.4-21.2 133-21.6 179 164 0.33 327 0.66 496 1-0.0792-111-0.0792-111-0.18-221-0.00903-21.4-0.00903-21.4-0.0107-31.3-0.00187-6.99-0.00921-14-0.0203-21-0.0127-8.06-0.0185-16.1-0.0157-24.2 0.0012-4.12-7.07e-4 -8.25-0.0115-12.4-0.00974-3.73-0.0102-7.46-0.00337-11.2 0.00125-1.98-0.00736-3.97-0.0164-5.95 0.034-10.2 0.709-19.5 7.51-27.7 5.54-4.66 10.7-5.76 17.8-5.74 0.778-0.0102 1.56-0.0204 2.36-0.0309 2.57-0.0301 5.15-0.0394 7.72-0.0485 1.83-0.017 3.65-0.0352 5.48-0.0547 4.87-0.0481 9.74-0.0778 14.6-0.104 5.03-0.0292 10.1-0.0741 15.1-0.117 10.7-0.0871 21.4-0.148 32.1-0.2 3.12-0.0157 6.24-0.0335 9.35-0.0514 7.72-0.0439 15.4-0.0724 23.1-0.0865 0.992-0.00277 1.98-0.00554 3.01-0.00839 9.19-0.0191 18.4 0.0564 27.5 0.559 0.686 0.0361 1.37 0.0722 2.08 0.109 6.48 0.408 11.9 1.42 17 5.53 1.44 1.94 1.44 1.94 1.44 3.94h2c2.55 9.25 3.43 17.8 3.36 27.4 0.00131 1.4 0.00394 2.8 0.00777 4.2 0.00665 3.81-0.00521 7.63-0.0203 11.4-0.013 4.13-0.00857 8.25-0.00629 12.4 0.00157 7.14-0.00779 14.3-0.0247 21.4-0.0245 10.3-0.0322 20.6-0.036 31-0.00655 16.7-0.0265 33.5-0.0549 50.2-0.0276 16.3-0.0488 32.5-0.0615 48.8-7.88e-4 1-0.00158 2.01-0.00239 3.04-0.00392 5.03-0.00771 10.1-0.0114 15.1-0.0311 41.7-0.0839 83.4-0.151 125-4.34 1.87-7.61 2.24-12.4 2.23-0.722 2.92e-4 -1.44 5.84e-4 -2.19 8.85e-4 -2.38-0.00139-4.75-0.0169-7.13-0.0326-1.65-0.00373-3.3-0.00658-4.96-0.00858-4.34-0.00762-8.68-0.0273-13-0.0494-4.43-0.0205-8.86-0.0296-13.3-0.0397-8.69-0.0214-17.4-0.0555-26.1-0.0977-0.33 2.97-0.66 5.94-1 9-3.06 0.765-5.03 1.13-8.07 1.13-0.808 0.00246-1.62 0.00492-2.45 0.00745-0.884-0.00239-1.77-0.00478-2.68-0.00724-0.947 0.0014-1.89 0.0028-2.87 0.00425-3.2 0.00351-6.41-1.7e-4 -9.61-0.00376-2.32 0.00104-4.64 0.00252-6.95 0.0044-5.74 0.00351-11.5 0.00232-17.2-7.65e-4 -6.92-0.00346-13.8-0.00109-20.8 0.00146-12.9 0.00461-25.9 0.00445-38.8 0.00172-13.1-0.00275-26.2-0.00333-39.4-0.00126-1.24 1.94e-4 -1.24 1.94e-4 -2.51 3.91e-4 -3.37 5.33e-4 -6.74 0.00108-10.1 0.00165-31.4 0.00529-62.9 0.00565-94.3 0.00285-0.932-8.28e-5 -1.86-1.66e-4 -2.82-2.51e-4 -1.4-1.24e-4 -1.4-1.24e-4 -2.83-2.51e-4 -28.4-0.00252-56.8-0.00318-85.2-0.00198-1.9 7.75e-5 -3.8 1.55e-4 -5.7 2.31e-4 -7.64 3.1e-4 -15.3 6.29e-4 -22.9 9.6e-4 -21.4 9.17e-4 -42.7 0.00149-64.1 0.00179-0.973 1.36e-5 -1.95 2.73e-5 -2.95 4.14e-5 -31 4.09e-4 -62-7.18e-4 -93-0.00289-1.01-7.02e-5 -2.01-1.4e-4 -3.05-2.13e-4 -16.3-0.00114-32.7-0.00236-49-0.00359-64.8-0.00485-130-0.00463-194 2.31e-4 -16.3 0.00122-32.6 0.00243-48.9 0.00357-1 7.04e-5 -2.01 1.41e-4 -3.04 2.13e-4 -31 0.00216-61.9 0.00307-92.9 0.00264-0.972-1.36e-5 -1.94-2.72e-5 -2.95-4.12e-5 -21.3-3.13e-4 -42.7-9.46e-4 -64-0.00187-7.64-3.29e-4 -15.3-6.42e-4 -22.9-9.51e-4 -1.9-7.74e-5 -3.8-1.56e-4 -5.7-2.36e-4 -28.4-0.00119-56.8-1.78e-4 -85.2 0.00235-1.4 1.24e-4 -1.4 1.24e-4 -2.82 2.51e-4 -0.929 8.27e-5 -1.86 1.65e-4 -2.82 2.51e-4 -31.4 0.00276-62.7 0.00174-94.1-0.00353-3.37-5.52e-4 -6.74-0.00109-10.1-0.00161-0.827-1.3e-4 -1.65-2.6e-4 -2.51-3.95e-4 -13.1-0.00197-26.2-6.01e-4 -39.2 0.00216-12.9 0.00265-25.7 0.00171-38.6-0.00301-6.88-0.00243-13.8-0.00332-20.6 4.06e-4 -6.26 0.00324-12.5 0.00184-18.8-0.00318-2.25-1e-3 -4.49-3.52e-4 -6.74 0.00221-13.1 0.0139-26.2-0.286-39.3-1.13v-8c-1.16 0.0058-2.32 0.0116-3.51 0.0176-15.4 0.0513-30.9-0.201-46.3-0.481-3.42-0.0617-6.84-0.121-10.3-0.181-6.65-0.117-13.3-0.235-19.9-0.355-1.3-2.6-1.13-4.49-1.13-7.41-0.00322-1.16-0.00645-2.31-0.00977-3.5 0.00155-1.28 0.0031-2.56 0.00469-3.88-0.00187-1.37-0.00417-2.73-0.00687-4.1-0.00614-3.77-0.00598-7.53-0.00481-11.3 2.03e-4 -4.06-0.00531-8.12-0.0101-12.2-0.00832-7.96-0.0111-15.9-0.0116-23.9-4.75e-4 -6.47-0.00253-12.9-0.0057-19.4-0.00881-18.3-0.0134-36.7-0.0127-55 4e-5 -0.99 7.99e-5 -1.98 1.21e-4 -3 4.09e-5 -0.991 8.18e-5 -1.98 1.24e-4 -3 4.06e-4 -16-0.00915-32.1-0.0233-48.1-0.0144-16.5-0.0213-32.9-0.0204-49.4 3.32e-4 -9.25-0.0024-18.5-0.0132-27.7-0.00912-7.88-0.0113-15.8-0.00449-23.6 0.00326-4.02 0.00335-8.04-0.00535-12.1-0.00791-3.69-0.00639-7.37 0.00228-11.1 0.00224-1.95-0.00526-3.9-0.0132-5.85 0.0879-22.6 0.0879-22.6 6.26-29.4h2c0.33-0.99 0.66-1.98 1-3 5.19-3.07 9.86-4.12 15.8-4.13 1.42-0.00484 1.42-0.00484 2.88-0.00977 1.55 0.00232 1.55 0.00232 3.13 0.00469 1.11-0.00227 2.21-0.00453 3.35-0.00687 3.71-0.00634 7.43-0.00551 11.1-0.00469 2.66-0.00299 5.32-0.00637 7.98-0.0102 6.48-0.00831 13-0.0111 19.5-0.0116 5.28-4.76e-4 10.6-0.00253 15.8-0.0057 15-0.00881 30-0.0134 45-0.0127 1.21 5.99e-5 1.21 5.99e-5 2.45 1.21e-4 0.81 4.09e-5 1.62 8.18e-5 2.45 1.24e-4 13.1 4.05e-4 26.2-0.00912 39.2-0.0233 13.5-0.0144 26.9-0.0213 40.4-0.0204 7.54 3.3e-4 15.1-0.00232 22.6-0.0132 6.43-0.0092 12.9-0.0112 19.3-0.00449 3.27 0.00322 6.54 0.00236 9.82-0.00535 33.4-0.0736 68.4 1.53 100 13.3 0.975 0.345 1.95 0.691 2.95 1.05 12.5 4.58 25.4 9.91 36.3 17.7 2.17 1.55 4.47 2.83 6.8 4.12 2.61 1.51 5.16 3.09 7.71 4.7 1.38 0.868 1.38 0.868 2.8 1.75 2.1 1.44 3.68 2.88 5.45 4.68 1.67 0.948 3.34 1.9 5.02 2.82 3.52 2.08 6.96 4.42 9.98 7.18v2l1.75 0.812c2.31 1.22 4.27 2.49 6.25 4.19v2c0.582 0.257 1.16 0.514 1.76 0.78 2.44 1.33 4.07 2.79 6.03 4.75 0.709 0.705 1.42 1.41 2.15 2.14 0.741 0.75 1.48 1.5 2.25 2.27 0.757 0.763 1.51 1.53 2.29 2.31 15.5 15.8 15.5 15.8 15.5 19.8h2c0.33 1.32 0.66 2.64 1 4h2c2.63 3.46 4.76 7.28 7 11 0.388 0.637 0.776 1.27 1.18 1.93 6.13 10.1 11.8 20.4 16.8 31.1 0.397 0.834 0.794 1.67 1.2 2.53 10.4 22.2 16.9 46.6 20.1 70.8 0.239 1.77 0.239 1.77 0.483 3.57 2.47 20.3 2.35 40.9 2.3 61.4-0.00148 1.96-0.00249 3.92-0.00305 5.88-0.00516 7.12-0.0191 14.2-0.0321 21.4l-0.0625 48.4h127l-0.0703-32.7c-0.0102-6.86-0.0199-13.7-0.0273-20.6-0.0118-10.9-0.0257-21.8-0.0532-32.6-0.02-7.92-0.0329-15.8-0.0373-23.8-0.00259-4.19-0.00862-8.38-0.0233-12.6-0.0137-3.96-0.0177-7.91-0.0148-11.9-5.44e-4 -1.44-0.00443-2.88-0.0122-4.32-0.0437-8.54 0.479-16.7 1.74-25.2 0.497-3.4 0.853-6.79 1.18-10.2 5.77-42.7 27.6-86.1 56.9-118 1.51-1.56 1.51-1.56 2.43-3.6h2c0.33-0.99 0.66-1.98 1-3 1.64-1.65 1.64-1.65 3.69-3.38 0.722-0.614 1.44-1.23 2.19-1.86 1.77-1.47 3.54-2.93 5.31-4.39 2.82-2.29 2.82-2.29 5.12-4.81 3.03-2.89 6.26-5.01 9.8-7.23 2.02-1.2 2.02-1.2 2.89-3.33 1.61-0.927 3.23-1.85 4.86-2.75 2.35-1.38 4.54-2.91 6.76-4.5 24.5-17.3 52.3-28.6 81.4-35.8 0.932-0.235 1.86-0.47 2.82-0.712 58.9-14.7 131-15 187 9.45zm-852 171c-0.112 2.33-0.159 4.63-0.165 6.96-0.00564 0.736-0.0113 1.47-0.0171 2.23-0.0178 2.49-0.0284 4.97-0.0391 7.46-0.0112 1.78-0.0228 3.55-0.0349 5.33-0.0314 4.84-0.0565 9.67-0.0802 14.5-0.0255 5.05-0.0559 10.1-0.0855 15.2-0.0489 8.49-0.0936 17-0.136 25.5-0.049 9.82-0.105 19.6-0.165 29.5-0.0513 8.42-0.0987 16.8-0.143 25.3-0.0263 5.04-0.054 10.1-0.0854 15.1-0.0293 4.74-0.0535 9.48-0.0739 14.2-0.0083 1.74-0.0184 3.48-0.0303 5.22-0.016 2.37-0.0257 4.75-0.0337 7.12-0.00612 0.689-0.0122 1.38-0.0186 2.09-0.00505 3.69 0.372 6.7 1.11 10.4h156c0.0171-37 0.0171-37-0.317-74-0.0507-3.58-0.09-7.16-0.127-10.7-0.0317-2.86-0.0715-5.71-0.113-8.57-0.0266-1.94-0.045-3.89-0.0629-5.83-0.416-25.2-6.87-47.9-24.8-66.5-2.29-2.53-2.29-2.53-4.62-2.31v-2c-18.7-14.6-41.6-17.3-64.5-17.2-1.75 0.00119-3.5 0.00164-5.25 0.00139-3.64 0.00155-7.27 0.00975-10.9 0.0233-4.67 0.0171-9.34 0.0208-14 0.0201-3.6 2.71e-4 -7.2 0.00574-10.8 0.013-1.72 0.00319-3.45 0.00515-5.17 0.00589-2.39 0.00216-4.79 0.0109-7.18 0.0216-1.07-6.8e-4 -1.07-6.8e-4 -2.17-0.00137-3.28-0.26-3.28-0.26-5.99 1.15z" fill="#000100"/>
<path transform="translate(162 677)" d="m0 0c2.34-0.00135 4.68-0.00314 7.02-0.00531 6.37-0.00468 12.7-0.00324 19.1-7.22e-4 6.23 0.00197 12.5-0.00179 18.7-0.00487 12.9-0.0062 25.8-0.00771 38.7-0.00658 13 0.00113 26.1 7.94e-5 39.1-0.00357 0.826-2.3e-4 1.65-4.59e-4 2.5-6.96e-4 3.37-9.42e-4 6.73-0.0019 10.1-0.00287 35-0.0101 70.1-0.0132 105-0.0138 3.77-6.47e-5 7.53-1.33e-4 11.3-2.03e-4 0.934-1.7e-5 1.87-3.4e-5 2.83-5.15e-5 20.7-4.09e-4 41.5-0.0026 62.2-0.0051 8.54-0.00103 17.1-0.00202 25.6-0.00302 0.944-1.11e-4 1.89-2.21e-4 2.86-3.35e-4 54.1-0.00632 108-0.0104 162-0.00999 2.02 1.58e-5 4.04 3.15e-5 6.06 4.72e-5 9.12 7.34e-5 18.2 1.62e-4 27.4 2.54e-4 4.07 4.11e-5 8.14 8.13e-5 12.2 1.21e-4 2.04 2.04e-5 4.07 4.14e-5 6.11 6.31e-5 64.5 6.81e-4 129-0.00665 193-0.0205 16.3-0.0035 32.5-0.00697 48.8-0.0103 1-2.03e-4 2-4.06e-4 3.03-6.15e-4 30.8-0.00621 61.7-0.00998 92.5-0.0112 1.45-5.99e-5 1.45-5.99e-5 2.93-1.21e-4 21.2-8.53e-4 42.5-0.00111 63.7-8.3e-4 7.6 9.65e-5 15.2 1.49e-4 22.8 1.79e-4 1.89 7.91e-6 3.78 1.81e-5 5.67 3.06e-5 30.1 1.77e-4 60.3-0.00553 90.4-0.0142 30.3-0.00863 60.7-0.0109 91-0.00424 4.18 9.12e-4 8.37 0.00176 12.6 0.00256 1.23 2.4e-4 1.23 2.4e-4 2.49 4.85e-4 13 0.00236 26-0.00202 39.1-0.00916 12.8-0.00687 25.6-0.00667 38.4 0.00119 6.85 0.00402 13.7 0.00483 20.5-0.00346 6.21-0.00722 12.4-0.00542 18.6 0.00392 2.25 0.00174 4.49 4.21e-5 6.74-0.0053 3.03-0.00672 6.05-0.00136 9.08 0.00727 0.885-0.0049 1.77-0.0098 2.68-0.0148 5.99 0.0361 5.99 0.0361 8.22 2.26 0.565 2.66 0.738 5.29 1 8 1.01-0.00524 2.03-0.0105 3.07-0.0159 19.5-0.0911 38.9-0.0415 58.4 0.453 0.834 0.0196 1.67 0.0393 2.53 0.0595 2.34 0.0565 4.69 0.12 7.03 0.187 1.05 0.0251 1.05 0.0251 2.12 0.0507 4.77 0.15 4.77 0.15 5.89 1.27 0.0998 1.62 0.129 3.24 0.131 4.87 0.00384 1.06 0.00768 2.12 0.0116 3.21-8.66e-4 1.18-0.00173 2.36-0.00263 3.57 0.00446 1.86 0.00446 1.86 9e-3 3.76 0.0072 3.46 0.00986 6.92 0.0106 10.4 0.00185 3.73 0.00939 7.46 0.0161 11.2 0.0136 8.16 0.0196 16.3 0.024 24.5 0.00276 5.1 7e-3 10.2 0.0115 15.3 0.0122 14.1 0.0225 28.2 0.0259 42.3 2.2e-4 0.904 4.39e-4 1.81 6.65e-4 2.74 2.18e-4 0.906 4.37e-4 1.81 6.61e-4 2.75 4.43e-4 1.84 8.9e-4 3.67 0.00134 5.51 2.21e-4 0.911 4.43e-4 1.82 6.71e-4 2.76 0.00394 14.7 0.0214 29.5 0.0447 44.2 0.0237 15.1 0.0362 30.3 0.0373 45.4 9.15e-4 8.5 0.00663 17 0.0248 25.5 0.0154 7.24 0.0205 14.5 0.0123 21.7-0.00389 3.69-0.00305 7.38 0.0111 11.1 0.0152 4.01 0.00683 8.03-0.00358 12 0.00806 1.15 0.0161 2.3 0.0244 3.49-0.0577 9.56-0.607 21.3-7.39 28.7-5.31 3.9-10.5 5.11-16.9 5.16-1.45 0.0147-1.45 0.0147-2.93 0.0297-1.05 0.00576-2.1 0.0115-3.18 0.0174-1.12 0.0099-2.23 0.0198-3.38 0.03-3.7 0.0316-7.4 0.0564-11.1 0.0811-2.59 0.0206-5.19 0.0416-7.78 0.063-5.45 0.044-10.9 0.085-16.4 0.123-6.91 0.0485-13.8 0.102-20.7 0.158-6.67 0.0537-13.3 0.105-20 0.156-1.24 0.00956-2.47 0.0191-3.74 0.029-7.09 0.0539-14.2 0.0972-21.3 0.132-3.73 0.0238-7.45 0.0637-11.2 0.104-2.49 0.0187-4.99 0.037-7.48 0.055-1.13 0.0161-2.27 0.0321-3.43 0.0487-19.1 0.0969-19.1 0.0969-26.5-6.19-6.33-6.69-8.13-14.6-8.12-23.6-0.00199-1.09-0.00398-2.18-0.00603-3.3 0.00291-1.18 0.00583-2.37 0.00883-3.59-8.54e-4 -1.27-0.00171-2.53-0.00259-3.84-0.00223-3.51 0.00176-7.02 0.00678-10.5 0.00432-3.79 0.00286-7.57 0.0021-11.4-5.24e-4 -6.56 0.00261-13.1 0.00824-19.7 0.00813-9.48 0.0107-19 0.012-28.5 0.00219-15.4 0.00884-30.8 0.0183-46.2 0.00918-14.9 0.0163-29.9 0.0205-44.8 2.63e-4 -0.921 5.25e-4 -1.84 7.96e-4 -2.79 0.00131-4.62 0.00257-9.24 0.00381-13.9 0.0104-38.3 0.028-76.7 0.0503-115-20.3-0.0233-40.6-0.041-60.9-0.0518-9.43-0.00516-18.9-0.0122-28.3-0.0236-8.21-0.00995-16.4-0.0164-24.6-0.0186-4.35-0.00131-8.7-0.00439-13.1-0.0116-4.09-0.00677-8.18-0.00889-12.3-0.00738-1.51-2.76e-4 -3.01-0.00228-4.52-0.0061-2.05-0.00495-4.1-0.00319-6.15-0.00105-1.15-9.22e-4 -2.3-0.00184-3.48-0.00279-2.65-0.06-2.65-0.06-4.68 1.12-0.0103 0.79-0.0206 1.58-0.0312 2.4-1.08 82.2-1.08 82.2-1.89 105-0.077 2.14-0.147 4.27-0.218 6.41-0.665 19.4-3.04 37.8-7.86 56.7-0.226 0.909-0.452 1.82-0.686 2.75-2.09 8.34-4.52 16.4-8.02 24.3-1.45 3.32-2.71 6.7-3.98 10.1-6.95 17.8-18 33.6-29.3 48.9-0.795 1.14-0.795 1.14-1.61 2.31-0.46 0.557-0.92 1.11-1.39 1.69h-2c-0.402 0.884-0.402 0.884-0.812 1.79-1.2 2.24-2.46 3.8-4.2 5.64-0.594 0.632-1.19 1.26-1.8 1.92-0.929 0.975-0.929 0.975-1.88 1.97-0.6 0.639-1.2 1.28-1.82 1.94-1.82 1.93-3.65 3.84-5.49 5.75-0.643 0.673-1.29 1.35-1.95 2.04-0.622 0.64-1.24 1.28-1.88 1.94-0.561 0.58-1.12 1.16-1.7 1.76-1.47 1.26-1.47 1.26-3.47 1.26v2c-1.45 1.29-1.45 1.29-3.48 2.76-0.746 0.539-1.49 1.08-2.26 1.63-1.21 0.858-1.21 0.858-2.45 1.73-1.23 0.877-1.23 0.877-2.48 1.77-6.61 4.68-13.4 8.96-20.3 13.1-1.31 0.851-2.63 1.7-3.94 2.56-12.7 7.84-26.6 13-40.4 18.4-2.22 0.887-4.42 1.81-6.61 2.77-2.71 1.14-5.28 2-8.12 2.73-3.03 0.786-6.03 1.59-9.02 2.5-6.91 2.1-13.8 3.78-20.9 5.19-0.762 0.158-1.52 0.317-2.31 0.48-18.1 3.45-36.6 3.74-55 3.64-1.07-0.0031-2.15-0.0062-3.25-0.0094-49.5-0.168-96.3-8.99-140-32.2-1.03-0.507-2.06-1.01-3.12-1.54-9.93-5.05-18.9-11.9-27.9-18.5-1.01-0.728-2.02-1.46-3.05-2.21-2.65-1.92-5.3-3.86-7.95-5.79-0.764-0.557-1.53-1.11-2.32-1.69-6.94-5.11-6.94-5.11-9.68-8.31v-2c-1.32-0.66-2.64-1.32-4-2v-2c-1.32-0.66-2.64-1.32-4-2v-2h-2c-1.69-1.64-1.69-1.64-3.56-3.81-0.62-0.708-1.24-1.42-1.88-2.14-1.56-2.04-1.56-2.04-2.56-5.04-0.99-0.33-1.98-0.66-3-1-1.39-1.56-1.39-1.56-2.69-3.44-0.437-0.617-0.874-1.23-1.32-1.87-0.988-1.69-0.988-1.69-0.988-3.69h-2c-1.45-1.95-1.45-1.95-3.12-4.69-0.624-1.01-1.25-2.03-1.89-3.07-0.655-1.07-1.31-2.14-1.98-3.24-0.634-0.976-1.27-1.95-1.92-2.96-5.95-9.27-10.6-19-15.1-29-0.473-1.03-0.946-2.05-1.43-3.11-13-29.4-18.6-62.2-18.8-94.2-0.0099-1.15-0.0198-2.31-0.03-3.49-0.0313-3.76-0.0562-7.52-0.0811-11.3-0.0206-2.63-0.0416-5.25-0.063-7.88-0.0496-6.18-0.0947-12.4-0.138-18.5-0.0497-7.04-0.104-14.1-0.16-21.1-0.113-14.5-0.22-28.9-0.323-43.4-2.94-1.47-5.92-1.14-9.15-1.13-0.745-0.00227-1.49-0.00453-2.26-0.00687-2.51-0.00636-5.02-0.00551-7.53-0.00469-1.79-0.00299-3.59-0.00639-5.38-0.0102-4.88-0.00886-9.76-0.0112-14.6-0.0118-4.07-9.48e-4 -8.15-0.00463-12.2-0.00817-9.61-0.00815-19.2-0.0106-28.8-0.00987-9.92 6e-4 -19.8-0.00994-29.8-0.0257-8.51-0.0131-17-0.0184-25.5-0.0178-5.08 2.55e-4 -10.2-0.0026-15.3-0.0132-4.78-0.00968-9.57-0.00976-14.4-0.00248-1.76 0.00105-3.51-0.00132-5.27-0.00736-2.4-0.00772-4.79-0.00308-7.19 0.00463-0.693-0.00514-1.39-0.0103-2.1-0.0156-4.2 0.0298-7.71 0.519-11.6 2.26-0.33 0.99-0.66 1.98-1 3-1.46 1.22-2.92 2.44-4.41 3.62-1.96 1.69-3.44 3.68-5.04 5.7-2.73 2.95-5.96 5.3-9.15 7.75-2.38 1.83-2.38 1.83-4.2 3.79-24.6 23.9-60.8 40.6-93.2 50.1-0.985 0.334-1.97 0.668-2.98 1.01-39.1 12.8-80.5 11.2-121 11.1-4.75-0.0104-9.51-0.0148-14.3-0.0198-9.24-0.0106-18.5-0.0275-27.7-0.0488 0.00138 1.62 0.00138 1.62 0.00279 3.28 0.0222 26.4 0.0387 52.8 0.049 79.2 0.00515 12.8 0.0122 25.5 0.0236 38.3 0.01 11.1 0.0164 22.3 0.0186 33.4 0.0013 5.89 0.00433 11.8 0.0116 17.7 0.00684 5.55 0.00887 11.1 0.00738 16.7 2.73e-4 2.03 0.00223 4.05 0.0061 6.08 0.0169 9.34-0.0217 18.7-0.458 28-0.0247 0.684-0.0493 1.37-0.0747 2.07-0.34 6.04-2.32 10.2-6.59 14.4-6.13 5.01-11.7 5.15-19.4 5.21-1.25 0.0148-1.25 0.0148-2.53 0.03-2.77 0.0316-5.54 0.0564-8.31 0.0811-1.96 0.0208-3.92 0.0419-5.87 0.0634-5.23 0.0559-10.5 0.105-15.7 0.153-3.23 0.0296-6.47 0.0605-9.7 0.0918-13.6 0.131-27.2 0.248-40.8 0.354-2.56 0.0199-5.11 0.0404-7.67 0.061-7.81 0.0621-15.6 0.113-23.4 0.137-2.15 0.00742-4.29 0.018-6.44 0.032-28.7 0.174-28.7 0.174-36.6-6.49-12.5-13.2-7.76-40.5-7.75-57.2-8.08e-4 -2.75-0.0031-5.49-0.00531-8.24-0.00442-6.65-0.0035-13.3-5.87e-4 -19.9 0.00227-5.41 0.00256-10.8 0.00148-16.2-1.53e-4 -0.773-3.06e-4 -1.55-4.64e-4 -2.34-3.2e-4 -1.57-6.44e-4 -3.14-9.73e-4 -4.71-0.00284-14.7 4.13e-4 -29.4 0.0058-44.1 0.00447-12.6 0.00369-25.2-9.19e-4 -37.7-0.00536-14.6-0.00745-29.3-0.00439-43.9 3.19e-4 -1.56 6.33e-4 -3.13 9.43e-4 -4.69 1.54e-4 -0.77 3.09e-4 -1.54 4.68e-4 -2.33 8.6e-4 -5.4-5.86e-4 -10.8-0.00295-16.2-0.00282-6.58-0.00202-13.2 0.00328-19.7 0.00261-3.35 0.00314-6.7 3.51e-4 -10.1-0.0195-25.8-0.0195-25.8 1.13-38.3 18-0.766 36.1-1.26 54.1-1.56 2.43-0.0434 4.87-0.087 7.3-0.131 5.86-0.105 11.7-0.207 17.6-0.307 0.66-2.64 1.32-5.28 2-8 16.8-0.753 33.5-1.15 50.3-1.13zm725 11.1c-0.204 2.93-0.283 5.77-0.275 8.71-0.00511 0.903-0.0102 1.81-0.0155 2.74-0.014 3-0.0129 6.01-0.0106 9.01-0.00389 2.1-0.00822 4.2-0.013 6.3-0.00748 4.42-0.00716 8.84-0.00191 13.3 0.00573 5.61-0.011 11.2-0.0343 16.8-0.0149 4.35-0.0156 8.7-0.0125 13-5.07e-4 2.06-0.00562 4.12-0.0158 6.19-0.106 24.4 2.95 45.2 14.4 66.9h2c0.99 2.48 0.99 2.48 2 5h2c0.186 0.701 0.371 1.4 0.562 2.12 1.96 3.92 4.84 6.41 8.44 8.88h2v2c1.32 0.33 2.64 0.66 4 1v2c20.2 11.8 41.5 15.7 64.4 9.77 5.62-1.6 10.7-3.73 15.6-6.77 1.08-0.626 1.08-0.626 2.18-1.27 9.31-5.77 18.2-14 24.8-22.7v-3h2c9.73-18.7 12.5-34.7 12.5-55.6 0.0194-2.18 0.04-4.36 0.0616-6.54 0.0421-4.55 0.0749-9.09 0.1-13.6 0.0323-5.81 0.082-11.6 0.138-17.4 0.0424-4.49 0.0788-8.98 0.113-13.5 0.0165-2.14 0.034-4.28 0.0527-6.43 0.0246-3 0.0419-5.99 0.0571-8.99 0.00823-0.873 0.0165-1.75 0.0249-2.65 0.018-5.5-0.239-10.8-1.09-16.3-2.74-1.37-4.93-1.13-8-1.13-1.92-0.0064-1.92-0.0064-3.88-0.0129-1.43 3.5e-4 -2.85 8.11e-4 -4.28 0.00137-1.49-0.00299-2.99-0.00639-4.48-0.0102-4.07-0.00885-8.13-0.0112-12.2-0.0118-3.39-9.48e-4 -6.78-0.00462-10.2-0.00817-7.99-0.00815-16-0.0106-24-0.00987-8.26 6.01e-4 -16.5-0.00996-24.8-0.0257-7.08-0.0131-14.2-0.0184-21.2-0.0178-4.23 2.56e-4 -8.47-0.00263-12.7-0.0132-3.98-0.00965-7.96-0.00978-11.9-0.00248-1.46 0.00105-2.93-0.00134-4.39-0.00736-1.99-0.00766-3.98-0.0019-5.97 0.00463-1.67-8.17e-4 -1.67-8.17e-4 -3.38-0.00165-2.77-0.0159-2.77-0.0159-4.61 2.25z" fill="#000100"/>
<path transform="translate(610 500)" d="m0 0c0.801 0.00266 1.6 0.00532 2.43 0.00806 17.2 0.135 17.2 0.135 24.2 2.12v2c0.577 0.227 1.15 0.454 1.75 0.688 3.94 2.3 6.63 6.08 8.25 10.3 1.67 8.04 2.25 18.1 0 26-1.44 1.32-1.44 1.32-3.12 2.56-0.949 0.804-1.9 1.61-2.88 2.44-0.227 3.25 0.557 5.25 2.2 8.03 4.22 7.23 4.41 13.4 4.11 21.6-0.0226 1.19-0.0451 2.39-0.0684 3.62-0.0584 2.92-0.148 5.84-0.244 8.75h-16c-0.121-1.57-0.242-3.13-0.367-4.75-0.169-2.08-0.338-4.17-0.508-6.25-0.0786-1.03-0.157-2.06-0.238-3.12-0.483-5.84-1.28-11.2-2.89-16.9-3.63-0.33-7.26-0.66-11-1 0.33 0.66 0.66 1.32 1 2 0.1 2.99 0.141 5.95 0.125 8.94-0.00193 0.855-0.00387 1.71-0.00586 2.59-0.0423 6.21-0.404 12.3-1.12 18.5h-15c-1.91-4.78-2.27-8.11-2.23-13.1-2.92e-4 -0.801-5.84e-4 -1.6-8.85e-4 -2.43 0.00139-2.64 0.0169-5.27 0.0326-7.9 0.00373-1.83 0.00658-3.66 0.00858-5.49 0.00762-4.81 0.0273-9.62 0.0494-14.4 0.0205-4.91 0.0296-9.83 0.0397-14.7 0.0214-9.63 0.0555-19.3 0.0977-28.9 3.82-1.27 7.4-1.15 11.4-1.12zm6.62 15.1c-1.35 4.69-1.18 9.28-1.19 14.1-0.0122 0.919-0.0245 1.84-0.0371 2.79-0.00193 0.878-0.00387 1.76-0.00586 2.66-0.00411 0.802-0.00822 1.6-0.0125 2.43 0.0624 2.23 0.0624 2.23 2.24 4 4.54 0.342 7.92 0.0416 12-2 2.24-2.24 1.23-7.37 1.25-10.4 0.0206-0.877 0.0412-1.75 0.0625-2.66 0.00516-0.843 0.0103-1.69 0.0156-2.55 0.00935-0.774 0.0187-1.55 0.0283-2.35-0.447-2.6-1.33-3.45-3.36-5.07-3.55-1.4-7.23-1.07-11-1z" fill="#000100"/>
<path transform="translate(832 500)" d="m0 0c1.51-0.0184 1.51-0.0184 3.06-0.0371 8.76-0.0169 18.2 0.0697 25 6.22 5.27 7.93 5.73 16.7 5 26-1.52 4.21-2.28 5.52-6 8 1.45 4.12 3.55 7.4 6 11 3.52 5.55 2.53 12.7 2 19-1.86 7.23-5.81 11.9-12 16-7.13 2.48-14.5 2.27-22 2.19-1.14-6.45e-4 -2.29-0.00129-3.46-0.00195-8.39-0.0449-8.39-0.0449-9.54-1.19-0.122-1.34-0.178-2.68-0.205-4.03-0.0199-0.862-0.0399-1.72-0.0604-2.61-0.0167-0.946-0.0334-1.89-0.0507-2.87-0.0209-0.981-0.0417-1.96-0.0632-2.97-0.0665-3.21-0.125-6.43-0.183-9.64-0.0208-1.09-0.0417-2.17-0.0632-3.29-0.26-13.5-0.472-27.1-0.499-40.6-0.00459-1.23-0.00918-2.46-0.0139-3.73 0.031-17.4 0.031-17.4 13.1-17.4zm4.39 15.3c-2.89 4.1-1.68 10.1-1.33 14.9 0.474 2.5 1.11 4.61 2 7 1.26-0.124 2.52-0.247 3.81-0.375 0.708-0.0696 1.42-0.139 2.14-0.211 2.34-0.341 2.34-0.341 5.04-2.41 0.702-2.94 0.702-2.94 0.875-6.31 0.101-1.13 0.201-2.26 0.305-3.43-0.202-3.67-0.959-5.37-3.18-8.26-3.27-1.72-6.33-3.11-9.67-0.891zm-1.33 35.9c-0.432 2.21-0.432 2.21-0.328 4.75 0.00516 0.937 0.0103 1.87 0.0156 2.84 0.0206 0.98 0.0412 1.96 0.0625 2.97 0.00516 0.984 0.0103 1.97 0.0156 2.98-0.366 4.57-0.366 4.57 1.23 8.46 6.37 0.497 6.37 0.497 12-2 2.84-4.75 2.78-9.76 1.5-15.1-1.13-3.07-2.11-4.7-4.94-6.37-4.11-0.902-6.02-0.926-9.56 1.44z" fill="#000100"/>
<path transform="translate(1218,503)" d="m0 0c4.65 3.8 7.06 8.11 8 14 0.0926 1.8 0.138 3.61 0.145 5.41 0.00638 1.06 0.0128 2.12 0.0193 3.21 0.00111 1.13 0.00223 2.27 0.00337 3.43 0.00499 1.76 0.00499 1.76 0.0101 3.56 0.00506 2.48 0.00741 4.97 0.00725 7.45 0.00219 3.79 0.0203 7.58 0.0393 11.4 0.00293 2.42 0.00492 4.83 0.00586 7.25 0.00719 1.13 0.0144 2.26 0.0218 3.42-0.0269 9.3-0.956 15.3-7.46 22.2-5.01 4.64-12.2 4.95-18.7 4.81-7.26-0.506-12.2-2.63-17.1-8.14-10.5-13.7-6.29-39.7-5.25-55.8 0.0616-1.11 0.123-2.21 0.187-3.35 0.532-7.21 1.52-12.3 6.74-17.6 10.1-6.85 22.7-7.84 33.3-1.29zm-22 13c-1.58 9.98-1.16 20.4-1.13 30.5 0.00542 2.49-1.48e-5 4.98-0.00635 7.47 6.6e-4 1.6 0.00194 3.21 0.00391 4.81-0.00202 0.734-0.00405 1.47-0.00613 2.23 0.0185 4.08 0.177 7.98 1.14 12 2.99 1.49 5.7 1.12 9 1 1.48-0.495 1.48-0.495 3-1 0.997-2.99 1.14-5.03 1.18-8.16 0.0128-1.05 0.0257-2.1 0.0389-3.19 0.00739-1.13 0.0148-2.27 0.0224-3.44 0.00807-1.17 0.0161-2.33 0.0245-3.53 0.0138-2.46 0.0246-4.93 0.0324-7.39 0.0173-3.78 0.0612-7.56 0.105-11.3 0.0101-2.39 0.0186-4.78 0.0254-7.18 0.0263-1.7 0.0263-1.7 0.0531-3.44-0.00293-1.05-0.00585-2.1-0.00887-3.19 0.00587-0.926 0.0117-1.85 0.0178-2.81-0.291-2.49-0.291-2.49-2.29-4.16-3.9-2.13-7.99-2.4-11.2 0.803z" fill="#000100"/>
<path transform="translate(942,500)" d="m0 0c5.28 0.33 10.6 0.66 16 1v72h13c-0.00786-2.05-0.00786-2.05-0.0159-4.13-0.0184-5.18-0.0297-10.4-0.0391-15.5-0.00495-2.22-0.0117-4.44-0.0205-6.66-0.0588-15.3 0.262-30.4 1.08-45.7 2.09-0.0155 4.17-0.0309 6.26-0.0459 1.61-0.0123 3.23-0.0275 4.84-0.0442 1.97-0.00714 3.93 0.0398 5.9 0.0901 1.61 1.61 1.13 3.32 1.13 5.54 0.00315 0.969 0.0063 1.94 0.00955 2.94-0.00202 1.06-0.00405 2.12-0.00613 3.21 9.57e-4 1.09 0.00191 2.19 0.0029 3.31 6.83e-4 2.33-0.00118 4.66-0.00534 6.98-0.00527 3.51-9.9e-5 7.02 0.00635 10.5 0.0127 39.2 0.0127 39.2-4.76 47.2-7.46 7.06-14.1 8.49-24.4 8.25-6.56-0.848-11.7-2.96-16-8-3.81-6.35-4.12-12.7-4.13-19.9-0.00175-0.653-0.0035-1.31-0.00531-1.98-0.00436-2.13-0.0015-4.26 0.00189-6.4-6.74e-4 -1.49-0.00165-2.98-0.0029-4.47-0.00147-3.11 6.52e-4 -6.22 0.00534-9.32 0.00573-3.99 0.00239-7.98-0.00357-12-0.0036-3.07-0.00247-6.14 1.28e-4 -9.21 6.68e-4 -1.47-1.56e-4 -2.95-0.00248-4.42-0.00253-2.05 2e-3 -4.1 0.0069-6.15 7.96e-4 -1.17 0.00159-2.33 0.00241-3.54 0.127-2.62 0.127-2.62 1.13-3.62z" fill="#000100"/>
<path transform="translate(1340,502)" d="m0 0c2.88 2.46 2.88 2.46 5 5v2h2c3.57 9.88 6.13 19.4 2.69 29.7-1.69 3.31-1.69 3.31-4.69 4.31-1.43 5.33-0.396 8.12 2 13 4.14 9.36 3.45 20.9 3 31-1 1-1 1-4.16 1.1-1.29-0.0116-2.58-0.0232-3.9-0.0352-1.94-0.0135-1.94-0.0135-3.91-0.0273-0.999-0.0116-2-0.0232-3.03-0.0352-0.0752-0.726-0.15-1.45-0.228-2.2-0.35-3.31-0.717-6.62-1.08-9.93-0.118-1.14-0.236-2.28-0.357-3.46-0.641-8.29-0.641-8.29-4.33-15.4-2.97-0.33-5.94-0.66-9-1-0.33 10.6-0.66 21.1-1 32h-15c-0.808-4.85-1.14-9.25-1.11-14.1-1.46e-4 -0.791-2.92e-4 -1.58-4.43e-4 -2.4 6.93e-4 -2.6 0.00846-5.19 0.0163-7.79 0.00187-1.81 0.00329-3.61 0.00429-5.42 0.00381-4.74 0.0136-9.49 0.0247-14.2 0.0103-4.85 0.0148-9.69 0.0198-14.5 0.0107-9.5 0.0278-19 0.0488-28.5 10.7-2.8 26.5-2.37 37 1zm-21 14c-0.0995 1.77-0.131 3.54-0.133 5.31-0.00129 1.08-0.00258 2.15-0.00391 3.26 0.00387 1.13 0.00773 2.26 0.0117 3.43-0.00387 1.13-0.00773 2.26-0.0117 3.43 0.00129 1.08 0.00258 2.15 0.00391 3.26 0.00113 0.994 0.00226 1.99 0.00342 3.01-0.129 2.26-0.129 2.26 1.13 3.3 5.24 0.349 8.83 0.561 13-3 1.98-3.91 2.27-7.21 2.25-11.6 0.00516-1.12 0.0103-2.23 0.0156-3.38-0.256-2.95-0.617-4.63-2.27-7.06-3.22-1.14-11.4-2.55-14 0z" fill="#000100"/>
<path transform="translate(170 500)" d="m0 0c0.717 0.0308 1.43 0.0616 2.17 0.0933 5.77 0.324 10.3 1.03 14.7 4.84 8.73 10.1 6.5 24.3 6.5 37 0.00219 2.65 0.0204 5.3 0.0393 7.94 0.0841 24.7 0.0841 24.7-4.54 30.9-12.5 8.69-27.1 7.14-41.7 6.88-1.24-3.72-1.13-7.17-1.11-11.1-1.46e-4 -0.82-2.92e-4 -1.64-4.43e-4 -2.48 6.97e-4 -2.71 0.00848-5.42 0.0163-8.13 0.00186-1.88 0.00329-3.76 0.00429-5.64 0.00382-4.95 0.0136-9.89 0.0247-14.8 0.0102-5.05 0.0148-10.1 0.0198-15.1 0.0107-9.9 0.0278-19.8 0.0488-29.7 7.7-2.03 15.9-1.02 23.8-0.625zm-7.81 14.6v58c7.7 0.34 7.7 0.34 14-2 1.24-1.02 1.24-1.02 1.12-3.13-0.00222-0.939-0.00444-1.88-0.00673-2.85-7.55e-5 -1.06-1.51e-4 -2.12-2.29e-4 -3.22-0.00516-1.15-0.0103-2.31-0.0156-3.5-0.00141-1.17-0.00283-2.35-0.00429-3.56-0.00562-3.77-0.0182-7.54-0.0309-11.3-0.00501-2.55-0.00958-5.1-0.0137-7.65-0.0111-6.26-0.0278-12.5-0.0488-18.8-5.34-2.85-8.11-2-15-2z" fill="#000100"/>
<path transform="translate(401,503)" d="m0 0c4.3 3.65 7.53 7.39 8.55 13 0.101 1.56 0.101 1.56 0.203 3.14 0.0773 1.05 0.155 2.09 0.234 3.17 0.0156 2.64 0.0156 2.64-0.984 4.64-4.41 1.09-8.63 1.4-13 0.125-3.03-3.21-3.4-6.85-4-11.1h-2v-2c-4.14-0.21-4.14-0.21-8 1-1.08 4.46-1.63 7.55 0.562 11.7 2.27 3.45 5.18 5.79 8.44 8.31 1.67 1.67 3.33 3.33 5 5 0.99 0.66 1.98 1.32 3 2v2c0.596 0.245 1.19 0.49 1.8 0.742 4.91 2.81 8.04 8.88 9.63 14.2 1.27 6.41 0.419 13.2-2.44 19.1-1.84 2.17-1.84 2.17-3.94 4.19-0.69 0.674-1.38 1.35-2.09 2.04-5.72 5.13-11.6 5.11-18.9 5.06-4.53-0.433-7.24-1.79-11-4.29-0.33-0.99-0.66-1.98-1-3-0.99-0.33-1.98-0.66-3-1-3.65-6.15-4.45-12-4-19 4.71-2.5 7.93-2.06 13-1 2.66 2.07 3.44 3.92 4.31 7.12 0.667 2.11 0.667 2.11 1.69 3.88 3.65 1.29 5.33 1.22 9 0 1.79-3.58 1.09-7.24 0-11-2.39-3.58-5.11-7.05-9-9v-2c-0.557-0.0412-1.11-0.0825-1.69-0.125-2.89-1.09-4.16-2.87-6.02-5.27-1.41-1.83-1.41-1.83-3.85-4.04-5.69-5.98-7.8-12.2-7.65-20.4 0.704-7.26 3.59-13.5 9.21-18.2 8.67-5.34 19.6-4.21 28 1z" fill="#000100"/>
<path transform="translate(1459 501)" d="m0 0c1.28 0.646 2.56 1.31 3.81 2v2c0.99 0.33 1.98 0.66 3 1 4.42 5.85 5.06 11.8 5 19-1 2-1 2-2.62 2.62-7.82 1.23-7.82 1.23-11.2-0.625-1.24-2.09-1.69-3.77-2.25-6.12-0.309-1.28-0.619-2.56-0.938-3.88l-2-1v-2c-4.79-0.478-4.79-0.478-9 1.44-1.56 4-1.17 7.47 0 11.6 2.21 3.88 5 6.13 9 8 1.69 1.65 3.35 3.31 5 5 0.99 0.66 1.98 1.32 3 2v2c0.99 0.33 1.98 0.66 3 1 6.89 8.15 9.87 15.4 9 26-0.503 2.44-1.18 4.64-2 7h-2c-0.262 0.594-0.523 1.19-0.793 1.8-1.27 2.32-2.52 3.66-4.52 5.39-0.574 0.509-1.15 1.02-1.74 1.54-5.34 3.48-12.8 2.72-18.9 2.27-6.09-1.4-10.1-5.21-13.6-10.3-1.59-2.99-2.21-5.51-2.75-8.84-0.182-1.03-0.364-2.07-0.551-3.13-0.137-2.74-0.137-2.74 1.86-5.74 3.31-0.964 6.56-1.17 10-1 4.14 2.55 5.22 6.62 7 11 1.75 2.21 1.75 2.21 3.91 2.05 0.71-0.098 1.42-0.196 2.15-0.297 0.713-0.0877 1.43-0.175 2.16-0.266 0.587-0.16 1.17-0.32 1.78-0.484 1.53-3.06 1.23-5.62 1-9-1.89-3.77-4.13-6.27-7.31-9-0.798-0.691-1.6-1.38-2.42-2.09-1.78-1.5-3.58-2.96-5.39-4.41-6.91-6.01-13.4-12.8-14.1-22.3-0.122-7.89 0.248-12.9 5.64-19 8.34-7.32 17.2-9.97 27.8-5.25z" fill="#000100"/>
<path transform="translate(489 500)" d="m0 0c1.2-0.00461 1.2-0.00461 2.42-0.00932 0.856 0.00719 1.71 0.0144 2.59 0.0218 1.32 6.87e-4 1.32 6.87e-4 2.67 0.00139 1.86 0.00302 3.72 0.0109 5.58 0.0233 2.86 0.0183 5.72 0.0205 8.58 0.0203 1.81 0.00491 3.61 0.0107 5.42 0.0176 0.86 0.00111 1.72 0.00223 2.61 0.00337 6.02 0.0485 6.02 0.0485 7.13 1.16 0.0987 2 0.13 4 0.125 6 0.00387 1.64 0.00387 1.64 0.00781 3.31-0.133 2.69-0.133 2.69-1.13 3.69-2.02 0.234-4.04 0.413-6.06 0.562-1.1 0.0838-2.21 0.168-3.35 0.254-0.855 0.0606-1.71 0.121-2.59 0.184 0.00444 0.885 0.00888 1.77 0.0135 2.68 0.04 8.33 0.0705 16.7 0.0902 25 0.0105 4.28 0.0246 8.56 0.0473 12.8 0.0217 4.13 0.0337 8.26 0.0389 12.4 0.0037 1.58 0.0109 3.16 0.0217 4.73 0.0145 2.21 0.0165 4.41 0.0156 6.62 0.00444 1.26 0.00888 2.51 0.0135 3.81-0.241 2.94-0.241 2.94-2.24 4.94-2.56 0.172-5 0.233-7.56 0.188-0.698-6.45e-4 -1.4-0.00129-2.12-0.00195-5.18-0.0452-5.18-0.0452-6.32-1.19-0.119-2.2-0.167-4.41-0.189-6.62-0.00829-0.691-0.0166-1.38-0.0251-2.09-0.0174-1.5-0.0326-3.01-0.0458-4.51-0.021-2.38-0.048-4.76-0.0767-7.13-0.07-5.91-0.129-11.8-0.189-17.7-0.0508-4.99-0.106-9.97-0.166-15-0.0267-2.35-0.0474-4.7-0.068-7.05-0.0166-1.43-0.0335-2.86-0.0507-4.3-0.0125-1.26-0.0251-2.51-0.038-3.81 0.167-2.71 0.167-2.71-1.15-3.81-1.66-0.208-3.33-0.367-5-0.5-4.89-0.389-4.89-0.389-6-1.5-0.151-1.81-0.222-3.62-0.25-5.44-0.0258-0.989-0.0516-1.98-0.0781-3 0.108-0.847 0.217-1.69 0.328-2.57 3.03-2.02 3.6-2.25 7-2.24z" fill="#000100"/>
<path transform="translate(1070 500)" d="m0 0c1.02-0.00144 1.02-0.00144 2.06-0.0029 1.45-6.81e-4 2.9 0.00117 4.35 0.00534 2.18 0.00527 4.36 9.3e-5 6.54-0.00635 7.79-0.00335 15.5 0.226 23.2 1.14 0.0269 1.98 0.0463 3.96 0.0625 5.94 0.0116 1.1 0.0232 2.2 0.0352 3.34-0.0977 2.72-0.0977 2.72-1.1 3.72-2.84 0.324-5.68 0.513-8.53 0.719-2.41 0.0151-2.41 0.0151-3.47 1.28-0.124 2.24-0.178 4.48-0.205 6.72-0.0148 1.05-0.0148 1.05-0.03 2.13-0.0317 2.33-0.0564 4.66-0.0811 7-0.0206 1.61-0.0416 3.23-0.063 4.84-0.0553 4.25-0.105 8.51-0.153 12.8-0.0502 4.34-0.106 8.67-0.161 13-0.108 8.51-0.209 17-0.307 25.5-2.46 0.0538-4.92 0.0936-7.38 0.125-0.699 0.0168-1.4 0.0335-2.12 0.0508-1.84 0.0177-3.67-0.0727-5.51-0.176-2.82-2.82-2.27-4.68-2.3-8.64-0.00844-0.681-0.0169-1.36-0.0256-2.06-0.0258-2.26-0.0379-4.51-0.0504-6.77-0.0162-1.56-0.0333-3.13-0.0515-4.69-0.0457-4.12-0.0805-8.24-0.112-12.4-0.0518-6.6-0.117-13.2-0.188-19.8-0.0229-2.31-0.0391-4.62-0.0547-6.94-0.0134-1.41-0.027-2.82-0.0409-4.23-0.00951-1.24-0.019-2.47-0.0288-3.74 0.169-2.67 0.169-2.67-1.14-3.76-1.83-0.208-3.66-0.367-5.5-0.5-5.39-0.389-5.39-0.389-6.5-1.5-0.0724-2.02-0.0838-4.04-0.0625-6.06 0.00902-1.1 0.018-2.21 0.0273-3.35 0.0116-0.855 0.0232-1.71 0.0352-2.59 2.93-1.47 5.54-1.13 8.81-1.13z" fill="#000100"/>
<path transform="translate(725,500)" d="m0 0c2.7 0.0909 5.37 0.237 8.06 0.438 1.14 0.0783 1.14 0.0783 2.3 0.158 1.88 0.13 3.76 0.267 5.64 0.404 1.09 4.38 1.1 8.61 1.02 13.1-0.00961 0.801-0.0192 1.6-0.0291 2.43-0.0329 2.64-0.0732 5.27-0.114 7.9-0.0243 1.83-0.0482 3.66-0.0715 5.49-0.0627 4.81-0.132 9.62-0.202 14.4-0.0708 4.91-0.136 9.83-0.201 14.7-0.129 9.63-0.265 19.3-0.404 28.9h-16c-0.627-22.5-1.1-45.1-1.12-67.6-0.0025-0.972-5e-3 -1.94-0.00757-2.95-0.00582-2.74-0.00445-5.48-2.44e-4 -8.22-0.00298-1.23-0.00298-1.23-0.00601-2.49 0.0235-5.61 0.0235-5.61 1.14-6.72z" fill="#000100"/>
<path transform="translate(271,501)" d="m0 0h15c1 1 1 1 1.08 4.39-0.015 1.54-0.0356 3.08-0.0606 4.62-0.00961 0.839-0.0192 1.68-0.0291 2.54-0.0331 2.79-0.0734 5.57-0.114 8.36-0.0243 1.93-0.0481 3.85-0.0715 5.78-0.063 5.08-0.132 10.2-0.202 15.2-0.0706 5.18-0.135 10.4-0.201 15.5-0.129 10.2-0.265 20.3-0.404 30.5h-15v-87z" fill="#000100"/>
</svg>
