<?xml version="1.0" encoding="UTF-8"?>
<svg version="1.1" viewBox="0 0 1600 544" width="1280" height="1280" xmlns="http://www.w3.org/2000/svg">
<path transform="translate(150,313)" d="m0 0c2.41 0.206 4.63 0.537 7 1 0.743 0.138 1.49 0.275 2.25 0.417 2.48 0.469 4.96 0.959 7.44 1.46 0.892 0.179 1.78 0.359 2.7 0.543 5.49 1.12 10.9 2.34 16.3 3.75 4.31 1.1 8.63 2.12 13 3.15 1.82 0.432 3.64 0.864 5.46 1.3 1.42 0.337 1.42 0.337 2.87 0.682 36.7 8.72 36.7 8.72 51.2 12.6 6.86 1.84 13.8 3.5 20.7 5.13 7.92 1.87 15.8 3.83 23.7 5.82 1.12 0.281 1.12 0.281 2.26 0.568 1.4 0.353 2.8 0.709 4.2 1.07 5.66 1.44 11.4 2.68 17.1 3.89 3.96 0.861 7.83 1.84 11.7 3.04 5.69 1.75 11.4 3.06 17.2 4.36 2.3 0.524 4.6 1.05 6.9 1.57 1.75 0.399 1.75 0.399 3.53 0.806 17.2 3.96 34.4 8.03 51.4 12.7 7 1.89 14.1 3.51 21.1 5.12 35 8.01 35 8.01 39 12-0.462 10.9-7.49 19.4-13.7 27.8-2.28 3.07-2.28 3.07-3.97 5.97-1.73 2.88-3.93 4.88-6.34 7.23-1.11 1.29-2.22 2.58-3.31 3.88-3.59 4.13-7.49 7.64-11.7 11.1-0.859 0.723-1.72 1.45-2.6 2.19-15.8 13.2-33 23.8-52.4 30.8-0.927 0.365-1.85 0.73-2.81 1.11-26.5 10.3-56.5 11.9-84.6 8.64-0.963-0.109-1.93-0.218-2.92-0.331-7.53-0.983-14.5-3.01-21.7-5.42-1.07-0.359-2.15-0.717-3.25-1.09-2.18-0.733-4.35-1.47-6.52-2.21-18.4-6.25-36.8-10.9-55.8-15.1-7.79-1.73-15.5-3.58-23.3-5.53-4.42-1.12-8.85-2.2-13.3-3.27-0.771-0.187-1.54-0.374-2.34-0.567-2.36-0.572-4.71-1.14-7.07-1.71-3.14-0.76-6.27-1.52-9.41-2.28-0.765-0.185-1.53-0.37-2.32-0.561-3.69-0.896-7.37-1.81-11.1-2.75-24.1-6.18-50.3-11-74.7-3.91-0.788 0.193-1.58 0.387-2.39 0.586-8.32 2.3-17.6 7.36-22.6 14.4h-2c-0.268 0.681-0.536 1.36-0.812 2.06-1.19 2.94-1.19 2.94-2.81 6.06-2.99 7.01-1.94 14.8 0.707 21.8 3.5 8.11 7.25 15 14.2 20.7 1.73 1.44 1.73 1.44 4.29 4.07 5.9 5.75 12.9 8.4 20.4 11.4 0.762 0.313 1.52 0.626 2.31 0.949 13.5 5.39 32.1 4.85 45.7 0.0508 0.994-0.329 1.99-0.657 3.01-0.996 7.46-2.65 14.3-6.15 21.3-9.97 0.687-0.378 1.37-0.755 2.08-1.14 0.913-0.51 0.913-0.51 1.84-1.03 1.98-0.94 3.63-1.58 5.81-1.86 2.94 2.27 4.69 3.88 5.69 7.5-1.03 3.75-3.65 5.35-6.69 7.5-1.05 0.789-2.11 1.58-3.2 2.39-3.84 2.74-7.88 4.82-12.1 6.86-0.715 0.351-1.43 0.701-2.17 1.06-1.84 0.901-3.68 1.79-5.52 2.69-0.66 0.33-1.32 0.66-2 1-1.88 0.137-3.76 0.211-5.65 0.256-1.19 0.029-2.37 0.0579-3.59 0.0878-4.76 0.085-9.53 0.158-14.3 0.204-3.6 0.0355-7.2 0.088-10.8 0.185-16.6 0.438-30.8 0.626-44.7-9.73-1.05-0.761-2.09-1.52-3.17-2.31-15.2-11.4-26.2-27.3-29.4-46.1-0.566-5.08-0.377-9.61 0.598-14.6 0.153-0.84 0.307-1.68 0.465-2.55 1.71-7.2 5.55-12.1 10.5-17.5 0.647-0.701 1.29-1.4 1.96-2.12 16-15.7 38.4-19.1 59.8-19.1 1.1-0.00101 1.1-0.00101 2.23-0.00204 11.9 0.0173 23.4 0.714 35 3.25 0.791 0.172 1.58 0.343 2.4 0.52 5.21 1.16 10.4 2.43 15.6 3.72 4.67 1.16 9.36 2.28 14 3.4 12.5 3.01 25 6.04 37.5 9.26 1.63 0.418 1.63 0.418 3.3 0.844 1.4 0.364 1.4 0.364 2.83 0.734 2.44 0.623 2.44 0.623 5.36 0.516-2.51-2.52-5.03-5.03-7.58-7.51-8.76-8.58-17.4-17.7-23.4-28.5v-2h-2c-6.37-11.8-12.5-23.4-17-36-0.547-1.48-0.547-1.48-1.11-2.99-2.06-5.84-3.64-11.7-5.08-17.8-0.167-0.697-0.334-1.39-0.506-2.11-2.16-9.38-2.49-18.4-2.49-28-0.0122-1.23-0.0245-2.47-0.0371-3.74-0.00193-1.18-0.00387-2.35-0.00586-3.56-0.00411-1.07-0.00822-2.14-0.0125-3.24 0.243-2.58 0.243-2.58 2.24-4.58zm11 18c0.588 4.36 1.2 8.71 1.81 13.1 0.166 1.23 0.331 2.46 0.502 3.72 1.1 9.03 1.1 9.03 4.69 17.2 3.07 1.61 3.07 1.61 6.75 2.25 0.664 0.151 1.33 0.303 2.01 0.459 2.07 0.464 4.15 0.883 6.24 1.29 1.86 0.379 1.86 0.379 3.76 0.766 2.47 0.494 4.95 0.979 7.42 1.46 8.99 1.83 17.8 4.24 26.7 6.65 8.14 2.2 16.4 4.04 24.6 5.91 6.89 1.58 13.7 3.28 20.5 5.15 5.46 1.47 11 2.75 16.5 4.06 8.8 2.1 17.6 4.23 26.4 6.44 17.2 4.35 34.5 8.6 51.8 12.6 1.1 0.255 1.1 0.255 2.21 0.515 1.93 0.448 3.85 0.892 5.78 1.34 3.78 0.903 7.53 1.91 11.3 2.92 8.12 2.18 16.3 4.21 24.4 6.21 2.42 0.59 4.83 1.19 7.24 1.78 6.76 1.66 13.5 3.28 20.4 4.62 0.9 0.177 1.8 0.353 2.73 0.535 2.99 0.0342 4.24-0.782 6.58-2.6 4.77-5.03 8.84-10.7 12.8-16.4 0.748-1.05 1.5-2.1 2.27-3.18 2-2.69 2-2.69 1.73-5.82-0.969-0.17-1.94-0.34-2.94-0.516-12.2-2.18-24-5.11-35.9-8.36-8.2-2.21-16.5-4.08-24.8-5.93-5.78-1.31-11.4-2.76-17.1-4.51-3.27-0.994-6.56-1.81-9.88-2.62-1.39-0.342-2.78-0.685-4.18-1.03-0.698-0.171-1.4-0.343-2.12-0.519-2-0.496-4-1.01-6-1.52-7.18-1.84-14.4-3.51-21.6-5-6.8-1.4-13.5-3.03-20.2-4.87-5.54-1.5-11.1-2.8-16.7-4.13-8.8-2.1-17.6-4.23-26.3-6.44-4.65-1.17-9.31-2.33-14-3.5-11.7-2.92-11.7-2.92-17.1-4.28-14-3.52-28-6.91-42-10.3-4.56-1.1-9.12-2.22-13.7-3.34-1.72-0.421-1.72-0.421-3.47-0.85-2.13-0.521-4.25-1.05-6.37-1.58-0.942-0.23-1.88-0.459-2.85-0.696-0.811-0.2-1.62-0.401-2.46-0.607-2.49-0.452-4.81-0.498-7.34-0.424zm13 50c3.28 13.7 12.3 30.4 23.6 39 3.73 2.2 7.22 3.18 11.4 4.02 0.762 0.165 1.52 0.33 2.31 0.499 2.42 0.521 4.85 1.03 7.28 1.53 2.4 0.508 4.79 1.02 7.19 1.53 1.56 0.334 3.13 0.667 4.69 0.999 6.2 1.32 12.4 2.82 18.5 4.41 2.2 0.551 4.4 1.1 6.59 1.65 1.12 0.281 2.24 0.561 3.4 0.85 2.4 0.601 4.81 1.2 7.21 1.8 5.48 1.37 11 2.74 16.4 4.13 8.59 2.17 17.2 4.23 25.9 6.13 10.2 2.24 20.3 4.85 30.4 7.57 4.51 1.21 9 2.34 13.6 3.32 3.47 0.777 6.92 1.63 10.4 2.5 1.04 0.259 1.04 0.259 2.1 0.522 4.87 1.22 9.69 2.56 14.5 4.02 11.3 2.31 19.7-4.53 28.8-10.5 7.72-5.07 7.72-5.07 14.8-11v-3c-3.9-1.21-7.73-2.17-11.8-2.88-5.38-0.942-10.7-2.01-16.1-3.12-0.812-0.166-1.62-0.332-2.46-0.503-3.27-0.686-6.43-1.4-9.6-2.46-4.67-1.55-9.45-2.53-14.2-3.6-10.9-2.47-21.7-5.13-32.6-7.88-12.9-3.26-25.8-6.34-38.8-9.18-7.41-1.63-14.7-3.47-22.1-5.46-4.42-1.19-8.87-2.26-13.3-3.3-1.79-0.422-3.57-0.844-5.36-1.27-1.39-0.328-1.39-0.328-2.81-0.662-5.36-1.27-10.7-2.54-16.1-3.82-1.02-0.242-2.04-0.483-3.09-0.732-4.81-1.15-9.6-2.35-14.4-3.67-5.31-1.47-10.7-2.67-16-3.84-7.86-1.74-15.6-3.72-23.3-6.1-3.49-1.13-3.49-1.13-7.1-1.52zm41 57c10.5 13.2 25.6 22.5 41 29l2.12 1.01c18.6 8.88 39.1 12.2 59.5 12.2 2.28 0.00216 4.55 0.0203 6.83 0.0393 12 0.0454 23.8-0.705 35.5-3.22v-2c-21.3-6.74-42.7-12.1-64.6-16.9-6.88-1.51-13.7-3.17-20.4-5.05-5.46-1.49-11-2.75-16.5-4.06-10.5-2.51-21-5.13-31.4-8.13-0.972-0.28-0.972-0.28-1.96-0.566-1.79-0.518-3.57-1.04-5.36-1.57-2.58-0.821-2.58-0.821-4.73-0.734z" fill="#000001"/>
<path transform="translate(272,154)" d="m0 0c5.48 3.61 9.24 9.92 13 15.2 2.51 3.49 5.2 6.82 7.9 10.2 3.69 4.61 7.26 9.31 10.9 14 1.23 1.61 2.47 3.21 3.71 4.82 5.15 6.67 10.2 13.4 15.3 20.2 3.31 4.43 6.68 8.79 10.2 13.1 1.11 1.6 1.11 1.6 1.11 3.6 0.99 0.33 1.98 0.66 3 1 0.956 1.37 1.9 2.74 2.79 4.15 1.89 2.88 4.04 5.53 6.16 8.24 5.6 7.14 11.1 14.3 16.5 21.6 4.36 5.83 8.79 11.6 13.2 17.4 1.26 1.63 2.51 3.26 3.77 4.9 0.413 0.537 0.825 1.07 1.25 1.63 0.825 1.07 1.65 2.15 2.47 3.22 2.19 2.86 4.4 5.7 6.62 8.54 0.464 0.594 0.928 1.19 1.41 1.8 0.895 1.14 1.79 2.29 2.7 3.43 3.05 3.91 3.05 3.91 3.05 6.14 0.99 0.33 1.98 0.66 3 1 0.985 1.38 1.96 2.78 2.86 4.22 1.22 1.91 2.52 3.72 3.86 5.54 0.474 0.644 0.949 1.29 1.44 1.95 0.482 0.652 0.964 1.3 1.46 1.97 0.972 1.32 1.94 2.63 2.91 3.95 0.425 0.575 0.85 1.15 1.29 1.74 3.12 4.31 3.12 4.31 3.61 7-0.65 3.9-2.31 5.31-5.44 7.62-2.81 0.375-2.81 0.375-6-1-3.02-2.72-5.48-5.83-8-9-0.88-1.08-1.76-2.17-2.64-3.25-5.49-6.83-10.6-13.8-15.5-21.1-1.54-2.17-3-3.81-4.88-5.64-1.36-1.75-2.69-3.53-4-5.31-3.47-4.68-7.02-9.3-10.6-13.9-0.469-0.595-0.938-1.19-1.42-1.8-1.32-1.67-2.64-3.34-3.95-5.01-3.68-4.66-7.28-9.36-10.8-14.2-4.12-5.71-8.46-11.2-12.8-16.7-0.798-1.01-1.6-2.02-2.42-3.07-0.602-0.754-1.2-1.51-1.82-2.29-1.18-1.71-1.18-1.71-1.18-3.71h-2c-1.54-1.99-2.96-3.98-4.38-6.06-3.7-5.32-7.55-10.5-11.6-15.5-7.52-9.3-14.8-18.8-21.9-28.4-3.99-5.33-8.02-10.6-12.1-15.9-0.453-0.581-0.906-1.16-1.37-1.76-3.02-3.96-3.02-3.96-6.56-7.43-9 0.214-17.6 6.36-25.3 10.6-2.72 1.39-2.72 1.39-4.72 1.39 2.65 4.05 5.41 7.92 8.38 11.8 0.627 0.81 0.627 0.81 1.27 1.64 1.45 1.87 2.9 3.74 4.36 5.61 0.588 0.756 1.18 1.51 1.78 2.29 3.74 4.81 3.74 4.81 7.48 9.62 0.571 0.733 1.14 1.47 1.73 2.22 0.507 0.65 1.01 1.3 1.54 1.97 0.484 0.627 0.968 1.25 1.47 1.9 0.557 0.699 1.11 1.4 1.69 2.12 1.31 1.88 1.31 1.88 1.31 3.88h2c1.59 1.95 1.59 1.95 3.5 4.69 3.03 4.27 6.11 8.48 9.31 12.6 0.416 0.539 0.831 1.08 1.26 1.63 2.69 3.48 5.41 6.94 8.14 10.4 4.36 5.52 8.59 11.1 12.7 16.8 3.32 4.51 6.81 8.88 10.3 13.3 4.33 5.48 8.57 11 12.8 16.6 0.53 0.692 1.06 1.38 1.61 2.1 0.924 1.22 1.84 2.44 2.75 3.68 0.942 1.28 1.89 2.55 2.85 3.81 1.38 1.82 2.75 3.65 4.11 5.48 0.668 0.867 0.668 0.867 1.35 1.75 2.92 3.97 4.21 7.11 4.34 12.2-2 2.5-2 2.5-5 4-3.42 0.0282-5.92-0.0786-8.6-2.37-1.56-1.79-2.96-3.64-4.34-5.57-0.493-0.646-0.986-1.29-1.49-1.96-3.57-4.77-3.57-4.77-3.57-7.1h-2c-1.56-2.01-3.01-4.02-4.44-6.12-3.63-5.21-7.37-10.3-11.3-15.2-0.462-0.583-0.924-1.17-1.4-1.77-0.882-1.11-1.76-2.23-2.65-3.34-7.2-9.09-7.2-9.09-7.2-11.5h-2c-1.56-1.91-1.56-1.91-3.44-4.62-3.2-4.52-6.5-8.91-9.94-13.2-0.935-1.18-1.87-2.37-2.8-3.55-0.465-0.589-0.93-1.18-1.41-1.78-2.32-2.94-4.62-5.89-6.91-8.85-1.19-1.53-1.19-1.53-2.41-3.1-2.09-2.84-2.09-2.84-3.69-5.52-1.32-2.18-2.59-3.55-4.41-5.32-1.57-1.96-3.1-3.94-4.62-5.94-0.442-0.577-0.883-1.15-1.34-1.75-2.83-3.71-5.63-7.44-8.41-11.2-5.36-7.18-11-14.2-16.6-21.1-4.24 1.69-7.17 4.73-10.4 7.81-0.56 0.521-1.12 1.04-1.7 1.58-1.11 1.03-2.21 2.07-3.3 3.12-1.46 1.39-2.93 2.76-4.41 4.13-2.63 2.78-2.63 2.78-3.15 6.36 1.26 2.21 1.26 2.21 3.25 4.38 0.74 0.878 1.48 1.76 2.24 2.66 0.828 0.978 1.66 1.96 2.51 2.96 1.81 2.26 3.59 4.53 5.38 6.81 0.466 0.594 0.932 1.19 1.41 1.8 4.35 5.55 8.66 11.1 12.9 16.7 1.33 1.74 2.67 3.47 4.01 5.21 0.451 0.586 0.902 1.17 1.37 1.78 0.438 0.569 0.877 1.14 1.33 1.72 1.52 1.98 3.04 3.96 4.56 5.94 0.589 0.741 1.18 1.48 1.79 2.25 1.21 1.75 1.21 1.75 1.21 3.75h2c0.97 1.39 1.93 2.8 2.84 4.23 2 3.05 4.32 5.86 6.6 8.71 1.87 2.34 3.73 4.69 5.56 7.06 0.473 0.603 0.946 1.21 1.43 1.83 2.53 3.35 4.18 5.79 4.38 10.1 0.0715 1.16 0.0715 1.16 0.145 2.34 0.0142 0.568 0.0284 1.14 0.043 1.72-3.51 2.4-5.74 3.64-10 3-2.39-2.02-2.39-2.02-4.81-4.81-0.434-0.498-0.869-0.997-1.32-1.51-3.49-4.07-6.65-8.36-9.75-12.7-2.41-3.35-4.94-6.58-7.5-9.82-3.59-4.54-7.16-9.09-10.7-13.7-0.411-0.536-0.823-1.07-1.25-1.62-1.23-1.6-2.46-3.21-3.69-4.81-2.84-3.7-5.68-7.4-8.53-11.1-1.08-1.4-2.15-2.8-3.23-4.2-1.89-2.47-3.79-4.93-5.68-7.39-0.604-0.791-1.21-1.58-1.83-2.4-0.571-0.739-1.14-1.48-1.73-2.24-0.507-0.661-1.01-1.32-1.54-2-1.55-1.92-1.55-1.92-4.47-3.67-4.29 4.79-7.03 10.3-10 16-0.505 0.888-1.01 1.78-1.53 2.69-2.23 4.06-3.47 6.55-3.47 11.2 1.06 3.24 1.66 3.79 4 6.06 1.55 1.94 3.07 3.9 4.56 5.88 0.785 1.03 1.57 2.06 2.38 3.12 1.82 2.66 3.02 4.98 4.06 8.01h2c3.02 6.16 3.02 6.16 2.94 9.75-1.2 2.88-2.12 3.88-4.94 5.25-2.75 0.25-2.75 0.25-6-1-2.99-2.75-5.48-5.83-8-9-0.682-0.834-1.36-1.67-2.07-2.53-4.93-6.15-4.93-6.15-4.93-8.47h-3c-0.098 0.748-0.196 1.5-0.297 2.27-0.637 4.2-1.19 7.82-3.27 11.5-3.93 1.92-7.41 0.46-11.4-0.812-1.42-4.67-0.471-8.58 0.688-13.2 0.185-0.757 0.37-1.51 0.561-2.3 1.45-5.74 3.36-11.1 5.75-16.5 0.585-1.54 1.17-3.08 1.75-4.62 7.54-18.7 17.8-35.4 31.2-50.4 1.19-1.4 2.38-2.79 3.56-4.19 6.16-6.97 12.5-13.9 20.4-18.8h2v-2c13.4-9.75 37.8-25.8 55-24z" fill="#000001"/>
<path transform="translate(511,162)" d="m0 0c8.74 0.015 17.5 0.057 26.2 0.132 4.06 0.034 8.12 0.0593 12.2 0.0635 3.93 0.00433 7.86 0.0332 11.8 0.0779 1.49 0.0128 2.97 0.0173 4.46 0.0127 14.8-0.0352 27.7 2.94 39.4 12.7 0.967 0.783 0.967 0.783 1.95 1.58 9.29 8.3 14.5 22.6 15.2 34.8 0.223 17.4-3.98 31.9-16.2 44.6-2.85 2.32-5.8 4.2-9 6-0.918 0.584-0.918 0.584-1.86 1.18-10.2 5.94-23.3 5-34.7 5.37-1.3 0.044-2.6 0.0881-3.93 0.133-3.18 0.108-6.37 0.213-9.55 0.316-0.0103 0.712-0.0206 1.42-0.0312 2.16-0.0978 6.7-0.2 13.4-0.308 20.1-0.0553 3.44-0.109 6.89-0.158 10.3-0.0567 3.95-0.121 7.91-0.186 11.9-0.0167 1.24-0.0334 2.48-0.0506 3.76-0.0299 1.71-0.0299 1.71-0.0604 3.46-0.0155 1.01-0.0311 2.02-0.0471 3.06-0.158 2.28-0.158 2.28-1.16 3.28-2.51 0.101-4.99 0.14-7.5 0.133-0.751 9.57e-4 -1.5 0.00191-2.28 0.0029-1.59 6.82e-4 -3.18-0.00117-4.77-0.00534-2.44-0.00535-4.89-5.48e-5 -7.33 0.00635-1.54-6.61e-4 -3.08-0.00194-4.62-0.00391-0.735 0.00202-1.47 0.00405-2.23 0.00613-5.16-0.024-5.16-0.024-6.27-1.14-0.0846-2.11-0.0968-4.23-0.0823-6.35 0.00323-0.671 0.00646-1.34 0.00979-2.03 0.0121-2.26 0.0315-4.53 0.0508-6.79 0.0101-1.62 0.0198-3.23 0.0291-4.85 0.0265-4.4 0.0593-8.8 0.0931-13.2 0.0343-4.59 0.0629-9.19 0.0921-13.8 0.0562-8.71 0.118-17.4 0.181-26.1 0.0716-9.91 0.138-19.8 0.203-29.7 0.135-20.4 0.277-40.8 0.424-61.2zm35 30c-0.0931 1.5-0.117 3.01-0.114 4.52 7.55e-5 0.961 1.51e-4 1.92 2.29e-4 2.91 0.00516 1.04 0.0103 2.09 0.0156 3.17 0.00141 1.06 0.00283 2.13 0.00429 3.22 0.00562 3.41 0.0182 6.83 0.0309 10.2 0.00501 2.31 0.00958 4.62 0.0137 6.92 0.0111 5.67 0.0278 11.3 0.0488 17 3.67 0.088 7.33 0.141 11 0.188 1.03 0.0251 2.06 0.0503 3.12 0.0762 7.93 0.0758 13.4-0.944 20.1-5.45 5.74-5.87 7.42-11.7 7.85-19.8-0.234-6.84-2.79-12.7-7.1-18-7.24-6.06-15.9-6.32-25-6.19-1.29 9.67e-4 -1.29 9.67e-4 -2.6 0.00195-4.02-0.367-4.02-0.367-7.4 1.19z" fill="#000001"/>
<path transform="translate(690 219)" d="m0 0c0.943-0.0206 1.89-0.0412 2.86-0.0625 8.5-0.0467 16.7 1.01 23.2 6.88 3.29 2.77 5.98 4.45 10.2 5.44v-10h35c0.0225 13.7 0.0409 27.3 0.0518 41 0.00523 6.35 0.0123 12.7 0.0236 19 0.0108 6.12 0.0168 12.2 0.0194 18.4 0.00185 2.34 0.00548 4.68 0.0109 7.02 0.00721 3.27 0.00826 6.53 0.0078 9.8 0.0036 0.978 0.00719 1.96 0.0109 2.96-0.00137 0.885-0.00275 1.77-0.00417 2.68 9.22e-4 0.773 0.00184 1.55 0.00279 2.34-0.123 1.76-0.123 1.76-1.12 2.76-2.52 0.0885-5.01 0.115-7.54 0.0977-1.13-0.00212-1.13-0.00212-2.28-0.00429-2.41-0.00561-4.83-0.0182-7.24-0.0309-1.63-0.00501-3.27-0.00958-4.9-0.0137-4.01-0.011-8.02-0.0283-12-0.0488v-11c-4.78 2.65-9.3 5.51-13.8 8.63-7.35 4.55-15.1 4.57-23.5 4.62-0.899 0.0206-1.8 0.0412-2.72 0.0625-13.5 0.0783-25.3-6.07-35-15.3-1.02-1.65-2.03-3.32-3-5-0.66-0.33-1.32-0.66-2-1-8.27-13.5-12.9-29.6-9.49-45.4 2.36-8.99 5.55-17.4 11.5-24.6 0.437-0.607 0.874-1.21 1.32-1.84 9.71-12.7 25.1-17.3 40.4-17.4zm-7.69 35.2c-5.95 7.22-8.3 13.6-8 22.9 0.802 7.54 4.11 13 9.19 18.5 6.51 3.76 13.1 6.59 20.7 5.23 6.32-1.81 10.7-4.7 15.1-9.61 0.505-0.474 1.01-0.949 1.53-1.44 4.74-5.04 5-12 4.82-18.6-0.845-7.13-4.25-13-9.35-18-10.9-7.99-23.6-7.82-34 1z" fill="#000001"/>
<path transform="translate(1435 219)" d="m0 0c1.36-0.0184 1.36-0.0184 2.74-0.0371 8.13-0.0175 15.5 0.466 22.1 5.6 3.84 2.88 7.66 5.33 11.9 7.62-0.99-5.44-0.99-5.44-2-11h36c0.153 12.6 0.302 25.3 0.443 37.9 0.0655 5.87 0.133 11.7 0.205 17.6 0.0696 5.67 0.134 11.3 0.195 17 0.024 2.16 0.05 4.32 0.0778 6.48 0.0388 3.03 0.0708 6.06 0.101 9.09 0.0129 0.888 0.0259 1.78 0.0392 2.69 0.0106 1.25 0.0106 1.25 0.0213 2.53 0.0083 0.715 0.0166 1.43 0.0251 2.17-0.15 3.52-0.67 7.02-1.11 10.5h-34c-0.898-4.49-0.903-6.68 0-11-3.46 1.08-5.95 2.65-8.75 4.88-9.95 7.64-21.9 10.2-34.2 9.12-11.4-1.87-20.2-6.71-29-14-0.659-0.527-1.32-1.05-2-1.6-8.86-7.86-15.1-20.9-16.2-32.7-0.124-2.47-0.164-4.92-0.16-7.39 8.86e-4 -0.874 0.00177-1.75 0.00269-2.65 0.263-14.5 5.96-26.7 15.7-37.2 0.866-0.804 1.73-1.61 2.62-2.44 0.55-0.556 1.1-1.11 1.67-1.68 9.55-9.16 20.8-11.5 33.6-11.5zm-9.94 37.9c-5.04 6.49-6.22 14.3-5.31 22.3 1.27 6.48 3.88 11.7 9 16 7.18 4.32 13.9 7.41 22.4 5.46 8.2-2.72 14-8.25 17.9-15.9 2.64-7.49 2.33-15.5-0.824-22.8-3.53-6.26-9.73-11.3-16.4-13.8-10.5-2.54-19.2 1.2-26.7 8.69z" fill="#000001"/>
<path transform="translate(1108 219)" d="m0 0c0.886-0.00773 1.77-0.0155 2.68-0.0234 9.13 0.0268 16.3 1.15 23.6 6.77 3.32 2.46 6.47 4.64 10.2 6.5-0.99-5.44-0.99-5.44-2-11h36v106h-34c-0.898-4.49-0.903-6.68 0-11-0.594 0.364-1.19 0.727-1.8 1.1-1.76 1.07-3.53 2.12-5.3 3.17-1.85 1.1-3.68 2.23-5.48 3.39-11.4 6.93-24.5 7.34-37.4 5.34-3.62-1.12-3.62-1.12-7-3-0.889-0.451-1.78-0.902-2.7-1.37-11-5.88-20.2-14-25.3-25.6-0.378-0.848-0.755-1.7-1.14-2.57-4.88-11.6-6.62-28.5-1.86-40.4 6.86-15.4 6.86-15.4 12-21h2c0.383-0.897 0.383-0.897 0.773-1.81 3.57-6.36 12.4-10.7 19.2-12.8 5.88-1.38 11.5-1.7 17.5-1.65zm-10.1 37.7c-4.14 5.33-6.5 12.7-6.28 19.4 1.31 7.23 4.29 14.2 9.91 19.1 6.09 3.62 12.7 7.32 20 6 8.73-3.21 16.1-7.78 20.1-16.4 2.37-7.01 2.52-14.2 0.0742-21.2-3.24-6.52-8.4-11.9-15.1-14.8-11.2-3.54-20.2-0.0623-28.7 7.79z" fill="#000001"/>
<path transform="translate(312 146)" d="m0 0c1.59-0.00169 1.59-0.00169 3.2-0.00342 1.69 0.0268 1.69 0.0268 3.42 0.0542 1.17 0.0127 2.34 0.0255 3.54 0.0386 50.2 0.831 93.6 21.5 129 57.3 6.11 6.64 11.5 13.6 16.2 21.3 1.14 1.85 2.33 3.67 3.56 5.46 24 36.9 28.3 85.7 21 128-0.903 3.66-2.1 6.57-3.95 9.84-1.46-0.114-2.92-0.242-4.38-0.375-0.812-0.0696-1.62-0.139-2.46-0.211-2.16-0.414-2.16-0.414-4.16-2.41-0.729-5.16 0.105-10 1.49-15 1.74-6.88 1.64-14 1.51-21-3.66 1.98-6.79 3.83-10 6.5-5.46 4.55-9.59 7.1-17 6.5-3-6.24-3-6.24-3-9.12 3.12-5.84 9.38-9.66 15-12.9h2v-2c2.75-1.61 5.52-3.14 8.38-4.55 2.07-1.07 2.07-1.07 4.62-3.45 0.443-3.11 0.456-4.98 0-8-0.174-1.18-0.174-1.18-0.352-2.39-0.429-2.55-0.933-5.08-1.46-7.61-0.166-0.851-0.331-1.7-0.502-2.58-1.1-5.39-2.63-10.3-4.69-15.4-6.06 3.73-11.9 7.63-17.7 11.8-5.16 3.74-10.4 7.28-15.8 10.7-0.658 0.421-1.32 0.843-1.99 1.28-3.73 2.33-7.23 4.01-11.5 5.22-2.76-3.22-4.52-6.04-6-10 5.87-5.72 11.8-10.4 18.7-14.7 4.69-2.92 9.14-6.09 13.6-9.4 3.72-2.65 7.62-4.97 11.6-7.27 2.46-1.91 2.72-2.63 3.12-5.64-1.06-2.67-2.17-5.09-3.5-7.62-0.362-0.708-0.724-1.42-1.1-2.14-3.01-5.75-6.44-11.1-10.4-16.2-4.02 0.591-6.46 2.66-9.62 5.12-5.36 4.12-10.8 8.04-16.4 11.9-1.61 1.11-3.21 2.22-4.82 3.34-1.11 0.771-2.23 1.54-3.34 2.31-4.28 2.96-8.55 5.95-12.8 8.94-4.89 3.41-4.89 3.41-7.4 3.47-3.9-1.58-5.48-4.56-7.62-8.06 3.47-8.1 12.2-13 19.4-17.4 2.7-1.72 5.1-3.63 7.58-5.64 2.23-1.66 4.49-3.27 6.75-4.88 0.612-0.436 1.22-0.872 1.85-1.32 4.74-3.36 9.53-6.63 14.4-9.8-0.495-4.25-3.13-6.77-5.94-9.75-0.49-0.524-0.98-1.05-1.48-1.59-6.67-7.12-6.67-7.12-14.6-12.7-4.45 0.0913-6.72 2.17-10 5-2.07 1.51-4.15 3.01-6.25 4.5-0.597 0.424-1.19 0.849-1.81 1.29-1.29 0.918-2.58 1.83-3.88 2.75-2.16 1.53-4.32 3.07-6.48 4.61-1.49 1.06-2.97 2.11-4.46 3.17-0.689 0.491-1.38 0.982-2.09 1.49-3.39 2.4-6.82 4.75-10.3 7.01-0.626 0.405-1.25 0.81-1.9 1.23-3.16 1.66-5.39 1.69-8.83 0.961-2.56-2.69-2.56-2.69-4-6 0.56-4.48 3.65-6.8 6.99-9.52 2.64-1.95 5.38-3.66 8.21-5.3 1.82-1.1 1.82-1.1 3.19-2.59 1.63-1.6 3.27-2.83 5.16-4.11 0.681-0.464 1.36-0.928 2.06-1.41 0.706-0.477 1.41-0.954 2.14-1.45 1.39-0.945 2.78-1.89 4.17-2.84 0.679-0.46 1.36-0.92 2.06-1.39 2-1.38 3.96-2.81 5.91-4.25 3.11-2.15 3.11-2.15 5.11-2.15v-2c-0.708-0.271-1.42-0.541-2.14-0.82-2.94-1.21-5.72-2.6-8.54-4.05-10.2-5.46-10.2-5.46-21.3-7.12-0.495 1.49-0.495 1.49-1 3-2.19 1.58-2.19 1.58-5 3.25-3.67 2.25-7.14 4.55-10.5 7.25-5.58 4.45-11.7 9.23-18.5 11.5-3.64-1.73-5.8-3.64-8-7 2.87-7.04 9.82-11.3 15.7-15.7 1.53-1.15 3.05-2.3 4.57-3.45 0.67-0.502 1.34-1 2.03-1.52 1.82-1.38 1.82-1.38 3.71-3.34-1.93-1.93-5.34-1.68-7.97-2-0.713-0.0874-1.43-0.175-2.16-0.265-8.08-0.945-16.2-1.39-24.3-1.8-2.24-0.116-4.47-0.233-6.71-0.357-1.99-0.11-3.98-0.213-5.97-0.315-2.89-0.265-2.89-0.265-3.89-1.27-0.238-2.18-0.238-2.18-0.312-4.88-0.0374-0.884-0.0748-1.77-0.113-2.68 0.426-2.45 0.426-2.45 2.12-4.08 2.79-1.65 4.46-1.74 7.68-1.73z" fill="#000001"/>
<path transform="translate(859 219)" d="m0 0c0.899-0.0161 1.8-0.0322 2.72-0.0488 9.88-0.00715 17.7 2.58 25 9.36 16.1 17.3 12.3 44.6 12.1 66.4-0.0208 3.68-0.0298 7.36-0.0397 11-0.0201 7.17-0.0593 14.3-0.0977 21.5h-35c-0.049-4.29-0.098-8.57-0.148-13-0.0446-3.44-0.0911-6.89-0.139-10.3-0.0497-3.62-0.0962-7.24-0.135-10.9-0.0372-3.49-0.0836-6.99-0.136-10.5-0.0272-1.97-0.0452-3.93-0.0629-5.9 0.124-12.6 0.124-12.6-4.69-23.9-3.27-3.04-5.24-4.47-9.76-4.53-6.15 0.407-11.1 1.99-15.4 6.57-6.49 8.46-7.02 16.8-7.07 27.1-0.018 1.3-0.0359 2.6-0.0544 3.93-0.0472 3.43-0.0772 6.85-0.103 10.3-0.03 3.51-0.0763 7.01-0.121 10.5-0.0872 6.86-0.147 13.7-0.209 20.6h-35v-106c3.52-1.17 6.32-1.13 10-1.13 0.681-9.57e-4 1.36-0.00191 2.07-0.0029 1.44-6.79e-4 2.87 0.00116 4.31 0.00534 2.21 0.00537 4.42 3.88e-5 6.62-0.00635 1.4 6.6e-4 2.79 0.00194 4.19 0.00391 1.27 0.00113 2.55 0.00226 3.86 0.00342 2.91 0.129 2.91 0.129 3.91 1.13 0.0723 1.85 0.0838 3.71 0.0625 5.56-0.00902 1.01-0.018 2.02-0.0273 3.07-0.0116 0.782-0.0232 1.56-0.0352 2.37 5.13-2.79 9.79-5.94 14.5-9.41 6.1-3.83 11.9-3.92 18.8-3.9z" fill="#000001"/>
<path transform="translate(993 219)" d="m0 0c0.908-0.0206 1.82-0.0412 2.75-0.0625 9.95-0.057 17.7 2.48 25.1 9.31 17.5 18.8 12.1 52.4 12.1 76.1 0.00259 1.07 0.00518 2.15 0.00784 3.26 0.00584 3.07 0.00428 6.14-3.05e-5 9.22 0.00198 0.94 0.00396 1.88 6e-3 2.85-0.00311 0.858-0.00621 1.72-0.00941 2.6-7.96e-4 0.754-0.00159 1.51-0.00241 2.29-0.127 1.73-0.127 1.73-1.13 2.73-2.52 0.0885-5.01 0.115-7.54 0.0977-1.13-0.00212-1.13-0.00212-2.28-0.00429-2.41-0.00561-4.83-0.0182-7.24-0.0309-1.63-0.00501-3.27-0.00958-4.9-0.0137-4.01-0.011-8.02-0.0283-12-0.0488-0.0184-0.839-0.0368-1.68-0.0557-2.54-0.176-7.92-0.366-15.8-0.571-23.7-0.105-4.07-0.205-8.14-0.292-12.2-0.0848-3.93-0.184-7.86-0.292-11.8-0.0388-1.5-0.0727-2.99-0.101-4.49-0.0412-2.1-0.1-4.2-0.163-6.3-0.0289-1.19-0.0577-2.39-0.0875-3.62-0.481-3.64-1.69-6.1-3.44-9.3v-2c-5.8-2.81-11.5-3.76-17.7-1.88-7.28 4.12-11.4 8.66-13.8 16.6-0.568 2.74-0.629 5.32-0.671 8.11-0.0199 1.18-0.0399 2.36-0.0604 3.58-0.0167 1.27-0.0334 2.54-0.0506 3.85-0.0208 1.3-0.0416 2.61-0.063 3.95-0.0551 3.46-0.105 6.92-0.153 10.4-0.0503 3.53-0.106 7.07-0.161 10.6-0.108 6.93-0.207 13.9-0.307 20.8h-35v-106c2.96-1.48 5.95-1.12 9.2-1.1 0.707 0.00141 1.41 0.00283 2.14 0.00429 2.26 0.0056 4.52 0.0182 6.79 0.0309 1.53 0.00501 3.07 0.00958 4.6 0.0137 3.76 0.011 7.52 0.0283 11.3 0.0488 0.812 3.75 1.09 7.15 1 11 2.82-0.967 4.92-1.93 7.25-3.81 8.41-6.69 15.4-8.38 25.9-8.44z" fill="#000001"/>
<path transform="translate(1269,163)" d="m0 0c4.97-0.0247 9.93-0.0428 14.9-0.0549 1.69-0.00504 3.38-0.0119 5.07-0.0205 2.43-0.0121 4.85-0.0178 7.28-0.0222 1.14-0.00774 1.14-0.00774 2.3-0.0156 1.82-1.96e-4 3.63 0.0513 5.45 0.113 1 1 1 1 1.12 3.01-0.00577 1.32-0.00577 1.32-0.0117 2.67-0.00207 0.993-0.00414 1.99-0.00628 3.01-0.0113 1.63-0.0113 1.63-0.0229 3.29-0.00415 1.13-0.0083 2.25-0.0126 3.41-0.0151 3.54-0.0382 7.08-0.0636 10.6-0.00704 1.06-0.0141 2.12-0.0213 3.21-0.0511 7.4-0.123 14.8-0.197 22.2-0.0225 2.32-0.0449 4.64-0.0673 6.96-0.0581 6.01-0.118 12-0.178 18-0.0612 6.17-0.121 12.3-0.181 18.5-0.117 12-0.236 24.1-0.355 36.1 0.722-0.00222 1.44-0.00444 2.19-0.00673 6.8-0.02 13.6-0.0353 20.4-0.0451 3.5-0.00522 6.99-0.0123 10.5-0.0236 4.02-0.0129 8.03-0.0178 12-0.0222 1.89-0.00774 1.89-0.00774 3.81-0.0156 1.16-7.55e-5 2.32-1.51e-4 3.52-2.29e-4 1.03-0.00222 2.05-0.00444 3.11-0.00673 2.44 0.12 2.44 0.12 4.44 1.12 0.0247 4.4 0.0428 8.79 0.0549 13.2 0.00504 1.5 0.0119 2.99 0.0205 4.49 0.0121 2.15 0.0178 4.29 0.0222 6.44 0.00524 1.29 0.0105 2.59 0.0159 3.92-0.114 2.96-0.114 2.96-1.11 3.96-2.89 0.101-5.75 0.136-8.63 0.129-0.906 0.00175-1.81 0.0035-2.74 0.00531-3.01 0.00442-6.02 0.00148-9.03-0.00189-2.08 6.73e-4 -4.16 0.00164-6.24 0.0029-4.37 0.00148-8.74-6.78e-4 -13.1-0.00534-5.61-0.0057-11.2-0.00242-16.8 0.00357-4.3 0.00361-8.6 0.00247-12.9-1.28e-4 -2.07-6.69e-4 -4.14 1.6e-4 -6.21 0.00248-2.89 0.00253-5.78-0.00131-8.66-0.0069-0.864 0.00202-1.73 0.00405-2.62 0.00613-5.9-0.0213-5.9-0.0213-7.02-1.14-0.0969-2.1-0.122-4.21-0.12-6.31-8.54e-4 -0.666-0.00171-1.33-0.00259-2.02-0.00166-2.25 0.00387-4.5 0.00932-6.75 2.82e-4 -1.61 1.24e-4 -3.21-4.43e-4 -4.82-2.88e-4 -4.37 0.00561-8.75 0.0126-13.1 0.00623-4.57 0.00684-9.13 0.00803-13.7 0.00311-8.65 0.0113-17.3 0.0213-26 0.0112-9.85 0.0167-19.7 0.0217-29.5 0.0105-20.3 0.0281-40.5 0.0503-60.8z" fill="#000001"/>
<path transform="translate(1542 146)" d="m0 0c0.735 0.00202 1.47 0.00405 2.23 0.00613 0.751-9.57e-4 1.5-0.00191 2.28-0.0029 1.59-6.82e-4 3.18 0.00117 4.77 0.00534 2.44 0.00535 4.89 5.48e-5 7.33-0.00635 1.54 6.61e-4 3.08 0.00194 4.62 0.00391 0.735-0.00202 1.47-0.00405 2.23-0.00613 5.16 0.024 5.16 0.024 6.27 1.14 0.0993 2.3 0.126 4.61 0.127 6.91 0.00156 0.731 0.00312 1.46 0.00473 2.22 0.00401 2.47 8.19e-4 4.94-0.00232 7.4 0.00135 1.76 0.00313 3.52 0.00531 5.29 0.00458 4.8 0.00278 9.6-3.79e-4 14.4-0.00252 5.01-1.86e-4 10 0.00139 15 0.00182 8.42-5.85e-4 16.8-0.00534 25.3-0.00544 9.75-0.00368 19.5 0.00183 29.2 0.00453 8.35 0.00518 16.7 0.00256 25.1-0.00156 5-0.00176 9.99 0.00154 15 0.00288 4.69 9.04e-4 9.39-0.00489 14.1-0.00133 1.73-9.33e-4 3.46 0.00126 5.18 0.00271 2.35-6.68e-4 4.7-0.00568 7.05-3.77e-4 1.32-7.54e-4 2.64-0.00114 3.99-0.126 2.92-0.126 2.92-1.13 3.92-2.52 0.0885-5.01 0.115-7.54 0.0977-1.13-0.00212-1.13-0.00212-2.28-0.00429-2.41-0.00561-4.83-0.0182-7.24-0.0309-1.63-0.00501-3.27-0.00958-4.9-0.0137-4.01-0.011-8.02-0.0283-12-0.0488-1.09-9.25-1.14-18.4-1.13-27.7-0.00136-1.67-0.00314-3.33-0.00531-5-0.00453-4.49-0.0028-8.98 3.79e-4 -13.5 0.00254-4.7 1.81e-4 -9.41-0.00139-14.1-0.00181-7.89 5.67e-4 -15.8 0.00534-23.7 0.00546-9.13 0.00366-18.3-0.00183-27.4-0.00453-7.84-0.00518-15.7-0.00256-23.5 0.00156-4.68 0.00176-9.36-0.00154-14-0.00288-4.39-9.07e-4 -8.78 0.00489-13.2 0.00133-1.62 9.33e-4 -3.23-0.00126-4.85-0.00271-2.2 6.68e-4 -4.39 0.00568-6.59 5.66e-4 -1.85 5.66e-4 -1.85 0.00114-3.73 0.218-4.74 2.15-3.85 6.4-3.87z" fill="#000001"/>
<path transform="translate(692 363)" d="m0 0c2.2 1.69 4.25 3.46 6.3 5.32 0.866 0.598 1.73 1.2 2.62 1.81 7.67 7.07 13.9 17.7 14.5 28.2 0.0824 2.41 0.11 4.81 0.125 7.22 0.0206 0.808 0.0412 1.62 0.0625 2.45 0.0728 11.4-4.6 21.5-11.9 30.1-1.37 1.25-1.37 1.25-3.37 1.25-0.233 0.597-0.467 1.19-0.707 1.81-3.4 5.76-12.2 8.95-18.3 11.2-4.82 1.01-9.47 1.18-14.4 1.19-0.717 0.0122-1.43 0.0245-2.17 0.0371-10.8 0.0292-21.5-3.72-29.5-11.2-9.48-9.48-16.1-20.6-16.3-34.2 0.116-14.2 3.15-24.7 12.8-35.6 0.825-0.722 1.65-1.44 2.5-2.19 0.522-0.49 1.04-0.98 1.58-1.48 14.6-13.3 39-16.5 56.1-5.83zm-41.7 20.3v2c-0.606 0.254-1.21 0.508-1.84 0.77-4.6 2.61-6.66 7.9-8.48 12.7-1.57 8.16-1.05 14.4 3.31 21.6 4.38 5.98 9.43 11.6 17 13 9.74 0.74 17.5 0.483 25.2-5.8 6.83-6.37 9.41-12.7 10-21.9-0.217-8.93-3.7-14.7-9.88-21.1-6.72-6.17-12.5-6.86-21.6-6.65-5.28 0.67-9.31 2.57-13.7 5.47z" fill="#000001"/>
<path transform="translate(776 392)" d="m0 0c3.41 1.87 5.57 4.04 7.75 7.31 4.58-1.28 7.33-3.05 11-6 6.47-3.55 12.4-4.09 19.6-2.38 6.5 2.22 10.6 5.68 14.4 11.4 3.22 7.03 3.15 15 3.1 22.7-0.00141 0.788-0.00283 1.58-0.00429 2.39-0.00554 2.49-0.0181 4.97-0.0309 7.46-0.00502 1.7-0.00958 3.4-0.0137 5.09-0.0101 4.14-0.0297 8.27-0.0488 12.4h-19c-0.049-2.37-0.098-4.75-0.148-7.19-0.0541-2.32-0.111-4.63-0.169-6.95-0.0381-1.6-0.073-3.2-0.104-4.8-0.046-2.31-0.104-4.62-0.164-6.93-0.0116-0.708-0.0231-1.42-0.035-2.14-0.154-5.28-0.764-10.3-3.57-14.9-2.99-1.75-5.43-1.41-8.81-1.06-3.7 1.68-5.96 3.49-8 7-0.313 2.73-0.465 5.25-0.477 7.98-0.0234 1.15-0.0234 1.15-0.0472 2.32-0.0474 2.44-0.0753 4.88-0.101 7.33-0.0365 2.45-0.0771 4.9-0.123 7.35-0.0272 1.52-0.0486 3.04-0.0635 4.57-0.0782 5.24-0.0782 5.24-1.19 7.46h-19c-0.0374-2.43-0.0748-4.87-0.113-7.38-0.0463-2.38-0.0975-4.76-0.149-7.14-0.0331-1.64-0.0612-3.29-0.084-4.93-0.0339-2.37-0.0862-4.75-0.142-7.12-0.00639-0.724-0.0128-1.45-0.0194-2.19-0.141-4.99-0.782-11.5-4.49-15.2-5.69-0.499-5.69-0.499-10.8 1.62-4.6 4.99-5.64 9.78-5.7 16.4-0.018 0.746-0.0359 1.49-0.0544 2.26-0.0538 2.36-0.0879 4.73-0.121 7.09-0.0332 1.61-0.0677 3.22-0.104 4.83-0.087 3.93-0.147 7.86-0.209 11.8h-19c-0.643-4.5-1.12-8.23-1.11-12.7 7.55e-5 -1.06 1.51e-4 -2.12 2.29e-4 -3.21 0.00516-1.12 0.0103-2.25 0.0156-3.4 0.00141-1.17 0.00283-2.33 0.00429-3.53 0.00558-3.71 0.0181-7.42 0.0309-11.1 0.00502-2.52 0.00958-5.04 0.0137-7.56 0.011-6.17 0.0282-12.3 0.0488-18.5h19c0.66 1.32 1.32 2.64 2 4 3.9-0.541 5.93-1.6 9-4 5.75-3.03 11.5-2.98 17.2-0.312z" fill="#000001"/>
<path transform="translate(1338 348)" d="m0 0c1.19 0.0058 1.19 0.0058 2.4 0.0117 0.79-0.00387 1.58-0.00773 2.39-0.0117 5.92 0.0101 5.92 0.0101 8.17 1.14v49c4.62-2.31 9.24-4.62 14-7 7.28-1.82 12.5-0.853 19 3 4.92 4.19 8.53 9.82 9.26 16.3 0.0822 2.67 0.0743 5.32 0.0297 7.98-0.00424 0.967-0.00849 1.93-0.0129 2.93-0.0167 3.07-0.0543 6.13-0.0926 9.2-0.0151 2.09-0.0287 4.18-0.041 6.26-0.0304 5.1-0.0891 10.2-0.146 15.3h-19c-0.0606-2.35-0.121-4.7-0.184-7.12-0.062-2.3-0.125-4.61-0.189-6.91-0.043-1.59-0.0847-3.18-0.125-4.76-0.305-12.1-0.305-12.1-1.5-24.2-5.22-1.4-9.31-1.88-14.2 0.688-4.02 3.38-5.58 5.81-6.18 11.1-0.0411 1.45-0.0668 2.91-0.0793 4.36-0.018 0.77-0.0359 1.54-0.0544 2.33-0.0539 2.45-0.0879 4.89-0.121 7.34-0.0332 1.66-0.0677 3.33-0.104 4.99-0.0848 4.07-0.152 8.13-0.209 12.2-3.15 0.0289-6.29 0.0468-9.44 0.0625-0.898 0.00838-1.8 0.0168-2.72 0.0254-1.28 0.00483-1.28 0.00483-2.59 0.00977-0.791 0.00524-1.58 0.0105-2.4 0.0159-1.86-0.114-1.86-0.114-2.86-1.11-0.101-3.16-0.136-6.3-0.129-9.46-0.00175-0.993-0.0035-1.99-0.00531-3.01-0.00442-3.3-0.00148-6.6 0.00189-9.9-6.73e-4 -2.28-0.00164-4.57-0.0029-6.85-0.00148-4.79 6.78e-4 -9.58 0.00534-14.4 0.0057-6.16 0.00242-12.3-0.00357-18.5-0.0036-4.72-0.00247-9.43 1.28e-4 -14.1 6.69e-4 -2.27-1.6e-4 -4.54-0.00248-6.81-0.00253-3.17 0.00131-6.34 0.0069-9.5-0.00202-0.949-0.00405-1.9-0.00613-2.87 0.0253-7.71 0.0253-7.71 7.17-7.72z" fill="#000001"/>
<path transform="translate(1099,348)" d="m0 0h19c1 1 1 1 1.12 3.59-0.00333 1.73-0.00333 1.73-0.00673 3.49-7.55e-5 1.3-1.51e-4 2.6-2.29e-4 3.94-0.00511 1.43-0.0103 2.86-0.0156 4.29-0.00186 1.46-0.00329 2.91-0.00429 4.37-0.00382 3.84-0.0137 7.68-0.0247 11.5-0.0102 3.91-0.0148 7.83-0.0198 11.7-0.0107 7.69-0.0278 15.4-0.0488 23.1 4.42-2.48 7.1-5.31 10.1-9.38 0.845-1.13 1.69-2.27 2.54-3.4 0.404-0.544 0.807-1.09 1.22-1.65 4.75-6.37 4.75-6.37 7.18-7.58 1.81-0.153 3.63-0.249 5.45-0.316 1.08-0.0419 2.15-0.0838 3.26-0.127 1.13-0.0393 2.26-0.0786 3.42-0.119 1.14-0.0432 2.27-0.0864 3.44-0.131 2.81-0.106 5.62-0.208 8.43-0.307-1.51 4.05-3.03 6.34-6.19 9.31-4.19 4.05-8.04 8.25-11.8 12.7-1.15 1.33-2.29 2.67-3.44 4-0.846 0.99-1.69 1.98-2.56 3 1.45 3.28 3.27 5.61 5.69 8.25 0.786 0.861 1.57 1.72 2.38 2.61 2.27 2.44 4.56 4.86 6.86 7.28 0.681 0.719 1.36 1.44 2.06 2.18 1.37 1.45 2.75 2.89 4.13 4.32 0.631 0.665 1.26 1.33 1.91 2.01 0.857 0.894 0.857 0.894 1.73 1.81 1.23 1.54 1.23 1.54 1.23 3.54-22.3 1.9-22.3 1.9-27.5-2.06-2.51-2.84-4.49-5.72-6.5-8.94-1.67-2.02-3.35-4.02-5.06-6-3.8-4.6-3.8-4.6-4.94-8h-3v25h-20v-104z" fill="#000001"/>
<path transform="translate(891 358)" d="m0 0c0.725-0.00333 1.45-0.00666 2.2-0.0101 1.54-0.00508 3.09-0.00741 4.63-0.00725 2.32-0.00215 4.64-0.0202 6.97-0.0393 23.8-0.0951 23.8-0.0951 32.1 7.15 6.96 7.3 9.17 13.5 9.23 23.3 0.0206 0.834 0.0412 1.67 0.0625 2.53 0.0509 8.1-2.35 13.7-7.31 20.2-0.99 0.33-1.98 0.66-3 1v2c-1.75 0.648-3.5 1.29-5.25 1.94-1.46 0.539-1.46 0.539-2.95 1.09-3.83 1.33-7.06 2.1-11.1 2.07-1.08-0.00375-1.08-0.00375-2.18-0.00757-1.35-0.0137-1.35-0.0137-2.74-0.0276-4.33-0.0309-4.33-0.0309-8.75-0.0625v33h-19c-0.657-23.7-1.11-47.4-1.12-71.2-0.0025-1.09-5e-3 -2.18-0.00757-3.3-0.00583-3.08-0.00444-6.16-2.44e-4 -9.24-0.00198-0.927-0.00397-1.85-0.00601-2.81 0.0291-7.85 0.94-7.62 8.25-7.63zm11.9 18.2c-0.311 2.59-0.311 2.59-0.266 5.59-0.00258 1.11-0.00516 2.22-0.00781 3.37 0.00773 1.17 0.0155 2.33 0.0234 3.54-0.00773 1.17-0.0155 2.33-0.0234 3.54 0.00258 1.11 0.00516 2.22 0.00781 3.37 0.00226 1.02 0.00451 2.05 0.00684 3.1 0.0125 2.66 0.0125 2.66 2.26 4.49 6.48 0.858 12.7 0.655 18.4-2.75 3.23-2.6 4.29-5.37 4.87-9.39 0.263-4.68-0.303-8.47-2.93-12.4-4.11-4.3-9.59-4.62-15.3-4.75-4.06-0.113-4.06-0.113-7.12 2.31z" fill="#000001"/>
<path transform="translate(1214,393)" d="m0 0c3 2.19 3 2.19 5 4h2c0.33-1.65 0.66-3.3 1-5 3.15-0.0289 6.29-0.0468 9.44-0.0625 0.898-0.00838 1.8-0.0168 2.72-0.0254 0.854-0.00322 1.71-0.00645 2.59-0.00977 0.791-0.00524 1.58-0.0105 2.4-0.0159 1.86 0.114 1.86 0.114 2.86 1.11 0.0938 1.84 0.117 3.69 0.114 5.53-1.13e-4 1.77-1.13e-4 1.77-2.29e-4 3.58-0.00516 1.29-0.0103 2.57-0.0156 3.9-0.00141 1.31-0.00283 2.62-0.00429 3.96-0.00382 3.48-0.0137 6.97-0.0247 10.5-0.0102 3.55-0.0148 7.1-0.0198 10.7-0.0107 6.97-0.0278 13.9-0.0488 20.9-3.27 0.116-6.54 0.187-9.81 0.25-0.929 0.0335-1.86 0.067-2.81 0.102-0.893 0.0129-1.79 0.0258-2.71 0.0391-1.23 0.0314-1.23 0.0314-2.49 0.0635-2.94-0.614-3.44-2.1-5.18-4.45h-4c-0.33 1.32-0.66 2.64-1 4-8.08 2.23-19.7 2.93-27.2-1.06-2-1.4-2-1.4-3.81-2.94-0.946-0.762-0.946-0.762-1.91-1.54-6.69-5.99-10.1-13.1-11.1-22-0.431-10.8 4.07-19.2 11.1-27.2 9.1-8.71 21.9-8.72 32.9-4.25zm-20.4 20.8c-2.34 4.05-3.28 7.52-2.39 12.1 1.77 4.82 4.81 8.83 9.18 11.5 4.46 0.87 8.06 1.2 12.2-0.75 2.35-1.78 4.33-3.57 6.31-5.75 0.578-0.577 1.15-1.15 1.75-1.75 1.89-3.41 1.97-6.51 1.25-10.2-2.31-5.45-5.56-9.49-11-12-7.48-1.44-12.8 0.739-17.4 6.83z" fill="#000001"/>
<path transform="translate(1061,398)" d="m0 0v-6h20v60h-19c-0.99-1.32-1.98-2.64-3-4-0.722 0.454-1.44 0.908-2.19 1.38-5.3 3.06-9.59 3.97-15.7 3.94-0.682 0.0161-1.36 0.0322-2.07 0.0488-8.93 0.0085-15.7-4.38-22.1-10.4-5.35-6.8-6.18-12.5-6.19-20.9-0.0122-0.799-0.0245-1.6-0.0371-2.42-0.0209-8.4 3.04-14.1 8.22-20.6 12.3-12.2 28.7-10.6 42-1zm-27.3 15.8c-2.35 4.53-3.57 8.39-2.02 13.4 1.99 4.35 4.24 7.23 8.34 9.85 4.44 1.48 8.3 1.77 12.6-0.188 3.28-2.51 6.51-5.07 8.38-8.81 0.521-5.23 0.643-9.64-1.62-14.4-3.9-4.21-7.04-6.77-12.9-7.06-5.87 0.296-9.08 2.81-12.8 7.25z" fill="#000001"/>
<path transform="translate(1308 395)" d="m0 0c3.74 2.97 6.24 6.02 7.8 10.6-0.438 2.68-0.438 2.68-1 5-14.6 0.426-14.6 0.426-20.9-4.06-4.01-2.49-6.42-2.79-11.1-2.94-2.42 0.788-2.42 0.788-4 2 0.33 1.65 0.66 3.3 1 5 1.17 0.242 2.34 0.485 3.55 0.734 25.8 5.45 25.8 5.45 32.4 13.3 1.88 5.64 1.75 11.8-0.125 17.4-4.5 6.3-9.49 8.87-16.9 10.6-3.82 0.425-7.59 0.465-11.4 0.438-0.973 0.02-1.95 0.04-2.95 0.0605-8.12-0.00542-15.2-1.6-21.5-6.94-0.701-0.846-1.4-1.69-2.12-2.56-0.743-0.722-1.48-1.44-2.25-2.19-2.54-4.07-2.57-8.09-2.75-12.8 0.652 0.0722 1.3 0.144 1.98 0.219 1.31 0.139 1.31 0.139 2.65 0.281 0.914 0.098 1.83 0.196 2.77 0.297 2.72 0.279 2.72 0.279 5.92-0.0469 2.69 0.25 2.69 0.25 5.56 2.62 2.12 2.62 2.12 2.62 2.12 4.62 1.89 0.534 3.79 1.05 5.69 1.56 1.06 0.29 2.11 0.58 3.2 0.879 3.16 0.567 5.07 0.533 8.11-0.441 2.21-1.83 2.21-1.83 2.44-4.44-0.18-2.71-0.18-2.71-2.44-4.25-4.76-2.08-9.52-3.05-14.6-3.96-15-2.71-15-2.71-20.3-8.41-1.94-5.36-2.39-11 0.00391-16.3 4.49-6.54 10.9-9.67 18.6-11.3 10.7-1.44 21.3-0.826 30.6 5.07z"/>
<path transform="translate(1e3 390)" d="m0 0c2.05 4.22 2.21 7.65 2.12 12.3-0.018 1.25-0.0361 2.51-0.0547 3.8-0.0232 0.953-0.0464 1.91-0.0703 2.89-0.99-0.33-1.98-0.66-3-1-4.72-0.549-8.1-0.466-12.4 1.75-3.67 3.14-5.72 5.5-6.62 10.2-0.15 2.47-0.256 4.92-0.316 7.39-0.0208 0.705-0.0416 1.41-0.063 2.14-0.0652 2.24-0.124 4.48-0.183 6.72-0.0432 1.52-0.0868 3.05-0.131 4.57-0.108 3.73-0.207 7.45-0.307 11.2h-20v-60h19c0.66 1.65 1.32 3.3 2 5 3.65-1.25 4.78-1.67 7-5 4.42-1.95 8.21-2.19 13-2z" fill="#000001"/>
<path transform="translate(1537,146)" d="m0 0h2c1.13 36.7 0.975 73.4 0.627 110-0.0734 7.76-0.138 15.5-0.203 23.3-0.132 15.9-0.274 31.8-0.424 47.6h-2c-1.09-9.25-1.14-18.4-1.13-27.7-0.00136-1.67-0.00314-3.33-0.00531-5-0.00453-4.49-0.0028-8.98 3.79e-4 -13.5 0.00254-4.7 1.81e-4 -9.41-0.00139-14.1-0.00181-7.89 5.67e-4 -15.8 0.00534-23.7 0.00546-9.13 0.00366-18.3-0.00183-27.4-0.00453-7.84-0.00518-15.7-0.00256-23.5 0.00156-4.68 0.00176-9.36-0.00154-14-0.00288-4.39-9.07e-4 -8.78 0.00489-13.2 0.00133-1.62 9.33e-4 -3.23-0.00126-4.85-0.00271-2.2 6.68e-4 -4.39 0.00568-6.59 5.66e-4 -1.85 5.66e-4 -1.85 0.00114-3.73 0.126-2.73 0.126-2.73 1.13-3.73z" fill="#000100"/>
</svg>
